<?xml version="1.0" encoding="UTF-8" standalone="no"?>
<!-- Created with Inkscape (http://www.inkscape.org/) -->

<svg
   xmlns:dc="http://purl.org/dc/elements/1.1/"
   xmlns:cc="http://creativecommons.org/ns#"
   xmlns:rdf="http://www.w3.org/1999/02/22-rdf-syntax-ns#"
   xmlns:svg="http://www.w3.org/2000/svg"
   xmlns="http://www.w3.org/2000/svg"
   xmlns:sodipodi="http://sodipodi.sourceforge.net/DTD/sodipodi-0.dtd"
   xmlns:inkscape="http://www.inkscape.org/namespaces/inkscape"
   version="1.1"
   id="svg2"
   xml:space="preserve"
   width="401.33334"
   height="496"
   viewBox="0 0 401.33334 496"
   sodipodi:docname="solid_64channel_readout_unit.svg"
   inkscape:version="0.92+devel unknown"><metadata
     id="metadata8"><rdf:RDF><cc:Work
         rdf:about=""><dc:format>image/svg+xml</dc:format><dc:type
           rdf:resource="http://purl.org/dc/dcmitype/StillImage" /><dc:title></dc:title></cc:Work></rdf:RDF></metadata><defs
     id="defs6"><clipPath
       clipPathUnits="userSpaceOnUse"
       id="clipPath30"><path
         d="M 0,0 H 301 V 372 H 0 Z"
         clip-rule="evenodd"
         id="path28"
         inkscape:connector-curvature="0" /></clipPath><clipPath
       clipPathUnits="userSpaceOnUse"
       id="clipPath46"><path
         d="M 0,0 H 301 V 372 H 0 Z"
         clip-rule="evenodd"
         id="path44"
         inkscape:connector-curvature="0" /></clipPath><clipPath
       clipPathUnits="userSpaceOnUse"
       id="clipPath52"><path
         d="M 0,0 H 301 V 371 H 0 Z"
         clip-rule="evenodd"
         id="path50"
         inkscape:connector-curvature="0" /></clipPath><clipPath
       clipPathUnits="userSpaceOnUse"
       id="clipPath386"><path
         d="M 0,0 H 301 V 372 H 0 Z"
         clip-rule="evenodd"
         id="path384"
         inkscape:connector-curvature="0" /></clipPath><clipPath
       clipPathUnits="userSpaceOnUse"
       id="clipPath398"><path
         d="M 0,0 H 301 V 372 H 0 Z"
         clip-rule="evenodd"
         id="path396"
         inkscape:connector-curvature="0" /></clipPath><clipPath
       clipPathUnits="userSpaceOnUse"
       id="clipPath404"><path
         d="M 0,0 H 301 V 371 H 0 Z"
         clip-rule="evenodd"
         id="path402"
         inkscape:connector-curvature="0" /></clipPath><clipPath
       clipPathUnits="userSpaceOnUse"
       id="clipPath418"><path
         d="M 0,0 H 301 V 372 H 0 Z"
         clip-rule="evenodd"
         id="path416"
         inkscape:connector-curvature="0" /></clipPath></defs><sodipodi:namedview
     pagecolor="#ffffff"
     bordercolor="#666666"
     inkscape:document-rotation="0"
     borderopacity="1"
     objecttolerance="10"
     gridtolerance="10"
     guidetolerance="10"
     inkscape:pageopacity="0"
     inkscape:pageshadow="2"
     inkscape:window-width="848"
     inkscape:window-height="480"
     id="namedview4"
     showgrid="false"
     inkscape:zoom="1.9133065"
     inkscape:cx="200.66667"
     inkscape:cy="248"
     inkscape:window-x="0"
     inkscape:window-y="0"
     inkscape:window-maximized="0"
     inkscape:current-layer="g10" /><g
     id="g10"
     inkscape:groupmode="layer"
     inkscape:label="solid_64channel_readout_unit"
     transform="matrix(1.3333333,0,0,-1.3333333,0,496)"><g
       id="g12"
       transform="matrix(1,0,0,-1,0,372)"><g
         id="g14"><g
           id="g16" /></g><g
         id="g18"><g
           id="g20" /><g
           id="g22" /></g><g
         id="g24"><g
           id="g26"
           clip-path="url(#clipPath30)"><g
             id="g32" /><g
             id="g34"><path
               d="M 0,0 H 301 V 371 H 0 Z"
               style="fill:#ffffff;fill-opacity:1;fill-rule:nonzero;stroke:none"
               id="path36"
               inkscape:connector-curvature="0" /></g><g
             id="g38" /></g></g><g
         id="g40"><g
           id="g42"
           clip-path="url(#clipPath46)"><g
             id="g48"
             clip-path="url(#clipPath52)"><g
               id="g54" /><g
               id="g56"
               transform="translate(0.5,0.5)" /><g
               id="g58"><g
                 id="g60"
                 transform="translate(0.5,0.5)"><path
                   d="M 10,0 H 300 V 370 H 10 Z"
                   style="fill:#ffffff;fill-opacity:1;fill-rule:nonzero;stroke:none"
                   id="path62"
                   inkscape:connector-curvature="0" /></g></g><g
               id="g64"
               transform="translate(0.5,0.5)"><path
                 d="M 10,0 H 300 V 370 H 10 Z"
                 style="fill:none;stroke:#000000;stroke-width:1;stroke-linecap:butt;stroke-linejoin:miter;stroke-miterlimit:10;stroke-dasharray:3, 3;stroke-dashoffset:0;stroke-opacity:1"
                 id="path66"
                 inkscape:connector-curvature="0" /></g><g
               id="g68" /><g
               id="g70"
               transform="translate(0.5,0.5)" /><g
               id="g72"><g
                 id="g74"
                 transform="translate(0.5,0.5)"><path
                   d="M 130,10 H 300 V 280 H 130 Z"
                   style="fill:#d5e8d4;fill-opacity:1;fill-rule:nonzero;stroke:none"
                   id="path76"
                   inkscape:connector-curvature="0" /></g></g><g
               id="g78"
               transform="translate(0.5,0.5)"><path
                 d="M 130,10 H 300 V 280 H 130 Z"
                 style="fill:none;stroke:#82b366;stroke-width:1;stroke-linecap:butt;stroke-linejoin:miter;stroke-miterlimit:10;stroke-dasharray:none;stroke-opacity:1"
                 id="path80"
                 inkscape:connector-curvature="0" /></g><g
               id="g82" /><g
               id="g84"
               transform="translate(178,132)"><g
                 id="g86" /></g><g
               id="g88"><path
                 d="m 190.62598,134.30371 c 0.36914,0.48633 0.55371,0.9873 0.55371,1.50293 h -1.04297 c -0.0625,-0.33203 -0.16211,-0.5918 -0.29883,-0.7793 -0.25391,-0.35156 -0.63867,-0.52734 -1.1543,-0.52734 -0.58984,0 -1.05859,0.27246 -1.40625,0.81738 -0.34765,0.54492 -0.54101,1.3252 -0.58008,2.34082 0.24219,-0.35547 0.54688,-0.62109 0.91407,-0.79687 0.33593,-0.15625 0.71094,-0.23438 1.125,-0.23438 0.70312,0 1.3164,0.22461 1.83984,0.67383 0.52344,0.44922 0.78516,1.11914 0.78516,2.00977 0,0.76171 -0.24805,1.43652 -0.74414,2.02441 -0.4961,0.58789 -1.20313,0.88184 -2.1211,0.88184 -0.78515,0 -1.46289,-0.29786 -2.0332,-0.89356 -0.57031,-0.5957 -0.85547,-1.59863 -0.85547,-3.00879 0,-1.04297 0.12695,-1.92773 0.38086,-2.65429 0.48828,-1.39063 1.38086,-2.08594 2.67773,-2.08594 0.9375,0 1.59082,0.24316 1.95997,0.72949 z m -0.79102,6.41602 c 0.27539,-0.37305 0.41309,-0.81348 0.41309,-1.32129 0,-0.42969 -0.12305,-0.83887 -0.36914,-1.22754 -0.2461,-0.38867 -0.69336,-0.58301 -1.3418,-0.58301 -0.45313,0 -0.85059,0.15039 -1.19238,0.45117 -0.3418,0.30078 -0.5127,0.75391 -0.5127,1.35938 0,0.53125 0.15527,0.97754 0.46582,1.33886 0.31055,0.36133 0.74121,0.542 1.29199,0.542 0.55469,0 0.96973,-0.18653 1.24512,-0.55957 z m 5.95996,-1.69043 v -3.80274 l -2.68945,3.80274 z m 0.0176,2.9707 v -2.05078 h -3.67969 v -1.03125 l 3.84375,-5.33203 h 0.89063 v 5.44336 h 1.23632 v 0.91992 h -1.23632 V 142 Z m 10.93457,-5.94141 c 0.44336,0.34375 0.70996,0.93555 0.7998,1.77539 h -1.02539 c -0.0625,-0.38672 -0.20507,-0.708 -0.42773,-0.96386 -0.22266,-0.25586 -0.58008,-0.38379 -1.07227,-0.38379 -0.67187,0 -1.15234,0.32812 -1.4414,0.98437 -0.1875,0.42578 -0.28125,0.95117 -0.28125,1.57617 0,0.62891 0.13281,1.15821 0.39843,1.58789 0.26563,0.42969 0.6836,0.64454 1.25391,0.64454 0.4375,0 0.78418,-0.13379 1.04004,-0.40137 0.25586,-0.26758 0.43262,-0.63379 0.53027,-1.09863 h 1.02539 c -0.11718,0.83203 -0.41015,1.44043 -0.8789,1.82519 -0.46875,0.38477 -1.06836,0.57715 -1.79883,0.57715 -0.82031,0 -1.47461,-0.2998 -1.96289,-0.89941 -0.48828,-0.59961 -0.73242,-1.34864 -0.73242,-2.24707 0,-1.10157 0.26758,-1.95899 0.80273,-2.57227 0.53516,-0.61328 1.2168,-0.91992 2.04492,-0.91992 0.70703,0 1.28223,0.17187 1.72559,0.51562 z m 1.85449,-2.69531 h 1.05469 v 3.21094 c 0.25,-0.31641 0.47461,-0.53906 0.67383,-0.66797 0.33984,-0.22266 0.76367,-0.33399 1.27148,-0.33399 0.91016,0 1.52735,0.31836 1.85156,0.95508 0.17579,0.34766 0.26368,0.83008 0.26368,1.44727 V 142 h -1.08399 v -3.95508 c 0,-0.46094 -0.0586,-0.79883 -0.17578,-1.01367 -0.19141,-0.34375 -0.55078,-0.51563 -1.07812,-0.51563 -0.4375,0 -0.83399,0.15039 -1.18946,0.45118 -0.35547,0.30078 -0.5332,0.86914 -0.5332,1.70507 V 142 h -1.05469 z m 7.81445,7.6875 c 0.22266,0.17578 0.48633,0.26367 0.79102,0.26367 0.37109,0 0.73047,-0.0859 1.07813,-0.25781 0.58593,-0.28516 0.8789,-0.75195 0.8789,-1.40039 v -0.84961 c -0.1289,0.082 -0.29492,0.15039 -0.49805,0.20508 -0.20312,0.0547 -0.40234,0.0937 -0.59765,0.11719 l -0.63867,0.082 c -0.38282,0.0508 -0.66993,0.13086 -0.86133,0.24023 -0.32422,0.18359 -0.48633,0.47656 -0.48633,0.87891 0,0.30468 0.11133,0.54492 0.33398,0.7207 z m 2.22071,-2.85352 c 0.24219,-0.0312 0.40429,-0.13281 0.48633,-0.30468 0.0469,-0.0937 0.0703,-0.22852 0.0703,-0.4043 0,-0.35937 -0.12793,-0.62012 -0.38379,-0.78223 -0.25586,-0.16211 -0.62207,-0.24316 -1.09863,-0.24316 -0.55078,0 -0.94141,0.14844 -1.17188,0.44531 -0.1289,0.16406 -0.21289,0.40821 -0.25195,0.73242 h -0.98438 c 0.0195,-0.77343 0.27051,-1.31152 0.75293,-1.61425 0.48242,-0.30274 1.042,-0.45411 1.67871,-0.45411 0.73829,0 1.33789,0.14063 1.79883,0.42188 0.45703,0.28125 0.68555,0.71875 0.68555,1.3125 v 3.61523 c 0,0.10938 0.0225,0.19727 0.0674,0.26368 0.0449,0.0664 0.13965,0.0996 0.28418,0.0996 0.0469,0 0.0996,-0.003 0.1582,-0.009 0.0586,-0.006 0.1211,-0.0146 0.1875,-0.0264 v 0.7793 c -0.16406,0.0469 -0.28906,0.0762 -0.375,0.0879 -0.0859,0.0117 -0.20312,0.0176 -0.35156,0.0176 -0.36328,0 -0.62695,-0.1289 -0.79101,-0.38671 -0.0859,-0.13672 -0.14649,-0.33008 -0.18164,-0.58008 -0.21485,0.28125 -0.52344,0.52539 -0.92579,0.73242 -0.40234,0.20703 -0.8457,0.31055 -1.33007,0.31055 -0.58203,0 -1.05762,-0.17676 -1.42676,-0.53028 -0.36914,-0.35351 -0.55371,-0.7959 -0.55371,-1.32715 0,-0.58203 0.18164,-1.0332 0.54492,-1.35351 0.36328,-0.32031 0.83984,-0.51758 1.42969,-0.5918 l 1.68164,-0.21094 z m 3.30859,-2.47265 h 1.00195 v 0.89062 c 0.29688,-0.36718 0.61133,-0.63086 0.94336,-0.79101 0.33204,-0.16016 0.70118,-0.24024 1.10743,-0.24024 0.89062,0 1.49218,0.31055 1.80468,0.93164 0.17188,0.33985 0.25782,0.82618 0.25782,1.45899 V 142 h -1.07227 v -3.95508 c 0,-0.38281 -0.0566,-0.69141 -0.16992,-0.92578 -0.1875,-0.39063 -0.52735,-0.58594 -1.01953,-0.58594 -0.25,0 -0.45508,0.0254 -0.61524,0.0762 -0.28906,0.0859 -0.54297,0.25782 -0.76172,0.51563 -0.17578,0.20703 -0.29004,0.4209 -0.34277,0.6416 -0.0527,0.2207 -0.0791,0.53613 -0.0791,0.94629 v 3.28711 h -1.05469 v -6.27539 z m 6.67188,0 h 1.00195 v 0.89062 c 0.29687,-0.36718 0.61133,-0.63086 0.94336,-0.79101 0.33203,-0.16016 0.70117,-0.24024 1.10742,-0.24024 0.89063,0 1.49219,0.31055 1.80469,0.93164 0.17187,0.33985 0.25781,0.82618 0.25781,1.45899 V 142 h -1.07226 v -3.95508 c 0,-0.38281 -0.0566,-0.69141 -0.16993,-0.92578 -0.1875,-0.39063 -0.52734,-0.58594 -1.01953,-0.58594 -0.25,0 -0.45508,0.0254 -0.61523,0.0762 -0.28906,0.0859 -0.54297,0.25782 -0.76172,0.51563 -0.17578,0.20703 -0.29004,0.4209 -0.34277,0.6416 -0.0527,0.2207 -0.0791,0.53613 -0.0791,0.94629 v 3.28711 h -1.05468 v -6.27539 z m 10.58007,0.17285 c 0.41797,0.20898 0.73633,0.47949 0.95508,0.81152 0.21094,0.31641 0.35157,0.68555 0.42188,1.10743 0.0625,0.28906 0.0937,0.75 0.0937,1.38281 h -4.59961 c 0.0195,0.63672 0.16992,1.14746 0.45117,1.53222 0.28125,0.38477 0.7168,0.57715 1.30664,0.57715 0.55078,0 0.99024,-0.18164 1.31836,-0.54492 0.1875,-0.21094 0.32031,-0.45508 0.39844,-0.73242 h 1.03711 c -0.0274,0.23047 -0.11817,0.4873 -0.27246,0.77051 -0.1543,0.2832 -0.32715,0.51465 -0.51856,0.69433 -0.32031,0.3125 -0.7168,0.52344 -1.18945,0.63282 -0.25391,0.0625 -0.54102,0.0937 -0.86133,0.0937 -0.78125,0 -1.44336,-0.28418 -1.98633,-0.85254 -0.54297,-0.56836 -0.81445,-1.36426 -0.81445,-2.3877 0,-1.00781 0.27344,-1.82617 0.82031,-2.45508 0.54688,-0.6289 1.26172,-0.94336 2.14453,-0.94336 0.44532,0 0.87696,0.1045 1.29492,0.31348 z m 0.38672,2.46387 c -0.043,-0.45703 -0.14257,-0.82227 -0.29882,-1.09571 -0.28907,-0.50781 -0.77149,-0.76171 -1.44727,-0.76171 -0.48438,0 -0.89063,0.1748 -1.21875,0.52441 -0.32813,0.34961 -0.50195,0.79395 -0.52148,1.33301 z m 2.40625,-4.96875 h 1.05469 V 142 h -1.05469 z"
                 style="fill:#000000;fill-opacity:1;fill-rule:nonzero;stroke:none"
                 id="path90"
                 inkscape:connector-curvature="0" /></g><g
               id="g92"
               transform="translate(178,132)"><g
                 id="g94" /><g
                 id="g96" /></g><g
               id="g98"><path
                 d="m 184.33203,152.47266 -1.30664,-3.80274 -1.38867,3.80274 z m -1.91602,-5.08008 h 1.31836 L 186.85742,156 h -1.27734 l -0.87305,-2.57813 h -3.4043 L 180.37109,156 h -1.19531 z m 8.80274,7.61133 c 0.39453,0 0.71875,-0.041 0.97266,-0.12305 0.45312,-0.15235 0.82421,-0.44531 1.11328,-0.87891 0.23047,-0.34765 0.39648,-0.79297 0.49804,-1.33594 0.0586,-0.32421 0.0879,-0.625 0.0879,-0.90234 0,-1.06641 -0.21191,-1.89453 -0.63574,-2.48437 -0.42383,-0.58985 -1.10644,-0.88477 -2.04785,-0.88477 h -2.06836 v 6.60938 h 2.08008 z m -3.25195,-7.61133 h 3.48632 c 1.1836,0 2.10157,0.41992 2.75391,1.25976 0.58203,0.75782 0.87305,1.72852 0.87305,2.91211 0,0.91406 -0.17188,1.74024 -0.51563,2.47852 C 193.95898,155.34766 192.91797,156 191.44141,156 h -3.47461 z m 14.76757,0.62695 c 0.60157,0.57422 0.93555,1.22656 1.00196,1.95703 h -1.13672 c -0.12891,-0.55469 -0.38574,-0.99414 -0.77051,-1.31836 -0.38477,-0.32422 -0.9248,-0.48633 -1.62012,-0.48633 -0.84765,0 -1.53222,0.29786 -2.05371,0.89356 -0.52148,0.5957 -0.78222,1.50879 -0.78222,2.73926 0,1.00781 0.23535,1.82519 0.70605,2.45214 0.4707,0.62696 1.17285,0.94043 2.10645,0.94043 0.85937,0 1.51367,-0.33007 1.96289,-0.99023 0.23828,-0.34766 0.41601,-0.80469 0.5332,-1.37109 h 1.13672 c -0.10156,0.90625 -0.4375,1.66601 -1.00781,2.27929 -0.6836,0.73828 -1.60547,1.10743 -2.76563,1.10743 -1,0 -1.83984,-0.30274 -2.51953,-0.90821 -0.89453,-0.80078 -1.3418,-2.03711 -1.3418,-3.70898 0,-1.26953 0.33594,-2.31055 1.00782,-3.12305 0.72656,-0.88281 1.72851,-1.32422 3.00585,-1.32422 1.08985,0 1.93555,0.28711 2.53711,0.86133 z m 5.44532,5.41406 v -0.98437 h 2.55468 v -2.57227 h 1.00196 v 2.57227 h 2.55468 v 0.98437 h -2.55468 V 156 h -1.00196 v -2.56641 z m 10.81445,-6.04101 h 5.9707 v 1.05468 h -4.80468 v 2.61329 h 4.2246 v 1.02539 h -4.2246 V 156 h -1.16602 z m 7.32813,0 h 3.87304 c 0.76563,0 1.38281,0.21582 1.85156,0.64746 0.46875,0.43164 0.70313,1.03808 0.70313,1.81933 0,0.67188 -0.20899,1.25684 -0.62695,1.75489 -0.41797,0.49804 -1.06055,0.74707 -1.92774,0.74707 h -2.70703 V 156 h -1.16601 z m 4.54687,1.18359 c -0.25781,-0.12109 -0.61133,-0.18164 -1.06055,-0.18164 h -2.32031 v 2.98242 h 2.32031 c 0.52344,0 0.94824,-0.11133 1.27442,-0.33398 0.32617,-0.22266 0.48925,-0.61524 0.48925,-1.17774 0,-0.63281 -0.23437,-1.0625 -0.70312,-1.28906 z m 9.16016,-0.9375 c 0.85546,0.44922 1.3789,1.23633 1.57031,2.36133 h -1.1543 c -0.14062,-0.62891 -0.43164,-1.08692 -0.87305,-1.37402 -0.4414,-0.28711 -0.99804,-0.43067 -1.66992,-0.43067 -0.79687,0 -1.46777,0.29883 -2.01269,0.89649 -0.54492,0.59765 -0.81739,1.48828 -0.81739,2.67187 0,1.02344 0.22461,1.85645 0.67383,2.49902 0.44922,0.64258 1.18164,0.96387 2.19727,0.96387 0.77734,0 1.4209,-0.22558 1.93066,-0.67676 0.50977,-0.45117 0.77051,-1.18066 0.78223,-2.18847 h -2.69531 v -0.9668 h 3.77929 V 156 h -0.75 l -0.28125,-1.10742 c -0.39453,0.43359 -0.74414,0.73437 -1.04882,0.90234 -0.51172,0.28906 -1.16211,0.43359 -1.95118,0.43359 -1.01953,0 -1.89648,-0.33007 -2.63086,-0.99023 -0.80078,-0.82812 -1.20117,-1.96484 -1.20117,-3.41015 0,-1.44141 0.39063,-2.5879 1.17188,-3.43946 0.74218,-0.8125 1.70312,-1.21875 2.88281,-1.21875 0.80859,0 1.50781,0.15625 2.09766,0.46875 z m 7.92773,4.83399 -1.30664,-3.80274 -1.38867,3.80274 z m -1.91602,-5.08008 h 1.31836 L 250.48242,156 h -1.27734 l -0.87305,-2.57813 h -3.4043 L 243.99609,156 h -1.19531 z"
                 style="fill:#000000;fill-opacity:1;fill-rule:nonzero;stroke:none"
                 id="path100"
                 inkscape:connector-curvature="0" /></g><g
               id="g102"
               transform="translate(178,132)"><g
                 id="g104" /></g><g
               id="g106" /><g
               id="g108"
               transform="translate(0.5,0.5)" /><g
               id="g110"><g
                 id="g112"
                 transform="translate(0.5,0.5)"><path
                   d="M 10,10 H 130 V 120 H 10 Z"
                   style="fill:#dae8fc;fill-opacity:1;fill-rule:nonzero;stroke:none"
                   id="path114"
                   inkscape:connector-curvature="0" /></g></g><g
               id="g116"
               transform="translate(0.5,0.5)"><path
                 d="M 10,10 H 130 V 120 H 10 Z"
                 style="fill:none;stroke:#6c8ebf;stroke-width:1;stroke-linecap:butt;stroke-linejoin:miter;stroke-miterlimit:10;stroke-dasharray:none;stroke-opacity:1"
                 id="path118"
                 inkscape:connector-curvature="0" /></g><g
               id="g120" /><g
               id="g122"
               transform="translate(40,52)"><g
                 id="g124" /></g><g
               id="g126"><path
                 d="m 41.958008,61.411133 c -0.447266,-0.544922 -0.670899,-1.208008 -0.670899,-1.989258 h 1.101563 c 0.04687,0.542969 0.148437,0.9375 0.304687,1.183594 0.273438,0.441406 0.767578,0.662109 1.482422,0.662109 0.554688,0 1,-0.148437 1.335938,-0.445312 0.335937,-0.296875 0.503906,-0.679688 0.503906,-1.148438 0,-0.578125 -0.176758,-0.982422 -0.530274,-1.212891 -0.353515,-0.230468 -0.844726,-0.345703 -1.473632,-0.345703 -0.07031,0 -0.141602,9.77e-4 -0.213868,0.0029 -0.07227,0.002 -0.145507,0.0049 -0.219726,0.0088 v -0.93164 c 0.109375,0.01172 0.201172,0.01953 0.275391,0.02344 0.07422,0.0039 0.154296,0.0059 0.240234,0.0059 0.394531,0 0.71875,-0.0625 0.972656,-0.1875 0.445313,-0.21875 0.667969,-0.609375 0.667969,-1.171875 0,-0.417968 -0.148438,-0.740234 -0.445313,-0.966797 -0.296875,-0.226562 -0.642578,-0.339843 -1.037109,-0.339843 -0.703125,0 -1.189453,0.234375 -1.458984,0.703125 -0.148438,0.257812 -0.232422,0.625 -0.251953,1.101562 h -1.042969 c 0,-0.625 0.125,-1.15625 0.375,-1.59375 0.429687,-0.78125 1.185547,-1.171875 2.267578,-1.171875 0.855469,0 1.517578,0.19043 1.986328,0.571289 0.46875,0.38086 0.703125,0.932617 0.703125,1.655274 0,0.515625 -0.138672,0.933593 -0.416016,1.253906 -0.171875,0.199219 -0.394531,0.355469 -0.667968,0.46875 0.441406,0.121094 0.786132,0.354492 1.034179,0.700195 0.248047,0.345703 0.372071,0.768555 0.372071,1.268555 0,0.800781 -0.263672,1.453125 -0.791016,1.957031 -0.527344,0.503906 -1.275391,0.75586 -2.244141,0.75586 -0.992187,0 -1.711914,-0.272461 -2.159179,-0.817383 z m 6.537109,-1.297852 c 0.259766,-0.535156 0.766602,-1.021484 1.520508,-1.458984 l 1.125,-0.650391 c 0.503906,-0.292969 0.857422,-0.542969 1.060547,-0.75 0.320312,-0.324219 0.480469,-0.695312 0.480469,-1.113281 0,-0.488281 -0.146485,-0.875977 -0.439454,-1.163086 -0.292968,-0.287109 -0.683593,-0.430664 -1.171874,-0.430664 -0.722657,0 -1.222657,0.273438 -1.5,0.820312 -0.148438,0.292969 -0.230469,0.699219 -0.246094,1.21875 h -1.072266 c 0.01172,-0.730468 0.146484,-1.326171 0.404297,-1.787109 0.457031,-0.8125 1.263672,-1.21875 2.419922,-1.21875 0.960937,0 1.663086,0.259766 2.106445,0.779297 0.44336,0.519531 0.665039,1.097656 0.665039,1.734375 0,0.671875 -0.236328,1.246094 -0.708984,1.722656 -0.273438,0.277344 -0.763672,0.613281 -1.470703,1.007813 l -0.802735,0.445312 c -0.382812,0.210938 -0.683593,0.41211 -0.902343,0.603516 -0.390625,0.339844 -0.636719,0.716797 -0.738282,1.130859 h 4.582032 V 62 h -5.759766 c 0.03906,-0.722656 0.188477,-1.351563 0.448242,-1.886719 z M 62.59082,56.058594 c 0.44336,0.34375 0.709961,0.935547 0.799805,1.77539 h -1.025391 c -0.0625,-0.386718 -0.205078,-0.708007 -0.427734,-0.963867 -0.222656,-0.255859 -0.580078,-0.383789 -1.072266,-0.383789 -0.671875,0 -1.152343,0.328125 -1.441406,0.984375 -0.1875,0.425781 -0.28125,0.951172 -0.28125,1.576172 0,0.628906 0.132813,1.158203 0.398438,1.587891 0.265625,0.429687 0.683593,0.644531 1.253906,0.644531 0.4375,0 0.784179,-0.133789 1.040039,-0.401367 0.255859,-0.267579 0.432617,-0.633789 0.530273,-1.098633 h 1.025391 c -0.117188,0.832031 -0.410156,1.440429 -0.878906,1.825195 -0.46875,0.384766 -1.06836,0.577149 -1.798828,0.577149 -0.820313,0 -1.47461,-0.299805 -1.962891,-0.899415 -0.488281,-0.599609 -0.732422,-1.348632 -0.732422,-2.24707 0,-1.101562 0.267578,-1.958984 0.802735,-2.572265 0.535156,-0.613282 1.216796,-0.919922 2.044921,-0.919922 0.707032,0 1.282227,0.171875 1.725586,0.515625 z m 1.854492,-2.695313 H 65.5 v 3.210938 c 0.25,-0.316407 0.474609,-0.539063 0.673828,-0.667969 0.339844,-0.222656 0.763672,-0.333984 1.271484,-0.333984 0.910157,0 1.527344,0.318359 1.851563,0.955078 0.175781,0.347656 0.263672,0.830078 0.263672,1.447265 V 62 h -1.083985 v -3.955078 c 0,-0.460938 -0.05859,-0.798828 -0.175781,-1.013672 C 68.109375,56.6875 67.75,56.515625 67.222656,56.515625 c -0.4375,0 -0.833984,0.150391 -1.189453,0.451172 C 65.677734,57.267578 65.5,57.835937 65.5,58.671875 V 62 h -1.054688 z m 7.814454,7.6875 c 0.222656,0.175782 0.486328,0.263672 0.791015,0.263672 0.371094,0 0.730469,-0.08594 1.078125,-0.257812 0.585938,-0.285157 0.878906,-0.751954 0.878906,-1.400391 v -0.849609 c -0.128906,0.08203 -0.294921,0.15039 -0.498046,0.205078 -0.203125,0.05469 -0.402344,0.09375 -0.597657,0.117187 l -0.638672,0.08203 c -0.382812,0.05078 -0.669921,0.13086 -0.861328,0.240235 -0.324218,0.183594 -0.486328,0.476562 -0.486328,0.878906 0,0.304688 0.111328,0.544922 0.333985,0.720704 z m 2.220703,-2.853515 c 0.242187,-0.03125 0.404297,-0.132813 0.486328,-0.304688 0.04687,-0.09375 0.07031,-0.228516 0.07031,-0.404297 0,-0.359375 -0.127929,-0.620117 -0.383789,-0.782226 -0.255859,-0.16211 -0.62207,-0.243164 -1.098633,-0.243164 -0.550781,0 -0.941406,0.148437 -1.171875,0.445312 -0.128906,0.164063 -0.21289,0.408203 -0.251953,0.732422 h -0.984375 c 0.01953,-0.773438 0.270508,-1.311524 0.75293,-1.614258 0.482422,-0.302734 1.041992,-0.454101 1.678711,-0.454101 0.738281,0 1.337891,0.140625 1.798828,0.421875 0.457031,0.28125 0.685547,0.71875 0.685547,1.3125 v 3.615234 c 0,0.109375 0.02246,0.197266 0.06738,0.263672 0.04492,0.06641 0.139648,0.09961 0.28418,0.09961 0.04687,0 0.09961,-0.0029 0.158203,-0.0088 0.05859,-0.0059 0.121093,-0.01465 0.1875,-0.02637 v 0.779297 c -0.164063,0.04687 -0.289063,0.07617 -0.375,0.08789 -0.08594,0.01172 -0.203125,0.01758 -0.351563,0.01758 -0.363281,0 -0.626953,-0.128907 -0.791016,-0.386719 -0.08594,-0.136719 -0.146484,-0.330078 -0.18164,-0.580078 -0.214844,0.28125 -0.523438,0.52539 -0.925781,0.732422 -0.402344,0.207031 -0.845704,0.310546 -1.330079,0.310546 -0.582031,0 -1.057617,-0.176757 -1.426757,-0.530273 -0.369141,-0.353516 -0.553711,-0.795898 -0.553711,-1.327148 0,-0.582032 0.18164,-1.033203 0.544922,-1.353516 0.363281,-0.320313 0.839843,-0.517578 1.429687,-0.591797 l 1.681641,-0.210937 z m 3.308593,-2.472657 h 1.001954 v 0.890625 c 0.296875,-0.367187 0.611328,-0.630859 0.943359,-0.791015 0.332031,-0.160157 0.701172,-0.240235 1.107422,-0.240235 0.890625,0 1.492187,0.310547 1.804687,0.931641 0.171875,0.339844 0.257813,0.826172 0.257813,1.458984 V 62 h -1.072266 v -3.955078 c 0,-0.382813 -0.05664,-0.691406 -0.169922,-0.925781 -0.1875,-0.390625 -0.527343,-0.585938 -1.019531,-0.585938 -0.25,0 -0.455078,0.02539 -0.615234,0.07617 -0.289063,0.08594 -0.542969,0.257812 -0.761719,0.515625 -0.175781,0.207031 -0.290039,0.420898 -0.342774,0.641601 -0.05273,0.220704 -0.0791,0.536133 -0.0791,0.94629 v 3.287109 h -1.054688 v -6.275391 z m 6.671875,0 h 1.001954 v 0.890625 c 0.296875,-0.367187 0.611328,-0.630859 0.943359,-0.791015 0.332031,-0.160157 0.701172,-0.240235 1.107422,-0.240235 0.890625,0 1.492187,0.310547 1.804687,0.931641 0.171875,0.339844 0.257813,0.826172 0.257813,1.458984 V 62 h -1.072266 v -3.955078 c 0,-0.382813 -0.05664,-0.691406 -0.169922,-0.925781 -0.1875,-0.390625 -0.527343,-0.585938 -1.019531,-0.585938 -0.25,0 -0.455078,0.02539 -0.615234,0.07617 -0.289063,0.08594 -0.542969,0.257812 -0.761719,0.515625 -0.175781,0.207031 -0.290039,0.420898 -0.342773,0.641601 -0.05274,0.220704 -0.0791,0.536133 -0.0791,0.94629 v 3.287109 h -1.054688 v -6.275391 z m 10.580079,0.172852 c 0.417968,0.208984 0.736328,0.479492 0.955078,0.811523 0.210937,0.316407 0.351562,0.685547 0.421875,1.107422 0.0625,0.289063 0.09375,0.75 0.09375,1.382813 h -4.59961 c 0.01953,0.636718 0.169922,1.147461 0.451172,1.532226 0.28125,0.384766 0.716797,0.577149 1.306641,0.577149 0.550781,0 0.990234,-0.181641 1.318359,-0.544922 0.1875,-0.210938 0.320313,-0.455078 0.398438,-0.732422 h 1.037109 c -0.02734,0.230469 -0.118164,0.487305 -0.272461,0.770508 -0.154297,0.283203 -0.327148,0.514648 -0.518555,0.694336 -0.320312,0.3125 -0.716796,0.523437 -1.189453,0.632812 -0.253906,0.0625 -0.541015,0.09375 -0.861328,0.09375 -0.78125,0 -1.443359,-0.28418 -1.986328,-0.852539 -0.542969,-0.568359 -0.814453,-1.364258 -0.814453,-2.387695 0,-1.007813 0.273437,-1.826172 0.820312,-2.455078 0.546875,-0.628907 1.261719,-0.94336 2.144532,-0.94336 0.445312,0 0.876953,0.104492 1.294922,0.313477 z m 0.386718,2.463867 c -0.04297,-0.457031 -0.142578,-0.822266 -0.298828,-1.095703 -0.289062,-0.507813 -0.771484,-0.761719 -1.447265,-0.761719 -0.484375,0 -0.890625,0.174805 -1.21875,0.524414 -0.328125,0.34961 -0.501954,0.793946 -0.521485,1.333008 z m 2.40625,-4.96875 h 1.054688 V 62 h -1.054688 z"
                 style="fill:#000000;fill-opacity:1;fill-rule:nonzero;stroke:none"
                 id="path128"
                 inkscape:connector-curvature="0" /></g><g
               id="g130"
               transform="translate(40,52)"><g
                 id="g132" /><g
                 id="g134" /></g><g
               id="g136"><path
                 d="m 52.019531,72.472656 -1.30664,-3.802734 -1.388672,3.802734 z m -1.916015,-5.080078 h 1.318359 L 54.544922,76 H 53.267578 L 52.394531,73.421875 H 48.990234 L 48.058594,76 h -1.195313 z m 5.357421,2.332031 h 1.042969 v 0.890625 c 0.25,-0.308593 0.476563,-0.533203 0.679688,-0.673828 0.347656,-0.238281 0.742187,-0.357422 1.183593,-0.357422 0.5,0 0.902344,0.123047 1.207032,0.369141 0.171875,0.140625 0.328125,0.347656 0.46875,0.621094 0.234375,-0.335938 0.509765,-0.584961 0.826172,-0.747071 0.316406,-0.162109 0.671875,-0.243164 1.066406,-0.243164 0.84375,0 1.417969,0.304688 1.722656,0.914063 0.164063,0.328125 0.246094,0.769531 0.246094,1.324219 V 76 h -1.095703 v -4.359375 c 0,-0.417969 -0.104493,-0.705078 -0.313477,-0.861328 -0.208984,-0.15625 -0.463867,-0.234375 -0.764648,-0.234375 -0.414063,0 -0.770508,0.138672 -1.069336,0.416015 -0.298828,0.277344 -0.448242,0.740235 -0.448242,1.388672 V 76 h -1.072266 v -4.095703 c 0,-0.425781 -0.05078,-0.736328 -0.152344,-0.931641 -0.160156,-0.292969 -0.458984,-0.439453 -0.896484,-0.439453 -0.398438,0 -0.760742,0.154297 -1.086914,0.462891 -0.326172,0.308593 -0.489258,0.867187 -0.489258,1.675781 V 76 h -1.054688 z m 13.860352,4.948242 c 0.326172,-0.412109 0.489258,-1.02832 0.489258,-1.848632 0,-0.5 -0.07227,-0.929688 -0.216797,-1.289063 -0.273438,-0.691406 -0.773438,-1.037109 -1.5,-1.037109 -0.730469,0 -1.230469,0.365234 -1.5,1.095703 -0.144531,0.390625 -0.216797,0.886719 -0.216797,1.488281 0,0.484375 0.07227,0.896485 0.216797,1.236328 0.273437,0.648438 0.773437,0.972657 1.5,0.972657 0.492187,0 0.901367,-0.206055 1.227539,-0.618165 z m -3.958008,-4.918945 h 1.025391 v 0.832031 c 0.210937,-0.285156 0.441406,-0.505859 0.691406,-0.662109 0.355469,-0.234375 0.773438,-0.351562 1.253906,-0.351562 0.710938,0 1.314453,0.272461 1.810547,0.817382 0.496094,0.544922 0.744141,1.323243 0.744141,2.334961 0,1.367188 -0.357422,2.34375 -1.072266,2.929688 -0.453125,0.371094 -0.980469,0.55664 -1.582031,0.55664 -0.472656,0 -0.869141,-0.103515 -1.189453,-0.310546 -0.1875,-0.117188 -0.396485,-0.31836 -0.626953,-0.603516 v 3.205078 h -1.054688 z m 6.783203,-2.361328 h 1.054688 V 76 h -1.054688 z m 2.626953,2.361328 h 1.072266 V 76 h -1.072266 z m 0,-2.361328 h 1.072266 v 1.195313 h -1.072266 z m 3.148438,0.416016 c 0.246094,-0.359375 0.720703,-0.539063 1.423828,-0.539063 0.06641,0 0.134766,0.002 0.205078,0.0059 0.07031,0.0039 0.150391,0.0098 0.240235,0.01758 v 0.960937 c -0.109375,-0.0078 -0.188477,-0.01269 -0.237305,-0.01465 -0.04883,-0.002 -0.09473,-0.0029 -0.137695,-0.0029 -0.320313,0 -0.511719,0.08301 -0.574219,0.249023 -0.0625,0.166016 -0.09375,0.588868 -0.09375,1.268555 h 1.042969 v 0.832031 h -1.054688 v 5.414063 h -1.042969 v -5.414063 h -0.873047 v -0.832031 h 0.873047 v -0.984375 c 0.01563,-0.4375 0.0918,-0.757812 0.228516,-0.960937 z m 2.835937,1.945312 h 1.072266 V 76 h -1.072266 z m 0,-2.361328 h 1.072266 v 1.195313 h -1.072266 z m 6.564454,2.504883 c 0.417968,0.208984 0.736328,0.479492 0.955078,0.811523 0.210937,0.316407 0.351562,0.685547 0.421875,1.107422 0.0625,0.289063 0.09375,0.75 0.09375,1.382813 h -4.59961 c 0.01953,0.636718 0.169922,1.147461 0.451172,1.532226 0.28125,0.384766 0.716797,0.577149 1.306641,0.577149 0.550781,0 0.990234,-0.181641 1.318359,-0.544922 0.1875,-0.210938 0.320313,-0.455078 0.398438,-0.732422 h 1.037109 c -0.02734,0.230469 -0.118164,0.487305 -0.272461,0.770508 -0.154297,0.283203 -0.327148,0.514648 -0.518554,0.694336 -0.320313,0.3125 -0.716797,0.523437 -1.189454,0.632812 -0.253906,0.0625 -0.541015,0.09375 -0.861328,0.09375 -0.78125,0 -1.443359,-0.28418 -1.986328,-0.852539 -0.542969,-0.568359 -0.814453,-1.364258 -0.814453,-2.387695 0,-1.007813 0.273437,-1.826172 0.820312,-2.455078 0.546875,-0.628907 1.261719,-0.94336 2.144532,-0.94336 0.445312,0 0.876953,0.104492 1.294922,0.313477 z m 0.386718,2.463867 c -0.04297,-0.457031 -0.142578,-0.822266 -0.298828,-1.095703 -0.289062,-0.507813 -0.771484,-0.761719 -1.447265,-0.761719 -0.484375,0 -0.890625,0.174805 -1.21875,0.524414 -0.328125,0.34961 -0.501954,0.793946 -0.521485,1.333008 z m 2.40625,-2.636719 h 1.001953 v 1.083985 c 0.08203,-0.210938 0.283204,-0.467774 0.603516,-0.770508 0.320313,-0.302735 0.689453,-0.454102 1.107422,-0.454102 0.01953,0 0.05273,0.002 0.09961,0.0059 0.04687,0.0039 0.126953,0.01172 0.240235,0.02344 v 1.113281 c -0.0625,-0.01172 -0.120117,-0.01953 -0.172852,-0.02344 -0.05273,-0.0039 -0.110351,-0.0059 -0.172851,-0.0059 -0.53125,0 -0.939454,0.170898 -1.22461,0.512695 -0.285156,0.341797 -0.427734,0.735351 -0.427734,1.180664 v 3.609375 h -1.054688 v -6.275391 z"
                 style="fill:#000000;fill-opacity:1;fill-rule:nonzero;stroke:none"
                 id="path138"
                 inkscape:connector-curvature="0" /></g><g
               id="g140"
               transform="translate(40,52)"><g
                 id="g142" /></g><g
               id="g144" /><g
               id="g146"
               transform="translate(0.5,0.5)" /><g
               id="g148"><g
                 id="g150"
                 transform="translate(0.5,0.5)"><path
                   d="M 10,170 H 130 V 280 H 10 Z"
                   style="fill:#dae8fc;fill-opacity:1;fill-rule:nonzero;stroke:none"
                   id="path152"
                   inkscape:connector-curvature="0" /></g></g><g
               id="g154"
               transform="translate(0.5,0.5)"><path
                 d="M 10,170 H 130 V 280 H 10 Z"
                 style="fill:none;stroke:#6c8ebf;stroke-width:1;stroke-linecap:butt;stroke-linejoin:miter;stroke-miterlimit:10;stroke-dasharray:none;stroke-opacity:1"
                 id="path156"
                 inkscape:connector-curvature="0" /></g><g
               id="g158" /><g
               id="g160"
               transform="translate(40,212)"><g
                 id="g162" /></g><g
               id="g164"><path
                 d="m 41.958008,221.41113 c -0.447266,-0.54492 -0.670899,-1.20801 -0.670899,-1.98926 h 1.101563 c 0.04687,0.54297 0.148437,0.9375 0.304687,1.1836 0.273438,0.4414 0.767578,0.66211 1.482422,0.66211 0.554688,0 1,-0.14844 1.335938,-0.44531 0.335937,-0.29688 0.503906,-0.67969 0.503906,-1.14844 0,-0.57813 -0.176758,-0.98242 -0.530274,-1.21289 -0.353515,-0.23047 -0.844726,-0.34571 -1.473632,-0.34571 -0.07031,0 -0.141602,9.8e-4 -0.213868,0.003 -0.07227,0.002 -0.145507,0.005 -0.219726,0.009 v -0.93164 c 0.109375,0.0117 0.201172,0.0195 0.275391,0.0234 0.07422,0.004 0.154296,0.006 0.240234,0.006 0.394531,0 0.71875,-0.0625 0.972656,-0.1875 0.445313,-0.21875 0.667969,-0.60938 0.667969,-1.17188 0,-0.41797 -0.148438,-0.74023 -0.445313,-0.96679 -0.296875,-0.22657 -0.642578,-0.33985 -1.037109,-0.33985 -0.703125,0 -1.189453,0.23438 -1.458984,0.70313 -0.148438,0.25781 -0.232422,0.625 -0.251953,1.10156 h -1.042969 c 0,-0.625 0.125,-1.15625 0.375,-1.59375 0.429687,-0.78125 1.185547,-1.17187 2.267578,-1.17187 0.855469,0 1.517578,0.19042 1.986328,0.57128 0.46875,0.38086 0.703125,0.93262 0.703125,1.65528 0,0.51562 -0.138672,0.93359 -0.416016,1.2539 -0.171875,0.19922 -0.394531,0.35547 -0.667968,0.46875 0.441406,0.1211 0.786132,0.3545 1.034179,0.7002 0.248047,0.3457 0.372071,0.76855 0.372071,1.26855 0,0.80079 -0.263672,1.45313 -0.791016,1.95704 -0.527344,0.5039 -1.275391,0.75585 -2.244141,0.75585 -0.992187,0 -1.711914,-0.27246 -2.159179,-0.81738 z m 6.537109,-1.29785 c 0.259766,-0.53516 0.766602,-1.02148 1.520508,-1.45898 l 1.125,-0.65039 c 0.503906,-0.29297 0.857422,-0.54297 1.060547,-0.75 0.320312,-0.32422 0.480469,-0.69532 0.480469,-1.11329 0,-0.48828 -0.146485,-0.87597 -0.439454,-1.16308 -0.292968,-0.28711 -0.683593,-0.43067 -1.171874,-0.43067 -0.722657,0 -1.222657,0.27344 -1.5,0.82032 -0.148438,0.29297 -0.230469,0.69922 -0.246094,1.21875 h -1.072266 c 0.01172,-0.73047 0.146484,-1.32618 0.404297,-1.78711 0.457031,-0.8125 1.263672,-1.21875 2.419922,-1.21875 0.960937,0 1.663086,0.25976 2.106445,0.77929 0.44336,0.51954 0.665039,1.09766 0.665039,1.73438 0,0.67187 -0.236328,1.24609 -0.708984,1.72266 -0.273438,0.27734 -0.763672,0.61328 -1.470703,1.00781 l -0.802735,0.44531 c -0.382812,0.21094 -0.683593,0.41211 -0.902343,0.60352 -0.390625,0.33984 -0.636719,0.71679 -0.738282,1.13086 h 4.582032 V 222 h -5.759766 c 0.03906,-0.72266 0.188477,-1.35156 0.448242,-1.88672 z m 14.095703,-4.05469 c 0.44336,0.34375 0.709961,0.93555 0.799805,1.77539 h -1.025391 c -0.0625,-0.38672 -0.205078,-0.708 -0.427734,-0.96386 -0.222656,-0.25586 -0.580078,-0.38379 -1.072266,-0.38379 -0.671875,0 -1.152343,0.32812 -1.441406,0.98437 -0.1875,0.42578 -0.28125,0.95117 -0.28125,1.57617 0,0.62891 0.132813,1.15821 0.398438,1.58789 0.265625,0.42969 0.683593,0.64454 1.253906,0.64454 0.4375,0 0.784179,-0.13379 1.040039,-0.40137 0.255859,-0.26758 0.432617,-0.63379 0.530273,-1.09863 h 1.025391 c -0.117188,0.83203 -0.410156,1.44043 -0.878906,1.82519 -0.46875,0.38477 -1.06836,0.57715 -1.798828,0.57715 -0.820313,0 -1.47461,-0.2998 -1.962891,-0.89941 -0.488281,-0.59961 -0.732422,-1.34864 -0.732422,-2.24707 0,-1.10157 0.267578,-1.95899 0.802735,-2.57227 0.535156,-0.61328 1.216796,-0.91992 2.044921,-0.91992 0.707032,0 1.282227,0.17187 1.725586,0.51562 z m 1.854492,-2.69531 H 65.5 v 3.21094 c 0.25,-0.31641 0.474609,-0.53906 0.673828,-0.66797 0.339844,-0.22266 0.763672,-0.33399 1.271484,-0.33399 0.910157,0 1.527344,0.31836 1.851563,0.95508 0.175781,0.34766 0.263672,0.83008 0.263672,1.44727 V 222 h -1.083985 v -3.95508 c 0,-0.46094 -0.05859,-0.79883 -0.175781,-1.01367 -0.191406,-0.34375 -0.550781,-0.51563 -1.078125,-0.51563 -0.4375,0 -0.833984,0.15039 -1.189453,0.45118 C 65.677734,217.26758 65.5,217.83594 65.5,218.67187 V 222 h -1.054688 z m 7.814454,7.6875 c 0.222656,0.17578 0.486328,0.26367 0.791015,0.26367 0.371094,0 0.730469,-0.0859 1.078125,-0.25781 0.585938,-0.28516 0.878906,-0.75195 0.878906,-1.40039 v -0.84961 c -0.128906,0.082 -0.294921,0.15039 -0.498046,0.20508 -0.203125,0.0547 -0.402344,0.0937 -0.597657,0.11719 l -0.638672,0.082 c -0.382812,0.0508 -0.669921,0.13086 -0.861328,0.24023 -0.324218,0.18359 -0.486328,0.47656 -0.486328,0.87891 0,0.30468 0.111328,0.54492 0.333985,0.7207 z m 2.220703,-2.85352 c 0.242187,-0.0312 0.404297,-0.13281 0.486328,-0.30468 0.04687,-0.0937 0.07031,-0.22852 0.07031,-0.4043 0,-0.35937 -0.127929,-0.62012 -0.383789,-0.78223 -0.255859,-0.16211 -0.62207,-0.24316 -1.098633,-0.24316 -0.550781,0 -0.941406,0.14844 -1.171875,0.44531 -0.128906,0.16406 -0.21289,0.40821 -0.251953,0.73242 h -0.984375 c 0.01953,-0.77343 0.270508,-1.31152 0.75293,-1.61425 0.482422,-0.30274 1.041992,-0.45411 1.678711,-0.45411 0.738281,0 1.337891,0.14063 1.798828,0.42188 0.457031,0.28125 0.685547,0.71875 0.685547,1.3125 v 3.61523 c 0,0.10938 0.02246,0.19727 0.06738,0.26368 0.04492,0.0664 0.139648,0.0996 0.28418,0.0996 0.04687,0 0.09961,-0.003 0.158203,-0.009 0.05859,-0.006 0.121093,-0.0146 0.1875,-0.0264 v 0.7793 c -0.164063,0.0469 -0.289063,0.0762 -0.375,0.0879 -0.08594,0.0117 -0.203125,0.0176 -0.351563,0.0176 -0.363281,0 -0.626953,-0.1289 -0.791016,-0.38671 -0.08594,-0.13672 -0.146484,-0.33008 -0.18164,-0.58008 -0.214844,0.28125 -0.523438,0.52539 -0.925781,0.73242 -0.402344,0.20703 -0.845704,0.31055 -1.330079,0.31055 -0.582031,0 -1.057617,-0.17676 -1.426757,-0.53028 -0.369141,-0.35351 -0.553711,-0.7959 -0.553711,-1.32715 0,-0.58203 0.18164,-1.0332 0.544922,-1.35351 0.363281,-0.32031 0.839843,-0.51758 1.429687,-0.5918 l 1.681641,-0.21094 z m 3.308593,-2.47265 h 1.001954 v 0.89062 c 0.296875,-0.36718 0.611328,-0.63086 0.943359,-0.79101 0.332031,-0.16016 0.701172,-0.24024 1.107422,-0.24024 0.890625,0 1.492187,0.31055 1.804687,0.93164 0.171875,0.33985 0.257813,0.82618 0.257813,1.45899 V 222 h -1.072266 v -3.95508 c 0,-0.38281 -0.05664,-0.69141 -0.169922,-0.92578 -0.1875,-0.39063 -0.527343,-0.58594 -1.019531,-0.58594 -0.25,0 -0.455078,0.0254 -0.615234,0.0762 -0.289063,0.0859 -0.542969,0.25782 -0.761719,0.51563 -0.175781,0.20703 -0.290039,0.4209 -0.342774,0.6416 -0.05273,0.2207 -0.0791,0.53613 -0.0791,0.94629 v 3.28711 h -1.054688 v -6.27539 z m 6.671875,0 h 1.001954 v 0.89062 c 0.296875,-0.36718 0.611328,-0.63086 0.943359,-0.79101 0.332031,-0.16016 0.701172,-0.24024 1.107422,-0.24024 0.890625,0 1.492187,0.31055 1.804687,0.93164 0.171875,0.33985 0.257813,0.82618 0.257813,1.45899 V 222 h -1.072266 v -3.95508 c 0,-0.38281 -0.05664,-0.69141 -0.169922,-0.92578 -0.1875,-0.39063 -0.527343,-0.58594 -1.019531,-0.58594 -0.25,0 -0.455078,0.0254 -0.615234,0.0762 -0.289063,0.0859 -0.542969,0.25782 -0.761719,0.51563 -0.175781,0.20703 -0.290039,0.4209 -0.342773,0.6416 -0.05274,0.2207 -0.0791,0.53613 -0.0791,0.94629 v 3.28711 h -1.054688 v -6.27539 z m 10.580079,0.17285 c 0.417968,0.20898 0.736328,0.47949 0.955078,0.81152 0.210937,0.31641 0.351562,0.68555 0.421875,1.10743 0.0625,0.28906 0.09375,0.75 0.09375,1.38281 h -4.59961 c 0.01953,0.63672 0.169922,1.14746 0.451172,1.53222 0.28125,0.38477 0.716797,0.57715 1.306641,0.57715 0.550781,0 0.990234,-0.18164 1.318359,-0.54492 0.1875,-0.21094 0.320313,-0.45508 0.398438,-0.73242 h 1.037109 c -0.02734,0.23047 -0.118164,0.4873 -0.272461,0.77051 -0.154297,0.2832 -0.327148,0.51465 -0.518555,0.69433 -0.320312,0.3125 -0.716796,0.52344 -1.189453,0.63282 -0.253906,0.0625 -0.541015,0.0937 -0.861328,0.0937 -0.78125,0 -1.443359,-0.28418 -1.986328,-0.85254 -0.542969,-0.56836 -0.814453,-1.36426 -0.814453,-2.3877 0,-1.00781 0.273437,-1.82617 0.820312,-2.45508 0.546875,-0.6289 1.261719,-0.94336 2.144532,-0.94336 0.445312,0 0.876953,0.1045 1.294922,0.31348 z m 0.386718,2.46387 c -0.04297,-0.45703 -0.142578,-0.82227 -0.298828,-1.09571 -0.289062,-0.50781 -0.771484,-0.76171 -1.447265,-0.76171 -0.484375,0 -0.890625,0.1748 -1.21875,0.52441 -0.328125,0.34961 -0.501954,0.79395 -0.521485,1.33301 z m 2.40625,-4.96875 h 1.054688 V 222 h -1.054688 z"
                 style="fill:#000000;fill-opacity:1;fill-rule:nonzero;stroke:none"
                 id="path166"
                 inkscape:connector-curvature="0" /></g><g
               id="g168"
               transform="translate(40,212)"><g
                 id="g170" /><g
                 id="g172" /></g><g
               id="g174"><path
                 d="m 52.019531,232.47266 -1.30664,-3.80274 -1.388672,3.80274 z m -1.916015,-5.08008 h 1.318359 L 54.544922,236 h -1.277344 l -0.873047,-2.57813 H 48.990234 L 48.058594,236 h -1.195313 z m 5.357421,2.33203 h 1.042969 v 0.89062 c 0.25,-0.30859 0.476563,-0.5332 0.679688,-0.67382 0.347656,-0.23829 0.742187,-0.35743 1.183593,-0.35743 0.5,0 0.902344,0.12305 1.207032,0.36914 0.171875,0.14063 0.328125,0.34766 0.46875,0.6211 0.234375,-0.33594 0.509765,-0.58496 0.826172,-0.74707 0.316406,-0.16211 0.671875,-0.24317 1.066406,-0.24317 0.84375,0 1.417969,0.30469 1.722656,0.91407 0.164063,0.32812 0.246094,0.76953 0.246094,1.32422 V 236 h -1.095703 v -4.35938 c 0,-0.41796 -0.104493,-0.70507 -0.313477,-0.86132 -0.208984,-0.15625 -0.463867,-0.23438 -0.764648,-0.23438 -0.414063,0 -0.770508,0.13867 -1.069336,0.41602 -0.298828,0.27734 -0.448242,0.74023 -0.448242,1.38867 V 236 h -1.072266 v -4.0957 c 0,-0.42579 -0.05078,-0.73633 -0.152344,-0.93164 -0.160156,-0.29297 -0.458984,-0.43946 -0.896484,-0.43946 -0.398438,0 -0.760742,0.1543 -1.086914,0.46289 -0.326172,0.3086 -0.489258,0.86719 -0.489258,1.67578 V 236 h -1.054688 z m 13.860352,4.94824 c 0.326172,-0.41211 0.489258,-1.02832 0.489258,-1.84863 0,-0.5 -0.07227,-0.92969 -0.216797,-1.28906 -0.273438,-0.69141 -0.773438,-1.03711 -1.5,-1.03711 -0.730469,0 -1.230469,0.36523 -1.5,1.0957 -0.144531,0.39062 -0.216797,0.88672 -0.216797,1.48828 0,0.48438 0.07227,0.89648 0.216797,1.23633 0.273437,0.64844 0.773437,0.97265 1.5,0.97265 0.492187,0 0.901367,-0.20605 1.227539,-0.61816 z m -3.958008,-4.91894 h 1.025391 v 0.83203 c 0.210937,-0.28516 0.441406,-0.50586 0.691406,-0.66211 0.355469,-0.23438 0.773438,-0.35157 1.253906,-0.35157 0.710938,0 1.314453,0.27247 1.810547,0.81739 0.496094,0.54492 0.744141,1.32324 0.744141,2.33496 0,1.36719 -0.357422,2.34375 -1.072266,2.92969 -0.453125,0.37109 -0.980469,0.55664 -1.582031,0.55664 -0.472656,0 -0.869141,-0.10352 -1.189453,-0.31055 -0.1875,-0.11719 -0.396485,-0.31836 -0.626953,-0.60352 v 3.20508 h -1.054688 z m 6.783203,-2.36133 h 1.054688 V 236 h -1.054688 z m 2.626953,2.36133 h 1.072266 V 236 h -1.072266 z m 0,-2.36133 h 1.072266 v 1.19531 h -1.072266 z m 3.148438,0.41601 c 0.246094,-0.35937 0.720703,-0.53906 1.423828,-0.53906 0.06641,0 0.134766,0.002 0.205078,0.006 0.07031,0.004 0.150391,0.01 0.240235,0.0176 v 0.96094 c -0.109375,-0.008 -0.188477,-0.0127 -0.237305,-0.0146 -0.04883,-0.002 -0.09473,-0.003 -0.137695,-0.003 -0.320313,0 -0.511719,0.083 -0.574219,0.24902 -0.0625,0.16602 -0.09375,0.58887 -0.09375,1.26856 h 1.042969 v 0.83203 h -1.054688 v 5.41406 h -1.042969 v -5.41406 h -0.873047 v -0.83203 h 0.873047 v -0.98438 c 0.01563,-0.4375 0.0918,-0.75781 0.228516,-0.96094 z m 2.835937,1.94532 h 1.072266 V 236 h -1.072266 z m 0,-2.36133 h 1.072266 v 1.19531 h -1.072266 z m 6.564454,2.50488 c 0.417968,0.20898 0.736328,0.47949 0.955078,0.81152 0.210937,0.31641 0.351562,0.68555 0.421875,1.10743 0.0625,0.28906 0.09375,0.75 0.09375,1.38281 h -4.59961 c 0.01953,0.63672 0.169922,1.14746 0.451172,1.53222 0.28125,0.38477 0.716797,0.57715 1.306641,0.57715 0.550781,0 0.990234,-0.18164 1.318359,-0.54492 0.1875,-0.21094 0.320313,-0.45508 0.398438,-0.73242 h 1.037109 c -0.02734,0.23047 -0.118164,0.4873 -0.272461,0.77051 -0.154297,0.2832 -0.327148,0.51465 -0.518554,0.69433 -0.320313,0.3125 -0.716797,0.52344 -1.189454,0.63282 -0.253906,0.0625 -0.541015,0.0937 -0.861328,0.0937 -0.78125,0 -1.443359,-0.28418 -1.986328,-0.85254 -0.542969,-0.56836 -0.814453,-1.36426 -0.814453,-2.3877 0,-1.00781 0.273437,-1.82617 0.820312,-2.45508 0.546875,-0.6289 1.261719,-0.94336 2.144532,-0.94336 0.445312,0 0.876953,0.1045 1.294922,0.31348 z m 0.386718,2.46387 c -0.04297,-0.45703 -0.142578,-0.82227 -0.298828,-1.09571 -0.289062,-0.50781 -0.771484,-0.76171 -1.447265,-0.76171 -0.484375,0 -0.890625,0.1748 -1.21875,0.52441 -0.328125,0.34961 -0.501954,0.79395 -0.521485,1.33301 z m 2.40625,-2.63672 h 1.001953 v 1.08398 c 0.08203,-0.21093 0.283204,-0.46777 0.603516,-0.77051 0.320313,-0.30273 0.689453,-0.4541 1.107422,-0.4541 0.01953,0 0.05273,0.002 0.09961,0.006 0.04687,0.004 0.126953,0.0117 0.240235,0.0234 v 1.11328 c -0.0625,-0.0117 -0.120117,-0.0195 -0.172852,-0.0234 -0.05273,-0.004 -0.110351,-0.006 -0.172851,-0.006 -0.53125,0 -0.939454,0.1709 -1.22461,0.5127 -0.285156,0.3418 -0.427734,0.73535 -0.427734,1.18066 V 236 h -1.054688 z"
                 style="fill:#000000;fill-opacity:1;fill-rule:nonzero;stroke:none"
                 id="path176"
                 inkscape:connector-curvature="0" /></g><g
               id="g178"
               transform="translate(40,212)"><g
                 id="g180" /></g><g
               id="g182" /><g
               id="g184"
               transform="translate(0.5,0.5)" /><g
               id="g186"><g
                 id="g188"
                 transform="translate(0.5,0.5)"><path
                   d="m 220,180 h 60 v 60 h -60 z"
                   style="fill:#ffffff;fill-opacity:1;fill-rule:nonzero;stroke:none"
                   id="path190"
                   inkscape:connector-curvature="0" /></g></g><g
               id="g192"
               transform="translate(0.5,0.5)"><path
                 d="m 220,180 h 60 v 60 h -60 z"
                 style="fill:none;stroke:#000000;stroke-width:1;stroke-linecap:butt;stroke-linejoin:miter;stroke-miterlimit:10;stroke-dasharray:none;stroke-opacity:1"
                 id="path194"
                 inkscape:connector-curvature="0" /></g><g
               id="g196" /><g
               id="g198"
               transform="translate(228,190)"><g
                 id="g200" /></g><g
               id="g202"><path
                 d="m 240.17773,191.39258 v 1.02539 h -2.90039 V 200 h -1.18359 v -7.58203 h -2.90039 v -1.02539 z m 0.95313,2.33203 h 1.00195 v 1.08398 c 0.082,-0.21093 0.2832,-0.46777 0.60352,-0.77051 0.32031,-0.30273 0.68945,-0.4541 1.10742,-0.4541 0.0195,0 0.0527,0.002 0.0996,0.006 0.0469,0.004 0.12695,0.0117 0.24023,0.0234 v 1.11328 c -0.0625,-0.0117 -0.12011,-0.0195 -0.17285,-0.0234 -0.0527,-0.004 -0.11035,-0.006 -0.17285,-0.006 -0.53125,0 -0.93945,0.1709 -1.22461,0.5127 -0.28515,0.3418 -0.42773,0.73535 -0.42773,1.18066 V 200 h -1.05469 v -6.27539 z m 7.86328,0.17285 c 0.41797,0.20898 0.73633,0.47949 0.95508,0.81152 0.21094,0.31641 0.35156,0.68555 0.42187,1.10743 0.0625,0.28906 0.0937,0.75 0.0937,1.38281 h -4.59961 c 0.0195,0.63672 0.16993,1.14746 0.45118,1.53222 0.28125,0.38477 0.71679,0.57715 1.30664,0.57715 0.55078,0 0.99023,-0.18164 1.31836,-0.54492 0.1875,-0.21094 0.32031,-0.45508 0.39843,-0.73242 h 1.03711 c -0.0273,0.23047 -0.11816,0.4873 -0.27246,0.77051 -0.1543,0.2832 -0.32715,0.51465 -0.51855,0.69433 -0.32032,0.3125 -0.7168,0.52344 -1.18946,0.63282 -0.2539,0.0625 -0.54101,0.0937 -0.86132,0.0937 -0.78125,0 -1.44336,-0.28418 -1.98633,-0.85254 -0.54297,-0.56836 -0.81446,-1.36426 -0.81446,-2.3877 0,-1.00781 0.27344,-1.82617 0.82032,-2.45508 0.54687,-0.6289 1.26172,-0.94336 2.14453,-0.94336 0.44531,0 0.87695,0.1045 1.29492,0.31348 z m 0.38672,2.46387 c -0.043,-0.45703 -0.14258,-0.82227 -0.29883,-1.09571 -0.28906,-0.50781 -0.77148,-0.76171 -1.44727,-0.76171 -0.48437,0 -0.89062,0.1748 -1.21875,0.52441 -0.32812,0.34961 -0.50195,0.79395 -0.52148,1.33301 z m 2.37695,-2.63672 h 1.00195 v 0.89062 c 0.29688,-0.36718 0.61133,-0.63086 0.94336,-0.79101 0.33204,-0.16016 0.70118,-0.24024 1.10743,-0.24024 0.89062,0 1.49218,0.31055 1.80468,0.93164 0.17188,0.33985 0.25782,0.82618 0.25782,1.45899 V 200 h -1.07227 v -3.95508 c 0,-0.38281 -0.0566,-0.69141 -0.16992,-0.92578 -0.1875,-0.39063 -0.52735,-0.58594 -1.01953,-0.58594 -0.25,0 -0.45508,0.0254 -0.61524,0.0762 -0.28906,0.0859 -0.54297,0.25782 -0.76172,0.51563 -0.17578,0.20703 -0.29004,0.4209 -0.34277,0.6416 -0.0527,0.2207 -0.0791,0.53613 -0.0791,0.94629 v 3.28711 h -1.05469 v -6.27539 z m 6.20313,5.44336 3.7207,-4.5 h -3.44531 v -0.94336 h 4.86328 v 0.86133 l -3.69727,4.4707 h 3.8086 V 200 h -5.25 z"
                 style="fill:#000000;fill-opacity:1;fill-rule:nonzero;stroke:none"
                 id="path204"
                 inkscape:connector-curvature="0" /></g><g
               id="g206"
               transform="translate(228,190)"><g
                 id="g208" /><g
                 id="g210" /></g><g
               id="g212"><path
                 d="m 236.17773,205.39258 v 1.02539 h -2.90039 V 214 h -1.18359 v -7.58203 h -2.90039 v -1.02539 z m 1.17578,0 h 6.2754 v 1.05468 h -5.13868 v 2.61329 h 4.75196 v 0.99609 h -4.75196 v 2.91797 h 5.22657 V 214 h -6.36329 z m 12.57618,1.55859 c 0.375,0.69141 0.5625,1.63867 0.5625,2.8418 0,1.14062 -0.16992,2.08398 -0.50977,2.83008 -0.49219,1.07031 -1.29687,1.60546 -2.41406,1.60546 -1.00781,0 -1.75781,-0.4375 -2.25,-1.3125 -0.41016,-0.73046 -0.61524,-1.71093 -0.61524,-2.9414 0,-0.95313 0.12305,-1.77149 0.36914,-2.45508 0.46094,-1.27344 1.29493,-1.91016 2.50196,-1.91016 1.08594,0 1.87109,0.44727 2.35547,1.3418 z m -1.06055,5.58984 c 0.32422,-0.48437 0.48633,-1.38671 0.48633,-2.70703 0,-0.95312 -0.11719,-1.7373 -0.35156,-2.35253 -0.23438,-0.61524 -0.68946,-0.92286 -1.36524,-0.92286 -0.62109,0 -1.07519,0.29199 -1.3623,0.87598 -0.28711,0.58398 -0.43067,1.44434 -0.43067,2.58105 0,0.85547 0.0918,1.54297 0.27539,2.0625 0.28125,0.79297 0.76172,1.18946 1.44141,1.18946 0.54687,0 0.98242,-0.24219 1.30664,-0.72657 z m 8.40625,-6.79101 v 0.91992 c -0.26953,0.26172 -0.62793,0.7168 -1.0752,1.36524 -0.44726,0.64843 -0.84277,1.34765 -1.18652,2.09765 -0.33984,0.73047 -0.59766,1.39649 -0.77344,1.99805 -0.11328,0.38672 -0.25976,1.00976 -0.43945,1.86914 h -1.16602 c 0.26563,-1.60156 0.85157,-3.19531 1.75782,-4.78125 0.53515,-0.92969 1.09765,-1.73242 1.6875,-2.4082 h -4.64063 V 205.75 Z m 1.54492,2.30859 V 207.25 c 0.76172,-0.0742 1.29297,-0.19824 1.59375,-0.37207 0.30078,-0.17383 0.52539,-0.58496 0.67383,-1.2334 h 0.83203 V 214 h -1.125 v -5.94141 z m 6.34668,4.05469 c 0.25977,-0.53516 0.7666,-1.02148 1.52051,-1.45898 l 1.125,-0.65039 c 0.50391,-0.29297 0.85742,-0.54297 1.06055,-0.75 0.32031,-0.32422 0.48046,-0.69532 0.48046,-1.11329 0,-0.48828 -0.14648,-0.87597 -0.43945,-1.16308 -0.29297,-0.28711 -0.68359,-0.43067 -1.17187,-0.43067 -0.72266,0 -1.22266,0.27344 -1.5,0.82032 -0.14844,0.29297 -0.23047,0.69922 -0.2461,1.21875 h -1.07226 c 0.0117,-0.73047 0.14648,-1.32618 0.40429,-1.78711 0.45704,-0.8125 1.26368,-1.21875 2.41993,-1.21875 0.96093,0 1.66308,0.25976 2.10644,0.77929 0.44336,0.51954 0.66504,1.09766 0.66504,1.73438 0,0.67187 -0.23633,1.24609 -0.70898,1.72266 -0.27344,0.27734 -0.76368,0.61328 -1.47071,1.00781 l -0.80273,0.44531 c -0.38281,0.21094 -0.6836,0.41211 -0.90234,0.60352 -0.39063,0.33984 -0.63672,0.71679 -0.73829,1.13086 h 4.58203 V 214 h -5.75976 c 0.0391,-0.72266 0.18848,-1.35156 0.44824,-1.88672 z"
                 style="fill:#000000;fill-opacity:1;fill-rule:nonzero;stroke:none"
                 id="path214"
                 inkscape:connector-curvature="0" /></g><g
               id="g216"
               transform="translate(228,190)"><g
                 id="g218" /><g
                 id="g220" /></g><g
               id="g222"><path
                 d="m 231.10156,221.72461 h 1.04297 v 0.89062 c 0.25,-0.30859 0.47656,-0.5332 0.67969,-0.67382 0.34765,-0.23829 0.74219,-0.35743 1.18359,-0.35743 0.5,0 0.90235,0.12305 1.20703,0.36914 0.17188,0.14063 0.32813,0.34766 0.46875,0.6211 0.23438,-0.33594 0.50977,-0.58496 0.82617,-0.74707 0.31641,-0.16211 0.67188,-0.24317 1.06641,-0.24317 0.84375,0 1.41797,0.30469 1.72266,0.91407 0.16406,0.32812 0.24609,0.76953 0.24609,1.32422 V 228 h -1.0957 v -4.35938 c 0,-0.41796 -0.10449,-0.70507 -0.31348,-0.86132 -0.20898,-0.15625 -0.46387,-0.23438 -0.76465,-0.23438 -0.41406,0 -0.77051,0.13867 -1.06933,0.41602 -0.29883,0.27734 -0.44825,0.74023 -0.44825,1.38867 V 228 h -1.07226 v -4.0957 c 0,-0.42579 -0.0508,-0.73633 -0.15234,-0.93164 -0.16016,-0.29297 -0.45899,-0.43946 -0.89649,-0.43946 -0.39844,0 -0.76074,0.1543 -1.08691,0.46289 -0.32618,0.3086 -0.48926,0.86719 -0.48926,1.67578 V 228 h -1.05469 z m 13.91309,4.80176 c 0.25976,-0.5293 0.38965,-1.11817 0.38965,-1.76661 0,-0.58593 -0.0937,-1.0625 -0.28125,-1.42968 -0.29688,-0.57813 -0.8086,-0.86719 -1.53516,-0.86719 -0.64453,0 -1.11328,0.24609 -1.40625,0.73828 -0.29297,0.49219 -0.43945,1.08594 -0.43945,1.78125 0,0.66797 0.14648,1.22461 0.43945,1.66992 0.29297,0.44532 0.75781,0.66797 1.39453,0.66797 0.69922,0 1.17871,-0.26465 1.43848,-0.79394 z m 0.65332,-4.17481 c 0.55859,0.53906 0.83789,1.33203 0.83789,2.37891 0,1.01172 -0.2461,1.84765 -0.73828,2.50781 -0.49219,0.66016 -1.25586,0.99023 -2.29102,0.99023 -0.86328,0 -1.54883,-0.29199 -2.05664,-0.87597 -0.50781,-0.58399 -0.76172,-1.36817 -0.76172,-2.35254 0,-1.05469 0.26758,-1.89453 0.80274,-2.51953 0.53515,-0.625 1.2539,-0.9375 2.15625,-0.9375 0.80859,0 1.49218,0.26953 2.05078,0.80859 z m 3.18554,4.27149 c 0.28516,0.45312 0.74219,0.67968 1.3711,0.67968 0.48828,0 0.88965,-0.20996 1.2041,-0.62988 0.31445,-0.41992 0.47168,-1.02246 0.47168,-1.80762 0,-0.79297 -0.16211,-1.37988 -0.48633,-1.76074 -0.32422,-0.38086 -0.72461,-0.57129 -1.20117,-0.57129 -0.53125,0 -0.96191,0.20313 -1.29199,0.60938 -0.33008,0.40625 -0.49512,1.0039 -0.49512,1.79297 0,0.67187 0.14258,1.23437 0.42773,1.6875 z m 2.36719,-4.70508 c 0.1875,0.11719 0.40039,0.32226 0.63867,0.61523 v -3.16992 h 1.01368 V 228 h -0.94922 v -0.87305 c -0.2461,0.38672 -0.53711,0.66602 -0.87305,0.83789 -0.33594,0.17188 -0.7207,0.25782 -1.1543,0.25782 -0.69922,0 -1.30468,-0.29395 -1.8164,-0.88184 -0.51172,-0.58789 -0.76758,-1.37012 -0.76758,-2.34668 0,-0.91406 0.2334,-1.70606 0.70019,-2.37598 0.4668,-0.66992 1.13379,-1.00488 2.00098,-1.00488 0.48047,0 0.88281,0.10156 1.20703,0.30469 z m 4.26367,-0.19336 v 4.16601 c 0,0.32032 0.0508,0.58204 0.15235,0.78516 0.1875,0.375 0.53711,0.5625 1.04883,0.5625 0.73437,0 1.23437,-0.32812 1.5,-0.98437 0.14453,-0.35157 0.21679,-0.83399 0.21679,-1.44727 v -3.08203 h 1.05469 V 228 h -0.99609 l 0.0117,-0.92578 c -0.13672,0.23828 -0.30665,0.43945 -0.50977,0.60351 -0.40234,0.32813 -0.89062,0.49219 -1.46484,0.49219 -0.89454,0 -1.50391,-0.29883 -1.82813,-0.89648 -0.17578,-0.32032 -0.26367,-0.74805 -0.26367,-1.28321 v -4.26562 h 1.07812 z m 5.64649,-2.33203 h 1.05469 V 228 h -1.05469 z m 6.53515,2.50488 c 0.41797,0.20898 0.73633,0.47949 0.95508,0.81152 0.21094,0.31641 0.35157,0.68555 0.42188,1.10743 0.0625,0.28906 0.0937,0.75 0.0937,1.38281 h -4.59961 c 0.0195,0.63672 0.16992,1.14746 0.45117,1.53222 0.28125,0.38477 0.7168,0.57715 1.30664,0.57715 0.55078,0 0.99024,-0.18164 1.31836,-0.54492 0.1875,-0.21094 0.32031,-0.45508 0.39844,-0.73242 h 1.03711 c -0.0274,0.23047 -0.11817,0.4873 -0.27246,0.77051 -0.1543,0.2832 -0.32715,0.51465 -0.51856,0.69433 -0.32031,0.3125 -0.7168,0.52344 -1.18945,0.63282 -0.25391,0.0625 -0.54102,0.0937 -0.86133,0.0937 -0.78125,0 -1.44336,-0.28418 -1.98633,-0.85254 -0.54297,-0.56836 -0.81445,-1.36426 -0.81445,-2.3877 0,-1.00781 0.27344,-1.82617 0.82031,-2.45508 0.54688,-0.6289 1.26172,-0.94336 2.14453,-0.94336 0.44532,0 0.87696,0.1045 1.29492,0.31348 z m 0.38672,2.46387 c -0.043,-0.45703 -0.14257,-0.82227 -0.29882,-1.09571 -0.28907,-0.50781 -0.77149,-0.76171 -1.44727,-0.76171 -0.48437,0 -0.89063,0.1748 -1.21875,0.52441 -0.32812,0.34961 -0.50195,0.79395 -0.52148,1.33301 z"
                 style="fill:#000000;fill-opacity:1;fill-rule:nonzero;stroke:none"
                 id="path224"
                 inkscape:connector-curvature="0" /></g><g
               id="g226"
               transform="translate(228,190)"><g
                 id="g228" /></g><g
               id="g230" /><g
               id="g232"
               transform="translate(0.5,0.5)" /><g
               id="g234"><g
                 id="g236"
                 transform="translate(0.5,0.5)"><path
                   d="m 180,300 h 120 v 60 H 180 Z"
                   style="fill:#ffe6cc;fill-opacity:1;fill-rule:nonzero;stroke:none"
                   id="path238"
                   inkscape:connector-curvature="0" /></g></g><g
               id="g240"
               transform="translate(0.5,0.5)"><path
                 d="m 180,300 h 120 v 60 H 180 Z"
                 style="fill:none;stroke:#d79b00;stroke-width:1;stroke-linecap:butt;stroke-linejoin:miter;stroke-miterlimit:10;stroke-dasharray:none;stroke-opacity:1"
                 id="path242"
                 inkscape:connector-curvature="0" /></g><g
               id="g244" /><g
               id="g246"
               transform="translate(207,324)"><g
                 id="g248" /></g><g
               id="g250"><path
                 d="m 209.02539,325.39258 h 3.87305 c 0.76562,0 1.38281,0.21582 1.85156,0.64746 0.46875,0.43164 0.70312,1.03808 0.70312,1.81933 0,0.67188 -0.20898,1.25684 -0.62695,1.75489 -0.41797,0.49804 -1.06055,0.74707 -1.92773,0.74707 h -2.70703 V 334 h -1.16602 z m 4.54687,1.18359 c -0.25781,-0.12109 -0.61132,-0.18164 -1.06054,-0.18164 h -2.32031 v 2.98242 h 2.32031 c 0.52344,0 0.94824,-0.11133 1.27441,-0.33398 0.32617,-0.22266 0.48926,-0.61524 0.48926,-1.17774 0,-0.63281 -0.23438,-1.0625 -0.70313,-1.28906 z m 7.12989,5.9502 c 0.25976,-0.5293 0.38965,-1.11817 0.38965,-1.7666 0,-0.58594 -0.0937,-1.0625 -0.28125,-1.42969 -0.29688,-0.57813 -0.8086,-0.86719 -1.53516,-0.86719 -0.64453,0 -1.11328,0.24609 -1.40625,0.73828 -0.29297,0.49219 -0.43945,1.08594 -0.43945,1.78125 0,0.66797 0.14648,1.22461 0.43945,1.66992 0.29297,0.44532 0.75781,0.66797 1.39453,0.66797 0.69922,0 1.17871,-0.26465 1.43848,-0.79394 z m 0.65332,-4.17481 c 0.55859,0.53906 0.83789,1.33203 0.83789,2.37891 0,1.01172 -0.2461,1.84765 -0.73828,2.50781 -0.49219,0.66016 -1.25586,0.99023 -2.29102,0.99023 -0.86328,0 -1.54883,-0.29199 -2.05664,-0.87597 -0.50781,-0.58399 -0.76172,-1.36817 -0.76172,-2.35254 0,-1.05469 0.26758,-1.89453 0.80274,-2.51953 0.53515,-0.625 1.2539,-0.9375 2.15625,-0.9375 0.80859,0 1.49218,0.26953 2.05078,0.80859 z m 2.57617,-0.62695 1.20703,4.94531 1.22461,-4.94531 h 1.18359 l 1.23047,4.91602 1.28321,-4.91602 h 1.05468 L 229.29297,334 h -1.09571 L 226.91992,329.14258 225.68359,334 h -1.0957 l -1.81055,-6.27539 z m 12.07812,0.17285 c 0.41797,0.20898 0.73633,0.47949 0.95508,0.81152 0.21094,0.31641 0.35157,0.68555 0.42188,1.10743 0.0625,0.28906 0.0937,0.75 0.0937,1.38281 h -4.59961 c 0.0195,0.63672 0.16992,1.14746 0.45117,1.53222 0.28125,0.38477 0.7168,0.57715 1.30664,0.57715 0.55078,0 0.99024,-0.18164 1.31836,-0.54492 0.1875,-0.21094 0.32031,-0.45508 0.39844,-0.73242 h 1.03711 c -0.0274,0.23047 -0.11817,0.4873 -0.27246,0.77051 -0.1543,0.2832 -0.32715,0.51465 -0.51856,0.69433 -0.32031,0.3125 -0.7168,0.52344 -1.18945,0.63282 -0.25391,0.0625 -0.54102,0.0937 -0.86133,0.0937 -0.78125,0 -1.44336,-0.28418 -1.98633,-0.85254 -0.54297,-0.56836 -0.81445,-1.36426 -0.81445,-2.3877 0,-1.00781 0.27344,-1.82617 0.82031,-2.45508 0.54688,-0.6289 1.26172,-0.94336 2.14453,-0.94336 0.44532,0 0.87696,0.1045 1.29492,0.31348 z m 0.38672,2.46387 c -0.043,-0.45703 -0.14257,-0.82227 -0.29882,-1.09571 -0.28907,-0.50781 -0.77149,-0.76171 -1.44727,-0.76171 -0.48438,0 -0.89063,0.1748 -1.21875,0.52441 -0.32813,0.34961 -0.50195,0.79395 -0.52148,1.33301 z m 2.40625,-2.63672 h 1.00196 v 1.08398 c 0.082,-0.21093 0.2832,-0.46777 0.60351,-0.77051 0.32031,-0.30273 0.68946,-0.4541 1.10742,-0.4541 0.0195,0 0.0527,0.002 0.0996,0.006 0.0469,0.004 0.12696,0.0117 0.24024,0.0234 v 1.11328 c -0.0625,-0.0117 -0.12012,-0.0195 -0.17285,-0.0234 -0.0527,-0.004 -0.11036,-0.006 -0.17286,-0.006 -0.53125,0 -0.93945,0.17089 -1.2246,0.51269 -0.28516,0.3418 -0.42774,0.73535 -0.42774,1.18066 v 3.60938 h -1.05469 v -6.27539 z m 7.53516,-2.33203 h 5.9707 v 1.05469 h -4.80468 v 2.61328 h 4.2246 v 1.02539 h -4.2246 V 334 h -1.16602 z m 7.07617,2.36133 h 1.07227 V 334 h -1.07227 z m 0,-2.36133 h 1.07227 v 1.19531 h -1.07227 z m 2.68555,0 h 1.05469 V 334 h -1.05469 z m 2.83789,0.58008 h 1.06641 v 1.75195 h 1.00195 v 0.86133 h -1.00195 v 4.0957 c 0,0.21875 0.0742,0.36523 0.22265,0.43945 0.082,0.043 0.21875,0.0645 0.41016,0.0645 0.0508,0 0.10547,-9.8e-4 0.16406,-0.003 0.0586,-0.002 0.12695,-0.007 0.20508,-0.0146 v 0.83203 c -0.12109,0.0352 -0.24707,0.0605 -0.37793,0.0762 -0.13086,0.0156 -0.27246,0.0234 -0.42481,0.0234 -0.49218,0 -0.82617,-0.12598 -1.00195,-0.37793 -0.17578,-0.25195 -0.26367,-0.5791 -0.26367,-0.98145 v -4.15429 h -0.84961 v -0.86133 h 0.84961 v -1.75195 z m 7.02539,1.9248 c 0.41797,0.20898 0.73633,0.47949 0.95508,0.81152 0.21094,0.31641 0.35156,0.68555 0.42187,1.10743 0.0625,0.28906 0.0937,0.75 0.0937,1.38281 h -4.59961 c 0.0195,0.63672 0.16993,1.14746 0.45118,1.53222 0.28125,0.38477 0.71679,0.57715 1.30664,0.57715 0.55078,0 0.99023,-0.18164 1.31836,-0.54492 0.1875,-0.21094 0.32031,-0.45508 0.39843,-0.73242 h 1.03711 c -0.0273,0.23047 -0.11816,0.4873 -0.27246,0.77051 -0.1543,0.2832 -0.32715,0.51465 -0.51855,0.69433 -0.32032,0.3125 -0.7168,0.52344 -1.18946,0.63282 -0.2539,0.0625 -0.54101,0.0937 -0.86132,0.0937 -0.78125,0 -1.44336,-0.28418 -1.98633,-0.85254 -0.54297,-0.56836 -0.81446,-1.36426 -0.81446,-2.3877 0,-1.00781 0.27344,-1.82617 0.82032,-2.45508 0.54687,-0.6289 1.26172,-0.94336 2.14453,-0.94336 0.44531,0 0.87695,0.1045 1.29492,0.31348 z m 0.38672,2.46387 c -0.043,-0.45703 -0.14258,-0.82227 -0.29883,-1.09571 -0.28906,-0.50781 -0.77148,-0.76171 -1.44727,-0.76171 -0.48437,0 -0.89062,0.1748 -1.21874,0.52441 -0.32813,0.34961 -0.50196,0.79395 -0.52149,1.33301 z m 2.40625,-2.63672 h 1.00195 v 1.08398 c 0.082,-0.21093 0.2832,-0.46777 0.60352,-0.77051 0.32031,-0.30273 0.68945,-0.4541 1.10742,-0.4541 0.0195,0 0.0527,0.002 0.0996,0.006 0.0469,0.004 0.12695,0.0117 0.24023,0.0234 v 1.11328 c -0.0625,-0.0117 -0.12011,-0.0195 -0.17285,-0.0234 -0.0527,-0.004 -0.11035,-0.006 -0.17285,-0.006 -0.53125,0 -0.93945,0.17089 -1.22461,0.51269 -0.28516,0.3418 -0.42773,0.73535 -0.42773,1.18066 v 3.60938 h -1.05469 v -6.27539 z"
                 style="fill:#000000;fill-opacity:1;fill-rule:nonzero;stroke:none"
                 id="path252"
                 inkscape:connector-curvature="0" /></g><g
               id="g254"
               transform="translate(207,324)"><g
                 id="g256" /></g><g
               id="g258" /><g
               id="g260"
               transform="translate(0.5,0.5)" /><g
               id="g262"><g
                 id="g264"
                 transform="translate(0.5,0.5)"><path
                   d="m 10,300 h 80 v 60 H 10 Z"
                   style="fill:#fff2cc;fill-opacity:1;fill-rule:nonzero;stroke:none"
                   id="path266"
                   inkscape:connector-curvature="0" /></g></g><g
               id="g268"
               transform="translate(0.5,0.5)"><path
                 d="m 10,300 h 80 v 60 H 10 Z"
                 style="fill:none;stroke:#d6b656;stroke-width:1;stroke-linecap:butt;stroke-linejoin:miter;stroke-miterlimit:10;stroke-dasharray:none;stroke-opacity:1"
                 id="path270"
                 inkscape:connector-curvature="0" /></g><g
               id="g272" /><g
               id="g274"
               transform="translate(14,317)"><g
                 id="g276" /></g><g
               id="g278"><path
                 d="m 41.849609,318.39258 h 1.177735 V 327 h -1.177735 z m 2.973633,6.7207 c 0.259766,-0.53516 0.766602,-1.02148 1.520508,-1.45898 l 1.125,-0.65039 c 0.503906,-0.29297 0.857422,-0.54297 1.060547,-0.75 0.320312,-0.32422 0.480469,-0.69532 0.480469,-1.11328 0,-0.48829 -0.146485,-0.87598 -0.439453,-1.16309 -0.292969,-0.28711 -0.683594,-0.43067 -1.171876,-0.43067 -0.722656,0 -1.222656,0.27344 -1.5,0.82032 -0.148437,0.29297 -0.230468,0.69922 -0.246093,1.21875 h -1.072266 c 0.01172,-0.73047 0.146485,-1.32617 0.404297,-1.78711 0.457031,-0.8125 1.263672,-1.21875 2.419922,-1.21875 0.960937,0 1.663086,0.25976 2.106445,0.77929 0.443359,0.51954 0.665039,1.09766 0.665039,1.73438 0,0.67187 -0.236328,1.24609 -0.708984,1.72266 -0.273438,0.27734 -0.763672,0.61328 -1.470703,1.00781 l -0.802735,0.44531 c -0.382812,0.21094 -0.683593,0.41211 -0.902343,0.60352 -0.390625,0.33984 -0.636719,0.71679 -0.738282,1.13086 h 4.582032 V 327 H 44.375 c 0.03906,-0.72266 0.188476,-1.35156 0.448242,-1.88672 z M 57.75,319.01953 c 0.601562,0.57422 0.935547,1.22656 1.001953,1.95703 h -1.136719 c -0.128906,-0.55469 -0.385742,-0.99414 -0.770508,-1.31836 -0.384765,-0.32422 -0.924804,-0.48633 -1.620117,-0.48633 -0.847656,0 -1.532226,0.29786 -2.053711,0.89356 -0.521484,0.5957 -0.782226,1.50879 -0.782226,2.73926 0,1.00781 0.235351,1.82519 0.706054,2.45214 0.470704,0.62696 1.172852,0.94044 2.106446,0.94044 0.859375,0 1.513672,-0.33008 1.96289,-0.99024 0.238282,-0.34766 0.416016,-0.80469 0.533204,-1.37109 h 1.136718 c -0.101562,0.90625 -0.4375,1.66601 -1.007812,2.27929 -0.683594,0.73828 -1.605469,1.10743 -2.765625,1.10743 -1,0 -1.839844,-0.30274 -2.519531,-0.90821 -0.894532,-0.80078 -1.341797,-2.03711 -1.341797,-3.70898 0,-1.26953 0.335937,-2.31055 1.007812,-3.12305 0.726563,-0.88281 1.728516,-1.32422 3.00586,-1.32422 1.089843,0 1.935546,0.28711 2.537109,0.86133 z"
                 style="fill:#000000;fill-opacity:1;fill-rule:nonzero;stroke:none"
                 id="path280"
                 inkscape:connector-curvature="0" /></g><g
               id="g282"
               transform="translate(14,317)"><g
                 id="g284" /><g
                 id="g286" /></g><g
               id="g288"><path
                 d="m 19.649414,339.67285 c 0.326172,-0.41211 0.489258,-1.02832 0.489258,-1.84863 0,-0.5 -0.07227,-0.92969 -0.216797,-1.28906 -0.273438,-0.69141 -0.773438,-1.03711 -1.5,-1.03711 -0.730469,0 -1.230469,0.36523 -1.5,1.0957 -0.144531,0.39062 -0.216797,0.88672 -0.216797,1.48828 0,0.48438 0.07227,0.89648 0.216797,1.23633 0.273437,0.64844 0.773437,0.97265 1.5,0.97265 0.492187,0 0.901367,-0.20605 1.227539,-0.61816 z m -3.958008,-4.91894 h 1.025391 v 0.83203 c 0.210937,-0.28516 0.441406,-0.50586 0.691406,-0.66211 0.355469,-0.23438 0.773438,-0.35156 1.253906,-0.35156 0.710938,0 1.314453,0.27246 1.810547,0.81738 0.496094,0.54492 0.744141,1.32324 0.744141,2.33496 0,1.36719 -0.357422,2.34375 -1.072266,2.92969 -0.453125,0.37109 -0.980469,0.55664 -1.582031,0.55664 -0.472656,0 -0.869141,-0.10352 -1.189453,-0.31055 -0.1875,-0.11719 -0.396485,-0.31836 -0.626953,-0.60352 v 3.20508 h -1.054688 z m 7.896485,5.29687 c 0.222656,0.17578 0.486328,0.26367 0.791015,0.26367 0.371094,0 0.730469,-0.0859 1.078125,-0.25781 0.585938,-0.28516 0.878906,-0.75195 0.878906,-1.40039 v -0.84961 c -0.128906,0.082 -0.294921,0.15039 -0.498046,0.20508 -0.203125,0.0547 -0.402344,0.0937 -0.597657,0.11719 l -0.638672,0.082 c -0.382812,0.0508 -0.669921,0.13086 -0.861328,0.24023 -0.324218,0.1836 -0.486328,0.47656 -0.486328,0.87891 0,0.30469 0.111328,0.54492 0.333985,0.7207 z m 2.220703,-2.85351 c 0.242187,-0.0313 0.404297,-0.13282 0.486328,-0.30469 0.04687,-0.0937 0.07031,-0.22852 0.07031,-0.4043 0,-0.35937 -0.127929,-0.62012 -0.383789,-0.78223 -0.255859,-0.16211 -0.62207,-0.24316 -1.098633,-0.24316 -0.550781,0 -0.941406,0.14844 -1.171875,0.44531 -0.128906,0.16407 -0.21289,0.40821 -0.251953,0.73243 h -0.984375 c 0.01953,-0.77344 0.270508,-1.31153 0.75293,-1.61426 0.482422,-0.30274 1.041992,-0.4541 1.678711,-0.4541 0.738281,0 1.337891,0.14062 1.798828,0.42187 0.457031,0.28125 0.685547,0.71875 0.685547,1.3125 v 3.61523 c 0,0.10938 0.02246,0.19727 0.06738,0.26368 0.04492,0.0664 0.139648,0.0996 0.284179,0.0996 0.04687,0 0.09961,-0.003 0.158204,-0.009 0.05859,-0.006 0.121093,-0.0146 0.1875,-0.0264 v 0.7793 c -0.164063,0.0469 -0.289063,0.0762 -0.375,0.0879 -0.08594,0.0117 -0.203125,0.0176 -0.351563,0.0176 -0.363281,0 -0.626953,-0.12891 -0.791016,-0.38672 -0.08594,-0.13672 -0.146484,-0.33008 -0.18164,-0.58008 -0.214844,0.28125 -0.523438,0.52539 -0.925781,0.73242 -0.402344,0.20703 -0.845703,0.31055 -1.330079,0.31055 -0.582031,0 -1.057617,-0.17676 -1.426757,-0.53028 -0.369141,-0.35351 -0.553711,-0.79589 -0.553711,-1.32715 0,-0.58203 0.18164,-1.0332 0.544922,-1.35351 0.363281,-0.32031 0.839843,-0.51758 1.429687,-0.5918 l 1.681641,-0.21093 z m 3.935547,1.83398 c 0.03125,0.35156 0.11914,0.62109 0.263671,0.80859 0.265625,0.33985 0.726563,0.50977 1.382813,0.50977 0.390625,0 0.734375,-0.085 1.03125,-0.25488 0.296875,-0.16993 0.445312,-0.43262 0.445312,-0.78809 0,-0.26953 -0.11914,-0.47461 -0.357421,-0.61523 -0.152344,-0.0859 -0.453125,-0.18555 -0.902344,-0.29883 l -0.837891,-0.21094 c -0.535156,-0.13281 -0.929687,-0.28125 -1.183594,-0.44531 -0.453125,-0.28516 -0.679687,-0.67969 -0.679687,-1.1836 0,-0.59375 0.213867,-1.07422 0.641602,-1.4414 0.427734,-0.36719 1.002929,-0.55078 1.725585,-0.55078 0.945313,0 1.626954,0.27734 2.044922,0.83203 0.261719,0.35156 0.388672,0.73047 0.38086,1.13672 h -0.996094 c -0.01953,-0.23829 -0.103516,-0.45508 -0.251953,-0.65039 -0.242188,-0.27735 -0.66211,-0.41602 -1.259766,-0.41602 -0.398437,0 -0.700195,0.0762 -0.905273,0.22852 -0.205078,0.15234 -0.307617,0.35351 -0.307617,0.60351 0,0.27344 0.134765,0.49219 0.404296,0.65625 0.15625,0.0977 0.386719,0.1836 0.691407,0.25781 l 0.697265,0.16993 c 0.757813,0.18359 1.265625,0.36132 1.523438,0.5332 0.410156,0.26953 0.615234,0.69336 0.615234,1.27148 0,0.5586 -0.211914,1.04102 -0.635742,1.44727 -0.423828,0.40625 -1.069336,0.60937 -1.936523,0.60937 -0.933594,0 -1.594727,-0.21191 -1.983399,-0.63574 -0.388672,-0.42383 -0.59668,-0.94824 -0.624023,-1.57324 z m 6,0 c 0.03125,0.35156 0.11914,0.62109 0.263671,0.80859 0.265625,0.33985 0.726563,0.50977 1.382813,0.50977 0.390625,0 0.734375,-0.085 1.03125,-0.25488 0.296875,-0.16993 0.445312,-0.43262 0.445312,-0.78809 0,-0.26953 -0.11914,-0.47461 -0.357421,-0.61523 -0.152344,-0.0859 -0.453125,-0.18555 -0.902344,-0.29883 l -0.837891,-0.21094 c -0.535156,-0.13281 -0.929687,-0.28125 -1.183594,-0.44531 -0.453124,-0.28516 -0.679687,-0.67969 -0.679687,-1.1836 0,-0.59375 0.213867,-1.07422 0.641601,-1.4414 0.427735,-0.36719 1.00293,-0.55078 1.725586,-0.55078 0.945313,0 1.626954,0.27734 2.044922,0.83203 0.261719,0.35156 0.388672,0.73047 0.38086,1.13672 h -0.996094 c -0.01953,-0.23829 -0.103516,-0.45508 -0.251953,-0.65039 -0.242188,-0.27735 -0.66211,-0.41602 -1.259766,-0.41602 -0.398437,0 -0.700195,0.0762 -0.905273,0.22852 -0.205078,0.15234 -0.307617,0.35351 -0.307617,0.60351 0,0.27344 0.134765,0.49219 0.404296,0.65625 0.15625,0.0977 0.386719,0.1836 0.691407,0.25781 l 0.697265,0.16993 c 0.757813,0.18359 1.265625,0.36132 1.523438,0.5332 0.410156,0.26953 0.615234,0.69336 0.615234,1.27148 0,0.5586 -0.211914,1.04102 -0.635742,1.44727 -0.423828,0.40625 -1.069336,0.60937 -1.936523,0.60937 -0.933594,0 -1.594727,-0.21191 -1.983399,-0.63574 -0.388672,-0.42383 -0.59668,-0.94824 -0.624023,-1.57324 z m 5.097656,-1.91602 h 2.941406 v 1.08399 h -2.941406 z m 4.470703,-4.14257 h 1.066406 v 1.75195 h 1.001953 v 0.86133 h -1.001953 v 4.0957 c 0,0.21875 0.07422,0.36523 0.222656,0.43945 0.08203,0.043 0.218751,0.0645 0.410157,0.0645 0.05078,0 0.105468,-9.8e-4 0.164062,-0.003 0.05859,-0.002 0.126953,-0.007 0.205078,-0.0146 v 0.83203 c -0.121093,0.0352 -0.24707,0.0605 -0.377929,0.0762 -0.13086,0.0156 -0.272461,0.0234 -0.424805,0.0234 -0.492188,0 -0.826172,-0.12598 -1.001953,-0.37793 -0.175781,-0.25195 -0.263672,-0.5791 -0.263672,-0.98145 v -4.15429 h -0.849609 v -0.86133 H 45.3125 v -1.75195 z m 3.117187,-0.60938 h 1.054688 v 3.21094 c 0.25,-0.31641 0.474609,-0.53906 0.673828,-0.66797 0.339844,-0.22266 0.763672,-0.33398 1.271484,-0.33398 0.910157,0 1.527344,0.31835 1.851563,0.95507 0.175781,0.34766 0.263672,0.83008 0.263672,1.44727 V 341 h -1.083985 v -3.95508 c 0,-0.46094 -0.05859,-0.79883 -0.175781,-1.01367 -0.191406,-0.34375 -0.550781,-0.51563 -1.078125,-0.51563 -0.4375,0 -0.833984,0.15039 -1.189453,0.45118 -0.355469,0.30078 -0.533203,0.86914 -0.533203,1.70507 V 341 h -1.054688 z m 6.701172,2.36133 h 1.001954 v 1.08398 c 0.08203,-0.21093 0.283203,-0.46777 0.603515,-0.77051 0.320313,-0.30273 0.689453,-0.4541 1.107422,-0.4541 0.01953,0 0.05273,0.002 0.09961,0.006 0.04687,0.004 0.126954,0.0117 0.240235,0.0234 v 1.11328 c -0.0625,-0.0117 -0.120118,-0.0195 -0.172852,-0.0234 -0.05273,-0.004 -0.110351,-0.006 -0.172851,-0.006 -0.53125,0 -0.939454,0.17089 -1.22461,0.51269 -0.285156,0.3418 -0.427734,0.73535 -0.427734,1.18066 v 3.60938 H 55.13086 v -6.27539 z m 7.883789,4.80176 c 0.259766,-0.5293 0.389649,-1.11817 0.389649,-1.7666 0,-0.58594 -0.09375,-1.0625 -0.28125,-1.42969 -0.296875,-0.57813 -0.808594,-0.86719 -1.535156,-0.86719 -0.644532,0 -1.113282,0.24609 -1.40625,0.73828 -0.292969,0.49219 -0.439454,1.08594 -0.439454,1.78125 0,0.66797 0.146485,1.22461 0.439454,1.66992 0.292968,0.44532 0.757812,0.66797 1.394531,0.66797 0.699219,0 1.178711,-0.26465 1.438476,-0.79394 z m 0.653321,-4.17481 c 0.558593,0.53906 0.83789,1.33203 0.83789,2.37891 0,1.01172 -0.246093,1.84765 -0.738281,2.50781 -0.492187,0.66016 -1.255859,0.99023 -2.291016,0.99023 -0.863281,0 -1.548828,-0.29199 -2.05664,-0.87597 -0.507813,-0.58399 -0.761719,-1.36817 -0.761719,-2.35254 0,-1.05469 0.267578,-1.89453 0.802734,-2.51953 0.535157,-0.625 1.253907,-0.9375 2.15625,-0.9375 0.808594,0 1.492188,0.26953 2.050782,0.80859 z m 3.144531,-0.62695 v 4.16601 c 0,0.32032 0.05078,0.58204 0.152344,0.78516 0.1875,0.375 0.537109,0.5625 1.048828,0.5625 0.734375,0 1.234375,-0.32812 1.5,-0.98437 0.144531,-0.35157 0.216797,-0.83399 0.216797,-1.44727 v -3.08203 h 1.054687 V 341 h -0.996094 l 0.01172,-0.92578 c -0.136719,0.23828 -0.30664,0.43945 -0.509765,0.60351 -0.402344,0.32813 -0.890625,0.49219 -1.464844,0.49219 -0.894531,0 -1.503906,-0.29883 -1.828125,-0.89648 -0.175781,-0.32032 -0.263672,-0.74805 -0.263672,-1.28321 v -4.26562 z m 9.121094,0.25195 c 0.199218,0.13672 0.402343,0.33594 0.609375,0.59766 v -0.79102 h 0.972656 v 5.70703 c 0,0.79688 -0.117188,1.42578 -0.351563,1.88672 -0.4375,0.85156 -1.263671,1.27735 -2.478515,1.27735 -0.675781,0 -1.244141,-0.15137 -1.705078,-0.45411 -0.460938,-0.30273 -0.71875,-0.77636 -0.773438,-1.42089 h 1.072266 c 0.05078,0.28125 0.152344,0.49804 0.304687,0.65039 0.238282,0.23437 0.613282,0.35156 1.125,0.35156 0.808594,0 1.337891,-0.28516 1.587891,-0.85547 0.148437,-0.33594 0.216797,-0.93555 0.205078,-1.79883 -0.210937,0.32032 -0.464844,0.5586 -0.761719,0.71485 -0.296875,0.15625 -0.689453,0.23437 -1.177734,0.23437 -0.679688,0 -1.274414,-0.24121 -1.78418,-0.72363 -0.509765,-0.48242 -0.764648,-1.28027 -0.764648,-2.39356 0,-1.05078 0.256836,-1.87109 0.770508,-2.46093 0.513672,-0.58985 1.133789,-0.88477 1.860351,-0.88477 0.492188,0 0.921875,0.12109 1.289063,0.36328 z m 0.128906,1.13086 c -0.320313,-0.375 -0.728516,-0.5625 -1.224609,-0.5625 -0.742188,0 -1.25,0.34766 -1.523438,1.04297 -0.144531,0.37109 -0.216797,0.85742 -0.216797,1.45898 0,0.70704 0.143555,1.24512 0.430664,1.61426 0.28711,0.36914 0.672852,0.55371 1.157227,0.55371 0.757812,0 1.291015,-0.34179 1.599609,-1.02539 0.171875,-0.38672 0.257813,-0.83789 0.257813,-1.35351 0,-0.77735 -0.160157,-1.35352 -0.480469,-1.72852 z m 3.039062,-3.74414 h 1.054688 v 3.21094 c 0.25,-0.31641 0.474609,-0.53906 0.673828,-0.66797 0.339844,-0.22266 0.763672,-0.33398 1.271484,-0.33398 0.910157,0 1.527344,0.31835 1.851563,0.95507 0.175781,0.34766 0.263672,0.83008 0.263672,1.44727 V 341 h -1.083985 v -3.95508 c 0,-0.46094 -0.05859,-0.79883 -0.175781,-1.01367 -0.191406,-0.34375 -0.550781,-0.51563 -1.078125,-0.51563 -0.4375,0 -0.833984,0.15039 -1.189453,0.45118 -0.355469,0.30078 -0.533203,0.86914 -0.533203,1.70507 V 341 h -1.054688 z"
                 style="fill:#000000;fill-opacity:1;fill-rule:nonzero;stroke:none"
                 id="path290"
                 inkscape:connector-curvature="0" /></g><g
               id="g292"
               transform="translate(14,317)"><g
                 id="g294" /></g><g
               id="g296"><path
                 d="m 180,345 h -60 c -6.66667,0 -10,-3.33331 -10,-10 V 210"
                 style="fill:none;stroke:#000000;stroke-width:2;stroke-linecap:butt;stroke-linejoin:miter;stroke-miterlimit:10;stroke-dasharray:none;stroke-opacity:1"
                 id="path298"
                 inkscape:connector-curvature="0" /><path
                 d="m 180,315 h -10 c -6.66666,0 -10,-3.33331 -10,-10 V 50"
                 style="fill:none;stroke:#000000;stroke-width:2;stroke-linecap:butt;stroke-linejoin:miter;stroke-miterlimit:10;stroke-dasharray:none;stroke-opacity:1"
                 id="path300"
                 inkscape:connector-curvature="0" /><path
                 d="m 180,330 h -50 c -6.66667,0 -10,-3.33331 -10,-10 V 40"
                 style="fill:none;stroke:#000000;stroke-width:2;stroke-linecap:butt;stroke-linejoin:miter;stroke-miterlimit:10;stroke-dasharray:none;stroke-opacity:1"
                 id="path302"
                 inkscape:connector-curvature="0" /><path
                 d="m 90,330 40.72,-16.29001 c 6.18668,-2.47333 9.88667,-6.98663 11.10001,-13.53998 L 190,40"
                 style="fill:none;stroke:#000000;stroke-width:2;stroke-linecap:butt;stroke-linejoin:miter;stroke-miterlimit:10;stroke-dasharray:none;stroke-opacity:1"
                 id="path304"
                 inkscape:connector-curvature="0" /></g><g
               id="g306"
               transform="translate(0.5,0.5)" /><g
               id="g308"><g
                 id="g310"
                 transform="translate(0.5,0.5)"><path
                   d="M 0,20 H 10 V 50 H 0 Z"
                   style="fill:#ffffff;fill-opacity:1;fill-rule:nonzero;stroke:none"
                   id="path312"
                   inkscape:connector-curvature="0" /></g></g><g
               id="g314"
               transform="translate(0.5,0.5)"><path
                 d="M 0,20 H 10 V 50 H 0 Z"
                 style="fill:none;stroke:#000000;stroke-width:1;stroke-linecap:butt;stroke-linejoin:miter;stroke-miterlimit:10;stroke-dasharray:none;stroke-opacity:1"
                 id="path316"
                 inkscape:connector-curvature="0" /></g><g
               id="g318" /><g
               id="g320"
               transform="translate(0.5,0.5)" /><g
               id="g322"><g
                 id="g324"
                 transform="translate(0.5,0.5)"><path
                   d="m 0,80 h 10 v 30 H 0 Z"
                   style="fill:#ffffff;fill-opacity:1;fill-rule:nonzero;stroke:none"
                   id="path326"
                   inkscape:connector-curvature="0" /></g></g><g
               id="g328"
               transform="translate(0.5,0.5)"><path
                 d="m 0,80 h 10 v 30 H 0 Z"
                 style="fill:none;stroke:#000000;stroke-width:1;stroke-linecap:butt;stroke-linejoin:miter;stroke-miterlimit:10;stroke-dasharray:none;stroke-opacity:1"
                 id="path330"
                 inkscape:connector-curvature="0" /></g><g
               id="g332" /><g
               id="g334"
               transform="translate(0.5,0.5)" /><g
               id="g336"><g
                 id="g338"
                 transform="translate(0.5,0.5)"><path
                   d="m 0,185 h 10 v 30 H 0 Z"
                   style="fill:#ffffff;fill-opacity:1;fill-rule:nonzero;stroke:none"
                   id="path340"
                   inkscape:connector-curvature="0" /></g></g><g
               id="g342"
               transform="translate(0.5,0.5)"><path
                 d="m 0,185 h 10 v 30 H 0 Z"
                 style="fill:none;stroke:#000000;stroke-width:1;stroke-linecap:butt;stroke-linejoin:miter;stroke-miterlimit:10;stroke-dasharray:none;stroke-opacity:1"
                 id="path344"
                 inkscape:connector-curvature="0" /></g><g
               id="g346" /><g
               id="g348"
               transform="translate(0.5,0.5)" /><g
               id="g350"><g
                 id="g352"
                 transform="translate(0.5,0.5)"><path
                   d="m 0,240 h 10 v 30 H 0 Z"
                   style="fill:#ffffff;fill-opacity:1;fill-rule:nonzero;stroke:none"
                   id="path354"
                   inkscape:connector-curvature="0" /></g></g><g
               id="g356"
               transform="translate(0.5,0.5)"><path
                 d="m 0,240 h 10 v 30 H 0 Z"
                 style="fill:none;stroke:#000000;stroke-width:1;stroke-linecap:butt;stroke-linejoin:miter;stroke-miterlimit:10;stroke-dasharray:none;stroke-opacity:1"
                 id="path358"
                 inkscape:connector-curvature="0" /></g><g
               id="g360" /><g
               id="g362"
               transform="translate(0.5,0.5)" /><g
               id="g364"><g
                 id="g366"
                 transform="translate(0.5,0.5)"><path
                   d="m 0,315 h 10 v 30 H 0 Z"
                   style="fill:#ffffff;fill-opacity:1;fill-rule:nonzero;stroke:none"
                   id="path368"
                   inkscape:connector-curvature="0" /></g></g><g
               id="g370"
               transform="translate(0.5,0.5)"><path
                 d="m 0,315 h 10 v 30 H 0 Z"
                 style="fill:none;stroke:#000000;stroke-width:1;stroke-linecap:butt;stroke-linejoin:miter;stroke-miterlimit:10;stroke-dasharray:none;stroke-opacity:1"
                 id="path372"
                 inkscape:connector-curvature="0" /></g><g
               id="g374" /></g></g></g><g
         id="g376"><g
           id="g378" /></g><g
         id="g380"><g
           id="g382"
           clip-path="url(#clipPath386)"><g
             id="g388" /><g
             id="g390" /></g></g><g
         id="g392"><g
           id="g394"
           clip-path="url(#clipPath398)"><g
             id="g400"
             clip-path="url(#clipPath404)"><g
               id="g406" /></g></g></g><g
         id="g408"><g
           id="g410" /></g><g
         id="g412"><g
           id="g414"
           clip-path="url(#clipPath418)"><g
             id="g420" /><g
             id="g422" /></g></g><g
         id="g424"><g
           id="g426" /></g></g></g></svg>