M48
;DRILL file {KiCad 4.0.2-4+6225~38~ubuntu14.04.1-stable} date Mon 13 Jun 2016 20:52:15 BST
;FORMAT={-:-/ absolute / inch / decimal}
FMAT,2
INCH,TZ
T1C0.016
%
G90
G05
M72
T1
X1.6732Y-1.9488
X1.6732Y-3.1496
X1.6732Y-4.3504
X1.6732Y-5.5512
X1.6732Y-6.752
X1.6732Y-7.9528
X1.6732Y-9.1535
X1.752Y-1.7323
X1.752Y-2.9331
X1.752Y-4.1339
X1.752Y-5.3346
X1.752Y-6.5354
X1.752Y-7.7362
X1.752Y-8.937
X1.7913Y-1.6634
X1.7913Y-2.8642
X1.7913Y-4.065
X1.7913Y-5.2657
X1.7913Y-6.4665
X1.7913Y-7.6673
X1.7913Y-8.8681
X1.8209Y-1.2992
X1.8209Y-2.5
X1.8209Y-3.7008
X1.8209Y-4.9016
X1.8209Y-6.1024
X1.8209Y-7.3031
X1.8209Y-8.5039
X2.0906Y-1.9488
X2.0906Y-3.1496
X2.0906Y-4.3504
X2.0906Y-5.5512
X2.0906Y-6.752
X2.0906Y-7.9528
X2.0906Y-9.1535
X2.1693Y-1.7323
X2.1693Y-2.9331
X2.1693Y-4.1339
X2.1693Y-5.3346
X2.1693Y-6.5354
X2.1693Y-7.7362
X2.1693Y-8.937
X2.2087Y-1.6634
X2.2087Y-2.8642
X2.2087Y-4.065
X2.2087Y-5.2657
X2.2087Y-6.4665
X2.2087Y-7.6673
X2.2087Y-8.8681
X2.2382Y-1.2992
X2.2382Y-2.5
X2.2382Y-3.7008
X2.2382Y-4.9016
X2.2382Y-6.1024
X2.2382Y-7.3031
X2.2382Y-8.5039
X2.5079Y-1.9488
X2.5079Y-3.1496
X2.5079Y-4.3504
X2.5079Y-5.5512
X2.5079Y-6.752
X2.5079Y-7.9528
X2.5079Y-9.1535
X2.5866Y-1.7323
X2.5866Y-2.9331
X2.5866Y-4.1339
X2.5866Y-5.3346
X2.5866Y-6.5354
X2.5866Y-7.7362
X2.5866Y-8.937
X2.626Y-1.6634
X2.626Y-2.8642
X2.626Y-4.065
X2.626Y-5.2657
X2.626Y-6.4665
X2.626Y-7.6673
X2.626Y-8.8681
X2.6555Y-1.2992
X2.6555Y-2.5
X2.6555Y-3.7008
X2.6555Y-4.9016
X2.6555Y-6.1024
X2.6555Y-7.3031
X2.6555Y-8.5039
X2.9252Y-1.9488
X2.9252Y-3.1496
X2.9252Y-4.3504
X2.9252Y-5.5512
X2.9252Y-6.752
X2.9252Y-7.9528
X2.9252Y-9.1535
X3.0039Y-1.7323
X3.0039Y-2.9331
X3.0039Y-4.1339
X3.0039Y-5.3346
X3.0039Y-6.5354
X3.0039Y-7.7362
X3.0039Y-8.937
X3.0433Y-1.6634
X3.0433Y-2.8642
X3.0433Y-4.065
X3.0433Y-5.2657
X3.0433Y-6.4665
X3.0433Y-7.6673
X3.0433Y-8.8681
X3.0728Y-1.2992
X3.0728Y-2.5
X3.0728Y-3.7008
X3.0728Y-4.9016
X3.0728Y-6.1024
X3.0728Y-7.3031
X3.0728Y-8.5039
X3.3425Y-1.9488
X3.3425Y-3.1496
X3.3425Y-4.3504
X3.3425Y-5.5512
X3.3425Y-6.752
X3.3425Y-7.9528
X3.3425Y-9.1535
X3.4213Y-1.7323
X3.4213Y-2.9331
X3.4213Y-4.1339
X3.4213Y-5.3346
X3.4213Y-6.5354
X3.4213Y-7.7362
X3.4213Y-8.937
X3.4606Y-1.6634
X3.4606Y-2.8642
X3.4606Y-4.065
X3.4606Y-5.2657
X3.4606Y-6.4665
X3.4606Y-7.6673
X3.4606Y-8.8681
X3.4902Y-1.2992
X3.4902Y-2.5
X3.4902Y-3.7008
X3.4902Y-4.9016
X3.4902Y-6.1024
X3.4902Y-7.3031
X3.4902Y-8.5039
X3.7598Y-1.9488
X3.7598Y-3.1496
X3.7598Y-4.3504
X3.7598Y-5.5512
X3.7598Y-6.752
X3.7598Y-7.9528
X3.7598Y-9.1535
X3.8386Y-1.7323
X3.8386Y-2.9331
X3.8386Y-4.1339
X3.8386Y-5.3346
X3.8386Y-6.5354
X3.8386Y-7.7362
X3.8386Y-8.937
X3.878Y-1.6634
X3.878Y-2.8642
X3.878Y-4.065
X3.878Y-5.2657
X3.878Y-6.4665
X3.878Y-7.6673
X3.878Y-8.8681
X3.9075Y-1.2992
X3.9075Y-2.5
X3.9075Y-3.7008
X3.9075Y-4.9016
X3.9075Y-6.1024
X3.9075Y-7.3031
X3.9075Y-8.5039
X4.1772Y-1.9488
X4.1772Y-3.1496
X4.1772Y-4.3504
X4.1772Y-5.5512
X4.1772Y-6.752
X4.1772Y-7.9528
X4.1772Y-9.1535
X4.2559Y-1.7323
X4.2559Y-2.9331
X4.2559Y-4.1339
X4.2559Y-5.3346
X4.2559Y-6.5354
X4.2559Y-7.7362
X4.2559Y-8.937
X4.2953Y-1.6634
X4.2953Y-2.8642
X4.2953Y-4.065
X4.2953Y-5.2657
X4.2953Y-6.4665
X4.2953Y-7.6673
X4.2953Y-8.8681
X4.3248Y-1.2992
X4.3248Y-2.5
X4.3248Y-3.7008
X4.3248Y-4.9016
X4.3248Y-6.1024
X4.3248Y-7.3031
X4.3248Y-8.5039
X4.5945Y-1.9488
X4.5945Y-3.1496
X4.5945Y-4.3504
X4.5945Y-5.5512
X4.5945Y-6.752
X4.5945Y-7.9528
X4.5945Y-9.1535
X4.6732Y-1.7323
X4.6732Y-2.9331
X4.6732Y-4.1339
X4.6732Y-5.3346
X4.6732Y-6.5354
X4.6732Y-7.7362
X4.6732Y-8.937
X4.7126Y-1.6634
X4.7126Y-2.8642
X4.7126Y-4.065
X4.7126Y-5.2657
X4.7126Y-6.4665
X4.7126Y-7.6673
X4.7126Y-8.8681
X4.7421Y-1.2992
X4.7421Y-2.5
X4.7421Y-3.7008
X4.7421Y-4.9016
X4.7421Y-6.1024
X4.7421Y-7.3031
X4.7421Y-8.5039
X5.0118Y-1.9488
X5.0118Y-3.1496
X5.0118Y-4.3504
X5.0118Y-5.5512
X5.0118Y-6.752
X5.0118Y-7.9528
X5.0118Y-9.1535
X5.0906Y-1.7323
X5.0906Y-2.9331
X5.0906Y-4.1339
X5.0906Y-5.3346
X5.0906Y-6.5354
X5.0906Y-7.7362
X5.0906Y-8.937
X5.1299Y-1.6634
X5.1299Y-2.8642
X5.1299Y-4.065
X5.1299Y-5.2657
X5.1299Y-6.4665
X5.1299Y-7.6673
X5.1299Y-8.8681
X5.1594Y-1.2992
X5.1594Y-2.5
X5.1594Y-3.7008
X5.1594Y-4.9016
X5.1594Y-6.1024
X5.1594Y-7.3031
X5.1594Y-8.5039
X5.4291Y-1.9488
X5.4291Y-3.1496
X5.4291Y-4.3504
X5.4291Y-5.5512
X5.4291Y-6.752
X5.4291Y-7.9528
X5.4291Y-9.1535
X5.5079Y-1.7323
X5.5079Y-2.9331
X5.5079Y-4.1339
X5.5079Y-5.3346
X5.5079Y-6.5354
X5.5079Y-7.7362
X5.5079Y-8.937
X5.5472Y-1.6634
X5.5472Y-2.8642
X5.5472Y-4.065
X5.5472Y-5.2657
X5.5472Y-6.4665
X5.5472Y-7.6673
X5.5472Y-8.8681
X5.5768Y-1.2992
X5.5768Y-2.5
X5.5768Y-3.7008
X5.5768Y-4.9016
X5.5768Y-6.1024
X5.5768Y-7.3031
X5.5768Y-8.5039
X5.8465Y-1.9488
X5.8465Y-3.1496
X5.8465Y-4.3504
X5.8465Y-5.5512
X5.8465Y-6.752
X5.8465Y-7.9528
X5.8465Y-9.1535
X5.9252Y-1.7323
X5.9252Y-2.9331
X5.9252Y-4.1339
X5.9252Y-5.3346
X5.9252Y-6.5354
X5.9252Y-7.7362
X5.9252Y-8.937
X5.9646Y-1.6634
X5.9646Y-2.8642
X5.9646Y-4.065
X5.9646Y-5.2657
X5.9646Y-6.4665
X5.9646Y-7.6673
X5.9646Y-8.8681
X5.9941Y-1.2992
X5.9941Y-2.5
X5.9941Y-3.7008
X5.9941Y-4.9016
X5.9941Y-6.1024
X5.9941Y-7.3031
X5.9941Y-8.5039
X6.2638Y-1.9488
X6.2638Y-3.1496
X6.2638Y-4.3504
X6.2638Y-5.5512
X6.2638Y-6.752
X6.2638Y-7.9528
X6.2638Y-9.1535
X6.3425Y-1.7323
X6.3425Y-2.9331
X6.3425Y-4.1339
X6.3425Y-5.3346
X6.3425Y-6.5354
X6.3425Y-7.7362
X6.3425Y-8.937
X6.3819Y-1.6634
X6.3819Y-2.8642
X6.3819Y-4.065
X6.3819Y-5.2657
X6.3819Y-6.4665
X6.3819Y-7.6673
X6.3819Y-8.8681
X6.4114Y-1.2992
X6.4114Y-2.5
X6.4114Y-3.7008
X6.4114Y-4.9016
X6.4114Y-6.1024
X6.4114Y-7.3031
X6.4114Y-8.5039
X6.6811Y-1.9488
X6.6811Y-3.1496
X6.6811Y-4.3504
X6.6811Y-5.5512
X6.6811Y-6.752
X6.6811Y-7.9528
X6.6811Y-9.1535
X6.7598Y-1.7323
X6.7598Y-2.9331
X6.7598Y-4.1339
X6.7598Y-5.3346
X6.7598Y-6.5354
X6.7598Y-7.7362
X6.7598Y-8.937
X6.7992Y-1.6634
X6.7992Y-2.8642
X6.7992Y-4.065
X6.7992Y-5.2657
X6.7992Y-6.4665
X6.7992Y-7.6673
X6.7992Y-8.8681
X6.8287Y-1.2992
X6.8287Y-2.5
X6.8287Y-3.7008
X6.8287Y-4.9016
X6.8287Y-6.1024
X6.8287Y-7.3031
X6.8287Y-8.5039
T0
M30
