G04 #@! TF.FileFunction,Legend,Bot*
%FSLAX46Y46*%
G04 Gerber Fmt 4.6, Leading zero omitted, Abs format (unit mm)*
G04 Created by KiCad (PCBNEW 4.0.2-4+6225~38~ubuntu14.04.1-stable) date Mon 13 Jun 2016 20:57:54 BST*
%MOMM*%
G01*
G04 APERTURE LIST*
%ADD10C,0.100000*%
%ADD11C,0.150000*%
G04 APERTURE END LIST*
D10*
D11*
X171493095Y-239159762D02*
X171350238Y-239207381D01*
X171112142Y-239207381D01*
X171016904Y-239159762D01*
X170969285Y-239112143D01*
X170921666Y-239016905D01*
X170921666Y-238921667D01*
X170969285Y-238826429D01*
X171016904Y-238778810D01*
X171112142Y-238731190D01*
X171302619Y-238683571D01*
X171397857Y-238635952D01*
X171445476Y-238588333D01*
X171493095Y-238493095D01*
X171493095Y-238397857D01*
X171445476Y-238302619D01*
X171397857Y-238255000D01*
X171302619Y-238207381D01*
X171064523Y-238207381D01*
X170921666Y-238255000D01*
X169969285Y-239207381D02*
X170540714Y-239207381D01*
X170255000Y-239207381D02*
X170255000Y-238207381D01*
X170350238Y-238350238D01*
X170445476Y-238445476D01*
X170540714Y-238493095D01*
X169588333Y-238302619D02*
X169540714Y-238255000D01*
X169445476Y-238207381D01*
X169207380Y-238207381D01*
X169112142Y-238255000D01*
X169064523Y-238302619D01*
X169016904Y-238397857D01*
X169016904Y-238493095D01*
X169064523Y-238635952D01*
X169635952Y-239207381D01*
X169016904Y-239207381D01*
X168064523Y-238255000D02*
X168159761Y-238207381D01*
X168302618Y-238207381D01*
X168445476Y-238255000D01*
X168540714Y-238350238D01*
X168588333Y-238445476D01*
X168635952Y-238635952D01*
X168635952Y-238778810D01*
X168588333Y-238969286D01*
X168540714Y-239064524D01*
X168445476Y-239159762D01*
X168302618Y-239207381D01*
X168207380Y-239207381D01*
X168064523Y-239159762D01*
X168016904Y-239112143D01*
X168016904Y-238778810D01*
X168207380Y-238778810D01*
X160893095Y-239159762D02*
X160750238Y-239207381D01*
X160512142Y-239207381D01*
X160416904Y-239159762D01*
X160369285Y-239112143D01*
X160321666Y-239016905D01*
X160321666Y-238921667D01*
X160369285Y-238826429D01*
X160416904Y-238778810D01*
X160512142Y-238731190D01*
X160702619Y-238683571D01*
X160797857Y-238635952D01*
X160845476Y-238588333D01*
X160893095Y-238493095D01*
X160893095Y-238397857D01*
X160845476Y-238302619D01*
X160797857Y-238255000D01*
X160702619Y-238207381D01*
X160464523Y-238207381D01*
X160321666Y-238255000D01*
X159369285Y-239207381D02*
X159940714Y-239207381D01*
X159655000Y-239207381D02*
X159655000Y-238207381D01*
X159750238Y-238350238D01*
X159845476Y-238445476D01*
X159940714Y-238493095D01*
X158416904Y-239207381D02*
X158988333Y-239207381D01*
X158702619Y-239207381D02*
X158702619Y-238207381D01*
X158797857Y-238350238D01*
X158893095Y-238445476D01*
X158988333Y-238493095D01*
X157464523Y-238255000D02*
X157559761Y-238207381D01*
X157702618Y-238207381D01*
X157845476Y-238255000D01*
X157940714Y-238350238D01*
X157988333Y-238445476D01*
X158035952Y-238635952D01*
X158035952Y-238778810D01*
X157988333Y-238969286D01*
X157940714Y-239064524D01*
X157845476Y-239159762D01*
X157702618Y-239207381D01*
X157607380Y-239207381D01*
X157464523Y-239159762D01*
X157416904Y-239112143D01*
X157416904Y-238778810D01*
X157607380Y-238778810D01*
X150293095Y-239159762D02*
X150150238Y-239207381D01*
X149912142Y-239207381D01*
X149816904Y-239159762D01*
X149769285Y-239112143D01*
X149721666Y-239016905D01*
X149721666Y-238921667D01*
X149769285Y-238826429D01*
X149816904Y-238778810D01*
X149912142Y-238731190D01*
X150102619Y-238683571D01*
X150197857Y-238635952D01*
X150245476Y-238588333D01*
X150293095Y-238493095D01*
X150293095Y-238397857D01*
X150245476Y-238302619D01*
X150197857Y-238255000D01*
X150102619Y-238207381D01*
X149864523Y-238207381D01*
X149721666Y-238255000D01*
X148769285Y-239207381D02*
X149340714Y-239207381D01*
X149055000Y-239207381D02*
X149055000Y-238207381D01*
X149150238Y-238350238D01*
X149245476Y-238445476D01*
X149340714Y-238493095D01*
X148150238Y-238207381D02*
X148054999Y-238207381D01*
X147959761Y-238255000D01*
X147912142Y-238302619D01*
X147864523Y-238397857D01*
X147816904Y-238588333D01*
X147816904Y-238826429D01*
X147864523Y-239016905D01*
X147912142Y-239112143D01*
X147959761Y-239159762D01*
X148054999Y-239207381D01*
X148150238Y-239207381D01*
X148245476Y-239159762D01*
X148293095Y-239112143D01*
X148340714Y-239016905D01*
X148388333Y-238826429D01*
X148388333Y-238588333D01*
X148340714Y-238397857D01*
X148293095Y-238302619D01*
X148245476Y-238255000D01*
X148150238Y-238207381D01*
X146864523Y-238255000D02*
X146959761Y-238207381D01*
X147102618Y-238207381D01*
X147245476Y-238255000D01*
X147340714Y-238350238D01*
X147388333Y-238445476D01*
X147435952Y-238635952D01*
X147435952Y-238778810D01*
X147388333Y-238969286D01*
X147340714Y-239064524D01*
X147245476Y-239159762D01*
X147102618Y-239207381D01*
X147007380Y-239207381D01*
X146864523Y-239159762D01*
X146816904Y-239112143D01*
X146816904Y-238778810D01*
X147007380Y-238778810D01*
X139216905Y-239159762D02*
X139074048Y-239207381D01*
X138835952Y-239207381D01*
X138740714Y-239159762D01*
X138693095Y-239112143D01*
X138645476Y-239016905D01*
X138645476Y-238921667D01*
X138693095Y-238826429D01*
X138740714Y-238778810D01*
X138835952Y-238731190D01*
X139026429Y-238683571D01*
X139121667Y-238635952D01*
X139169286Y-238588333D01*
X139216905Y-238493095D01*
X139216905Y-238397857D01*
X139169286Y-238302619D01*
X139121667Y-238255000D01*
X139026429Y-238207381D01*
X138788333Y-238207381D01*
X138645476Y-238255000D01*
X138169286Y-239207381D02*
X137978810Y-239207381D01*
X137883571Y-239159762D01*
X137835952Y-239112143D01*
X137740714Y-238969286D01*
X137693095Y-238778810D01*
X137693095Y-238397857D01*
X137740714Y-238302619D01*
X137788333Y-238255000D01*
X137883571Y-238207381D01*
X138074048Y-238207381D01*
X138169286Y-238255000D01*
X138216905Y-238302619D01*
X138264524Y-238397857D01*
X138264524Y-238635952D01*
X138216905Y-238731190D01*
X138169286Y-238778810D01*
X138074048Y-238826429D01*
X137883571Y-238826429D01*
X137788333Y-238778810D01*
X137740714Y-238731190D01*
X137693095Y-238635952D01*
X136740714Y-238255000D02*
X136835952Y-238207381D01*
X136978809Y-238207381D01*
X137121667Y-238255000D01*
X137216905Y-238350238D01*
X137264524Y-238445476D01*
X137312143Y-238635952D01*
X137312143Y-238778810D01*
X137264524Y-238969286D01*
X137216905Y-239064524D01*
X137121667Y-239159762D01*
X136978809Y-239207381D01*
X136883571Y-239207381D01*
X136740714Y-239159762D01*
X136693095Y-239112143D01*
X136693095Y-238778810D01*
X136883571Y-238778810D01*
X128616905Y-239159762D02*
X128474048Y-239207381D01*
X128235952Y-239207381D01*
X128140714Y-239159762D01*
X128093095Y-239112143D01*
X128045476Y-239016905D01*
X128045476Y-238921667D01*
X128093095Y-238826429D01*
X128140714Y-238778810D01*
X128235952Y-238731190D01*
X128426429Y-238683571D01*
X128521667Y-238635952D01*
X128569286Y-238588333D01*
X128616905Y-238493095D01*
X128616905Y-238397857D01*
X128569286Y-238302619D01*
X128521667Y-238255000D01*
X128426429Y-238207381D01*
X128188333Y-238207381D01*
X128045476Y-238255000D01*
X127474048Y-238635952D02*
X127569286Y-238588333D01*
X127616905Y-238540714D01*
X127664524Y-238445476D01*
X127664524Y-238397857D01*
X127616905Y-238302619D01*
X127569286Y-238255000D01*
X127474048Y-238207381D01*
X127283571Y-238207381D01*
X127188333Y-238255000D01*
X127140714Y-238302619D01*
X127093095Y-238397857D01*
X127093095Y-238445476D01*
X127140714Y-238540714D01*
X127188333Y-238588333D01*
X127283571Y-238635952D01*
X127474048Y-238635952D01*
X127569286Y-238683571D01*
X127616905Y-238731190D01*
X127664524Y-238826429D01*
X127664524Y-239016905D01*
X127616905Y-239112143D01*
X127569286Y-239159762D01*
X127474048Y-239207381D01*
X127283571Y-239207381D01*
X127188333Y-239159762D01*
X127140714Y-239112143D01*
X127093095Y-239016905D01*
X127093095Y-238826429D01*
X127140714Y-238731190D01*
X127188333Y-238683571D01*
X127283571Y-238635952D01*
X126140714Y-238255000D02*
X126235952Y-238207381D01*
X126378809Y-238207381D01*
X126521667Y-238255000D01*
X126616905Y-238350238D01*
X126664524Y-238445476D01*
X126712143Y-238635952D01*
X126712143Y-238778810D01*
X126664524Y-238969286D01*
X126616905Y-239064524D01*
X126521667Y-239159762D01*
X126378809Y-239207381D01*
X126283571Y-239207381D01*
X126140714Y-239159762D01*
X126093095Y-239112143D01*
X126093095Y-238778810D01*
X126283571Y-238778810D01*
X118016905Y-239159762D02*
X117874048Y-239207381D01*
X117635952Y-239207381D01*
X117540714Y-239159762D01*
X117493095Y-239112143D01*
X117445476Y-239016905D01*
X117445476Y-238921667D01*
X117493095Y-238826429D01*
X117540714Y-238778810D01*
X117635952Y-238731190D01*
X117826429Y-238683571D01*
X117921667Y-238635952D01*
X117969286Y-238588333D01*
X118016905Y-238493095D01*
X118016905Y-238397857D01*
X117969286Y-238302619D01*
X117921667Y-238255000D01*
X117826429Y-238207381D01*
X117588333Y-238207381D01*
X117445476Y-238255000D01*
X117112143Y-238207381D02*
X116445476Y-238207381D01*
X116874048Y-239207381D01*
X115540714Y-238255000D02*
X115635952Y-238207381D01*
X115778809Y-238207381D01*
X115921667Y-238255000D01*
X116016905Y-238350238D01*
X116064524Y-238445476D01*
X116112143Y-238635952D01*
X116112143Y-238778810D01*
X116064524Y-238969286D01*
X116016905Y-239064524D01*
X115921667Y-239159762D01*
X115778809Y-239207381D01*
X115683571Y-239207381D01*
X115540714Y-239159762D01*
X115493095Y-239112143D01*
X115493095Y-238778810D01*
X115683571Y-238778810D01*
X107416905Y-239159762D02*
X107274048Y-239207381D01*
X107035952Y-239207381D01*
X106940714Y-239159762D01*
X106893095Y-239112143D01*
X106845476Y-239016905D01*
X106845476Y-238921667D01*
X106893095Y-238826429D01*
X106940714Y-238778810D01*
X107035952Y-238731190D01*
X107226429Y-238683571D01*
X107321667Y-238635952D01*
X107369286Y-238588333D01*
X107416905Y-238493095D01*
X107416905Y-238397857D01*
X107369286Y-238302619D01*
X107321667Y-238255000D01*
X107226429Y-238207381D01*
X106988333Y-238207381D01*
X106845476Y-238255000D01*
X105988333Y-238207381D02*
X106178810Y-238207381D01*
X106274048Y-238255000D01*
X106321667Y-238302619D01*
X106416905Y-238445476D01*
X106464524Y-238635952D01*
X106464524Y-239016905D01*
X106416905Y-239112143D01*
X106369286Y-239159762D01*
X106274048Y-239207381D01*
X106083571Y-239207381D01*
X105988333Y-239159762D01*
X105940714Y-239112143D01*
X105893095Y-239016905D01*
X105893095Y-238778810D01*
X105940714Y-238683571D01*
X105988333Y-238635952D01*
X106083571Y-238588333D01*
X106274048Y-238588333D01*
X106369286Y-238635952D01*
X106416905Y-238683571D01*
X106464524Y-238778810D01*
X104940714Y-238255000D02*
X105035952Y-238207381D01*
X105178809Y-238207381D01*
X105321667Y-238255000D01*
X105416905Y-238350238D01*
X105464524Y-238445476D01*
X105512143Y-238635952D01*
X105512143Y-238778810D01*
X105464524Y-238969286D01*
X105416905Y-239064524D01*
X105321667Y-239159762D01*
X105178809Y-239207381D01*
X105083571Y-239207381D01*
X104940714Y-239159762D01*
X104893095Y-239112143D01*
X104893095Y-238778810D01*
X105083571Y-238778810D01*
X96816905Y-239159762D02*
X96674048Y-239207381D01*
X96435952Y-239207381D01*
X96340714Y-239159762D01*
X96293095Y-239112143D01*
X96245476Y-239016905D01*
X96245476Y-238921667D01*
X96293095Y-238826429D01*
X96340714Y-238778810D01*
X96435952Y-238731190D01*
X96626429Y-238683571D01*
X96721667Y-238635952D01*
X96769286Y-238588333D01*
X96816905Y-238493095D01*
X96816905Y-238397857D01*
X96769286Y-238302619D01*
X96721667Y-238255000D01*
X96626429Y-238207381D01*
X96388333Y-238207381D01*
X96245476Y-238255000D01*
X95340714Y-238207381D02*
X95816905Y-238207381D01*
X95864524Y-238683571D01*
X95816905Y-238635952D01*
X95721667Y-238588333D01*
X95483571Y-238588333D01*
X95388333Y-238635952D01*
X95340714Y-238683571D01*
X95293095Y-238778810D01*
X95293095Y-239016905D01*
X95340714Y-239112143D01*
X95388333Y-239159762D01*
X95483571Y-239207381D01*
X95721667Y-239207381D01*
X95816905Y-239159762D01*
X95864524Y-239112143D01*
X94340714Y-238255000D02*
X94435952Y-238207381D01*
X94578809Y-238207381D01*
X94721667Y-238255000D01*
X94816905Y-238350238D01*
X94864524Y-238445476D01*
X94912143Y-238635952D01*
X94912143Y-238778810D01*
X94864524Y-238969286D01*
X94816905Y-239064524D01*
X94721667Y-239159762D01*
X94578809Y-239207381D01*
X94483571Y-239207381D01*
X94340714Y-239159762D01*
X94293095Y-239112143D01*
X94293095Y-238778810D01*
X94483571Y-238778810D01*
X86216905Y-239159762D02*
X86074048Y-239207381D01*
X85835952Y-239207381D01*
X85740714Y-239159762D01*
X85693095Y-239112143D01*
X85645476Y-239016905D01*
X85645476Y-238921667D01*
X85693095Y-238826429D01*
X85740714Y-238778810D01*
X85835952Y-238731190D01*
X86026429Y-238683571D01*
X86121667Y-238635952D01*
X86169286Y-238588333D01*
X86216905Y-238493095D01*
X86216905Y-238397857D01*
X86169286Y-238302619D01*
X86121667Y-238255000D01*
X86026429Y-238207381D01*
X85788333Y-238207381D01*
X85645476Y-238255000D01*
X84788333Y-238540714D02*
X84788333Y-239207381D01*
X85026429Y-238159762D02*
X85264524Y-238874048D01*
X84645476Y-238874048D01*
X83740714Y-238255000D02*
X83835952Y-238207381D01*
X83978809Y-238207381D01*
X84121667Y-238255000D01*
X84216905Y-238350238D01*
X84264524Y-238445476D01*
X84312143Y-238635952D01*
X84312143Y-238778810D01*
X84264524Y-238969286D01*
X84216905Y-239064524D01*
X84121667Y-239159762D01*
X83978809Y-239207381D01*
X83883571Y-239207381D01*
X83740714Y-239159762D01*
X83693095Y-239112143D01*
X83693095Y-238778810D01*
X83883571Y-238778810D01*
X75616905Y-239159762D02*
X75474048Y-239207381D01*
X75235952Y-239207381D01*
X75140714Y-239159762D01*
X75093095Y-239112143D01*
X75045476Y-239016905D01*
X75045476Y-238921667D01*
X75093095Y-238826429D01*
X75140714Y-238778810D01*
X75235952Y-238731190D01*
X75426429Y-238683571D01*
X75521667Y-238635952D01*
X75569286Y-238588333D01*
X75616905Y-238493095D01*
X75616905Y-238397857D01*
X75569286Y-238302619D01*
X75521667Y-238255000D01*
X75426429Y-238207381D01*
X75188333Y-238207381D01*
X75045476Y-238255000D01*
X74712143Y-238207381D02*
X74093095Y-238207381D01*
X74426429Y-238588333D01*
X74283571Y-238588333D01*
X74188333Y-238635952D01*
X74140714Y-238683571D01*
X74093095Y-238778810D01*
X74093095Y-239016905D01*
X74140714Y-239112143D01*
X74188333Y-239159762D01*
X74283571Y-239207381D01*
X74569286Y-239207381D01*
X74664524Y-239159762D01*
X74712143Y-239112143D01*
X73140714Y-238255000D02*
X73235952Y-238207381D01*
X73378809Y-238207381D01*
X73521667Y-238255000D01*
X73616905Y-238350238D01*
X73664524Y-238445476D01*
X73712143Y-238635952D01*
X73712143Y-238778810D01*
X73664524Y-238969286D01*
X73616905Y-239064524D01*
X73521667Y-239159762D01*
X73378809Y-239207381D01*
X73283571Y-239207381D01*
X73140714Y-239159762D01*
X73093095Y-239112143D01*
X73093095Y-238778810D01*
X73283571Y-238778810D01*
X65016905Y-239159762D02*
X64874048Y-239207381D01*
X64635952Y-239207381D01*
X64540714Y-239159762D01*
X64493095Y-239112143D01*
X64445476Y-239016905D01*
X64445476Y-238921667D01*
X64493095Y-238826429D01*
X64540714Y-238778810D01*
X64635952Y-238731190D01*
X64826429Y-238683571D01*
X64921667Y-238635952D01*
X64969286Y-238588333D01*
X65016905Y-238493095D01*
X65016905Y-238397857D01*
X64969286Y-238302619D01*
X64921667Y-238255000D01*
X64826429Y-238207381D01*
X64588333Y-238207381D01*
X64445476Y-238255000D01*
X64064524Y-238302619D02*
X64016905Y-238255000D01*
X63921667Y-238207381D01*
X63683571Y-238207381D01*
X63588333Y-238255000D01*
X63540714Y-238302619D01*
X63493095Y-238397857D01*
X63493095Y-238493095D01*
X63540714Y-238635952D01*
X64112143Y-239207381D01*
X63493095Y-239207381D01*
X62540714Y-238255000D02*
X62635952Y-238207381D01*
X62778809Y-238207381D01*
X62921667Y-238255000D01*
X63016905Y-238350238D01*
X63064524Y-238445476D01*
X63112143Y-238635952D01*
X63112143Y-238778810D01*
X63064524Y-238969286D01*
X63016905Y-239064524D01*
X62921667Y-239159762D01*
X62778809Y-239207381D01*
X62683571Y-239207381D01*
X62540714Y-239159762D01*
X62493095Y-239112143D01*
X62493095Y-238778810D01*
X62683571Y-238778810D01*
X54416905Y-239159762D02*
X54274048Y-239207381D01*
X54035952Y-239207381D01*
X53940714Y-239159762D01*
X53893095Y-239112143D01*
X53845476Y-239016905D01*
X53845476Y-238921667D01*
X53893095Y-238826429D01*
X53940714Y-238778810D01*
X54035952Y-238731190D01*
X54226429Y-238683571D01*
X54321667Y-238635952D01*
X54369286Y-238588333D01*
X54416905Y-238493095D01*
X54416905Y-238397857D01*
X54369286Y-238302619D01*
X54321667Y-238255000D01*
X54226429Y-238207381D01*
X53988333Y-238207381D01*
X53845476Y-238255000D01*
X52893095Y-239207381D02*
X53464524Y-239207381D01*
X53178810Y-239207381D02*
X53178810Y-238207381D01*
X53274048Y-238350238D01*
X53369286Y-238445476D01*
X53464524Y-238493095D01*
X51940714Y-238255000D02*
X52035952Y-238207381D01*
X52178809Y-238207381D01*
X52321667Y-238255000D01*
X52416905Y-238350238D01*
X52464524Y-238445476D01*
X52512143Y-238635952D01*
X52512143Y-238778810D01*
X52464524Y-238969286D01*
X52416905Y-239064524D01*
X52321667Y-239159762D01*
X52178809Y-239207381D01*
X52083571Y-239207381D01*
X51940714Y-239159762D01*
X51893095Y-239112143D01*
X51893095Y-238778810D01*
X52083571Y-238778810D01*
X43745476Y-239159762D02*
X43602619Y-239207381D01*
X43364523Y-239207381D01*
X43269285Y-239159762D01*
X43221666Y-239112143D01*
X43174047Y-239016905D01*
X43174047Y-238921667D01*
X43221666Y-238826429D01*
X43269285Y-238778810D01*
X43364523Y-238731190D01*
X43555000Y-238683571D01*
X43650238Y-238635952D01*
X43697857Y-238588333D01*
X43745476Y-238493095D01*
X43745476Y-238397857D01*
X43697857Y-238302619D01*
X43650238Y-238255000D01*
X43555000Y-238207381D01*
X43316904Y-238207381D01*
X43174047Y-238255000D01*
X42555000Y-238207381D02*
X42459761Y-238207381D01*
X42364523Y-238255000D01*
X42316904Y-238302619D01*
X42269285Y-238397857D01*
X42221666Y-238588333D01*
X42221666Y-238826429D01*
X42269285Y-239016905D01*
X42316904Y-239112143D01*
X42364523Y-239159762D01*
X42459761Y-239207381D01*
X42555000Y-239207381D01*
X42650238Y-239159762D01*
X42697857Y-239112143D01*
X42745476Y-239016905D01*
X42793095Y-238826429D01*
X42793095Y-238588333D01*
X42745476Y-238397857D01*
X42697857Y-238302619D01*
X42650238Y-238255000D01*
X42555000Y-238207381D01*
X41840714Y-238921667D02*
X41364523Y-238921667D01*
X41935952Y-239207381D02*
X41602619Y-238207381D01*
X41269285Y-239207381D01*
X171421667Y-208659762D02*
X171278810Y-208707381D01*
X171040714Y-208707381D01*
X170945476Y-208659762D01*
X170897857Y-208612143D01*
X170850238Y-208516905D01*
X170850238Y-208421667D01*
X170897857Y-208326429D01*
X170945476Y-208278810D01*
X171040714Y-208231190D01*
X171231191Y-208183571D01*
X171326429Y-208135952D01*
X171374048Y-208088333D01*
X171421667Y-207993095D01*
X171421667Y-207897857D01*
X171374048Y-207802619D01*
X171326429Y-207755000D01*
X171231191Y-207707381D01*
X170993095Y-207707381D01*
X170850238Y-207755000D01*
X169897857Y-208707381D02*
X170469286Y-208707381D01*
X170183572Y-208707381D02*
X170183572Y-207707381D01*
X170278810Y-207850238D01*
X170374048Y-207945476D01*
X170469286Y-207993095D01*
X169516905Y-207802619D02*
X169469286Y-207755000D01*
X169374048Y-207707381D01*
X169135952Y-207707381D01*
X169040714Y-207755000D01*
X168993095Y-207802619D01*
X168945476Y-207897857D01*
X168945476Y-207993095D01*
X168993095Y-208135952D01*
X169564524Y-208707381D01*
X168945476Y-208707381D01*
X168183571Y-208183571D02*
X168516905Y-208183571D01*
X168516905Y-208707381D02*
X168516905Y-207707381D01*
X168040714Y-207707381D01*
X160821667Y-208659762D02*
X160678810Y-208707381D01*
X160440714Y-208707381D01*
X160345476Y-208659762D01*
X160297857Y-208612143D01*
X160250238Y-208516905D01*
X160250238Y-208421667D01*
X160297857Y-208326429D01*
X160345476Y-208278810D01*
X160440714Y-208231190D01*
X160631191Y-208183571D01*
X160726429Y-208135952D01*
X160774048Y-208088333D01*
X160821667Y-207993095D01*
X160821667Y-207897857D01*
X160774048Y-207802619D01*
X160726429Y-207755000D01*
X160631191Y-207707381D01*
X160393095Y-207707381D01*
X160250238Y-207755000D01*
X159297857Y-208707381D02*
X159869286Y-208707381D01*
X159583572Y-208707381D02*
X159583572Y-207707381D01*
X159678810Y-207850238D01*
X159774048Y-207945476D01*
X159869286Y-207993095D01*
X158345476Y-208707381D02*
X158916905Y-208707381D01*
X158631191Y-208707381D02*
X158631191Y-207707381D01*
X158726429Y-207850238D01*
X158821667Y-207945476D01*
X158916905Y-207993095D01*
X157583571Y-208183571D02*
X157916905Y-208183571D01*
X157916905Y-208707381D02*
X157916905Y-207707381D01*
X157440714Y-207707381D01*
X150221667Y-208659762D02*
X150078810Y-208707381D01*
X149840714Y-208707381D01*
X149745476Y-208659762D01*
X149697857Y-208612143D01*
X149650238Y-208516905D01*
X149650238Y-208421667D01*
X149697857Y-208326429D01*
X149745476Y-208278810D01*
X149840714Y-208231190D01*
X150031191Y-208183571D01*
X150126429Y-208135952D01*
X150174048Y-208088333D01*
X150221667Y-207993095D01*
X150221667Y-207897857D01*
X150174048Y-207802619D01*
X150126429Y-207755000D01*
X150031191Y-207707381D01*
X149793095Y-207707381D01*
X149650238Y-207755000D01*
X148697857Y-208707381D02*
X149269286Y-208707381D01*
X148983572Y-208707381D02*
X148983572Y-207707381D01*
X149078810Y-207850238D01*
X149174048Y-207945476D01*
X149269286Y-207993095D01*
X148078810Y-207707381D02*
X147983571Y-207707381D01*
X147888333Y-207755000D01*
X147840714Y-207802619D01*
X147793095Y-207897857D01*
X147745476Y-208088333D01*
X147745476Y-208326429D01*
X147793095Y-208516905D01*
X147840714Y-208612143D01*
X147888333Y-208659762D01*
X147983571Y-208707381D01*
X148078810Y-208707381D01*
X148174048Y-208659762D01*
X148221667Y-208612143D01*
X148269286Y-208516905D01*
X148316905Y-208326429D01*
X148316905Y-208088333D01*
X148269286Y-207897857D01*
X148221667Y-207802619D01*
X148174048Y-207755000D01*
X148078810Y-207707381D01*
X146983571Y-208183571D02*
X147316905Y-208183571D01*
X147316905Y-208707381D02*
X147316905Y-207707381D01*
X146840714Y-207707381D01*
X139145476Y-208659762D02*
X139002619Y-208707381D01*
X138764523Y-208707381D01*
X138669285Y-208659762D01*
X138621666Y-208612143D01*
X138574047Y-208516905D01*
X138574047Y-208421667D01*
X138621666Y-208326429D01*
X138669285Y-208278810D01*
X138764523Y-208231190D01*
X138955000Y-208183571D01*
X139050238Y-208135952D01*
X139097857Y-208088333D01*
X139145476Y-207993095D01*
X139145476Y-207897857D01*
X139097857Y-207802619D01*
X139050238Y-207755000D01*
X138955000Y-207707381D01*
X138716904Y-207707381D01*
X138574047Y-207755000D01*
X138097857Y-208707381D02*
X137907381Y-208707381D01*
X137812142Y-208659762D01*
X137764523Y-208612143D01*
X137669285Y-208469286D01*
X137621666Y-208278810D01*
X137621666Y-207897857D01*
X137669285Y-207802619D01*
X137716904Y-207755000D01*
X137812142Y-207707381D01*
X138002619Y-207707381D01*
X138097857Y-207755000D01*
X138145476Y-207802619D01*
X138193095Y-207897857D01*
X138193095Y-208135952D01*
X138145476Y-208231190D01*
X138097857Y-208278810D01*
X138002619Y-208326429D01*
X137812142Y-208326429D01*
X137716904Y-208278810D01*
X137669285Y-208231190D01*
X137621666Y-208135952D01*
X136859761Y-208183571D02*
X137193095Y-208183571D01*
X137193095Y-208707381D02*
X137193095Y-207707381D01*
X136716904Y-207707381D01*
X128545476Y-208659762D02*
X128402619Y-208707381D01*
X128164523Y-208707381D01*
X128069285Y-208659762D01*
X128021666Y-208612143D01*
X127974047Y-208516905D01*
X127974047Y-208421667D01*
X128021666Y-208326429D01*
X128069285Y-208278810D01*
X128164523Y-208231190D01*
X128355000Y-208183571D01*
X128450238Y-208135952D01*
X128497857Y-208088333D01*
X128545476Y-207993095D01*
X128545476Y-207897857D01*
X128497857Y-207802619D01*
X128450238Y-207755000D01*
X128355000Y-207707381D01*
X128116904Y-207707381D01*
X127974047Y-207755000D01*
X127402619Y-208135952D02*
X127497857Y-208088333D01*
X127545476Y-208040714D01*
X127593095Y-207945476D01*
X127593095Y-207897857D01*
X127545476Y-207802619D01*
X127497857Y-207755000D01*
X127402619Y-207707381D01*
X127212142Y-207707381D01*
X127116904Y-207755000D01*
X127069285Y-207802619D01*
X127021666Y-207897857D01*
X127021666Y-207945476D01*
X127069285Y-208040714D01*
X127116904Y-208088333D01*
X127212142Y-208135952D01*
X127402619Y-208135952D01*
X127497857Y-208183571D01*
X127545476Y-208231190D01*
X127593095Y-208326429D01*
X127593095Y-208516905D01*
X127545476Y-208612143D01*
X127497857Y-208659762D01*
X127402619Y-208707381D01*
X127212142Y-208707381D01*
X127116904Y-208659762D01*
X127069285Y-208612143D01*
X127021666Y-208516905D01*
X127021666Y-208326429D01*
X127069285Y-208231190D01*
X127116904Y-208183571D01*
X127212142Y-208135952D01*
X126259761Y-208183571D02*
X126593095Y-208183571D01*
X126593095Y-208707381D02*
X126593095Y-207707381D01*
X126116904Y-207707381D01*
X117945476Y-208659762D02*
X117802619Y-208707381D01*
X117564523Y-208707381D01*
X117469285Y-208659762D01*
X117421666Y-208612143D01*
X117374047Y-208516905D01*
X117374047Y-208421667D01*
X117421666Y-208326429D01*
X117469285Y-208278810D01*
X117564523Y-208231190D01*
X117755000Y-208183571D01*
X117850238Y-208135952D01*
X117897857Y-208088333D01*
X117945476Y-207993095D01*
X117945476Y-207897857D01*
X117897857Y-207802619D01*
X117850238Y-207755000D01*
X117755000Y-207707381D01*
X117516904Y-207707381D01*
X117374047Y-207755000D01*
X117040714Y-207707381D02*
X116374047Y-207707381D01*
X116802619Y-208707381D01*
X115659761Y-208183571D02*
X115993095Y-208183571D01*
X115993095Y-208707381D02*
X115993095Y-207707381D01*
X115516904Y-207707381D01*
X107345476Y-208659762D02*
X107202619Y-208707381D01*
X106964523Y-208707381D01*
X106869285Y-208659762D01*
X106821666Y-208612143D01*
X106774047Y-208516905D01*
X106774047Y-208421667D01*
X106821666Y-208326429D01*
X106869285Y-208278810D01*
X106964523Y-208231190D01*
X107155000Y-208183571D01*
X107250238Y-208135952D01*
X107297857Y-208088333D01*
X107345476Y-207993095D01*
X107345476Y-207897857D01*
X107297857Y-207802619D01*
X107250238Y-207755000D01*
X107155000Y-207707381D01*
X106916904Y-207707381D01*
X106774047Y-207755000D01*
X105916904Y-207707381D02*
X106107381Y-207707381D01*
X106202619Y-207755000D01*
X106250238Y-207802619D01*
X106345476Y-207945476D01*
X106393095Y-208135952D01*
X106393095Y-208516905D01*
X106345476Y-208612143D01*
X106297857Y-208659762D01*
X106202619Y-208707381D01*
X106012142Y-208707381D01*
X105916904Y-208659762D01*
X105869285Y-208612143D01*
X105821666Y-208516905D01*
X105821666Y-208278810D01*
X105869285Y-208183571D01*
X105916904Y-208135952D01*
X106012142Y-208088333D01*
X106202619Y-208088333D01*
X106297857Y-208135952D01*
X106345476Y-208183571D01*
X106393095Y-208278810D01*
X105059761Y-208183571D02*
X105393095Y-208183571D01*
X105393095Y-208707381D02*
X105393095Y-207707381D01*
X104916904Y-207707381D01*
X96745476Y-208659762D02*
X96602619Y-208707381D01*
X96364523Y-208707381D01*
X96269285Y-208659762D01*
X96221666Y-208612143D01*
X96174047Y-208516905D01*
X96174047Y-208421667D01*
X96221666Y-208326429D01*
X96269285Y-208278810D01*
X96364523Y-208231190D01*
X96555000Y-208183571D01*
X96650238Y-208135952D01*
X96697857Y-208088333D01*
X96745476Y-207993095D01*
X96745476Y-207897857D01*
X96697857Y-207802619D01*
X96650238Y-207755000D01*
X96555000Y-207707381D01*
X96316904Y-207707381D01*
X96174047Y-207755000D01*
X95269285Y-207707381D02*
X95745476Y-207707381D01*
X95793095Y-208183571D01*
X95745476Y-208135952D01*
X95650238Y-208088333D01*
X95412142Y-208088333D01*
X95316904Y-208135952D01*
X95269285Y-208183571D01*
X95221666Y-208278810D01*
X95221666Y-208516905D01*
X95269285Y-208612143D01*
X95316904Y-208659762D01*
X95412142Y-208707381D01*
X95650238Y-208707381D01*
X95745476Y-208659762D01*
X95793095Y-208612143D01*
X94459761Y-208183571D02*
X94793095Y-208183571D01*
X94793095Y-208707381D02*
X94793095Y-207707381D01*
X94316904Y-207707381D01*
X86145476Y-208659762D02*
X86002619Y-208707381D01*
X85764523Y-208707381D01*
X85669285Y-208659762D01*
X85621666Y-208612143D01*
X85574047Y-208516905D01*
X85574047Y-208421667D01*
X85621666Y-208326429D01*
X85669285Y-208278810D01*
X85764523Y-208231190D01*
X85955000Y-208183571D01*
X86050238Y-208135952D01*
X86097857Y-208088333D01*
X86145476Y-207993095D01*
X86145476Y-207897857D01*
X86097857Y-207802619D01*
X86050238Y-207755000D01*
X85955000Y-207707381D01*
X85716904Y-207707381D01*
X85574047Y-207755000D01*
X84716904Y-208040714D02*
X84716904Y-208707381D01*
X84955000Y-207659762D02*
X85193095Y-208374048D01*
X84574047Y-208374048D01*
X83859761Y-208183571D02*
X84193095Y-208183571D01*
X84193095Y-208707381D02*
X84193095Y-207707381D01*
X83716904Y-207707381D01*
X75545476Y-208659762D02*
X75402619Y-208707381D01*
X75164523Y-208707381D01*
X75069285Y-208659762D01*
X75021666Y-208612143D01*
X74974047Y-208516905D01*
X74974047Y-208421667D01*
X75021666Y-208326429D01*
X75069285Y-208278810D01*
X75164523Y-208231190D01*
X75355000Y-208183571D01*
X75450238Y-208135952D01*
X75497857Y-208088333D01*
X75545476Y-207993095D01*
X75545476Y-207897857D01*
X75497857Y-207802619D01*
X75450238Y-207755000D01*
X75355000Y-207707381D01*
X75116904Y-207707381D01*
X74974047Y-207755000D01*
X74640714Y-207707381D02*
X74021666Y-207707381D01*
X74355000Y-208088333D01*
X74212142Y-208088333D01*
X74116904Y-208135952D01*
X74069285Y-208183571D01*
X74021666Y-208278810D01*
X74021666Y-208516905D01*
X74069285Y-208612143D01*
X74116904Y-208659762D01*
X74212142Y-208707381D01*
X74497857Y-208707381D01*
X74593095Y-208659762D01*
X74640714Y-208612143D01*
X73259761Y-208183571D02*
X73593095Y-208183571D01*
X73593095Y-208707381D02*
X73593095Y-207707381D01*
X73116904Y-207707381D01*
X64945476Y-208659762D02*
X64802619Y-208707381D01*
X64564523Y-208707381D01*
X64469285Y-208659762D01*
X64421666Y-208612143D01*
X64374047Y-208516905D01*
X64374047Y-208421667D01*
X64421666Y-208326429D01*
X64469285Y-208278810D01*
X64564523Y-208231190D01*
X64755000Y-208183571D01*
X64850238Y-208135952D01*
X64897857Y-208088333D01*
X64945476Y-207993095D01*
X64945476Y-207897857D01*
X64897857Y-207802619D01*
X64850238Y-207755000D01*
X64755000Y-207707381D01*
X64516904Y-207707381D01*
X64374047Y-207755000D01*
X63993095Y-207802619D02*
X63945476Y-207755000D01*
X63850238Y-207707381D01*
X63612142Y-207707381D01*
X63516904Y-207755000D01*
X63469285Y-207802619D01*
X63421666Y-207897857D01*
X63421666Y-207993095D01*
X63469285Y-208135952D01*
X64040714Y-208707381D01*
X63421666Y-208707381D01*
X62659761Y-208183571D02*
X62993095Y-208183571D01*
X62993095Y-208707381D02*
X62993095Y-207707381D01*
X62516904Y-207707381D01*
X54345476Y-208659762D02*
X54202619Y-208707381D01*
X53964523Y-208707381D01*
X53869285Y-208659762D01*
X53821666Y-208612143D01*
X53774047Y-208516905D01*
X53774047Y-208421667D01*
X53821666Y-208326429D01*
X53869285Y-208278810D01*
X53964523Y-208231190D01*
X54155000Y-208183571D01*
X54250238Y-208135952D01*
X54297857Y-208088333D01*
X54345476Y-207993095D01*
X54345476Y-207897857D01*
X54297857Y-207802619D01*
X54250238Y-207755000D01*
X54155000Y-207707381D01*
X53916904Y-207707381D01*
X53774047Y-207755000D01*
X52821666Y-208707381D02*
X53393095Y-208707381D01*
X53107381Y-208707381D02*
X53107381Y-207707381D01*
X53202619Y-207850238D01*
X53297857Y-207945476D01*
X53393095Y-207993095D01*
X52059761Y-208183571D02*
X52393095Y-208183571D01*
X52393095Y-208707381D02*
X52393095Y-207707381D01*
X51916904Y-207707381D01*
X43745476Y-208659762D02*
X43602619Y-208707381D01*
X43364523Y-208707381D01*
X43269285Y-208659762D01*
X43221666Y-208612143D01*
X43174047Y-208516905D01*
X43174047Y-208421667D01*
X43221666Y-208326429D01*
X43269285Y-208278810D01*
X43364523Y-208231190D01*
X43555000Y-208183571D01*
X43650238Y-208135952D01*
X43697857Y-208088333D01*
X43745476Y-207993095D01*
X43745476Y-207897857D01*
X43697857Y-207802619D01*
X43650238Y-207755000D01*
X43555000Y-207707381D01*
X43316904Y-207707381D01*
X43174047Y-207755000D01*
X42555000Y-207707381D02*
X42459761Y-207707381D01*
X42364523Y-207755000D01*
X42316904Y-207802619D01*
X42269285Y-207897857D01*
X42221666Y-208088333D01*
X42221666Y-208326429D01*
X42269285Y-208516905D01*
X42316904Y-208612143D01*
X42364523Y-208659762D01*
X42459761Y-208707381D01*
X42555000Y-208707381D01*
X42650238Y-208659762D01*
X42697857Y-208612143D01*
X42745476Y-208516905D01*
X42793095Y-208326429D01*
X42793095Y-208088333D01*
X42745476Y-207897857D01*
X42697857Y-207802619D01*
X42650238Y-207755000D01*
X42555000Y-207707381D01*
X41459761Y-208183571D02*
X41793095Y-208183571D01*
X41793095Y-208707381D02*
X41793095Y-207707381D01*
X41316904Y-207707381D01*
X171445476Y-178159762D02*
X171302619Y-178207381D01*
X171064523Y-178207381D01*
X170969285Y-178159762D01*
X170921666Y-178112143D01*
X170874047Y-178016905D01*
X170874047Y-177921667D01*
X170921666Y-177826429D01*
X170969285Y-177778810D01*
X171064523Y-177731190D01*
X171255000Y-177683571D01*
X171350238Y-177635952D01*
X171397857Y-177588333D01*
X171445476Y-177493095D01*
X171445476Y-177397857D01*
X171397857Y-177302619D01*
X171350238Y-177255000D01*
X171255000Y-177207381D01*
X171016904Y-177207381D01*
X170874047Y-177255000D01*
X169921666Y-178207381D02*
X170493095Y-178207381D01*
X170207381Y-178207381D02*
X170207381Y-177207381D01*
X170302619Y-177350238D01*
X170397857Y-177445476D01*
X170493095Y-177493095D01*
X169540714Y-177302619D02*
X169493095Y-177255000D01*
X169397857Y-177207381D01*
X169159761Y-177207381D01*
X169064523Y-177255000D01*
X169016904Y-177302619D01*
X168969285Y-177397857D01*
X168969285Y-177493095D01*
X169016904Y-177635952D01*
X169588333Y-178207381D01*
X168969285Y-178207381D01*
X168540714Y-177683571D02*
X168207380Y-177683571D01*
X168064523Y-178207381D02*
X168540714Y-178207381D01*
X168540714Y-177207381D01*
X168064523Y-177207381D01*
X160845476Y-178159762D02*
X160702619Y-178207381D01*
X160464523Y-178207381D01*
X160369285Y-178159762D01*
X160321666Y-178112143D01*
X160274047Y-178016905D01*
X160274047Y-177921667D01*
X160321666Y-177826429D01*
X160369285Y-177778810D01*
X160464523Y-177731190D01*
X160655000Y-177683571D01*
X160750238Y-177635952D01*
X160797857Y-177588333D01*
X160845476Y-177493095D01*
X160845476Y-177397857D01*
X160797857Y-177302619D01*
X160750238Y-177255000D01*
X160655000Y-177207381D01*
X160416904Y-177207381D01*
X160274047Y-177255000D01*
X159321666Y-178207381D02*
X159893095Y-178207381D01*
X159607381Y-178207381D02*
X159607381Y-177207381D01*
X159702619Y-177350238D01*
X159797857Y-177445476D01*
X159893095Y-177493095D01*
X158369285Y-178207381D02*
X158940714Y-178207381D01*
X158655000Y-178207381D02*
X158655000Y-177207381D01*
X158750238Y-177350238D01*
X158845476Y-177445476D01*
X158940714Y-177493095D01*
X157940714Y-177683571D02*
X157607380Y-177683571D01*
X157464523Y-178207381D02*
X157940714Y-178207381D01*
X157940714Y-177207381D01*
X157464523Y-177207381D01*
X150245476Y-178159762D02*
X150102619Y-178207381D01*
X149864523Y-178207381D01*
X149769285Y-178159762D01*
X149721666Y-178112143D01*
X149674047Y-178016905D01*
X149674047Y-177921667D01*
X149721666Y-177826429D01*
X149769285Y-177778810D01*
X149864523Y-177731190D01*
X150055000Y-177683571D01*
X150150238Y-177635952D01*
X150197857Y-177588333D01*
X150245476Y-177493095D01*
X150245476Y-177397857D01*
X150197857Y-177302619D01*
X150150238Y-177255000D01*
X150055000Y-177207381D01*
X149816904Y-177207381D01*
X149674047Y-177255000D01*
X148721666Y-178207381D02*
X149293095Y-178207381D01*
X149007381Y-178207381D02*
X149007381Y-177207381D01*
X149102619Y-177350238D01*
X149197857Y-177445476D01*
X149293095Y-177493095D01*
X148102619Y-177207381D02*
X148007380Y-177207381D01*
X147912142Y-177255000D01*
X147864523Y-177302619D01*
X147816904Y-177397857D01*
X147769285Y-177588333D01*
X147769285Y-177826429D01*
X147816904Y-178016905D01*
X147864523Y-178112143D01*
X147912142Y-178159762D01*
X148007380Y-178207381D01*
X148102619Y-178207381D01*
X148197857Y-178159762D01*
X148245476Y-178112143D01*
X148293095Y-178016905D01*
X148340714Y-177826429D01*
X148340714Y-177588333D01*
X148293095Y-177397857D01*
X148245476Y-177302619D01*
X148197857Y-177255000D01*
X148102619Y-177207381D01*
X147340714Y-177683571D02*
X147007380Y-177683571D01*
X146864523Y-178207381D02*
X147340714Y-178207381D01*
X147340714Y-177207381D01*
X146864523Y-177207381D01*
X139169286Y-178159762D02*
X139026429Y-178207381D01*
X138788333Y-178207381D01*
X138693095Y-178159762D01*
X138645476Y-178112143D01*
X138597857Y-178016905D01*
X138597857Y-177921667D01*
X138645476Y-177826429D01*
X138693095Y-177778810D01*
X138788333Y-177731190D01*
X138978810Y-177683571D01*
X139074048Y-177635952D01*
X139121667Y-177588333D01*
X139169286Y-177493095D01*
X139169286Y-177397857D01*
X139121667Y-177302619D01*
X139074048Y-177255000D01*
X138978810Y-177207381D01*
X138740714Y-177207381D01*
X138597857Y-177255000D01*
X138121667Y-178207381D02*
X137931191Y-178207381D01*
X137835952Y-178159762D01*
X137788333Y-178112143D01*
X137693095Y-177969286D01*
X137645476Y-177778810D01*
X137645476Y-177397857D01*
X137693095Y-177302619D01*
X137740714Y-177255000D01*
X137835952Y-177207381D01*
X138026429Y-177207381D01*
X138121667Y-177255000D01*
X138169286Y-177302619D01*
X138216905Y-177397857D01*
X138216905Y-177635952D01*
X138169286Y-177731190D01*
X138121667Y-177778810D01*
X138026429Y-177826429D01*
X137835952Y-177826429D01*
X137740714Y-177778810D01*
X137693095Y-177731190D01*
X137645476Y-177635952D01*
X137216905Y-177683571D02*
X136883571Y-177683571D01*
X136740714Y-178207381D02*
X137216905Y-178207381D01*
X137216905Y-177207381D01*
X136740714Y-177207381D01*
X128569286Y-178159762D02*
X128426429Y-178207381D01*
X128188333Y-178207381D01*
X128093095Y-178159762D01*
X128045476Y-178112143D01*
X127997857Y-178016905D01*
X127997857Y-177921667D01*
X128045476Y-177826429D01*
X128093095Y-177778810D01*
X128188333Y-177731190D01*
X128378810Y-177683571D01*
X128474048Y-177635952D01*
X128521667Y-177588333D01*
X128569286Y-177493095D01*
X128569286Y-177397857D01*
X128521667Y-177302619D01*
X128474048Y-177255000D01*
X128378810Y-177207381D01*
X128140714Y-177207381D01*
X127997857Y-177255000D01*
X127426429Y-177635952D02*
X127521667Y-177588333D01*
X127569286Y-177540714D01*
X127616905Y-177445476D01*
X127616905Y-177397857D01*
X127569286Y-177302619D01*
X127521667Y-177255000D01*
X127426429Y-177207381D01*
X127235952Y-177207381D01*
X127140714Y-177255000D01*
X127093095Y-177302619D01*
X127045476Y-177397857D01*
X127045476Y-177445476D01*
X127093095Y-177540714D01*
X127140714Y-177588333D01*
X127235952Y-177635952D01*
X127426429Y-177635952D01*
X127521667Y-177683571D01*
X127569286Y-177731190D01*
X127616905Y-177826429D01*
X127616905Y-178016905D01*
X127569286Y-178112143D01*
X127521667Y-178159762D01*
X127426429Y-178207381D01*
X127235952Y-178207381D01*
X127140714Y-178159762D01*
X127093095Y-178112143D01*
X127045476Y-178016905D01*
X127045476Y-177826429D01*
X127093095Y-177731190D01*
X127140714Y-177683571D01*
X127235952Y-177635952D01*
X126616905Y-177683571D02*
X126283571Y-177683571D01*
X126140714Y-178207381D02*
X126616905Y-178207381D01*
X126616905Y-177207381D01*
X126140714Y-177207381D01*
X117969286Y-178159762D02*
X117826429Y-178207381D01*
X117588333Y-178207381D01*
X117493095Y-178159762D01*
X117445476Y-178112143D01*
X117397857Y-178016905D01*
X117397857Y-177921667D01*
X117445476Y-177826429D01*
X117493095Y-177778810D01*
X117588333Y-177731190D01*
X117778810Y-177683571D01*
X117874048Y-177635952D01*
X117921667Y-177588333D01*
X117969286Y-177493095D01*
X117969286Y-177397857D01*
X117921667Y-177302619D01*
X117874048Y-177255000D01*
X117778810Y-177207381D01*
X117540714Y-177207381D01*
X117397857Y-177255000D01*
X117064524Y-177207381D02*
X116397857Y-177207381D01*
X116826429Y-178207381D01*
X116016905Y-177683571D02*
X115683571Y-177683571D01*
X115540714Y-178207381D02*
X116016905Y-178207381D01*
X116016905Y-177207381D01*
X115540714Y-177207381D01*
X107369286Y-178159762D02*
X107226429Y-178207381D01*
X106988333Y-178207381D01*
X106893095Y-178159762D01*
X106845476Y-178112143D01*
X106797857Y-178016905D01*
X106797857Y-177921667D01*
X106845476Y-177826429D01*
X106893095Y-177778810D01*
X106988333Y-177731190D01*
X107178810Y-177683571D01*
X107274048Y-177635952D01*
X107321667Y-177588333D01*
X107369286Y-177493095D01*
X107369286Y-177397857D01*
X107321667Y-177302619D01*
X107274048Y-177255000D01*
X107178810Y-177207381D01*
X106940714Y-177207381D01*
X106797857Y-177255000D01*
X105940714Y-177207381D02*
X106131191Y-177207381D01*
X106226429Y-177255000D01*
X106274048Y-177302619D01*
X106369286Y-177445476D01*
X106416905Y-177635952D01*
X106416905Y-178016905D01*
X106369286Y-178112143D01*
X106321667Y-178159762D01*
X106226429Y-178207381D01*
X106035952Y-178207381D01*
X105940714Y-178159762D01*
X105893095Y-178112143D01*
X105845476Y-178016905D01*
X105845476Y-177778810D01*
X105893095Y-177683571D01*
X105940714Y-177635952D01*
X106035952Y-177588333D01*
X106226429Y-177588333D01*
X106321667Y-177635952D01*
X106369286Y-177683571D01*
X106416905Y-177778810D01*
X105416905Y-177683571D02*
X105083571Y-177683571D01*
X104940714Y-178207381D02*
X105416905Y-178207381D01*
X105416905Y-177207381D01*
X104940714Y-177207381D01*
X96769286Y-178159762D02*
X96626429Y-178207381D01*
X96388333Y-178207381D01*
X96293095Y-178159762D01*
X96245476Y-178112143D01*
X96197857Y-178016905D01*
X96197857Y-177921667D01*
X96245476Y-177826429D01*
X96293095Y-177778810D01*
X96388333Y-177731190D01*
X96578810Y-177683571D01*
X96674048Y-177635952D01*
X96721667Y-177588333D01*
X96769286Y-177493095D01*
X96769286Y-177397857D01*
X96721667Y-177302619D01*
X96674048Y-177255000D01*
X96578810Y-177207381D01*
X96340714Y-177207381D01*
X96197857Y-177255000D01*
X95293095Y-177207381D02*
X95769286Y-177207381D01*
X95816905Y-177683571D01*
X95769286Y-177635952D01*
X95674048Y-177588333D01*
X95435952Y-177588333D01*
X95340714Y-177635952D01*
X95293095Y-177683571D01*
X95245476Y-177778810D01*
X95245476Y-178016905D01*
X95293095Y-178112143D01*
X95340714Y-178159762D01*
X95435952Y-178207381D01*
X95674048Y-178207381D01*
X95769286Y-178159762D01*
X95816905Y-178112143D01*
X94816905Y-177683571D02*
X94483571Y-177683571D01*
X94340714Y-178207381D02*
X94816905Y-178207381D01*
X94816905Y-177207381D01*
X94340714Y-177207381D01*
X86169286Y-178159762D02*
X86026429Y-178207381D01*
X85788333Y-178207381D01*
X85693095Y-178159762D01*
X85645476Y-178112143D01*
X85597857Y-178016905D01*
X85597857Y-177921667D01*
X85645476Y-177826429D01*
X85693095Y-177778810D01*
X85788333Y-177731190D01*
X85978810Y-177683571D01*
X86074048Y-177635952D01*
X86121667Y-177588333D01*
X86169286Y-177493095D01*
X86169286Y-177397857D01*
X86121667Y-177302619D01*
X86074048Y-177255000D01*
X85978810Y-177207381D01*
X85740714Y-177207381D01*
X85597857Y-177255000D01*
X84740714Y-177540714D02*
X84740714Y-178207381D01*
X84978810Y-177159762D02*
X85216905Y-177874048D01*
X84597857Y-177874048D01*
X84216905Y-177683571D02*
X83883571Y-177683571D01*
X83740714Y-178207381D02*
X84216905Y-178207381D01*
X84216905Y-177207381D01*
X83740714Y-177207381D01*
X75569286Y-178159762D02*
X75426429Y-178207381D01*
X75188333Y-178207381D01*
X75093095Y-178159762D01*
X75045476Y-178112143D01*
X74997857Y-178016905D01*
X74997857Y-177921667D01*
X75045476Y-177826429D01*
X75093095Y-177778810D01*
X75188333Y-177731190D01*
X75378810Y-177683571D01*
X75474048Y-177635952D01*
X75521667Y-177588333D01*
X75569286Y-177493095D01*
X75569286Y-177397857D01*
X75521667Y-177302619D01*
X75474048Y-177255000D01*
X75378810Y-177207381D01*
X75140714Y-177207381D01*
X74997857Y-177255000D01*
X74664524Y-177207381D02*
X74045476Y-177207381D01*
X74378810Y-177588333D01*
X74235952Y-177588333D01*
X74140714Y-177635952D01*
X74093095Y-177683571D01*
X74045476Y-177778810D01*
X74045476Y-178016905D01*
X74093095Y-178112143D01*
X74140714Y-178159762D01*
X74235952Y-178207381D01*
X74521667Y-178207381D01*
X74616905Y-178159762D01*
X74664524Y-178112143D01*
X73616905Y-177683571D02*
X73283571Y-177683571D01*
X73140714Y-178207381D02*
X73616905Y-178207381D01*
X73616905Y-177207381D01*
X73140714Y-177207381D01*
X64969286Y-178159762D02*
X64826429Y-178207381D01*
X64588333Y-178207381D01*
X64493095Y-178159762D01*
X64445476Y-178112143D01*
X64397857Y-178016905D01*
X64397857Y-177921667D01*
X64445476Y-177826429D01*
X64493095Y-177778810D01*
X64588333Y-177731190D01*
X64778810Y-177683571D01*
X64874048Y-177635952D01*
X64921667Y-177588333D01*
X64969286Y-177493095D01*
X64969286Y-177397857D01*
X64921667Y-177302619D01*
X64874048Y-177255000D01*
X64778810Y-177207381D01*
X64540714Y-177207381D01*
X64397857Y-177255000D01*
X64016905Y-177302619D02*
X63969286Y-177255000D01*
X63874048Y-177207381D01*
X63635952Y-177207381D01*
X63540714Y-177255000D01*
X63493095Y-177302619D01*
X63445476Y-177397857D01*
X63445476Y-177493095D01*
X63493095Y-177635952D01*
X64064524Y-178207381D01*
X63445476Y-178207381D01*
X63016905Y-177683571D02*
X62683571Y-177683571D01*
X62540714Y-178207381D02*
X63016905Y-178207381D01*
X63016905Y-177207381D01*
X62540714Y-177207381D01*
X54369286Y-178159762D02*
X54226429Y-178207381D01*
X53988333Y-178207381D01*
X53893095Y-178159762D01*
X53845476Y-178112143D01*
X53797857Y-178016905D01*
X53797857Y-177921667D01*
X53845476Y-177826429D01*
X53893095Y-177778810D01*
X53988333Y-177731190D01*
X54178810Y-177683571D01*
X54274048Y-177635952D01*
X54321667Y-177588333D01*
X54369286Y-177493095D01*
X54369286Y-177397857D01*
X54321667Y-177302619D01*
X54274048Y-177255000D01*
X54178810Y-177207381D01*
X53940714Y-177207381D01*
X53797857Y-177255000D01*
X52845476Y-178207381D02*
X53416905Y-178207381D01*
X53131191Y-178207381D02*
X53131191Y-177207381D01*
X53226429Y-177350238D01*
X53321667Y-177445476D01*
X53416905Y-177493095D01*
X52416905Y-177683571D02*
X52083571Y-177683571D01*
X51940714Y-178207381D02*
X52416905Y-178207381D01*
X52416905Y-177207381D01*
X51940714Y-177207381D01*
X43769286Y-178159762D02*
X43626429Y-178207381D01*
X43388333Y-178207381D01*
X43293095Y-178159762D01*
X43245476Y-178112143D01*
X43197857Y-178016905D01*
X43197857Y-177921667D01*
X43245476Y-177826429D01*
X43293095Y-177778810D01*
X43388333Y-177731190D01*
X43578810Y-177683571D01*
X43674048Y-177635952D01*
X43721667Y-177588333D01*
X43769286Y-177493095D01*
X43769286Y-177397857D01*
X43721667Y-177302619D01*
X43674048Y-177255000D01*
X43578810Y-177207381D01*
X43340714Y-177207381D01*
X43197857Y-177255000D01*
X42578810Y-177207381D02*
X42483571Y-177207381D01*
X42388333Y-177255000D01*
X42340714Y-177302619D01*
X42293095Y-177397857D01*
X42245476Y-177588333D01*
X42245476Y-177826429D01*
X42293095Y-178016905D01*
X42340714Y-178112143D01*
X42388333Y-178159762D01*
X42483571Y-178207381D01*
X42578810Y-178207381D01*
X42674048Y-178159762D01*
X42721667Y-178112143D01*
X42769286Y-178016905D01*
X42816905Y-177826429D01*
X42816905Y-177588333D01*
X42769286Y-177397857D01*
X42721667Y-177302619D01*
X42674048Y-177255000D01*
X42578810Y-177207381D01*
X41816905Y-177683571D02*
X41483571Y-177683571D01*
X41340714Y-178207381D02*
X41816905Y-178207381D01*
X41816905Y-177207381D01*
X41340714Y-177207381D01*
X171493095Y-147659762D02*
X171350238Y-147707381D01*
X171112142Y-147707381D01*
X171016904Y-147659762D01*
X170969285Y-147612143D01*
X170921666Y-147516905D01*
X170921666Y-147421667D01*
X170969285Y-147326429D01*
X171016904Y-147278810D01*
X171112142Y-147231190D01*
X171302619Y-147183571D01*
X171397857Y-147135952D01*
X171445476Y-147088333D01*
X171493095Y-146993095D01*
X171493095Y-146897857D01*
X171445476Y-146802619D01*
X171397857Y-146755000D01*
X171302619Y-146707381D01*
X171064523Y-146707381D01*
X170921666Y-146755000D01*
X169969285Y-147707381D02*
X170540714Y-147707381D01*
X170255000Y-147707381D02*
X170255000Y-146707381D01*
X170350238Y-146850238D01*
X170445476Y-146945476D01*
X170540714Y-146993095D01*
X169588333Y-146802619D02*
X169540714Y-146755000D01*
X169445476Y-146707381D01*
X169207380Y-146707381D01*
X169112142Y-146755000D01*
X169064523Y-146802619D01*
X169016904Y-146897857D01*
X169016904Y-146993095D01*
X169064523Y-147135952D01*
X169635952Y-147707381D01*
X169016904Y-147707381D01*
X168588333Y-147707381D02*
X168588333Y-146707381D01*
X168350238Y-146707381D01*
X168207380Y-146755000D01*
X168112142Y-146850238D01*
X168064523Y-146945476D01*
X168016904Y-147135952D01*
X168016904Y-147278810D01*
X168064523Y-147469286D01*
X168112142Y-147564524D01*
X168207380Y-147659762D01*
X168350238Y-147707381D01*
X168588333Y-147707381D01*
X160893095Y-147659762D02*
X160750238Y-147707381D01*
X160512142Y-147707381D01*
X160416904Y-147659762D01*
X160369285Y-147612143D01*
X160321666Y-147516905D01*
X160321666Y-147421667D01*
X160369285Y-147326429D01*
X160416904Y-147278810D01*
X160512142Y-147231190D01*
X160702619Y-147183571D01*
X160797857Y-147135952D01*
X160845476Y-147088333D01*
X160893095Y-146993095D01*
X160893095Y-146897857D01*
X160845476Y-146802619D01*
X160797857Y-146755000D01*
X160702619Y-146707381D01*
X160464523Y-146707381D01*
X160321666Y-146755000D01*
X159369285Y-147707381D02*
X159940714Y-147707381D01*
X159655000Y-147707381D02*
X159655000Y-146707381D01*
X159750238Y-146850238D01*
X159845476Y-146945476D01*
X159940714Y-146993095D01*
X158416904Y-147707381D02*
X158988333Y-147707381D01*
X158702619Y-147707381D02*
X158702619Y-146707381D01*
X158797857Y-146850238D01*
X158893095Y-146945476D01*
X158988333Y-146993095D01*
X157988333Y-147707381D02*
X157988333Y-146707381D01*
X157750238Y-146707381D01*
X157607380Y-146755000D01*
X157512142Y-146850238D01*
X157464523Y-146945476D01*
X157416904Y-147135952D01*
X157416904Y-147278810D01*
X157464523Y-147469286D01*
X157512142Y-147564524D01*
X157607380Y-147659762D01*
X157750238Y-147707381D01*
X157988333Y-147707381D01*
X150293095Y-147659762D02*
X150150238Y-147707381D01*
X149912142Y-147707381D01*
X149816904Y-147659762D01*
X149769285Y-147612143D01*
X149721666Y-147516905D01*
X149721666Y-147421667D01*
X149769285Y-147326429D01*
X149816904Y-147278810D01*
X149912142Y-147231190D01*
X150102619Y-147183571D01*
X150197857Y-147135952D01*
X150245476Y-147088333D01*
X150293095Y-146993095D01*
X150293095Y-146897857D01*
X150245476Y-146802619D01*
X150197857Y-146755000D01*
X150102619Y-146707381D01*
X149864523Y-146707381D01*
X149721666Y-146755000D01*
X148769285Y-147707381D02*
X149340714Y-147707381D01*
X149055000Y-147707381D02*
X149055000Y-146707381D01*
X149150238Y-146850238D01*
X149245476Y-146945476D01*
X149340714Y-146993095D01*
X148150238Y-146707381D02*
X148054999Y-146707381D01*
X147959761Y-146755000D01*
X147912142Y-146802619D01*
X147864523Y-146897857D01*
X147816904Y-147088333D01*
X147816904Y-147326429D01*
X147864523Y-147516905D01*
X147912142Y-147612143D01*
X147959761Y-147659762D01*
X148054999Y-147707381D01*
X148150238Y-147707381D01*
X148245476Y-147659762D01*
X148293095Y-147612143D01*
X148340714Y-147516905D01*
X148388333Y-147326429D01*
X148388333Y-147088333D01*
X148340714Y-146897857D01*
X148293095Y-146802619D01*
X148245476Y-146755000D01*
X148150238Y-146707381D01*
X147388333Y-147707381D02*
X147388333Y-146707381D01*
X147150238Y-146707381D01*
X147007380Y-146755000D01*
X146912142Y-146850238D01*
X146864523Y-146945476D01*
X146816904Y-147135952D01*
X146816904Y-147278810D01*
X146864523Y-147469286D01*
X146912142Y-147564524D01*
X147007380Y-147659762D01*
X147150238Y-147707381D01*
X147388333Y-147707381D01*
X139216905Y-147659762D02*
X139074048Y-147707381D01*
X138835952Y-147707381D01*
X138740714Y-147659762D01*
X138693095Y-147612143D01*
X138645476Y-147516905D01*
X138645476Y-147421667D01*
X138693095Y-147326429D01*
X138740714Y-147278810D01*
X138835952Y-147231190D01*
X139026429Y-147183571D01*
X139121667Y-147135952D01*
X139169286Y-147088333D01*
X139216905Y-146993095D01*
X139216905Y-146897857D01*
X139169286Y-146802619D01*
X139121667Y-146755000D01*
X139026429Y-146707381D01*
X138788333Y-146707381D01*
X138645476Y-146755000D01*
X138169286Y-147707381D02*
X137978810Y-147707381D01*
X137883571Y-147659762D01*
X137835952Y-147612143D01*
X137740714Y-147469286D01*
X137693095Y-147278810D01*
X137693095Y-146897857D01*
X137740714Y-146802619D01*
X137788333Y-146755000D01*
X137883571Y-146707381D01*
X138074048Y-146707381D01*
X138169286Y-146755000D01*
X138216905Y-146802619D01*
X138264524Y-146897857D01*
X138264524Y-147135952D01*
X138216905Y-147231190D01*
X138169286Y-147278810D01*
X138074048Y-147326429D01*
X137883571Y-147326429D01*
X137788333Y-147278810D01*
X137740714Y-147231190D01*
X137693095Y-147135952D01*
X137264524Y-147707381D02*
X137264524Y-146707381D01*
X137026429Y-146707381D01*
X136883571Y-146755000D01*
X136788333Y-146850238D01*
X136740714Y-146945476D01*
X136693095Y-147135952D01*
X136693095Y-147278810D01*
X136740714Y-147469286D01*
X136788333Y-147564524D01*
X136883571Y-147659762D01*
X137026429Y-147707381D01*
X137264524Y-147707381D01*
X128616905Y-147659762D02*
X128474048Y-147707381D01*
X128235952Y-147707381D01*
X128140714Y-147659762D01*
X128093095Y-147612143D01*
X128045476Y-147516905D01*
X128045476Y-147421667D01*
X128093095Y-147326429D01*
X128140714Y-147278810D01*
X128235952Y-147231190D01*
X128426429Y-147183571D01*
X128521667Y-147135952D01*
X128569286Y-147088333D01*
X128616905Y-146993095D01*
X128616905Y-146897857D01*
X128569286Y-146802619D01*
X128521667Y-146755000D01*
X128426429Y-146707381D01*
X128188333Y-146707381D01*
X128045476Y-146755000D01*
X127474048Y-147135952D02*
X127569286Y-147088333D01*
X127616905Y-147040714D01*
X127664524Y-146945476D01*
X127664524Y-146897857D01*
X127616905Y-146802619D01*
X127569286Y-146755000D01*
X127474048Y-146707381D01*
X127283571Y-146707381D01*
X127188333Y-146755000D01*
X127140714Y-146802619D01*
X127093095Y-146897857D01*
X127093095Y-146945476D01*
X127140714Y-147040714D01*
X127188333Y-147088333D01*
X127283571Y-147135952D01*
X127474048Y-147135952D01*
X127569286Y-147183571D01*
X127616905Y-147231190D01*
X127664524Y-147326429D01*
X127664524Y-147516905D01*
X127616905Y-147612143D01*
X127569286Y-147659762D01*
X127474048Y-147707381D01*
X127283571Y-147707381D01*
X127188333Y-147659762D01*
X127140714Y-147612143D01*
X127093095Y-147516905D01*
X127093095Y-147326429D01*
X127140714Y-147231190D01*
X127188333Y-147183571D01*
X127283571Y-147135952D01*
X126664524Y-147707381D02*
X126664524Y-146707381D01*
X126426429Y-146707381D01*
X126283571Y-146755000D01*
X126188333Y-146850238D01*
X126140714Y-146945476D01*
X126093095Y-147135952D01*
X126093095Y-147278810D01*
X126140714Y-147469286D01*
X126188333Y-147564524D01*
X126283571Y-147659762D01*
X126426429Y-147707381D01*
X126664524Y-147707381D01*
X118016905Y-147659762D02*
X117874048Y-147707381D01*
X117635952Y-147707381D01*
X117540714Y-147659762D01*
X117493095Y-147612143D01*
X117445476Y-147516905D01*
X117445476Y-147421667D01*
X117493095Y-147326429D01*
X117540714Y-147278810D01*
X117635952Y-147231190D01*
X117826429Y-147183571D01*
X117921667Y-147135952D01*
X117969286Y-147088333D01*
X118016905Y-146993095D01*
X118016905Y-146897857D01*
X117969286Y-146802619D01*
X117921667Y-146755000D01*
X117826429Y-146707381D01*
X117588333Y-146707381D01*
X117445476Y-146755000D01*
X117112143Y-146707381D02*
X116445476Y-146707381D01*
X116874048Y-147707381D01*
X116064524Y-147707381D02*
X116064524Y-146707381D01*
X115826429Y-146707381D01*
X115683571Y-146755000D01*
X115588333Y-146850238D01*
X115540714Y-146945476D01*
X115493095Y-147135952D01*
X115493095Y-147278810D01*
X115540714Y-147469286D01*
X115588333Y-147564524D01*
X115683571Y-147659762D01*
X115826429Y-147707381D01*
X116064524Y-147707381D01*
X107416905Y-147659762D02*
X107274048Y-147707381D01*
X107035952Y-147707381D01*
X106940714Y-147659762D01*
X106893095Y-147612143D01*
X106845476Y-147516905D01*
X106845476Y-147421667D01*
X106893095Y-147326429D01*
X106940714Y-147278810D01*
X107035952Y-147231190D01*
X107226429Y-147183571D01*
X107321667Y-147135952D01*
X107369286Y-147088333D01*
X107416905Y-146993095D01*
X107416905Y-146897857D01*
X107369286Y-146802619D01*
X107321667Y-146755000D01*
X107226429Y-146707381D01*
X106988333Y-146707381D01*
X106845476Y-146755000D01*
X105988333Y-146707381D02*
X106178810Y-146707381D01*
X106274048Y-146755000D01*
X106321667Y-146802619D01*
X106416905Y-146945476D01*
X106464524Y-147135952D01*
X106464524Y-147516905D01*
X106416905Y-147612143D01*
X106369286Y-147659762D01*
X106274048Y-147707381D01*
X106083571Y-147707381D01*
X105988333Y-147659762D01*
X105940714Y-147612143D01*
X105893095Y-147516905D01*
X105893095Y-147278810D01*
X105940714Y-147183571D01*
X105988333Y-147135952D01*
X106083571Y-147088333D01*
X106274048Y-147088333D01*
X106369286Y-147135952D01*
X106416905Y-147183571D01*
X106464524Y-147278810D01*
X105464524Y-147707381D02*
X105464524Y-146707381D01*
X105226429Y-146707381D01*
X105083571Y-146755000D01*
X104988333Y-146850238D01*
X104940714Y-146945476D01*
X104893095Y-147135952D01*
X104893095Y-147278810D01*
X104940714Y-147469286D01*
X104988333Y-147564524D01*
X105083571Y-147659762D01*
X105226429Y-147707381D01*
X105464524Y-147707381D01*
X96816905Y-147659762D02*
X96674048Y-147707381D01*
X96435952Y-147707381D01*
X96340714Y-147659762D01*
X96293095Y-147612143D01*
X96245476Y-147516905D01*
X96245476Y-147421667D01*
X96293095Y-147326429D01*
X96340714Y-147278810D01*
X96435952Y-147231190D01*
X96626429Y-147183571D01*
X96721667Y-147135952D01*
X96769286Y-147088333D01*
X96816905Y-146993095D01*
X96816905Y-146897857D01*
X96769286Y-146802619D01*
X96721667Y-146755000D01*
X96626429Y-146707381D01*
X96388333Y-146707381D01*
X96245476Y-146755000D01*
X95340714Y-146707381D02*
X95816905Y-146707381D01*
X95864524Y-147183571D01*
X95816905Y-147135952D01*
X95721667Y-147088333D01*
X95483571Y-147088333D01*
X95388333Y-147135952D01*
X95340714Y-147183571D01*
X95293095Y-147278810D01*
X95293095Y-147516905D01*
X95340714Y-147612143D01*
X95388333Y-147659762D01*
X95483571Y-147707381D01*
X95721667Y-147707381D01*
X95816905Y-147659762D01*
X95864524Y-147612143D01*
X94864524Y-147707381D02*
X94864524Y-146707381D01*
X94626429Y-146707381D01*
X94483571Y-146755000D01*
X94388333Y-146850238D01*
X94340714Y-146945476D01*
X94293095Y-147135952D01*
X94293095Y-147278810D01*
X94340714Y-147469286D01*
X94388333Y-147564524D01*
X94483571Y-147659762D01*
X94626429Y-147707381D01*
X94864524Y-147707381D01*
X86216905Y-147659762D02*
X86074048Y-147707381D01*
X85835952Y-147707381D01*
X85740714Y-147659762D01*
X85693095Y-147612143D01*
X85645476Y-147516905D01*
X85645476Y-147421667D01*
X85693095Y-147326429D01*
X85740714Y-147278810D01*
X85835952Y-147231190D01*
X86026429Y-147183571D01*
X86121667Y-147135952D01*
X86169286Y-147088333D01*
X86216905Y-146993095D01*
X86216905Y-146897857D01*
X86169286Y-146802619D01*
X86121667Y-146755000D01*
X86026429Y-146707381D01*
X85788333Y-146707381D01*
X85645476Y-146755000D01*
X84788333Y-147040714D02*
X84788333Y-147707381D01*
X85026429Y-146659762D02*
X85264524Y-147374048D01*
X84645476Y-147374048D01*
X84264524Y-147707381D02*
X84264524Y-146707381D01*
X84026429Y-146707381D01*
X83883571Y-146755000D01*
X83788333Y-146850238D01*
X83740714Y-146945476D01*
X83693095Y-147135952D01*
X83693095Y-147278810D01*
X83740714Y-147469286D01*
X83788333Y-147564524D01*
X83883571Y-147659762D01*
X84026429Y-147707381D01*
X84264524Y-147707381D01*
X75616905Y-147659762D02*
X75474048Y-147707381D01*
X75235952Y-147707381D01*
X75140714Y-147659762D01*
X75093095Y-147612143D01*
X75045476Y-147516905D01*
X75045476Y-147421667D01*
X75093095Y-147326429D01*
X75140714Y-147278810D01*
X75235952Y-147231190D01*
X75426429Y-147183571D01*
X75521667Y-147135952D01*
X75569286Y-147088333D01*
X75616905Y-146993095D01*
X75616905Y-146897857D01*
X75569286Y-146802619D01*
X75521667Y-146755000D01*
X75426429Y-146707381D01*
X75188333Y-146707381D01*
X75045476Y-146755000D01*
X74712143Y-146707381D02*
X74093095Y-146707381D01*
X74426429Y-147088333D01*
X74283571Y-147088333D01*
X74188333Y-147135952D01*
X74140714Y-147183571D01*
X74093095Y-147278810D01*
X74093095Y-147516905D01*
X74140714Y-147612143D01*
X74188333Y-147659762D01*
X74283571Y-147707381D01*
X74569286Y-147707381D01*
X74664524Y-147659762D01*
X74712143Y-147612143D01*
X73664524Y-147707381D02*
X73664524Y-146707381D01*
X73426429Y-146707381D01*
X73283571Y-146755000D01*
X73188333Y-146850238D01*
X73140714Y-146945476D01*
X73093095Y-147135952D01*
X73093095Y-147278810D01*
X73140714Y-147469286D01*
X73188333Y-147564524D01*
X73283571Y-147659762D01*
X73426429Y-147707381D01*
X73664524Y-147707381D01*
X65016905Y-147659762D02*
X64874048Y-147707381D01*
X64635952Y-147707381D01*
X64540714Y-147659762D01*
X64493095Y-147612143D01*
X64445476Y-147516905D01*
X64445476Y-147421667D01*
X64493095Y-147326429D01*
X64540714Y-147278810D01*
X64635952Y-147231190D01*
X64826429Y-147183571D01*
X64921667Y-147135952D01*
X64969286Y-147088333D01*
X65016905Y-146993095D01*
X65016905Y-146897857D01*
X64969286Y-146802619D01*
X64921667Y-146755000D01*
X64826429Y-146707381D01*
X64588333Y-146707381D01*
X64445476Y-146755000D01*
X64064524Y-146802619D02*
X64016905Y-146755000D01*
X63921667Y-146707381D01*
X63683571Y-146707381D01*
X63588333Y-146755000D01*
X63540714Y-146802619D01*
X63493095Y-146897857D01*
X63493095Y-146993095D01*
X63540714Y-147135952D01*
X64112143Y-147707381D01*
X63493095Y-147707381D01*
X63064524Y-147707381D02*
X63064524Y-146707381D01*
X62826429Y-146707381D01*
X62683571Y-146755000D01*
X62588333Y-146850238D01*
X62540714Y-146945476D01*
X62493095Y-147135952D01*
X62493095Y-147278810D01*
X62540714Y-147469286D01*
X62588333Y-147564524D01*
X62683571Y-147659762D01*
X62826429Y-147707381D01*
X63064524Y-147707381D01*
X54416905Y-147659762D02*
X54274048Y-147707381D01*
X54035952Y-147707381D01*
X53940714Y-147659762D01*
X53893095Y-147612143D01*
X53845476Y-147516905D01*
X53845476Y-147421667D01*
X53893095Y-147326429D01*
X53940714Y-147278810D01*
X54035952Y-147231190D01*
X54226429Y-147183571D01*
X54321667Y-147135952D01*
X54369286Y-147088333D01*
X54416905Y-146993095D01*
X54416905Y-146897857D01*
X54369286Y-146802619D01*
X54321667Y-146755000D01*
X54226429Y-146707381D01*
X53988333Y-146707381D01*
X53845476Y-146755000D01*
X52893095Y-147707381D02*
X53464524Y-147707381D01*
X53178810Y-147707381D02*
X53178810Y-146707381D01*
X53274048Y-146850238D01*
X53369286Y-146945476D01*
X53464524Y-146993095D01*
X52464524Y-147707381D02*
X52464524Y-146707381D01*
X52226429Y-146707381D01*
X52083571Y-146755000D01*
X51988333Y-146850238D01*
X51940714Y-146945476D01*
X51893095Y-147135952D01*
X51893095Y-147278810D01*
X51940714Y-147469286D01*
X51988333Y-147564524D01*
X52083571Y-147659762D01*
X52226429Y-147707381D01*
X52464524Y-147707381D01*
X43816905Y-147659762D02*
X43674048Y-147707381D01*
X43435952Y-147707381D01*
X43340714Y-147659762D01*
X43293095Y-147612143D01*
X43245476Y-147516905D01*
X43245476Y-147421667D01*
X43293095Y-147326429D01*
X43340714Y-147278810D01*
X43435952Y-147231190D01*
X43626429Y-147183571D01*
X43721667Y-147135952D01*
X43769286Y-147088333D01*
X43816905Y-146993095D01*
X43816905Y-146897857D01*
X43769286Y-146802619D01*
X43721667Y-146755000D01*
X43626429Y-146707381D01*
X43388333Y-146707381D01*
X43245476Y-146755000D01*
X42626429Y-146707381D02*
X42531190Y-146707381D01*
X42435952Y-146755000D01*
X42388333Y-146802619D01*
X42340714Y-146897857D01*
X42293095Y-147088333D01*
X42293095Y-147326429D01*
X42340714Y-147516905D01*
X42388333Y-147612143D01*
X42435952Y-147659762D01*
X42531190Y-147707381D01*
X42626429Y-147707381D01*
X42721667Y-147659762D01*
X42769286Y-147612143D01*
X42816905Y-147516905D01*
X42864524Y-147326429D01*
X42864524Y-147088333D01*
X42816905Y-146897857D01*
X42769286Y-146802619D01*
X42721667Y-146755000D01*
X42626429Y-146707381D01*
X41864524Y-147707381D02*
X41864524Y-146707381D01*
X41626429Y-146707381D01*
X41483571Y-146755000D01*
X41388333Y-146850238D01*
X41340714Y-146945476D01*
X41293095Y-147135952D01*
X41293095Y-147278810D01*
X41340714Y-147469286D01*
X41388333Y-147564524D01*
X41483571Y-147659762D01*
X41626429Y-147707381D01*
X41864524Y-147707381D01*
X171493095Y-117159762D02*
X171350238Y-117207381D01*
X171112142Y-117207381D01*
X171016904Y-117159762D01*
X170969285Y-117112143D01*
X170921666Y-117016905D01*
X170921666Y-116921667D01*
X170969285Y-116826429D01*
X171016904Y-116778810D01*
X171112142Y-116731190D01*
X171302619Y-116683571D01*
X171397857Y-116635952D01*
X171445476Y-116588333D01*
X171493095Y-116493095D01*
X171493095Y-116397857D01*
X171445476Y-116302619D01*
X171397857Y-116255000D01*
X171302619Y-116207381D01*
X171064523Y-116207381D01*
X170921666Y-116255000D01*
X169969285Y-117207381D02*
X170540714Y-117207381D01*
X170255000Y-117207381D02*
X170255000Y-116207381D01*
X170350238Y-116350238D01*
X170445476Y-116445476D01*
X170540714Y-116493095D01*
X169588333Y-116302619D02*
X169540714Y-116255000D01*
X169445476Y-116207381D01*
X169207380Y-116207381D01*
X169112142Y-116255000D01*
X169064523Y-116302619D01*
X169016904Y-116397857D01*
X169016904Y-116493095D01*
X169064523Y-116635952D01*
X169635952Y-117207381D01*
X169016904Y-117207381D01*
X168016904Y-117112143D02*
X168064523Y-117159762D01*
X168207380Y-117207381D01*
X168302618Y-117207381D01*
X168445476Y-117159762D01*
X168540714Y-117064524D01*
X168588333Y-116969286D01*
X168635952Y-116778810D01*
X168635952Y-116635952D01*
X168588333Y-116445476D01*
X168540714Y-116350238D01*
X168445476Y-116255000D01*
X168302618Y-116207381D01*
X168207380Y-116207381D01*
X168064523Y-116255000D01*
X168016904Y-116302619D01*
X160893095Y-117159762D02*
X160750238Y-117207381D01*
X160512142Y-117207381D01*
X160416904Y-117159762D01*
X160369285Y-117112143D01*
X160321666Y-117016905D01*
X160321666Y-116921667D01*
X160369285Y-116826429D01*
X160416904Y-116778810D01*
X160512142Y-116731190D01*
X160702619Y-116683571D01*
X160797857Y-116635952D01*
X160845476Y-116588333D01*
X160893095Y-116493095D01*
X160893095Y-116397857D01*
X160845476Y-116302619D01*
X160797857Y-116255000D01*
X160702619Y-116207381D01*
X160464523Y-116207381D01*
X160321666Y-116255000D01*
X159369285Y-117207381D02*
X159940714Y-117207381D01*
X159655000Y-117207381D02*
X159655000Y-116207381D01*
X159750238Y-116350238D01*
X159845476Y-116445476D01*
X159940714Y-116493095D01*
X158416904Y-117207381D02*
X158988333Y-117207381D01*
X158702619Y-117207381D02*
X158702619Y-116207381D01*
X158797857Y-116350238D01*
X158893095Y-116445476D01*
X158988333Y-116493095D01*
X157416904Y-117112143D02*
X157464523Y-117159762D01*
X157607380Y-117207381D01*
X157702618Y-117207381D01*
X157845476Y-117159762D01*
X157940714Y-117064524D01*
X157988333Y-116969286D01*
X158035952Y-116778810D01*
X158035952Y-116635952D01*
X157988333Y-116445476D01*
X157940714Y-116350238D01*
X157845476Y-116255000D01*
X157702618Y-116207381D01*
X157607380Y-116207381D01*
X157464523Y-116255000D01*
X157416904Y-116302619D01*
X150293095Y-117159762D02*
X150150238Y-117207381D01*
X149912142Y-117207381D01*
X149816904Y-117159762D01*
X149769285Y-117112143D01*
X149721666Y-117016905D01*
X149721666Y-116921667D01*
X149769285Y-116826429D01*
X149816904Y-116778810D01*
X149912142Y-116731190D01*
X150102619Y-116683571D01*
X150197857Y-116635952D01*
X150245476Y-116588333D01*
X150293095Y-116493095D01*
X150293095Y-116397857D01*
X150245476Y-116302619D01*
X150197857Y-116255000D01*
X150102619Y-116207381D01*
X149864523Y-116207381D01*
X149721666Y-116255000D01*
X148769285Y-117207381D02*
X149340714Y-117207381D01*
X149055000Y-117207381D02*
X149055000Y-116207381D01*
X149150238Y-116350238D01*
X149245476Y-116445476D01*
X149340714Y-116493095D01*
X148150238Y-116207381D02*
X148054999Y-116207381D01*
X147959761Y-116255000D01*
X147912142Y-116302619D01*
X147864523Y-116397857D01*
X147816904Y-116588333D01*
X147816904Y-116826429D01*
X147864523Y-117016905D01*
X147912142Y-117112143D01*
X147959761Y-117159762D01*
X148054999Y-117207381D01*
X148150238Y-117207381D01*
X148245476Y-117159762D01*
X148293095Y-117112143D01*
X148340714Y-117016905D01*
X148388333Y-116826429D01*
X148388333Y-116588333D01*
X148340714Y-116397857D01*
X148293095Y-116302619D01*
X148245476Y-116255000D01*
X148150238Y-116207381D01*
X146816904Y-117112143D02*
X146864523Y-117159762D01*
X147007380Y-117207381D01*
X147102618Y-117207381D01*
X147245476Y-117159762D01*
X147340714Y-117064524D01*
X147388333Y-116969286D01*
X147435952Y-116778810D01*
X147435952Y-116635952D01*
X147388333Y-116445476D01*
X147340714Y-116350238D01*
X147245476Y-116255000D01*
X147102618Y-116207381D01*
X147007380Y-116207381D01*
X146864523Y-116255000D01*
X146816904Y-116302619D01*
X139216905Y-117159762D02*
X139074048Y-117207381D01*
X138835952Y-117207381D01*
X138740714Y-117159762D01*
X138693095Y-117112143D01*
X138645476Y-117016905D01*
X138645476Y-116921667D01*
X138693095Y-116826429D01*
X138740714Y-116778810D01*
X138835952Y-116731190D01*
X139026429Y-116683571D01*
X139121667Y-116635952D01*
X139169286Y-116588333D01*
X139216905Y-116493095D01*
X139216905Y-116397857D01*
X139169286Y-116302619D01*
X139121667Y-116255000D01*
X139026429Y-116207381D01*
X138788333Y-116207381D01*
X138645476Y-116255000D01*
X138169286Y-117207381D02*
X137978810Y-117207381D01*
X137883571Y-117159762D01*
X137835952Y-117112143D01*
X137740714Y-116969286D01*
X137693095Y-116778810D01*
X137693095Y-116397857D01*
X137740714Y-116302619D01*
X137788333Y-116255000D01*
X137883571Y-116207381D01*
X138074048Y-116207381D01*
X138169286Y-116255000D01*
X138216905Y-116302619D01*
X138264524Y-116397857D01*
X138264524Y-116635952D01*
X138216905Y-116731190D01*
X138169286Y-116778810D01*
X138074048Y-116826429D01*
X137883571Y-116826429D01*
X137788333Y-116778810D01*
X137740714Y-116731190D01*
X137693095Y-116635952D01*
X136693095Y-117112143D02*
X136740714Y-117159762D01*
X136883571Y-117207381D01*
X136978809Y-117207381D01*
X137121667Y-117159762D01*
X137216905Y-117064524D01*
X137264524Y-116969286D01*
X137312143Y-116778810D01*
X137312143Y-116635952D01*
X137264524Y-116445476D01*
X137216905Y-116350238D01*
X137121667Y-116255000D01*
X136978809Y-116207381D01*
X136883571Y-116207381D01*
X136740714Y-116255000D01*
X136693095Y-116302619D01*
X128616905Y-117159762D02*
X128474048Y-117207381D01*
X128235952Y-117207381D01*
X128140714Y-117159762D01*
X128093095Y-117112143D01*
X128045476Y-117016905D01*
X128045476Y-116921667D01*
X128093095Y-116826429D01*
X128140714Y-116778810D01*
X128235952Y-116731190D01*
X128426429Y-116683571D01*
X128521667Y-116635952D01*
X128569286Y-116588333D01*
X128616905Y-116493095D01*
X128616905Y-116397857D01*
X128569286Y-116302619D01*
X128521667Y-116255000D01*
X128426429Y-116207381D01*
X128188333Y-116207381D01*
X128045476Y-116255000D01*
X127474048Y-116635952D02*
X127569286Y-116588333D01*
X127616905Y-116540714D01*
X127664524Y-116445476D01*
X127664524Y-116397857D01*
X127616905Y-116302619D01*
X127569286Y-116255000D01*
X127474048Y-116207381D01*
X127283571Y-116207381D01*
X127188333Y-116255000D01*
X127140714Y-116302619D01*
X127093095Y-116397857D01*
X127093095Y-116445476D01*
X127140714Y-116540714D01*
X127188333Y-116588333D01*
X127283571Y-116635952D01*
X127474048Y-116635952D01*
X127569286Y-116683571D01*
X127616905Y-116731190D01*
X127664524Y-116826429D01*
X127664524Y-117016905D01*
X127616905Y-117112143D01*
X127569286Y-117159762D01*
X127474048Y-117207381D01*
X127283571Y-117207381D01*
X127188333Y-117159762D01*
X127140714Y-117112143D01*
X127093095Y-117016905D01*
X127093095Y-116826429D01*
X127140714Y-116731190D01*
X127188333Y-116683571D01*
X127283571Y-116635952D01*
X126093095Y-117112143D02*
X126140714Y-117159762D01*
X126283571Y-117207381D01*
X126378809Y-117207381D01*
X126521667Y-117159762D01*
X126616905Y-117064524D01*
X126664524Y-116969286D01*
X126712143Y-116778810D01*
X126712143Y-116635952D01*
X126664524Y-116445476D01*
X126616905Y-116350238D01*
X126521667Y-116255000D01*
X126378809Y-116207381D01*
X126283571Y-116207381D01*
X126140714Y-116255000D01*
X126093095Y-116302619D01*
X118016905Y-117159762D02*
X117874048Y-117207381D01*
X117635952Y-117207381D01*
X117540714Y-117159762D01*
X117493095Y-117112143D01*
X117445476Y-117016905D01*
X117445476Y-116921667D01*
X117493095Y-116826429D01*
X117540714Y-116778810D01*
X117635952Y-116731190D01*
X117826429Y-116683571D01*
X117921667Y-116635952D01*
X117969286Y-116588333D01*
X118016905Y-116493095D01*
X118016905Y-116397857D01*
X117969286Y-116302619D01*
X117921667Y-116255000D01*
X117826429Y-116207381D01*
X117588333Y-116207381D01*
X117445476Y-116255000D01*
X117112143Y-116207381D02*
X116445476Y-116207381D01*
X116874048Y-117207381D01*
X115493095Y-117112143D02*
X115540714Y-117159762D01*
X115683571Y-117207381D01*
X115778809Y-117207381D01*
X115921667Y-117159762D01*
X116016905Y-117064524D01*
X116064524Y-116969286D01*
X116112143Y-116778810D01*
X116112143Y-116635952D01*
X116064524Y-116445476D01*
X116016905Y-116350238D01*
X115921667Y-116255000D01*
X115778809Y-116207381D01*
X115683571Y-116207381D01*
X115540714Y-116255000D01*
X115493095Y-116302619D01*
X107416905Y-117159762D02*
X107274048Y-117207381D01*
X107035952Y-117207381D01*
X106940714Y-117159762D01*
X106893095Y-117112143D01*
X106845476Y-117016905D01*
X106845476Y-116921667D01*
X106893095Y-116826429D01*
X106940714Y-116778810D01*
X107035952Y-116731190D01*
X107226429Y-116683571D01*
X107321667Y-116635952D01*
X107369286Y-116588333D01*
X107416905Y-116493095D01*
X107416905Y-116397857D01*
X107369286Y-116302619D01*
X107321667Y-116255000D01*
X107226429Y-116207381D01*
X106988333Y-116207381D01*
X106845476Y-116255000D01*
X105988333Y-116207381D02*
X106178810Y-116207381D01*
X106274048Y-116255000D01*
X106321667Y-116302619D01*
X106416905Y-116445476D01*
X106464524Y-116635952D01*
X106464524Y-117016905D01*
X106416905Y-117112143D01*
X106369286Y-117159762D01*
X106274048Y-117207381D01*
X106083571Y-117207381D01*
X105988333Y-117159762D01*
X105940714Y-117112143D01*
X105893095Y-117016905D01*
X105893095Y-116778810D01*
X105940714Y-116683571D01*
X105988333Y-116635952D01*
X106083571Y-116588333D01*
X106274048Y-116588333D01*
X106369286Y-116635952D01*
X106416905Y-116683571D01*
X106464524Y-116778810D01*
X104893095Y-117112143D02*
X104940714Y-117159762D01*
X105083571Y-117207381D01*
X105178809Y-117207381D01*
X105321667Y-117159762D01*
X105416905Y-117064524D01*
X105464524Y-116969286D01*
X105512143Y-116778810D01*
X105512143Y-116635952D01*
X105464524Y-116445476D01*
X105416905Y-116350238D01*
X105321667Y-116255000D01*
X105178809Y-116207381D01*
X105083571Y-116207381D01*
X104940714Y-116255000D01*
X104893095Y-116302619D01*
X96816905Y-117159762D02*
X96674048Y-117207381D01*
X96435952Y-117207381D01*
X96340714Y-117159762D01*
X96293095Y-117112143D01*
X96245476Y-117016905D01*
X96245476Y-116921667D01*
X96293095Y-116826429D01*
X96340714Y-116778810D01*
X96435952Y-116731190D01*
X96626429Y-116683571D01*
X96721667Y-116635952D01*
X96769286Y-116588333D01*
X96816905Y-116493095D01*
X96816905Y-116397857D01*
X96769286Y-116302619D01*
X96721667Y-116255000D01*
X96626429Y-116207381D01*
X96388333Y-116207381D01*
X96245476Y-116255000D01*
X95340714Y-116207381D02*
X95816905Y-116207381D01*
X95864524Y-116683571D01*
X95816905Y-116635952D01*
X95721667Y-116588333D01*
X95483571Y-116588333D01*
X95388333Y-116635952D01*
X95340714Y-116683571D01*
X95293095Y-116778810D01*
X95293095Y-117016905D01*
X95340714Y-117112143D01*
X95388333Y-117159762D01*
X95483571Y-117207381D01*
X95721667Y-117207381D01*
X95816905Y-117159762D01*
X95864524Y-117112143D01*
X94293095Y-117112143D02*
X94340714Y-117159762D01*
X94483571Y-117207381D01*
X94578809Y-117207381D01*
X94721667Y-117159762D01*
X94816905Y-117064524D01*
X94864524Y-116969286D01*
X94912143Y-116778810D01*
X94912143Y-116635952D01*
X94864524Y-116445476D01*
X94816905Y-116350238D01*
X94721667Y-116255000D01*
X94578809Y-116207381D01*
X94483571Y-116207381D01*
X94340714Y-116255000D01*
X94293095Y-116302619D01*
X86216905Y-117159762D02*
X86074048Y-117207381D01*
X85835952Y-117207381D01*
X85740714Y-117159762D01*
X85693095Y-117112143D01*
X85645476Y-117016905D01*
X85645476Y-116921667D01*
X85693095Y-116826429D01*
X85740714Y-116778810D01*
X85835952Y-116731190D01*
X86026429Y-116683571D01*
X86121667Y-116635952D01*
X86169286Y-116588333D01*
X86216905Y-116493095D01*
X86216905Y-116397857D01*
X86169286Y-116302619D01*
X86121667Y-116255000D01*
X86026429Y-116207381D01*
X85788333Y-116207381D01*
X85645476Y-116255000D01*
X84788333Y-116540714D02*
X84788333Y-117207381D01*
X85026429Y-116159762D02*
X85264524Y-116874048D01*
X84645476Y-116874048D01*
X83693095Y-117112143D02*
X83740714Y-117159762D01*
X83883571Y-117207381D01*
X83978809Y-117207381D01*
X84121667Y-117159762D01*
X84216905Y-117064524D01*
X84264524Y-116969286D01*
X84312143Y-116778810D01*
X84312143Y-116635952D01*
X84264524Y-116445476D01*
X84216905Y-116350238D01*
X84121667Y-116255000D01*
X83978809Y-116207381D01*
X83883571Y-116207381D01*
X83740714Y-116255000D01*
X83693095Y-116302619D01*
X75616905Y-117159762D02*
X75474048Y-117207381D01*
X75235952Y-117207381D01*
X75140714Y-117159762D01*
X75093095Y-117112143D01*
X75045476Y-117016905D01*
X75045476Y-116921667D01*
X75093095Y-116826429D01*
X75140714Y-116778810D01*
X75235952Y-116731190D01*
X75426429Y-116683571D01*
X75521667Y-116635952D01*
X75569286Y-116588333D01*
X75616905Y-116493095D01*
X75616905Y-116397857D01*
X75569286Y-116302619D01*
X75521667Y-116255000D01*
X75426429Y-116207381D01*
X75188333Y-116207381D01*
X75045476Y-116255000D01*
X74712143Y-116207381D02*
X74093095Y-116207381D01*
X74426429Y-116588333D01*
X74283571Y-116588333D01*
X74188333Y-116635952D01*
X74140714Y-116683571D01*
X74093095Y-116778810D01*
X74093095Y-117016905D01*
X74140714Y-117112143D01*
X74188333Y-117159762D01*
X74283571Y-117207381D01*
X74569286Y-117207381D01*
X74664524Y-117159762D01*
X74712143Y-117112143D01*
X73093095Y-117112143D02*
X73140714Y-117159762D01*
X73283571Y-117207381D01*
X73378809Y-117207381D01*
X73521667Y-117159762D01*
X73616905Y-117064524D01*
X73664524Y-116969286D01*
X73712143Y-116778810D01*
X73712143Y-116635952D01*
X73664524Y-116445476D01*
X73616905Y-116350238D01*
X73521667Y-116255000D01*
X73378809Y-116207381D01*
X73283571Y-116207381D01*
X73140714Y-116255000D01*
X73093095Y-116302619D01*
X65016905Y-117159762D02*
X64874048Y-117207381D01*
X64635952Y-117207381D01*
X64540714Y-117159762D01*
X64493095Y-117112143D01*
X64445476Y-117016905D01*
X64445476Y-116921667D01*
X64493095Y-116826429D01*
X64540714Y-116778810D01*
X64635952Y-116731190D01*
X64826429Y-116683571D01*
X64921667Y-116635952D01*
X64969286Y-116588333D01*
X65016905Y-116493095D01*
X65016905Y-116397857D01*
X64969286Y-116302619D01*
X64921667Y-116255000D01*
X64826429Y-116207381D01*
X64588333Y-116207381D01*
X64445476Y-116255000D01*
X64064524Y-116302619D02*
X64016905Y-116255000D01*
X63921667Y-116207381D01*
X63683571Y-116207381D01*
X63588333Y-116255000D01*
X63540714Y-116302619D01*
X63493095Y-116397857D01*
X63493095Y-116493095D01*
X63540714Y-116635952D01*
X64112143Y-117207381D01*
X63493095Y-117207381D01*
X62493095Y-117112143D02*
X62540714Y-117159762D01*
X62683571Y-117207381D01*
X62778809Y-117207381D01*
X62921667Y-117159762D01*
X63016905Y-117064524D01*
X63064524Y-116969286D01*
X63112143Y-116778810D01*
X63112143Y-116635952D01*
X63064524Y-116445476D01*
X63016905Y-116350238D01*
X62921667Y-116255000D01*
X62778809Y-116207381D01*
X62683571Y-116207381D01*
X62540714Y-116255000D01*
X62493095Y-116302619D01*
X54416905Y-117159762D02*
X54274048Y-117207381D01*
X54035952Y-117207381D01*
X53940714Y-117159762D01*
X53893095Y-117112143D01*
X53845476Y-117016905D01*
X53845476Y-116921667D01*
X53893095Y-116826429D01*
X53940714Y-116778810D01*
X54035952Y-116731190D01*
X54226429Y-116683571D01*
X54321667Y-116635952D01*
X54369286Y-116588333D01*
X54416905Y-116493095D01*
X54416905Y-116397857D01*
X54369286Y-116302619D01*
X54321667Y-116255000D01*
X54226429Y-116207381D01*
X53988333Y-116207381D01*
X53845476Y-116255000D01*
X52893095Y-117207381D02*
X53464524Y-117207381D01*
X53178810Y-117207381D02*
X53178810Y-116207381D01*
X53274048Y-116350238D01*
X53369286Y-116445476D01*
X53464524Y-116493095D01*
X51893095Y-117112143D02*
X51940714Y-117159762D01*
X52083571Y-117207381D01*
X52178809Y-117207381D01*
X52321667Y-117159762D01*
X52416905Y-117064524D01*
X52464524Y-116969286D01*
X52512143Y-116778810D01*
X52512143Y-116635952D01*
X52464524Y-116445476D01*
X52416905Y-116350238D01*
X52321667Y-116255000D01*
X52178809Y-116207381D01*
X52083571Y-116207381D01*
X51940714Y-116255000D01*
X51893095Y-116302619D01*
X43816905Y-117159762D02*
X43674048Y-117207381D01*
X43435952Y-117207381D01*
X43340714Y-117159762D01*
X43293095Y-117112143D01*
X43245476Y-117016905D01*
X43245476Y-116921667D01*
X43293095Y-116826429D01*
X43340714Y-116778810D01*
X43435952Y-116731190D01*
X43626429Y-116683571D01*
X43721667Y-116635952D01*
X43769286Y-116588333D01*
X43816905Y-116493095D01*
X43816905Y-116397857D01*
X43769286Y-116302619D01*
X43721667Y-116255000D01*
X43626429Y-116207381D01*
X43388333Y-116207381D01*
X43245476Y-116255000D01*
X42626429Y-116207381D02*
X42531190Y-116207381D01*
X42435952Y-116255000D01*
X42388333Y-116302619D01*
X42340714Y-116397857D01*
X42293095Y-116588333D01*
X42293095Y-116826429D01*
X42340714Y-117016905D01*
X42388333Y-117112143D01*
X42435952Y-117159762D01*
X42531190Y-117207381D01*
X42626429Y-117207381D01*
X42721667Y-117159762D01*
X42769286Y-117112143D01*
X42816905Y-117016905D01*
X42864524Y-116826429D01*
X42864524Y-116588333D01*
X42816905Y-116397857D01*
X42769286Y-116302619D01*
X42721667Y-116255000D01*
X42626429Y-116207381D01*
X41293095Y-117112143D02*
X41340714Y-117159762D01*
X41483571Y-117207381D01*
X41578809Y-117207381D01*
X41721667Y-117159762D01*
X41816905Y-117064524D01*
X41864524Y-116969286D01*
X41912143Y-116778810D01*
X41912143Y-116635952D01*
X41864524Y-116445476D01*
X41816905Y-116350238D01*
X41721667Y-116255000D01*
X41578809Y-116207381D01*
X41483571Y-116207381D01*
X41340714Y-116255000D01*
X41293095Y-116302619D01*
X171493095Y-86659762D02*
X171350238Y-86707381D01*
X171112142Y-86707381D01*
X171016904Y-86659762D01*
X170969285Y-86612143D01*
X170921666Y-86516905D01*
X170921666Y-86421667D01*
X170969285Y-86326429D01*
X171016904Y-86278810D01*
X171112142Y-86231190D01*
X171302619Y-86183571D01*
X171397857Y-86135952D01*
X171445476Y-86088333D01*
X171493095Y-85993095D01*
X171493095Y-85897857D01*
X171445476Y-85802619D01*
X171397857Y-85755000D01*
X171302619Y-85707381D01*
X171064523Y-85707381D01*
X170921666Y-85755000D01*
X169969285Y-86707381D02*
X170540714Y-86707381D01*
X170255000Y-86707381D02*
X170255000Y-85707381D01*
X170350238Y-85850238D01*
X170445476Y-85945476D01*
X170540714Y-85993095D01*
X169588333Y-85802619D02*
X169540714Y-85755000D01*
X169445476Y-85707381D01*
X169207380Y-85707381D01*
X169112142Y-85755000D01*
X169064523Y-85802619D01*
X169016904Y-85897857D01*
X169016904Y-85993095D01*
X169064523Y-86135952D01*
X169635952Y-86707381D01*
X169016904Y-86707381D01*
X168254999Y-86183571D02*
X168112142Y-86231190D01*
X168064523Y-86278810D01*
X168016904Y-86374048D01*
X168016904Y-86516905D01*
X168064523Y-86612143D01*
X168112142Y-86659762D01*
X168207380Y-86707381D01*
X168588333Y-86707381D01*
X168588333Y-85707381D01*
X168254999Y-85707381D01*
X168159761Y-85755000D01*
X168112142Y-85802619D01*
X168064523Y-85897857D01*
X168064523Y-85993095D01*
X168112142Y-86088333D01*
X168159761Y-86135952D01*
X168254999Y-86183571D01*
X168588333Y-86183571D01*
X160893095Y-86659762D02*
X160750238Y-86707381D01*
X160512142Y-86707381D01*
X160416904Y-86659762D01*
X160369285Y-86612143D01*
X160321666Y-86516905D01*
X160321666Y-86421667D01*
X160369285Y-86326429D01*
X160416904Y-86278810D01*
X160512142Y-86231190D01*
X160702619Y-86183571D01*
X160797857Y-86135952D01*
X160845476Y-86088333D01*
X160893095Y-85993095D01*
X160893095Y-85897857D01*
X160845476Y-85802619D01*
X160797857Y-85755000D01*
X160702619Y-85707381D01*
X160464523Y-85707381D01*
X160321666Y-85755000D01*
X159369285Y-86707381D02*
X159940714Y-86707381D01*
X159655000Y-86707381D02*
X159655000Y-85707381D01*
X159750238Y-85850238D01*
X159845476Y-85945476D01*
X159940714Y-85993095D01*
X158416904Y-86707381D02*
X158988333Y-86707381D01*
X158702619Y-86707381D02*
X158702619Y-85707381D01*
X158797857Y-85850238D01*
X158893095Y-85945476D01*
X158988333Y-85993095D01*
X157654999Y-86183571D02*
X157512142Y-86231190D01*
X157464523Y-86278810D01*
X157416904Y-86374048D01*
X157416904Y-86516905D01*
X157464523Y-86612143D01*
X157512142Y-86659762D01*
X157607380Y-86707381D01*
X157988333Y-86707381D01*
X157988333Y-85707381D01*
X157654999Y-85707381D01*
X157559761Y-85755000D01*
X157512142Y-85802619D01*
X157464523Y-85897857D01*
X157464523Y-85993095D01*
X157512142Y-86088333D01*
X157559761Y-86135952D01*
X157654999Y-86183571D01*
X157988333Y-86183571D01*
X150293095Y-86659762D02*
X150150238Y-86707381D01*
X149912142Y-86707381D01*
X149816904Y-86659762D01*
X149769285Y-86612143D01*
X149721666Y-86516905D01*
X149721666Y-86421667D01*
X149769285Y-86326429D01*
X149816904Y-86278810D01*
X149912142Y-86231190D01*
X150102619Y-86183571D01*
X150197857Y-86135952D01*
X150245476Y-86088333D01*
X150293095Y-85993095D01*
X150293095Y-85897857D01*
X150245476Y-85802619D01*
X150197857Y-85755000D01*
X150102619Y-85707381D01*
X149864523Y-85707381D01*
X149721666Y-85755000D01*
X148769285Y-86707381D02*
X149340714Y-86707381D01*
X149055000Y-86707381D02*
X149055000Y-85707381D01*
X149150238Y-85850238D01*
X149245476Y-85945476D01*
X149340714Y-85993095D01*
X148150238Y-85707381D02*
X148054999Y-85707381D01*
X147959761Y-85755000D01*
X147912142Y-85802619D01*
X147864523Y-85897857D01*
X147816904Y-86088333D01*
X147816904Y-86326429D01*
X147864523Y-86516905D01*
X147912142Y-86612143D01*
X147959761Y-86659762D01*
X148054999Y-86707381D01*
X148150238Y-86707381D01*
X148245476Y-86659762D01*
X148293095Y-86612143D01*
X148340714Y-86516905D01*
X148388333Y-86326429D01*
X148388333Y-86088333D01*
X148340714Y-85897857D01*
X148293095Y-85802619D01*
X148245476Y-85755000D01*
X148150238Y-85707381D01*
X147054999Y-86183571D02*
X146912142Y-86231190D01*
X146864523Y-86278810D01*
X146816904Y-86374048D01*
X146816904Y-86516905D01*
X146864523Y-86612143D01*
X146912142Y-86659762D01*
X147007380Y-86707381D01*
X147388333Y-86707381D01*
X147388333Y-85707381D01*
X147054999Y-85707381D01*
X146959761Y-85755000D01*
X146912142Y-85802619D01*
X146864523Y-85897857D01*
X146864523Y-85993095D01*
X146912142Y-86088333D01*
X146959761Y-86135952D01*
X147054999Y-86183571D01*
X147388333Y-86183571D01*
X139216905Y-86659762D02*
X139074048Y-86707381D01*
X138835952Y-86707381D01*
X138740714Y-86659762D01*
X138693095Y-86612143D01*
X138645476Y-86516905D01*
X138645476Y-86421667D01*
X138693095Y-86326429D01*
X138740714Y-86278810D01*
X138835952Y-86231190D01*
X139026429Y-86183571D01*
X139121667Y-86135952D01*
X139169286Y-86088333D01*
X139216905Y-85993095D01*
X139216905Y-85897857D01*
X139169286Y-85802619D01*
X139121667Y-85755000D01*
X139026429Y-85707381D01*
X138788333Y-85707381D01*
X138645476Y-85755000D01*
X138169286Y-86707381D02*
X137978810Y-86707381D01*
X137883571Y-86659762D01*
X137835952Y-86612143D01*
X137740714Y-86469286D01*
X137693095Y-86278810D01*
X137693095Y-85897857D01*
X137740714Y-85802619D01*
X137788333Y-85755000D01*
X137883571Y-85707381D01*
X138074048Y-85707381D01*
X138169286Y-85755000D01*
X138216905Y-85802619D01*
X138264524Y-85897857D01*
X138264524Y-86135952D01*
X138216905Y-86231190D01*
X138169286Y-86278810D01*
X138074048Y-86326429D01*
X137883571Y-86326429D01*
X137788333Y-86278810D01*
X137740714Y-86231190D01*
X137693095Y-86135952D01*
X136931190Y-86183571D02*
X136788333Y-86231190D01*
X136740714Y-86278810D01*
X136693095Y-86374048D01*
X136693095Y-86516905D01*
X136740714Y-86612143D01*
X136788333Y-86659762D01*
X136883571Y-86707381D01*
X137264524Y-86707381D01*
X137264524Y-85707381D01*
X136931190Y-85707381D01*
X136835952Y-85755000D01*
X136788333Y-85802619D01*
X136740714Y-85897857D01*
X136740714Y-85993095D01*
X136788333Y-86088333D01*
X136835952Y-86135952D01*
X136931190Y-86183571D01*
X137264524Y-86183571D01*
X128616905Y-86659762D02*
X128474048Y-86707381D01*
X128235952Y-86707381D01*
X128140714Y-86659762D01*
X128093095Y-86612143D01*
X128045476Y-86516905D01*
X128045476Y-86421667D01*
X128093095Y-86326429D01*
X128140714Y-86278810D01*
X128235952Y-86231190D01*
X128426429Y-86183571D01*
X128521667Y-86135952D01*
X128569286Y-86088333D01*
X128616905Y-85993095D01*
X128616905Y-85897857D01*
X128569286Y-85802619D01*
X128521667Y-85755000D01*
X128426429Y-85707381D01*
X128188333Y-85707381D01*
X128045476Y-85755000D01*
X127474048Y-86135952D02*
X127569286Y-86088333D01*
X127616905Y-86040714D01*
X127664524Y-85945476D01*
X127664524Y-85897857D01*
X127616905Y-85802619D01*
X127569286Y-85755000D01*
X127474048Y-85707381D01*
X127283571Y-85707381D01*
X127188333Y-85755000D01*
X127140714Y-85802619D01*
X127093095Y-85897857D01*
X127093095Y-85945476D01*
X127140714Y-86040714D01*
X127188333Y-86088333D01*
X127283571Y-86135952D01*
X127474048Y-86135952D01*
X127569286Y-86183571D01*
X127616905Y-86231190D01*
X127664524Y-86326429D01*
X127664524Y-86516905D01*
X127616905Y-86612143D01*
X127569286Y-86659762D01*
X127474048Y-86707381D01*
X127283571Y-86707381D01*
X127188333Y-86659762D01*
X127140714Y-86612143D01*
X127093095Y-86516905D01*
X127093095Y-86326429D01*
X127140714Y-86231190D01*
X127188333Y-86183571D01*
X127283571Y-86135952D01*
X126331190Y-86183571D02*
X126188333Y-86231190D01*
X126140714Y-86278810D01*
X126093095Y-86374048D01*
X126093095Y-86516905D01*
X126140714Y-86612143D01*
X126188333Y-86659762D01*
X126283571Y-86707381D01*
X126664524Y-86707381D01*
X126664524Y-85707381D01*
X126331190Y-85707381D01*
X126235952Y-85755000D01*
X126188333Y-85802619D01*
X126140714Y-85897857D01*
X126140714Y-85993095D01*
X126188333Y-86088333D01*
X126235952Y-86135952D01*
X126331190Y-86183571D01*
X126664524Y-86183571D01*
X118016905Y-86659762D02*
X117874048Y-86707381D01*
X117635952Y-86707381D01*
X117540714Y-86659762D01*
X117493095Y-86612143D01*
X117445476Y-86516905D01*
X117445476Y-86421667D01*
X117493095Y-86326429D01*
X117540714Y-86278810D01*
X117635952Y-86231190D01*
X117826429Y-86183571D01*
X117921667Y-86135952D01*
X117969286Y-86088333D01*
X118016905Y-85993095D01*
X118016905Y-85897857D01*
X117969286Y-85802619D01*
X117921667Y-85755000D01*
X117826429Y-85707381D01*
X117588333Y-85707381D01*
X117445476Y-85755000D01*
X117112143Y-85707381D02*
X116445476Y-85707381D01*
X116874048Y-86707381D01*
X115731190Y-86183571D02*
X115588333Y-86231190D01*
X115540714Y-86278810D01*
X115493095Y-86374048D01*
X115493095Y-86516905D01*
X115540714Y-86612143D01*
X115588333Y-86659762D01*
X115683571Y-86707381D01*
X116064524Y-86707381D01*
X116064524Y-85707381D01*
X115731190Y-85707381D01*
X115635952Y-85755000D01*
X115588333Y-85802619D01*
X115540714Y-85897857D01*
X115540714Y-85993095D01*
X115588333Y-86088333D01*
X115635952Y-86135952D01*
X115731190Y-86183571D01*
X116064524Y-86183571D01*
X107416905Y-86659762D02*
X107274048Y-86707381D01*
X107035952Y-86707381D01*
X106940714Y-86659762D01*
X106893095Y-86612143D01*
X106845476Y-86516905D01*
X106845476Y-86421667D01*
X106893095Y-86326429D01*
X106940714Y-86278810D01*
X107035952Y-86231190D01*
X107226429Y-86183571D01*
X107321667Y-86135952D01*
X107369286Y-86088333D01*
X107416905Y-85993095D01*
X107416905Y-85897857D01*
X107369286Y-85802619D01*
X107321667Y-85755000D01*
X107226429Y-85707381D01*
X106988333Y-85707381D01*
X106845476Y-85755000D01*
X105988333Y-85707381D02*
X106178810Y-85707381D01*
X106274048Y-85755000D01*
X106321667Y-85802619D01*
X106416905Y-85945476D01*
X106464524Y-86135952D01*
X106464524Y-86516905D01*
X106416905Y-86612143D01*
X106369286Y-86659762D01*
X106274048Y-86707381D01*
X106083571Y-86707381D01*
X105988333Y-86659762D01*
X105940714Y-86612143D01*
X105893095Y-86516905D01*
X105893095Y-86278810D01*
X105940714Y-86183571D01*
X105988333Y-86135952D01*
X106083571Y-86088333D01*
X106274048Y-86088333D01*
X106369286Y-86135952D01*
X106416905Y-86183571D01*
X106464524Y-86278810D01*
X105131190Y-86183571D02*
X104988333Y-86231190D01*
X104940714Y-86278810D01*
X104893095Y-86374048D01*
X104893095Y-86516905D01*
X104940714Y-86612143D01*
X104988333Y-86659762D01*
X105083571Y-86707381D01*
X105464524Y-86707381D01*
X105464524Y-85707381D01*
X105131190Y-85707381D01*
X105035952Y-85755000D01*
X104988333Y-85802619D01*
X104940714Y-85897857D01*
X104940714Y-85993095D01*
X104988333Y-86088333D01*
X105035952Y-86135952D01*
X105131190Y-86183571D01*
X105464524Y-86183571D01*
X96816905Y-86659762D02*
X96674048Y-86707381D01*
X96435952Y-86707381D01*
X96340714Y-86659762D01*
X96293095Y-86612143D01*
X96245476Y-86516905D01*
X96245476Y-86421667D01*
X96293095Y-86326429D01*
X96340714Y-86278810D01*
X96435952Y-86231190D01*
X96626429Y-86183571D01*
X96721667Y-86135952D01*
X96769286Y-86088333D01*
X96816905Y-85993095D01*
X96816905Y-85897857D01*
X96769286Y-85802619D01*
X96721667Y-85755000D01*
X96626429Y-85707381D01*
X96388333Y-85707381D01*
X96245476Y-85755000D01*
X95340714Y-85707381D02*
X95816905Y-85707381D01*
X95864524Y-86183571D01*
X95816905Y-86135952D01*
X95721667Y-86088333D01*
X95483571Y-86088333D01*
X95388333Y-86135952D01*
X95340714Y-86183571D01*
X95293095Y-86278810D01*
X95293095Y-86516905D01*
X95340714Y-86612143D01*
X95388333Y-86659762D01*
X95483571Y-86707381D01*
X95721667Y-86707381D01*
X95816905Y-86659762D01*
X95864524Y-86612143D01*
X94531190Y-86183571D02*
X94388333Y-86231190D01*
X94340714Y-86278810D01*
X94293095Y-86374048D01*
X94293095Y-86516905D01*
X94340714Y-86612143D01*
X94388333Y-86659762D01*
X94483571Y-86707381D01*
X94864524Y-86707381D01*
X94864524Y-85707381D01*
X94531190Y-85707381D01*
X94435952Y-85755000D01*
X94388333Y-85802619D01*
X94340714Y-85897857D01*
X94340714Y-85993095D01*
X94388333Y-86088333D01*
X94435952Y-86135952D01*
X94531190Y-86183571D01*
X94864524Y-86183571D01*
X86216905Y-86659762D02*
X86074048Y-86707381D01*
X85835952Y-86707381D01*
X85740714Y-86659762D01*
X85693095Y-86612143D01*
X85645476Y-86516905D01*
X85645476Y-86421667D01*
X85693095Y-86326429D01*
X85740714Y-86278810D01*
X85835952Y-86231190D01*
X86026429Y-86183571D01*
X86121667Y-86135952D01*
X86169286Y-86088333D01*
X86216905Y-85993095D01*
X86216905Y-85897857D01*
X86169286Y-85802619D01*
X86121667Y-85755000D01*
X86026429Y-85707381D01*
X85788333Y-85707381D01*
X85645476Y-85755000D01*
X84788333Y-86040714D02*
X84788333Y-86707381D01*
X85026429Y-85659762D02*
X85264524Y-86374048D01*
X84645476Y-86374048D01*
X83931190Y-86183571D02*
X83788333Y-86231190D01*
X83740714Y-86278810D01*
X83693095Y-86374048D01*
X83693095Y-86516905D01*
X83740714Y-86612143D01*
X83788333Y-86659762D01*
X83883571Y-86707381D01*
X84264524Y-86707381D01*
X84264524Y-85707381D01*
X83931190Y-85707381D01*
X83835952Y-85755000D01*
X83788333Y-85802619D01*
X83740714Y-85897857D01*
X83740714Y-85993095D01*
X83788333Y-86088333D01*
X83835952Y-86135952D01*
X83931190Y-86183571D01*
X84264524Y-86183571D01*
X75616905Y-86659762D02*
X75474048Y-86707381D01*
X75235952Y-86707381D01*
X75140714Y-86659762D01*
X75093095Y-86612143D01*
X75045476Y-86516905D01*
X75045476Y-86421667D01*
X75093095Y-86326429D01*
X75140714Y-86278810D01*
X75235952Y-86231190D01*
X75426429Y-86183571D01*
X75521667Y-86135952D01*
X75569286Y-86088333D01*
X75616905Y-85993095D01*
X75616905Y-85897857D01*
X75569286Y-85802619D01*
X75521667Y-85755000D01*
X75426429Y-85707381D01*
X75188333Y-85707381D01*
X75045476Y-85755000D01*
X74712143Y-85707381D02*
X74093095Y-85707381D01*
X74426429Y-86088333D01*
X74283571Y-86088333D01*
X74188333Y-86135952D01*
X74140714Y-86183571D01*
X74093095Y-86278810D01*
X74093095Y-86516905D01*
X74140714Y-86612143D01*
X74188333Y-86659762D01*
X74283571Y-86707381D01*
X74569286Y-86707381D01*
X74664524Y-86659762D01*
X74712143Y-86612143D01*
X73331190Y-86183571D02*
X73188333Y-86231190D01*
X73140714Y-86278810D01*
X73093095Y-86374048D01*
X73093095Y-86516905D01*
X73140714Y-86612143D01*
X73188333Y-86659762D01*
X73283571Y-86707381D01*
X73664524Y-86707381D01*
X73664524Y-85707381D01*
X73331190Y-85707381D01*
X73235952Y-85755000D01*
X73188333Y-85802619D01*
X73140714Y-85897857D01*
X73140714Y-85993095D01*
X73188333Y-86088333D01*
X73235952Y-86135952D01*
X73331190Y-86183571D01*
X73664524Y-86183571D01*
X65016905Y-86659762D02*
X64874048Y-86707381D01*
X64635952Y-86707381D01*
X64540714Y-86659762D01*
X64493095Y-86612143D01*
X64445476Y-86516905D01*
X64445476Y-86421667D01*
X64493095Y-86326429D01*
X64540714Y-86278810D01*
X64635952Y-86231190D01*
X64826429Y-86183571D01*
X64921667Y-86135952D01*
X64969286Y-86088333D01*
X65016905Y-85993095D01*
X65016905Y-85897857D01*
X64969286Y-85802619D01*
X64921667Y-85755000D01*
X64826429Y-85707381D01*
X64588333Y-85707381D01*
X64445476Y-85755000D01*
X64064524Y-85802619D02*
X64016905Y-85755000D01*
X63921667Y-85707381D01*
X63683571Y-85707381D01*
X63588333Y-85755000D01*
X63540714Y-85802619D01*
X63493095Y-85897857D01*
X63493095Y-85993095D01*
X63540714Y-86135952D01*
X64112143Y-86707381D01*
X63493095Y-86707381D01*
X62731190Y-86183571D02*
X62588333Y-86231190D01*
X62540714Y-86278810D01*
X62493095Y-86374048D01*
X62493095Y-86516905D01*
X62540714Y-86612143D01*
X62588333Y-86659762D01*
X62683571Y-86707381D01*
X63064524Y-86707381D01*
X63064524Y-85707381D01*
X62731190Y-85707381D01*
X62635952Y-85755000D01*
X62588333Y-85802619D01*
X62540714Y-85897857D01*
X62540714Y-85993095D01*
X62588333Y-86088333D01*
X62635952Y-86135952D01*
X62731190Y-86183571D01*
X63064524Y-86183571D01*
X54416905Y-86659762D02*
X54274048Y-86707381D01*
X54035952Y-86707381D01*
X53940714Y-86659762D01*
X53893095Y-86612143D01*
X53845476Y-86516905D01*
X53845476Y-86421667D01*
X53893095Y-86326429D01*
X53940714Y-86278810D01*
X54035952Y-86231190D01*
X54226429Y-86183571D01*
X54321667Y-86135952D01*
X54369286Y-86088333D01*
X54416905Y-85993095D01*
X54416905Y-85897857D01*
X54369286Y-85802619D01*
X54321667Y-85755000D01*
X54226429Y-85707381D01*
X53988333Y-85707381D01*
X53845476Y-85755000D01*
X52893095Y-86707381D02*
X53464524Y-86707381D01*
X53178810Y-86707381D02*
X53178810Y-85707381D01*
X53274048Y-85850238D01*
X53369286Y-85945476D01*
X53464524Y-85993095D01*
X52131190Y-86183571D02*
X51988333Y-86231190D01*
X51940714Y-86278810D01*
X51893095Y-86374048D01*
X51893095Y-86516905D01*
X51940714Y-86612143D01*
X51988333Y-86659762D01*
X52083571Y-86707381D01*
X52464524Y-86707381D01*
X52464524Y-85707381D01*
X52131190Y-85707381D01*
X52035952Y-85755000D01*
X51988333Y-85802619D01*
X51940714Y-85897857D01*
X51940714Y-85993095D01*
X51988333Y-86088333D01*
X52035952Y-86135952D01*
X52131190Y-86183571D01*
X52464524Y-86183571D01*
X43816905Y-86659762D02*
X43674048Y-86707381D01*
X43435952Y-86707381D01*
X43340714Y-86659762D01*
X43293095Y-86612143D01*
X43245476Y-86516905D01*
X43245476Y-86421667D01*
X43293095Y-86326429D01*
X43340714Y-86278810D01*
X43435952Y-86231190D01*
X43626429Y-86183571D01*
X43721667Y-86135952D01*
X43769286Y-86088333D01*
X43816905Y-85993095D01*
X43816905Y-85897857D01*
X43769286Y-85802619D01*
X43721667Y-85755000D01*
X43626429Y-85707381D01*
X43388333Y-85707381D01*
X43245476Y-85755000D01*
X42626429Y-85707381D02*
X42531190Y-85707381D01*
X42435952Y-85755000D01*
X42388333Y-85802619D01*
X42340714Y-85897857D01*
X42293095Y-86088333D01*
X42293095Y-86326429D01*
X42340714Y-86516905D01*
X42388333Y-86612143D01*
X42435952Y-86659762D01*
X42531190Y-86707381D01*
X42626429Y-86707381D01*
X42721667Y-86659762D01*
X42769286Y-86612143D01*
X42816905Y-86516905D01*
X42864524Y-86326429D01*
X42864524Y-86088333D01*
X42816905Y-85897857D01*
X42769286Y-85802619D01*
X42721667Y-85755000D01*
X42626429Y-85707381D01*
X41531190Y-86183571D02*
X41388333Y-86231190D01*
X41340714Y-86278810D01*
X41293095Y-86374048D01*
X41293095Y-86516905D01*
X41340714Y-86612143D01*
X41388333Y-86659762D01*
X41483571Y-86707381D01*
X41864524Y-86707381D01*
X41864524Y-85707381D01*
X41531190Y-85707381D01*
X41435952Y-85755000D01*
X41388333Y-85802619D01*
X41340714Y-85897857D01*
X41340714Y-85993095D01*
X41388333Y-86088333D01*
X41435952Y-86135952D01*
X41531190Y-86183571D01*
X41864524Y-86183571D01*
X171421667Y-56159762D02*
X171278810Y-56207381D01*
X171040714Y-56207381D01*
X170945476Y-56159762D01*
X170897857Y-56112143D01*
X170850238Y-56016905D01*
X170850238Y-55921667D01*
X170897857Y-55826429D01*
X170945476Y-55778810D01*
X171040714Y-55731190D01*
X171231191Y-55683571D01*
X171326429Y-55635952D01*
X171374048Y-55588333D01*
X171421667Y-55493095D01*
X171421667Y-55397857D01*
X171374048Y-55302619D01*
X171326429Y-55255000D01*
X171231191Y-55207381D01*
X170993095Y-55207381D01*
X170850238Y-55255000D01*
X169897857Y-56207381D02*
X170469286Y-56207381D01*
X170183572Y-56207381D02*
X170183572Y-55207381D01*
X170278810Y-55350238D01*
X170374048Y-55445476D01*
X170469286Y-55493095D01*
X169516905Y-55302619D02*
X169469286Y-55255000D01*
X169374048Y-55207381D01*
X169135952Y-55207381D01*
X169040714Y-55255000D01*
X168993095Y-55302619D01*
X168945476Y-55397857D01*
X168945476Y-55493095D01*
X168993095Y-55635952D01*
X169564524Y-56207381D01*
X168945476Y-56207381D01*
X168564524Y-55921667D02*
X168088333Y-55921667D01*
X168659762Y-56207381D02*
X168326429Y-55207381D01*
X167993095Y-56207381D01*
X160821667Y-56159762D02*
X160678810Y-56207381D01*
X160440714Y-56207381D01*
X160345476Y-56159762D01*
X160297857Y-56112143D01*
X160250238Y-56016905D01*
X160250238Y-55921667D01*
X160297857Y-55826429D01*
X160345476Y-55778810D01*
X160440714Y-55731190D01*
X160631191Y-55683571D01*
X160726429Y-55635952D01*
X160774048Y-55588333D01*
X160821667Y-55493095D01*
X160821667Y-55397857D01*
X160774048Y-55302619D01*
X160726429Y-55255000D01*
X160631191Y-55207381D01*
X160393095Y-55207381D01*
X160250238Y-55255000D01*
X159297857Y-56207381D02*
X159869286Y-56207381D01*
X159583572Y-56207381D02*
X159583572Y-55207381D01*
X159678810Y-55350238D01*
X159774048Y-55445476D01*
X159869286Y-55493095D01*
X158345476Y-56207381D02*
X158916905Y-56207381D01*
X158631191Y-56207381D02*
X158631191Y-55207381D01*
X158726429Y-55350238D01*
X158821667Y-55445476D01*
X158916905Y-55493095D01*
X157964524Y-55921667D02*
X157488333Y-55921667D01*
X158059762Y-56207381D02*
X157726429Y-55207381D01*
X157393095Y-56207381D01*
X150221667Y-56159762D02*
X150078810Y-56207381D01*
X149840714Y-56207381D01*
X149745476Y-56159762D01*
X149697857Y-56112143D01*
X149650238Y-56016905D01*
X149650238Y-55921667D01*
X149697857Y-55826429D01*
X149745476Y-55778810D01*
X149840714Y-55731190D01*
X150031191Y-55683571D01*
X150126429Y-55635952D01*
X150174048Y-55588333D01*
X150221667Y-55493095D01*
X150221667Y-55397857D01*
X150174048Y-55302619D01*
X150126429Y-55255000D01*
X150031191Y-55207381D01*
X149793095Y-55207381D01*
X149650238Y-55255000D01*
X148697857Y-56207381D02*
X149269286Y-56207381D01*
X148983572Y-56207381D02*
X148983572Y-55207381D01*
X149078810Y-55350238D01*
X149174048Y-55445476D01*
X149269286Y-55493095D01*
X148078810Y-55207381D02*
X147983571Y-55207381D01*
X147888333Y-55255000D01*
X147840714Y-55302619D01*
X147793095Y-55397857D01*
X147745476Y-55588333D01*
X147745476Y-55826429D01*
X147793095Y-56016905D01*
X147840714Y-56112143D01*
X147888333Y-56159762D01*
X147983571Y-56207381D01*
X148078810Y-56207381D01*
X148174048Y-56159762D01*
X148221667Y-56112143D01*
X148269286Y-56016905D01*
X148316905Y-55826429D01*
X148316905Y-55588333D01*
X148269286Y-55397857D01*
X148221667Y-55302619D01*
X148174048Y-55255000D01*
X148078810Y-55207381D01*
X147364524Y-55921667D02*
X146888333Y-55921667D01*
X147459762Y-56207381D02*
X147126429Y-55207381D01*
X146793095Y-56207381D01*
X139145476Y-56159762D02*
X139002619Y-56207381D01*
X138764523Y-56207381D01*
X138669285Y-56159762D01*
X138621666Y-56112143D01*
X138574047Y-56016905D01*
X138574047Y-55921667D01*
X138621666Y-55826429D01*
X138669285Y-55778810D01*
X138764523Y-55731190D01*
X138955000Y-55683571D01*
X139050238Y-55635952D01*
X139097857Y-55588333D01*
X139145476Y-55493095D01*
X139145476Y-55397857D01*
X139097857Y-55302619D01*
X139050238Y-55255000D01*
X138955000Y-55207381D01*
X138716904Y-55207381D01*
X138574047Y-55255000D01*
X138097857Y-56207381D02*
X137907381Y-56207381D01*
X137812142Y-56159762D01*
X137764523Y-56112143D01*
X137669285Y-55969286D01*
X137621666Y-55778810D01*
X137621666Y-55397857D01*
X137669285Y-55302619D01*
X137716904Y-55255000D01*
X137812142Y-55207381D01*
X138002619Y-55207381D01*
X138097857Y-55255000D01*
X138145476Y-55302619D01*
X138193095Y-55397857D01*
X138193095Y-55635952D01*
X138145476Y-55731190D01*
X138097857Y-55778810D01*
X138002619Y-55826429D01*
X137812142Y-55826429D01*
X137716904Y-55778810D01*
X137669285Y-55731190D01*
X137621666Y-55635952D01*
X137240714Y-55921667D02*
X136764523Y-55921667D01*
X137335952Y-56207381D02*
X137002619Y-55207381D01*
X136669285Y-56207381D01*
X128545476Y-56159762D02*
X128402619Y-56207381D01*
X128164523Y-56207381D01*
X128069285Y-56159762D01*
X128021666Y-56112143D01*
X127974047Y-56016905D01*
X127974047Y-55921667D01*
X128021666Y-55826429D01*
X128069285Y-55778810D01*
X128164523Y-55731190D01*
X128355000Y-55683571D01*
X128450238Y-55635952D01*
X128497857Y-55588333D01*
X128545476Y-55493095D01*
X128545476Y-55397857D01*
X128497857Y-55302619D01*
X128450238Y-55255000D01*
X128355000Y-55207381D01*
X128116904Y-55207381D01*
X127974047Y-55255000D01*
X127402619Y-55635952D02*
X127497857Y-55588333D01*
X127545476Y-55540714D01*
X127593095Y-55445476D01*
X127593095Y-55397857D01*
X127545476Y-55302619D01*
X127497857Y-55255000D01*
X127402619Y-55207381D01*
X127212142Y-55207381D01*
X127116904Y-55255000D01*
X127069285Y-55302619D01*
X127021666Y-55397857D01*
X127021666Y-55445476D01*
X127069285Y-55540714D01*
X127116904Y-55588333D01*
X127212142Y-55635952D01*
X127402619Y-55635952D01*
X127497857Y-55683571D01*
X127545476Y-55731190D01*
X127593095Y-55826429D01*
X127593095Y-56016905D01*
X127545476Y-56112143D01*
X127497857Y-56159762D01*
X127402619Y-56207381D01*
X127212142Y-56207381D01*
X127116904Y-56159762D01*
X127069285Y-56112143D01*
X127021666Y-56016905D01*
X127021666Y-55826429D01*
X127069285Y-55731190D01*
X127116904Y-55683571D01*
X127212142Y-55635952D01*
X126640714Y-55921667D02*
X126164523Y-55921667D01*
X126735952Y-56207381D02*
X126402619Y-55207381D01*
X126069285Y-56207381D01*
X117945476Y-56159762D02*
X117802619Y-56207381D01*
X117564523Y-56207381D01*
X117469285Y-56159762D01*
X117421666Y-56112143D01*
X117374047Y-56016905D01*
X117374047Y-55921667D01*
X117421666Y-55826429D01*
X117469285Y-55778810D01*
X117564523Y-55731190D01*
X117755000Y-55683571D01*
X117850238Y-55635952D01*
X117897857Y-55588333D01*
X117945476Y-55493095D01*
X117945476Y-55397857D01*
X117897857Y-55302619D01*
X117850238Y-55255000D01*
X117755000Y-55207381D01*
X117516904Y-55207381D01*
X117374047Y-55255000D01*
X117040714Y-55207381D02*
X116374047Y-55207381D01*
X116802619Y-56207381D01*
X116040714Y-55921667D02*
X115564523Y-55921667D01*
X116135952Y-56207381D02*
X115802619Y-55207381D01*
X115469285Y-56207381D01*
X107345476Y-56159762D02*
X107202619Y-56207381D01*
X106964523Y-56207381D01*
X106869285Y-56159762D01*
X106821666Y-56112143D01*
X106774047Y-56016905D01*
X106774047Y-55921667D01*
X106821666Y-55826429D01*
X106869285Y-55778810D01*
X106964523Y-55731190D01*
X107155000Y-55683571D01*
X107250238Y-55635952D01*
X107297857Y-55588333D01*
X107345476Y-55493095D01*
X107345476Y-55397857D01*
X107297857Y-55302619D01*
X107250238Y-55255000D01*
X107155000Y-55207381D01*
X106916904Y-55207381D01*
X106774047Y-55255000D01*
X105916904Y-55207381D02*
X106107381Y-55207381D01*
X106202619Y-55255000D01*
X106250238Y-55302619D01*
X106345476Y-55445476D01*
X106393095Y-55635952D01*
X106393095Y-56016905D01*
X106345476Y-56112143D01*
X106297857Y-56159762D01*
X106202619Y-56207381D01*
X106012142Y-56207381D01*
X105916904Y-56159762D01*
X105869285Y-56112143D01*
X105821666Y-56016905D01*
X105821666Y-55778810D01*
X105869285Y-55683571D01*
X105916904Y-55635952D01*
X106012142Y-55588333D01*
X106202619Y-55588333D01*
X106297857Y-55635952D01*
X106345476Y-55683571D01*
X106393095Y-55778810D01*
X105440714Y-55921667D02*
X104964523Y-55921667D01*
X105535952Y-56207381D02*
X105202619Y-55207381D01*
X104869285Y-56207381D01*
X96745476Y-56159762D02*
X96602619Y-56207381D01*
X96364523Y-56207381D01*
X96269285Y-56159762D01*
X96221666Y-56112143D01*
X96174047Y-56016905D01*
X96174047Y-55921667D01*
X96221666Y-55826429D01*
X96269285Y-55778810D01*
X96364523Y-55731190D01*
X96555000Y-55683571D01*
X96650238Y-55635952D01*
X96697857Y-55588333D01*
X96745476Y-55493095D01*
X96745476Y-55397857D01*
X96697857Y-55302619D01*
X96650238Y-55255000D01*
X96555000Y-55207381D01*
X96316904Y-55207381D01*
X96174047Y-55255000D01*
X95269285Y-55207381D02*
X95745476Y-55207381D01*
X95793095Y-55683571D01*
X95745476Y-55635952D01*
X95650238Y-55588333D01*
X95412142Y-55588333D01*
X95316904Y-55635952D01*
X95269285Y-55683571D01*
X95221666Y-55778810D01*
X95221666Y-56016905D01*
X95269285Y-56112143D01*
X95316904Y-56159762D01*
X95412142Y-56207381D01*
X95650238Y-56207381D01*
X95745476Y-56159762D01*
X95793095Y-56112143D01*
X94840714Y-55921667D02*
X94364523Y-55921667D01*
X94935952Y-56207381D02*
X94602619Y-55207381D01*
X94269285Y-56207381D01*
X86145476Y-56159762D02*
X86002619Y-56207381D01*
X85764523Y-56207381D01*
X85669285Y-56159762D01*
X85621666Y-56112143D01*
X85574047Y-56016905D01*
X85574047Y-55921667D01*
X85621666Y-55826429D01*
X85669285Y-55778810D01*
X85764523Y-55731190D01*
X85955000Y-55683571D01*
X86050238Y-55635952D01*
X86097857Y-55588333D01*
X86145476Y-55493095D01*
X86145476Y-55397857D01*
X86097857Y-55302619D01*
X86050238Y-55255000D01*
X85955000Y-55207381D01*
X85716904Y-55207381D01*
X85574047Y-55255000D01*
X84716904Y-55540714D02*
X84716904Y-56207381D01*
X84955000Y-55159762D02*
X85193095Y-55874048D01*
X84574047Y-55874048D01*
X84240714Y-55921667D02*
X83764523Y-55921667D01*
X84335952Y-56207381D02*
X84002619Y-55207381D01*
X83669285Y-56207381D01*
X75545476Y-56159762D02*
X75402619Y-56207381D01*
X75164523Y-56207381D01*
X75069285Y-56159762D01*
X75021666Y-56112143D01*
X74974047Y-56016905D01*
X74974047Y-55921667D01*
X75021666Y-55826429D01*
X75069285Y-55778810D01*
X75164523Y-55731190D01*
X75355000Y-55683571D01*
X75450238Y-55635952D01*
X75497857Y-55588333D01*
X75545476Y-55493095D01*
X75545476Y-55397857D01*
X75497857Y-55302619D01*
X75450238Y-55255000D01*
X75355000Y-55207381D01*
X75116904Y-55207381D01*
X74974047Y-55255000D01*
X74640714Y-55207381D02*
X74021666Y-55207381D01*
X74355000Y-55588333D01*
X74212142Y-55588333D01*
X74116904Y-55635952D01*
X74069285Y-55683571D01*
X74021666Y-55778810D01*
X74021666Y-56016905D01*
X74069285Y-56112143D01*
X74116904Y-56159762D01*
X74212142Y-56207381D01*
X74497857Y-56207381D01*
X74593095Y-56159762D01*
X74640714Y-56112143D01*
X73640714Y-55921667D02*
X73164523Y-55921667D01*
X73735952Y-56207381D02*
X73402619Y-55207381D01*
X73069285Y-56207381D01*
X64945476Y-56159762D02*
X64802619Y-56207381D01*
X64564523Y-56207381D01*
X64469285Y-56159762D01*
X64421666Y-56112143D01*
X64374047Y-56016905D01*
X64374047Y-55921667D01*
X64421666Y-55826429D01*
X64469285Y-55778810D01*
X64564523Y-55731190D01*
X64755000Y-55683571D01*
X64850238Y-55635952D01*
X64897857Y-55588333D01*
X64945476Y-55493095D01*
X64945476Y-55397857D01*
X64897857Y-55302619D01*
X64850238Y-55255000D01*
X64755000Y-55207381D01*
X64516904Y-55207381D01*
X64374047Y-55255000D01*
X63993095Y-55302619D02*
X63945476Y-55255000D01*
X63850238Y-55207381D01*
X63612142Y-55207381D01*
X63516904Y-55255000D01*
X63469285Y-55302619D01*
X63421666Y-55397857D01*
X63421666Y-55493095D01*
X63469285Y-55635952D01*
X64040714Y-56207381D01*
X63421666Y-56207381D01*
X63040714Y-55921667D02*
X62564523Y-55921667D01*
X63135952Y-56207381D02*
X62802619Y-55207381D01*
X62469285Y-56207381D01*
X54345476Y-56159762D02*
X54202619Y-56207381D01*
X53964523Y-56207381D01*
X53869285Y-56159762D01*
X53821666Y-56112143D01*
X53774047Y-56016905D01*
X53774047Y-55921667D01*
X53821666Y-55826429D01*
X53869285Y-55778810D01*
X53964523Y-55731190D01*
X54155000Y-55683571D01*
X54250238Y-55635952D01*
X54297857Y-55588333D01*
X54345476Y-55493095D01*
X54345476Y-55397857D01*
X54297857Y-55302619D01*
X54250238Y-55255000D01*
X54155000Y-55207381D01*
X53916904Y-55207381D01*
X53774047Y-55255000D01*
X52821666Y-56207381D02*
X53393095Y-56207381D01*
X53107381Y-56207381D02*
X53107381Y-55207381D01*
X53202619Y-55350238D01*
X53297857Y-55445476D01*
X53393095Y-55493095D01*
X52440714Y-55921667D02*
X51964523Y-55921667D01*
X52535952Y-56207381D02*
X52202619Y-55207381D01*
X51869285Y-56207381D01*
X43745476Y-56159762D02*
X43602619Y-56207381D01*
X43364523Y-56207381D01*
X43269285Y-56159762D01*
X43221666Y-56112143D01*
X43174047Y-56016905D01*
X43174047Y-55921667D01*
X43221666Y-55826429D01*
X43269285Y-55778810D01*
X43364523Y-55731190D01*
X43555000Y-55683571D01*
X43650238Y-55635952D01*
X43697857Y-55588333D01*
X43745476Y-55493095D01*
X43745476Y-55397857D01*
X43697857Y-55302619D01*
X43650238Y-55255000D01*
X43555000Y-55207381D01*
X43316904Y-55207381D01*
X43174047Y-55255000D01*
X42555000Y-55207381D02*
X42459761Y-55207381D01*
X42364523Y-55255000D01*
X42316904Y-55302619D01*
X42269285Y-55397857D01*
X42221666Y-55588333D01*
X42221666Y-55826429D01*
X42269285Y-56016905D01*
X42316904Y-56112143D01*
X42364523Y-56159762D01*
X42459761Y-56207381D01*
X42555000Y-56207381D01*
X42650238Y-56159762D01*
X42697857Y-56112143D01*
X42745476Y-56016905D01*
X42793095Y-55826429D01*
X42793095Y-55588333D01*
X42745476Y-55397857D01*
X42697857Y-55302619D01*
X42650238Y-55255000D01*
X42555000Y-55207381D01*
X41840714Y-55921667D02*
X41364523Y-55921667D01*
X41935952Y-56207381D02*
X41602619Y-55207381D01*
X41269285Y-56207381D01*
M02*
