G04 #@! TF.FileFunction,Soldermask,Top*
%FSLAX46Y46*%
G04 Gerber Fmt 4.6, Leading zero omitted, Abs format (unit mm)*
G04 Created by KiCad (PCBNEW 4.0.2-4+6225~38~ubuntu14.04.1-stable) date Mon 13 Jun 2016 20:57:54 BST*
%MOMM*%
G01*
G04 APERTURE LIST*
%ADD10C,0.100000*%
%ADD11R,1.400000X4.750000*%
G04 APERTURE END LIST*
D10*
D11*
X173300000Y-212500000D03*
X171100000Y-212500000D03*
X162700000Y-212500000D03*
X160500000Y-212500000D03*
X152100000Y-212500000D03*
X149900000Y-212500000D03*
X141500000Y-212500000D03*
X139300000Y-212500000D03*
X130900000Y-212500000D03*
X128700000Y-212500000D03*
X120300000Y-212500000D03*
X118100000Y-212500000D03*
X109700000Y-212500000D03*
X107500000Y-212500000D03*
X99100000Y-212500000D03*
X96900000Y-212500000D03*
X88500000Y-212500000D03*
X86300000Y-212500000D03*
X77900000Y-212500000D03*
X75700000Y-212500000D03*
X67300000Y-212500000D03*
X65100000Y-212500000D03*
X56700000Y-212500000D03*
X54500000Y-212500000D03*
X46100000Y-212500000D03*
X43900000Y-212500000D03*
X173300000Y-182000000D03*
X171100000Y-182000000D03*
X162700000Y-182000000D03*
X160500000Y-182000000D03*
X152100000Y-182000000D03*
X149900000Y-182000000D03*
X141500000Y-182000000D03*
X139300000Y-182000000D03*
X130900000Y-182000000D03*
X128700000Y-182000000D03*
X120300000Y-182000000D03*
X118100000Y-182000000D03*
X109700000Y-182000000D03*
X107500000Y-182000000D03*
X99100000Y-182000000D03*
X96900000Y-182000000D03*
X88500000Y-182000000D03*
X86300000Y-182000000D03*
X77900000Y-182000000D03*
X75700000Y-182000000D03*
X67300000Y-182000000D03*
X65100000Y-182000000D03*
X56700000Y-182000000D03*
X54500000Y-182000000D03*
X46100000Y-182000000D03*
X43900000Y-182000000D03*
X173300000Y-151500000D03*
X171100000Y-151500000D03*
X162700000Y-151500000D03*
X160500000Y-151500000D03*
X152100000Y-151500000D03*
X149900000Y-151500000D03*
X141500000Y-151500000D03*
X139300000Y-151500000D03*
X130900000Y-151500000D03*
X128700000Y-151500000D03*
X120300000Y-151500000D03*
X118100000Y-151500000D03*
X109700000Y-151500000D03*
X107500000Y-151500000D03*
X99100000Y-151500000D03*
X96900000Y-151500000D03*
X88500000Y-151500000D03*
X86300000Y-151500000D03*
X77900000Y-151500000D03*
X75700000Y-151500000D03*
X67300000Y-151500000D03*
X65100000Y-151500000D03*
X56700000Y-151500000D03*
X54500000Y-151500000D03*
X46100000Y-151500000D03*
X43900000Y-151500000D03*
X173300000Y-121000000D03*
X171100000Y-121000000D03*
X162700000Y-121000000D03*
X160500000Y-121000000D03*
X152100000Y-121000000D03*
X149900000Y-121000000D03*
X141500000Y-121000000D03*
X139300000Y-121000000D03*
X130900000Y-121000000D03*
X128700000Y-121000000D03*
X120300000Y-121000000D03*
X118100000Y-121000000D03*
X109700000Y-121000000D03*
X107500000Y-121000000D03*
X99100000Y-121000000D03*
X96900000Y-121000000D03*
X88500000Y-121000000D03*
X86300000Y-121000000D03*
X77900000Y-121000000D03*
X75700000Y-121000000D03*
X67300000Y-121000000D03*
X65100000Y-121000000D03*
X56700000Y-121000000D03*
X54500000Y-121000000D03*
X46100000Y-121000000D03*
X43900000Y-121000000D03*
X173300000Y-90500000D03*
X171100000Y-90500000D03*
X162700000Y-90500000D03*
X160500000Y-90500000D03*
X152100000Y-90500000D03*
X149900000Y-90500000D03*
X141500000Y-90500000D03*
X139300000Y-90500000D03*
X130900000Y-90500000D03*
X128700000Y-90500000D03*
X120300000Y-90500000D03*
X118100000Y-90500000D03*
X109700000Y-90500000D03*
X107500000Y-90500000D03*
X99100000Y-90500000D03*
X96900000Y-90500000D03*
X88500000Y-90500000D03*
X86300000Y-90500000D03*
X77900000Y-90500000D03*
X75700000Y-90500000D03*
X67300000Y-90500000D03*
X65100000Y-90500000D03*
X56700000Y-90500000D03*
X54500000Y-90500000D03*
X46100000Y-90500000D03*
X43900000Y-90500000D03*
X173300000Y-60000000D03*
X171100000Y-60000000D03*
X162700000Y-60000000D03*
X160500000Y-60000000D03*
X152100000Y-60000000D03*
X149900000Y-60000000D03*
X141500000Y-60000000D03*
X139300000Y-60000000D03*
X130900000Y-60000000D03*
X128700000Y-60000000D03*
X120300000Y-60000000D03*
X118100000Y-60000000D03*
X109700000Y-60000000D03*
X107500000Y-60000000D03*
X99100000Y-60000000D03*
X96900000Y-60000000D03*
X88500000Y-60000000D03*
X86300000Y-60000000D03*
X77900000Y-60000000D03*
X75700000Y-60000000D03*
X67300000Y-60000000D03*
X65100000Y-60000000D03*
X56700000Y-60000000D03*
X54500000Y-60000000D03*
X46100000Y-60000000D03*
X43900000Y-60000000D03*
X173300000Y-29500000D03*
X171100000Y-29500000D03*
X162700000Y-29500000D03*
X160500000Y-29500000D03*
X152100000Y-29500000D03*
X149900000Y-29500000D03*
X141500000Y-29500000D03*
X139300000Y-29500000D03*
X130900000Y-29500000D03*
X128700000Y-29500000D03*
X120300000Y-29500000D03*
X118100000Y-29500000D03*
X109700000Y-29500000D03*
X107500000Y-29500000D03*
X99100000Y-29500000D03*
X96900000Y-29500000D03*
X88500000Y-29500000D03*
X86300000Y-29500000D03*
X77900000Y-29500000D03*
X75700000Y-29500000D03*
X67300000Y-29500000D03*
X65100000Y-29500000D03*
X56700000Y-29500000D03*
X54500000Y-29500000D03*
X46100000Y-29500000D03*
X43900000Y-29500000D03*
M02*
