%FSLAX23Y23*%
%MOIN*%
G04 EasyPC Gerber Version 18.0.6 Build 3620 *
%ADD20R,0.05200X0.05200*%
%ADD90R,0.06000X0.06000*%
%ADD16C,0.00500*%
%ADD10C,0.01200*%
%ADD27C,0.04000*%
%ADD21C,0.05200*%
%ADD88C,0.05906*%
%ADD91C,0.06000*%
%ADD23C,0.07874*%
%ADD18C,0.08000*%
%ADD15C,0.10000*%
%ADD96C,0.11000*%
%ADD17C,0.19685*%
%ADD19C,0.20000*%
%ADD89C,0.25000*%
X0Y0D02*
D02*
D10*
X6896Y12801D02*
X3746D01*
Y7723*
X2447*
Y3392*
X3746*
Y85*
X6896*
Y12801*
X2974Y3999D02*
G75*
G02Y3887J-56D01*
G01*
G75*
G02Y3999J56*
G01*
X3274D02*
G75*
G02Y3887J-56D01*
G01*
G75*
G02Y3999J56*
G01*
X3574D02*
G75*
G02Y3887J-56D01*
G01*
G75*
G02Y3999J56*
G01*
X3829Y9455D02*
G75*
G02X4057I114D01*
G01*
G75*
G02X3829I-114*
G01*
X3974Y4059D02*
G75*
G02Y3827J-116D01*
G01*
G75*
G02Y4059J116*
G01*
Y8259D02*
G75*
G02Y8027J-116D01*
G01*
G75*
G02Y8259J116*
G01*
X4117Y1171D02*
G75*
G02X4399I141D01*
G01*
G75*
G02X4117I-141*
G01*
Y3171D02*
G75*
G02X4399I141D01*
G01*
G75*
G02X4117I-141*
G01*
Y10423D02*
G75*
G02X4399I141D01*
G01*
G75*
G02X4117I-141*
G01*
Y12423D02*
G75*
G02X4399I141D01*
G01*
G75*
G02X4117I-141*
G01*
X4142Y1471D02*
G75*
G02X4374I116D01*
G01*
G75*
G02X4142I-116*
G01*
Y2871D02*
G75*
G02X4374I116D01*
G01*
G75*
G02X4142I-116*
G01*
Y10723D02*
G75*
G02X4374I116D01*
G01*
G75*
G02X4142I-116*
G01*
Y12123D02*
G75*
G02X4374I116D01*
G01*
G75*
G02X4142I-116*
G01*
X4202Y1871D02*
G75*
G02X4314I56D01*
G01*
G75*
G02X4202I-56*
G01*
Y2171D02*
G75*
G02X4314I56D01*
G01*
G75*
G02X4202I-56*
G01*
Y2471D02*
G75*
G02X4314I56D01*
G01*
G75*
G02X4202I-56*
G01*
Y11123D02*
G75*
G02X4314I56D01*
G01*
G75*
G02X4202I-56*
G01*
Y11423D02*
G75*
G02X4314I56D01*
G01*
G75*
G02X4202I-56*
G01*
Y11723D02*
G75*
G02X4314I56D01*
G01*
G75*
G02X4202I-56*
G01*
X4274Y4084D02*
G75*
G02Y3802J-141D01*
G01*
G75*
G02Y4084J141*
G01*
Y8284D02*
G75*
G02Y8002J-141D01*
G01*
G75*
G02Y8284J141*
G01*
X4616Y400D02*
G75*
G02X4845I114D01*
G01*
G75*
G02X4616I-114*
G01*
X4663Y4435D02*
G75*
G02X4735I36D01*
G01*
G75*
G02X4663I-36*
G01*
Y4671D02*
G75*
G02X4735I36D01*
G01*
G75*
G02X4663I-36*
G01*
Y4908D02*
G75*
G02X4735I36D01*
G01*
G75*
G02X4663I-36*
G01*
Y6030D02*
G75*
G02X4735I36D01*
G01*
G75*
G02X4663I-36*
G01*
Y6266D02*
G75*
G02X4735I36D01*
G01*
G75*
G02X4663I-36*
G01*
Y6502D02*
G75*
G02X4735I36D01*
G01*
G75*
G02X4663I-36*
G01*
X4714Y1069D02*
G75*
G02X4786I36D01*
G01*
G75*
G02X4714I-36*
G01*
Y1305D02*
G75*
G02X4786I36D01*
G01*
G75*
G02X4714I-36*
G01*
Y1541D02*
G75*
G02X4786I36D01*
G01*
G75*
G02X4714I-36*
G01*
Y2526D02*
G75*
G02X4786I36D01*
G01*
G75*
G02X4714I-36*
G01*
Y2762D02*
G75*
G02X4786I36D01*
G01*
G75*
G02X4714I-36*
G01*
Y2998D02*
G75*
G02X4786I36D01*
G01*
G75*
G02X4714I-36*
G01*
Y10360D02*
G75*
G02X4786I36D01*
G01*
G75*
G02X4714I-36*
G01*
Y10597D02*
G75*
G02X4786I36D01*
G01*
G75*
G02X4714I-36*
G01*
Y10833D02*
G75*
G02X4786I36D01*
G01*
G75*
G02X4714I-36*
G01*
Y11876D02*
G75*
G02X4786I36D01*
G01*
G75*
G02X4714I-36*
G01*
Y12112D02*
G75*
G02X4786I36D01*
G01*
G75*
G02X4714I-36*
G01*
Y12349D02*
G75*
G02X4786I36D01*
G01*
G75*
G02X4714I-36*
G01*
X5147Y1069D02*
G75*
G02X5219I36D01*
G01*
G75*
G02X5147I-36*
G01*
Y1305D02*
G75*
G02X5219I36D01*
G01*
G75*
G02X5147I-36*
G01*
Y1541D02*
G75*
G02X5219I36D01*
G01*
G75*
G02X5147I-36*
G01*
Y2526D02*
G75*
G02X5219I36D01*
G01*
G75*
G02X5147I-36*
G01*
Y2762D02*
G75*
G02X5219I36D01*
G01*
G75*
G02X5147I-36*
G01*
Y2998D02*
G75*
G02X5219I36D01*
G01*
G75*
G02X5147I-36*
G01*
Y10360D02*
G75*
G02X5219I36D01*
G01*
G75*
G02X5147I-36*
G01*
Y10597D02*
G75*
G02X5219I36D01*
G01*
G75*
G02X5147I-36*
G01*
Y10833D02*
G75*
G02X5219I36D01*
G01*
G75*
G02X5147I-36*
G01*
Y11876D02*
G75*
G02X5219I36D01*
G01*
G75*
G02X5147I-36*
G01*
Y12112D02*
G75*
G02X5219I36D01*
G01*
G75*
G02X5147I-36*
G01*
Y12349D02*
G75*
G02X5219I36D01*
G01*
G75*
G02X5147I-36*
G01*
X5797Y1187D02*
G75*
G02X6026I114D01*
G01*
G75*
G02X5797I-114*
G01*
Y2368D02*
G75*
G02X6026I114D01*
G01*
G75*
G02X5797I-114*
G01*
Y3549D02*
G75*
G02X6026I114D01*
G01*
G75*
G02X5797I-114*
G01*
Y4730D02*
G75*
G02X6026I114D01*
G01*
G75*
G02X5797I-114*
G01*
Y5912D02*
G75*
G02X6026I114D01*
G01*
G75*
G02X5797I-114*
G01*
Y7093D02*
G75*
G02X6026I114D01*
G01*
G75*
G02X5797I-114*
G01*
Y8274D02*
G75*
G02X6026I114D01*
G01*
G75*
G02X5797I-114*
G01*
Y9455D02*
G75*
G02X6026I114D01*
G01*
G75*
G02X5797I-114*
G01*
Y10636D02*
G75*
G02X6026I114D01*
G01*
G75*
G02X5797I-114*
G01*
Y11817D02*
G75*
G02X6026I114D01*
G01*
G75*
G02X5797I-114*
G01*
X6386Y1116D02*
G75*
G02Y1258J71D01*
G01*
G75*
G02Y1116J-71*
G01*
Y2297D02*
G75*
G02Y2439J71D01*
G01*
G75*
G02Y2297J-71*
G01*
Y3478D02*
G75*
G02Y3620J71D01*
G01*
G75*
G02Y3478J-71*
G01*
Y4659D02*
G75*
G02Y4801J71D01*
G01*
G75*
G02Y4659J-71*
G01*
Y5841D02*
G75*
G02Y5983J71D01*
G01*
G75*
G02Y5841J-71*
G01*
Y7022D02*
G75*
G02Y7164J71D01*
G01*
G75*
G02Y7022J-71*
G01*
Y8203D02*
G75*
G02Y8345J71D01*
G01*
G75*
G02Y8203J-71*
G01*
Y9384D02*
G75*
G02Y9526J71D01*
G01*
G75*
G02Y9384J-71*
G01*
Y10565D02*
G75*
G02Y10707J71D01*
G01*
G75*
G02Y10565J-71*
G01*
Y11746D02*
G75*
G02Y11888J71D01*
G01*
G75*
G02Y11746J-71*
G01*
X6466Y1679D02*
G75*
G02X6577I55D01*
G01*
G75*
G02X6466I-55*
G01*
Y2860D02*
G75*
G02X6577I55D01*
G01*
G75*
G02X6466I-55*
G01*
Y4041D02*
G75*
G02X6577I55D01*
G01*
G75*
G02X6466I-55*
G01*
Y5223D02*
G75*
G02X6577I55D01*
G01*
G75*
G02X6466I-55*
G01*
Y6404D02*
G75*
G02X6577I55D01*
G01*
G75*
G02X6466I-55*
G01*
Y7585D02*
G75*
G02X6577I55D01*
G01*
G75*
G02X6466I-55*
G01*
Y8766D02*
G75*
G02X6577I55D01*
G01*
G75*
G02X6466I-55*
G01*
Y9947D02*
G75*
G02X6577I55D01*
G01*
G75*
G02X6466I-55*
G01*
Y11128D02*
G75*
G02X6577I55D01*
G01*
G75*
G02X6466I-55*
G01*
Y12309D02*
G75*
G02X6577I55D01*
G01*
G75*
G02X6466I-55*
G01*
X6565Y1778D02*
G75*
G02X6676I55D01*
G01*
G75*
G02X6565I-55*
G01*
Y2959D02*
G75*
G02X6676I55D01*
G01*
G75*
G02X6565I-55*
G01*
Y4140D02*
G75*
G02X6676I55D01*
G01*
G75*
G02X6565I-55*
G01*
Y5321D02*
G75*
G02X6676I55D01*
G01*
G75*
G02X6565I-55*
G01*
Y6502D02*
G75*
G02X6676I55D01*
G01*
G75*
G02X6565I-55*
G01*
Y7683D02*
G75*
G02X6676I55D01*
G01*
G75*
G02X6565I-55*
G01*
Y8864D02*
G75*
G02X6676I55D01*
G01*
G75*
G02X6565I-55*
G01*
Y10045D02*
G75*
G02X6676I55D01*
G01*
G75*
G02X6565I-55*
G01*
Y11226D02*
G75*
G02X6676I55D01*
G01*
G75*
G02X6565I-55*
G01*
Y12408D02*
G75*
G02X6676I55D01*
G01*
G75*
G02X6565I-55*
G01*
X6586Y1116D02*
G75*
G02Y1258J71D01*
G01*
G75*
G02Y1116J-71*
G01*
Y2297D02*
G75*
G02Y2439J71D01*
G01*
G75*
G02Y2297J-71*
G01*
Y3478D02*
G75*
G02Y3620J71D01*
G01*
G75*
G02Y3478J-71*
G01*
Y4659D02*
G75*
G02Y4801J71D01*
G01*
G75*
G02Y4659J-71*
G01*
Y5841D02*
G75*
G02Y5983J71D01*
G01*
G75*
G02Y5841J-71*
G01*
Y7022D02*
G75*
G02Y7164J71D01*
G01*
G75*
G02Y7022J-71*
G01*
Y8203D02*
G75*
G02Y8345J71D01*
G01*
G75*
G02Y8203J-71*
G01*
Y9384D02*
G75*
G02Y9526J71D01*
G01*
G75*
G02Y9384J-71*
G01*
Y10565D02*
G75*
G02Y10707J71D01*
G01*
G75*
G02Y10565J-71*
G01*
Y11746D02*
G75*
G02Y11888J71D01*
G01*
G75*
G02Y11746J-71*
G01*
X6663Y1679D02*
G75*
G02X6774I55D01*
G01*
G75*
G02X6663I-55*
G01*
Y1876D02*
G75*
G02X6774I55D01*
G01*
G75*
G02X6663I-55*
G01*
Y2860D02*
G75*
G02X6774I55D01*
G01*
G75*
G02X6663I-55*
G01*
Y3057D02*
G75*
G02X6774I55D01*
G01*
G75*
G02X6663I-55*
G01*
Y4041D02*
G75*
G02X6774I55D01*
G01*
G75*
G02X6663I-55*
G01*
Y4238D02*
G75*
G02X6774I55D01*
G01*
G75*
G02X6663I-55*
G01*
Y5223D02*
G75*
G02X6774I55D01*
G01*
G75*
G02X6663I-55*
G01*
Y5419D02*
G75*
G02X6774I55D01*
G01*
G75*
G02X6663I-55*
G01*
Y6404D02*
G75*
G02X6774I55D01*
G01*
G75*
G02X6663I-55*
G01*
Y6600D02*
G75*
G02X6774I55D01*
G01*
G75*
G02X6663I-55*
G01*
Y7585D02*
G75*
G02X6774I55D01*
G01*
G75*
G02X6663I-55*
G01*
Y7782D02*
G75*
G02X6774I55D01*
G01*
G75*
G02X6663I-55*
G01*
Y8766D02*
G75*
G02X6774I55D01*
G01*
G75*
G02X6663I-55*
G01*
Y8963D02*
G75*
G02X6774I55D01*
G01*
G75*
G02X6663I-55*
G01*
Y9947D02*
G75*
G02X6774I55D01*
G01*
G75*
G02X6663I-55*
G01*
Y10144D02*
G75*
G02X6774I55D01*
G01*
G75*
G02X6663I-55*
G01*
Y11128D02*
G75*
G02X6774I55D01*
G01*
G75*
G02X6663I-55*
G01*
Y11325D02*
G75*
G02X6774I55D01*
G01*
G75*
G02X6663I-55*
G01*
Y12309D02*
G75*
G02X6774I55D01*
G01*
G75*
G02X6663I-55*
G01*
Y12506D02*
G75*
G02X6774I55D01*
G01*
G75*
G02X6663I-55*
G01*
X6762Y1778D02*
G75*
G02X6872I55D01*
G01*
G75*
G02X6762I-55*
G01*
Y2959D02*
G75*
G02X6872I55D01*
G01*
G75*
G02X6762I-55*
G01*
Y4140D02*
G75*
G02X6872I55D01*
G01*
G75*
G02X6762I-55*
G01*
Y5321D02*
G75*
G02X6872I55D01*
G01*
G75*
G02X6762I-55*
G01*
Y6502D02*
G75*
G02X6872I55D01*
G01*
G75*
G02X6762I-55*
G01*
Y7683D02*
G75*
G02X6872I55D01*
G01*
G75*
G02X6762I-55*
G01*
Y8864D02*
G75*
G02X6872I55D01*
G01*
G75*
G02X6762I-55*
G01*
Y10045D02*
G75*
G02X6872I55D01*
G01*
G75*
G02X6762I-55*
G01*
Y11226D02*
G75*
G02X6872I55D01*
G01*
G75*
G02X6762I-55*
G01*
Y12408D02*
G75*
G02X6872I55D01*
G01*
G75*
G02X6762I-55*
G01*
X6786Y1116D02*
G75*
G02Y1258J71D01*
G01*
G75*
G02Y1116J-71*
G01*
Y2297D02*
G75*
G02Y2439J71D01*
G01*
G75*
G02Y2297J-71*
G01*
Y3478D02*
G75*
G02Y3620J71D01*
G01*
G75*
G02Y3478J-71*
G01*
Y4659D02*
G75*
G02Y4801J71D01*
G01*
G75*
G02Y4659J-71*
G01*
Y5841D02*
G75*
G02Y5983J71D01*
G01*
G75*
G02Y5841J-71*
G01*
Y7022D02*
G75*
G02Y7164J71D01*
G01*
G75*
G02Y7022J-71*
G01*
Y8203D02*
G75*
G02Y8345J71D01*
G01*
G75*
G02Y8203J-71*
G01*
Y9384D02*
G75*
G02Y9526J71D01*
G01*
G75*
G02Y9384J-71*
G01*
Y10565D02*
G75*
G02Y10707J71D01*
G01*
G75*
G02Y10565J-71*
G01*
Y11746D02*
G75*
G02Y11888J71D01*
G01*
G75*
G02Y11746J-71*
G01*
X2447Y3943D02*
G36*
Y3549D01*
X5797*
G75*
G02X6026I114*
G01*
X6315*
G75*
G02X6386Y3620I71*
G01*
G75*
G02X6457Y3549J-71*
G01*
X6515*
G75*
G02X6586Y3620I71*
G01*
G75*
G02X6657Y3549J-71*
G01*
X6715*
G75*
G02X6786Y3620I71*
G01*
G75*
G02X6857Y3549J-71*
G01*
X6896*
Y3943*
X4415*
G75*
G02X4274Y3802I-141*
G01*
G75*
G02X4133Y3943J141*
G01*
X4090*
G75*
G02X3974Y3827I-116*
G01*
G75*
G02X3858Y3943J116*
G01*
X3630*
G75*
G02X3574Y3887I-56*
G01*
G75*
G02X3518Y3943J56*
G01*
X3330*
G75*
G02X3274Y3887I-56*
G01*
G75*
G02X3218Y3943J56*
G01*
X3030*
G75*
G02X2974Y3887I-56*
G01*
G75*
G02X2918Y3943J56*
G01*
X2447*
G37*
X2918D02*
G36*
G75*
G02X2974Y3999I56D01*
G01*
G75*
G02X3030Y3943J-56*
G01*
X3218*
G75*
G02X3274Y3999I56*
G01*
G75*
G02X3330Y3943J-56*
G01*
X3518*
G75*
G02X3574Y3999I56*
G01*
G75*
G02X3630Y3943J-56*
G01*
X3858*
G75*
G02X3912Y4041I116*
G01*
X2447*
Y3943*
X2918*
G37*
X4133D02*
G36*
G75*
G02X4173Y4041I141J0D01*
G01*
X4035*
G75*
G02X4090Y3943I-61J-98*
G01*
X4133*
G37*
X6896D02*
G36*
Y4041D01*
X6774*
G75*
G02X6663I-55*
G01*
X6577*
G75*
G02X6466I-55*
G01*
X4375*
G75*
G02X4415Y3943I-101J-98*
G01*
X6896*
G37*
X3746Y9455D02*
G36*
Y8963D01*
X6663*
G75*
G02X6774I55*
G01*
X6896*
Y9455*
X6857*
G75*
G02X6786Y9384I-71*
G01*
G75*
G02X6715Y9455J71*
G01*
X6657*
G75*
G02X6586Y9384I-71*
G01*
G75*
G02X6515Y9455J71*
G01*
X6457*
G75*
G02X6386Y9384I-71*
G01*
G75*
G02X6315Y9455J71*
G01*
X6026*
G75*
G02X5797I-114*
G01*
X4057*
G75*
G02X3829I-114*
G01*
X3746*
G37*
X3829D02*
G36*
G75*
G02X4057I114D01*
G01*
X5797*
G75*
G02X6026I114*
G01*
X6315*
G75*
G02X6386Y9526I71*
G01*
G75*
G02X6457Y9455J-71*
G01*
X6515*
G75*
G02X6586Y9526I71*
G01*
G75*
G02X6657Y9455J-71*
G01*
X6715*
G75*
G02X6786Y9526I71*
G01*
G75*
G02X6857Y9455J-71*
G01*
X6896*
Y9947*
X6774*
G75*
G02X6663I-55*
G01*
X6577*
G75*
G02X6466I-55*
G01*
X3746*
Y9455*
X3829*
G37*
X3746Y8143D02*
G36*
Y7782D01*
X6663*
G75*
G02X6774I55*
G01*
X6896*
Y8143*
X4415*
G75*
G02X4274Y8002I-141*
G01*
G75*
G02X4133Y8143J141*
G01*
X4090*
G75*
G02X3974Y8027I-116*
G01*
G75*
G02X3858Y8143J116*
G01*
X3746*
G37*
X3858D02*
G36*
G75*
G02X3974Y8259I116D01*
G01*
G75*
G02X4090Y8143J-116*
G01*
X4133*
G75*
G02X4221Y8274I141*
G01*
X3746*
Y8143*
X3858*
G37*
X6896D02*
G36*
Y8274D01*
X6857*
G75*
G02X6786Y8203I-71*
G01*
G75*
G02X6715Y8274J71*
G01*
X6657*
G75*
G02X6586Y8203I-71*
G01*
G75*
G02X6515Y8274J71*
G01*
X6457*
G75*
G02X6386Y8203I-71*
G01*
G75*
G02X6315Y8274J71*
G01*
X6026*
G75*
G02X5797I-114*
G01*
X4327*
G75*
G02X4415Y8143I-53J-131*
G01*
X6896*
G37*
X3746Y1171D02*
G36*
Y1069D01*
X4161*
G75*
G02X4117Y1171I97J102*
G01*
X3746*
G37*
X4117D02*
G36*
G75*
G02X4214Y1305I141D01*
G01*
X3746*
Y1171*
X4117*
G37*
X4399D02*
G36*
G75*
G02X4355Y1069I-141D01*
G01*
X4714*
G75*
G02X4786I36*
G01*
X5147*
G75*
G02X5219I36*
G01*
X6896*
Y1171*
X6856*
G75*
G02X6786Y1116I-69J16*
G01*
G75*
G02X6717Y1171J71*
G01*
X6656*
G75*
G02X6586Y1116I-69J16*
G01*
G75*
G02X6517Y1171J71*
G01*
X6456*
G75*
G02X6386Y1116I-69J16*
G01*
G75*
G02X6317Y1171J71*
G01*
X6025*
G75*
G02X5798I-113J16*
G01*
X4399*
G37*
X5798D02*
G36*
G75*
G02X5797Y1187I113J16D01*
G01*
G75*
G02X6026I114*
G01*
G75*
G02X6025Y1171I-114J0*
G01*
X6317*
G75*
G02X6386Y1258I69J16*
G01*
G75*
G02X6456Y1171J-71*
G01*
X6517*
G75*
G02X6586Y1258I69J16*
G01*
G75*
G02X6656Y1171J-71*
G01*
X6717*
G75*
G02X6786Y1258I69J16*
G01*
G75*
G02X6856Y1171J-71*
G01*
X6896*
Y1305*
X5219*
G75*
G02X5147I-36*
G01*
X4786*
G75*
G02X4714I-36*
G01*
X4302*
G75*
G02X4399Y1171I-44J-134*
G01*
X5798*
G37*
X3746Y3171D02*
G36*
Y3057D01*
X4175*
G75*
G02X4117Y3171I83J114*
G01*
X3746*
G37*
X4117D02*
G36*
G75*
G02X4399I141D01*
G01*
X6896*
Y3549*
X6857*
G75*
G02X6786Y3478I-71*
G01*
G75*
G02X6715Y3549J71*
G01*
X6657*
G75*
G02X6586Y3478I-71*
G01*
G75*
G02X6515Y3549J71*
G01*
X6457*
G75*
G02X6386Y3478I-71*
G01*
G75*
G02X6315Y3549J71*
G01*
X6026*
G75*
G02X5797I-114*
G01*
X2447*
Y3392*
X3746*
Y3171*
X4117*
G37*
X4399D02*
G36*
G75*
G02X4341Y3057I-141D01*
G01*
X6663*
G75*
G02X6774I55*
G01*
X6896*
Y3171*
X4399*
G37*
X3746Y10423D02*
G36*
Y10360D01*
X4132*
G75*
G02X4117Y10423I126J63*
G01*
X3746*
G37*
X4117D02*
G36*
G75*
G02X4399I141D01*
G01*
X6896*
Y10597*
X6845*
G75*
G02X6786Y10565I-59J39*
G01*
G75*
G02X6727Y10597J71*
G01*
X6645*
G75*
G02X6586Y10565I-59J39*
G01*
G75*
G02X6527Y10597J71*
G01*
X6445*
G75*
G02X6386Y10565I-59J39*
G01*
G75*
G02X6327Y10597J71*
G01*
X6019*
G75*
G02X5804I-107J39*
G01*
X5219*
G75*
G02X5147I-36*
G01*
X4786*
G75*
G02X4714I-36*
G01*
X3746*
Y10423*
X4117*
G37*
X4399D02*
G36*
G75*
G02X4384Y10360I-141J0D01*
G01*
X4714*
G75*
G02X4786I36*
G01*
X5147*
G75*
G02X5219I36*
G01*
X6896*
Y10423*
X4399*
G37*
X3746Y12423D02*
G36*
Y12349D01*
X4138*
G75*
G02X4117Y12423I120J75*
G01*
X3746*
G37*
X4117D02*
G36*
G75*
G02X4144Y12506I141D01*
G01*
X3746*
Y12423*
X4117*
G37*
X4399D02*
G36*
G75*
G02X4377Y12349I-141J0D01*
G01*
X4714*
G75*
G02X4786I36*
G01*
X5147*
G75*
G02X5219I36*
G01*
X6483*
G75*
G02X6561I39J-39*
G01*
X6680*
G75*
G02X6758I39J-39*
G01*
X6896*
Y12423*
X6870*
G75*
G02X6872Y12408I-53J-16*
G01*
G75*
G02X6762I-55*
G01*
G75*
G02X6764Y12423I55*
G01*
X6673*
G75*
G02X6676Y12408I-53J-16*
G01*
G75*
G02X6565I-55*
G01*
G75*
G02X6567Y12423I55*
G01*
X4399*
G37*
X6567D02*
G36*
G75*
G02X6673I53J-16D01*
G01*
X6764*
G75*
G02X6870I53J-16*
G01*
X6896*
Y12506*
X6774*
G75*
G02X6663I-55*
G01*
X4372*
G75*
G02X4399Y12423I-114J-83*
G01*
X6567*
G37*
X3746Y1471D02*
G36*
Y1305D01*
X4214*
G75*
G02X4302I44J-134*
G01*
X4714*
G75*
G02X4786I36*
G01*
X5147*
G75*
G02X5219I36*
G01*
X6896*
Y1471*
X4374*
G75*
G02X4142I-116*
G01*
X3746*
G37*
X4142D02*
G36*
G75*
G02X4166Y1541I116J0D01*
G01*
X3746*
Y1471*
X4142*
G37*
X6896D02*
G36*
Y1541D01*
X5219*
G75*
G02X5147I-36*
G01*
X4786*
G75*
G02X4714I-36*
G01*
X4350*
G75*
G02X4374Y1471I-92J-70*
G01*
X6896*
G37*
X3746Y2871D02*
G36*
Y2762D01*
X4220*
G75*
G02X4142Y2871I38J109*
G01*
X3746*
G37*
X4142D02*
G36*
G75*
G02X4374I116D01*
G01*
X6467*
G75*
G02X6576I54J-11*
G01*
X6664*
G75*
G02X6773I54J-11*
G01*
X6896*
Y2998*
X6856*
G75*
G02X6872Y2959I-39J-39*
G01*
G75*
G02X6762I-55*
G01*
G75*
G02X6778Y2998I55*
G01*
X6659*
G75*
G02X6676Y2959I-39J-39*
G01*
G75*
G02X6565I-55*
G01*
G75*
G02X6581Y2998I55*
G01*
X5219*
G75*
G02X5147I-36*
G01*
X4786*
G75*
G02X4714I-36*
G01*
X3746*
Y2871*
X4142*
G37*
X4374D02*
G36*
G75*
G02X4296Y2762I-116D01*
G01*
X4714*
G75*
G02X4786I36*
G01*
X5147*
G75*
G02X5219I36*
G01*
X6896*
Y2871*
X6773*
G75*
G02X6774Y2860I-54J-11*
G01*
G75*
G02X6663I-55*
G01*
G75*
G02X6664Y2871I55J0*
G01*
X6576*
G75*
G02X6577Y2860I-54J-11*
G01*
G75*
G02X6466I-55*
G01*
G75*
G02X6467Y2871I55J0*
G01*
X4374*
G37*
X3746Y10723D02*
G36*
Y10597D01*
X4714*
G75*
G02X4786I36*
G01*
X5147*
G75*
G02X5219I36*
G01*
X5804*
G75*
G02X5797Y10636I107J39*
G01*
G75*
G02X5838Y10723I114*
G01*
X4374*
G75*
G02X4142I-116*
G01*
X3746*
G37*
X4142D02*
G36*
G75*
G02X4220Y10833I116D01*
G01*
X3746*
Y10723*
X4142*
G37*
X5838D02*
G36*
G75*
G02X5985I74J-87D01*
G01*
X6896*
Y10833*
X5219*
G75*
G02X5147I-36*
G01*
X4786*
G75*
G02X4714I-36*
G01*
X4296*
G75*
G02X4374Y10723I-38J-109*
G01*
X5838*
G37*
X5985D02*
G36*
G75*
G02X6026Y10636I-74J-87D01*
G01*
G75*
G02X6019Y10597I-114J0*
G01*
X6327*
G75*
G02X6386Y10707I59J39*
G01*
G75*
G02X6445Y10597J-71*
G01*
X6527*
G75*
G02X6586Y10707I59J39*
G01*
G75*
G02X6645Y10597J-71*
G01*
X6727*
G75*
G02X6786Y10707I59J39*
G01*
G75*
G02X6845Y10597J-71*
G01*
X6896*
Y10723*
X5985*
G37*
X3746Y12123D02*
G36*
Y11876D01*
X4714*
G75*
G02X4786I36*
G01*
X5147*
G75*
G02X5219I36*
G01*
X5814*
G75*
G02X6010I98J-59*
G01*
X6347*
G75*
G02X6386Y11888I39J-59*
G01*
G75*
G02X6426Y11876J-71*
G01*
X6547*
G75*
G02X6586Y11888I39J-59*
G01*
G75*
G02X6626Y11876J-71*
G01*
X6747*
G75*
G02X6786Y11888I39J-59*
G01*
G75*
G02X6826Y11876J-71*
G01*
X6896*
Y12123*
X5217*
G75*
G02X5219Y12112I-34J-11*
G01*
G75*
G02X5147I-36*
G01*
G75*
G02X5149Y12123I36J0*
G01*
X4784*
G75*
G02X4786Y12112I-34J-11*
G01*
G75*
G02X4714I-36*
G01*
G75*
G02X4716Y12123I36J0*
G01*
X4374*
G75*
G02X4142I-116*
G01*
X3746*
G37*
X4142D02*
G36*
G75*
G02X4374I116D01*
G01*
X4716*
G75*
G02X4784I34J-11*
G01*
X5149*
G75*
G02X5217I34J-11*
G01*
X6896*
Y12349*
X6758*
G75*
G02X6774Y12309I-39J-39*
G01*
G75*
G02X6663I-55*
G01*
G75*
G02X6680Y12349I55*
G01*
X6561*
G75*
G02X6577Y12309I-39J-39*
G01*
G75*
G02X6466I-55*
G01*
G75*
G02X6483Y12349I55*
G01*
X5219*
G75*
G02X5147I-36*
G01*
X4786*
G75*
G02X4714I-36*
G01*
X4377*
G75*
G02X4138I-120J75*
G01*
X3746*
Y12123*
X4142*
G37*
X3746Y1871D02*
G36*
Y1778D01*
X6565*
G75*
G02X6676I55*
G01*
X6762*
G75*
G02X6872I55*
G01*
X6896*
Y1871*
X6774*
G75*
G02X6663I-55J5*
G01*
X4314*
G75*
G02X4202I-56*
G01*
X3746*
G37*
X4202D02*
G36*
G75*
G02X4314I56D01*
G01*
X6663*
G75*
G02X6663Y1876I55J5*
G01*
G75*
G02X6774I55*
G01*
G75*
G02X6774Y1871I-55J0*
G01*
X6896*
Y2171*
X4314*
G75*
G02X4202I-56*
G01*
X3746*
Y1871*
X4202*
G37*
Y2171D02*
G36*
G75*
G02X4314I56D01*
G01*
X6896*
Y2368*
X6857*
G75*
G02X6786Y2297I-71*
G01*
G75*
G02X6715Y2368J71*
G01*
X6657*
G75*
G02X6586Y2297I-71*
G01*
G75*
G02X6515Y2368J71*
G01*
X6457*
G75*
G02X6386Y2297I-71*
G01*
G75*
G02X6315Y2368J71*
G01*
X6026*
G75*
G02X5797I-114*
G01*
X3746*
Y2171*
X4202*
G37*
X3746Y2471D02*
G36*
Y2368D01*
X5797*
G75*
G02X5862Y2471I114*
G01*
X4314*
G75*
G02X4202I-56*
G01*
X3746*
G37*
X4202D02*
G36*
G75*
G02X4244Y2526I56D01*
G01*
X3746*
Y2471*
X4202*
G37*
X5862D02*
G36*
G75*
G02X5961I50J-103D01*
G01*
X6896*
Y2526*
X5219*
G75*
G02X5147I-36*
G01*
X4786*
G75*
G02X4714I-36*
G01*
X4272*
G75*
G02X4314Y2471I-14J-54*
G01*
X5862*
G37*
X5961D02*
G36*
G75*
G02X6026Y2368I-50J-103D01*
G01*
X6315*
G75*
G02X6386Y2439I71*
G01*
G75*
G02X6457Y2368J-71*
G01*
X6515*
G75*
G02X6586Y2439I71*
G01*
G75*
G02X6657Y2368J-71*
G01*
X6715*
G75*
G02X6786Y2439I71*
G01*
G75*
G02X6857Y2368J-71*
G01*
X6896*
Y2471*
X5961*
G37*
X3746Y11123D02*
G36*
Y10833D01*
X4220*
G75*
G02X4296I38J-109*
G01*
X4714*
G75*
G02X4786I36*
G01*
X5147*
G75*
G02X5219I36*
G01*
X6896*
Y11123*
X6774*
G75*
G02X6663I-55J5*
G01*
X6577*
G75*
G02X6467I-55J5*
G01*
X4314*
G75*
G02X4202I-56*
G01*
X3746*
G37*
X4202D02*
G36*
G75*
G02X4314I56D01*
G01*
X6467*
G75*
G02X6466Y11128I55J5*
G01*
G75*
G02X6577I55*
G01*
G75*
G02X6577Y11123I-55J0*
G01*
X6663*
G75*
G02X6663Y11128I55J5*
G01*
G75*
G02X6774I55*
G01*
G75*
G02X6774Y11123I-55J0*
G01*
X6896*
Y11226*
X6872*
G75*
G02X6762I-55*
G01*
X6676*
G75*
G02X6565I-55*
G01*
X3746*
Y11123*
X4202*
G37*
X3746Y11423D02*
G36*
Y11325D01*
X6663*
G75*
G02X6774I55*
G01*
X6896*
Y11423*
X4314*
G75*
G02X4202I-56*
G01*
X3746*
G37*
X4202D02*
G36*
G75*
G02X4314I56D01*
G01*
X6896*
Y11723*
X5977*
G75*
G02X5846I-66J94*
G01*
X4314*
G75*
G02X4202I-56*
G01*
X3746*
Y11423*
X4202*
G37*
Y11723D02*
G36*
G75*
G02X4314I56D01*
G01*
X5846*
G75*
G02X5797Y11817I66J94*
G01*
G75*
G02X5814Y11876I114*
G01*
X5219*
G75*
G02X5147I-36*
G01*
X4786*
G75*
G02X4714I-36*
G01*
X3746*
Y11723*
X4202*
G37*
X6896D02*
G36*
Y11876D01*
X6826*
G75*
G02X6786Y11746I-39J-59*
G01*
G75*
G02X6747Y11876J71*
G01*
X6626*
G75*
G02X6586Y11746I-39J-59*
G01*
G75*
G02X6547Y11876J71*
G01*
X6426*
G75*
G02X6386Y11746I-39J-59*
G01*
G75*
G02X6347Y11876J71*
G01*
X6010*
G75*
G02X6026Y11817I-98J-59*
G01*
G75*
G02X5977Y11723I-114*
G01*
X6896*
G37*
X3746Y400D02*
G36*
Y85D01*
X6896*
Y400*
X4845*
G75*
G02X4616I-114*
G01*
X3746*
G37*
X4616D02*
G36*
G75*
G02X4845I114D01*
G01*
X6896*
Y1069*
X5219*
G75*
G02X5147I-36*
G01*
X4786*
G75*
G02X4714I-36*
G01*
X4355*
G75*
G02X4161I-97J102*
G01*
X3746*
Y400*
X4616*
G37*
X2447Y4435D02*
G36*
Y4238D01*
X6663*
G75*
G02X6774I55*
G01*
X6896*
Y4435*
X4735*
G75*
G02X4663I-36*
G01*
X2447*
G37*
X4663D02*
G36*
G75*
G02X4735I36D01*
G01*
X6896*
Y4671*
X6826*
G75*
G02X6786Y4659I-39J59*
G01*
G75*
G02X6747Y4671J71*
G01*
X6626*
G75*
G02X6586Y4659I-39J59*
G01*
G75*
G02X6547Y4671J71*
G01*
X6426*
G75*
G02X6386Y4659I-39J59*
G01*
G75*
G02X6347Y4671J71*
G01*
X6010*
G75*
G02X5814I-98J59*
G01*
X4735*
G75*
G02X4663I-36*
G01*
X2447*
Y4435*
X4663*
G37*
Y4671D02*
G36*
G75*
G02X4735I36D01*
G01*
X5814*
G75*
G02X5797Y4730I98J59*
G01*
G75*
G02X6026I114*
G01*
G75*
G02X6010Y4671I-114*
G01*
X6347*
G75*
G02X6386Y4801I39J59*
G01*
G75*
G02X6426Y4671J-71*
G01*
X6547*
G75*
G02X6586Y4801I39J59*
G01*
G75*
G02X6626Y4671J-71*
G01*
X6747*
G75*
G02X6786Y4801I39J59*
G01*
G75*
G02X6826Y4671J-71*
G01*
X6896*
Y4908*
X4735*
G75*
G02X4663I-36*
G01*
X2447*
Y4671*
X4663*
G37*
Y4908D02*
G36*
G75*
G02X4735I36D01*
G01*
X6896*
Y5223*
X6774*
G75*
G02X6663I-55*
G01*
X6577*
G75*
G02X6466I-55*
G01*
X2447*
Y4908*
X4663*
G37*
X2447Y6030D02*
G36*
Y5912D01*
X5797*
G75*
G02X6026I114*
G01*
X6315*
G75*
G02X6386Y5983I71*
G01*
G75*
G02X6457Y5912J-71*
G01*
X6515*
G75*
G02X6586Y5983I71*
G01*
G75*
G02X6657Y5912J-71*
G01*
X6715*
G75*
G02X6786Y5983I71*
G01*
G75*
G02X6857Y5912J-71*
G01*
X6896*
Y6030*
X4735*
G75*
G02X4663I-36*
G01*
X2447*
G37*
X4663D02*
G36*
G75*
G02X4735I36D01*
G01*
X6896*
Y6266*
X4735*
G75*
G02X4663I-36*
G01*
X2447*
Y6030*
X4663*
G37*
Y6266D02*
G36*
G75*
G02X4735I36D01*
G01*
X6896*
Y6404*
X6774*
G75*
G02X6663I-55*
G01*
X6577*
G75*
G02X6466I-55*
G01*
X2447*
Y6266*
X4663*
G37*
X2447Y6502D02*
G36*
Y6404D01*
X6466*
G75*
G02X6577I55*
G01*
X6663*
G75*
G02X6774I55*
G01*
X6896*
Y6502*
X6872*
G75*
G02X6762I-55*
G01*
X6676*
G75*
G02X6565I-55*
G01*
X4735*
G75*
G02X4663I-36*
G01*
X2447*
G37*
X4663D02*
G36*
G75*
G02X4735I36D01*
G01*
X6565*
G75*
G02X6676I55*
G01*
X6762*
G75*
G02X6872I55*
G01*
X6896*
Y6600*
X6774*
G75*
G02X6663I-55*
G01*
X2447*
Y6502*
X4663*
G37*
X4166Y1541D02*
G36*
G75*
G02X4350I92J-70D01*
G01*
X4714*
G75*
G02X4786I36*
G01*
X5147*
G75*
G02X5219I36*
G01*
X6896*
Y1679*
X6774*
G75*
G02X6663I-55*
G01*
X6577*
G75*
G02X6466I-55*
G01*
X3746*
Y1541*
X4166*
G37*
X4244Y2526D02*
G36*
G75*
G02X4272I14J-54D01*
G01*
X4714*
G75*
G02X4786I36*
G01*
X5147*
G75*
G02X5219I36*
G01*
X6896*
Y2762*
X5219*
G75*
G02X5147I-36*
G01*
X4786*
G75*
G02X4714I-36*
G01*
X4296*
G75*
G02X4220I-38J109*
G01*
X3746*
Y2526*
X4244*
G37*
X4714Y2998D02*
G36*
G75*
G02X4786I36D01*
G01*
X5147*
G75*
G02X5219I36*
G01*
X6581*
G75*
G02X6659I39J-39*
G01*
X6778*
G75*
G02X6856I39J-39*
G01*
X6896*
Y3057*
X6774*
G75*
G02X6663I-55*
G01*
X4341*
G75*
G02X4175I-83J114*
G01*
X3746*
Y2998*
X4714*
G37*
X3746Y10360D02*
G36*
Y10144D01*
X6663*
G75*
G02X6774I55*
G01*
X6896*
Y10360*
X5219*
G75*
G02X5147I-36*
G01*
X4786*
G75*
G02X4714I-36*
G01*
X4384*
G75*
G02X4132I-126J63*
G01*
X3746*
G37*
X2447Y5912D02*
G36*
Y5419D01*
X6663*
G75*
G02X6774I55*
G01*
X6896*
Y5912*
X6857*
G75*
G02X6786Y5841I-71*
G01*
G75*
G02X6715Y5912J71*
G01*
X6657*
G75*
G02X6586Y5841I-71*
G01*
G75*
G02X6515Y5912J71*
G01*
X6457*
G75*
G02X6386Y5841I-71*
G01*
G75*
G02X6315Y5912J71*
G01*
X6026*
G75*
G02X5797I-114*
G01*
X2447*
G37*
Y7093D02*
G36*
Y6600D01*
X6663*
G75*
G02X6774I55*
G01*
X6896*
Y7093*
X6857*
G75*
G02X6786Y7022I-71*
G01*
G75*
G02X6715Y7093J71*
G01*
X6657*
G75*
G02X6586Y7022I-71*
G01*
G75*
G02X6515Y7093J71*
G01*
X6457*
G75*
G02X6386Y7022I-71*
G01*
G75*
G02X6315Y7093J71*
G01*
X6026*
G75*
G02X5797I-114*
G01*
X2447*
G37*
X5797D02*
G36*
G75*
G02X6026I114D01*
G01*
X6315*
G75*
G02X6386Y7164I71*
G01*
G75*
G02X6457Y7093J-71*
G01*
X6515*
G75*
G02X6586Y7164I71*
G01*
G75*
G02X6657Y7093J-71*
G01*
X6715*
G75*
G02X6786Y7164I71*
G01*
G75*
G02X6857Y7093J-71*
G01*
X6896*
Y7585*
X6774*
G75*
G02X6663I-55*
G01*
X6577*
G75*
G02X6466I-55*
G01*
X2447*
Y7093*
X5797*
G37*
X4221Y8274D02*
G36*
G75*
G02X4274Y8284I53J-131D01*
G01*
G75*
G02X4327Y8274J-141*
G01*
X5797*
G75*
G02X6026I114*
G01*
X6315*
G75*
G02X6386Y8345I71*
G01*
G75*
G02X6457Y8274J-71*
G01*
X6515*
G75*
G02X6586Y8345I71*
G01*
G75*
G02X6657Y8274J-71*
G01*
X6715*
G75*
G02X6786Y8345I71*
G01*
G75*
G02X6857Y8274J-71*
G01*
X6896*
Y8766*
X6774*
G75*
G02X6663I-55*
G01*
X6577*
G75*
G02X6466I-55*
G01*
X3746*
Y8274*
X4221*
G37*
X6466Y1679D02*
G36*
G75*
G02X6577I55D01*
G01*
X6663*
G75*
G02X6774I55*
G01*
X6896*
Y1778*
X6872*
G75*
G02X6762I-55*
G01*
X6676*
G75*
G02X6565I-55*
G01*
X3746*
Y1679*
X6466*
G37*
X3912Y4041D02*
G36*
G75*
G02X3974Y4059I61J-98D01*
G01*
G75*
G02X4035Y4041I0J-116*
G01*
X4173*
G75*
G02X4274Y4084I101J-98*
G01*
G75*
G02X4375Y4041J-141*
G01*
X6466*
G75*
G02X6577I55*
G01*
X6663*
G75*
G02X6774I55*
G01*
X6896*
Y4140*
X6872*
G75*
G02X6762I-55*
G01*
X6676*
G75*
G02X6565I-55*
G01*
X2447*
Y4041*
X3912*
G37*
X6466Y5223D02*
G36*
G75*
G02X6577I55D01*
G01*
X6663*
G75*
G02X6774I55*
G01*
X6896*
Y5321*
X6872*
G75*
G02X6762I-55*
G01*
X6676*
G75*
G02X6565I-55*
G01*
X2447*
Y5223*
X6466*
G37*
Y7585D02*
G36*
G75*
G02X6577I55D01*
G01*
X6663*
G75*
G02X6774I55*
G01*
X6896*
Y7683*
X6872*
G75*
G02X6762I-55*
G01*
X6676*
G75*
G02X6565I-55*
G01*
X2447*
Y7585*
X6466*
G37*
Y8766D02*
G36*
G75*
G02X6577I55D01*
G01*
X6663*
G75*
G02X6774I55*
G01*
X6896*
Y8864*
X6872*
G75*
G02X6762I-55*
G01*
X6676*
G75*
G02X6565I-55*
G01*
X3746*
Y8766*
X6466*
G37*
Y9947D02*
G36*
G75*
G02X6577I55D01*
G01*
X6663*
G75*
G02X6774I55*
G01*
X6896*
Y10045*
X6872*
G75*
G02X6762I-55*
G01*
X6676*
G75*
G02X6565I-55*
G01*
X3746*
Y9947*
X6466*
G37*
X6565Y4140D02*
G36*
G75*
G02X6676I55D01*
G01*
X6762*
G75*
G02X6872I55*
G01*
X6896*
Y4238*
X6774*
G75*
G02X6663I-55*
G01*
X2447*
Y4140*
X6565*
G37*
Y5321D02*
G36*
G75*
G02X6676I55D01*
G01*
X6762*
G75*
G02X6872I55*
G01*
X6896*
Y5419*
X6774*
G75*
G02X6663I-55*
G01*
X2447*
Y5321*
X6565*
G37*
Y7683D02*
G36*
G75*
G02X6676I55D01*
G01*
X6762*
G75*
G02X6872I55*
G01*
X6896*
Y7782*
X6774*
G75*
G02X6663I-55*
G01*
X3746*
Y7723*
X2447*
Y7683*
X6565*
G37*
Y8864D02*
G36*
G75*
G02X6676I55D01*
G01*
X6762*
G75*
G02X6872I55*
G01*
X6896*
Y8963*
X6774*
G75*
G02X6663I-55*
G01*
X3746*
Y8864*
X6565*
G37*
Y10045D02*
G36*
G75*
G02X6676I55D01*
G01*
X6762*
G75*
G02X6872I55*
G01*
X6896*
Y10144*
X6774*
G75*
G02X6663I-55*
G01*
X3746*
Y10045*
X6565*
G37*
Y11226D02*
G36*
G75*
G02X6676I55D01*
G01*
X6762*
G75*
G02X6872I55*
G01*
X6896*
Y11325*
X6774*
G75*
G02X6663I-55*
G01*
X3746*
Y11226*
X6565*
G37*
X4144Y12506D02*
G36*
G75*
G02X4372I114J-83D01*
G01*
X6663*
G75*
G02X6774I55*
G01*
X6896*
Y12801*
X3746*
Y12506*
X4144*
G37*
D02*
D15*
X318Y6990D03*
X518Y6833D03*
X718D03*
X918D03*
X1118D03*
X1318Y6990D03*
D02*
D16*
X414Y4789D02*
X444Y4775D01*
X474*
X503Y4789*
X518Y4819*
Y4908*
X503Y4937*
X474Y4952*
X444*
X414Y4937*
X400Y4908*
Y4819*
X414Y4789*
X503Y4937*
X636Y4893D02*
X695Y4775D01*
X754Y4893*
X1108Y4775D02*
Y4952D01*
X1197*
X1226Y4937*
X1241Y4922*
X1256Y4893*
Y4834*
X1241Y4804*
X1226Y4789*
X1197Y4775*
X1108*
X1404D02*
Y4893D01*
Y4937D02*
X1699Y4849*
X1684Y4878D01*
X1655Y4893*
X1625*
X1596Y4878*
X1581Y4849*
Y4834*
X1596Y4804*
X1625Y4789*
X1655*
X1684Y4804*
X1699Y4834*
Y4893D02*
Y4775D01*
X1684Y4745*
X1655Y4730*
X1610*
X1581Y4745*
D02*
D17*
X400Y400D03*
Y5912D03*
Y12998D03*
X3943Y9455D03*
X4730Y400D03*
Y12998D03*
X5912Y1187D03*
Y2368D03*
Y3549D03*
Y4730D03*
Y5912D03*
Y7093D03*
Y8274D03*
Y9455D03*
Y10636D03*
Y11817D03*
X9061Y400D03*
Y1187D03*
Y2368D03*
Y3549D03*
Y4730D03*
Y5912D03*
Y7093D03*
Y8274D03*
Y9455D03*
Y10636D03*
Y11817D03*
Y12998D03*
D02*
D18*
X2358Y1871D03*
Y2471D03*
Y11123D03*
Y11723D03*
X2974Y3943D03*
Y8143D03*
X3274Y3943D03*
X3574D03*
Y8143D03*
X4258Y1871D03*
Y2171D03*
Y2471D03*
Y11123D03*
Y11423D03*
Y11723D03*
D02*
D19*
X2358Y1471D03*
Y2871D03*
Y10723D03*
Y12123D03*
X2574Y3943D03*
Y8143D03*
X3974Y3943D03*
Y8143D03*
X4258Y1471D03*
Y2871D03*
Y10723D03*
Y12123D03*
D02*
D20*
X1758Y2860D03*
X1877Y12112D03*
X3026Y8766D03*
D02*
D21*
X1856Y2860D03*
X1975Y12112D03*
X3124Y8766D03*
D02*
D23*
X1551Y2171D03*
Y2368D03*
X1561Y11384D03*
Y11581D03*
X1650Y2270D03*
Y2467D03*
X1660Y11482D03*
Y11679D03*
X1748Y2171D03*
Y2368D03*
X1758Y11384D03*
Y11581D03*
X3321Y8943D03*
Y9140D03*
X3420Y9041D03*
X3518Y8943D03*
Y9140D03*
X3616Y9041D03*
X6522Y1679D03*
Y1876D03*
Y2860D03*
Y3057D03*
Y4041D03*
Y4238D03*
Y5223D03*
Y5419D03*
Y6404D03*
Y6600D03*
Y7585D03*
Y7782D03*
Y8766D03*
Y8963D03*
Y9947D03*
Y10144D03*
Y11128D03*
Y11325D03*
Y12309D03*
Y12506D03*
X6620Y1778D03*
Y2959D03*
Y4140D03*
Y5321D03*
Y6502D03*
Y7683D03*
Y8864D03*
Y10045D03*
Y11226D03*
Y12408D03*
X6719Y1679D03*
Y1876D03*
Y2860D03*
Y3057D03*
Y4041D03*
Y4238D03*
Y5223D03*
Y5419D03*
Y6404D03*
Y6600D03*
Y7585D03*
Y7782D03*
Y8766D03*
Y8963D03*
Y9947D03*
Y10144D03*
Y11128D03*
Y11325D03*
Y12309D03*
Y12506D03*
X6817Y1778D03*
Y2959D03*
Y4140D03*
Y5321D03*
Y6502D03*
Y7683D03*
Y8864D03*
Y10045D03*
Y11226D03*
Y12408D03*
X7309Y1679D03*
Y1876D03*
Y2860D03*
Y3057D03*
Y4041D03*
Y4238D03*
Y5223D03*
Y5419D03*
Y6404D03*
Y6600D03*
Y7585D03*
Y7782D03*
Y8766D03*
Y8963D03*
Y9947D03*
Y10144D03*
Y11128D03*
Y11325D03*
Y12309D03*
Y12506D03*
X7408Y1778D03*
Y2959D03*
Y4140D03*
Y5321D03*
Y6502D03*
Y7683D03*
Y8864D03*
Y10045D03*
Y11226D03*
Y12408D03*
X7506Y1679D03*
Y1876D03*
Y2860D03*
Y3057D03*
Y4041D03*
Y4238D03*
Y5223D03*
Y5419D03*
Y6404D03*
Y6600D03*
Y7585D03*
Y7782D03*
Y8766D03*
Y8963D03*
Y9947D03*
Y10144D03*
Y11128D03*
Y11325D03*
Y12309D03*
Y12506D03*
X7604Y1778D03*
Y2959D03*
Y4140D03*
Y5321D03*
Y6502D03*
Y7683D03*
Y8864D03*
Y10045D03*
Y11226D03*
Y12408D03*
X8097Y1679D03*
Y1876D03*
Y2860D03*
Y3057D03*
Y4041D03*
Y4238D03*
Y5223D03*
Y5419D03*
Y6404D03*
Y6600D03*
Y7585D03*
Y7782D03*
Y8766D03*
Y8963D03*
Y9947D03*
Y10144D03*
Y11128D03*
Y11325D03*
Y12309D03*
Y12506D03*
X8195Y1778D03*
Y2959D03*
Y4140D03*
Y5321D03*
Y6502D03*
Y7683D03*
Y8864D03*
Y10045D03*
Y11226D03*
Y12408D03*
X8293Y1679D03*
Y1876D03*
Y2860D03*
Y3057D03*
Y4041D03*
Y4238D03*
Y5223D03*
Y5419D03*
Y6404D03*
Y6600D03*
Y7585D03*
Y7782D03*
Y8766D03*
Y8963D03*
Y9947D03*
Y10144D03*
Y11128D03*
Y11325D03*
Y12309D03*
Y12506D03*
X8392Y1778D03*
Y2959D03*
Y4140D03*
Y5321D03*
Y6502D03*
Y7683D03*
Y8864D03*
Y10045D03*
Y11226D03*
Y12408D03*
D02*
D27*
X4699Y4435D03*
Y4671D03*
Y4908D03*
Y6030D03*
Y6266D03*
Y6502D03*
X4750Y1069D03*
Y1305D03*
Y1541D03*
Y2526D03*
Y2762D03*
Y2998D03*
Y10360D03*
Y10597D03*
Y10833D03*
Y11876D03*
Y12112D03*
Y12349D03*
X5132Y4435D03*
Y4671D03*
Y4908D03*
Y6030D03*
Y6266D03*
Y6502D03*
X5183Y1069D03*
Y1305D03*
Y1541D03*
Y2526D03*
Y2762D03*
Y2998D03*
Y10360D03*
Y10597D03*
Y10833D03*
Y11876D03*
Y12112D03*
Y12349D03*
D02*
D88*
X2574Y3873D02*
Y3803D01*
Y4013D02*
Y4083D01*
X2644Y3943D02*
X2713D01*
X5123Y4435D02*
X5192D01*
X5123Y4671D02*
X5192D01*
X5123Y4908D02*
X5192D01*
X5123Y6030D02*
X5192D01*
X5123Y6266D02*
X5192D01*
X5123Y6502D02*
X5192D01*
X5132Y4426D02*
Y4495D01*
Y4445D02*
Y4376D01*
Y4662D02*
Y4731D01*
Y4681D02*
Y4612D01*
Y4898D02*
Y4967D01*
Y4917D02*
Y4848D01*
Y6020D02*
Y6089D01*
Y6039D02*
Y5970D01*
Y6256D02*
Y6325D01*
Y6275D02*
Y6206D01*
Y6493D02*
Y6562D01*
Y6512D02*
Y6443D01*
X5142Y4435D02*
X5073D01*
X5142Y4671D02*
X5073D01*
X5142Y4908D02*
X5073D01*
X5142Y6030D02*
X5073D01*
X5142Y6266D02*
X5073D01*
X5142Y6502D02*
X5073D01*
X6512Y1876D02*
X6443D01*
X6512Y3057D02*
X6443D01*
X6512Y4238D02*
X6443D01*
X6512Y5419D02*
X6443D01*
X6512Y6600D02*
X6443D01*
X6512Y7782D02*
X6443D01*
X6512Y8963D02*
X6443D01*
X6512Y10144D02*
X6443D01*
X6512Y11325D02*
X6443D01*
X6512Y12506D02*
X6443D01*
X6522Y1866D02*
Y1797D01*
Y1886D02*
Y1955D01*
Y3047D02*
Y2978D01*
Y3067D02*
Y3136D01*
Y4228D02*
Y4159D01*
Y4248D02*
Y4317D01*
Y5410D02*
Y5340D01*
Y5429D02*
Y5498D01*
Y6591D02*
Y6522D01*
Y6610D02*
Y6679D01*
Y7772D02*
Y7703D01*
Y7791D02*
Y7860D01*
Y8953D02*
Y8884D01*
Y8973D02*
Y9042D01*
Y10134D02*
Y10065D01*
Y10154D02*
Y10223D01*
Y11315D02*
Y11246D01*
Y11335D02*
Y11404D01*
Y12496D02*
Y12427D01*
Y12516D02*
Y12585D01*
X6532Y1876D02*
X6601D01*
X6532Y3057D02*
X6601D01*
X6532Y4238D02*
X6601D01*
X6532Y5419D02*
X6601D01*
X6532Y6600D02*
X6601D01*
X6532Y7782D02*
X6601D01*
X6532Y8963D02*
X6601D01*
X6532Y10144D02*
X6601D01*
X6532Y11325D02*
X6601D01*
X6532Y12506D02*
X6601D01*
D02*
D89*
X2274Y3943D03*
Y8143D03*
X2358Y1171D03*
Y3171D03*
Y10423D03*
Y12423D03*
X4258Y1171D03*
Y3171D03*
Y10423D03*
Y12423D03*
X4274Y3943D03*
Y8143D03*
D02*
D90*
X1699Y7785D03*
X1853Y5029D03*
X2601Y597D03*
X2680Y9927D03*
X3152Y692D03*
X3231Y9912D03*
D02*
D91*
X1699Y7585D03*
Y7685D03*
X1741Y4929D03*
X1853Y4829D03*
X2701Y597D03*
X2780Y9927D03*
X2801Y597D03*
X2880Y9927D03*
X3252Y580D03*
X3331Y9800D03*
X3352Y692D03*
X3431Y9912D03*
D02*
D96*
X6386Y1187D03*
Y2368D03*
Y3549D03*
Y4730D03*
Y5912D03*
Y7093D03*
Y8274D03*
Y9455D03*
Y10636D03*
Y11817D03*
X6586Y1187D03*
Y2368D03*
Y3549D03*
Y4730D03*
Y5912D03*
Y7093D03*
Y8274D03*
Y9455D03*
Y10636D03*
Y11817D03*
X6786Y1187D03*
Y2368D03*
Y3549D03*
Y4730D03*
Y5912D03*
Y7093D03*
Y8274D03*
Y9455D03*
Y10636D03*
Y11817D03*
X6986Y1187D03*
Y2368D03*
Y3549D03*
Y4730D03*
Y5912D03*
Y7093D03*
Y8274D03*
Y9455D03*
Y10636D03*
Y11817D03*
X7186Y1187D03*
Y2368D03*
Y3549D03*
Y4730D03*
Y5912D03*
Y7093D03*
Y8274D03*
Y9455D03*
Y10636D03*
Y11817D03*
X7386Y1187D03*
Y2368D03*
Y3549D03*
Y4730D03*
Y5912D03*
Y7093D03*
Y8274D03*
Y9455D03*
Y10636D03*
Y11817D03*
X7586Y1187D03*
Y2368D03*
Y3549D03*
Y4730D03*
Y5912D03*
Y7093D03*
Y8274D03*
Y9455D03*
Y10636D03*
Y11817D03*
X7786Y1187D03*
Y2368D03*
Y3549D03*
Y4730D03*
Y5912D03*
Y7093D03*
Y8274D03*
Y9455D03*
Y10636D03*
Y11817D03*
X7986Y1187D03*
Y2368D03*
Y3549D03*
Y4730D03*
Y5912D03*
Y7093D03*
Y8274D03*
Y9455D03*
Y10636D03*
Y11817D03*
X8186Y1187D03*
Y2368D03*
Y3549D03*
Y4730D03*
Y5912D03*
Y7093D03*
Y8274D03*
Y9455D03*
Y10636D03*
Y11817D03*
X8386Y1187D03*
Y2368D03*
Y3549D03*
Y4730D03*
Y5912D03*
Y7093D03*
Y8274D03*
Y9455D03*
Y10636D03*
Y11817D03*
X8586Y1187D03*
Y2368D03*
Y3549D03*
Y4730D03*
Y5912D03*
Y7093D03*
Y8274D03*
Y9455D03*
Y10636D03*
Y11817D03*
X0Y0D02*
M02*
