%FSLAX23Y23*%
%MOIN*%
G04 EasyPC Gerber Version 18.0.6 Build 3620 *
%ADD97R,0.07400X0.09800*%
%ADD20R,0.05200X0.05200*%
%ADD90R,0.06000X0.06000*%
%ADD11C,0.01000*%
%ADD10C,0.01200*%
%ADD26C,0.03937*%
%ADD27C,0.04000*%
%ADD21C,0.05200*%
%ADD88C,0.05906*%
%ADD91C,0.06000*%
%ADD23C,0.07874*%
%ADD18C,0.08000*%
%ADD98C,0.09843*%
%ADD15C,0.10000*%
%ADD96C,0.11000*%
%ADD25C,0.12598*%
%ADD28C,0.13780*%
%ADD92C,0.14173*%
%ADD17C,0.19685*%
%ADD19C,0.20000*%
%ADD71R,0.09800X0.07400*%
%ADD89C,0.25000*%
X0Y0D02*
D02*
D10*
X45Y85D02*
X9376D01*
Y13392*
X45*
Y85*
X285Y400D02*
G75*
G02X514I114D01*
G01*
G75*
G02X285I-114*
G01*
X318Y7056D02*
G75*
G02Y6924J-66D01*
G01*
G75*
G02Y7056J66*
G01*
X518Y6899D02*
G75*
G02Y6767J-66D01*
G01*
G75*
G02Y6899J66*
G01*
X718D02*
G75*
G02Y6767J-66D01*
G01*
G75*
G02Y6899J66*
G01*
X918D02*
G75*
G02Y6767J-66D01*
G01*
G75*
G02Y6899J66*
G01*
X1118D02*
G75*
G02Y6767J-66D01*
G01*
G75*
G02Y6899J66*
G01*
X1318Y7056D02*
G75*
G02Y6924J-66D01*
G01*
G75*
G02Y7056J66*
G01*
X1551Y2116D02*
G75*
G02Y2227J55D01*
G01*
G75*
G02Y2116J-55*
G01*
Y2313D02*
G75*
G02Y2424J55D01*
G01*
G75*
G02Y2313J-55*
G01*
X1561Y11329D02*
G75*
G02Y11439J55D01*
G01*
G75*
G02Y11329J-55*
G01*
Y11525D02*
G75*
G02Y11636J55D01*
G01*
G75*
G02Y11525J-55*
G01*
X1618Y2224D02*
G75*
G02Y2315I32J45D01*
G01*
Y2421*
G75*
G02Y2512I32J45*
G01*
Y2998*
G75*
G02X1640Y3020I22*
G01*
X2610*
G75*
G02X2632Y2998J-22*
G01*
Y2235*
G75*
G02X2625Y2219I-22J0*
G01*
X2737Y2107*
G75*
G02X2744Y2093I-15J-15*
G01*
Y636*
G75*
G02X2741Y626I-21J0*
G01*
X2739Y623*
G75*
G02X2747Y597I-38J-26*
G01*
G75*
G02X2655I-46*
G01*
G75*
G02X2702Y643I46*
G01*
Y2084*
X2632Y2154*
Y2019*
G75*
G02X2610Y1997I-22*
G01*
X2257*
Y1741*
X2610*
G75*
G02X2632Y1719J-22*
G01*
Y1344*
G75*
G02X2610Y1322I-22*
G01*
X1640*
G75*
G02X1618Y1344J22*
G01*
Y2224*
X1638Y11432D02*
G75*
G02Y11533I22J51D01*
G01*
Y11628*
G75*
G02Y11730I22J51*
G01*
Y12260*
G75*
G02X1660Y12282I22*
G01*
X2564*
G75*
G02X2586Y12260J-22*
G01*
Y11561*
G75*
G02X2579Y11545I-22*
G01*
X2795Y11330*
G75*
G02X2801Y11315I-15J-15*
G01*
Y9968*
G75*
G02X2826Y9927I-21J-41*
G01*
G75*
G02X2734I-46*
G01*
G75*
G02X2759Y9968I46*
G01*
Y11306*
X2586Y11479*
Y11256*
G75*
G02X2564Y11234I-22*
G01*
X2236*
Y11028*
X2564*
G75*
G02X2586Y11006J-22*
G01*
Y10587*
G75*
G02X2564Y10565I-22*
G01*
X1660*
G75*
G02X1638Y10587J22*
G01*
Y11432*
X1699Y7631D02*
G75*
G02Y7539J-46D01*
G01*
G75*
G02Y7631J46*
G01*
X1740Y7664D02*
G75*
G02X1699Y7639I-41J21D01*
G01*
G75*
G02Y7731J46*
G01*
G75*
G02X1740Y7706J-46*
G01*
X3480*
X3564Y7790*
Y7958*
X3110*
G75*
G02X3088Y7980J22*
G01*
Y8233*
X2857*
Y7980*
G75*
G02X2835Y7958I-22*
G01*
X2435*
G75*
G02X2413Y7980J22*
G01*
Y9041*
G75*
G02X2435Y9063I22*
G01*
X3369*
G75*
G02X3470I51J-22*
G01*
X3566*
G75*
G02X3667I51J-22*
G01*
X4110*
G75*
G02X4132Y9041J-22*
G01*
Y7980*
G75*
G02X4110Y7958I-22*
G01*
X3606*
Y7782*
G75*
G02X3600Y7767I-21*
G01*
X3503Y7670*
G75*
G02X3488Y7664I-15J15*
G01*
X1740*
X1782Y4908D02*
G75*
G02X1741Y4883I-41J21D01*
G01*
G75*
G02Y4975J46*
G01*
G75*
G02X1782Y4950J-46*
G01*
X2762*
G75*
G02X2777Y4944J-21*
G01*
X3275Y4445*
G75*
G02X3281Y4430I-15J-15*
G01*
Y3998*
G75*
G02X3274Y3887I-8J-55*
G01*
G75*
G02X3239Y3987J56*
G01*
Y4422*
X2753Y4908*
X1782*
X1894Y4808D02*
G75*
G02X1853Y4783I-41J21D01*
G01*
G75*
G02Y4875J46*
G01*
G75*
G02X1894Y4850J-46*
G01*
X2562*
G75*
G02X2577Y4844J-21*
G01*
X2975Y4445*
G75*
G02X2981Y4430I-15J-15*
G01*
Y3998*
G75*
G02X2974Y3887I-8J-55*
G01*
G75*
G02X2939Y3987J56*
G01*
Y4422*
X2553Y4808*
X1894*
X1899Y5008D02*
Y4983D01*
X1807*
Y5075*
X1899*
Y5050*
X2962*
G75*
G02X2977Y5044J-21*
G01*
X3575Y4445*
G75*
G02X3581Y4430I-15J-15*
G01*
Y3998*
G75*
G02X3574Y3887I-8J-55*
G01*
G75*
G02X3539Y3987J56*
G01*
Y4422*
X2953Y5008*
X1899*
X2574Y4059D02*
G75*
G02Y3827J-116D01*
G01*
G75*
G02Y4059J116*
G01*
X2755Y597D02*
G75*
G02X2847I46D01*
G01*
G75*
G02X2755I-46*
G01*
X2834Y9927D02*
G75*
G02X2926I46D01*
G01*
G75*
G02X2834I-46*
G01*
X3135Y738D02*
Y1994D01*
G75*
G02X3141Y2009I21*
G01*
X3616Y2484*
G75*
G02X3631Y2490I15J-15*
G01*
X4205*
G75*
G02X4314Y2471I53J-19*
G01*
G75*
G02X4207Y2448I-56*
G01*
X3639*
X3177Y1986*
Y738*
X3198*
Y646*
X3106*
Y738*
X3135*
X3210Y9958D02*
Y10699D01*
G75*
G02X3216Y10713I21*
G01*
X4206Y11703*
G75*
G02X4202Y11723I52J20*
G01*
G75*
G02X4314I56*
G01*
G75*
G02X4235Y11672I-56*
G01*
X3252Y10690*
Y9958*
X3277*
Y9866*
X3185*
Y9958*
X3210*
X3244Y625D02*
X3253Y641D01*
Y1794*
G75*
G02X3259Y1809I21*
G01*
X3634Y2184*
G75*
G02X3649Y2190I15J-15*
G01*
X4205*
G75*
G02X4314Y2171I53J-19*
G01*
G75*
G02X4207Y2148I-56*
G01*
X3657*
X3295Y1786*
Y636*
G75*
G02X3292Y626I-21J0*
G01*
X3285Y612*
G75*
G02X3298Y580I-32J-33*
G01*
G75*
G02X3206I-46*
G01*
G75*
G02X3244Y625I46*
G01*
X3266Y9140D02*
G75*
G02X3377I55D01*
G01*
G75*
G02X3266I-55*
G01*
X3310Y9841D02*
Y10479D01*
G75*
G02X3316Y10494I21*
G01*
X4213Y11390*
G75*
G02X4202Y11423I45J33*
G01*
G75*
G02X4314I56*
G01*
G75*
G02X4250Y11368I-56*
G01*
X3352Y10471*
Y9841*
G75*
G02X3377Y9800I-21J-41*
G01*
G75*
G02X3285I-46*
G01*
G75*
G02X3310Y9841I46*
G01*
X3331Y733D02*
Y1594D01*
G75*
G02X3338Y1609I21*
G01*
X3613Y1884*
G75*
G02X3627Y1890I15J-15*
G01*
X4205*
G75*
G02X4314Y1871I53J-19*
G01*
G75*
G02X4207Y1848I-56*
G01*
X3636*
X3373Y1586*
Y733*
G75*
G02X3398Y692I-21J-41*
G01*
G75*
G02X3306I-46*
G01*
G75*
G02X3331Y733I46*
G01*
X3410Y9953D02*
Y10297D01*
G75*
G02X3416Y10311I21*
G01*
X4206Y11101*
G75*
G02X4202Y11123I52J22*
G01*
G75*
G02X4314I56*
G01*
G75*
G02X4236Y11072I-56*
G01*
X3452Y10288*
Y9953*
G75*
G02X3477Y9912I-21J-41*
G01*
G75*
G02X3385I-46*
G01*
G75*
G02X3410Y9953I46*
G01*
X3463Y9140D02*
G75*
G02X3573I55D01*
G01*
G75*
G02X3463I-55*
G01*
X3974Y4059D02*
G75*
G02Y3827J-116D01*
G01*
G75*
G02Y4059J116*
G01*
X4142Y1471D02*
G75*
G02X4374I116D01*
G01*
G75*
G02X4142I-116*
G01*
Y2871D02*
G75*
G02X4374I116D01*
G01*
G75*
G02X4142I-116*
G01*
Y10723D02*
G75*
G02X4374I116D01*
G01*
G75*
G02X4142I-116*
G01*
Y12123D02*
G75*
G02X4374I116D01*
G01*
G75*
G02X4142I-116*
G01*
X4728Y4414D02*
G75*
G02X4663Y4435I-29J21D01*
G01*
G75*
G02X4728Y4456I36*
G01*
X4747*
Y4500*
X4853*
Y4370*
X4747*
Y4414*
X4728*
Y4650D02*
G75*
G02X4663Y4671I-29J21D01*
G01*
G75*
G02X4728Y4692I36*
G01*
X4747*
Y4736*
X4853*
Y4606*
X4747*
Y4650*
X4728*
Y4887D02*
G75*
G02X4663Y4908I-29J21D01*
G01*
G75*
G02X4728Y4929I36*
G01*
X4747*
Y4973*
X4853*
Y4843*
X4747*
Y4887*
X4728*
Y6009D02*
G75*
G02X4663Y6030I-29J21D01*
G01*
G75*
G02X4728Y6051I36*
G01*
X4747*
Y6095*
X4853*
Y5965*
X4747*
Y6009*
X4728*
Y6245D02*
G75*
G02X4663Y6266I-29J21D01*
G01*
G75*
G02X4728Y6287I36*
G01*
X4747*
Y6331*
X4853*
Y6201*
X4747*
Y6245*
X4728*
Y6481D02*
G75*
G02X4663Y6502I-29J21D01*
G01*
G75*
G02X4728Y6523I36*
G01*
X4747*
Y6567*
X4853*
Y6437*
X4747*
Y6481*
X4728*
X4779Y1048D02*
G75*
G02X4714Y1069I-29J21D01*
G01*
G75*
G02X4779Y1090I36*
G01*
X4798*
Y1134*
X4904*
Y1004*
X4798*
Y1048*
X4779*
Y1284D02*
G75*
G02X4714Y1305I-29J21D01*
G01*
G75*
G02X4779Y1326I36*
G01*
X4798*
Y1370*
X4904*
Y1240*
X4798*
Y1284*
X4779*
Y1520D02*
G75*
G02X4714Y1541I-29J21D01*
G01*
G75*
G02X4779Y1562I36*
G01*
X4798*
Y1606*
X4904*
Y1476*
X4798*
Y1520*
X4779*
Y2505D02*
G75*
G02X4714Y2526I-29J21D01*
G01*
G75*
G02X4779Y2547I36*
G01*
X4798*
Y2591*
X4904*
Y2461*
X4798*
Y2505*
X4779*
Y2741D02*
G75*
G02X4714Y2762I-29J21D01*
G01*
G75*
G02X4779Y2783I36*
G01*
X4798*
Y2827*
X4904*
Y2697*
X4798*
Y2741*
X4779*
Y2977D02*
G75*
G02X4714Y2998I-29J21D01*
G01*
G75*
G02X4779Y3019I36*
G01*
X4798*
Y3063*
X4904*
Y2933*
X4798*
Y2977*
X4779*
Y10339D02*
G75*
G02X4714Y10360I-29J21D01*
G01*
G75*
G02X4779Y10381I36*
G01*
X4798*
Y10425*
X4904*
Y10295*
X4798*
Y10339*
X4779*
Y10576D02*
G75*
G02X4714Y10597I-29J21D01*
G01*
G75*
G02X4779Y10618I36*
G01*
X4798*
Y10662*
X4904*
Y10532*
X4798*
Y10576*
X4779*
Y10812D02*
G75*
G02X4714Y10833I-29J21D01*
G01*
G75*
G02X4779Y10854I36*
G01*
X4798*
Y10898*
X4904*
Y10768*
X4798*
Y10812*
X4779*
Y11855D02*
G75*
G02X4714Y11876I-29J21D01*
G01*
G75*
G02X4779Y11897I36*
G01*
X4798*
Y11941*
X4904*
Y11811*
X4798*
Y11855*
X4779*
Y12091D02*
G75*
G02X4714Y12112I-29J21D01*
G01*
G75*
G02X4779Y12133I36*
G01*
X4798*
Y12177*
X4904*
Y12047*
X4798*
Y12091*
X4779*
Y12328D02*
G75*
G02X4714Y12349I-29J21D01*
G01*
G75*
G02X4779Y12370I36*
G01*
X4798*
Y12414*
X4904*
Y12284*
X4798*
Y12328*
X4779*
X5084Y4414D02*
Y4370D01*
X4978*
Y4500*
X5084*
Y4456*
X5103*
G75*
G02X5168Y4435I29J-21*
G01*
G75*
G02X5103Y4414I-36*
G01*
X5084*
Y4650D02*
Y4606D01*
X4978*
Y4736*
X5084*
Y4692*
X5103*
G75*
G02X5168Y4671I29J-21*
G01*
G75*
G02X5103Y4650I-36*
G01*
X5084*
Y4887D02*
Y4843D01*
X4978*
Y4973*
X5084*
Y4929*
X5103*
G75*
G02X5168Y4908I29J-21*
G01*
G75*
G02X5103Y4887I-36*
G01*
X5084*
Y6009D02*
Y5965D01*
X4978*
Y6095*
X5084*
Y6051*
X5103*
G75*
G02X5168Y6030I29J-21*
G01*
G75*
G02X5103Y6009I-36*
G01*
X5084*
Y6245D02*
Y6201D01*
X4978*
Y6331*
X5084*
Y6287*
X5103*
G75*
G02X5168Y6266I29J-21*
G01*
G75*
G02X5103Y6245I-36*
G01*
X5084*
Y6481D02*
Y6437D01*
X4978*
Y6567*
X5084*
Y6523*
X5103*
G75*
G02X5168Y6502I29J-21*
G01*
G75*
G02X5103Y6481I-36*
G01*
X5084*
X5135Y1048D02*
Y1004D01*
X5029*
Y1134*
X5135*
Y1090*
X5154*
G75*
G02X5219Y1069I29J-21*
G01*
G75*
G02X5154Y1048I-36*
G01*
X5135*
Y1284D02*
Y1240D01*
X5029*
Y1370*
X5135*
Y1326*
X5154*
G75*
G02X5219Y1305I29J-21*
G01*
G75*
G02X5154Y1284I-36*
G01*
X5135*
Y1520D02*
Y1476D01*
X5029*
Y1606*
X5135*
Y1562*
X5154*
G75*
G02X5219Y1541I29J-21*
G01*
G75*
G02X5154Y1520I-36*
G01*
X5135*
Y2505D02*
Y2461D01*
X5029*
Y2591*
X5135*
Y2547*
X5154*
G75*
G02X5219Y2526I29J-21*
G01*
G75*
G02X5154Y2505I-36*
G01*
X5135*
Y2741D02*
Y2697D01*
X5029*
Y2827*
X5135*
Y2783*
X5154*
G75*
G02X5219Y2762I29J-21*
G01*
G75*
G02X5154Y2741I-36*
G01*
X5135*
Y2977D02*
Y2933D01*
X5029*
Y3063*
X5135*
Y3019*
X5154*
G75*
G02X5219Y2998I29J-21*
G01*
G75*
G02X5154Y2977I-36*
G01*
X5135*
Y10339D02*
Y10295D01*
X5029*
Y10425*
X5135*
Y10381*
X5154*
G75*
G02X5219Y10360I29J-21*
G01*
G75*
G02X5154Y10339I-36*
G01*
X5135*
Y10576D02*
Y10532D01*
X5029*
Y10662*
X5135*
Y10618*
X5154*
G75*
G02X5219Y10597I29J-21*
G01*
G75*
G02X5154Y10576I-36*
G01*
X5135*
Y10812D02*
Y10768D01*
X5029*
Y10898*
X5135*
Y10854*
X5154*
G75*
G02X5219Y10833I29J-21*
G01*
G75*
G02X5154Y10812I-36*
G01*
X5135*
Y11855D02*
Y11811D01*
X5029*
Y11941*
X5135*
Y11897*
X5154*
G75*
G02X5219Y11876I29J-21*
G01*
G75*
G02X5154Y11855I-36*
G01*
X5135*
Y12091D02*
Y12047D01*
X5029*
Y12177*
X5135*
Y12133*
X5154*
G75*
G02X5219Y12112I29J-21*
G01*
G75*
G02X5154Y12091I-36*
G01*
X5135*
Y12328D02*
Y12284D01*
X5029*
Y12414*
X5135*
Y12370*
X5154*
G75*
G02X5219Y12349I29J-21*
G01*
G75*
G02X5154Y12328I-36*
G01*
X5135*
X6386Y1116D02*
G75*
G02Y1258J71D01*
G01*
G75*
G02Y1116J-71*
G01*
Y2297D02*
G75*
G02Y2439J71D01*
G01*
G75*
G02Y2297J-71*
G01*
Y3478D02*
G75*
G02Y3620J71D01*
G01*
G75*
G02Y3478J-71*
G01*
Y4659D02*
G75*
G02Y4801J71D01*
G01*
G75*
G02Y4659J-71*
G01*
Y5841D02*
G75*
G02Y5983J71D01*
G01*
G75*
G02Y5841J-71*
G01*
Y7022D02*
G75*
G02Y7164J71D01*
G01*
G75*
G02Y7022J-71*
G01*
Y8203D02*
G75*
G02Y8345J71D01*
G01*
G75*
G02Y8203J-71*
G01*
Y9384D02*
G75*
G02Y9526J71D01*
G01*
G75*
G02Y9384J-71*
G01*
Y10565D02*
G75*
G02Y10707J71D01*
G01*
G75*
G02Y10565J-71*
G01*
Y11746D02*
G75*
G02Y11888J71D01*
G01*
G75*
G02Y11746J-71*
G01*
X6466Y1876D02*
G75*
G02X6577I55D01*
G01*
G75*
G02X6466I-55*
G01*
Y3057D02*
G75*
G02X6577I55D01*
G01*
G75*
G02X6466I-55*
G01*
Y4238D02*
G75*
G02X6577I55D01*
G01*
G75*
G02X6466I-55*
G01*
Y5419D02*
G75*
G02X6577I55D01*
G01*
G75*
G02X6466I-55*
G01*
Y6600D02*
G75*
G02X6577I55D01*
G01*
G75*
G02X6466I-55*
G01*
Y7782D02*
G75*
G02X6577I55D01*
G01*
G75*
G02X6466I-55*
G01*
Y8963D02*
G75*
G02X6577I55D01*
G01*
G75*
G02X6466I-55*
G01*
Y10144D02*
G75*
G02X6577I55D01*
G01*
G75*
G02X6466I-55*
G01*
Y11325D02*
G75*
G02X6577I55D01*
G01*
G75*
G02X6466I-55*
G01*
Y12506D02*
G75*
G02X6577I55D01*
G01*
G75*
G02X6466I-55*
G01*
X6569Y1800D02*
G75*
G02X6671I51J-22D01*
G01*
X6766*
G75*
G02X6868I51J-22*
G01*
X7112*
G75*
G02X7134Y1778J-22*
G01*
Y1235*
G75*
G02X7186Y1258I52J-48*
G01*
G75*
G02Y1116J-71*
G01*
G75*
G02X7134Y1139J71*
G01*
Y990*
G75*
G02X7112Y968I-22*
G01*
X6660*
G75*
G02X6638Y990J22*
G01*
Y1283*
X6226*
G75*
G02X6204Y1305J22*
G01*
Y1778*
G75*
G02X6226Y1800I22*
G01*
X6569*
Y2981D02*
G75*
G02X6671I51J-22D01*
G01*
X6766*
G75*
G02X6868I51J-22*
G01*
X7112*
G75*
G02X7134Y2959J-22*
G01*
Y2417*
G75*
G02X7186Y2439I52J-48*
G01*
G75*
G02Y2297J-71*
G01*
G75*
G02X7134Y2320J71*
G01*
Y2171*
G75*
G02X7112Y2149I-22*
G01*
X6660*
G75*
G02X6638Y2171J22*
G01*
Y2464*
X6226*
G75*
G02X6204Y2486J22*
G01*
Y2959*
G75*
G02X6226Y2981I22*
G01*
X6569*
Y4162D02*
G75*
G02X6671I51J-22D01*
G01*
X6766*
G75*
G02X6868I51J-22*
G01*
X7112*
G75*
G02X7134Y4140J-22*
G01*
Y3598*
G75*
G02X7186Y3620I52J-48*
G01*
G75*
G02Y3478J-71*
G01*
G75*
G02X7134Y3501J71*
G01*
Y3352*
G75*
G02X7112Y3330I-22*
G01*
X6660*
G75*
G02X6638Y3352J22*
G01*
Y3645*
X6226*
G75*
G02X6204Y3667J22*
G01*
Y4140*
G75*
G02X6226Y4162I22*
G01*
X6569*
Y5343D02*
G75*
G02X6671I51J-22D01*
G01*
X6766*
G75*
G02X6868I51J-22*
G01*
X7112*
G75*
G02X7134Y5321J-22*
G01*
Y4779*
G75*
G02X7186Y4801I52J-48*
G01*
G75*
G02Y4659J-71*
G01*
G75*
G02X7134Y4682J71*
G01*
Y4534*
G75*
G02X7112Y4512I-22*
G01*
X6660*
G75*
G02X6638Y4534J22*
G01*
Y4827*
X6226*
G75*
G02X6204Y4849J22*
G01*
Y5321*
G75*
G02X6226Y5343I22*
G01*
X6569*
Y6524D02*
G75*
G02X6671I51J-22D01*
G01*
X6766*
G75*
G02X6868I51J-22*
G01*
X7112*
G75*
G02X7134Y6502J-22*
G01*
Y5960*
G75*
G02X7186Y5983I52J-48*
G01*
G75*
G02Y5841J-71*
G01*
G75*
G02X7134Y5863J71*
G01*
Y5715*
G75*
G02X7112Y5693I-22*
G01*
X6660*
G75*
G02X6638Y5715J22*
G01*
Y6008*
X6226*
G75*
G02X6204Y6030J22*
G01*
Y6502*
G75*
G02X6226Y6524I22*
G01*
X6569*
Y7705D02*
G75*
G02X6671I51J-22D01*
G01*
X6766*
G75*
G02X6868I51J-22*
G01*
X7112*
G75*
G02X7134Y7683J-22*
G01*
Y7141*
G75*
G02X7186Y7164I52J-48*
G01*
G75*
G02Y7022J-71*
G01*
G75*
G02X7134Y7044J71*
G01*
Y6896*
G75*
G02X7112Y6874I-22*
G01*
X6660*
G75*
G02X6638Y6896J22*
G01*
Y7189*
X6226*
G75*
G02X6204Y7211J22*
G01*
Y7683*
G75*
G02X6226Y7705I22*
G01*
X6569*
Y8886D02*
G75*
G02X6671I51J-22D01*
G01*
X6766*
G75*
G02X6868I51J-22*
G01*
X7112*
G75*
G02X7134Y8864J-22*
G01*
Y8322*
G75*
G02X7186Y8345I52J-48*
G01*
G75*
G02Y8203J-71*
G01*
G75*
G02X7134Y8225J71*
G01*
Y8077*
G75*
G02X7112Y8055I-22*
G01*
X6660*
G75*
G02X6638Y8077J22*
G01*
Y8370*
X6226*
G75*
G02X6204Y8392J22*
G01*
Y8864*
G75*
G02X6226Y8886I22*
G01*
X6569*
Y10067D02*
G75*
G02X6671I51J-22D01*
G01*
X6766*
G75*
G02X6868I51J-22*
G01*
X7112*
G75*
G02X7134Y10045J-22*
G01*
Y9503*
G75*
G02X7186Y9526I52J-48*
G01*
G75*
G02Y9384J-71*
G01*
G75*
G02X7134Y9406J71*
G01*
Y9258*
G75*
G02X7112Y9236I-22*
G01*
X6660*
G75*
G02X6638Y9258J22*
G01*
Y9551*
X6226*
G75*
G02X6204Y9573J22*
G01*
Y10045*
G75*
G02X6226Y10067I22*
G01*
X6569*
Y11248D02*
G75*
G02X6671I51J-22D01*
G01*
X6766*
G75*
G02X6868I51J-22*
G01*
X7112*
G75*
G02X7134Y11226J-22*
G01*
Y10684*
G75*
G02X7186Y10707I52J-48*
G01*
G75*
G02Y10565J-71*
G01*
G75*
G02X7134Y10588J71*
G01*
Y10439*
G75*
G02X7112Y10417I-22*
G01*
X6660*
G75*
G02X6638Y10439J22*
G01*
Y10732*
X6226*
G75*
G02X6204Y10754J22*
G01*
Y11226*
G75*
G02X6226Y11248I22*
G01*
X6569*
Y12430D02*
G75*
G02X6671I51J-22D01*
G01*
X6766*
G75*
G02X6868I51J-22*
G01*
X7112*
G75*
G02X7134Y12408J-22*
G01*
Y11865*
G75*
G02X7186Y11888I52J-48*
G01*
G75*
G02Y11746J-71*
G01*
G75*
G02X7134Y11769J71*
G01*
Y11620*
G75*
G02X7112Y11598I-22*
G01*
X6660*
G75*
G02X6638Y11620J22*
G01*
Y11913*
X6226*
G75*
G02X6204Y11935J22*
G01*
Y12408*
G75*
G02X6226Y12430I22*
G01*
X6569*
X6663Y1876D02*
G75*
G02X6774I55D01*
G01*
G75*
G02X6663I-55*
G01*
Y3057D02*
G75*
G02X6774I55D01*
G01*
G75*
G02X6663I-55*
G01*
Y4238D02*
G75*
G02X6774I55D01*
G01*
G75*
G02X6663I-55*
G01*
Y5419D02*
G75*
G02X6774I55D01*
G01*
G75*
G02X6663I-55*
G01*
Y6600D02*
G75*
G02X6774I55D01*
G01*
G75*
G02X6663I-55*
G01*
Y7782D02*
G75*
G02X6774I55D01*
G01*
G75*
G02X6663I-55*
G01*
Y8963D02*
G75*
G02X6774I55D01*
G01*
G75*
G02X6663I-55*
G01*
Y10144D02*
G75*
G02X6774I55D01*
G01*
G75*
G02X6663I-55*
G01*
Y11325D02*
G75*
G02X6774I55D01*
G01*
G75*
G02X6663I-55*
G01*
Y12506D02*
G75*
G02X6774I55D01*
G01*
G75*
G02X6663I-55*
G01*
X7254Y1876D02*
G75*
G02X7365I55D01*
G01*
G75*
G02X7254I-55*
G01*
Y3057D02*
G75*
G02X7365I55D01*
G01*
G75*
G02X7254I-55*
G01*
Y4238D02*
G75*
G02X7365I55D01*
G01*
G75*
G02X7254I-55*
G01*
Y5419D02*
G75*
G02X7365I55D01*
G01*
G75*
G02X7254I-55*
G01*
Y6600D02*
G75*
G02X7365I55D01*
G01*
G75*
G02X7254I-55*
G01*
Y7782D02*
G75*
G02X7365I55D01*
G01*
G75*
G02X7254I-55*
G01*
Y8963D02*
G75*
G02X7365I55D01*
G01*
G75*
G02X7254I-55*
G01*
Y10144D02*
G75*
G02X7365I55D01*
G01*
G75*
G02X7254I-55*
G01*
Y11325D02*
G75*
G02X7365I55D01*
G01*
G75*
G02X7254I-55*
G01*
Y12506D02*
G75*
G02X7365I55D01*
G01*
G75*
G02X7254I-55*
G01*
X7357Y1800D02*
G75*
G02X7458I51J-22D01*
G01*
X7554*
G75*
G02X7655I51J-22*
G01*
X8117*
G75*
G02X8132Y1793J-22*
G01*
X8155Y1816*
G75*
G02X8246Y1799I40J-38*
G01*
G75*
G02X8250Y1800I4J-22*
G01*
X8336*
G75*
G02X8341Y1799I0J-22*
G01*
G75*
G02X8443I51J-22*
G01*
G75*
G02X8447Y1800I4J-22*
G01*
X8490*
G75*
G02X8512Y1778J-22*
G01*
Y1305*
G75*
G02X8490Y1283I-22*
G01*
X8296*
Y990*
G75*
G02X8274Y968I-22*
G01*
X7703*
G75*
G02X7681Y990J22*
G01*
Y1178*
X7595Y1264*
X7211*
G75*
G02X7189Y1286J22*
G01*
Y1778*
G75*
G02X7211Y1800I22*
G01*
X7357*
Y2981D02*
G75*
G02X7458I51J-22D01*
G01*
X7554*
G75*
G02X7655I51J-22*
G01*
X8117*
G75*
G02X8132Y2974J-22*
G01*
X8155Y2997*
G75*
G02X8246Y2980I40J-38*
G01*
G75*
G02X8250Y2981I4J-22*
G01*
X8336*
G75*
G02X8341Y2980I0J-22*
G01*
G75*
G02X8443I51J-22*
G01*
G75*
G02X8447Y2981I4J-22*
G01*
X8490*
G75*
G02X8512Y2959J-22*
G01*
Y2486*
G75*
G02X8490Y2464I-22*
G01*
X8296*
Y2171*
G75*
G02X8274Y2149I-22*
G01*
X7703*
G75*
G02X7681Y2171J22*
G01*
Y2359*
X7595Y2445*
X7211*
G75*
G02X7189Y2467J22*
G01*
Y2959*
G75*
G02X7211Y2981I22*
G01*
X7357*
Y4162D02*
G75*
G02X7458I51J-22D01*
G01*
X7554*
G75*
G02X7655I51J-22*
G01*
X8117*
G75*
G02X8132Y4155J-22*
G01*
X8155Y4178*
G75*
G02X8246Y4161I40J-38*
G01*
G75*
G02X8250Y4162I4J-22*
G01*
X8336*
G75*
G02X8341Y4161I0J-22*
G01*
G75*
G02X8443I51J-22*
G01*
G75*
G02X8447Y4162I4J-22*
G01*
X8490*
G75*
G02X8512Y4140J-22*
G01*
Y3667*
G75*
G02X8490Y3645I-22*
G01*
X8296*
Y3352*
G75*
G02X8274Y3330I-22*
G01*
X7703*
G75*
G02X7681Y3352J22*
G01*
Y3540*
X7595Y3626*
X7211*
G75*
G02X7189Y3648J22*
G01*
Y4140*
G75*
G02X7211Y4162I22*
G01*
X7357*
Y5343D02*
G75*
G02X7458I51J-22D01*
G01*
X7554*
G75*
G02X7655I51J-22*
G01*
X8117*
G75*
G02X8132Y5337J-22*
G01*
X8155Y5359*
G75*
G02X8246Y5343I40J-38*
G01*
G75*
G02X8250Y5343I4J-22*
G01*
X8336*
G75*
G02X8341Y5343I0J-22*
G01*
G75*
G02X8443I51J-22*
G01*
G75*
G02X8447Y5343I4J-22*
G01*
X8490*
G75*
G02X8512Y5321J-22*
G01*
Y4849*
G75*
G02X8490Y4827I-22*
G01*
X8296*
Y4534*
G75*
G02X8274Y4512I-22*
G01*
X7703*
G75*
G02X7681Y4534J22*
G01*
Y4721*
X7595Y4807*
X7211*
G75*
G02X7189Y4829J22*
G01*
Y5321*
G75*
G02X7211Y5343I22*
G01*
X7357*
Y6524D02*
G75*
G02X7458I51J-22D01*
G01*
X7554*
G75*
G02X7655I51J-22*
G01*
X8117*
G75*
G02X8132Y6518J-22*
G01*
X8155Y6541*
G75*
G02X8246Y6524I40J-38*
G01*
G75*
G02X8250Y6524I4J-22*
G01*
X8336*
G75*
G02X8341Y6524I0J-22*
G01*
G75*
G02X8443I51J-22*
G01*
G75*
G02X8447Y6524I4J-22*
G01*
X8490*
G75*
G02X8512Y6502J-22*
G01*
Y6030*
G75*
G02X8490Y6008I-22*
G01*
X8296*
Y5715*
G75*
G02X8274Y5693I-22*
G01*
X7703*
G75*
G02X7681Y5715J22*
G01*
Y5902*
X7595Y5988*
X7211*
G75*
G02X7189Y6010J22*
G01*
Y6502*
G75*
G02X7211Y6524I22*
G01*
X7357*
Y7705D02*
G75*
G02X7458I51J-22D01*
G01*
X7554*
G75*
G02X7655I51J-22*
G01*
X8117*
G75*
G02X8132Y7699J-22*
G01*
X8155Y7722*
G75*
G02X8246Y7705I40J-38*
G01*
G75*
G02X8250Y7705I4J-22*
G01*
X8336*
G75*
G02X8341Y7705I0J-22*
G01*
G75*
G02X8443I51J-22*
G01*
G75*
G02X8447Y7705I4J-22*
G01*
X8490*
G75*
G02X8512Y7683J-22*
G01*
Y7211*
G75*
G02X8490Y7189I-22*
G01*
X8296*
Y6896*
G75*
G02X8274Y6874I-22*
G01*
X7703*
G75*
G02X7681Y6896J22*
G01*
Y7083*
X7595Y7169*
X7211*
G75*
G02X7189Y7191J22*
G01*
Y7683*
G75*
G02X7211Y7705I22*
G01*
X7357*
Y8886D02*
G75*
G02X7458I51J-22D01*
G01*
X7554*
G75*
G02X7655I51J-22*
G01*
X8117*
G75*
G02X8132Y8880J-22*
G01*
X8155Y8903*
G75*
G02X8246Y8886I40J-38*
G01*
G75*
G02X8250Y8886I4J-22*
G01*
X8336*
G75*
G02X8341Y8886I0J-22*
G01*
G75*
G02X8443I51J-22*
G01*
G75*
G02X8447Y8886I4J-22*
G01*
X8490*
G75*
G02X8512Y8864J-22*
G01*
Y8392*
G75*
G02X8490Y8370I-22*
G01*
X8296*
Y8077*
G75*
G02X8274Y8055I-22*
G01*
X7703*
G75*
G02X7681Y8077J22*
G01*
Y8265*
X7595Y8350*
X7211*
G75*
G02X7189Y8372J22*
G01*
Y8864*
G75*
G02X7211Y8886I22*
G01*
X7357*
Y10067D02*
G75*
G02X7458I51J-22D01*
G01*
X7554*
G75*
G02X7655I51J-22*
G01*
X8117*
G75*
G02X8132Y10061J-22*
G01*
X8155Y10084*
G75*
G02X8246Y10067I40J-38*
G01*
G75*
G02X8250Y10067I4J-22*
G01*
X8336*
G75*
G02X8341Y10067I0J-22*
G01*
G75*
G02X8443I51J-22*
G01*
G75*
G02X8447Y10067I4J-22*
G01*
X8490*
G75*
G02X8512Y10045J-22*
G01*
Y9573*
G75*
G02X8490Y9551I-22*
G01*
X8296*
Y9258*
G75*
G02X8274Y9236I-22*
G01*
X7703*
G75*
G02X7681Y9258J22*
G01*
Y9446*
X7595Y9531*
X7211*
G75*
G02X7189Y9553J22*
G01*
Y10045*
G75*
G02X7211Y10067I22*
G01*
X7357*
Y11248D02*
G75*
G02X7458I51J-22D01*
G01*
X7554*
G75*
G02X7655I51J-22*
G01*
X8117*
G75*
G02X8132Y11242J-22*
G01*
X8155Y11265*
G75*
G02X8246Y11248I40J-38*
G01*
G75*
G02X8250Y11248I4J-22*
G01*
X8336*
G75*
G02X8341Y11248I0J-22*
G01*
G75*
G02X8443I51J-22*
G01*
G75*
G02X8447Y11248I4J-22*
G01*
X8490*
G75*
G02X8512Y11226J-22*
G01*
Y10754*
G75*
G02X8490Y10732I-22*
G01*
X8296*
Y10439*
G75*
G02X8274Y10417I-22*
G01*
X7703*
G75*
G02X7681Y10439J22*
G01*
Y10627*
X7595Y10712*
X7211*
G75*
G02X7189Y10734J22*
G01*
Y11226*
G75*
G02X7211Y11248I22*
G01*
X7357*
Y12430D02*
G75*
G02X7458I51J-22D01*
G01*
X7554*
G75*
G02X7655I51J-22*
G01*
X8117*
G75*
G02X8132Y12423J-22*
G01*
X8155Y12446*
G75*
G02X8246Y12429I40J-38*
G01*
G75*
G02X8250Y12430I4J-22*
G01*
X8336*
G75*
G02X8341Y12429I0J-22*
G01*
G75*
G02X8443I51J-22*
G01*
G75*
G02X8447Y12430I4J-22*
G01*
X8490*
G75*
G02X8512Y12408J-22*
G01*
Y11935*
G75*
G02X8490Y11913I-22*
G01*
X8296*
Y11660*
G75*
G02X8274Y11638I-22*
G01*
X7703*
G75*
G02X7681Y11660J22*
G01*
Y11808*
X7595Y11893*
X7211*
G75*
G02X7189Y11915J22*
G01*
Y12408*
G75*
G02X7211Y12430I22*
G01*
X7357*
X7386Y1116D02*
G75*
G02Y1258J71D01*
G01*
G75*
G02Y1116J-71*
G01*
Y2297D02*
G75*
G02Y2439J71D01*
G01*
G75*
G02Y2297J-71*
G01*
Y3478D02*
G75*
G02Y3620J71D01*
G01*
G75*
G02Y3478J-71*
G01*
Y4659D02*
G75*
G02Y4801J71D01*
G01*
G75*
G02Y4659J-71*
G01*
Y5841D02*
G75*
G02Y5983J71D01*
G01*
G75*
G02Y5841J-71*
G01*
Y7022D02*
G75*
G02Y7164J71D01*
G01*
G75*
G02Y7022J-71*
G01*
Y8203D02*
G75*
G02Y8345J71D01*
G01*
G75*
G02Y8203J-71*
G01*
Y9384D02*
G75*
G02Y9526J71D01*
G01*
G75*
G02Y9384J-71*
G01*
Y10565D02*
G75*
G02Y10707J71D01*
G01*
G75*
G02Y10565J-71*
G01*
Y11746D02*
G75*
G02Y11888J71D01*
G01*
G75*
G02Y11746J-71*
G01*
X7451Y1876D02*
G75*
G02X7561I55D01*
G01*
G75*
G02X7451I-55*
G01*
Y3057D02*
G75*
G02X7561I55D01*
G01*
G75*
G02X7451I-55*
G01*
Y4238D02*
G75*
G02X7561I55D01*
G01*
G75*
G02X7451I-55*
G01*
Y5419D02*
G75*
G02X7561I55D01*
G01*
G75*
G02X7451I-55*
G01*
Y6600D02*
G75*
G02X7561I55D01*
G01*
G75*
G02X7451I-55*
G01*
Y7782D02*
G75*
G02X7561I55D01*
G01*
G75*
G02X7451I-55*
G01*
Y8963D02*
G75*
G02X7561I55D01*
G01*
G75*
G02X7451I-55*
G01*
Y10144D02*
G75*
G02X7561I55D01*
G01*
G75*
G02X7451I-55*
G01*
Y11325D02*
G75*
G02X7561I55D01*
G01*
G75*
G02X7451I-55*
G01*
Y12506D02*
G75*
G02X7561I55D01*
G01*
G75*
G02X7451I-55*
G01*
X8041Y1876D02*
G75*
G02X8152I55D01*
G01*
G75*
G02X8041I-55*
G01*
Y3057D02*
G75*
G02X8152I55D01*
G01*
G75*
G02X8041I-55*
G01*
Y4238D02*
G75*
G02X8152I55D01*
G01*
G75*
G02X8041I-55*
G01*
Y5419D02*
G75*
G02X8152I55D01*
G01*
G75*
G02X8041I-55*
G01*
Y6600D02*
G75*
G02X8152I55D01*
G01*
G75*
G02X8041I-55*
G01*
Y7782D02*
G75*
G02X8152I55D01*
G01*
G75*
G02X8041I-55*
G01*
Y8963D02*
G75*
G02X8152I55D01*
G01*
G75*
G02X8041I-55*
G01*
Y10144D02*
G75*
G02X8152I55D01*
G01*
G75*
G02X8041I-55*
G01*
Y11325D02*
G75*
G02X8152I55D01*
G01*
G75*
G02X8041I-55*
G01*
Y12506D02*
G75*
G02X8152I55D01*
G01*
G75*
G02X8041I-55*
G01*
X8238Y1876D02*
G75*
G02X8349I55D01*
G01*
G75*
G02X8238I-55*
G01*
Y3057D02*
G75*
G02X8349I55D01*
G01*
G75*
G02X8238I-55*
G01*
Y4238D02*
G75*
G02X8349I55D01*
G01*
G75*
G02X8238I-55*
G01*
Y5419D02*
G75*
G02X8349I55D01*
G01*
G75*
G02X8238I-55*
G01*
Y6600D02*
G75*
G02X8349I55D01*
G01*
G75*
G02X8238I-55*
G01*
Y7782D02*
G75*
G02X8349I55D01*
G01*
G75*
G02X8238I-55*
G01*
Y8963D02*
G75*
G02X8349I55D01*
G01*
G75*
G02X8238I-55*
G01*
Y10144D02*
G75*
G02X8349I55D01*
G01*
G75*
G02X8238I-55*
G01*
Y11325D02*
G75*
G02X8349I55D01*
G01*
G75*
G02X8238I-55*
G01*
Y12506D02*
G75*
G02X8349I55D01*
G01*
G75*
G02X8238I-55*
G01*
X8586Y1116D02*
G75*
G02Y1258J71D01*
G01*
G75*
G02Y1116J-71*
G01*
Y2297D02*
G75*
G02Y2439J71D01*
G01*
G75*
G02Y2297J-71*
G01*
Y3478D02*
G75*
G02Y3620J71D01*
G01*
G75*
G02Y3478J-71*
G01*
Y4659D02*
G75*
G02Y4801J71D01*
G01*
G75*
G02Y4659J-71*
G01*
Y5841D02*
G75*
G02Y5983J71D01*
G01*
G75*
G02Y5841J-71*
G01*
Y7022D02*
G75*
G02Y7164J71D01*
G01*
G75*
G02Y7022J-71*
G01*
Y8203D02*
G75*
G02Y8345J71D01*
G01*
G75*
G02Y8203J-71*
G01*
Y9384D02*
G75*
G02Y9526J71D01*
G01*
G75*
G02Y9384J-71*
G01*
Y10565D02*
G75*
G02Y10707J71D01*
G01*
G75*
G02Y10565J-71*
G01*
Y11746D02*
G75*
G02Y11888J71D01*
G01*
G75*
G02Y11746J-71*
G01*
X45Y400D02*
G36*
Y85D01*
X9376*
Y400*
X514*
G75*
G02X285I-114*
G01*
X45*
G37*
X285D02*
G36*
G75*
G02X514I114D01*
G01*
X9376*
Y597*
X3295*
G75*
G02X3298Y580I-43J-17*
G01*
G75*
G02X3206I-46*
G01*
G75*
G02X3210Y597I46J0*
G01*
X2847*
G75*
G02X2755I-46*
G01*
X2747*
G75*
G02X2655I-46*
G01*
X45*
Y400*
X285*
G37*
X45Y6990D02*
G36*
Y6833D01*
X452*
G75*
G02X518Y6899I66*
G01*
G75*
G02X584Y6833J-66*
G01*
X652*
G75*
G02X718Y6899I66*
G01*
G75*
G02X784Y6833J-66*
G01*
X852*
G75*
G02X918Y6899I66*
G01*
G75*
G02X984Y6833J-66*
G01*
X1052*
G75*
G02X1118Y6899I66*
G01*
G75*
G02X1184Y6833J-66*
G01*
X9376*
Y6990*
X8296*
Y6896*
G75*
G02X8274Y6874I-22*
G01*
X7703*
G75*
G02X7681Y6896J22*
G01*
Y6990*
X7134*
Y6896*
G75*
G02X7112Y6874I-22*
G01*
X6660*
G75*
G02X6638Y6896J22*
G01*
Y6990*
X1384*
G75*
G02X1318Y6924I-66*
G01*
G75*
G02X1252Y6990J66*
G01*
X384*
G75*
G02X318Y6924I-66*
G01*
G75*
G02X252Y6990J66*
G01*
X45*
G37*
X252D02*
G36*
G75*
G02X318Y7056I66D01*
G01*
G75*
G02X384Y6990J-66*
G01*
X1252*
G75*
G02X1318Y7056I66*
G01*
G75*
G02X1384Y6990J-66*
G01*
X6638*
Y7093*
X6457*
G75*
G02X6386Y7022I-71*
G01*
G75*
G02X6315Y7093J71*
G01*
X45*
Y6990*
X252*
G37*
X7681D02*
G36*
Y7083D01*
X7672Y7093*
X7457*
G75*
G02X7386Y7022I-71*
G01*
G75*
G02X7315Y7093J71*
G01*
X7257*
G75*
G02X7186Y7022I-71*
G01*
G75*
G02X7134Y7044J71*
G01*
Y6990*
X7681*
G37*
X9376D02*
G36*
Y7093D01*
X8657*
G75*
G02X8586Y7022I-71*
G01*
G75*
G02X8515Y7093J71*
G01*
X8296*
Y6990*
X9376*
G37*
X45Y6833D02*
G36*
Y6600D01*
X6466*
G75*
G02X6577I55*
G01*
X6663*
G75*
G02X6774I55*
G01*
X7254*
G75*
G02X7365I55*
G01*
X7451*
G75*
G02X7561I55*
G01*
X8041*
G75*
G02X8152I55*
G01*
X8238*
G75*
G02X8349I55*
G01*
X9376*
Y6833*
X1184*
G75*
G02X1118Y6767I-66*
G01*
G75*
G02X1052Y6833J66*
G01*
X984*
G75*
G02X918Y6767I-66*
G01*
G75*
G02X852Y6833J66*
G01*
X784*
G75*
G02X718Y6767I-66*
G01*
G75*
G02X652Y6833J66*
G01*
X584*
G75*
G02X518Y6767I-66*
G01*
G75*
G02X452Y6833J66*
G01*
X45*
G37*
Y2171D02*
G36*
Y1876D01*
X1618*
Y2171*
X1607*
G75*
G02X1551Y2116I-55*
G01*
G75*
G02X1496Y2171J55*
G01*
X45*
G37*
X1496D02*
G36*
G75*
G02X1551Y2227I55D01*
G01*
G75*
G02X1607Y2171J-55*
G01*
X1618*
Y2224*
G75*
G02Y2315I32J45*
G01*
Y2368*
X1607*
G75*
G02X1551Y2313I-55*
G01*
G75*
G02X1496Y2368J55*
G01*
X45*
Y2171*
X1496*
G37*
X2673D02*
G36*
X2737Y2107D01*
G75*
G02X2744Y2093I-15J-15*
G01*
Y1876*
X3135*
Y1994*
G75*
G02X3141Y2009I21*
G01*
X3303Y2171*
X2673*
G37*
X3303D02*
G36*
X3500Y2368D01*
X2632*
Y2235*
G75*
G02X2625Y2219I-22J0*
G01*
X2673Y2171*
X3303*
G37*
X3362D02*
G36*
X3177Y1986D01*
Y1876*
X3326*
X3621Y2171*
X3362*
G37*
X3621D02*
G36*
X3634Y2184D01*
G75*
G02X3649Y2190I15J-15*
G01*
X4205*
G75*
G02X4314Y2171I53J-19*
G01*
X6638*
Y2368*
X6457*
G75*
G02X6386Y2297I-71*
G01*
G75*
G02X6315Y2368J71*
G01*
X3559*
X3362Y2171*
X3621*
G37*
X4314D02*
G36*
G75*
G02X4207Y2148I-56D01*
G01*
X3657*
X3385Y1876*
X3604*
X3613Y1884*
G75*
G02X3627Y1890I15J-15*
G01*
X4205*
G75*
G02X4314Y1876I53J-19*
G01*
X6466*
G75*
G02X6577I55*
G01*
X6663*
G75*
G02X6774I55*
G01*
X7254*
G75*
G02X7365I55*
G01*
X7451*
G75*
G02X7561I55*
G01*
X8041*
G75*
G02X8152I55*
G01*
X8238*
G75*
G02X8349I55*
G01*
X9376*
Y2171*
X8296*
G75*
G02X8274Y2149I-22*
G01*
X7703*
G75*
G02X7681Y2171J22*
G01*
X7134*
G75*
G02X7112Y2149I-22*
G01*
X6660*
G75*
G02X6638Y2171J22*
G01*
X4314*
G37*
X7681D02*
G36*
Y2359D01*
X7672Y2368*
X7457*
G75*
G02X7386Y2297I-71*
G01*
G75*
G02X7315Y2368J71*
G01*
X7257*
G75*
G02X7186Y2297I-71*
G01*
G75*
G02X7134Y2320J71*
G01*
Y2171*
X7681*
G37*
X9376D02*
G36*
Y2368D01*
X8657*
G75*
G02X8586Y2297I-71*
G01*
G75*
G02X8515Y2368J71*
G01*
X8296*
Y2171*
X9376*
G37*
X1496Y2368D02*
G36*
G75*
G02X1551Y2424I55D01*
G01*
G75*
G02X1607Y2368J-55*
G01*
X1618*
Y2421*
G75*
G02Y2512I32J45*
G01*
Y2526*
X45*
Y2368*
X1496*
G37*
X3500D02*
G36*
X3616Y2484D01*
G75*
G02X3631Y2490I15J-15*
G01*
X4205*
G75*
G02X4244Y2526I53J-19*
G01*
X2632*
Y2368*
X3500*
G37*
X6315D02*
G36*
G75*
G02X6386Y2439I71D01*
G01*
G75*
G02X6457Y2368J-71*
G01*
X6638*
Y2464*
X6226*
G75*
G02X6204Y2486J22*
G01*
Y2526*
X5219*
G75*
G02X5154Y2505I-36*
G01*
X5135*
Y2461*
X5029*
Y2526*
X4904*
Y2461*
X4798*
Y2505*
X4779*
G75*
G02X4714Y2526I-29J21*
G01*
X4272*
G75*
G02X4314Y2471I-14J-54*
G01*
G75*
G02X4207Y2448I-56*
G01*
X3639*
X3559Y2368*
X6315*
G37*
X7315D02*
G36*
G75*
G02X7386Y2439I71D01*
G01*
G75*
G02X7457Y2368J-71*
G01*
X7672*
X7595Y2445*
X7211*
G75*
G02X7189Y2467J22*
G01*
Y2526*
X7134*
Y2417*
G75*
G02X7186Y2439I52J-48*
G01*
G75*
G02X7257Y2368J-71*
G01*
X7315*
G37*
X8515D02*
G36*
G75*
G02X8586Y2439I71D01*
G01*
G75*
G02X8657Y2368J-71*
G01*
X9376*
Y2526*
X8512*
Y2486*
G75*
G02X8490Y2464I-22*
G01*
X8296*
Y2368*
X8515*
G37*
X45Y11384D02*
G36*
Y11325D01*
X1638*
Y11384*
X1616*
G75*
G02X1561Y11329I-55*
G01*
G75*
G02X1506Y11384J55*
G01*
X45*
G37*
X1506D02*
G36*
G75*
G02X1561Y11439I55D01*
G01*
G75*
G02X1616Y11384J-55*
G01*
X1638*
Y11432*
G75*
G02Y11533I22J51*
G01*
Y11581*
X1616*
G75*
G02X1561Y11525I-55*
G01*
G75*
G02X1506Y11581J55*
G01*
X45*
Y11384*
X1506*
G37*
X2740D02*
G36*
X2795Y11330D01*
G75*
G02X2798Y11325I-15J-15*
G01*
X3828*
X3887Y11384*
X2740*
G37*
X3887D02*
G36*
X4084Y11581D01*
X2586*
Y11561*
G75*
G02X2579Y11545I-22*
G01*
X2740Y11384*
X3887*
G37*
X3946D02*
G36*
X3887Y11325D01*
X4147*
X4206Y11384*
X3946*
G37*
X4206D02*
G36*
X4213Y11390D01*
G75*
G02X4202Y11423I45J33*
G01*
G75*
G02X4314I56*
G01*
G75*
G02X4298Y11384I-56*
G01*
X9376*
Y11581*
X4143*
X3946Y11384*
X4206*
G37*
X4298D02*
G36*
G75*
G02X4250Y11368I-40J39D01*
G01*
X4207Y11325*
X6466*
G75*
G02X6577I55*
G01*
X6663*
G75*
G02X6774I55*
G01*
X7254*
G75*
G02X7365I55*
G01*
X7451*
G75*
G02X7561I55*
G01*
X8041*
G75*
G02X8152I55*
G01*
X8238*
G75*
G02X8349I55*
G01*
X9376*
Y11384*
X4298*
G37*
X1506Y11581D02*
G36*
G75*
G02X1561Y11636I55D01*
G01*
G75*
G02X1616Y11581J-55*
G01*
X1638*
Y11628*
G75*
G02Y11730I22J51*
G01*
Y11876*
X45*
Y11581*
X1506*
G37*
X4084D02*
G36*
X4206Y11703D01*
G75*
G02X4202Y11723I52J20*
G01*
G75*
G02X4314I56*
G01*
G75*
G02X4235Y11672I-56*
G01*
X4143Y11581*
X9376*
Y11876*
X8626*
G75*
G02X8586Y11746I-39J-59*
G01*
G75*
G02X8547Y11876J71*
G01*
X8296*
Y11660*
G75*
G02X8274Y11638I-22*
G01*
X7703*
G75*
G02X7681Y11660J22*
G01*
Y11808*
X7613Y11876*
X7426*
G75*
G02X7386Y11746I-39J-59*
G01*
G75*
G02X7347Y11876J71*
G01*
X7226*
G75*
G02X7186Y11746I-39J-59*
G01*
G75*
G02X7134Y11769J71*
G01*
Y11620*
G75*
G02X7112Y11598I-22*
G01*
X6660*
G75*
G02X6638Y11620J22*
G01*
Y11876*
X6426*
G75*
G02X6386Y11746I-39J-59*
G01*
G75*
G02X6347Y11876J71*
G01*
X5219*
G75*
G02X5154Y11855I-36*
G01*
X5135*
Y11811*
X5029*
Y11876*
X4904*
Y11811*
X4798*
Y11855*
X4779*
G75*
G02X4714Y11876I-29J21*
G01*
X2586*
Y11581*
X4084*
G37*
X45Y7585D02*
G36*
Y7093D01*
X6315*
G75*
G02X6386Y7164I71*
G01*
G75*
G02X6457Y7093J-71*
G01*
X6638*
Y7189*
X6226*
G75*
G02X6204Y7211J22*
G01*
Y7585*
X1745*
G75*
G02X1699Y7539I-46*
G01*
G75*
G02X1653Y7585J46*
G01*
X45*
G37*
X1653D02*
G36*
G75*
G02X1699Y7631I46D01*
G01*
G75*
G02X1745Y7585J-46*
G01*
X6204*
Y7683*
G75*
G02X6226Y7705I22*
G01*
X6569*
G75*
G02X6671I51J-22*
G01*
X6766*
G75*
G02X6868I51J-22*
G01*
X7112*
G75*
G02X7134Y7683J-22*
G01*
Y7585*
X7189*
Y7683*
G75*
G02X7211Y7705I22*
G01*
X7357*
G75*
G02X7458I51J-22*
G01*
X7554*
G75*
G02X7655I51J-22*
G01*
X8117*
G75*
G02X8132Y7699J-22*
G01*
X8155Y7722*
G75*
G02X8246Y7705I40J-38*
G01*
G75*
G02X8250Y7705I4J-22*
G01*
X8336*
G75*
G02X8341Y7705I0J-22*
G01*
G75*
G02X8443I51J-22*
G01*
G75*
G02X8447Y7705I4J-22*
G01*
X8490*
G75*
G02X8512Y7683J-22*
G01*
Y7585*
X9376*
Y7782*
X8349*
G75*
G02X8238I-55*
G01*
X8152*
G75*
G02X8041I-55*
G01*
X7561*
G75*
G02X7451I-55*
G01*
X7365*
G75*
G02X7254I-55*
G01*
X6774*
G75*
G02X6663I-55*
G01*
X6577*
G75*
G02X6466I-55*
G01*
X3606*
G75*
G02X3600Y7767I-21*
G01*
X3503Y7670*
G75*
G02X3488Y7664I-15J15*
G01*
X1740*
G75*
G02X1699Y7639I-41J21*
G01*
G75*
G02Y7731J46*
G01*
G75*
G02X1740Y7706J-46*
G01*
X3480*
X3556Y7782*
X45*
Y7585*
X1653*
G37*
X7134D02*
G36*
Y7141D01*
G75*
G02X7186Y7164I52J-48*
G01*
G75*
G02X7257Y7093J-71*
G01*
X7315*
G75*
G02X7386Y7164I71*
G01*
G75*
G02X7457Y7093J-71*
G01*
X7672*
X7595Y7169*
X7211*
G75*
G02X7189Y7191J22*
G01*
Y7585*
X7134*
G37*
X8512D02*
G36*
Y7211D01*
G75*
G02X8490Y7189I-22*
G01*
X8296*
Y7093*
X8515*
G75*
G02X8586Y7164I71*
G01*
G75*
G02X8657Y7093J-71*
G01*
X9376*
Y7585*
X8512*
G37*
X45Y8368D02*
G36*
Y8274D01*
X2413*
Y8368*
X45*
G37*
X2413D02*
G36*
Y8963D01*
X45*
Y8368*
X2413*
G37*
X4132D02*
G36*
Y8274D01*
X6315*
G75*
G02X6386Y8345I71*
G01*
G75*
G02X6457Y8274J-71*
G01*
X6638*
Y8368*
X4132*
G37*
X6638D02*
G36*
Y8370D01*
X6226*
G75*
G02X6204Y8392J22*
G01*
Y8864*
G75*
G02X6226Y8886I22*
G01*
X6569*
G75*
G02X6671I51J-22*
G01*
X6766*
G75*
G02X6868I51J-22*
G01*
X7112*
G75*
G02X7134Y8864J-22*
G01*
Y8368*
X7189*
G75*
G02X7189Y8372I22J4*
G01*
Y8864*
G75*
G02X7211Y8886I22*
G01*
X7357*
G75*
G02X7458I51J-22*
G01*
X7554*
G75*
G02X7655I51J-22*
G01*
X8117*
G75*
G02X8132Y8880J-22*
G01*
X8155Y8903*
G75*
G02X8246Y8886I40J-38*
G01*
G75*
G02X8250Y8886I4J-22*
G01*
X8336*
G75*
G02X8341Y8886I0J-22*
G01*
G75*
G02X8443I51J-22*
G01*
G75*
G02X8447Y8886I4J-22*
G01*
X8490*
G75*
G02X8512Y8864J-22*
G01*
Y8392*
G75*
G02X8490Y8370I-22*
G01*
X8296*
Y8368*
X9376*
Y8963*
X8349*
G75*
G02X8238I-55*
G01*
X8152*
G75*
G02X8041I-55*
G01*
X7561*
G75*
G02X7451I-55*
G01*
X7365*
G75*
G02X7254I-55*
G01*
X6774*
G75*
G02X6663I-55*
G01*
X6577*
G75*
G02X6466I-55*
G01*
X4132*
Y8368*
X6638*
G37*
X7134D02*
G36*
Y8322D01*
G75*
G02X7186Y8345I52J-48*
G01*
G75*
G02X7257Y8274J-71*
G01*
X7315*
G75*
G02X7386Y8345I71*
G01*
G75*
G02X7457Y8274J-71*
G01*
X7672*
X7595Y8350*
X7211*
G75*
G02X7189Y8368J22*
G01*
X7134*
G37*
X8296D02*
G36*
Y8274D01*
X8515*
G75*
G02X8586Y8345I71*
G01*
G75*
G02X8657Y8274J-71*
G01*
X9376*
Y8368*
X8296*
G37*
X45Y4431D02*
G36*
Y4238D01*
X2939*
Y4422*
X2930Y4431*
X45*
G37*
X2930D02*
G36*
X2690Y4671D01*
X45*
Y4431*
X2930*
G37*
X2981D02*
G36*
G75*
G02Y4430I-21J0D01*
G01*
Y4238*
X3239*
Y4422*
X3230Y4431*
X2981*
G37*
X3230D02*
G36*
X2990Y4671D01*
X2749*
X2975Y4445*
G75*
G02X2981Y4431I-15J-15*
G01*
X3230*
G37*
X3281D02*
G36*
G75*
G02Y4430I-21J0D01*
G01*
Y4238*
X3539*
Y4422*
X3530Y4431*
X3281*
G37*
X3530D02*
G36*
X3290Y4671D01*
X3049*
X3275Y4445*
G75*
G02X3281Y4431I-15J-15*
G01*
X3530*
G37*
X3581D02*
G36*
G75*
G02Y4430I-21J0D01*
G01*
Y4238*
X6466*
G75*
G02X6577I55*
G01*
X6663*
G75*
G02X6774I55*
G01*
X7254*
G75*
G02X7365I55*
G01*
X7451*
G75*
G02X7561I55*
G01*
X8041*
G75*
G02X8152I55*
G01*
X8238*
G75*
G02X8349I55*
G01*
X9376*
Y4431*
X5168*
G75*
G02X5103Y4414I-36J4*
G01*
X5084*
Y4370*
X4978*
Y4431*
X4853*
Y4370*
X4747*
Y4414*
X4728*
G75*
G02X4663Y4431I-29J21*
G01*
X3581*
G37*
X4663D02*
G36*
G75*
G02X4663Y4435I36J4D01*
G01*
G75*
G02X4728Y4456I36*
G01*
X4747*
Y4500*
X4853*
Y4431*
X4978*
Y4500*
X5084*
Y4456*
X5103*
G75*
G02X5168Y4435I29J-21*
G01*
G75*
G02X5168Y4431I-36J0*
G01*
X9376*
Y4671*
X8626*
G75*
G02X8586Y4659I-39J59*
G01*
G75*
G02X8547Y4671J71*
G01*
X8296*
Y4534*
G75*
G02X8274Y4512I-22*
G01*
X7703*
G75*
G02X7681Y4534J22*
G01*
Y4671*
X7426*
G75*
G02X7386Y4659I-39J59*
G01*
G75*
G02X7347Y4671J71*
G01*
X7226*
G75*
G02X7186Y4659I-39J59*
G01*
G75*
G02X7134Y4682J71*
G01*
Y4534*
G75*
G02X7112Y4512I-22*
G01*
X6660*
G75*
G02X6638Y4534J22*
G01*
Y4671*
X6426*
G75*
G02X6386Y4659I-39J59*
G01*
G75*
G02X6347Y4671J71*
G01*
X5168*
G75*
G02X5103Y4650I-36*
G01*
X5084*
Y4606*
X4978*
Y4671*
X4853*
Y4606*
X4747*
Y4650*
X4728*
G75*
G02X4663Y4671I-29J21*
G01*
X3349*
X3575Y4445*
G75*
G02X3581Y4431I-15J-15*
G01*
X4663*
G37*
X45Y3943D02*
G36*
Y3549D01*
X6315*
G75*
G02X6386Y3620I71*
G01*
G75*
G02X6457Y3549J-71*
G01*
X6638*
Y3645*
X6226*
G75*
G02X6204Y3667J22*
G01*
Y3943*
X4090*
G75*
G02X3974Y3827I-116*
G01*
G75*
G02X3858Y3943J116*
G01*
X3630*
G75*
G02X3574Y3887I-56*
G01*
G75*
G02X3518Y3943J56*
G01*
X3330*
G75*
G02X3274Y3887I-56*
G01*
G75*
G02X3218Y3943J56*
G01*
X3030*
G75*
G02X2974Y3887I-56*
G01*
G75*
G02X2918Y3943J56*
G01*
X2690*
G75*
G02X2574Y3827I-116*
G01*
G75*
G02X2458Y3943J116*
G01*
X45*
G37*
X2458D02*
G36*
G75*
G02X2574Y4059I116D01*
G01*
G75*
G02X2690Y3943J-116*
G01*
X2918*
G75*
G02X2939Y3987I56*
G01*
Y4238*
X45*
Y3943*
X2458*
G37*
X3218D02*
G36*
G75*
G02X3239Y3987I56D01*
G01*
Y4238*
X2981*
Y3998*
G75*
G02X3030Y3943I-8J-55*
G01*
X3218*
G37*
X3518D02*
G36*
G75*
G02X3539Y3987I56D01*
G01*
Y4238*
X3281*
Y3998*
G75*
G02X3330Y3943I-8J-55*
G01*
X3518*
G37*
X3858D02*
G36*
G75*
G02X3974Y4059I116D01*
G01*
G75*
G02X4090Y3943J-116*
G01*
X6204*
Y4140*
G75*
G02X6226Y4162I22*
G01*
X6569*
G75*
G02X6671I51J-22*
G01*
X6766*
G75*
G02X6868I51J-22*
G01*
X7112*
G75*
G02X7134Y4140J-22*
G01*
Y3943*
X7189*
Y4140*
G75*
G02X7211Y4162I22*
G01*
X7357*
G75*
G02X7458I51J-22*
G01*
X7554*
G75*
G02X7655I51J-22*
G01*
X8117*
G75*
G02X8132Y4155J-22*
G01*
X8155Y4178*
G75*
G02X8246Y4161I40J-38*
G01*
G75*
G02X8250Y4162I4J-22*
G01*
X8336*
G75*
G02X8341Y4161I0J-22*
G01*
G75*
G02X8443I51J-22*
G01*
G75*
G02X8447Y4162I4J-22*
G01*
X8490*
G75*
G02X8512Y4140J-22*
G01*
Y3943*
X9376*
Y4238*
X8349*
G75*
G02X8238I-55*
G01*
X8152*
G75*
G02X8041I-55*
G01*
X7561*
G75*
G02X7451I-55*
G01*
X7365*
G75*
G02X7254I-55*
G01*
X6774*
G75*
G02X6663I-55*
G01*
X6577*
G75*
G02X6466I-55*
G01*
X3581*
Y3998*
G75*
G02X3630Y3943I-8J-55*
G01*
X3858*
G37*
X7134D02*
G36*
Y3598D01*
G75*
G02X7186Y3620I52J-48*
G01*
G75*
G02X7257Y3549J-71*
G01*
X7315*
G75*
G02X7386Y3620I71*
G01*
G75*
G02X7457Y3549J-71*
G01*
X7672*
X7595Y3626*
X7211*
G75*
G02X7189Y3648J22*
G01*
Y3943*
X7134*
G37*
X8512D02*
G36*
Y3667D01*
G75*
G02X8490Y3645I-22*
G01*
X8296*
Y3549*
X8515*
G75*
G02X8586Y3620I71*
G01*
G75*
G02X8657Y3549J-71*
G01*
X9376*
Y3943*
X8512*
G37*
X2655Y597D02*
G36*
G75*
G02X2702Y643I46D01*
G01*
Y1069*
X45*
Y597*
X2655*
G37*
X2755D02*
G36*
G75*
G02X2847I46D01*
G01*
X3210*
G75*
G02X3244Y625I43J-17*
G01*
X3253Y641*
Y1069*
X3177*
Y738*
X3198*
Y646*
X3106*
Y738*
X3135*
Y1069*
X2744*
Y636*
G75*
G02X2741Y626I-21J0*
G01*
X2739Y623*
G75*
G02X2747Y597I-38J-26*
G01*
X2755*
G37*
X9376D02*
G36*
Y1069D01*
X8296*
Y990*
G75*
G02X8274Y968I-22*
G01*
X7703*
G75*
G02X7681Y990J22*
G01*
Y1069*
X7134*
Y990*
G75*
G02X7112Y968I-22*
G01*
X6660*
G75*
G02X6638Y990J22*
G01*
Y1069*
X5219*
G75*
G02X5154Y1048I-36*
G01*
X5135*
Y1004*
X5029*
Y1069*
X4904*
Y1004*
X4798*
Y1048*
X4779*
G75*
G02X4714Y1069I-29J21*
G01*
X3373*
Y733*
G75*
G02X3398Y692I-21J-41*
G01*
G75*
G02X3306I-46*
G01*
G75*
G02X3331Y733I46*
G01*
Y1069*
X3295*
Y636*
G75*
G02X3292Y626I-21J0*
G01*
X3285Y612*
G75*
G02X3295Y597I-32J-33*
G01*
X9376*
G37*
X45Y9927D02*
G36*
Y9455D01*
X6315*
G75*
G02X6386Y9526I71*
G01*
G75*
G02X6457Y9455J-71*
G01*
X6638*
Y9551*
X6226*
G75*
G02X6204Y9573J22*
G01*
Y9927*
X3475*
G75*
G02X3477Y9912I-43J-15*
G01*
G75*
G02X3385I-46*
G01*
G75*
G02X3388Y9927I46J0*
G01*
X3352*
Y9841*
G75*
G02X3377Y9800I-21J-41*
G01*
G75*
G02X3285I-46*
G01*
G75*
G02X3310Y9841I46*
G01*
Y9927*
X3277*
Y9866*
X3185*
Y9927*
X2926*
G75*
G02X2834I-46*
G01*
X2826*
G75*
G02X2734I-46*
G01*
X45*
G37*
X2734D02*
G36*
G75*
G02X2759Y9968I46D01*
G01*
Y10144*
X45*
Y9927*
X2734*
G37*
X2834D02*
G36*
G75*
G02X2926I46D01*
G01*
X3185*
Y9958*
X3210*
Y10144*
X2801*
Y9968*
G75*
G02X2826Y9927I-21J-41*
G01*
X2834*
G37*
X3310D02*
G36*
Y10144D01*
X3252*
Y9958*
X3277*
Y9927*
X3310*
G37*
X3388D02*
G36*
G75*
G02X3410Y9953I43J-15D01*
G01*
Y10144*
X3352*
Y9927*
X3388*
G37*
X6204D02*
G36*
Y10045D01*
G75*
G02X6226Y10067I22*
G01*
X6569*
G75*
G02X6671I51J-22*
G01*
X6766*
G75*
G02X6868I51J-22*
G01*
X7112*
G75*
G02X7134Y10045J-22*
G01*
Y9927*
X7189*
Y10045*
G75*
G02X7211Y10067I22*
G01*
X7357*
G75*
G02X7458I51J-22*
G01*
X7554*
G75*
G02X7655I51J-22*
G01*
X8117*
G75*
G02X8132Y10061J-22*
G01*
X8155Y10084*
G75*
G02X8246Y10067I40J-38*
G01*
G75*
G02X8250Y10067I4J-22*
G01*
X8336*
G75*
G02X8341Y10067I0J-22*
G01*
G75*
G02X8443I51J-22*
G01*
G75*
G02X8447Y10067I4J-22*
G01*
X8490*
G75*
G02X8512Y10045J-22*
G01*
Y9927*
X9376*
Y10144*
X8349*
G75*
G02X8238I-55*
G01*
X8152*
G75*
G02X8041I-55*
G01*
X7561*
G75*
G02X7451I-55*
G01*
X7365*
G75*
G02X7254I-55*
G01*
X6774*
G75*
G02X6663I-55*
G01*
X6577*
G75*
G02X6466I-55*
G01*
X3452*
Y9953*
G75*
G02X3475Y9927I-21J-41*
G01*
X6204*
G37*
X7134D02*
G36*
Y9503D01*
G75*
G02X7186Y9526I52J-48*
G01*
G75*
G02X7257Y9455J-71*
G01*
X7315*
G75*
G02X7386Y9526I71*
G01*
G75*
G02X7457Y9455J-71*
G01*
X7672*
X7595Y9531*
X7211*
G75*
G02X7189Y9553J22*
G01*
Y9927*
X7134*
G37*
X8512D02*
G36*
Y9573D01*
G75*
G02X8490Y9551I-22*
G01*
X8296*
Y9455*
X8515*
G75*
G02X8586Y9526I71*
G01*
G75*
G02X8657Y9455J-71*
G01*
X9376*
Y9927*
X8512*
G37*
X45Y9140D02*
G36*
Y8963D01*
X2413*
Y9041*
G75*
G02X2435Y9063I22*
G01*
X3369*
G75*
G02X3470I51J-22*
G01*
X3566*
G75*
G02X3667I51J-22*
G01*
X4110*
G75*
G02X4132Y9041J-22*
G01*
Y8963*
X6466*
G75*
G02X6577I55*
G01*
X6663*
G75*
G02X6774I55*
G01*
X7254*
G75*
G02X7365I55*
G01*
X7451*
G75*
G02X7561I55*
G01*
X8041*
G75*
G02X8152I55*
G01*
X8238*
G75*
G02X8349I55*
G01*
X9376*
Y9140*
X3573*
G75*
G02X3463I-55*
G01*
X3377*
G75*
G02X3266I-55*
G01*
X45*
G37*
X3266D02*
G36*
G75*
G02X3377I55D01*
G01*
X3463*
G75*
G02X3573I55*
G01*
X9376*
Y9455*
X8657*
G75*
G02X8586Y9384I-71*
G01*
G75*
G02X8515Y9455J71*
G01*
X8296*
Y9258*
G75*
G02X8274Y9236I-22*
G01*
X7703*
G75*
G02X7681Y9258J22*
G01*
Y9446*
X7672Y9455*
X7457*
G75*
G02X7386Y9384I-71*
G01*
G75*
G02X7315Y9455J71*
G01*
X7257*
G75*
G02X7186Y9384I-71*
G01*
G75*
G02X7134Y9406J71*
G01*
Y9258*
G75*
G02X7112Y9236I-22*
G01*
X6660*
G75*
G02X6638Y9258J22*
G01*
Y9455*
X6457*
G75*
G02X6386Y9384I-71*
G01*
G75*
G02X6315Y9455J71*
G01*
X45*
Y9140*
X3266*
G37*
X45Y1287D02*
G36*
Y1187D01*
X2702*
Y1287*
X45*
G37*
X2702D02*
G36*
Y2084D01*
X2632Y2154*
Y2019*
G75*
G02X2610Y1997I-22*
G01*
X2257*
Y1741*
X2610*
G75*
G02X2632Y1719J-22*
G01*
Y1344*
G75*
G02X2610Y1322I-22*
G01*
X1640*
G75*
G02X1618Y1344J22*
G01*
Y1471*
X45*
Y1287*
X2702*
G37*
X2744D02*
G36*
Y1187D01*
X3135*
Y1287*
X2744*
G37*
X3135D02*
G36*
Y1471D01*
X2744*
Y1287*
X3135*
G37*
X3177D02*
G36*
Y1187D01*
X3253*
Y1287*
X3177*
G37*
X3253D02*
G36*
Y1471D01*
X3177*
Y1287*
X3253*
G37*
X3295D02*
G36*
Y1187D01*
X3331*
Y1287*
X3295*
G37*
X3331D02*
G36*
Y1471D01*
X3295*
Y1287*
X3331*
G37*
X3373D02*
G36*
Y1187D01*
X6315*
G75*
G02X6386Y1258I71*
G01*
G75*
G02X6457Y1187J-71*
G01*
X6638*
Y1283*
X6226*
G75*
G02X6215Y1287J22*
G01*
X5214*
G75*
G02X5154Y1284I-31J19*
G01*
X5135*
Y1240*
X5029*
Y1287*
X4904*
Y1240*
X4798*
Y1284*
X4779*
G75*
G02X4719Y1287I-29J21*
G01*
X3373*
G37*
X4719D02*
G36*
G75*
G02X4714Y1305I31J19D01*
G01*
G75*
G02X4779Y1326I36*
G01*
X4798*
Y1370*
X4904*
Y1287*
X5029*
Y1370*
X5135*
Y1326*
X5154*
G75*
G02X5219Y1305I29J-21*
G01*
G75*
G02X5214Y1287I-36*
G01*
X6215*
G75*
G02X6204Y1305I12J19*
G01*
Y1471*
X4374*
G75*
G02X4142I-116*
G01*
X3373*
Y1287*
X4719*
G37*
X7134D02*
G36*
Y1235D01*
G75*
G02X7186Y1258I52J-48*
G01*
G75*
G02X7257Y1187J-71*
G01*
X7315*
G75*
G02X7386Y1258I71*
G01*
G75*
G02X7457Y1187J-71*
G01*
X7672*
X7595Y1264*
X7211*
G75*
G02X7189Y1286J22*
G01*
Y1287*
X7134*
G37*
X7189D02*
G36*
Y1471D01*
X7134*
Y1287*
X7189*
G37*
X8502D02*
G36*
G75*
G02X8490Y1283I-12J19D01*
G01*
X8296*
Y1187*
X8515*
G75*
G02X8586Y1258I71*
G01*
G75*
G02X8657Y1187J-71*
G01*
X9376*
Y1287*
X8502*
G37*
X9376D02*
G36*
Y1471D01*
X8512*
Y1305*
G75*
G02X8502Y1287I-22*
G01*
X9376*
G37*
X1618Y1471D02*
G36*
Y1541D01*
X45*
Y1471*
X1618*
G37*
X3135D02*
G36*
Y1541D01*
X2744*
Y1471*
X3135*
G37*
X3253D02*
G36*
Y1541D01*
X3177*
Y1471*
X3253*
G37*
X3331D02*
G36*
Y1541D01*
X3295*
Y1471*
X3331*
G37*
X4142D02*
G36*
G75*
G02X4166Y1541I116J0D01*
G01*
X3373*
Y1471*
X4142*
G37*
X6204D02*
G36*
Y1541D01*
X5219*
G75*
G02X5154Y1520I-36*
G01*
X5135*
Y1476*
X5029*
Y1541*
X4904*
Y1476*
X4798*
Y1520*
X4779*
G75*
G02X4714Y1541I-29J21*
G01*
X4350*
G75*
G02X4374Y1471I-92J-70*
G01*
X6204*
G37*
X7189D02*
G36*
Y1541D01*
X7134*
Y1471*
X7189*
G37*
X9376D02*
G36*
Y1541D01*
X8512*
Y1471*
X9376*
G37*
X45Y2871D02*
G36*
Y2762D01*
X1618*
Y2871*
X45*
G37*
X1618D02*
G36*
Y2998D01*
X45*
Y2871*
X1618*
G37*
X2632D02*
G36*
Y2762D01*
X4220*
G75*
G02X4142Y2871I38J109*
G01*
X2632*
G37*
X4142D02*
G36*
G75*
G02X4374I116D01*
G01*
X6204*
Y2959*
G75*
G02X6226Y2981I22*
G01*
X6569*
G75*
G02X6581Y2998I51J-22*
G01*
X5219*
G75*
G02X5154Y2977I-36*
G01*
X5135*
Y2933*
X5029*
Y2998*
X4904*
Y2933*
X4798*
Y2977*
X4779*
G75*
G02X4714Y2998I-29J21*
G01*
X2632*
Y2871*
X4142*
G37*
X4374D02*
G36*
G75*
G02X4296Y2762I-116D01*
G01*
X4714*
G75*
G02X4779Y2783I36*
G01*
X4798*
Y2827*
X4904*
Y2762*
X5029*
Y2827*
X5135*
Y2783*
X5154*
G75*
G02X5219Y2762I29J-21*
G01*
X6204*
Y2871*
X4374*
G37*
X7134D02*
G36*
Y2762D01*
X7189*
Y2871*
X7134*
G37*
X7189D02*
G36*
Y2959D01*
G75*
G02X7211Y2981I22*
G01*
X7357*
G75*
G02X7369Y2998I51J-22*
G01*
X6856*
G75*
G02X6868Y2981I-39J-39*
G01*
X7112*
G75*
G02X7134Y2959J-22*
G01*
Y2871*
X7189*
G37*
X8512D02*
G36*
Y2762D01*
X9376*
Y2871*
X8512*
G37*
X9376D02*
G36*
Y2998D01*
X8431*
G75*
G02X8443Y2980I-39J-39*
G01*
G75*
G02X8447Y2981I4J-22*
G01*
X8490*
G75*
G02X8512Y2959J-22*
G01*
Y2871*
X9376*
G37*
X45Y10723D02*
G36*
Y10597D01*
X1638*
Y10723*
X45*
G37*
X1638D02*
G36*
Y10833D01*
X45*
Y10723*
X1638*
G37*
X2801D02*
G36*
Y10597D01*
X3210*
Y10699*
G75*
G02X3216Y10713I21*
G01*
X3226Y10723*
X2801*
G37*
X3226D02*
G36*
X3336Y10833D01*
X2801*
Y10723*
X3226*
G37*
X3286D02*
G36*
X3252Y10690D01*
Y10597*
X3419*
X3546Y10723*
X3286*
G37*
X3546D02*
G36*
X3655Y10833D01*
X3395*
X3286Y10723*
X3546*
G37*
X3605D02*
G36*
X3478Y10597D01*
X3701*
X3828Y10723*
X3605*
G37*
X3828D02*
G36*
X3938Y10833D01*
X3714*
X3605Y10723*
X3828*
G37*
X3888D02*
G36*
X3761Y10597D01*
X4714*
G75*
G02X4779Y10618I36*
G01*
X4798*
Y10662*
X4904*
Y10597*
X5029*
Y10662*
X5135*
Y10618*
X5154*
G75*
G02X5219Y10597I29J-21*
G01*
X6327*
G75*
G02X6386Y10707I59J39*
G01*
G75*
G02X6445Y10597J-71*
G01*
X6638*
Y10723*
X4374*
G75*
G02X4142I-116*
G01*
X3888*
G37*
X4142D02*
G36*
G75*
G02X4220Y10833I116D01*
G01*
X3997*
X3888Y10723*
X4142*
G37*
X6638D02*
G36*
Y10732D01*
X6226*
G75*
G02X6204Y10754J22*
G01*
Y10833*
X5219*
G75*
G02X5154Y10812I-36*
G01*
X5135*
Y10768*
X5029*
Y10833*
X4904*
Y10768*
X4798*
Y10812*
X4779*
G75*
G02X4714Y10833I-29J21*
G01*
X4296*
G75*
G02X4374Y10723I-38J-109*
G01*
X6638*
G37*
X7134D02*
G36*
Y10684D01*
G75*
G02X7186Y10707I52J-48*
G01*
G75*
G02X7245Y10597J-71*
G01*
X7327*
G75*
G02X7386Y10707I59J39*
G01*
G75*
G02X7445Y10597J-71*
G01*
X7681*
Y10627*
X7595Y10712*
X7211*
G75*
G02X7192Y10723J22*
G01*
X7134*
G37*
X7192D02*
G36*
G75*
G02X7189Y10734I19J11D01*
G01*
Y10833*
X7134*
Y10723*
X7192*
G37*
X8296D02*
G36*
Y10597D01*
X8527*
G75*
G02X8586Y10707I59J39*
G01*
G75*
G02X8645Y10597J-71*
G01*
X9376*
Y10723*
X8296*
G37*
X9376D02*
G36*
Y10833D01*
X8512*
Y10754*
G75*
G02X8490Y10732I-22*
G01*
X8296*
Y10723*
X9376*
G37*
X45Y12123D02*
G36*
Y11876D01*
X1638*
Y12123*
X45*
G37*
X1638D02*
G36*
Y12260D01*
G75*
G02X1660Y12282I22*
G01*
X2564*
G75*
G02X2586Y12260J-22*
G01*
Y12123*
X4142*
G75*
G02X4374I116*
G01*
X4716*
G75*
G02X4779Y12133I34J-11*
G01*
X4798*
Y12177*
X4904*
Y12123*
X5029*
Y12177*
X5135*
Y12133*
X5154*
G75*
G02X5217Y12123I29J-21*
G01*
X6204*
Y12349*
X5219*
G75*
G02X5154Y12328I-36*
G01*
X5135*
Y12284*
X5029*
Y12349*
X4904*
Y12284*
X4798*
Y12328*
X4779*
G75*
G02X4714Y12349I-29J21*
G01*
X45*
Y12123*
X1638*
G37*
X2586D02*
G36*
Y11876D01*
X4714*
G75*
G02X4779Y11897I36*
G01*
X4798*
Y11941*
X4904*
Y11876*
X5029*
Y11941*
X5135*
Y11897*
X5154*
G75*
G02X5219Y11876I29J-21*
G01*
X6347*
G75*
G02X6386Y11888I39J-59*
G01*
G75*
G02X6426Y11876J-71*
G01*
X6638*
Y11913*
X6226*
G75*
G02X6204Y11935J22*
G01*
Y12123*
X5217*
G75*
G02X5219Y12112I-34J-11*
G01*
G75*
G02X5154Y12091I-36*
G01*
X5135*
Y12047*
X5029*
Y12123*
X4904*
Y12047*
X4798*
Y12091*
X4779*
G75*
G02X4714Y12112I-29J21*
G01*
G75*
G02X4716Y12123I36J0*
G01*
X4374*
G75*
G02X4142I-116*
G01*
X2586*
G37*
X7134D02*
G36*
Y11865D01*
G75*
G02X7186Y11888I52J-48*
G01*
G75*
G02X7226Y11876J-71*
G01*
X7347*
G75*
G02X7386Y11888I39J-59*
G01*
G75*
G02X7426Y11876J-71*
G01*
X7613*
X7595Y11893*
X7211*
G75*
G02X7189Y11915J22*
G01*
Y12123*
X7134*
G37*
X7189D02*
G36*
Y12349D01*
X7134*
Y12123*
X7189*
G37*
X8512D02*
G36*
Y11935D01*
G75*
G02X8490Y11913I-22*
G01*
X8296*
Y11876*
X8547*
G75*
G02X8586Y11888I39J-59*
G01*
G75*
G02X8626Y11876J-71*
G01*
X9376*
Y12123*
X8512*
G37*
X9376D02*
G36*
Y12349D01*
X8512*
Y12123*
X9376*
G37*
X2690Y4671D02*
G36*
X2553Y4808D01*
X1894*
G75*
G02X1853Y4783I-41J21*
G01*
G75*
G02Y4875J46*
G01*
G75*
G02X1894Y4850J-46*
G01*
X2562*
G75*
G02X2577Y4844J-21*
G01*
X2749Y4671*
X2990*
X2753Y4908*
X1782*
G75*
G02X1741Y4883I-41J21*
G01*
G75*
G02X1701Y4908J46*
G01*
X45*
Y4671*
X2690*
G37*
X3290D02*
G36*
X3053Y4908D01*
X2813*
X3049Y4671*
X3290*
G37*
X4663D02*
G36*
G75*
G02X4728Y4692I36D01*
G01*
X4747*
Y4736*
X4853*
Y4671*
X4978*
Y4736*
X5084*
Y4692*
X5103*
G75*
G02X5168Y4671I29J-21*
G01*
X6347*
G75*
G02X6386Y4801I39J59*
G01*
G75*
G02X6426Y4671J-71*
G01*
X6638*
Y4827*
X6226*
G75*
G02X6204Y4849J22*
G01*
Y4908*
X5168*
G75*
G02X5103Y4887I-36*
G01*
X5084*
Y4843*
X4978*
Y4908*
X4853*
Y4843*
X4747*
Y4887*
X4728*
G75*
G02X4663Y4908I-29J21*
G01*
X3113*
X3349Y4671*
X4663*
G37*
X7347D02*
G36*
G75*
G02X7386Y4801I39J59D01*
G01*
G75*
G02X7426Y4671J-71*
G01*
X7681*
Y4721*
X7595Y4807*
X7211*
G75*
G02X7189Y4829J22*
G01*
Y4908*
X7134*
Y4779*
G75*
G02X7186Y4801I52J-48*
G01*
G75*
G02X7226Y4671J-71*
G01*
X7347*
G37*
X8547D02*
G36*
G75*
G02X8586Y4801I39J59D01*
G01*
G75*
G02X8626Y4671J-71*
G01*
X9376*
Y4908*
X8512*
Y4849*
G75*
G02X8490Y4827I-22*
G01*
X8296*
Y4671*
X8547*
G37*
X1701Y4908D02*
G36*
G75*
G02X1741Y4975I41J21D01*
G01*
G75*
G02X1782Y4950J-46*
G01*
X2762*
G75*
G02X2777Y4944J-21*
G01*
X2813Y4908*
X3053*
X2953Y5008*
X1899*
Y4983*
X1807*
Y5075*
X1899*
Y5050*
X2962*
G75*
G02X2977Y5044J-21*
G01*
X3113Y4908*
X4663*
G75*
G02X4728Y4929I36*
G01*
X4747*
Y4973*
X4853*
Y4908*
X4978*
Y4973*
X5084*
Y4929*
X5103*
G75*
G02X5168Y4908I29J-21*
G01*
X6204*
Y5321*
G75*
G02X6226Y5343I22*
G01*
X6569*
G75*
G02X6671I51J-22*
G01*
X6766*
G75*
G02X6868I51J-22*
G01*
X7112*
G75*
G02X7134Y5321J-22*
G01*
Y4908*
X7189*
Y5321*
G75*
G02X7211Y5343I22*
G01*
X7357*
G75*
G02X7458I51J-22*
G01*
X7554*
G75*
G02X7655I51J-22*
G01*
X8117*
G75*
G02X8132Y5337J-22*
G01*
X8155Y5359*
G75*
G02X8246Y5343I40J-38*
G01*
G75*
G02X8250Y5343I4J-22*
G01*
X8336*
G75*
G02X8341Y5343I0J-22*
G01*
G75*
G02X8443I51J-22*
G01*
G75*
G02X8447Y5343I4J-22*
G01*
X8490*
G75*
G02X8512Y5321J-22*
G01*
Y4908*
X9376*
Y5419*
X8349*
G75*
G02X8238I-55*
G01*
X8152*
G75*
G02X8041I-55*
G01*
X7561*
G75*
G02X7451I-55*
G01*
X7365*
G75*
G02X7254I-55*
G01*
X6774*
G75*
G02X6663I-55*
G01*
X6577*
G75*
G02X6466I-55*
G01*
X45*
Y4908*
X1701*
G37*
X45Y6030D02*
G36*
Y5912D01*
X6315*
G75*
G02X6386Y5983I71*
G01*
G75*
G02X6457Y5912J-71*
G01*
X6638*
Y6008*
X6226*
G75*
G02X6204Y6030J22*
G01*
X5168*
G75*
G02X5103Y6009I-36*
G01*
X5084*
Y5965*
X4978*
Y6030*
X4853*
Y5965*
X4747*
Y6009*
X4728*
G75*
G02X4663Y6030I-29J21*
G01*
X45*
G37*
X4663D02*
G36*
G75*
G02X4728Y6051I36D01*
G01*
X4747*
Y6095*
X4853*
Y6030*
X4978*
Y6095*
X5084*
Y6051*
X5103*
G75*
G02X5168Y6030I29J-21*
G01*
X6204*
Y6266*
X5168*
G75*
G02X5103Y6245I-36*
G01*
X5084*
Y6201*
X4978*
Y6266*
X4853*
Y6201*
X4747*
Y6245*
X4728*
G75*
G02X4663Y6266I-29J21*
G01*
X45*
Y6030*
X4663*
G37*
X7134D02*
G36*
Y5960D01*
G75*
G02X7186Y5983I52J-48*
G01*
G75*
G02X7257Y5912J-71*
G01*
X7315*
G75*
G02X7386Y5983I71*
G01*
G75*
G02X7457Y5912J-71*
G01*
X7672*
X7595Y5988*
X7211*
G75*
G02X7189Y6010J22*
G01*
Y6030*
X7134*
G37*
X7189D02*
G36*
Y6266D01*
X7134*
Y6030*
X7189*
G37*
X8512D02*
G36*
G75*
G02X8490Y6008I-22D01*
G01*
X8296*
Y5912*
X8515*
G75*
G02X8586Y5983I71*
G01*
G75*
G02X8657Y5912J-71*
G01*
X9376*
Y6030*
X8512*
G37*
X9376D02*
G36*
Y6266D01*
X8512*
Y6030*
X9376*
G37*
X4663Y6266D02*
G36*
G75*
G02X4728Y6287I36D01*
G01*
X4747*
Y6331*
X4853*
Y6266*
X4978*
Y6331*
X5084*
Y6287*
X5103*
G75*
G02X5168Y6266I29J-21*
G01*
X6204*
Y6502*
X5168*
G75*
G02X5103Y6481I-36*
G01*
X5084*
Y6437*
X4978*
Y6502*
X4853*
Y6437*
X4747*
Y6481*
X4728*
G75*
G02X4663Y6502I-29J21*
G01*
X45*
Y6266*
X4663*
G37*
X7189D02*
G36*
Y6502D01*
X7134*
Y6266*
X7189*
G37*
X9376D02*
G36*
Y6502D01*
X8512*
Y6266*
X9376*
G37*
X4663Y6502D02*
G36*
G75*
G02X4728Y6523I36D01*
G01*
X4747*
Y6567*
X4853*
Y6502*
X4978*
Y6567*
X5084*
Y6523*
X5103*
G75*
G02X5168Y6502I29J-21*
G01*
X6204*
G75*
G02X6226Y6524I22*
G01*
X6569*
G75*
G02X6671I51J-22*
G01*
X6766*
G75*
G02X6868I51J-22*
G01*
X7112*
G75*
G02X7134Y6502J-22*
G01*
X7189*
G75*
G02X7211Y6524I22*
G01*
X7357*
G75*
G02X7458I51J-22*
G01*
X7554*
G75*
G02X7655I51J-22*
G01*
X8117*
G75*
G02X8132Y6518J-22*
G01*
X8155Y6541*
G75*
G02X8246Y6524I40J-38*
G01*
G75*
G02X8250Y6524I4J-22*
G01*
X8336*
G75*
G02X8341Y6524I0J-22*
G01*
G75*
G02X8443I51J-22*
G01*
G75*
G02X8447Y6524I4J-22*
G01*
X8490*
G75*
G02X8512Y6502J-22*
G01*
X9376*
Y6600*
X8349*
G75*
G02X8238I-55*
G01*
X8152*
G75*
G02X8041I-55*
G01*
X7561*
G75*
G02X7451I-55*
G01*
X7365*
G75*
G02X7254I-55*
G01*
X6774*
G75*
G02X6663I-55*
G01*
X6577*
G75*
G02X6466I-55*
G01*
X45*
Y6502*
X4663*
G37*
X2702Y1069D02*
G36*
Y1187D01*
X45*
Y1069*
X2702*
G37*
X3135D02*
G36*
Y1187D01*
X2744*
Y1069*
X3135*
G37*
X3253D02*
G36*
Y1187D01*
X3177*
Y1069*
X3253*
G37*
X3331D02*
G36*
Y1187D01*
X3295*
Y1069*
X3331*
G37*
X4714D02*
G36*
G75*
G02X4779Y1090I36D01*
G01*
X4798*
Y1134*
X4904*
Y1069*
X5029*
Y1134*
X5135*
Y1090*
X5154*
G75*
G02X5219Y1069I29J-21*
G01*
X6638*
Y1187*
X6457*
G75*
G02X6386Y1116I-71*
G01*
G75*
G02X6315Y1187J71*
G01*
X3373*
Y1069*
X4714*
G37*
X7681D02*
G36*
Y1178D01*
X7672Y1187*
X7457*
G75*
G02X7386Y1116I-71*
G01*
G75*
G02X7315Y1187J71*
G01*
X7257*
G75*
G02X7186Y1116I-71*
G01*
G75*
G02X7134Y1139J71*
G01*
Y1069*
X7681*
G37*
X9376D02*
G36*
Y1187D01*
X8657*
G75*
G02X8586Y1116I-71*
G01*
G75*
G02X8515Y1187J71*
G01*
X8296*
Y1069*
X9376*
G37*
X1618Y1541D02*
G36*
Y1876D01*
X45*
Y1541*
X1618*
G37*
X3135D02*
G36*
Y1876D01*
X2744*
Y1541*
X3135*
G37*
X3253D02*
G36*
Y1794D01*
G75*
G02X3259Y1809I21*
G01*
X3326Y1876*
X3177*
Y1541*
X3253*
G37*
X3331D02*
G36*
Y1594D01*
G75*
G02X3338Y1609I21*
G01*
X3604Y1876*
X3385*
X3295Y1786*
Y1541*
X3331*
G37*
X4166D02*
G36*
G75*
G02X4350I92J-70D01*
G01*
X4714*
G75*
G02X4779Y1562I36*
G01*
X4798*
Y1606*
X4904*
Y1541*
X5029*
Y1606*
X5135*
Y1562*
X5154*
G75*
G02X5219Y1541I29J-21*
G01*
X6204*
Y1778*
G75*
G02X6226Y1800I22*
G01*
X6569*
G75*
G02X6671I51J-22*
G01*
X6766*
G75*
G02X6868I51J-22*
G01*
X7112*
G75*
G02X7134Y1778J-22*
G01*
Y1541*
X7189*
Y1778*
G75*
G02X7211Y1800I22*
G01*
X7357*
G75*
G02X7458I51J-22*
G01*
X7554*
G75*
G02X7655I51J-22*
G01*
X8117*
G75*
G02X8132Y1793J-22*
G01*
X8155Y1816*
G75*
G02X8246Y1799I40J-38*
G01*
G75*
G02X8250Y1800I4J-22*
G01*
X8336*
G75*
G02X8341Y1799I0J-22*
G01*
G75*
G02X8443I51J-22*
G01*
G75*
G02X8447Y1800I4J-22*
G01*
X8490*
G75*
G02X8512Y1778J-22*
G01*
Y1541*
X9376*
Y1876*
X8349*
G75*
G02X8238I-55*
G01*
X8152*
G75*
G02X8041I-55*
G01*
X7561*
G75*
G02X7451I-55*
G01*
X7365*
G75*
G02X7254I-55*
G01*
X6774*
G75*
G02X6663I-55*
G01*
X6577*
G75*
G02X6466I-55*
G01*
X4314*
G75*
G02X4314Y1871I-56J-5*
G01*
G75*
G02X4207Y1848I-56*
G01*
X3636*
X3373Y1586*
Y1541*
X4166*
G37*
X1618Y2526D02*
G36*
Y2762D01*
X45*
Y2526*
X1618*
G37*
X4244D02*
G36*
G75*
G02X4272I14J-54D01*
G01*
X4714*
G75*
G02X4779Y2547I36*
G01*
X4798*
Y2591*
X4904*
Y2526*
X5029*
Y2591*
X5135*
Y2547*
X5154*
G75*
G02X5219Y2526I29J-21*
G01*
X6204*
Y2762*
X5219*
G75*
G02X5154Y2741I-36*
G01*
X5135*
Y2697*
X5029*
Y2762*
X4904*
Y2697*
X4798*
Y2741*
X4779*
G75*
G02X4714Y2762I-29J21*
G01*
X4296*
G75*
G02X4220I-38J109*
G01*
X2632*
Y2526*
X4244*
G37*
X7189D02*
G36*
Y2762D01*
X7134*
Y2526*
X7189*
G37*
X9376D02*
G36*
Y2762D01*
X8512*
Y2526*
X9376*
G37*
X1618Y2998D02*
G36*
G75*
G02X1640Y3020I22D01*
G01*
X2610*
G75*
G02X2632Y2998J-22*
G01*
X4714*
G75*
G02X4779Y3019I36*
G01*
X4798*
Y3057*
X45*
Y2998*
X1618*
G37*
X5029D02*
G36*
Y3057D01*
X4904*
Y2998*
X5029*
G37*
X6581D02*
G36*
G75*
G02X6671Y2981I39J-39D01*
G01*
X6766*
G75*
G02X6856Y2998I51J-22*
G01*
X7369*
G75*
G02X7458Y2981I39J-39*
G01*
X7554*
G75*
G02X7655I51J-22*
G01*
X8117*
G75*
G02X8132Y2974J-22*
G01*
X8155Y2997*
G75*
G02X8246Y2980I40J-38*
G01*
G75*
G02X8250Y2981I4J-22*
G01*
X8336*
G75*
G02X8341Y2980I0J-22*
G01*
G75*
G02X8431Y2998I51J-22*
G01*
X9376*
Y3057*
X8349*
G75*
G02X8238I-55*
G01*
X8152*
G75*
G02X8041I-55*
G01*
X7561*
G75*
G02X7451I-55*
G01*
X7365*
G75*
G02X7254I-55*
G01*
X6774*
G75*
G02X6663I-55*
G01*
X6577*
G75*
G02X6466I-55*
G01*
X5135*
Y3019*
X5154*
G75*
G02X5219Y2998I29J-21*
G01*
X6581*
G37*
X45Y10360D02*
G36*
Y10144D01*
X2759*
Y10360*
X45*
G37*
X2759D02*
G36*
Y11306D01*
X2586Y11479*
Y11256*
G75*
G02X2564Y11234I-22*
G01*
X2236*
Y11028*
X2564*
G75*
G02X2586Y11006J-22*
G01*
Y10587*
G75*
G02X2564Y10565I-22*
G01*
X1660*
G75*
G02X1638Y10587J22*
G01*
Y10597*
X45*
Y10360*
X2759*
G37*
X2801D02*
G36*
Y10144D01*
X3210*
Y10360*
X2801*
G37*
X3210D02*
G36*
Y10597D01*
X2801*
Y10360*
X3210*
G37*
X3252D02*
G36*
Y10144D01*
X3310*
Y10360*
X3252*
G37*
X3310D02*
G36*
Y10479D01*
G75*
G02X3316Y10494I21*
G01*
X3419Y10597*
X3252*
Y10360*
X3310*
G37*
X3352D02*
G36*
Y10144D01*
X3410*
Y10297*
G75*
G02X3416Y10311I21*
G01*
X3465Y10360*
X3352*
G37*
X3465D02*
G36*
X3701Y10597D01*
X3478*
X3352Y10471*
Y10360*
X3465*
G37*
X3525D02*
G36*
X3452Y10288D01*
Y10144*
X6466*
G75*
G02X6577I55*
G01*
X6663*
G75*
G02X6774I55*
G01*
X7254*
G75*
G02X7365I55*
G01*
X7451*
G75*
G02X7561I55*
G01*
X8041*
G75*
G02X8152I55*
G01*
X8238*
G75*
G02X8349I55*
G01*
X9376*
Y10360*
X5219*
G75*
G02X5154Y10339I-36*
G01*
X5135*
Y10295*
X5029*
Y10360*
X4904*
Y10295*
X4798*
Y10339*
X4779*
G75*
G02X4714Y10360I-29J21*
G01*
X3525*
G37*
X4714D02*
G36*
G75*
G02X4779Y10381I36D01*
G01*
X4798*
Y10425*
X4904*
Y10360*
X5029*
Y10425*
X5135*
Y10381*
X5154*
G75*
G02X5219Y10360I29J-21*
G01*
X9376*
Y10597*
X8645*
G75*
G02X8586Y10565I-59J39*
G01*
G75*
G02X8527Y10597J71*
G01*
X8296*
Y10439*
G75*
G02X8274Y10417I-22*
G01*
X7703*
G75*
G02X7681Y10439J22*
G01*
Y10597*
X7445*
G75*
G02X7386Y10565I-59J39*
G01*
G75*
G02X7327Y10597J71*
G01*
X7245*
G75*
G02X7186Y10565I-59J39*
G01*
G75*
G02X7134Y10588J71*
G01*
Y10439*
G75*
G02X7112Y10417I-22*
G01*
X6660*
G75*
G02X6638Y10439J22*
G01*
Y10597*
X6445*
G75*
G02X6386Y10565I-59J39*
G01*
G75*
G02X6327Y10597J71*
G01*
X5219*
G75*
G02X5154Y10576I-36*
G01*
X5135*
Y10532*
X5029*
Y10597*
X4904*
Y10532*
X4798*
Y10576*
X4779*
G75*
G02X4714Y10597I-29J21*
G01*
X3761*
X3525Y10360*
X4714*
G37*
X1638Y10833D02*
G36*
Y11325D01*
X45*
Y10833*
X1638*
G37*
X3336D02*
G36*
X3828Y11325D01*
X2798*
G75*
G02X2801Y11315I-18J-10*
G01*
Y10833*
X3336*
G37*
X3655D02*
G36*
X4147Y11325D01*
X3887*
X3395Y10833*
X3655*
G37*
X3938D02*
G36*
X4206Y11101D01*
G75*
G02X4202Y11123I52J22*
G01*
G75*
G02X4314I56*
G01*
G75*
G02X4236Y11072I-56*
G01*
X3997Y10833*
X4220*
G75*
G02X4296I38J-109*
G01*
X4714*
G75*
G02X4779Y10854I36*
G01*
X4798*
Y10898*
X4904*
Y10833*
X5029*
Y10898*
X5135*
Y10854*
X5154*
G75*
G02X5219Y10833I29J-21*
G01*
X6204*
Y11226*
G75*
G02X6226Y11248I22*
G01*
X6569*
G75*
G02X6671I51J-22*
G01*
X6766*
G75*
G02X6868I51J-22*
G01*
X7112*
G75*
G02X7134Y11226J-22*
G01*
Y10833*
X7189*
Y11226*
G75*
G02X7211Y11248I22*
G01*
X7357*
G75*
G02X7458I51J-22*
G01*
X7554*
G75*
G02X7655I51J-22*
G01*
X8117*
G75*
G02X8132Y11242J-22*
G01*
X8155Y11265*
G75*
G02X8246Y11248I40J-38*
G01*
G75*
G02X8250Y11248I4J-22*
G01*
X8336*
G75*
G02X8341Y11248I0J-22*
G01*
G75*
G02X8443I51J-22*
G01*
G75*
G02X8447Y11248I4J-22*
G01*
X8490*
G75*
G02X8512Y11226J-22*
G01*
Y10833*
X9376*
Y11325*
X8349*
G75*
G02X8238I-55*
G01*
X8152*
G75*
G02X8041I-55*
G01*
X7561*
G75*
G02X7451I-55*
G01*
X7365*
G75*
G02X7254I-55*
G01*
X6774*
G75*
G02X6663I-55*
G01*
X6577*
G75*
G02X6466I-55*
G01*
X4207*
X3714Y10833*
X3938*
G37*
X4714Y12349D02*
G36*
G75*
G02X4779Y12370I36D01*
G01*
X4798*
Y12414*
X4904*
Y12349*
X5029*
Y12414*
X5135*
Y12370*
X5154*
G75*
G02X5219Y12349I29J-21*
G01*
X6204*
Y12408*
G75*
G02X6226Y12430I22*
G01*
X6569*
G75*
G02X6671I51J-22*
G01*
X6766*
G75*
G02X6868I51J-22*
G01*
X7112*
G75*
G02X7134Y12408J-22*
G01*
Y12349*
X7189*
Y12408*
G75*
G02X7211Y12430I22*
G01*
X7357*
G75*
G02X7458I51J-22*
G01*
X7554*
G75*
G02X7655I51J-22*
G01*
X8117*
G75*
G02X8132Y12423J-22*
G01*
X8155Y12446*
G75*
G02X8246Y12429I40J-38*
G01*
G75*
G02X8250Y12430I4J-22*
G01*
X8336*
G75*
G02X8341Y12429I0J-22*
G01*
G75*
G02X8443I51J-22*
G01*
G75*
G02X8447Y12430I4J-22*
G01*
X8490*
G75*
G02X8512Y12408J-22*
G01*
Y12349*
X9376*
Y12506*
X8349*
G75*
G02X8238I-55*
G01*
X8152*
G75*
G02X8041I-55*
G01*
X7561*
G75*
G02X7451I-55*
G01*
X7365*
G75*
G02X7254I-55*
G01*
X6774*
G75*
G02X6663I-55*
G01*
X6577*
G75*
G02X6466I-55*
G01*
X45*
Y12349*
X4714*
G37*
X45Y3549D02*
G36*
Y3057D01*
X4798*
Y3063*
X4904*
Y3057*
X5029*
Y3063*
X5135*
Y3057*
X6466*
G75*
G02X6577I55*
G01*
X6663*
G75*
G02X6774I55*
G01*
X7254*
G75*
G02X7365I55*
G01*
X7451*
G75*
G02X7561I55*
G01*
X8041*
G75*
G02X8152I55*
G01*
X8238*
G75*
G02X8349I55*
G01*
X9376*
Y3549*
X8657*
G75*
G02X8586Y3478I-71*
G01*
G75*
G02X8515Y3549J71*
G01*
X8296*
Y3352*
G75*
G02X8274Y3330I-22*
G01*
X7703*
G75*
G02X7681Y3352J22*
G01*
Y3540*
X7672Y3549*
X7457*
G75*
G02X7386Y3478I-71*
G01*
G75*
G02X7315Y3549J71*
G01*
X7257*
G75*
G02X7186Y3478I-71*
G01*
G75*
G02X7134Y3501J71*
G01*
Y3352*
G75*
G02X7112Y3330I-22*
G01*
X6660*
G75*
G02X6638Y3352J22*
G01*
Y3549*
X6457*
G75*
G02X6386Y3478I-71*
G01*
G75*
G02X6315Y3549J71*
G01*
X45*
G37*
Y5912D02*
G36*
Y5419D01*
X6466*
G75*
G02X6577I55*
G01*
X6663*
G75*
G02X6774I55*
G01*
X7254*
G75*
G02X7365I55*
G01*
X7451*
G75*
G02X7561I55*
G01*
X8041*
G75*
G02X8152I55*
G01*
X8238*
G75*
G02X8349I55*
G01*
X9376*
Y5912*
X8657*
G75*
G02X8586Y5841I-71*
G01*
G75*
G02X8515Y5912J71*
G01*
X8296*
Y5715*
G75*
G02X8274Y5693I-22*
G01*
X7703*
G75*
G02X7681Y5715J22*
G01*
Y5902*
X7672Y5912*
X7457*
G75*
G02X7386Y5841I-71*
G01*
G75*
G02X7315Y5912J71*
G01*
X7257*
G75*
G02X7186Y5841I-71*
G01*
G75*
G02X7134Y5863J71*
G01*
Y5715*
G75*
G02X7112Y5693I-22*
G01*
X6660*
G75*
G02X6638Y5715J22*
G01*
Y5912*
X6457*
G75*
G02X6386Y5841I-71*
G01*
G75*
G02X6315Y5912J71*
G01*
X45*
G37*
Y8274D02*
G36*
Y7782D01*
X3556*
X3564Y7790*
Y7958*
X3110*
G75*
G02X3088Y7980J22*
G01*
Y8233*
X2857*
Y7980*
G75*
G02X2835Y7958I-22*
G01*
X2435*
G75*
G02X2413Y7980J22*
G01*
Y8274*
X45*
G37*
X4132D02*
G36*
Y7980D01*
G75*
G02X4110Y7958I-22*
G01*
X3606*
Y7782*
X6466*
G75*
G02X6577I55*
G01*
X6663*
G75*
G02X6774I55*
G01*
X7254*
G75*
G02X7365I55*
G01*
X7451*
G75*
G02X7561I55*
G01*
X8041*
G75*
G02X8152I55*
G01*
X8238*
G75*
G02X8349I55*
G01*
X9376*
Y8274*
X8657*
G75*
G02X8586Y8203I-71*
G01*
G75*
G02X8515Y8274J71*
G01*
X8296*
Y8077*
G75*
G02X8274Y8055I-22*
G01*
X7703*
G75*
G02X7681Y8077J22*
G01*
Y8265*
X7672Y8274*
X7457*
G75*
G02X7386Y8203I-71*
G01*
G75*
G02X7315Y8274J71*
G01*
X7257*
G75*
G02X7186Y8203I-71*
G01*
G75*
G02X7134Y8225J71*
G01*
Y8077*
G75*
G02X7112Y8055I-22*
G01*
X6660*
G75*
G02X6638Y8077J22*
G01*
Y8274*
X6457*
G75*
G02X6386Y8203I-71*
G01*
G75*
G02X6315Y8274J71*
G01*
X4132*
G37*
X6466Y12506D02*
G36*
G75*
G02X6577I55D01*
G01*
X6663*
G75*
G02X6774I55*
G01*
X7254*
G75*
G02X7365I55*
G01*
X7451*
G75*
G02X7561I55*
G01*
X8041*
G75*
G02X8152I55*
G01*
X8238*
G75*
G02X8349I55*
G01*
X9376*
Y13392*
X45*
Y12506*
X6466*
G37*
X2564Y11501D02*
X2389Y11676D01*
G75*
G02X2302Y11723I-31J47*
G01*
G75*
G02X2414I56*
G01*
G75*
G02X2413Y11712I-56*
G01*
X2564Y11561*
Y12260*
X1660*
Y10587*
X2564*
Y11006*
X2214*
Y11256*
X2564*
Y11501*
X1759Y11494D02*
G75*
G02X1758Y11494I-1J87D01*
G01*
G75*
G02Y11668J87*
G01*
G75*
G02X1759Y11668J-87*
G01*
X1899*
X1930Y11698*
G75*
G02X1955Y11724I74J-49*
G01*
X1986Y11755*
Y11994*
G75*
G02X2012Y12056I87J0*
G01*
X2033Y12077*
X1997*
G75*
G02X1933Y12112I-22J36*
G01*
G75*
G02X1997Y12148I42*
G01*
X2104*
X2149Y12193*
G75*
G02X2211Y12219I61J-61*
G01*
X2292*
G75*
G02X2474Y12123I66J-96*
G01*
G75*
G02X2272Y12045I-116*
G01*
X2247*
X2160Y11958*
Y11719*
G75*
G02X2134Y11657I-87J0*
G01*
X2078Y11601*
G75*
G02X2069Y11589I-74J49*
G01*
Y11533*
X2099*
Y11427*
X1969*
Y11501*
G75*
G02X1935Y11494I-33J80*
G01*
X1759*
X1660Y11833D02*
G36*
Y10587D01*
X2564*
Y11006*
X2214*
Y11256*
X2564*
Y11501*
X2389Y11676*
G75*
G02X2302Y11723I-31J47*
G01*
G75*
G02X2414I56*
G01*
G75*
G02X2413Y11712I-56*
G01*
X2564Y11561*
Y11833*
X2160*
Y11719*
G75*
G02X2134Y11657I-87J0*
G01*
X2078Y11601*
G75*
G02X2069Y11589I-74J49*
G01*
Y11533*
X2099*
Y11427*
X1969*
Y11501*
G75*
G02X1935Y11494I-33J80*
G01*
X1759*
G75*
G02X1758Y11494I-1J87*
G01*
G75*
G02Y11668J87*
G01*
G75*
G02X1759Y11668J-87*
G01*
X1899*
X1930Y11698*
G75*
G02X1955Y11724I74J-49*
G01*
X1986Y11755*
Y11833*
X1660*
G37*
X1986D02*
G36*
Y11994D01*
G75*
G02X2012Y12056I87J0*
G01*
X2033Y12077*
X1997*
G75*
G02X1933Y12112I-22J36*
G01*
G75*
G02X1997Y12148I42*
G01*
X2104*
X2149Y12193*
G75*
G02X2211Y12219I61J-61*
G01*
X2292*
G75*
G02X2474Y12123I66J-96*
G01*
G75*
G02X2272Y12045I-116*
G01*
X2247*
X2160Y11958*
Y11833*
X2564*
Y12260*
X1660*
Y11833*
X1986*
G37*
X2610Y2176D02*
X2369Y2416D01*
G75*
G02X2302Y2471I-11J55*
G01*
G75*
G02X2414I56*
G01*
G75*
G02X2405Y2440I-56J0*
G01*
X2610Y2235*
Y2998*
X1640*
Y1344*
X2610*
Y1719*
X2235*
Y2019*
X2610*
Y2176*
X1749Y2281D02*
G75*
G02X1748Y2281I-1J87D01*
G01*
G75*
G02Y2455J87*
G01*
G75*
G02X1749Y2455J-87*
G01*
X1909*
X1927Y2473*
Y2762*
G75*
G02X1952Y2823I87J0*
G01*
X1954Y2825*
X1879*
G75*
G02X1814Y2860I-22J36*
G01*
G75*
G02X1879Y2896I42*
G01*
X2025*
X2071Y2941*
G75*
G02X2132Y2967I61J-61*
G01*
X2292*
G75*
G02X2474Y2871I66J-96*
G01*
G75*
G02X2272Y2793I-116*
G01*
X2168*
X2101Y2726*
Y2455*
G75*
G02X2062Y2363I-87J-18*
G01*
X2050Y2350*
Y2300*
X2079*
Y2194*
X1949*
Y2281*
G75*
G02X1945Y2281I-4J87*
G01*
X1749*
X1640Y2591D02*
G36*
Y1344D01*
X2610*
Y1719*
X2235*
Y2019*
X2610*
Y2176*
X2369Y2416*
G75*
G02X2302Y2471I-11J55*
G01*
G75*
G02X2414I56*
G01*
G75*
G02X2405Y2440I-56J0*
G01*
X2610Y2235*
Y2591*
X2101*
Y2455*
G75*
G02X2062Y2363I-87J-18*
G01*
X2050Y2350*
Y2300*
X2079*
Y2194*
X1949*
Y2281*
G75*
G02X1945Y2281I-4J87*
G01*
X1749*
G75*
G02X1748Y2281I-1J87*
G01*
G75*
G02Y2455J87*
G01*
G75*
G02X1749Y2455J-87*
G01*
X1909*
X1927Y2473*
Y2591*
X1640*
G37*
X1927D02*
G36*
Y2762D01*
G75*
G02X1952Y2823I87J0*
G01*
X1954Y2825*
X1879*
G75*
G02X1814Y2860I-22J36*
G01*
G75*
G02X1879Y2896I42*
G01*
X2025*
X2071Y2941*
G75*
G02X2132Y2967I61J-61*
G01*
X2292*
G75*
G02X2474Y2871I66J-96*
G01*
G75*
G02X2272Y2793I-116*
G01*
X2168*
X2101Y2726*
Y2591*
X2610*
Y2998*
X1640*
Y2591*
X1927*
G37*
X3564Y7980D02*
Y8088D01*
G75*
G02X3574Y8199I9J55*
G01*
G75*
G02X3606Y8097J-56*
G01*
Y7980*
X4110*
Y9041*
X2435*
Y7980*
X2835*
Y8255*
X3110*
Y7980*
X3564*
X3086Y8614D02*
Y8749D01*
G75*
G02X3146Y8802I38J17*
G01*
X3439*
Y8942*
G75*
G02X3439Y8943I79J1*
G01*
G75*
G02X3597I79*
G01*
G75*
G02X3597Y8942I-79*
G01*
Y8783*
G75*
G02X3598Y8778I-79J-17*
G01*
X4027Y8349*
G75*
G02X4050Y8293I-56J-56*
G01*
Y8231*
G75*
G02X3974Y8027I-76J-88*
G01*
G75*
G02X3892Y8225J116*
G01*
Y8261*
X3462Y8690*
G75*
G02X3441Y8730I56J56*
G01*
X3157*
Y8614*
X3175*
Y8484*
X3069*
Y8614*
X3086*
X2435Y8525D02*
G36*
Y7980D01*
X2835*
Y8255*
X3110*
Y7980*
X3564*
Y8088*
G75*
G02X3574Y8199I9J55*
G01*
G75*
G02X3606Y8097J-56*
G01*
Y7980*
X4110*
Y8525*
X3851*
X4027Y8349*
G75*
G02X4050Y8293I-56J-56*
G01*
Y8231*
G75*
G02X3974Y8027I-76J-88*
G01*
G75*
G02X3892Y8225J116*
G01*
Y8261*
X3462Y8690*
G75*
G02X3441Y8730I56J56*
G01*
X3157*
Y8614*
X3175*
Y8484*
X3069*
Y8525*
X2435*
G37*
X3069D02*
G36*
Y8614D01*
X3086*
Y8749*
G75*
G02X3146Y8802I38J17*
G01*
X3439*
Y8942*
G75*
G02X3439Y8943I79J1*
G01*
G75*
G02X3597I79*
G01*
G75*
G02X3597Y8942I-79*
G01*
Y8783*
G75*
G02X3598Y8778I-79J-17*
G01*
X3851Y8525*
X4110*
Y9041*
X2435*
Y8525*
X3069*
G37*
X7112Y990D02*
Y1778D01*
X6226*
Y1305*
X6660*
Y990*
X7112*
X6634Y1678D02*
G75*
G02X6634Y1679I85J1D01*
G01*
G75*
G02X6804I85*
G01*
G75*
G02X6803Y1678I-85*
G01*
Y1498*
X6846Y1455*
G75*
G02X6871Y1395I-60J-60*
G01*
Y1188*
G75*
G02X6786Y1102I-85J-1*
G01*
G75*
G02X6701Y1188J85*
G01*
Y1360*
X6659Y1403*
G75*
G02X6634Y1463I60J60*
G01*
Y1678*
X6226Y1433D02*
G36*
Y1305D01*
X6660*
Y990*
X7112*
Y1433*
X6862*
G75*
G02X6871Y1395I-76J-38*
G01*
Y1188*
G75*
G02X6786Y1102I-85J-1*
G01*
G75*
G02X6701Y1188J85*
G01*
Y1360*
X6659Y1403*
G75*
G02X6639Y1433I60J60*
G01*
X6226*
G37*
X6639D02*
G36*
G75*
G02X6634Y1463I80J30D01*
G01*
Y1678*
G75*
G02X6634Y1679I85J1*
G01*
G75*
G02X6804I85*
G01*
G75*
G02X6803Y1678I-85*
G01*
Y1498*
X6846Y1455*
G75*
G02X6862Y1433I-60J-60*
G01*
X7112*
Y1778*
X6226*
Y1433*
X6639*
G37*
X7112Y2171D02*
Y2959D01*
X6226*
Y2486*
X6660*
Y2171*
X7112*
X6634Y2859D02*
G75*
G02X6634Y2860I85J1D01*
G01*
G75*
G02X6804I85*
G01*
G75*
G02X6803Y2859I-85*
G01*
Y2718*
X6846Y2675*
G75*
G02X6871Y2615I-60J-60*
G01*
Y2369*
G75*
G02X6786Y2283I-85J-1*
G01*
G75*
G02X6701Y2369J85*
G01*
Y2580*
X6659Y2623*
G75*
G02X6634Y2683I60J60*
G01*
Y2859*
X6226Y2614D02*
G36*
Y2486D01*
X6660*
Y2171*
X7112*
Y2614*
X6871*
Y2369*
G75*
G02X6786Y2283I-85J-1*
G01*
G75*
G02X6701Y2369J85*
G01*
Y2580*
X6667Y2614*
X6226*
G37*
X6667D02*
G36*
X6659Y2623D01*
G75*
G02X6634Y2683I60J60*
G01*
Y2859*
G75*
G02X6634Y2860I85J1*
G01*
G75*
G02X6804I85*
G01*
G75*
G02X6803Y2859I-85*
G01*
Y2718*
X6846Y2675*
G75*
G02X6871Y2615I-60J-60*
G01*
Y2614*
X7112*
Y2959*
X6226*
Y2614*
X6667*
G37*
X7112Y3352D02*
Y4140D01*
X6226*
Y3667*
X6660*
Y3352*
X7112*
X6634Y4040D02*
G75*
G02X6634Y4041I85J1D01*
G01*
G75*
G02X6804I85*
G01*
G75*
G02X6803Y4040I-85*
G01*
Y3899*
X6846Y3857*
G75*
G02X6871Y3797I-60J-60*
G01*
Y3550*
G75*
G02X6786Y3464I-85J-1*
G01*
G75*
G02X6701Y3550J85*
G01*
Y3761*
X6659Y3804*
G75*
G02X6634Y3864I60J60*
G01*
Y4040*
X6226Y3795D02*
G36*
Y3667D01*
X6660*
Y3352*
X7112*
Y3795*
X6871*
Y3550*
G75*
G02X6786Y3464I-85J-1*
G01*
G75*
G02X6701Y3550J85*
G01*
Y3761*
X6667Y3795*
X6226*
G37*
X6667D02*
G36*
X6659Y3804D01*
G75*
G02X6634Y3864I60J60*
G01*
Y4040*
G75*
G02X6634Y4041I85J1*
G01*
G75*
G02X6804I85*
G01*
G75*
G02X6803Y4040I-85*
G01*
Y3899*
X6846Y3857*
G75*
G02X6871Y3797I-60J-60*
G01*
Y3795*
X7112*
Y4140*
X6226*
Y3795*
X6667*
G37*
X7112Y4534D02*
Y5321D01*
X6226*
Y4849*
X6660*
Y4534*
X7112*
X6634Y5221D02*
G75*
G02X6634Y5223I85J1D01*
G01*
G75*
G02X6804I85*
G01*
G75*
G02X6803Y5221I-85*
G01*
Y5100*
X6846Y5057*
G75*
G02X6871Y4997I-60J-60*
G01*
Y4732*
G75*
G02X6786Y4646I-85J-1*
G01*
G75*
G02X6701Y4732J85*
G01*
Y4962*
X6701Y4962*
G75*
G02X6634Y5045I17J83*
G01*
Y5221*
X6226Y4976D02*
G36*
Y4849D01*
X6660*
Y4534*
X7112*
Y4976*
X6871*
Y4732*
G75*
G02X6786Y4646I-85J-1*
G01*
G75*
G02X6701Y4732J85*
G01*
Y4962*
X6701Y4962*
G75*
G02X6669Y4976I17J83*
G01*
X6226*
G37*
X6669D02*
G36*
G75*
G02X6634Y5045I50J69D01*
G01*
Y5221*
G75*
G02X6634Y5223I85J1*
G01*
G75*
G02X6804I85*
G01*
G75*
G02X6803Y5221I-85*
G01*
Y5100*
X6846Y5057*
G75*
G02X6871Y4997I-60J-60*
G01*
Y4976*
X7112*
Y5321*
X6226*
Y4976*
X6669*
G37*
X7112Y5715D02*
Y6502D01*
X6226*
Y6030*
X6660*
Y5715*
X7112*
X6634Y6402D02*
G75*
G02X6634Y6404I85J1D01*
G01*
G75*
G02X6804I85*
G01*
G75*
G02X6803Y6402I-85*
G01*
Y6262*
X6846Y6219*
G75*
G02X6871Y6159I-60J-60*
G01*
Y5913*
G75*
G02X6786Y5827I-85J-1*
G01*
G75*
G02X6701Y5913J85*
G01*
Y6124*
X6659Y6166*
G75*
G02X6634Y6226I60J60*
G01*
Y6402*
X6226Y6158D02*
G36*
Y6030D01*
X6660*
Y5715*
X7112*
Y6158*
X6871*
Y5913*
G75*
G02X6786Y5827I-85J-1*
G01*
G75*
G02X6701Y5913J85*
G01*
Y6124*
X6667Y6158*
X6226*
G37*
X6667D02*
G36*
X6659Y6166D01*
G75*
G02X6634Y6226I60J60*
G01*
Y6402*
G75*
G02X6634Y6404I85J1*
G01*
G75*
G02X6804I85*
G01*
G75*
G02X6803Y6402I-85*
G01*
Y6262*
X6846Y6219*
G75*
G02X6871Y6159I-60J-60*
G01*
Y6158*
X7112*
Y6502*
X6226*
Y6158*
X6667*
G37*
X7112Y6896D02*
Y7683D01*
X6226*
Y7211*
X6660*
Y6896*
X7112*
X6634Y7584D02*
G75*
G02X6634Y7585I85J1D01*
G01*
G75*
G02X6804I85*
G01*
G75*
G02X6803Y7584I-85*
G01*
Y7443*
X6846Y7400*
G75*
G02X6871Y7340I-60J-60*
G01*
Y7094*
G75*
G02X6786Y7008I-85J-1*
G01*
G75*
G02X6701Y7094J85*
G01*
Y7305*
X6659Y7348*
G75*
G02X6634Y7408I60J60*
G01*
Y7584*
X6226Y7339D02*
G36*
Y7211D01*
X6660*
Y6896*
X7112*
Y7339*
X6871*
Y7094*
G75*
G02X6786Y7008I-85J-1*
G01*
G75*
G02X6701Y7094J85*
G01*
Y7305*
X6667Y7339*
X6226*
G37*
X6667D02*
G36*
X6659Y7348D01*
G75*
G02X6634Y7408I60J60*
G01*
Y7584*
G75*
G02X6634Y7585I85J1*
G01*
G75*
G02X6804I85*
G01*
G75*
G02X6803Y7584I-85*
G01*
Y7443*
X6846Y7400*
G75*
G02X6871Y7340I-60J-60*
G01*
Y7339*
X7112*
Y7683*
X6226*
Y7339*
X6667*
G37*
X7112Y8077D02*
Y8864D01*
X6226*
Y8392*
X6660*
Y8077*
X7112*
X6634Y8765D02*
G75*
G02X6634Y8766I85J1D01*
G01*
G75*
G02X6804I85*
G01*
G75*
G02X6803Y8765I-85*
G01*
Y8584*
X6846Y8542*
G75*
G02X6871Y8482I-60J-60*
G01*
Y8275*
G75*
G02X6786Y8189I-85J-1*
G01*
G75*
G02X6701Y8275J85*
G01*
Y8446*
X6659Y8489*
G75*
G02X6634Y8549I60J60*
G01*
Y8765*
X6226Y8520D02*
G36*
Y8392D01*
X6660*
Y8077*
X7112*
Y8520*
X6862*
G75*
G02X6871Y8482I-76J-38*
G01*
Y8275*
G75*
G02X6786Y8189I-85J-1*
G01*
G75*
G02X6701Y8275J85*
G01*
Y8446*
X6659Y8489*
G75*
G02X6639Y8520I60J60*
G01*
X6226*
G37*
X6639D02*
G36*
G75*
G02X6634Y8549I80J30D01*
G01*
Y8765*
G75*
G02X6634Y8766I85J1*
G01*
G75*
G02X6804I85*
G01*
G75*
G02X6803Y8765I-85*
G01*
Y8584*
X6846Y8542*
G75*
G02X6862Y8520I-60J-60*
G01*
X7112*
Y8864*
X6226*
Y8520*
X6639*
G37*
X7112Y9258D02*
Y10045D01*
X6226*
Y9573*
X6660*
Y9258*
X7112*
X6634Y9946D02*
G75*
G02X6634Y9947I85J1D01*
G01*
G75*
G02X6804I85*
G01*
G75*
G02X6803Y9946I-85*
G01*
Y9805*
X6846Y9762*
G75*
G02X6871Y9702I-60J-60*
G01*
Y9456*
G75*
G02X6786Y9370I-85J-1*
G01*
G75*
G02X6701Y9456J85*
G01*
Y9667*
X6659Y9710*
G75*
G02X6634Y9770I60J60*
G01*
Y9946*
X6226Y9701D02*
G36*
Y9573D01*
X6660*
Y9258*
X7112*
Y9701*
X6871*
Y9456*
G75*
G02X6786Y9370I-85J-1*
G01*
G75*
G02X6701Y9456J85*
G01*
Y9667*
X6667Y9701*
X6226*
G37*
X6667D02*
G36*
X6659Y9710D01*
G75*
G02X6634Y9770I60J60*
G01*
Y9946*
G75*
G02X6634Y9947I85J1*
G01*
G75*
G02X6804I85*
G01*
G75*
G02X6803Y9946I-85*
G01*
Y9805*
X6846Y9762*
G75*
G02X6871Y9702I-60J-60*
G01*
Y9701*
X7112*
Y10045*
X6226*
Y9701*
X6667*
G37*
X7112Y10439D02*
Y11226D01*
X6226*
Y10754*
X6660*
Y10439*
X7112*
X6659Y11067D02*
G75*
G02X6634Y11128I59J61D01*
G01*
G75*
G02X6779Y11187I85*
G01*
X6846Y11120*
G75*
G02X6871Y11060I-60J-60*
G01*
Y10637*
G75*
G02X6786Y10551I-85J-1*
G01*
G75*
G02X6701Y10637J85*
G01*
Y11025*
X6659Y11067*
X6226Y10882D02*
G36*
Y10754D01*
X6660*
Y10439*
X7112*
Y10882*
X6871*
Y10637*
G75*
G02X6786Y10551I-85J-1*
G01*
G75*
G02X6701Y10637J85*
G01*
Y10882*
X6226*
G37*
X6701D02*
G36*
Y11025D01*
X6659Y11067*
G75*
G02X6634Y11128I59J61*
G01*
G75*
G02X6779Y11187I85*
G01*
X6846Y11120*
G75*
G02X6871Y11060I-60J-60*
G01*
Y10882*
X7112*
Y11226*
X6226*
Y10882*
X6701*
G37*
X7112Y11620D02*
Y12408D01*
X6226*
Y11935*
X6660*
Y11620*
X7112*
X6659Y12248D02*
G75*
G02X6634Y12309I59J61D01*
G01*
G75*
G02X6779Y12368I85*
G01*
X6846Y12301*
G75*
G02X6871Y12241I-60J-60*
G01*
Y11818*
G75*
G02X6786Y11732I-85J-1*
G01*
G75*
G02X6701Y11818J85*
G01*
Y12206*
X6659Y12248*
X6226Y12063D02*
G36*
Y11935D01*
X6660*
Y11620*
X7112*
Y12063*
X6871*
Y11818*
G75*
G02X6786Y11732I-85J-1*
G01*
G75*
G02X6701Y11818J85*
G01*
Y12063*
X6226*
G37*
X6701D02*
G36*
Y12206D01*
X6659Y12248*
G75*
G02X6634Y12309I59J61*
G01*
G75*
G02X6779Y12368I85*
G01*
X6846Y12301*
G75*
G02X6871Y12241I-60J-60*
G01*
Y12063*
X7112*
Y12408*
X6226*
Y12063*
X6701*
G37*
X8117Y1778D02*
X7211D01*
Y1286*
X7604*
X7703Y1187*
Y990*
X8274*
Y1305*
X8490*
Y1778*
X8447*
G75*
G02X8336I-55*
G01*
X8250*
G75*
G02X8233Y1738I-55*
G01*
X8160Y1665*
G75*
G02X8138Y1629I-64J14*
G01*
X8063Y1554*
Y1187*
G75*
G02X8026Y1128I-65*
G01*
G75*
G02X7933Y1234I-39J59*
G01*
Y1581*
G75*
G02X7952Y1627I65J0*
G01*
X8046Y1721*
G75*
G02X8082Y1743I51J-42*
G01*
X8117Y1778*
X7505Y1744D02*
G75*
G02X7552Y1633I1J-65D01*
G01*
Y1608*
X7828Y1332*
G75*
G02X7847Y1286I-46J-46*
G01*
Y1224*
G75*
G02X7786Y1116I-60J-37*
G01*
G75*
G02X7716Y1199J71*
G01*
Y1259*
X7440Y1535*
G75*
G02X7421Y1581I46J46*
G01*
Y1679*
G75*
G02X7486Y1744I65*
G01*
X7505*
X7211Y1430D02*
G36*
Y1286D01*
X7604*
X7703Y1187*
Y990*
X8274*
Y1305*
X8490*
Y1778*
X8447*
G75*
G02X8336I-55*
G01*
X8250*
G75*
G02X8233Y1738I-55*
G01*
X8160Y1665*
G75*
G02X8138Y1629I-64J14*
G01*
X8063Y1554*
Y1187*
G75*
G02X8026Y1128I-65*
G01*
G75*
G02X7933Y1234I-39J59*
G01*
Y1430*
X7729*
X7828Y1332*
G75*
G02X7847Y1286I-46J-46*
G01*
Y1224*
G75*
G02X7786Y1116I-60J-37*
G01*
G75*
G02X7716Y1199J71*
G01*
Y1259*
X7545Y1430*
X7211*
G37*
X7545D02*
G36*
X7440Y1535D01*
G75*
G02X7421Y1581I46J46*
G01*
Y1679*
G75*
G02X7486Y1744I65*
G01*
X7505*
G75*
G02X7552Y1633I1J-65*
G01*
Y1608*
X7729Y1430*
X7933*
Y1581*
G75*
G02X7952Y1627I65J0*
G01*
X8046Y1721*
G75*
G02X8082Y1743I51J-42*
G01*
X8117Y1778*
X7211*
Y1430*
X7545*
G37*
X8117Y2959D02*
X7211D01*
Y2467*
X7604*
X7703Y2368*
Y2171*
X8274*
Y2486*
X8490*
Y2959*
X8447*
G75*
G02X8336I-55*
G01*
X8250*
G75*
G02X8233Y2919I-55*
G01*
X8160Y2846*
G75*
G02X8138Y2810I-64J14*
G01*
X8063Y2735*
Y2368*
G75*
G02X8026Y2309I-65*
G01*
G75*
G02X7933Y2415I-39J59*
G01*
Y2762*
G75*
G02X7952Y2808I65J0*
G01*
X8046Y2902*
G75*
G02X8082Y2924I51J-42*
G01*
X8117Y2959*
X7441Y2859D02*
G75*
G02X7441Y2860I65J1D01*
G01*
G75*
G02X7571I65*
G01*
G75*
G02X7571Y2859I-65*
G01*
Y2789*
X7847Y2513*
G75*
G02X7866Y2467I-46J-46*
G01*
Y2368*
G75*
G02X7820Y2306I-65*
G01*
G75*
G02X7736Y2418I-34J62*
G01*
Y2440*
X7460Y2716*
G75*
G02X7441Y2762I46J46*
G01*
Y2859*
X7211Y2611D02*
G36*
Y2467D01*
X7604*
X7703Y2368*
Y2171*
X8274*
Y2486*
X8490*
Y2959*
X8447*
G75*
G02X8336I-55*
G01*
X8250*
G75*
G02X8233Y2919I-55*
G01*
X8160Y2846*
G75*
G02X8138Y2810I-64J14*
G01*
X8063Y2735*
Y2368*
G75*
G02X8026Y2309I-65*
G01*
G75*
G02X7933Y2415I-39J59*
G01*
Y2611*
X7749*
X7847Y2513*
G75*
G02X7866Y2467I-46J-46*
G01*
Y2368*
G75*
G02X7820Y2306I-65*
G01*
G75*
G02X7736Y2418I-34J62*
G01*
Y2440*
X7564Y2611*
X7211*
G37*
X7564D02*
G36*
X7460Y2716D01*
G75*
G02X7441Y2762I46J46*
G01*
Y2859*
G75*
G02X7441Y2860I65J1*
G01*
G75*
G02X7571I65*
G01*
G75*
G02X7571Y2859I-65*
G01*
Y2789*
X7749Y2611*
X7933*
Y2762*
G75*
G02X7952Y2808I65J0*
G01*
X8046Y2902*
G75*
G02X8082Y2924I51J-42*
G01*
X8117Y2959*
X7211*
Y2611*
X7564*
G37*
X8117Y4140D02*
X7211D01*
Y3648*
X7604*
X7703Y3549*
Y3352*
X8274*
Y3667*
X8490*
Y4140*
X8447*
G75*
G02X8336I-55*
G01*
X8250*
G75*
G02X8233Y4100I-55*
G01*
X8160Y4027*
G75*
G02X8138Y3991I-64J14*
G01*
X8063Y3916*
Y3549*
G75*
G02X8026Y3490I-65*
G01*
G75*
G02X7933Y3596I-39J59*
G01*
Y3943*
G75*
G02X7952Y3989I65J0*
G01*
X8046Y4083*
G75*
G02X8082Y4105I51J-42*
G01*
X8117Y4140*
X7441Y4040D02*
G75*
G02X7441Y4041I65J1D01*
G01*
G75*
G02X7571I65*
G01*
G75*
G02X7571Y4040I-65*
G01*
Y3970*
X7847Y3694*
G75*
G02X7866Y3648I-46J-46*
G01*
Y3549*
G75*
G02X7820Y3487I-65*
G01*
G75*
G02X7736Y3599I-34J62*
G01*
Y3621*
X7460Y3897*
G75*
G02X7441Y3943I46J46*
G01*
Y4040*
X7211Y3792D02*
G36*
Y3648D01*
X7604*
X7703Y3549*
Y3352*
X8274*
Y3667*
X8490*
Y4140*
X8447*
G75*
G02X8336I-55*
G01*
X8250*
G75*
G02X8233Y4100I-55*
G01*
X8160Y4027*
G75*
G02X8138Y3991I-64J14*
G01*
X8063Y3916*
Y3549*
G75*
G02X8026Y3490I-65*
G01*
G75*
G02X7933Y3596I-39J59*
G01*
Y3792*
X7749*
X7847Y3694*
G75*
G02X7866Y3648I-46J-46*
G01*
Y3549*
G75*
G02X7820Y3487I-65*
G01*
G75*
G02X7736Y3599I-34J62*
G01*
Y3621*
X7564Y3792*
X7211*
G37*
X7564D02*
G36*
X7460Y3897D01*
G75*
G02X7441Y3943I46J46*
G01*
Y4040*
G75*
G02X7441Y4041I65J1*
G01*
G75*
G02X7571I65*
G01*
G75*
G02X7571Y4040I-65*
G01*
Y3970*
X7749Y3792*
X7933*
Y3943*
G75*
G02X7952Y3989I65J0*
G01*
X8046Y4083*
G75*
G02X8082Y4105I51J-42*
G01*
X8117Y4140*
X7211*
Y3792*
X7564*
G37*
X8117Y5321D02*
X7211D01*
Y4829*
X7604*
X7703Y4730*
Y4534*
X8274*
Y4849*
X8490*
Y5321*
X8447*
G75*
G02X8336I-55*
G01*
X8250*
G75*
G02X8233Y5281I-55*
G01*
X8160Y5208*
G75*
G02X8138Y5172I-64J14*
G01*
X8063Y5097*
Y4730*
G75*
G02X8026Y4671I-65*
G01*
G75*
G02X7933Y4777I-39J59*
G01*
Y5124*
G75*
G02X7952Y5170I65J0*
G01*
X8046Y5264*
G75*
G02X8082Y5286I51J-42*
G01*
X8117Y5321*
X7441Y5222D02*
G75*
G02X7441Y5223I65J1D01*
G01*
G75*
G02X7571I65*
G01*
G75*
G02X7571Y5222I-65*
G01*
Y5151*
X7847Y4875*
G75*
G02X7866Y4829I-46J-46*
G01*
Y4730*
G75*
G02X7820Y4668I-65*
G01*
G75*
G02X7736Y4781I-34J62*
G01*
Y4802*
X7460Y5078*
G75*
G02X7441Y5124I46J46*
G01*
Y5222*
X7211Y4974D02*
G36*
Y4829D01*
X7604*
X7703Y4730*
Y4534*
X8274*
Y4849*
X8490*
Y5321*
X8447*
G75*
G02X8336I-55*
G01*
X8250*
G75*
G02X8233Y5281I-55*
G01*
X8160Y5208*
G75*
G02X8138Y5172I-64J14*
G01*
X8063Y5097*
Y4730*
G75*
G02X8026Y4671I-65*
G01*
G75*
G02X7933Y4777I-39J59*
G01*
Y4974*
X7749*
X7847Y4875*
G75*
G02X7866Y4829I-46J-46*
G01*
Y4730*
G75*
G02X7820Y4668I-65*
G01*
G75*
G02X7736Y4781I-34J62*
G01*
Y4802*
X7564Y4974*
X7211*
G37*
X7564D02*
G36*
X7460Y5078D01*
G75*
G02X7441Y5124I46J46*
G01*
Y5222*
G75*
G02X7441Y5223I65J1*
G01*
G75*
G02X7571I65*
G01*
G75*
G02X7571Y5222I-65*
G01*
Y5151*
X7749Y4974*
X7933*
Y5124*
G75*
G02X7952Y5170I65J0*
G01*
X8046Y5264*
G75*
G02X8082Y5286I51J-42*
G01*
X8117Y5321*
X7211*
Y4974*
X7564*
G37*
X8117Y6502D02*
X7211D01*
Y6010*
X7604*
X7703Y5912*
Y5715*
X8274*
Y6030*
X8490*
Y6502*
X8447*
G75*
G02X8336I-55*
G01*
X8250*
G75*
G02X8233Y6462I-55*
G01*
X8160Y6389*
G75*
G02X8138Y6353I-64J14*
G01*
X8063Y6278*
Y5912*
G75*
G02X8026Y5852I-65*
G01*
G75*
G02X7933Y5958I-39J59*
G01*
Y6305*
G75*
G02X7952Y6351I65J0*
G01*
X8046Y6445*
G75*
G02X8082Y6468I51J-42*
G01*
X8117Y6502*
X7441Y6403D02*
G75*
G02X7441Y6404I65J1D01*
G01*
G75*
G02X7571I65*
G01*
G75*
G02X7571Y6403I-65*
G01*
Y6332*
X7847Y6056*
G75*
G02X7866Y6010I-46J-46*
G01*
Y5912*
G75*
G02X7820Y5849I-65*
G01*
G75*
G02X7736Y5962I-34J62*
G01*
Y5983*
X7460Y6259*
G75*
G02X7441Y6305I46J46*
G01*
Y6403*
X7211Y6155D02*
G36*
Y6010D01*
X7604*
X7703Y5912*
Y5715*
X8274*
Y6030*
X8490*
Y6502*
X8447*
G75*
G02X8336I-55*
G01*
X8250*
G75*
G02X8233Y6462I-55*
G01*
X8160Y6389*
G75*
G02X8138Y6353I-64J14*
G01*
X8063Y6278*
Y5912*
G75*
G02X8026Y5852I-65*
G01*
G75*
G02X7933Y5958I-39J59*
G01*
Y6155*
X7749*
X7847Y6056*
G75*
G02X7866Y6010I-46J-46*
G01*
Y5912*
G75*
G02X7820Y5849I-65*
G01*
G75*
G02X7736Y5962I-34J62*
G01*
Y5983*
X7564Y6155*
X7211*
G37*
X7564D02*
G36*
X7460Y6259D01*
G75*
G02X7441Y6305I46J46*
G01*
Y6403*
G75*
G02X7441Y6404I65J1*
G01*
G75*
G02X7571I65*
G01*
G75*
G02X7571Y6403I-65*
G01*
Y6332*
X7749Y6155*
X7933*
Y6305*
G75*
G02X7952Y6351I65J0*
G01*
X8046Y6445*
G75*
G02X8082Y6468I51J-42*
G01*
X8117Y6502*
X7211*
Y6155*
X7564*
G37*
X8117Y7683D02*
X7211D01*
Y7191*
X7604*
X7703Y7093*
Y6896*
X8274*
Y7211*
X8490*
Y7683*
X8447*
G75*
G02X8336I-55*
G01*
X8250*
G75*
G02X8233Y7643I-55*
G01*
X8160Y7570*
G75*
G02X8138Y7534I-64J14*
G01*
X8063Y7459*
Y7093*
G75*
G02X8026Y7033I-65*
G01*
G75*
G02X7933Y7139I-39J59*
G01*
Y7486*
G75*
G02X7952Y7532I65J0*
G01*
X8046Y7626*
G75*
G02X8082Y7649I51J-42*
G01*
X8117Y7683*
X7441Y7584D02*
G75*
G02X7441Y7585I65J1D01*
G01*
G75*
G02X7571I65*
G01*
G75*
G02X7571Y7584I-65*
G01*
Y7513*
X7847Y7237*
G75*
G02X7866Y7191I-46J-46*
G01*
Y7093*
G75*
G02X7820Y7030I-65*
G01*
G75*
G02X7736Y7143I-34J62*
G01*
Y7164*
X7460Y7440*
G75*
G02X7441Y7486I46J46*
G01*
Y7584*
X7211Y7336D02*
G36*
Y7191D01*
X7604*
X7703Y7093*
Y6896*
X8274*
Y7211*
X8490*
Y7683*
X8447*
G75*
G02X8336I-55*
G01*
X8250*
G75*
G02X8233Y7643I-55*
G01*
X8160Y7570*
G75*
G02X8138Y7534I-64J14*
G01*
X8063Y7459*
Y7093*
G75*
G02X8026Y7033I-65*
G01*
G75*
G02X7933Y7139I-39J59*
G01*
Y7336*
X7749*
X7847Y7237*
G75*
G02X7866Y7191I-46J-46*
G01*
Y7093*
G75*
G02X7820Y7030I-65*
G01*
G75*
G02X7736Y7143I-34J62*
G01*
Y7164*
X7564Y7336*
X7211*
G37*
X7564D02*
G36*
X7460Y7440D01*
G75*
G02X7441Y7486I46J46*
G01*
Y7584*
G75*
G02X7441Y7585I65J1*
G01*
G75*
G02X7571I65*
G01*
G75*
G02X7571Y7584I-65*
G01*
Y7513*
X7749Y7336*
X7933*
Y7486*
G75*
G02X7952Y7532I65J0*
G01*
X8046Y7626*
G75*
G02X8082Y7649I51J-42*
G01*
X8117Y7683*
X7211*
Y7336*
X7564*
G37*
X8117Y8864D02*
X7211D01*
Y8372*
X7604*
X7703Y8274*
Y8077*
X8274*
Y8392*
X8490*
Y8864*
X8447*
G75*
G02X8336I-55*
G01*
X8250*
G75*
G02X8233Y8824I-55*
G01*
X8160Y8751*
G75*
G02X8138Y8715I-64J14*
G01*
X8063Y8640*
Y8274*
G75*
G02X8026Y8215I-65*
G01*
G75*
G02X7933Y8321I-39J59*
G01*
Y8667*
G75*
G02X7952Y8714I65J0*
G01*
X8046Y8807*
G75*
G02X8082Y8830I51J-42*
G01*
X8117Y8864*
X7441Y8765D02*
G75*
G02X7441Y8766I65J1D01*
G01*
G75*
G02X7571I65*
G01*
G75*
G02X7571Y8765I-65*
G01*
Y8714*
X7847Y8438*
G75*
G02X7866Y8392I-46J-46*
G01*
Y8274*
G75*
G02X7820Y8211I-65*
G01*
G75*
G02X7736Y8324I-34J62*
G01*
Y8365*
X7460Y8641*
G75*
G02X7441Y8687I46J46*
G01*
Y8765*
X7211Y8517D02*
G36*
Y8372D01*
X7604*
X7703Y8274*
Y8077*
X8274*
Y8392*
X8490*
Y8864*
X8447*
G75*
G02X8336I-55*
G01*
X8250*
G75*
G02X8233Y8824I-55*
G01*
X8160Y8751*
G75*
G02X8138Y8715I-64J14*
G01*
X8063Y8640*
Y8274*
G75*
G02X8026Y8215I-65*
G01*
G75*
G02X7933Y8321I-39J59*
G01*
Y8517*
X7768*
X7847Y8438*
G75*
G02X7866Y8392I-46J-46*
G01*
Y8274*
G75*
G02X7820Y8211I-65*
G01*
G75*
G02X7736Y8324I-34J62*
G01*
Y8365*
X7584Y8517*
X7211*
G37*
X7584D02*
G36*
X7460Y8641D01*
G75*
G02X7441Y8687I46J46*
G01*
Y8765*
G75*
G02X7441Y8766I65J1*
G01*
G75*
G02X7571I65*
G01*
G75*
G02X7571Y8765I-65*
G01*
Y8714*
X7768Y8517*
X7933*
Y8667*
G75*
G02X7952Y8714I65J0*
G01*
X8046Y8807*
G75*
G02X8082Y8830I51J-42*
G01*
X8117Y8864*
X7211*
Y8517*
X7584*
G37*
X8117Y10045D02*
X7211D01*
Y9553*
X7604*
X7703Y9455*
Y9258*
X8274*
Y9573*
X8490*
Y10045*
X8447*
G75*
G02X8336I-55*
G01*
X8250*
G75*
G02X8233Y10006I-55*
G01*
X8160Y9933*
G75*
G02X8138Y9896I-64J14*
G01*
X8063Y9822*
Y9455*
G75*
G02X8026Y9396I-65*
G01*
G75*
G02X7933Y9502I-39J59*
G01*
Y9849*
G75*
G02X7952Y9895I65J0*
G01*
X8046Y9989*
G75*
G02X8082Y10011I51J-42*
G01*
X8117Y10045*
X7441Y9946D02*
G75*
G02X7441Y9947I65J1D01*
G01*
G75*
G02X7571I65*
G01*
G75*
G02X7571Y9946I-65*
G01*
Y9876*
X7847Y9599*
G75*
G02X7866Y9553I-46J-46*
G01*
Y9455*
G75*
G02X7820Y9392I-65*
G01*
G75*
G02X7736Y9505I-34J62*
G01*
Y9526*
X7460Y9802*
G75*
G02X7441Y9849I46J46*
G01*
Y9946*
X7211Y9698D02*
G36*
Y9553D01*
X7604*
X7703Y9455*
Y9258*
X8274*
Y9573*
X8490*
Y10045*
X8447*
G75*
G02X8336I-55*
G01*
X8250*
G75*
G02X8233Y10006I-55*
G01*
X8160Y9933*
G75*
G02X8138Y9896I-64J14*
G01*
X8063Y9822*
Y9455*
G75*
G02X8026Y9396I-65*
G01*
G75*
G02X7933Y9502I-39J59*
G01*
Y9698*
X7749*
X7847Y9599*
G75*
G02X7866Y9553I-46J-46*
G01*
Y9455*
G75*
G02X7820Y9392I-65*
G01*
G75*
G02X7736Y9505I-34J62*
G01*
Y9526*
X7564Y9698*
X7211*
G37*
X7564D02*
G36*
X7460Y9802D01*
G75*
G02X7441Y9849I46J46*
G01*
Y9946*
G75*
G02X7441Y9947I65J1*
G01*
G75*
G02X7571I65*
G01*
G75*
G02X7571Y9946I-65*
G01*
Y9876*
X7749Y9698*
X7933*
Y9849*
G75*
G02X7952Y9895I65J0*
G01*
X8046Y9989*
G75*
G02X8082Y10011I51J-42*
G01*
X8117Y10045*
X7211*
Y9698*
X7564*
G37*
X8117Y11226D02*
X7211D01*
Y10734*
X7604*
X7703Y10636*
Y10439*
X8274*
Y10754*
X8490*
Y11226*
X8447*
G75*
G02X8336I-55*
G01*
X8250*
G75*
G02X8233Y11187I-55*
G01*
X8160Y11114*
G75*
G02X8138Y11077I-64J14*
G01*
X8063Y11003*
Y10636*
G75*
G02X8026Y10577I-65*
G01*
G75*
G02X7933Y10683I-39J59*
G01*
Y11030*
G75*
G02X7952Y11076I65J0*
G01*
X8046Y11170*
G75*
G02X8082Y11192I51J-42*
G01*
X8117Y11226*
X7441Y11127D02*
G75*
G02X7441Y11128I65J1D01*
G01*
G75*
G02X7571I65*
G01*
G75*
G02X7571Y11127I-65*
G01*
Y11057*
X7847Y10780*
G75*
G02X7866Y10734I-46J-46*
G01*
Y10636*
G75*
G02X7820Y10573I-65*
G01*
G75*
G02X7736Y10686I-34J62*
G01*
Y10707*
X7460Y10984*
G75*
G02X7441Y11030I46J46*
G01*
Y11127*
X7211Y10879D02*
G36*
Y10734D01*
X7604*
X7703Y10636*
Y10439*
X8274*
Y10754*
X8490*
Y11226*
X8447*
G75*
G02X8336I-55*
G01*
X8250*
G75*
G02X8233Y11187I-55*
G01*
X8160Y11114*
G75*
G02X8138Y11077I-64J14*
G01*
X8063Y11003*
Y10636*
G75*
G02X8026Y10577I-65*
G01*
G75*
G02X7933Y10683I-39J59*
G01*
Y10879*
X7749*
X7847Y10780*
G75*
G02X7866Y10734I-46J-46*
G01*
Y10636*
G75*
G02X7820Y10573I-65*
G01*
G75*
G02X7736Y10686I-34J62*
G01*
Y10707*
X7564Y10879*
X7211*
G37*
X7564D02*
G36*
X7460Y10984D01*
G75*
G02X7441Y11030I46J46*
G01*
Y11127*
G75*
G02X7441Y11128I65J1*
G01*
G75*
G02X7571I65*
G01*
G75*
G02X7571Y11127I-65*
G01*
Y11057*
X7749Y10879*
X7933*
Y11030*
G75*
G02X7952Y11076I65J0*
G01*
X8046Y11170*
G75*
G02X8082Y11192I51J-42*
G01*
X8117Y11226*
X7211*
Y10879*
X7564*
G37*
X8117Y12408D02*
X7211D01*
Y11915*
X7604*
X7703Y11817*
Y11660*
X8274*
Y11935*
X8490*
Y12408*
X8447*
G75*
G02X8336I-55*
G01*
X8250*
G75*
G02X8233Y12368I-55*
G01*
X8160Y12295*
G75*
G02X8138Y12259I-64J14*
G01*
X8063Y12184*
Y11817*
G75*
G02X8026Y11758I-65*
G01*
G75*
G02X7933Y11864I-39J59*
G01*
Y12211*
G75*
G02X7952Y12257I65J0*
G01*
X8046Y12351*
G75*
G02X8082Y12373I51J-42*
G01*
X8117Y12408*
X7441Y12308D02*
G75*
G02X7441Y12309I65J1D01*
G01*
G75*
G02X7571I65*
G01*
G75*
G02X7571Y12308I-65*
G01*
Y12238*
X7847Y11962*
G75*
G02X7866Y11915I-46J-46*
G01*
Y11817*
G75*
G02X7820Y11755I-65*
G01*
G75*
G02X7736Y11867I-34J62*
G01*
Y11888*
X7460Y12165*
G75*
G02X7441Y12211I46J46*
G01*
Y12308*
X7211Y12060D02*
G36*
Y11915D01*
X7604*
X7703Y11817*
Y11660*
X8274*
Y11935*
X8490*
Y12408*
X8447*
G75*
G02X8336I-55*
G01*
X8250*
G75*
G02X8233Y12368I-55*
G01*
X8160Y12295*
G75*
G02X8138Y12259I-64J14*
G01*
X8063Y12184*
Y11817*
G75*
G02X8026Y11758I-65*
G01*
G75*
G02X7933Y11864I-39J59*
G01*
Y12060*
X7749*
X7847Y11962*
G75*
G02X7866Y11915I-46J-46*
G01*
Y11817*
G75*
G02X7820Y11755I-65*
G01*
G75*
G02X7736Y11867I-34J62*
G01*
Y11888*
X7564Y12060*
X7211*
G37*
X7564D02*
G36*
X7460Y12165D01*
G75*
G02X7441Y12211I46J46*
G01*
Y12308*
G75*
G02X7441Y12309I65J1*
G01*
G75*
G02X7571I65*
G01*
G75*
G02X7571Y12308I-65*
G01*
Y12238*
X7749Y12060*
X7933*
Y12211*
G75*
G02X7952Y12257I65J0*
G01*
X8046Y12351*
G75*
G02X8082Y12373I51J-42*
G01*
X8117Y12408*
X7211*
Y12060*
X7564*
G37*
D02*
D11*
X2034Y11650D02*
X2004D01*
X2358Y2860D02*
Y2871D01*
Y11723D02*
Y11731D01*
X2364*
X2780Y11315*
Y9927*
X2358Y12112D02*
Y12123D01*
X2701Y597D02*
X2723Y636D01*
Y2093*
X2358Y2457*
Y2471*
X2974Y3943D02*
X2960D01*
Y4430*
X2562Y4829*
X1853*
X3274Y3943D02*
X3260D01*
Y4430*
X2762Y4929*
X1741*
X3574Y3943D02*
X3560D01*
Y4430*
X2962Y5029*
X1853*
X3574Y8143D02*
X3585D01*
Y7782*
X3488Y7685*
X1699*
X4258Y1871D02*
Y1869D01*
X3627*
X3352Y1594*
Y692*
X4258Y2171D02*
Y2169D01*
X3649*
X3274Y1794*
Y636*
X3252Y597*
Y580*
X4258Y2471D02*
Y2469D01*
X3631*
X3156Y1994*
Y715*
X3152*
Y692*
X4258Y11123D02*
X3431Y10297D01*
Y9912*
X4258Y11423D02*
Y11406D01*
X3331Y10479*
Y9800*
X4258Y11723D02*
Y11731D01*
X4264*
X3231Y10699*
Y9912*
X4699Y4435D02*
X4800D01*
X4699Y4671D02*
X4800D01*
X4699Y4908D02*
X4800D01*
X4699Y6030D02*
X4800D01*
X4699Y6266D02*
X4800D01*
X4699Y6502D02*
X4800D01*
X4750Y1069D02*
X4851D01*
X4750Y1305D02*
X4851D01*
X4750Y1541D02*
X4851D01*
X4750Y2526D02*
X4851D01*
X4750Y2762D02*
X4851D01*
X4750Y2998D02*
X4851D01*
X4750Y10360D02*
X4851D01*
X4750Y10597D02*
X4851D01*
X4750Y10833D02*
X4851D01*
X4750Y11876D02*
X4851D01*
X4750Y12112D02*
X4851D01*
X4750Y12349D02*
X4851D01*
X5132Y4435D02*
X5031D01*
X5132Y4671D02*
X5031D01*
X5132Y4908D02*
X5031D01*
X5132Y6030D02*
X5031D01*
X5132Y6266D02*
X5031D01*
X5132Y6502D02*
X5031D01*
X5183Y1069D02*
X5082D01*
X5183Y1305D02*
X5082D01*
X5183Y1541D02*
X5082D01*
X5183Y2526D02*
X5082D01*
X5183Y2762D02*
X5082D01*
X5183Y2998D02*
X5082D01*
X5183Y10360D02*
X5082D01*
X5183Y10597D02*
X5082D01*
X5183Y10833D02*
X5082D01*
X5183Y11876D02*
X5082D01*
X5183Y12112D02*
X5082D01*
X5183Y12349D02*
X5082D01*
X8097Y2860D02*
X8116D01*
Y2880*
D02*
D15*
X318Y6990D03*
X518Y6833D03*
X718D03*
X918D03*
X1118D03*
X1318Y6990D03*
D02*
D17*
X400Y400D03*
Y5912D03*
Y12998D03*
X3943Y9455D03*
X4730Y400D03*
Y12998D03*
X5912Y1187D03*
Y2368D03*
Y3549D03*
Y4730D03*
Y5912D03*
Y7093D03*
Y8274D03*
Y9455D03*
Y10636D03*
Y11817D03*
X9061Y400D03*
Y1187D03*
Y2368D03*
Y3549D03*
Y4730D03*
Y5912D03*
Y7093D03*
Y8274D03*
Y9455D03*
Y10636D03*
Y11817D03*
Y12998D03*
D02*
D18*
X2358Y1871D03*
Y2471D03*
Y11123D03*
Y11723D03*
X2974Y3943D03*
Y8143D03*
X3274Y3943D03*
X3574D03*
Y8143D03*
X4258Y1871D03*
Y2171D03*
Y2471D03*
Y11123D03*
Y11423D03*
Y11723D03*
D02*
D19*
X2358Y1471D03*
Y2871D03*
Y10723D03*
Y12123D03*
X2574Y3943D03*
Y8143D03*
X3974Y3943D03*
Y8143D03*
X4258Y1471D03*
Y2871D03*
Y10723D03*
Y12123D03*
D02*
D71*
X2014Y2016D03*
Y2247D03*
X2034Y11249D03*
Y11480D03*
D02*
D20*
X1758Y2860D03*
X1877Y12112D03*
X3026Y8766D03*
D02*
D21*
X1856Y2860D03*
X1975Y12112D03*
X3124Y8766D03*
D02*
D23*
X1551Y2171D03*
Y2368D03*
X1561Y11384D03*
Y11581D03*
X1650Y2270D03*
Y2467D03*
X1660Y11482D03*
Y11679D03*
X1748Y2171D03*
Y2368D03*
X1758Y11384D03*
Y11581D03*
X3321Y8943D03*
Y9140D03*
X3420Y9041D03*
X3518Y8943D03*
Y9140D03*
X3616Y9041D03*
X6522Y1679D03*
Y1876D03*
Y2860D03*
Y3057D03*
Y4041D03*
Y4238D03*
Y5223D03*
Y5419D03*
Y6404D03*
Y6600D03*
Y7585D03*
Y7782D03*
Y8766D03*
Y8963D03*
Y9947D03*
Y10144D03*
Y11128D03*
Y11325D03*
Y12309D03*
Y12506D03*
X6620Y1778D03*
Y2959D03*
Y4140D03*
Y5321D03*
Y6502D03*
Y7683D03*
Y8864D03*
Y10045D03*
Y11226D03*
Y12408D03*
X6719Y1679D03*
Y1876D03*
Y2860D03*
Y3057D03*
Y4041D03*
Y4238D03*
Y5223D03*
Y5419D03*
Y6404D03*
Y6600D03*
Y7585D03*
Y7782D03*
Y8766D03*
Y8963D03*
Y9947D03*
Y10144D03*
Y11128D03*
Y11325D03*
Y12309D03*
Y12506D03*
X6817Y1778D03*
Y2959D03*
Y4140D03*
Y5321D03*
Y6502D03*
Y7683D03*
Y8864D03*
Y10045D03*
Y11226D03*
Y12408D03*
X7309Y1679D03*
Y1876D03*
Y2860D03*
Y3057D03*
Y4041D03*
Y4238D03*
Y5223D03*
Y5419D03*
Y6404D03*
Y6600D03*
Y7585D03*
Y7782D03*
Y8766D03*
Y8963D03*
Y9947D03*
Y10144D03*
Y11128D03*
Y11325D03*
Y12309D03*
Y12506D03*
X7408Y1778D03*
Y2959D03*
Y4140D03*
Y5321D03*
Y6502D03*
Y7683D03*
Y8864D03*
Y10045D03*
Y11226D03*
Y12408D03*
X7506Y1679D03*
Y1876D03*
Y2860D03*
Y3057D03*
Y4041D03*
Y4238D03*
Y5223D03*
Y5419D03*
Y6404D03*
Y6600D03*
Y7585D03*
Y7782D03*
Y8766D03*
Y8963D03*
Y9947D03*
Y10144D03*
Y11128D03*
Y11325D03*
Y12309D03*
Y12506D03*
X7604Y1778D03*
Y2959D03*
Y4140D03*
Y5321D03*
Y6502D03*
Y7683D03*
Y8864D03*
Y10045D03*
Y11226D03*
Y12408D03*
X8097Y1679D03*
Y1876D03*
Y2860D03*
Y3057D03*
Y4041D03*
Y4238D03*
Y5223D03*
Y5419D03*
Y6404D03*
Y6600D03*
Y7585D03*
Y7782D03*
Y8766D03*
Y8963D03*
Y9947D03*
Y10144D03*
Y11128D03*
Y11325D03*
Y12309D03*
Y12506D03*
X8116Y2880D02*
X8195Y2959D01*
Y1778D02*
X8097Y1679D01*
X8195Y1778D03*
Y2959D03*
Y4140D02*
X8097Y4041D01*
X8195Y4140D03*
Y5321D02*
X8097Y5223D01*
X8195Y5321D03*
Y6502D02*
X8097Y6404D01*
X8195Y6502D03*
Y7683D02*
X8097Y7585D01*
X8195Y7683D03*
Y8864D02*
X8097Y8766D01*
X8195Y8864D03*
Y10045D02*
X8097Y9947D01*
X8195Y10045D03*
Y11226D02*
X8097Y11128D01*
X8195Y11226D03*
Y12408D02*
X8097Y12309D01*
X8195Y12408D03*
X8293Y1679D03*
Y1876D03*
Y2860D03*
Y3057D03*
Y4041D03*
Y4238D03*
Y5223D03*
Y5419D03*
Y6404D03*
Y6600D03*
Y7585D03*
Y7782D03*
Y8766D03*
Y8963D03*
Y9947D03*
Y10144D03*
Y11128D03*
Y11325D03*
Y12309D03*
Y12506D03*
X8392Y1778D03*
Y2959D03*
Y4140D03*
Y5321D03*
Y6502D03*
Y7683D03*
Y8864D03*
Y10045D03*
Y11226D03*
Y12408D03*
D02*
D25*
X3518Y8766D02*
Y8746D01*
X3971Y8293*
Y8143*
X3974*
X3518Y8943D02*
Y8766D01*
D02*
D26*
X1856Y2860D02*
X2358D01*
X1975Y12112D02*
X2358D01*
X2014Y2247D02*
Y2437D01*
X2034Y11480D02*
Y11650D01*
X3124Y8766D02*
X3122D01*
Y8549*
X3124Y8766D02*
X3518D01*
D02*
D27*
X4699Y4435D03*
Y4671D03*
Y4908D03*
Y6030D03*
Y6266D03*
Y6502D03*
X4750Y1069D03*
Y1305D03*
Y1541D03*
Y2526D03*
Y2762D03*
Y2998D03*
Y10360D03*
Y10597D03*
Y10833D03*
Y11876D03*
Y12112D03*
Y12349D03*
X5132Y4435D03*
Y4671D03*
Y4908D03*
Y6030D03*
Y6266D03*
Y6502D03*
X5183Y1069D03*
Y1305D03*
Y1541D03*
Y2526D03*
Y2762D03*
Y2998D03*
Y10360D03*
Y10597D03*
Y10833D03*
Y11876D03*
Y12112D03*
Y12349D03*
D02*
D28*
X6719Y1679D02*
Y1463D01*
X6786Y1395*
Y1187*
X6719Y2860D02*
Y2683D01*
X6786Y2615*
Y2368*
X6719Y4041D02*
Y3864D01*
X6786Y3797*
Y3549*
X6719Y5223D02*
Y5045D01*
X6738*
X6786Y4997*
Y4730*
X6719Y6404D02*
Y6226D01*
X6786Y6159*
Y5912*
X6719Y7585D02*
Y7408D01*
X6786Y7340*
Y7093*
X6719Y8766D02*
Y8549D01*
X6786Y8482*
Y8274*
X6719Y9947D02*
Y9770D01*
X6786Y9702*
Y9455*
X6719Y11128D02*
X6786Y11060D01*
Y10636*
X6719Y12309D02*
X6786Y12241D01*
Y11817*
D02*
D88*
X331Y5912D02*
X262D01*
X331Y12998D02*
X262D01*
X400Y5843D02*
Y5774D01*
Y5980D02*
Y6049D01*
Y12929D02*
Y12860D01*
Y13067D02*
Y13136D01*
X469Y5912D02*
X538D01*
X469Y12998D02*
X538D01*
X1698Y7785D02*
X1629D01*
X1699Y7785D02*
Y7854D01*
X1699Y7785D02*
X1768D01*
X1738Y2171D02*
X1669D01*
X1748Y2162D02*
Y2092D01*
Y2181D02*
Y2250D01*
X1758Y2171D02*
X1827D01*
X1758Y11374D02*
Y11305D01*
Y11394D02*
Y11463D01*
X1758Y2857D02*
Y2926D01*
Y2864D02*
Y2795D01*
X1762Y2860D02*
X1693D01*
X1768Y11384D02*
X1837D01*
X1877Y12109D02*
Y12178D01*
Y12116D02*
Y12047D01*
X1880Y12112D02*
X1811D01*
X1994Y2016D02*
X1925D01*
X2014Y2009D02*
Y1940D01*
Y2024D02*
Y2093D01*
X2014Y11249D02*
X1945D01*
X2033Y2016D02*
X2102D01*
X2034Y11241D02*
Y11172D01*
Y11256D02*
Y11325D01*
X2053Y11249D02*
X2122D01*
X2178Y3943D02*
X2109D01*
X2178Y8143D02*
X2109D01*
X2262Y1171D02*
X2193D01*
X2262Y3171D02*
X2193D01*
X2262Y10423D02*
X2193D01*
X2262Y12423D02*
X2193D01*
X2274Y3848D02*
Y3778D01*
Y4038D02*
Y4108D01*
Y8048D02*
Y7978D01*
Y8238D02*
Y8308D01*
X2287Y1471D02*
X2218D01*
X2287Y10723D02*
X2218D01*
X2347Y11123D02*
X2278D01*
X2358Y1076D02*
Y1007D01*
Y1542D02*
Y1611D01*
Y1861D02*
Y1792D01*
Y1882D02*
Y1951D01*
Y3267D02*
Y3336D01*
Y10328D02*
Y10259D01*
Y10794D02*
Y10863D01*
Y11134D02*
Y11203D01*
Y12519D02*
Y12588D01*
X2368Y1871D02*
X2437D01*
X2368Y11123D02*
X2437D01*
X2428Y1471D02*
X2497D01*
X2428Y10723D02*
X2497D01*
X2453Y1171D02*
X2522D01*
X2453Y3171D02*
X2522D01*
X2453Y10423D02*
X2522D01*
X2453Y12423D02*
X2522D01*
X2574Y8213D02*
Y8283D01*
X2601Y597D02*
X2532D01*
X2601Y596D02*
Y527D01*
Y597D02*
Y666D01*
X2644Y8143D02*
X2713D01*
X2680Y9927D02*
X2610D01*
X2680Y9927D02*
Y9858D01*
Y9928D02*
Y9997D01*
X2883Y8549D02*
X2814D01*
X2891Y8530D02*
Y8461D01*
Y8569D02*
Y8638D01*
X2898Y8549D02*
X2967D01*
X2963Y8143D02*
X2894D01*
X2974Y8133D02*
Y8063D01*
X2984Y8143D02*
X3053D01*
X3026Y8762D02*
Y8831D01*
Y8769D02*
Y8700D01*
X3030Y8766D02*
X2961D01*
X3311Y8943D02*
X3242D01*
X3321Y8933D02*
Y8864D01*
X3331Y8943D02*
X3400D01*
X3874Y9455D02*
X3805D01*
X3943Y9386D02*
Y9317D01*
Y9524D02*
Y9593D01*
X4012Y9455D02*
X4081D01*
X4162Y1171D02*
X4093D01*
X4162Y3171D02*
X4093D01*
X4162Y10423D02*
X4093D01*
X4162Y12423D02*
X4093D01*
X4258Y1076D02*
Y1007D01*
Y3267D02*
Y3336D01*
Y10328D02*
Y10259D01*
Y12519D02*
Y12588D01*
X4274Y3848D02*
Y3778D01*
Y4038D02*
Y4108D01*
Y8048D02*
Y7978D01*
Y8238D02*
Y8308D01*
X4353Y1171D02*
X4422D01*
X4353Y3171D02*
X4422D01*
X4353Y10423D02*
X4422D01*
X4353Y12423D02*
X4422D01*
X4369Y3943D02*
X4438D01*
X4369Y8143D02*
X4438D01*
X4662Y400D02*
X4592D01*
X4662Y12998D02*
X4592D01*
X4730Y331D02*
Y262D01*
Y469D02*
Y538D01*
Y12929D02*
Y12860D01*
Y13067D02*
Y13136D01*
X4799Y400D02*
X4868D01*
X4799Y12998D02*
X4868D01*
X5843Y1187D02*
X5774D01*
X5843Y2368D02*
X5774D01*
X5843Y3549D02*
X5774D01*
X5843Y4730D02*
X5774D01*
X5843Y5912D02*
X5774D01*
X5843Y7093D02*
X5774D01*
X5843Y8274D02*
X5774D01*
X5843Y9455D02*
X5774D01*
X5843Y10636D02*
X5774D01*
X5843Y11817D02*
X5774D01*
X5912Y1118D02*
Y1049D01*
Y1256D02*
Y1325D01*
Y2299D02*
Y2230D01*
Y2437D02*
Y2506D01*
Y3480D02*
Y3411D01*
Y3618D02*
Y3687D01*
Y4662D02*
Y4592D01*
Y4799D02*
Y4868D01*
Y5843D02*
Y5774D01*
Y5980D02*
Y6049D01*
Y7024D02*
Y6955D01*
Y7162D02*
Y7231D01*
Y8205D02*
Y8136D01*
Y8343D02*
Y8412D01*
Y9386D02*
Y9317D01*
Y9524D02*
Y9593D01*
Y10567D02*
Y10498D01*
Y10705D02*
Y10774D01*
Y11748D02*
Y11679D01*
Y11886D02*
Y11955D01*
X5980Y1187D02*
X6049D01*
X5980Y2368D02*
X6049D01*
X5980Y3549D02*
X6049D01*
X5980Y4730D02*
X6049D01*
X5980Y5912D02*
X6049D01*
X5980Y7093D02*
X6049D01*
X5980Y8274D02*
X6049D01*
X5980Y9455D02*
X6049D01*
X5980Y10636D02*
X6049D01*
X5980Y11817D02*
X6049D01*
X6512Y1679D02*
X6443D01*
X6512Y2860D02*
X6443D01*
X6512Y4041D02*
X6443D01*
X6512Y5223D02*
X6443D01*
X6512Y6404D02*
X6443D01*
X6512Y7585D02*
X6443D01*
X6512Y8766D02*
X6443D01*
X6512Y9947D02*
X6443D01*
X6512Y11128D02*
X6443D01*
X6512Y12309D02*
X6443D01*
X6522Y1669D02*
Y1600D01*
Y2850D02*
Y2781D01*
Y4032D02*
Y3963D01*
Y5213D02*
Y5144D01*
Y6394D02*
Y6325D01*
Y7575D02*
Y7506D01*
Y8756D02*
Y8687D01*
Y9937D02*
Y9868D01*
Y11118D02*
Y11049D01*
Y12299D02*
Y12230D01*
X6532Y1679D02*
X6601D01*
X6532Y2860D02*
X6601D01*
X6532Y4041D02*
X6601D01*
X6532Y5223D02*
X6601D01*
X6532Y6404D02*
X6601D01*
X6532Y7585D02*
X6601D01*
X6532Y8766D02*
X6601D01*
X6532Y9947D02*
X6601D01*
X6532Y11128D02*
X6601D01*
X6532Y12309D02*
X6601D01*
X6561Y1187D02*
X6492D01*
X6561Y2368D02*
X6492D01*
X6561Y3549D02*
X6492D01*
X6561Y4730D02*
X6492D01*
X6561Y5912D02*
X6492D01*
X6561Y7093D02*
X6492D01*
X6561Y8274D02*
X6492D01*
X6561Y9455D02*
X6492D01*
X6561Y10636D02*
X6492D01*
X6561Y11817D02*
X6492D01*
X6586Y1162D02*
Y1093D01*
Y2343D02*
Y2274D01*
Y3524D02*
Y3455D01*
Y4705D02*
Y4636D01*
Y5886D02*
Y5817D01*
Y7067D02*
Y6998D01*
Y8248D02*
Y8179D01*
Y9429D02*
Y9360D01*
Y10610D02*
Y10541D01*
Y11792D02*
Y11722D01*
X6986Y1162D02*
Y1093D01*
Y1213D02*
Y1282D01*
Y2343D02*
Y2274D01*
Y2394D02*
Y2463D01*
Y3524D02*
Y3455D01*
Y3575D02*
Y3644D01*
Y4705D02*
Y4636D01*
Y4756D02*
Y4825D01*
Y5886D02*
Y5817D01*
Y5937D02*
Y6006D01*
Y7067D02*
Y6998D01*
Y7118D02*
Y7187D01*
Y8248D02*
Y8179D01*
Y8299D02*
Y8368D01*
Y9429D02*
Y9360D01*
Y9480D02*
Y9549D01*
Y10610D02*
Y10541D01*
Y10661D02*
Y10730D01*
Y11792D02*
Y11722D01*
Y11842D02*
Y11912D01*
X7012Y1187D02*
X7081D01*
X7012Y2368D02*
X7081D01*
X7012Y3549D02*
X7081D01*
X7012Y4730D02*
X7081D01*
X7012Y5912D02*
X7081D01*
X7012Y7093D02*
X7081D01*
X7012Y8274D02*
X7081D01*
X7012Y9455D02*
X7081D01*
X7012Y10636D02*
X7081D01*
X7012Y11817D02*
X7081D01*
X7309Y1669D02*
Y1600D01*
Y2850D02*
Y2781D01*
Y4032D02*
Y3963D01*
Y5213D02*
Y5144D01*
Y6394D02*
Y6325D01*
Y7575D02*
Y7506D01*
Y8756D02*
Y8687D01*
Y9937D02*
Y9868D01*
Y11118D02*
Y11049D01*
Y12299D02*
Y12230D01*
X7319Y1679D02*
X7388D01*
X7319Y2860D02*
X7388D01*
X7319Y4041D02*
X7388D01*
X7319Y5223D02*
X7388D01*
X7319Y6404D02*
X7388D01*
X7319Y7585D02*
X7388D01*
X7319Y8766D02*
X7388D01*
X7319Y9947D02*
X7388D01*
X7319Y11128D02*
X7388D01*
X7319Y12309D02*
X7388D01*
X7561Y1187D02*
X7492D01*
X7561Y2368D02*
X7492D01*
X7561Y3549D02*
X7492D01*
X7561Y4730D02*
X7492D01*
X7561Y5912D02*
X7492D01*
X7561Y7093D02*
X7492D01*
X7561Y8274D02*
X7492D01*
X7561Y9455D02*
X7492D01*
X7561Y10636D02*
X7492D01*
X7561Y11817D02*
X7492D01*
X7586Y1162D02*
Y1093D01*
Y2343D02*
Y2274D01*
Y3524D02*
Y3455D01*
Y4705D02*
Y4636D01*
Y5886D02*
Y5817D01*
Y7067D02*
Y6998D01*
Y8248D02*
Y8179D01*
Y9429D02*
Y9360D01*
Y10610D02*
Y10541D01*
Y11792D02*
Y11722D01*
X8161Y1187D02*
X8092D01*
X8161Y2368D02*
X8092D01*
X8161Y3549D02*
X8092D01*
X8161Y4730D02*
X8092D01*
X8161Y5912D02*
X8092D01*
X8161Y7093D02*
X8092D01*
X8161Y8274D02*
X8092D01*
X8161Y9455D02*
X8092D01*
X8161Y10636D02*
X8092D01*
X8161Y11817D02*
X8092D01*
X8186Y1162D02*
Y1093D01*
Y1213D02*
Y1282D01*
Y2343D02*
Y2274D01*
Y2394D02*
Y2463D01*
Y3524D02*
Y3455D01*
Y3575D02*
Y3644D01*
Y4705D02*
Y4636D01*
Y4756D02*
Y4825D01*
Y5886D02*
Y5817D01*
Y5937D02*
Y6006D01*
Y7067D02*
Y6998D01*
Y7118D02*
Y7187D01*
Y8248D02*
Y8179D01*
Y8299D02*
Y8368D01*
Y9429D02*
Y9360D01*
Y9480D02*
Y9549D01*
Y10610D02*
Y10541D01*
Y10661D02*
Y10730D01*
Y11792D02*
Y11722D01*
Y11842D02*
Y11912D01*
X8284Y1679D02*
X8215D01*
X8284Y2860D02*
X8215D01*
X8284Y4041D02*
X8215D01*
X8284Y5223D02*
X8215D01*
X8284Y6404D02*
X8215D01*
X8284Y7585D02*
X8215D01*
X8284Y8766D02*
X8215D01*
X8284Y9947D02*
X8215D01*
X8284Y11128D02*
X8215D01*
X8284Y12309D02*
X8215D01*
X8293Y1669D02*
Y1600D01*
Y2850D02*
Y2781D01*
Y4032D02*
Y3963D01*
Y5213D02*
Y5144D01*
Y6394D02*
Y6325D01*
Y7575D02*
Y7506D01*
Y8756D02*
Y8687D01*
Y9937D02*
Y9868D01*
Y11118D02*
Y11049D01*
Y12299D02*
Y12230D01*
X8303Y1679D02*
X8372D01*
X8303Y2860D02*
X8372D01*
X8303Y4041D02*
X8372D01*
X8303Y5223D02*
X8372D01*
X8303Y6404D02*
X8372D01*
X8303Y7585D02*
X8372D01*
X8303Y8766D02*
X8372D01*
X8303Y9947D02*
X8372D01*
X8303Y11128D02*
X8372D01*
X8303Y12309D02*
X8372D01*
X8386Y1162D02*
Y1093D01*
Y2343D02*
Y2274D01*
Y3524D02*
Y3455D01*
Y4705D02*
Y4636D01*
Y5886D02*
Y5817D01*
Y7067D02*
Y6998D01*
Y8248D02*
Y8179D01*
Y9429D02*
Y9360D01*
Y10610D02*
Y10541D01*
Y11792D02*
Y11722D01*
X8412Y1187D02*
X8481D01*
X8412Y2368D02*
X8481D01*
X8412Y3549D02*
X8481D01*
X8412Y4730D02*
X8481D01*
X8412Y5912D02*
X8481D01*
X8412Y7093D02*
X8481D01*
X8412Y8274D02*
X8481D01*
X8412Y9455D02*
X8481D01*
X8412Y10636D02*
X8481D01*
X8412Y11817D02*
X8481D01*
X8992Y400D02*
X8923D01*
X8992Y1187D02*
X8923D01*
X8992Y2368D02*
X8923D01*
X8992Y3549D02*
X8923D01*
X8992Y4730D02*
X8923D01*
X8992Y5912D02*
X8923D01*
X8992Y7093D02*
X8923D01*
X8992Y8274D02*
X8923D01*
X8992Y9455D02*
X8923D01*
X8992Y10636D02*
X8923D01*
X8992Y11817D02*
X8923D01*
X8992Y12998D02*
X8923D01*
X9061Y331D02*
Y262D01*
Y469D02*
Y538D01*
Y1118D02*
Y1049D01*
Y1256D02*
Y1325D01*
Y2299D02*
Y2230D01*
Y2437D02*
Y2506D01*
Y3480D02*
Y3411D01*
Y3618D02*
Y3687D01*
Y4662D02*
Y4592D01*
Y4799D02*
Y4868D01*
Y5843D02*
Y5774D01*
Y5980D02*
Y6049D01*
Y7024D02*
Y6955D01*
Y7162D02*
Y7231D01*
Y8205D02*
Y8136D01*
Y8343D02*
Y8412D01*
Y9386D02*
Y9317D01*
Y9524D02*
Y9593D01*
Y10567D02*
Y10498D01*
Y10705D02*
Y10774D01*
Y11748D02*
Y11679D01*
Y11886D02*
Y11955D01*
Y12929D02*
Y12860D01*
Y13067D02*
Y13136D01*
X9130Y400D02*
X9199D01*
X9130Y1187D02*
X9199D01*
X9130Y2368D02*
X9199D01*
X9130Y3549D02*
X9199D01*
X9130Y4730D02*
X9199D01*
X9130Y5912D02*
X9199D01*
X9130Y7093D02*
X9199D01*
X9130Y8274D02*
X9199D01*
X9130Y9455D02*
X9199D01*
X9130Y10636D02*
X9199D01*
X9130Y11817D02*
X9199D01*
X9130Y12998D02*
X9199D01*
D02*
D89*
X2274Y3943D03*
Y8143D03*
X2358Y1171D03*
Y3171D03*
Y10423D03*
Y12423D03*
X4258Y1171D03*
Y3171D03*
Y10423D03*
Y12423D03*
X4274Y3943D03*
Y8143D03*
D02*
D90*
X1699Y7785D03*
X1853Y5029D03*
X2601Y597D03*
X2680Y9927D03*
X3152Y692D03*
X3231Y9912D03*
D02*
D91*
X1699Y7585D03*
Y7685D03*
X1741Y4929D03*
X1853Y4829D03*
X2701Y597D03*
X2780Y9927D03*
X2801Y597D03*
X2880Y9927D03*
X3252Y580D03*
X3331Y9800D03*
X3352Y692D03*
X3431Y9912D03*
D02*
D92*
X1748Y2368D02*
X1945D01*
X2014Y2437*
X2004Y11650D02*
X1935Y11581D01*
X1758*
X2014Y2437D02*
Y2762D01*
X2132Y2880*
X2358*
Y2871*
Y12123D02*
Y12132D01*
X2211*
X2073Y11994*
Y11719*
X2004Y11650*
D02*
D96*
X6386Y1187D03*
Y2368D03*
Y3549D03*
Y4730D03*
Y5912D03*
Y7093D03*
Y8274D03*
Y9455D03*
Y10636D03*
Y11817D03*
X6586Y1187D03*
Y2368D03*
Y3549D03*
Y4730D03*
Y5912D03*
Y7093D03*
Y8274D03*
Y9455D03*
Y10636D03*
Y11817D03*
X6786Y1187D03*
Y2368D03*
Y3549D03*
Y4730D03*
Y5912D03*
Y7093D03*
Y8274D03*
Y9455D03*
Y10636D03*
Y11817D03*
X6986Y1187D03*
Y2368D03*
Y3549D03*
Y4730D03*
Y5912D03*
Y7093D03*
Y8274D03*
Y9455D03*
Y10636D03*
Y11817D03*
X7186Y1187D03*
Y2368D03*
Y3549D03*
Y4730D03*
Y5912D03*
Y7093D03*
Y8274D03*
Y9455D03*
Y10636D03*
Y11817D03*
X7386Y1187D03*
Y2368D03*
Y3549D03*
Y4730D03*
Y5912D03*
Y7093D03*
Y8274D03*
Y9455D03*
Y10636D03*
Y11817D03*
X7586Y1187D03*
Y2368D03*
Y3549D03*
Y4730D03*
Y5912D03*
Y7093D03*
Y8274D03*
Y9455D03*
Y10636D03*
Y11817D03*
X7786Y1187D03*
Y2368D03*
Y3549D03*
Y4730D03*
Y5912D03*
Y7093D03*
Y8274D03*
Y9455D03*
Y10636D03*
Y11817D03*
X7986Y1187D03*
Y2368D03*
Y3549D03*
Y4730D03*
Y5912D03*
Y7093D03*
Y8274D03*
Y9455D03*
Y10636D03*
Y11817D03*
X8186Y1187D03*
Y2368D03*
Y3549D03*
Y4730D03*
Y5912D03*
Y7093D03*
Y8274D03*
Y9455D03*
Y10636D03*
Y11817D03*
X8386Y1187D03*
Y2368D03*
Y3549D03*
Y4730D03*
Y5912D03*
Y7093D03*
Y8274D03*
Y9455D03*
Y10636D03*
Y11817D03*
X8586Y1187D03*
Y2368D03*
Y3549D03*
Y4730D03*
Y5912D03*
Y7093D03*
Y8274D03*
Y9455D03*
Y10636D03*
Y11817D03*
D02*
D97*
X2891Y8549D03*
X3122D03*
X4800Y4435D03*
Y4671D03*
Y4908D03*
Y6030D03*
Y6266D03*
Y6502D03*
X4851Y1069D03*
Y1305D03*
Y1541D03*
Y2526D03*
Y2762D03*
Y2998D03*
Y10360D03*
Y10597D03*
Y10833D03*
Y11876D03*
Y12112D03*
Y12349D03*
X5031Y4435D03*
Y4671D03*
Y4908D03*
Y6030D03*
Y6266D03*
Y6502D03*
X5082Y1069D03*
Y1305D03*
Y1541D03*
Y2526D03*
Y2762D03*
Y2998D03*
Y10360D03*
Y10597D03*
Y10833D03*
Y11876D03*
Y12112D03*
Y12349D03*
D02*
D98*
X7506Y1679D02*
X7486D01*
Y1581*
X7782Y1286*
Y1187*
X7786*
X7506Y2860D02*
Y2762D01*
X7801Y2467*
Y2368*
X7786*
X7506Y4041D02*
Y3943D01*
X7801Y3648*
Y3549*
X7786*
X7506Y5223D02*
Y5124D01*
X7801Y4829*
Y4730*
X7786*
X7506Y6404D02*
Y6305D01*
X7801Y6010*
Y5912*
X7786*
X7506Y7585D02*
Y7486D01*
X7801Y7191*
Y7093*
X7786*
X7506Y8766D02*
Y8687D01*
X7801Y8392*
Y8274*
X7786*
X7506Y9947D02*
Y9849D01*
X7801Y9553*
Y9455*
X7786*
X7506Y11128D02*
Y11030D01*
X7801Y10734*
Y10636*
X7786*
X7506Y12309D02*
Y12211D01*
X7801Y11915*
Y11817*
X7786*
X8097Y1679D02*
X7998Y1581D01*
Y1187*
X7986*
X8097Y2860D02*
X7998Y2762D01*
Y2368*
X7986*
X8097Y4041D02*
X7998Y3943D01*
Y3549*
X7986*
X8097Y5223D02*
X7998Y5124D01*
Y4730*
X7986*
X8097Y6404D02*
X7998Y6305D01*
Y5912*
X7986*
X8097Y7585D02*
X7998Y7486D01*
Y7093*
X7986*
X8097Y8766D02*
X7998Y8667D01*
Y8274*
X7986*
X8097Y9947D02*
X7998Y9849D01*
Y9455*
X7986*
X8097Y11128D02*
X7998Y11030D01*
Y10636*
X7986*
X8097Y12309D02*
X7998Y12211D01*
Y11817*
X7986*
X0Y0D02*
M02*
