%FSLAX23Y23*%
%MOIN*%
G04 EasyPC Gerber Version 18.0.6 Build 3620 *
%ADD77R,0.06200X0.06200*%
%ADD94R,0.07000X0.07000*%
%ADD78C,0.06200*%
%ADD95C,0.07000*%
%ADD80C,0.08874*%
%ADD73C,0.09000*%
%ADD81C,0.11000*%
%ADD99C,0.12000*%
%ADD72C,0.20685*%
%ADD74C,0.21000*%
%ADD93C,0.26000*%
X0Y0D02*
D02*
D72*
X400Y400D03*
Y5912D03*
Y12998D03*
X3943Y9455D03*
X4730Y400D03*
Y12998D03*
X5912Y1187D03*
Y2368D03*
Y3549D03*
Y4730D03*
Y5912D03*
Y7093D03*
Y8274D03*
Y9455D03*
Y10636D03*
Y11817D03*
X9061Y400D03*
Y1187D03*
Y2368D03*
Y3549D03*
Y4730D03*
Y5912D03*
Y7093D03*
Y8274D03*
Y9455D03*
Y10636D03*
Y11817D03*
Y12998D03*
D02*
D73*
X2358Y1871D03*
Y2471D03*
Y11123D03*
Y11723D03*
X2974Y3943D03*
Y8143D03*
X3274Y3943D03*
X3574D03*
Y8143D03*
X4258Y1871D03*
Y2171D03*
Y2471D03*
Y11123D03*
Y11423D03*
Y11723D03*
D02*
D74*
X2358Y1471D03*
Y2871D03*
Y10723D03*
Y12123D03*
X2574Y3943D03*
Y8143D03*
X3974Y3943D03*
Y8143D03*
X4258Y1471D03*
Y2871D03*
Y10723D03*
Y12123D03*
D02*
D77*
X1758Y2860D03*
X1877Y12112D03*
X3026Y8766D03*
D02*
D78*
X1856Y2860D03*
X1975Y12112D03*
X3124Y8766D03*
D02*
D80*
X1551Y2171D03*
Y2368D03*
X1561Y11384D03*
Y11581D03*
X1650Y2270D03*
Y2467D03*
X1660Y11482D03*
Y11679D03*
X1748Y2171D03*
Y2368D03*
X1758Y11384D03*
Y11581D03*
X3321Y8943D03*
Y9140D03*
X3420Y9041D03*
X3518Y8943D03*
Y9140D03*
X3616Y9041D03*
X6522Y1679D03*
Y1876D03*
Y2860D03*
Y3057D03*
Y4041D03*
Y4238D03*
Y5223D03*
Y5419D03*
Y6404D03*
Y6600D03*
Y7585D03*
Y7782D03*
Y8766D03*
Y8963D03*
Y9947D03*
Y10144D03*
Y11128D03*
Y11325D03*
Y12309D03*
Y12506D03*
X6620Y1778D03*
Y2959D03*
Y4140D03*
Y5321D03*
Y6502D03*
Y7683D03*
Y8864D03*
Y10045D03*
Y11226D03*
Y12408D03*
X6719Y1679D03*
Y1876D03*
Y2860D03*
Y3057D03*
Y4041D03*
Y4238D03*
Y5223D03*
Y5419D03*
Y6404D03*
Y6600D03*
Y7585D03*
Y7782D03*
Y8766D03*
Y8963D03*
Y9947D03*
Y10144D03*
Y11128D03*
Y11325D03*
Y12309D03*
Y12506D03*
X6817Y1778D03*
Y2959D03*
Y4140D03*
Y5321D03*
Y6502D03*
Y7683D03*
Y8864D03*
Y10045D03*
Y11226D03*
Y12408D03*
X7309Y1679D03*
Y1876D03*
Y2860D03*
Y3057D03*
Y4041D03*
Y4238D03*
Y5223D03*
Y5419D03*
Y6404D03*
Y6600D03*
Y7585D03*
Y7782D03*
Y8766D03*
Y8963D03*
Y9947D03*
Y10144D03*
Y11128D03*
Y11325D03*
Y12309D03*
Y12506D03*
X7408Y1778D03*
Y2959D03*
Y4140D03*
Y5321D03*
Y6502D03*
Y7683D03*
Y8864D03*
Y10045D03*
Y11226D03*
Y12408D03*
X7506Y1679D03*
Y1876D03*
Y2860D03*
Y3057D03*
Y4041D03*
Y4238D03*
Y5223D03*
Y5419D03*
Y6404D03*
Y6600D03*
Y7585D03*
Y7782D03*
Y8766D03*
Y8963D03*
Y9947D03*
Y10144D03*
Y11128D03*
Y11325D03*
Y12309D03*
Y12506D03*
X7604Y1778D03*
Y2959D03*
Y4140D03*
Y5321D03*
Y6502D03*
Y7683D03*
Y8864D03*
Y10045D03*
Y11226D03*
Y12408D03*
X8097Y1679D03*
Y1876D03*
Y2860D03*
Y3057D03*
Y4041D03*
Y4238D03*
Y5223D03*
Y5419D03*
Y6404D03*
Y6600D03*
Y7585D03*
Y7782D03*
Y8766D03*
Y8963D03*
Y9947D03*
Y10144D03*
Y11128D03*
Y11325D03*
Y12309D03*
Y12506D03*
X8195Y1778D03*
Y2959D03*
Y4140D03*
Y5321D03*
Y6502D03*
Y7683D03*
Y8864D03*
Y10045D03*
Y11226D03*
Y12408D03*
X8293Y1679D03*
Y1876D03*
Y2860D03*
Y3057D03*
Y4041D03*
Y4238D03*
Y5223D03*
Y5419D03*
Y6404D03*
Y6600D03*
Y7585D03*
Y7782D03*
Y8766D03*
Y8963D03*
Y9947D03*
Y10144D03*
Y11128D03*
Y11325D03*
Y12309D03*
Y12506D03*
X8392Y1778D03*
Y2959D03*
Y4140D03*
Y5321D03*
Y6502D03*
Y7683D03*
Y8864D03*
Y10045D03*
Y11226D03*
Y12408D03*
D02*
D81*
X318Y6990D03*
X518Y6833D03*
X718D03*
X918D03*
X1118D03*
X1318Y6990D03*
D02*
D93*
X2274Y3943D03*
Y8143D03*
X2358Y1171D03*
Y3171D03*
Y10423D03*
Y12423D03*
X4258Y1171D03*
Y3171D03*
Y10423D03*
Y12423D03*
X4274Y3943D03*
Y8143D03*
D02*
D94*
X1699Y7785D03*
X1853Y5029D03*
X2601Y597D03*
X2680Y9927D03*
X3152Y692D03*
X3231Y9912D03*
D02*
D95*
X1699Y7585D03*
Y7685D03*
X1741Y4929D03*
X1853Y4829D03*
X2701Y597D03*
X2780Y9927D03*
X2801Y597D03*
X2880Y9927D03*
X3252Y580D03*
X3331Y9800D03*
X3352Y692D03*
X3431Y9912D03*
D02*
D99*
X6386Y1187D03*
Y2368D03*
Y3549D03*
Y4730D03*
Y5912D03*
Y7093D03*
Y8274D03*
Y9455D03*
Y10636D03*
Y11817D03*
X6586Y1187D03*
Y2368D03*
Y3549D03*
Y4730D03*
Y5912D03*
Y7093D03*
Y8274D03*
Y9455D03*
Y10636D03*
Y11817D03*
X6786Y1187D03*
Y2368D03*
Y3549D03*
Y4730D03*
Y5912D03*
Y7093D03*
Y8274D03*
Y9455D03*
Y10636D03*
Y11817D03*
X6986Y1187D03*
Y2368D03*
Y3549D03*
Y4730D03*
Y5912D03*
Y7093D03*
Y8274D03*
Y9455D03*
Y10636D03*
Y11817D03*
X7186Y1187D03*
Y2368D03*
Y3549D03*
Y4730D03*
Y5912D03*
Y7093D03*
Y8274D03*
Y9455D03*
Y10636D03*
Y11817D03*
X7386Y1187D03*
Y2368D03*
Y3549D03*
Y4730D03*
Y5912D03*
Y7093D03*
Y8274D03*
Y9455D03*
Y10636D03*
Y11817D03*
X7586Y1187D03*
Y2368D03*
Y3549D03*
Y4730D03*
Y5912D03*
Y7093D03*
Y8274D03*
Y9455D03*
Y10636D03*
Y11817D03*
X7786Y1187D03*
Y2368D03*
Y3549D03*
Y4730D03*
Y5912D03*
Y7093D03*
Y8274D03*
Y9455D03*
Y10636D03*
Y11817D03*
X7986Y1187D03*
Y2368D03*
Y3549D03*
Y4730D03*
Y5912D03*
Y7093D03*
Y8274D03*
Y9455D03*
Y10636D03*
Y11817D03*
X8186Y1187D03*
Y2368D03*
Y3549D03*
Y4730D03*
Y5912D03*
Y7093D03*
Y8274D03*
Y9455D03*
Y10636D03*
Y11817D03*
X8386Y1187D03*
Y2368D03*
Y3549D03*
Y4730D03*
Y5912D03*
Y7093D03*
Y8274D03*
Y9455D03*
Y10636D03*
Y11817D03*
X8586Y1187D03*
Y2368D03*
Y3549D03*
Y4730D03*
Y5912D03*
Y7093D03*
Y8274D03*
Y9455D03*
Y10636D03*
Y11817D03*
X0Y0D02*
M02*
