%FSLAX23Y23*%
%MOIN*%
G04 EasyPC Gerber Version 18.0.6 Build 3620 *
%ADD20R,0.05200X0.05200*%
%ADD90R,0.06000X0.06000*%
%ADD16C,0.00500*%
%ADD10C,0.01200*%
%ADD27C,0.04000*%
%ADD21C,0.05200*%
%ADD88C,0.05906*%
%ADD91C,0.06000*%
%ADD23C,0.07874*%
%ADD18C,0.08000*%
%ADD15C,0.10000*%
%ADD96C,0.11000*%
%ADD17C,0.19685*%
%ADD19C,0.20000*%
%ADD89C,0.25000*%
X0Y0D02*
D02*
D10*
X8707Y12801D02*
X3746D01*
Y85*
X8707*
Y12801*
X3829Y9455D02*
G75*
G02X4057I114D01*
G01*
G75*
G02X3829I-114*
G01*
X3974Y4059D02*
G75*
G02Y3827J-116D01*
G01*
G75*
G02Y4059J116*
G01*
Y8259D02*
G75*
G02Y8027J-116D01*
G01*
G75*
G02Y8259J116*
G01*
X4117Y1171D02*
G75*
G02X4399I141D01*
G01*
G75*
G02X4117I-141*
G01*
Y3171D02*
G75*
G02X4399I141D01*
G01*
G75*
G02X4117I-141*
G01*
Y10423D02*
G75*
G02X4399I141D01*
G01*
G75*
G02X4117I-141*
G01*
Y12423D02*
G75*
G02X4399I141D01*
G01*
G75*
G02X4117I-141*
G01*
X4142Y1471D02*
G75*
G02X4374I116D01*
G01*
G75*
G02X4142I-116*
G01*
Y12123D02*
G75*
G02X4374I116D01*
G01*
G75*
G02X4142I-116*
G01*
X4202Y1871D02*
G75*
G02X4314I56D01*
G01*
G75*
G02X4202I-56*
G01*
Y2171D02*
G75*
G02X4314I56D01*
G01*
G75*
G02X4202I-56*
G01*
Y2471D02*
G75*
G02X4314I56D01*
G01*
G75*
G02X4202I-56*
G01*
Y11123D02*
G75*
G02X4314I56D01*
G01*
G75*
G02X4202I-56*
G01*
Y11423D02*
G75*
G02X4314I56D01*
G01*
G75*
G02X4202I-56*
G01*
Y11723D02*
G75*
G02X4314I56D01*
G01*
G75*
G02X4202I-56*
G01*
X4274Y4084D02*
G75*
G02Y3802J-141D01*
G01*
G75*
G02Y4084J141*
G01*
Y8284D02*
G75*
G02Y8002J-141D01*
G01*
G75*
G02Y8284J141*
G01*
X4616Y400D02*
G75*
G02X4845I114D01*
G01*
G75*
G02X4616I-114*
G01*
X4663Y4435D02*
G75*
G02X4735I36D01*
G01*
G75*
G02X4663I-36*
G01*
Y4671D02*
G75*
G02X4735I36D01*
G01*
G75*
G02X4663I-36*
G01*
Y4908D02*
G75*
G02X4735I36D01*
G01*
G75*
G02X4663I-36*
G01*
Y6030D02*
G75*
G02X4735I36D01*
G01*
G75*
G02X4663I-36*
G01*
Y6266D02*
G75*
G02X4735I36D01*
G01*
G75*
G02X4663I-36*
G01*
Y6502D02*
G75*
G02X4735I36D01*
G01*
G75*
G02X4663I-36*
G01*
X4714Y10360D02*
G75*
G02X4786I36D01*
G01*
G75*
G02X4714I-36*
G01*
Y10597D02*
G75*
G02X4786I36D01*
G01*
G75*
G02X4714I-36*
G01*
Y10833D02*
G75*
G02X4786I36D01*
G01*
G75*
G02X4714I-36*
G01*
Y11876D02*
G75*
G02X4786I36D01*
G01*
G75*
G02X4714I-36*
G01*
Y12112D02*
G75*
G02X4786I36D01*
G01*
G75*
G02X4714I-36*
G01*
Y12349D02*
G75*
G02X4786I36D01*
G01*
G75*
G02X4714I-36*
G01*
X5096Y4435D02*
G75*
G02X5168I36D01*
G01*
G75*
G02X5096I-36*
G01*
Y4671D02*
G75*
G02X5168I36D01*
G01*
G75*
G02X5096I-36*
G01*
Y4908D02*
G75*
G02X5168I36D01*
G01*
G75*
G02X5096I-36*
G01*
Y6030D02*
G75*
G02X5168I36D01*
G01*
G75*
G02X5096I-36*
G01*
Y6266D02*
G75*
G02X5168I36D01*
G01*
G75*
G02X5096I-36*
G01*
Y6502D02*
G75*
G02X5168I36D01*
G01*
G75*
G02X5096I-36*
G01*
X5147Y1069D02*
G75*
G02X5219I36D01*
G01*
G75*
G02X5147I-36*
G01*
Y1305D02*
G75*
G02X5219I36D01*
G01*
G75*
G02X5147I-36*
G01*
Y1541D02*
G75*
G02X5219I36D01*
G01*
G75*
G02X5147I-36*
G01*
Y2526D02*
G75*
G02X5219I36D01*
G01*
G75*
G02X5147I-36*
G01*
Y2762D02*
G75*
G02X5219I36D01*
G01*
G75*
G02X5147I-36*
G01*
Y2998D02*
G75*
G02X5219I36D01*
G01*
G75*
G02X5147I-36*
G01*
X5797Y1187D02*
G75*
G02X6026I114D01*
G01*
G75*
G02X5797I-114*
G01*
Y2368D02*
G75*
G02X6026I114D01*
G01*
G75*
G02X5797I-114*
G01*
Y3549D02*
G75*
G02X6026I114D01*
G01*
G75*
G02X5797I-114*
G01*
Y4730D02*
G75*
G02X6026I114D01*
G01*
G75*
G02X5797I-114*
G01*
Y5912D02*
G75*
G02X6026I114D01*
G01*
G75*
G02X5797I-114*
G01*
Y7093D02*
G75*
G02X6026I114D01*
G01*
G75*
G02X5797I-114*
G01*
Y8274D02*
G75*
G02X6026I114D01*
G01*
G75*
G02X5797I-114*
G01*
Y9455D02*
G75*
G02X6026I114D01*
G01*
G75*
G02X5797I-114*
G01*
Y10636D02*
G75*
G02X6026I114D01*
G01*
G75*
G02X5797I-114*
G01*
Y11817D02*
G75*
G02X6026I114D01*
G01*
G75*
G02X5797I-114*
G01*
X6386Y1116D02*
G75*
G02Y1258J71D01*
G01*
G75*
G02Y1116J-71*
G01*
Y2297D02*
G75*
G02Y2439J71D01*
G01*
G75*
G02Y2297J-71*
G01*
Y3478D02*
G75*
G02Y3620J71D01*
G01*
G75*
G02Y3478J-71*
G01*
Y4659D02*
G75*
G02Y4801J71D01*
G01*
G75*
G02Y4659J-71*
G01*
Y5841D02*
G75*
G02Y5983J71D01*
G01*
G75*
G02Y5841J-71*
G01*
Y7022D02*
G75*
G02Y7164J71D01*
G01*
G75*
G02Y7022J-71*
G01*
Y8203D02*
G75*
G02Y8345J71D01*
G01*
G75*
G02Y8203J-71*
G01*
Y9384D02*
G75*
G02Y9526J71D01*
G01*
G75*
G02Y9384J-71*
G01*
Y10565D02*
G75*
G02Y10707J71D01*
G01*
G75*
G02Y10565J-71*
G01*
Y11746D02*
G75*
G02Y11888J71D01*
G01*
G75*
G02Y11746J-71*
G01*
X6466Y1679D02*
G75*
G02X6577I55D01*
G01*
G75*
G02X6466I-55*
G01*
Y1876D02*
G75*
G02X6577I55D01*
G01*
G75*
G02X6466I-55*
G01*
Y2860D02*
G75*
G02X6577I55D01*
G01*
G75*
G02X6466I-55*
G01*
Y3057D02*
G75*
G02X6577I55D01*
G01*
G75*
G02X6466I-55*
G01*
Y4041D02*
G75*
G02X6577I55D01*
G01*
G75*
G02X6466I-55*
G01*
Y4238D02*
G75*
G02X6577I55D01*
G01*
G75*
G02X6466I-55*
G01*
Y5223D02*
G75*
G02X6577I55D01*
G01*
G75*
G02X6466I-55*
G01*
Y5419D02*
G75*
G02X6577I55D01*
G01*
G75*
G02X6466I-55*
G01*
Y6404D02*
G75*
G02X6577I55D01*
G01*
G75*
G02X6466I-55*
G01*
Y6600D02*
G75*
G02X6577I55D01*
G01*
G75*
G02X6466I-55*
G01*
Y7585D02*
G75*
G02X6577I55D01*
G01*
G75*
G02X6466I-55*
G01*
Y7782D02*
G75*
G02X6577I55D01*
G01*
G75*
G02X6466I-55*
G01*
Y8766D02*
G75*
G02X6577I55D01*
G01*
G75*
G02X6466I-55*
G01*
Y8963D02*
G75*
G02X6577I55D01*
G01*
G75*
G02X6466I-55*
G01*
Y9947D02*
G75*
G02X6577I55D01*
G01*
G75*
G02X6466I-55*
G01*
Y10144D02*
G75*
G02X6577I55D01*
G01*
G75*
G02X6466I-55*
G01*
Y11128D02*
G75*
G02X6577I55D01*
G01*
G75*
G02X6466I-55*
G01*
Y11325D02*
G75*
G02X6577I55D01*
G01*
G75*
G02X6466I-55*
G01*
Y12309D02*
G75*
G02X6577I55D01*
G01*
G75*
G02X6466I-55*
G01*
Y12506D02*
G75*
G02X6577I55D01*
G01*
G75*
G02X6466I-55*
G01*
X6565Y1778D02*
G75*
G02X6676I55D01*
G01*
G75*
G02X6565I-55*
G01*
Y2959D02*
G75*
G02X6676I55D01*
G01*
G75*
G02X6565I-55*
G01*
Y4140D02*
G75*
G02X6676I55D01*
G01*
G75*
G02X6565I-55*
G01*
Y5321D02*
G75*
G02X6676I55D01*
G01*
G75*
G02X6565I-55*
G01*
Y6502D02*
G75*
G02X6676I55D01*
G01*
G75*
G02X6565I-55*
G01*
Y7683D02*
G75*
G02X6676I55D01*
G01*
G75*
G02X6565I-55*
G01*
Y8864D02*
G75*
G02X6676I55D01*
G01*
G75*
G02X6565I-55*
G01*
Y10045D02*
G75*
G02X6676I55D01*
G01*
G75*
G02X6565I-55*
G01*
Y11226D02*
G75*
G02X6676I55D01*
G01*
G75*
G02X6565I-55*
G01*
Y12408D02*
G75*
G02X6676I55D01*
G01*
G75*
G02X6565I-55*
G01*
X6586Y1116D02*
G75*
G02Y1258J71D01*
G01*
G75*
G02Y1116J-71*
G01*
Y2297D02*
G75*
G02Y2439J71D01*
G01*
G75*
G02Y2297J-71*
G01*
Y3478D02*
G75*
G02Y3620J71D01*
G01*
G75*
G02Y3478J-71*
G01*
Y4659D02*
G75*
G02Y4801J71D01*
G01*
G75*
G02Y4659J-71*
G01*
Y5841D02*
G75*
G02Y5983J71D01*
G01*
G75*
G02Y5841J-71*
G01*
Y7022D02*
G75*
G02Y7164J71D01*
G01*
G75*
G02Y7022J-71*
G01*
Y8203D02*
G75*
G02Y8345J71D01*
G01*
G75*
G02Y8203J-71*
G01*
Y9384D02*
G75*
G02Y9526J71D01*
G01*
G75*
G02Y9384J-71*
G01*
Y10565D02*
G75*
G02Y10707J71D01*
G01*
G75*
G02Y10565J-71*
G01*
Y11746D02*
G75*
G02Y11888J71D01*
G01*
G75*
G02Y11746J-71*
G01*
X6663Y1679D02*
G75*
G02X6774I55D01*
G01*
G75*
G02X6663I-55*
G01*
Y1876D02*
G75*
G02X6774I55D01*
G01*
G75*
G02X6663I-55*
G01*
Y2860D02*
G75*
G02X6774I55D01*
G01*
G75*
G02X6663I-55*
G01*
Y3057D02*
G75*
G02X6774I55D01*
G01*
G75*
G02X6663I-55*
G01*
Y4041D02*
G75*
G02X6774I55D01*
G01*
G75*
G02X6663I-55*
G01*
Y4238D02*
G75*
G02X6774I55D01*
G01*
G75*
G02X6663I-55*
G01*
Y5223D02*
G75*
G02X6774I55D01*
G01*
G75*
G02X6663I-55*
G01*
Y5419D02*
G75*
G02X6774I55D01*
G01*
G75*
G02X6663I-55*
G01*
Y6404D02*
G75*
G02X6774I55D01*
G01*
G75*
G02X6663I-55*
G01*
Y6600D02*
G75*
G02X6774I55D01*
G01*
G75*
G02X6663I-55*
G01*
Y7585D02*
G75*
G02X6774I55D01*
G01*
G75*
G02X6663I-55*
G01*
Y7782D02*
G75*
G02X6774I55D01*
G01*
G75*
G02X6663I-55*
G01*
Y8766D02*
G75*
G02X6774I55D01*
G01*
G75*
G02X6663I-55*
G01*
Y8963D02*
G75*
G02X6774I55D01*
G01*
G75*
G02X6663I-55*
G01*
Y9947D02*
G75*
G02X6774I55D01*
G01*
G75*
G02X6663I-55*
G01*
Y10144D02*
G75*
G02X6774I55D01*
G01*
G75*
G02X6663I-55*
G01*
Y11128D02*
G75*
G02X6774I55D01*
G01*
G75*
G02X6663I-55*
G01*
Y11325D02*
G75*
G02X6774I55D01*
G01*
G75*
G02X6663I-55*
G01*
Y12309D02*
G75*
G02X6774I55D01*
G01*
G75*
G02X6663I-55*
G01*
Y12506D02*
G75*
G02X6774I55D01*
G01*
G75*
G02X6663I-55*
G01*
X6762Y1778D02*
G75*
G02X6872I55D01*
G01*
G75*
G02X6762I-55*
G01*
Y2959D02*
G75*
G02X6872I55D01*
G01*
G75*
G02X6762I-55*
G01*
Y4140D02*
G75*
G02X6872I55D01*
G01*
G75*
G02X6762I-55*
G01*
Y5321D02*
G75*
G02X6872I55D01*
G01*
G75*
G02X6762I-55*
G01*
Y6502D02*
G75*
G02X6872I55D01*
G01*
G75*
G02X6762I-55*
G01*
Y7683D02*
G75*
G02X6872I55D01*
G01*
G75*
G02X6762I-55*
G01*
Y8864D02*
G75*
G02X6872I55D01*
G01*
G75*
G02X6762I-55*
G01*
Y10045D02*
G75*
G02X6872I55D01*
G01*
G75*
G02X6762I-55*
G01*
Y11226D02*
G75*
G02X6872I55D01*
G01*
G75*
G02X6762I-55*
G01*
Y12408D02*
G75*
G02X6872I55D01*
G01*
G75*
G02X6762I-55*
G01*
X6786Y1116D02*
G75*
G02Y1258J71D01*
G01*
G75*
G02Y1116J-71*
G01*
Y2297D02*
G75*
G02Y2439J71D01*
G01*
G75*
G02Y2297J-71*
G01*
Y3478D02*
G75*
G02Y3620J71D01*
G01*
G75*
G02Y3478J-71*
G01*
Y4659D02*
G75*
G02Y4801J71D01*
G01*
G75*
G02Y4659J-71*
G01*
Y5841D02*
G75*
G02Y5983J71D01*
G01*
G75*
G02Y5841J-71*
G01*
Y7022D02*
G75*
G02Y7164J71D01*
G01*
G75*
G02Y7022J-71*
G01*
Y8203D02*
G75*
G02Y8345J71D01*
G01*
G75*
G02Y8203J-71*
G01*
Y9384D02*
G75*
G02Y9526J71D01*
G01*
G75*
G02Y9384J-71*
G01*
Y10565D02*
G75*
G02Y10707J71D01*
G01*
G75*
G02Y10565J-71*
G01*
Y11746D02*
G75*
G02Y11888J71D01*
G01*
G75*
G02Y11746J-71*
G01*
X6986Y1116D02*
G75*
G02Y1258J71D01*
G01*
G75*
G02Y1116J-71*
G01*
Y2297D02*
G75*
G02Y2439J71D01*
G01*
G75*
G02Y2297J-71*
G01*
Y3478D02*
G75*
G02Y3620J71D01*
G01*
G75*
G02Y3478J-71*
G01*
Y4659D02*
G75*
G02Y4801J71D01*
G01*
G75*
G02Y4659J-71*
G01*
Y5841D02*
G75*
G02Y5983J71D01*
G01*
G75*
G02Y5841J-71*
G01*
Y7022D02*
G75*
G02Y7164J71D01*
G01*
G75*
G02Y7022J-71*
G01*
Y8203D02*
G75*
G02Y8345J71D01*
G01*
G75*
G02Y8203J-71*
G01*
Y9384D02*
G75*
G02Y9526J71D01*
G01*
G75*
G02Y9384J-71*
G01*
Y10565D02*
G75*
G02Y10707J71D01*
G01*
G75*
G02Y10565J-71*
G01*
Y11746D02*
G75*
G02Y11888J71D01*
G01*
G75*
G02Y11746J-71*
G01*
X7186Y1116D02*
G75*
G02Y1258J71D01*
G01*
G75*
G02Y1116J-71*
G01*
Y2297D02*
G75*
G02Y2439J71D01*
G01*
G75*
G02Y2297J-71*
G01*
Y3478D02*
G75*
G02Y3620J71D01*
G01*
G75*
G02Y3478J-71*
G01*
Y4659D02*
G75*
G02Y4801J71D01*
G01*
G75*
G02Y4659J-71*
G01*
Y5841D02*
G75*
G02Y5983J71D01*
G01*
G75*
G02Y5841J-71*
G01*
Y7022D02*
G75*
G02Y7164J71D01*
G01*
G75*
G02Y7022J-71*
G01*
Y8203D02*
G75*
G02Y8345J71D01*
G01*
G75*
G02Y8203J-71*
G01*
Y9384D02*
G75*
G02Y9526J71D01*
G01*
G75*
G02Y9384J-71*
G01*
Y10565D02*
G75*
G02Y10707J71D01*
G01*
G75*
G02Y10565J-71*
G01*
Y11746D02*
G75*
G02Y11888J71D01*
G01*
G75*
G02Y11746J-71*
G01*
X7254Y1679D02*
G75*
G02X7365I55D01*
G01*
G75*
G02X7254I-55*
G01*
Y2860D02*
G75*
G02X7365I55D01*
G01*
G75*
G02X7254I-55*
G01*
Y4041D02*
G75*
G02X7365I55D01*
G01*
G75*
G02X7254I-55*
G01*
Y5223D02*
G75*
G02X7365I55D01*
G01*
G75*
G02X7254I-55*
G01*
Y6404D02*
G75*
G02X7365I55D01*
G01*
G75*
G02X7254I-55*
G01*
Y7585D02*
G75*
G02X7365I55D01*
G01*
G75*
G02X7254I-55*
G01*
Y8766D02*
G75*
G02X7365I55D01*
G01*
G75*
G02X7254I-55*
G01*
Y9947D02*
G75*
G02X7365I55D01*
G01*
G75*
G02X7254I-55*
G01*
Y11128D02*
G75*
G02X7365I55D01*
G01*
G75*
G02X7254I-55*
G01*
Y12309D02*
G75*
G02X7365I55D01*
G01*
G75*
G02X7254I-55*
G01*
X7352Y1778D02*
G75*
G02X7463I55D01*
G01*
G75*
G02X7352I-55*
G01*
Y2959D02*
G75*
G02X7463I55D01*
G01*
G75*
G02X7352I-55*
G01*
Y4140D02*
G75*
G02X7463I55D01*
G01*
G75*
G02X7352I-55*
G01*
Y5321D02*
G75*
G02X7463I55D01*
G01*
G75*
G02X7352I-55*
G01*
Y6502D02*
G75*
G02X7463I55D01*
G01*
G75*
G02X7352I-55*
G01*
Y7683D02*
G75*
G02X7463I55D01*
G01*
G75*
G02X7352I-55*
G01*
Y8864D02*
G75*
G02X7463I55D01*
G01*
G75*
G02X7352I-55*
G01*
Y10045D02*
G75*
G02X7463I55D01*
G01*
G75*
G02X7352I-55*
G01*
Y11226D02*
G75*
G02X7463I55D01*
G01*
G75*
G02X7352I-55*
G01*
Y12408D02*
G75*
G02X7463I55D01*
G01*
G75*
G02X7352I-55*
G01*
X7386Y1116D02*
G75*
G02Y1258J71D01*
G01*
G75*
G02Y1116J-71*
G01*
Y2297D02*
G75*
G02Y2439J71D01*
G01*
G75*
G02Y2297J-71*
G01*
Y3478D02*
G75*
G02Y3620J71D01*
G01*
G75*
G02Y3478J-71*
G01*
Y4659D02*
G75*
G02Y4801J71D01*
G01*
G75*
G02Y4659J-71*
G01*
Y5841D02*
G75*
G02Y5983J71D01*
G01*
G75*
G02Y5841J-71*
G01*
Y7022D02*
G75*
G02Y7164J71D01*
G01*
G75*
G02Y7022J-71*
G01*
Y8203D02*
G75*
G02Y8345J71D01*
G01*
G75*
G02Y8203J-71*
G01*
Y9384D02*
G75*
G02Y9526J71D01*
G01*
G75*
G02Y9384J-71*
G01*
Y10565D02*
G75*
G02Y10707J71D01*
G01*
G75*
G02Y10565J-71*
G01*
Y11746D02*
G75*
G02Y11888J71D01*
G01*
G75*
G02Y11746J-71*
G01*
X7451Y1679D02*
G75*
G02X7561I55D01*
G01*
G75*
G02X7451I-55*
G01*
Y1876D02*
G75*
G02X7561I55D01*
G01*
G75*
G02X7451I-55*
G01*
Y2860D02*
G75*
G02X7561I55D01*
G01*
G75*
G02X7451I-55*
G01*
Y3057D02*
G75*
G02X7561I55D01*
G01*
G75*
G02X7451I-55*
G01*
Y4041D02*
G75*
G02X7561I55D01*
G01*
G75*
G02X7451I-55*
G01*
Y4238D02*
G75*
G02X7561I55D01*
G01*
G75*
G02X7451I-55*
G01*
Y5223D02*
G75*
G02X7561I55D01*
G01*
G75*
G02X7451I-55*
G01*
Y5419D02*
G75*
G02X7561I55D01*
G01*
G75*
G02X7451I-55*
G01*
Y6404D02*
G75*
G02X7561I55D01*
G01*
G75*
G02X7451I-55*
G01*
Y6600D02*
G75*
G02X7561I55D01*
G01*
G75*
G02X7451I-55*
G01*
Y7585D02*
G75*
G02X7561I55D01*
G01*
G75*
G02X7451I-55*
G01*
Y7782D02*
G75*
G02X7561I55D01*
G01*
G75*
G02X7451I-55*
G01*
Y8766D02*
G75*
G02X7561I55D01*
G01*
G75*
G02X7451I-55*
G01*
Y8963D02*
G75*
G02X7561I55D01*
G01*
G75*
G02X7451I-55*
G01*
Y9947D02*
G75*
G02X7561I55D01*
G01*
G75*
G02X7451I-55*
G01*
Y10144D02*
G75*
G02X7561I55D01*
G01*
G75*
G02X7451I-55*
G01*
Y11128D02*
G75*
G02X7561I55D01*
G01*
G75*
G02X7451I-55*
G01*
Y11325D02*
G75*
G02X7561I55D01*
G01*
G75*
G02X7451I-55*
G01*
Y12309D02*
G75*
G02X7561I55D01*
G01*
G75*
G02X7451I-55*
G01*
Y12506D02*
G75*
G02X7561I55D01*
G01*
G75*
G02X7451I-55*
G01*
X7549Y1778D02*
G75*
G02X7660I55D01*
G01*
G75*
G02X7549I-55*
G01*
Y2959D02*
G75*
G02X7660I55D01*
G01*
G75*
G02X7549I-55*
G01*
Y4140D02*
G75*
G02X7660I55D01*
G01*
G75*
G02X7549I-55*
G01*
Y5321D02*
G75*
G02X7660I55D01*
G01*
G75*
G02X7549I-55*
G01*
Y6502D02*
G75*
G02X7660I55D01*
G01*
G75*
G02X7549I-55*
G01*
Y7683D02*
G75*
G02X7660I55D01*
G01*
G75*
G02X7549I-55*
G01*
Y8864D02*
G75*
G02X7660I55D01*
G01*
G75*
G02X7549I-55*
G01*
Y10045D02*
G75*
G02X7660I55D01*
G01*
G75*
G02X7549I-55*
G01*
Y11226D02*
G75*
G02X7660I55D01*
G01*
G75*
G02X7549I-55*
G01*
Y12408D02*
G75*
G02X7660I55D01*
G01*
G75*
G02X7549I-55*
G01*
X7586Y1116D02*
G75*
G02Y1258J71D01*
G01*
G75*
G02Y1116J-71*
G01*
Y2297D02*
G75*
G02Y2439J71D01*
G01*
G75*
G02Y2297J-71*
G01*
Y3478D02*
G75*
G02Y3620J71D01*
G01*
G75*
G02Y3478J-71*
G01*
Y4659D02*
G75*
G02Y4801J71D01*
G01*
G75*
G02Y4659J-71*
G01*
Y5841D02*
G75*
G02Y5983J71D01*
G01*
G75*
G02Y5841J-71*
G01*
Y7022D02*
G75*
G02Y7164J71D01*
G01*
G75*
G02Y7022J-71*
G01*
Y8203D02*
G75*
G02Y8345J71D01*
G01*
G75*
G02Y8203J-71*
G01*
Y9384D02*
G75*
G02Y9526J71D01*
G01*
G75*
G02Y9384J-71*
G01*
Y10565D02*
G75*
G02Y10707J71D01*
G01*
G75*
G02Y10565J-71*
G01*
Y11746D02*
G75*
G02Y11888J71D01*
G01*
G75*
G02Y11746J-71*
G01*
X7786Y1116D02*
G75*
G02Y1258J71D01*
G01*
G75*
G02Y1116J-71*
G01*
Y2297D02*
G75*
G02Y2439J71D01*
G01*
G75*
G02Y2297J-71*
G01*
Y3478D02*
G75*
G02Y3620J71D01*
G01*
G75*
G02Y3478J-71*
G01*
Y4659D02*
G75*
G02Y4801J71D01*
G01*
G75*
G02Y4659J-71*
G01*
Y5841D02*
G75*
G02Y5983J71D01*
G01*
G75*
G02Y5841J-71*
G01*
Y7022D02*
G75*
G02Y7164J71D01*
G01*
G75*
G02Y7022J-71*
G01*
Y8203D02*
G75*
G02Y8345J71D01*
G01*
G75*
G02Y8203J-71*
G01*
Y9384D02*
G75*
G02Y9526J71D01*
G01*
G75*
G02Y9384J-71*
G01*
Y10565D02*
G75*
G02Y10707J71D01*
G01*
G75*
G02Y10565J-71*
G01*
Y11746D02*
G75*
G02Y11888J71D01*
G01*
G75*
G02Y11746J-71*
G01*
X7986Y1116D02*
G75*
G02Y1258J71D01*
G01*
G75*
G02Y1116J-71*
G01*
Y2297D02*
G75*
G02Y2439J71D01*
G01*
G75*
G02Y2297J-71*
G01*
Y3478D02*
G75*
G02Y3620J71D01*
G01*
G75*
G02Y3478J-71*
G01*
Y4659D02*
G75*
G02Y4801J71D01*
G01*
G75*
G02Y4659J-71*
G01*
Y5841D02*
G75*
G02Y5983J71D01*
G01*
G75*
G02Y5841J-71*
G01*
Y7022D02*
G75*
G02Y7164J71D01*
G01*
G75*
G02Y7022J-71*
G01*
Y8203D02*
G75*
G02Y8345J71D01*
G01*
G75*
G02Y8203J-71*
G01*
Y9384D02*
G75*
G02Y9526J71D01*
G01*
G75*
G02Y9384J-71*
G01*
Y10565D02*
G75*
G02Y10707J71D01*
G01*
G75*
G02Y10565J-71*
G01*
Y11746D02*
G75*
G02Y11888J71D01*
G01*
G75*
G02Y11746J-71*
G01*
X8041Y1679D02*
G75*
G02X8152I55D01*
G01*
G75*
G02X8041I-55*
G01*
Y1876D02*
G75*
G02X8152I55D01*
G01*
G75*
G02X8041I-55*
G01*
Y2860D02*
G75*
G02X8152I55D01*
G01*
G75*
G02X8041I-55*
G01*
Y3057D02*
G75*
G02X8152I55D01*
G01*
G75*
G02X8041I-55*
G01*
Y4041D02*
G75*
G02X8152I55D01*
G01*
G75*
G02X8041I-55*
G01*
Y4238D02*
G75*
G02X8152I55D01*
G01*
G75*
G02X8041I-55*
G01*
Y5223D02*
G75*
G02X8152I55D01*
G01*
G75*
G02X8041I-55*
G01*
Y5419D02*
G75*
G02X8152I55D01*
G01*
G75*
G02X8041I-55*
G01*
Y6404D02*
G75*
G02X8152I55D01*
G01*
G75*
G02X8041I-55*
G01*
Y6600D02*
G75*
G02X8152I55D01*
G01*
G75*
G02X8041I-55*
G01*
Y7585D02*
G75*
G02X8152I55D01*
G01*
G75*
G02X8041I-55*
G01*
Y7782D02*
G75*
G02X8152I55D01*
G01*
G75*
G02X8041I-55*
G01*
Y8766D02*
G75*
G02X8152I55D01*
G01*
G75*
G02X8041I-55*
G01*
Y8963D02*
G75*
G02X8152I55D01*
G01*
G75*
G02X8041I-55*
G01*
Y9947D02*
G75*
G02X8152I55D01*
G01*
G75*
G02X8041I-55*
G01*
Y10144D02*
G75*
G02X8152I55D01*
G01*
G75*
G02X8041I-55*
G01*
Y11128D02*
G75*
G02X8152I55D01*
G01*
G75*
G02X8041I-55*
G01*
Y11325D02*
G75*
G02X8152I55D01*
G01*
G75*
G02X8041I-55*
G01*
Y12309D02*
G75*
G02X8152I55D01*
G01*
G75*
G02X8041I-55*
G01*
Y12506D02*
G75*
G02X8152I55D01*
G01*
G75*
G02X8041I-55*
G01*
X8140Y1778D02*
G75*
G02X8250I55D01*
G01*
G75*
G02X8140I-55*
G01*
Y2959D02*
G75*
G02X8250I55D01*
G01*
G75*
G02X8140I-55*
G01*
Y4140D02*
G75*
G02X8250I55D01*
G01*
G75*
G02X8140I-55*
G01*
Y5321D02*
G75*
G02X8250I55D01*
G01*
G75*
G02X8140I-55*
G01*
Y6502D02*
G75*
G02X8250I55D01*
G01*
G75*
G02X8140I-55*
G01*
Y7683D02*
G75*
G02X8250I55D01*
G01*
G75*
G02X8140I-55*
G01*
Y8864D02*
G75*
G02X8250I55D01*
G01*
G75*
G02X8140I-55*
G01*
Y10045D02*
G75*
G02X8250I55D01*
G01*
G75*
G02X8140I-55*
G01*
Y11226D02*
G75*
G02X8250I55D01*
G01*
G75*
G02X8140I-55*
G01*
Y12408D02*
G75*
G02X8250I55D01*
G01*
G75*
G02X8140I-55*
G01*
X8186Y1116D02*
G75*
G02Y1258J71D01*
G01*
G75*
G02Y1116J-71*
G01*
Y2297D02*
G75*
G02Y2439J71D01*
G01*
G75*
G02Y2297J-71*
G01*
Y3478D02*
G75*
G02Y3620J71D01*
G01*
G75*
G02Y3478J-71*
G01*
Y4659D02*
G75*
G02Y4801J71D01*
G01*
G75*
G02Y4659J-71*
G01*
Y5841D02*
G75*
G02Y5983J71D01*
G01*
G75*
G02Y5841J-71*
G01*
Y7022D02*
G75*
G02Y7164J71D01*
G01*
G75*
G02Y7022J-71*
G01*
Y8203D02*
G75*
G02Y8345J71D01*
G01*
G75*
G02Y8203J-71*
G01*
Y9384D02*
G75*
G02Y9526J71D01*
G01*
G75*
G02Y9384J-71*
G01*
Y10565D02*
G75*
G02Y10707J71D01*
G01*
G75*
G02Y10565J-71*
G01*
Y11746D02*
G75*
G02Y11888J71D01*
G01*
G75*
G02Y11746J-71*
G01*
X8238Y1679D02*
G75*
G02X8349I55D01*
G01*
G75*
G02X8238I-55*
G01*
Y2860D02*
G75*
G02X8349I55D01*
G01*
G75*
G02X8238I-55*
G01*
Y4041D02*
G75*
G02X8349I55D01*
G01*
G75*
G02X8238I-55*
G01*
Y5223D02*
G75*
G02X8349I55D01*
G01*
G75*
G02X8238I-55*
G01*
Y6404D02*
G75*
G02X8349I55D01*
G01*
G75*
G02X8238I-55*
G01*
Y7585D02*
G75*
G02X8349I55D01*
G01*
G75*
G02X8238I-55*
G01*
Y8766D02*
G75*
G02X8349I55D01*
G01*
G75*
G02X8238I-55*
G01*
Y9947D02*
G75*
G02X8349I55D01*
G01*
G75*
G02X8238I-55*
G01*
Y11128D02*
G75*
G02X8349I55D01*
G01*
G75*
G02X8238I-55*
G01*
Y12309D02*
G75*
G02X8349I55D01*
G01*
G75*
G02X8238I-55*
G01*
X8336Y1778D02*
G75*
G02X8447I55D01*
G01*
G75*
G02X8336I-55*
G01*
Y2959D02*
G75*
G02X8447I55D01*
G01*
G75*
G02X8336I-55*
G01*
Y4140D02*
G75*
G02X8447I55D01*
G01*
G75*
G02X8336I-55*
G01*
Y5321D02*
G75*
G02X8447I55D01*
G01*
G75*
G02X8336I-55*
G01*
Y6502D02*
G75*
G02X8447I55D01*
G01*
G75*
G02X8336I-55*
G01*
Y7683D02*
G75*
G02X8447I55D01*
G01*
G75*
G02X8336I-55*
G01*
Y8864D02*
G75*
G02X8447I55D01*
G01*
G75*
G02X8336I-55*
G01*
Y10045D02*
G75*
G02X8447I55D01*
G01*
G75*
G02X8336I-55*
G01*
Y11226D02*
G75*
G02X8447I55D01*
G01*
G75*
G02X8336I-55*
G01*
Y12408D02*
G75*
G02X8447I55D01*
G01*
G75*
G02X8336I-55*
G01*
X8386Y1116D02*
G75*
G02Y1258J71D01*
G01*
G75*
G02Y1116J-71*
G01*
Y2297D02*
G75*
G02Y2439J71D01*
G01*
G75*
G02Y2297J-71*
G01*
Y3478D02*
G75*
G02Y3620J71D01*
G01*
G75*
G02Y3478J-71*
G01*
Y4659D02*
G75*
G02Y4801J71D01*
G01*
G75*
G02Y4659J-71*
G01*
Y5841D02*
G75*
G02Y5983J71D01*
G01*
G75*
G02Y5841J-71*
G01*
Y7022D02*
G75*
G02Y7164J71D01*
G01*
G75*
G02Y7022J-71*
G01*
Y8203D02*
G75*
G02Y8345J71D01*
G01*
G75*
G02Y8203J-71*
G01*
Y9384D02*
G75*
G02Y9526J71D01*
G01*
G75*
G02Y9384J-71*
G01*
Y10565D02*
G75*
G02Y10707J71D01*
G01*
G75*
G02Y10565J-71*
G01*
Y11746D02*
G75*
G02Y11888J71D01*
G01*
G75*
G02Y11746J-71*
G01*
X8586Y1116D02*
G75*
G02Y1258J71D01*
G01*
G75*
G02Y1116J-71*
G01*
Y2297D02*
G75*
G02Y2439J71D01*
G01*
G75*
G02Y2297J-71*
G01*
Y3478D02*
G75*
G02Y3620J71D01*
G01*
G75*
G02Y3478J-71*
G01*
Y4659D02*
G75*
G02Y4801J71D01*
G01*
G75*
G02Y4659J-71*
G01*
Y5841D02*
G75*
G02Y5983J71D01*
G01*
G75*
G02Y5841J-71*
G01*
Y7022D02*
G75*
G02Y7164J71D01*
G01*
G75*
G02Y7022J-71*
G01*
Y8203D02*
G75*
G02Y8345J71D01*
G01*
G75*
G02Y8203J-71*
G01*
Y9384D02*
G75*
G02Y9526J71D01*
G01*
G75*
G02Y9384J-71*
G01*
Y10565D02*
G75*
G02Y10707J71D01*
G01*
G75*
G02Y10565J-71*
G01*
Y11746D02*
G75*
G02Y11888J71D01*
G01*
G75*
G02Y11746J-71*
G01*
X3746Y9455D02*
G36*
Y8963D01*
X6466*
G75*
G02X6577I55*
G01*
X6663*
G75*
G02X6774I55*
G01*
X7451*
G75*
G02X7561I55*
G01*
X8041*
G75*
G02X8152I55*
G01*
X8707*
Y9455*
X8657*
G75*
G02X8586Y9384I-71*
G01*
G75*
G02X8515Y9455J71*
G01*
X8457*
G75*
G02X8386Y9384I-71*
G01*
G75*
G02X8315Y9455J71*
G01*
X8257*
G75*
G02X8186Y9384I-71*
G01*
G75*
G02X8115Y9455J71*
G01*
X8057*
G75*
G02X7986Y9384I-71*
G01*
G75*
G02X7915Y9455J71*
G01*
X7857*
G75*
G02X7786Y9384I-71*
G01*
G75*
G02X7715Y9455J71*
G01*
X7657*
G75*
G02X7586Y9384I-71*
G01*
G75*
G02X7515Y9455J71*
G01*
X7457*
G75*
G02X7386Y9384I-71*
G01*
G75*
G02X7315Y9455J71*
G01*
X7257*
G75*
G02X7186Y9384I-71*
G01*
G75*
G02X7115Y9455J71*
G01*
X7057*
G75*
G02X6986Y9384I-71*
G01*
G75*
G02X6915Y9455J71*
G01*
X6857*
G75*
G02X6786Y9384I-71*
G01*
G75*
G02X6715Y9455J71*
G01*
X6657*
G75*
G02X6586Y9384I-71*
G01*
G75*
G02X6515Y9455J71*
G01*
X6457*
G75*
G02X6386Y9384I-71*
G01*
G75*
G02X6315Y9455J71*
G01*
X6026*
G75*
G02X5797I-114*
G01*
X4057*
G75*
G02X3829I-114*
G01*
X3746*
G37*
X3829D02*
G36*
G75*
G02X4057I114D01*
G01*
X5797*
G75*
G02X6026I114*
G01*
X6315*
G75*
G02X6386Y9526I71*
G01*
G75*
G02X6457Y9455J-71*
G01*
X6515*
G75*
G02X6586Y9526I71*
G01*
G75*
G02X6657Y9455J-71*
G01*
X6715*
G75*
G02X6786Y9526I71*
G01*
G75*
G02X6857Y9455J-71*
G01*
X6915*
G75*
G02X6986Y9526I71*
G01*
G75*
G02X7057Y9455J-71*
G01*
X7115*
G75*
G02X7186Y9526I71*
G01*
G75*
G02X7257Y9455J-71*
G01*
X7315*
G75*
G02X7386Y9526I71*
G01*
G75*
G02X7457Y9455J-71*
G01*
X7515*
G75*
G02X7586Y9526I71*
G01*
G75*
G02X7657Y9455J-71*
G01*
X7715*
G75*
G02X7786Y9526I71*
G01*
G75*
G02X7857Y9455J-71*
G01*
X7915*
G75*
G02X7986Y9526I71*
G01*
G75*
G02X8057Y9455J-71*
G01*
X8115*
G75*
G02X8186Y9526I71*
G01*
G75*
G02X8257Y9455J-71*
G01*
X8315*
G75*
G02X8386Y9526I71*
G01*
G75*
G02X8457Y9455J-71*
G01*
X8515*
G75*
G02X8586Y9526I71*
G01*
G75*
G02X8657Y9455J-71*
G01*
X8707*
Y9947*
X8349*
G75*
G02X8238I-55*
G01*
X8152*
G75*
G02X8041I-55*
G01*
X7561*
G75*
G02X7451I-55*
G01*
X7365*
G75*
G02X7254I-55*
G01*
X6774*
G75*
G02X6663I-55*
G01*
X6577*
G75*
G02X6466I-55*
G01*
X3746*
Y9455*
X3829*
G37*
X3746Y3943D02*
G36*
Y3549D01*
X5797*
G75*
G02X6026I114*
G01*
X6315*
G75*
G02X6386Y3620I71*
G01*
G75*
G02X6457Y3549J-71*
G01*
X6515*
G75*
G02X6586Y3620I71*
G01*
G75*
G02X6657Y3549J-71*
G01*
X6715*
G75*
G02X6786Y3620I71*
G01*
G75*
G02X6857Y3549J-71*
G01*
X6915*
G75*
G02X6986Y3620I71*
G01*
G75*
G02X7057Y3549J-71*
G01*
X7115*
G75*
G02X7186Y3620I71*
G01*
G75*
G02X7257Y3549J-71*
G01*
X7315*
G75*
G02X7386Y3620I71*
G01*
G75*
G02X7457Y3549J-71*
G01*
X7515*
G75*
G02X7586Y3620I71*
G01*
G75*
G02X7657Y3549J-71*
G01*
X7715*
G75*
G02X7786Y3620I71*
G01*
G75*
G02X7857Y3549J-71*
G01*
X7915*
G75*
G02X7986Y3620I71*
G01*
G75*
G02X8057Y3549J-71*
G01*
X8115*
G75*
G02X8186Y3620I71*
G01*
G75*
G02X8257Y3549J-71*
G01*
X8315*
G75*
G02X8386Y3620I71*
G01*
G75*
G02X8457Y3549J-71*
G01*
X8515*
G75*
G02X8586Y3620I71*
G01*
G75*
G02X8657Y3549J-71*
G01*
X8707*
Y3943*
X4415*
G75*
G02X4274Y3802I-141*
G01*
G75*
G02X4133Y3943J141*
G01*
X4090*
G75*
G02X3974Y3827I-116*
G01*
G75*
G02X3858Y3943J116*
G01*
X3746*
G37*
X3858D02*
G36*
G75*
G02X3912Y4041I116D01*
G01*
X3746*
Y3943*
X3858*
G37*
X4133D02*
G36*
G75*
G02X4173Y4041I141J0D01*
G01*
X4035*
G75*
G02X4090Y3943I-61J-98*
G01*
X4133*
G37*
X8707D02*
G36*
Y4041D01*
X8349*
G75*
G02X8238I-55*
G01*
X8152*
G75*
G02X8041I-55*
G01*
X7561*
G75*
G02X7451I-55*
G01*
X7365*
G75*
G02X7254I-55*
G01*
X6774*
G75*
G02X6663I-55*
G01*
X6577*
G75*
G02X6466I-55*
G01*
X4375*
G75*
G02X4415Y3943I-101J-98*
G01*
X8707*
G37*
X3746Y8143D02*
G36*
Y7782D01*
X6466*
G75*
G02X6577I55*
G01*
X6663*
G75*
G02X6774I55*
G01*
X7451*
G75*
G02X7561I55*
G01*
X8041*
G75*
G02X8152I55*
G01*
X8707*
Y8143*
X4415*
G75*
G02X4274Y8002I-141*
G01*
G75*
G02X4133Y8143J141*
G01*
X4090*
G75*
G02X3974Y8027I-116*
G01*
G75*
G02X3858Y8143J116*
G01*
X3746*
G37*
X3858D02*
G36*
G75*
G02X3974Y8259I116D01*
G01*
G75*
G02X4090Y8143J-116*
G01*
X4133*
G75*
G02X4221Y8274I141*
G01*
X3746*
Y8143*
X3858*
G37*
X8707D02*
G36*
Y8274D01*
X8657*
G75*
G02X8586Y8203I-71*
G01*
G75*
G02X8515Y8274J71*
G01*
X8457*
G75*
G02X8386Y8203I-71*
G01*
G75*
G02X8315Y8274J71*
G01*
X8257*
G75*
G02X8186Y8203I-71*
G01*
G75*
G02X8115Y8274J71*
G01*
X8057*
G75*
G02X7986Y8203I-71*
G01*
G75*
G02X7915Y8274J71*
G01*
X7857*
G75*
G02X7786Y8203I-71*
G01*
G75*
G02X7715Y8274J71*
G01*
X7657*
G75*
G02X7586Y8203I-71*
G01*
G75*
G02X7515Y8274J71*
G01*
X7457*
G75*
G02X7386Y8203I-71*
G01*
G75*
G02X7315Y8274J71*
G01*
X7257*
G75*
G02X7186Y8203I-71*
G01*
G75*
G02X7115Y8274J71*
G01*
X7057*
G75*
G02X6986Y8203I-71*
G01*
G75*
G02X6915Y8274J71*
G01*
X6857*
G75*
G02X6786Y8203I-71*
G01*
G75*
G02X6715Y8274J71*
G01*
X6657*
G75*
G02X6586Y8203I-71*
G01*
G75*
G02X6515Y8274J71*
G01*
X6457*
G75*
G02X6386Y8203I-71*
G01*
G75*
G02X6315Y8274J71*
G01*
X6026*
G75*
G02X5797I-114*
G01*
X4327*
G75*
G02X4415Y8143I-53J-131*
G01*
X8707*
G37*
X3746Y1171D02*
G36*
Y1069D01*
X4161*
G75*
G02X4117Y1171I97J102*
G01*
X3746*
G37*
X4117D02*
G36*
G75*
G02X4214Y1305I141D01*
G01*
X3746*
Y1171*
X4117*
G37*
X4399D02*
G36*
G75*
G02X4355Y1069I-141D01*
G01*
X5147*
G75*
G02X5219I36*
G01*
X8707*
Y1171*
X8656*
G75*
G02X8586Y1116I-69J16*
G01*
G75*
G02X8517Y1171J71*
G01*
X8456*
G75*
G02X8386Y1116I-69J16*
G01*
G75*
G02X8317Y1171J71*
G01*
X8256*
G75*
G02X8186Y1116I-69J16*
G01*
G75*
G02X8117Y1171J71*
G01*
X8056*
G75*
G02X7986Y1116I-69J16*
G01*
G75*
G02X7917Y1171J71*
G01*
X7856*
G75*
G02X7786Y1116I-69J16*
G01*
G75*
G02X7717Y1171J71*
G01*
X7656*
G75*
G02X7586Y1116I-69J16*
G01*
G75*
G02X7517Y1171J71*
G01*
X7456*
G75*
G02X7386Y1116I-69J16*
G01*
G75*
G02X7317Y1171J71*
G01*
X7256*
G75*
G02X7186Y1116I-69J16*
G01*
G75*
G02X7117Y1171J71*
G01*
X7056*
G75*
G02X6986Y1116I-69J16*
G01*
G75*
G02X6917Y1171J71*
G01*
X6856*
G75*
G02X6786Y1116I-69J16*
G01*
G75*
G02X6717Y1171J71*
G01*
X6656*
G75*
G02X6586Y1116I-69J16*
G01*
G75*
G02X6517Y1171J71*
G01*
X6456*
G75*
G02X6386Y1116I-69J16*
G01*
G75*
G02X6317Y1171J71*
G01*
X6025*
G75*
G02X5798I-113J16*
G01*
X4399*
G37*
X5798D02*
G36*
G75*
G02X5797Y1187I113J16D01*
G01*
G75*
G02X6026I114*
G01*
G75*
G02X6025Y1171I-114J0*
G01*
X6317*
G75*
G02X6386Y1258I69J16*
G01*
G75*
G02X6456Y1171J-71*
G01*
X6517*
G75*
G02X6586Y1258I69J16*
G01*
G75*
G02X6656Y1171J-71*
G01*
X6717*
G75*
G02X6786Y1258I69J16*
G01*
G75*
G02X6856Y1171J-71*
G01*
X6917*
G75*
G02X6986Y1258I69J16*
G01*
G75*
G02X7056Y1171J-71*
G01*
X7117*
G75*
G02X7186Y1258I69J16*
G01*
G75*
G02X7256Y1171J-71*
G01*
X7317*
G75*
G02X7386Y1258I69J16*
G01*
G75*
G02X7456Y1171J-71*
G01*
X7517*
G75*
G02X7586Y1258I69J16*
G01*
G75*
G02X7656Y1171J-71*
G01*
X7717*
G75*
G02X7786Y1258I69J16*
G01*
G75*
G02X7856Y1171J-71*
G01*
X7917*
G75*
G02X7986Y1258I69J16*
G01*
G75*
G02X8056Y1171J-71*
G01*
X8117*
G75*
G02X8186Y1258I69J16*
G01*
G75*
G02X8256Y1171J-71*
G01*
X8317*
G75*
G02X8386Y1258I69J16*
G01*
G75*
G02X8456Y1171J-71*
G01*
X8517*
G75*
G02X8586Y1258I69J16*
G01*
G75*
G02X8656Y1171J-71*
G01*
X8707*
Y1305*
X5219*
G75*
G02X5147I-36*
G01*
X4302*
G75*
G02X4399Y1171I-44J-134*
G01*
X5798*
G37*
X3746Y3171D02*
G36*
Y3057D01*
X4175*
G75*
G02X4117Y3171I83J114*
G01*
X3746*
G37*
X4117D02*
G36*
G75*
G02X4399I141D01*
G01*
X8707*
Y3549*
X8657*
G75*
G02X8586Y3478I-71*
G01*
G75*
G02X8515Y3549J71*
G01*
X8457*
G75*
G02X8386Y3478I-71*
G01*
G75*
G02X8315Y3549J71*
G01*
X8257*
G75*
G02X8186Y3478I-71*
G01*
G75*
G02X8115Y3549J71*
G01*
X8057*
G75*
G02X7986Y3478I-71*
G01*
G75*
G02X7915Y3549J71*
G01*
X7857*
G75*
G02X7786Y3478I-71*
G01*
G75*
G02X7715Y3549J71*
G01*
X7657*
G75*
G02X7586Y3478I-71*
G01*
G75*
G02X7515Y3549J71*
G01*
X7457*
G75*
G02X7386Y3478I-71*
G01*
G75*
G02X7315Y3549J71*
G01*
X7257*
G75*
G02X7186Y3478I-71*
G01*
G75*
G02X7115Y3549J71*
G01*
X7057*
G75*
G02X6986Y3478I-71*
G01*
G75*
G02X6915Y3549J71*
G01*
X6857*
G75*
G02X6786Y3478I-71*
G01*
G75*
G02X6715Y3549J71*
G01*
X6657*
G75*
G02X6586Y3478I-71*
G01*
G75*
G02X6515Y3549J71*
G01*
X6457*
G75*
G02X6386Y3478I-71*
G01*
G75*
G02X6315Y3549J71*
G01*
X6026*
G75*
G02X5797I-114*
G01*
X3746*
Y3171*
X4117*
G37*
X4399D02*
G36*
G75*
G02X4341Y3057I-141D01*
G01*
X6466*
G75*
G02X6577I55*
G01*
X6663*
G75*
G02X6774I55*
G01*
X7451*
G75*
G02X7561I55*
G01*
X8041*
G75*
G02X8152I55*
G01*
X8707*
Y3171*
X4399*
G37*
X3746Y10423D02*
G36*
Y10360D01*
X4132*
G75*
G02X4117Y10423I126J63*
G01*
X3746*
G37*
X4117D02*
G36*
G75*
G02X4399I141D01*
G01*
X8707*
Y10597*
X8645*
G75*
G02X8586Y10565I-59J39*
G01*
G75*
G02X8527Y10597J71*
G01*
X8445*
G75*
G02X8386Y10565I-59J39*
G01*
G75*
G02X8327Y10597J71*
G01*
X8245*
G75*
G02X8186Y10565I-59J39*
G01*
G75*
G02X8127Y10597J71*
G01*
X8045*
G75*
G02X7986Y10565I-59J39*
G01*
G75*
G02X7927Y10597J71*
G01*
X7845*
G75*
G02X7786Y10565I-59J39*
G01*
G75*
G02X7727Y10597J71*
G01*
X7645*
G75*
G02X7586Y10565I-59J39*
G01*
G75*
G02X7527Y10597J71*
G01*
X7445*
G75*
G02X7386Y10565I-59J39*
G01*
G75*
G02X7327Y10597J71*
G01*
X7245*
G75*
G02X7186Y10565I-59J39*
G01*
G75*
G02X7127Y10597J71*
G01*
X7045*
G75*
G02X6986Y10565I-59J39*
G01*
G75*
G02X6927Y10597J71*
G01*
X6845*
G75*
G02X6786Y10565I-59J39*
G01*
G75*
G02X6727Y10597J71*
G01*
X6645*
G75*
G02X6586Y10565I-59J39*
G01*
G75*
G02X6527Y10597J71*
G01*
X6445*
G75*
G02X6386Y10565I-59J39*
G01*
G75*
G02X6327Y10597J71*
G01*
X6019*
G75*
G02X5804I-107J39*
G01*
X4786*
G75*
G02X4714I-36*
G01*
X3746*
Y10423*
X4117*
G37*
X4399D02*
G36*
G75*
G02X4384Y10360I-141J0D01*
G01*
X4714*
G75*
G02X4786I36*
G01*
X8707*
Y10423*
X4399*
G37*
X3746Y12423D02*
G36*
Y12349D01*
X4138*
G75*
G02X4117Y12423I120J75*
G01*
X3746*
G37*
X4117D02*
G36*
G75*
G02X4144Y12506I141D01*
G01*
X3746*
Y12423*
X4117*
G37*
X4399D02*
G36*
G75*
G02X4377Y12349I-141J0D01*
G01*
X4714*
G75*
G02X4786I36*
G01*
X6483*
G75*
G02X6561I39J-39*
G01*
X6680*
G75*
G02X6758I39J-39*
G01*
X7270*
G75*
G02X7348I39J-39*
G01*
X7467*
G75*
G02X7545I39J-39*
G01*
X8058*
G75*
G02X8135I39J-39*
G01*
X8254*
G75*
G02X8332I39J-39*
G01*
X8707*
Y12423*
X8445*
G75*
G02X8447Y12408I-53J-16*
G01*
G75*
G02X8336I-55*
G01*
G75*
G02X8339Y12423I55*
G01*
X8248*
G75*
G02X8250Y12408I-53J-16*
G01*
G75*
G02X8140I-55*
G01*
G75*
G02X8142Y12423I55*
G01*
X7658*
G75*
G02X7660Y12408I-53J-16*
G01*
G75*
G02X7549I-55*
G01*
G75*
G02X7551Y12423I55*
G01*
X7461*
G75*
G02X7463Y12408I-53J-16*
G01*
G75*
G02X7352I-55*
G01*
G75*
G02X7354Y12423I55*
G01*
X6870*
G75*
G02X6872Y12408I-53J-16*
G01*
G75*
G02X6762I-55*
G01*
G75*
G02X6764Y12423I55*
G01*
X6673*
G75*
G02X6676Y12408I-53J-16*
G01*
G75*
G02X6565I-55*
G01*
G75*
G02X6567Y12423I55*
G01*
X4399*
G37*
X6567D02*
G36*
G75*
G02X6673I53J-16D01*
G01*
X6764*
G75*
G02X6870I53J-16*
G01*
X7354*
G75*
G02X7461I53J-16*
G01*
X7551*
G75*
G02X7658I53J-16*
G01*
X8142*
G75*
G02X8248I53J-16*
G01*
X8339*
G75*
G02X8445I53J-16*
G01*
X8707*
Y12506*
X8152*
G75*
G02X8041I-55*
G01*
X7561*
G75*
G02X7451I-55*
G01*
X6774*
G75*
G02X6663I-55*
G01*
X6577*
G75*
G02X6466I-55*
G01*
X4372*
G75*
G02X4399Y12423I-114J-83*
G01*
X6567*
G37*
X3746Y1471D02*
G36*
Y1305D01*
X4214*
G75*
G02X4302I44J-134*
G01*
X5147*
G75*
G02X5219I36*
G01*
X8707*
Y1471*
X4374*
G75*
G02X4142I-116*
G01*
X3746*
G37*
X4142D02*
G36*
G75*
G02X4166Y1541I116J0D01*
G01*
X3746*
Y1471*
X4142*
G37*
X8707D02*
G36*
Y1541D01*
X5219*
G75*
G02X5147I-36*
G01*
X4350*
G75*
G02X4374Y1471I-92J-70*
G01*
X8707*
G37*
X3746Y12123D02*
G36*
Y11876D01*
X4714*
G75*
G02X4786I36*
G01*
X5814*
G75*
G02X6010I98J-59*
G01*
X6347*
G75*
G02X6386Y11888I39J-59*
G01*
G75*
G02X6426Y11876J-71*
G01*
X6547*
G75*
G02X6586Y11888I39J-59*
G01*
G75*
G02X6626Y11876J-71*
G01*
X6747*
G75*
G02X6786Y11888I39J-59*
G01*
G75*
G02X6826Y11876J-71*
G01*
X6947*
G75*
G02X6986Y11888I39J-59*
G01*
G75*
G02X7026Y11876J-71*
G01*
X7147*
G75*
G02X7186Y11888I39J-59*
G01*
G75*
G02X7226Y11876J-71*
G01*
X7347*
G75*
G02X7386Y11888I39J-59*
G01*
G75*
G02X7426Y11876J-71*
G01*
X7547*
G75*
G02X7586Y11888I39J-59*
G01*
G75*
G02X7626Y11876J-71*
G01*
X7747*
G75*
G02X7786Y11888I39J-59*
G01*
G75*
G02X7826Y11876J-71*
G01*
X7947*
G75*
G02X7986Y11888I39J-59*
G01*
G75*
G02X8026Y11876J-71*
G01*
X8147*
G75*
G02X8186Y11888I39J-59*
G01*
G75*
G02X8226Y11876J-71*
G01*
X8347*
G75*
G02X8386Y11888I39J-59*
G01*
G75*
G02X8426Y11876J-71*
G01*
X8547*
G75*
G02X8586Y11888I39J-59*
G01*
G75*
G02X8626Y11876J-71*
G01*
X8707*
Y12123*
X4784*
G75*
G02X4786Y12112I-34J-11*
G01*
G75*
G02X4714I-36*
G01*
G75*
G02X4716Y12123I36J0*
G01*
X4374*
G75*
G02X4142I-116*
G01*
X3746*
G37*
X4142D02*
G36*
G75*
G02X4374I116D01*
G01*
X4716*
G75*
G02X4784I34J-11*
G01*
X8707*
Y12349*
X8332*
G75*
G02X8349Y12309I-39J-39*
G01*
G75*
G02X8238I-55*
G01*
G75*
G02X8254Y12349I55*
G01*
X8135*
G75*
G02X8152Y12309I-39J-39*
G01*
G75*
G02X8041I-55*
G01*
G75*
G02X8058Y12349I55*
G01*
X7545*
G75*
G02X7561Y12309I-39J-39*
G01*
G75*
G02X7451I-55*
G01*
G75*
G02X7467Y12349I55*
G01*
X7348*
G75*
G02X7365Y12309I-39J-39*
G01*
G75*
G02X7254I-55*
G01*
G75*
G02X7270Y12349I55*
G01*
X6758*
G75*
G02X6774Y12309I-39J-39*
G01*
G75*
G02X6663I-55*
G01*
G75*
G02X6680Y12349I55*
G01*
X6561*
G75*
G02X6577Y12309I-39J-39*
G01*
G75*
G02X6466I-55*
G01*
G75*
G02X6483Y12349I55*
G01*
X4786*
G75*
G02X4714I-36*
G01*
X4377*
G75*
G02X4138I-120J75*
G01*
X3746*
Y12123*
X4142*
G37*
X3746Y1871D02*
G36*
Y1778D01*
X6565*
G75*
G02X6676I55*
G01*
X6762*
G75*
G02X6872I55*
G01*
X7352*
G75*
G02X7463I55*
G01*
X7549*
G75*
G02X7660I55*
G01*
X8140*
G75*
G02X8250I55*
G01*
X8336*
G75*
G02X8447I55*
G01*
X8707*
Y1871*
X8152*
G75*
G02X8041I-55J5*
G01*
X7561*
G75*
G02X7451I-55J5*
G01*
X6774*
G75*
G02X6663I-55J5*
G01*
X6577*
G75*
G02X6467I-55J5*
G01*
X4314*
G75*
G02X4202I-56*
G01*
X3746*
G37*
X4202D02*
G36*
G75*
G02X4314I56D01*
G01*
X6467*
G75*
G02X6466Y1876I55J5*
G01*
G75*
G02X6577I55*
G01*
G75*
G02X6577Y1871I-55J0*
G01*
X6663*
G75*
G02X6663Y1876I55J5*
G01*
G75*
G02X6774I55*
G01*
G75*
G02X6774Y1871I-55J0*
G01*
X7451*
G75*
G02X7451Y1876I55J5*
G01*
G75*
G02X7561I55*
G01*
G75*
G02X7561Y1871I-55J0*
G01*
X8041*
G75*
G02X8041Y1876I55J5*
G01*
G75*
G02X8152I55*
G01*
G75*
G02X8152Y1871I-55J0*
G01*
X8707*
Y2171*
X4314*
G75*
G02X4202I-56*
G01*
X3746*
Y1871*
X4202*
G37*
Y2171D02*
G36*
G75*
G02X4314I56D01*
G01*
X8707*
Y2368*
X8657*
G75*
G02X8586Y2297I-71*
G01*
G75*
G02X8515Y2368J71*
G01*
X8457*
G75*
G02X8386Y2297I-71*
G01*
G75*
G02X8315Y2368J71*
G01*
X8257*
G75*
G02X8186Y2297I-71*
G01*
G75*
G02X8115Y2368J71*
G01*
X8057*
G75*
G02X7986Y2297I-71*
G01*
G75*
G02X7915Y2368J71*
G01*
X7857*
G75*
G02X7786Y2297I-71*
G01*
G75*
G02X7715Y2368J71*
G01*
X7657*
G75*
G02X7586Y2297I-71*
G01*
G75*
G02X7515Y2368J71*
G01*
X7457*
G75*
G02X7386Y2297I-71*
G01*
G75*
G02X7315Y2368J71*
G01*
X7257*
G75*
G02X7186Y2297I-71*
G01*
G75*
G02X7115Y2368J71*
G01*
X7057*
G75*
G02X6986Y2297I-71*
G01*
G75*
G02X6915Y2368J71*
G01*
X6857*
G75*
G02X6786Y2297I-71*
G01*
G75*
G02X6715Y2368J71*
G01*
X6657*
G75*
G02X6586Y2297I-71*
G01*
G75*
G02X6515Y2368J71*
G01*
X6457*
G75*
G02X6386Y2297I-71*
G01*
G75*
G02X6315Y2368J71*
G01*
X6026*
G75*
G02X5797I-114*
G01*
X3746*
Y2171*
X4202*
G37*
X3746Y2471D02*
G36*
Y2368D01*
X5797*
G75*
G02X5862Y2471I114*
G01*
X4314*
G75*
G02X4202I-56*
G01*
X3746*
G37*
X4202D02*
G36*
G75*
G02X4244Y2526I56D01*
G01*
X3746*
Y2471*
X4202*
G37*
X5862D02*
G36*
G75*
G02X5961I50J-103D01*
G01*
X8707*
Y2526*
X5219*
G75*
G02X5147I-36*
G01*
X4272*
G75*
G02X4314Y2471I-14J-54*
G01*
X5862*
G37*
X5961D02*
G36*
G75*
G02X6026Y2368I-50J-103D01*
G01*
X6315*
G75*
G02X6386Y2439I71*
G01*
G75*
G02X6457Y2368J-71*
G01*
X6515*
G75*
G02X6586Y2439I71*
G01*
G75*
G02X6657Y2368J-71*
G01*
X6715*
G75*
G02X6786Y2439I71*
G01*
G75*
G02X6857Y2368J-71*
G01*
X6915*
G75*
G02X6986Y2439I71*
G01*
G75*
G02X7057Y2368J-71*
G01*
X7115*
G75*
G02X7186Y2439I71*
G01*
G75*
G02X7257Y2368J-71*
G01*
X7315*
G75*
G02X7386Y2439I71*
G01*
G75*
G02X7457Y2368J-71*
G01*
X7515*
G75*
G02X7586Y2439I71*
G01*
G75*
G02X7657Y2368J-71*
G01*
X7715*
G75*
G02X7786Y2439I71*
G01*
G75*
G02X7857Y2368J-71*
G01*
X7915*
G75*
G02X7986Y2439I71*
G01*
G75*
G02X8057Y2368J-71*
G01*
X8115*
G75*
G02X8186Y2439I71*
G01*
G75*
G02X8257Y2368J-71*
G01*
X8315*
G75*
G02X8386Y2439I71*
G01*
G75*
G02X8457Y2368J-71*
G01*
X8515*
G75*
G02X8586Y2439I71*
G01*
G75*
G02X8657Y2368J-71*
G01*
X8707*
Y2471*
X5961*
G37*
X3746Y11123D02*
G36*
Y10833D01*
X4714*
G75*
G02X4786I36*
G01*
X8707*
Y11123*
X8349*
G75*
G02X8238I-55J5*
G01*
X8152*
G75*
G02X8041I-55J5*
G01*
X7561*
G75*
G02X7451I-55J5*
G01*
X7364*
G75*
G02X7254I-55J5*
G01*
X6774*
G75*
G02X6663I-55J5*
G01*
X6577*
G75*
G02X6467I-55J5*
G01*
X4314*
G75*
G02X4202I-56*
G01*
X3746*
G37*
X4202D02*
G36*
G75*
G02X4314I56D01*
G01*
X6467*
G75*
G02X6466Y11128I55J5*
G01*
G75*
G02X6577I55*
G01*
G75*
G02X6577Y11123I-55J0*
G01*
X6663*
G75*
G02X6663Y11128I55J5*
G01*
G75*
G02X6774I55*
G01*
G75*
G02X6774Y11123I-55J0*
G01*
X7254*
G75*
G02X7254Y11128I55J5*
G01*
G75*
G02X7365I55*
G01*
G75*
G02X7364Y11123I-55J0*
G01*
X7451*
G75*
G02X7451Y11128I55J5*
G01*
G75*
G02X7561I55*
G01*
G75*
G02X7561Y11123I-55J0*
G01*
X8041*
G75*
G02X8041Y11128I55J5*
G01*
G75*
G02X8152I55*
G01*
G75*
G02X8152Y11123I-55J0*
G01*
X8238*
G75*
G02X8238Y11128I55J5*
G01*
G75*
G02X8349I55*
G01*
G75*
G02X8349Y11123I-55J0*
G01*
X8707*
Y11226*
X8447*
G75*
G02X8336I-55*
G01*
X8250*
G75*
G02X8140I-55*
G01*
X7660*
G75*
G02X7549I-55*
G01*
X7463*
G75*
G02X7352I-55*
G01*
X6872*
G75*
G02X6762I-55*
G01*
X6676*
G75*
G02X6565I-55*
G01*
X3746*
Y11123*
X4202*
G37*
X3746Y11423D02*
G36*
Y11325D01*
X6466*
G75*
G02X6577I55*
G01*
X6663*
G75*
G02X6774I55*
G01*
X7451*
G75*
G02X7561I55*
G01*
X8041*
G75*
G02X8152I55*
G01*
X8707*
Y11423*
X4314*
G75*
G02X4202I-56*
G01*
X3746*
G37*
X4202D02*
G36*
G75*
G02X4314I56D01*
G01*
X8707*
Y11723*
X5977*
G75*
G02X5846I-66J94*
G01*
X4314*
G75*
G02X4202I-56*
G01*
X3746*
Y11423*
X4202*
G37*
Y11723D02*
G36*
G75*
G02X4314I56D01*
G01*
X5846*
G75*
G02X5797Y11817I66J94*
G01*
G75*
G02X5814Y11876I114*
G01*
X4786*
G75*
G02X4714I-36*
G01*
X3746*
Y11723*
X4202*
G37*
X8707D02*
G36*
Y11876D01*
X8626*
G75*
G02X8586Y11746I-39J-59*
G01*
G75*
G02X8547Y11876J71*
G01*
X8426*
G75*
G02X8386Y11746I-39J-59*
G01*
G75*
G02X8347Y11876J71*
G01*
X8226*
G75*
G02X8186Y11746I-39J-59*
G01*
G75*
G02X8147Y11876J71*
G01*
X8026*
G75*
G02X7986Y11746I-39J-59*
G01*
G75*
G02X7947Y11876J71*
G01*
X7826*
G75*
G02X7786Y11746I-39J-59*
G01*
G75*
G02X7747Y11876J71*
G01*
X7626*
G75*
G02X7586Y11746I-39J-59*
G01*
G75*
G02X7547Y11876J71*
G01*
X7426*
G75*
G02X7386Y11746I-39J-59*
G01*
G75*
G02X7347Y11876J71*
G01*
X7226*
G75*
G02X7186Y11746I-39J-59*
G01*
G75*
G02X7147Y11876J71*
G01*
X7026*
G75*
G02X6986Y11746I-39J-59*
G01*
G75*
G02X6947Y11876J71*
G01*
X6826*
G75*
G02X6786Y11746I-39J-59*
G01*
G75*
G02X6747Y11876J71*
G01*
X6626*
G75*
G02X6586Y11746I-39J-59*
G01*
G75*
G02X6547Y11876J71*
G01*
X6426*
G75*
G02X6386Y11746I-39J-59*
G01*
G75*
G02X6347Y11876J71*
G01*
X6010*
G75*
G02X6026Y11817I-98J-59*
G01*
G75*
G02X5977Y11723I-114*
G01*
X8707*
G37*
X3746Y400D02*
G36*
Y85D01*
X8707*
Y400*
X4845*
G75*
G02X4616I-114*
G01*
X3746*
G37*
X4616D02*
G36*
G75*
G02X4845I114D01*
G01*
X8707*
Y1069*
X5219*
G75*
G02X5147I-36*
G01*
X4355*
G75*
G02X4161I-97J102*
G01*
X3746*
Y400*
X4616*
G37*
X3746Y4435D02*
G36*
Y4238D01*
X6466*
G75*
G02X6577I55*
G01*
X6663*
G75*
G02X6774I55*
G01*
X7451*
G75*
G02X7561I55*
G01*
X8041*
G75*
G02X8152I55*
G01*
X8707*
Y4435*
X5168*
G75*
G02X5096I-36*
G01*
X4735*
G75*
G02X4663I-36*
G01*
X3746*
G37*
X4663D02*
G36*
G75*
G02X4735I36D01*
G01*
X5096*
G75*
G02X5168I36*
G01*
X8707*
Y4671*
X8626*
G75*
G02X8586Y4659I-39J59*
G01*
G75*
G02X8547Y4671J71*
G01*
X8426*
G75*
G02X8386Y4659I-39J59*
G01*
G75*
G02X8347Y4671J71*
G01*
X8226*
G75*
G02X8186Y4659I-39J59*
G01*
G75*
G02X8147Y4671J71*
G01*
X8026*
G75*
G02X7986Y4659I-39J59*
G01*
G75*
G02X7947Y4671J71*
G01*
X7826*
G75*
G02X7786Y4659I-39J59*
G01*
G75*
G02X7747Y4671J71*
G01*
X7626*
G75*
G02X7586Y4659I-39J59*
G01*
G75*
G02X7547Y4671J71*
G01*
X7426*
G75*
G02X7386Y4659I-39J59*
G01*
G75*
G02X7347Y4671J71*
G01*
X7226*
G75*
G02X7186Y4659I-39J59*
G01*
G75*
G02X7147Y4671J71*
G01*
X7026*
G75*
G02X6986Y4659I-39J59*
G01*
G75*
G02X6947Y4671J71*
G01*
X6826*
G75*
G02X6786Y4659I-39J59*
G01*
G75*
G02X6747Y4671J71*
G01*
X6626*
G75*
G02X6586Y4659I-39J59*
G01*
G75*
G02X6547Y4671J71*
G01*
X6426*
G75*
G02X6386Y4659I-39J59*
G01*
G75*
G02X6347Y4671J71*
G01*
X6010*
G75*
G02X5814I-98J59*
G01*
X5168*
G75*
G02X5096I-36*
G01*
X4735*
G75*
G02X4663I-36*
G01*
X3746*
Y4435*
X4663*
G37*
Y4671D02*
G36*
G75*
G02X4735I36D01*
G01*
X5096*
G75*
G02X5168I36*
G01*
X5814*
G75*
G02X5797Y4730I98J59*
G01*
G75*
G02X6026I114*
G01*
G75*
G02X6010Y4671I-114*
G01*
X6347*
G75*
G02X6386Y4801I39J59*
G01*
G75*
G02X6426Y4671J-71*
G01*
X6547*
G75*
G02X6586Y4801I39J59*
G01*
G75*
G02X6626Y4671J-71*
G01*
X6747*
G75*
G02X6786Y4801I39J59*
G01*
G75*
G02X6826Y4671J-71*
G01*
X6947*
G75*
G02X6986Y4801I39J59*
G01*
G75*
G02X7026Y4671J-71*
G01*
X7147*
G75*
G02X7186Y4801I39J59*
G01*
G75*
G02X7226Y4671J-71*
G01*
X7347*
G75*
G02X7386Y4801I39J59*
G01*
G75*
G02X7426Y4671J-71*
G01*
X7547*
G75*
G02X7586Y4801I39J59*
G01*
G75*
G02X7626Y4671J-71*
G01*
X7747*
G75*
G02X7786Y4801I39J59*
G01*
G75*
G02X7826Y4671J-71*
G01*
X7947*
G75*
G02X7986Y4801I39J59*
G01*
G75*
G02X8026Y4671J-71*
G01*
X8147*
G75*
G02X8186Y4801I39J59*
G01*
G75*
G02X8226Y4671J-71*
G01*
X8347*
G75*
G02X8386Y4801I39J59*
G01*
G75*
G02X8426Y4671J-71*
G01*
X8547*
G75*
G02X8586Y4801I39J59*
G01*
G75*
G02X8626Y4671J-71*
G01*
X8707*
Y4908*
X5168*
G75*
G02X5096I-36*
G01*
X4735*
G75*
G02X4663I-36*
G01*
X3746*
Y4671*
X4663*
G37*
Y4908D02*
G36*
G75*
G02X4735I36D01*
G01*
X5096*
G75*
G02X5168I36*
G01*
X8707*
Y5223*
X8349*
G75*
G02X8238I-55*
G01*
X8152*
G75*
G02X8041I-55*
G01*
X7561*
G75*
G02X7451I-55*
G01*
X7365*
G75*
G02X7254I-55*
G01*
X6774*
G75*
G02X6663I-55*
G01*
X6577*
G75*
G02X6466I-55*
G01*
X3746*
Y4908*
X4663*
G37*
X3746Y6030D02*
G36*
Y5912D01*
X5797*
G75*
G02X6026I114*
G01*
X6315*
G75*
G02X6386Y5983I71*
G01*
G75*
G02X6457Y5912J-71*
G01*
X6515*
G75*
G02X6586Y5983I71*
G01*
G75*
G02X6657Y5912J-71*
G01*
X6715*
G75*
G02X6786Y5983I71*
G01*
G75*
G02X6857Y5912J-71*
G01*
X6915*
G75*
G02X6986Y5983I71*
G01*
G75*
G02X7057Y5912J-71*
G01*
X7115*
G75*
G02X7186Y5983I71*
G01*
G75*
G02X7257Y5912J-71*
G01*
X7315*
G75*
G02X7386Y5983I71*
G01*
G75*
G02X7457Y5912J-71*
G01*
X7515*
G75*
G02X7586Y5983I71*
G01*
G75*
G02X7657Y5912J-71*
G01*
X7715*
G75*
G02X7786Y5983I71*
G01*
G75*
G02X7857Y5912J-71*
G01*
X7915*
G75*
G02X7986Y5983I71*
G01*
G75*
G02X8057Y5912J-71*
G01*
X8115*
G75*
G02X8186Y5983I71*
G01*
G75*
G02X8257Y5912J-71*
G01*
X8315*
G75*
G02X8386Y5983I71*
G01*
G75*
G02X8457Y5912J-71*
G01*
X8515*
G75*
G02X8586Y5983I71*
G01*
G75*
G02X8657Y5912J-71*
G01*
X8707*
Y6030*
X5168*
G75*
G02X5096I-36*
G01*
X4735*
G75*
G02X4663I-36*
G01*
X3746*
G37*
X4663D02*
G36*
G75*
G02X4735I36D01*
G01*
X5096*
G75*
G02X5168I36*
G01*
X8707*
Y6266*
X5168*
G75*
G02X5096I-36*
G01*
X4735*
G75*
G02X4663I-36*
G01*
X3746*
Y6030*
X4663*
G37*
Y6266D02*
G36*
G75*
G02X4735I36D01*
G01*
X5096*
G75*
G02X5168I36*
G01*
X8707*
Y6404*
X8349*
G75*
G02X8238I-55*
G01*
X8152*
G75*
G02X8041I-55*
G01*
X7561*
G75*
G02X7451I-55*
G01*
X7365*
G75*
G02X7254I-55*
G01*
X6774*
G75*
G02X6663I-55*
G01*
X6577*
G75*
G02X6466I-55*
G01*
X3746*
Y6266*
X4663*
G37*
X3746Y6502D02*
G36*
Y6404D01*
X6466*
G75*
G02X6577I55*
G01*
X6663*
G75*
G02X6774I55*
G01*
X7254*
G75*
G02X7365I55*
G01*
X7451*
G75*
G02X7561I55*
G01*
X8041*
G75*
G02X8152I55*
G01*
X8238*
G75*
G02X8349I55*
G01*
X8707*
Y6502*
X8447*
G75*
G02X8336I-55*
G01*
X8250*
G75*
G02X8140I-55*
G01*
X7660*
G75*
G02X7549I-55*
G01*
X7463*
G75*
G02X7352I-55*
G01*
X6872*
G75*
G02X6762I-55*
G01*
X6676*
G75*
G02X6565I-55*
G01*
X5168*
G75*
G02X5096I-36*
G01*
X4735*
G75*
G02X4663I-36*
G01*
X3746*
G37*
X4663D02*
G36*
G75*
G02X4735I36D01*
G01*
X5096*
G75*
G02X5168I36*
G01*
X6565*
G75*
G02X6676I55*
G01*
X6762*
G75*
G02X6872I55*
G01*
X7352*
G75*
G02X7463I55*
G01*
X7549*
G75*
G02X7660I55*
G01*
X8140*
G75*
G02X8250I55*
G01*
X8336*
G75*
G02X8447I55*
G01*
X8707*
Y6600*
X8152*
G75*
G02X8041I-55*
G01*
X7561*
G75*
G02X7451I-55*
G01*
X6774*
G75*
G02X6663I-55*
G01*
X6577*
G75*
G02X6466I-55*
G01*
X3746*
Y6502*
X4663*
G37*
X3746Y10360D02*
G36*
Y10144D01*
X6466*
G75*
G02X6577I55*
G01*
X6663*
G75*
G02X6774I55*
G01*
X7451*
G75*
G02X7561I55*
G01*
X8041*
G75*
G02X8152I55*
G01*
X8707*
Y10360*
X4786*
G75*
G02X4714I-36*
G01*
X4384*
G75*
G02X4132I-126J63*
G01*
X3746*
G37*
X4714Y10597D02*
G36*
G75*
G02X4786I36D01*
G01*
X5804*
G75*
G02X5797Y10636I107J39*
G01*
G75*
G02X6026I114*
G01*
G75*
G02X6019Y10597I-114J0*
G01*
X6327*
G75*
G02X6386Y10707I59J39*
G01*
G75*
G02X6445Y10597J-71*
G01*
X6527*
G75*
G02X6586Y10707I59J39*
G01*
G75*
G02X6645Y10597J-71*
G01*
X6727*
G75*
G02X6786Y10707I59J39*
G01*
G75*
G02X6845Y10597J-71*
G01*
X6927*
G75*
G02X6986Y10707I59J39*
G01*
G75*
G02X7045Y10597J-71*
G01*
X7127*
G75*
G02X7186Y10707I59J39*
G01*
G75*
G02X7245Y10597J-71*
G01*
X7327*
G75*
G02X7386Y10707I59J39*
G01*
G75*
G02X7445Y10597J-71*
G01*
X7527*
G75*
G02X7586Y10707I59J39*
G01*
G75*
G02X7645Y10597J-71*
G01*
X7727*
G75*
G02X7786Y10707I59J39*
G01*
G75*
G02X7845Y10597J-71*
G01*
X7927*
G75*
G02X7986Y10707I59J39*
G01*
G75*
G02X8045Y10597J-71*
G01*
X8127*
G75*
G02X8186Y10707I59J39*
G01*
G75*
G02X8245Y10597J-71*
G01*
X8327*
G75*
G02X8386Y10707I59J39*
G01*
G75*
G02X8445Y10597J-71*
G01*
X8527*
G75*
G02X8586Y10707I59J39*
G01*
G75*
G02X8645Y10597J-71*
G01*
X8707*
Y10833*
X4786*
G75*
G02X4714I-36*
G01*
X3746*
Y10597*
X4714*
G37*
X4166Y1541D02*
G36*
G75*
G02X4350I92J-70D01*
G01*
X5147*
G75*
G02X5219I36*
G01*
X8707*
Y1679*
X8349*
G75*
G02X8238I-55*
G01*
X8152*
G75*
G02X8041I-55*
G01*
X7561*
G75*
G02X7451I-55*
G01*
X7365*
G75*
G02X7254I-55*
G01*
X6774*
G75*
G02X6663I-55*
G01*
X6577*
G75*
G02X6466I-55*
G01*
X3746*
Y1541*
X4166*
G37*
X4244Y2526D02*
G36*
G75*
G02X4272I14J-54D01*
G01*
X5147*
G75*
G02X5219I36*
G01*
X8707*
Y2762*
X5219*
G75*
G02X5147I-36*
G01*
X3746*
Y2526*
X4244*
G37*
X5147Y2762D02*
G36*
G75*
G02X5219I36D01*
G01*
X8707*
Y2860*
X8349*
G75*
G02X8238I-55*
G01*
X8152*
G75*
G02X8041I-55*
G01*
X7561*
G75*
G02X7451I-55*
G01*
X7365*
G75*
G02X7254I-55*
G01*
X6774*
G75*
G02X6663I-55*
G01*
X6577*
G75*
G02X6466I-55*
G01*
X3746*
Y2762*
X5147*
G37*
X3746Y2998D02*
G36*
Y2860D01*
X6466*
G75*
G02X6577I55*
G01*
X6663*
G75*
G02X6774I55*
G01*
X7254*
G75*
G02X7365I55*
G01*
X7451*
G75*
G02X7561I55*
G01*
X8041*
G75*
G02X8152I55*
G01*
X8238*
G75*
G02X8349I55*
G01*
X8707*
Y2998*
X8431*
G75*
G02X8447Y2959I-39J-39*
G01*
G75*
G02X8336I-55*
G01*
G75*
G02X8353Y2998I55*
G01*
X8234*
G75*
G02X8250Y2959I-39J-39*
G01*
G75*
G02X8140I-55*
G01*
G75*
G02X8156Y2998I55*
G01*
X7643*
G75*
G02X7660Y2959I-39J-39*
G01*
G75*
G02X7549I-55*
G01*
G75*
G02X7565Y2998I55*
G01*
X7447*
G75*
G02X7463Y2959I-39J-39*
G01*
G75*
G02X7352I-55*
G01*
G75*
G02X7369Y2998I55*
G01*
X6856*
G75*
G02X6872Y2959I-39J-39*
G01*
G75*
G02X6762I-55*
G01*
G75*
G02X6778Y2998I55*
G01*
X6659*
G75*
G02X6676Y2959I-39J-39*
G01*
G75*
G02X6565I-55*
G01*
G75*
G02X6581Y2998I55*
G01*
X5219*
G75*
G02X5147I-36*
G01*
X3746*
G37*
X5147D02*
G36*
G75*
G02X5219I36D01*
G01*
X6581*
G75*
G02X6659I39J-39*
G01*
X6778*
G75*
G02X6856I39J-39*
G01*
X7369*
G75*
G02X7447I39J-39*
G01*
X7565*
G75*
G02X7643I39J-39*
G01*
X8156*
G75*
G02X8234I39J-39*
G01*
X8353*
G75*
G02X8431I39J-39*
G01*
X8707*
Y3057*
X8152*
G75*
G02X8041I-55*
G01*
X7561*
G75*
G02X7451I-55*
G01*
X6774*
G75*
G02X6663I-55*
G01*
X6577*
G75*
G02X6466I-55*
G01*
X4341*
G75*
G02X4175I-83J114*
G01*
X3746*
Y2998*
X5147*
G37*
X3746Y5912D02*
G36*
Y5419D01*
X6466*
G75*
G02X6577I55*
G01*
X6663*
G75*
G02X6774I55*
G01*
X7451*
G75*
G02X7561I55*
G01*
X8041*
G75*
G02X8152I55*
G01*
X8707*
Y5912*
X8657*
G75*
G02X8586Y5841I-71*
G01*
G75*
G02X8515Y5912J71*
G01*
X8457*
G75*
G02X8386Y5841I-71*
G01*
G75*
G02X8315Y5912J71*
G01*
X8257*
G75*
G02X8186Y5841I-71*
G01*
G75*
G02X8115Y5912J71*
G01*
X8057*
G75*
G02X7986Y5841I-71*
G01*
G75*
G02X7915Y5912J71*
G01*
X7857*
G75*
G02X7786Y5841I-71*
G01*
G75*
G02X7715Y5912J71*
G01*
X7657*
G75*
G02X7586Y5841I-71*
G01*
G75*
G02X7515Y5912J71*
G01*
X7457*
G75*
G02X7386Y5841I-71*
G01*
G75*
G02X7315Y5912J71*
G01*
X7257*
G75*
G02X7186Y5841I-71*
G01*
G75*
G02X7115Y5912J71*
G01*
X7057*
G75*
G02X6986Y5841I-71*
G01*
G75*
G02X6915Y5912J71*
G01*
X6857*
G75*
G02X6786Y5841I-71*
G01*
G75*
G02X6715Y5912J71*
G01*
X6657*
G75*
G02X6586Y5841I-71*
G01*
G75*
G02X6515Y5912J71*
G01*
X6457*
G75*
G02X6386Y5841I-71*
G01*
G75*
G02X6315Y5912J71*
G01*
X6026*
G75*
G02X5797I-114*
G01*
X3746*
G37*
Y7093D02*
G36*
Y6600D01*
X6466*
G75*
G02X6577I55*
G01*
X6663*
G75*
G02X6774I55*
G01*
X7451*
G75*
G02X7561I55*
G01*
X8041*
G75*
G02X8152I55*
G01*
X8707*
Y7093*
X8657*
G75*
G02X8586Y7022I-71*
G01*
G75*
G02X8515Y7093J71*
G01*
X8457*
G75*
G02X8386Y7022I-71*
G01*
G75*
G02X8315Y7093J71*
G01*
X8257*
G75*
G02X8186Y7022I-71*
G01*
G75*
G02X8115Y7093J71*
G01*
X8057*
G75*
G02X7986Y7022I-71*
G01*
G75*
G02X7915Y7093J71*
G01*
X7857*
G75*
G02X7786Y7022I-71*
G01*
G75*
G02X7715Y7093J71*
G01*
X7657*
G75*
G02X7586Y7022I-71*
G01*
G75*
G02X7515Y7093J71*
G01*
X7457*
G75*
G02X7386Y7022I-71*
G01*
G75*
G02X7315Y7093J71*
G01*
X7257*
G75*
G02X7186Y7022I-71*
G01*
G75*
G02X7115Y7093J71*
G01*
X7057*
G75*
G02X6986Y7022I-71*
G01*
G75*
G02X6915Y7093J71*
G01*
X6857*
G75*
G02X6786Y7022I-71*
G01*
G75*
G02X6715Y7093J71*
G01*
X6657*
G75*
G02X6586Y7022I-71*
G01*
G75*
G02X6515Y7093J71*
G01*
X6457*
G75*
G02X6386Y7022I-71*
G01*
G75*
G02X6315Y7093J71*
G01*
X6026*
G75*
G02X5797I-114*
G01*
X3746*
G37*
X5797D02*
G36*
G75*
G02X6026I114D01*
G01*
X6315*
G75*
G02X6386Y7164I71*
G01*
G75*
G02X6457Y7093J-71*
G01*
X6515*
G75*
G02X6586Y7164I71*
G01*
G75*
G02X6657Y7093J-71*
G01*
X6715*
G75*
G02X6786Y7164I71*
G01*
G75*
G02X6857Y7093J-71*
G01*
X6915*
G75*
G02X6986Y7164I71*
G01*
G75*
G02X7057Y7093J-71*
G01*
X7115*
G75*
G02X7186Y7164I71*
G01*
G75*
G02X7257Y7093J-71*
G01*
X7315*
G75*
G02X7386Y7164I71*
G01*
G75*
G02X7457Y7093J-71*
G01*
X7515*
G75*
G02X7586Y7164I71*
G01*
G75*
G02X7657Y7093J-71*
G01*
X7715*
G75*
G02X7786Y7164I71*
G01*
G75*
G02X7857Y7093J-71*
G01*
X7915*
G75*
G02X7986Y7164I71*
G01*
G75*
G02X8057Y7093J-71*
G01*
X8115*
G75*
G02X8186Y7164I71*
G01*
G75*
G02X8257Y7093J-71*
G01*
X8315*
G75*
G02X8386Y7164I71*
G01*
G75*
G02X8457Y7093J-71*
G01*
X8515*
G75*
G02X8586Y7164I71*
G01*
G75*
G02X8657Y7093J-71*
G01*
X8707*
Y7585*
X8349*
G75*
G02X8238I-55*
G01*
X8152*
G75*
G02X8041I-55*
G01*
X7561*
G75*
G02X7451I-55*
G01*
X7365*
G75*
G02X7254I-55*
G01*
X6774*
G75*
G02X6663I-55*
G01*
X6577*
G75*
G02X6466I-55*
G01*
X3746*
Y7093*
X5797*
G37*
X4221Y8274D02*
G36*
G75*
G02X4274Y8284I53J-131D01*
G01*
G75*
G02X4327Y8274J-141*
G01*
X5797*
G75*
G02X6026I114*
G01*
X6315*
G75*
G02X6386Y8345I71*
G01*
G75*
G02X6457Y8274J-71*
G01*
X6515*
G75*
G02X6586Y8345I71*
G01*
G75*
G02X6657Y8274J-71*
G01*
X6715*
G75*
G02X6786Y8345I71*
G01*
G75*
G02X6857Y8274J-71*
G01*
X6915*
G75*
G02X6986Y8345I71*
G01*
G75*
G02X7057Y8274J-71*
G01*
X7115*
G75*
G02X7186Y8345I71*
G01*
G75*
G02X7257Y8274J-71*
G01*
X7315*
G75*
G02X7386Y8345I71*
G01*
G75*
G02X7457Y8274J-71*
G01*
X7515*
G75*
G02X7586Y8345I71*
G01*
G75*
G02X7657Y8274J-71*
G01*
X7715*
G75*
G02X7786Y8345I71*
G01*
G75*
G02X7857Y8274J-71*
G01*
X7915*
G75*
G02X7986Y8345I71*
G01*
G75*
G02X8057Y8274J-71*
G01*
X8115*
G75*
G02X8186Y8345I71*
G01*
G75*
G02X8257Y8274J-71*
G01*
X8315*
G75*
G02X8386Y8345I71*
G01*
G75*
G02X8457Y8274J-71*
G01*
X8515*
G75*
G02X8586Y8345I71*
G01*
G75*
G02X8657Y8274J-71*
G01*
X8707*
Y8766*
X8349*
G75*
G02X8238I-55*
G01*
X8152*
G75*
G02X8041I-55*
G01*
X7561*
G75*
G02X7451I-55*
G01*
X7365*
G75*
G02X7254I-55*
G01*
X6774*
G75*
G02X6663I-55*
G01*
X6577*
G75*
G02X6466I-55*
G01*
X3746*
Y8274*
X4221*
G37*
X6466Y1679D02*
G36*
G75*
G02X6577I55D01*
G01*
X6663*
G75*
G02X6774I55*
G01*
X7254*
G75*
G02X7365I55*
G01*
X7451*
G75*
G02X7561I55*
G01*
X8041*
G75*
G02X8152I55*
G01*
X8238*
G75*
G02X8349I55*
G01*
X8707*
Y1778*
X8447*
G75*
G02X8336I-55*
G01*
X8250*
G75*
G02X8140I-55*
G01*
X7660*
G75*
G02X7549I-55*
G01*
X7463*
G75*
G02X7352I-55*
G01*
X6872*
G75*
G02X6762I-55*
G01*
X6676*
G75*
G02X6565I-55*
G01*
X3746*
Y1679*
X6466*
G37*
X3912Y4041D02*
G36*
G75*
G02X3974Y4059I61J-98D01*
G01*
G75*
G02X4035Y4041I0J-116*
G01*
X4173*
G75*
G02X4274Y4084I101J-98*
G01*
G75*
G02X4375Y4041J-141*
G01*
X6466*
G75*
G02X6577I55*
G01*
X6663*
G75*
G02X6774I55*
G01*
X7254*
G75*
G02X7365I55*
G01*
X7451*
G75*
G02X7561I55*
G01*
X8041*
G75*
G02X8152I55*
G01*
X8238*
G75*
G02X8349I55*
G01*
X8707*
Y4140*
X8447*
G75*
G02X8336I-55*
G01*
X8250*
G75*
G02X8140I-55*
G01*
X7660*
G75*
G02X7549I-55*
G01*
X7463*
G75*
G02X7352I-55*
G01*
X6872*
G75*
G02X6762I-55*
G01*
X6676*
G75*
G02X6565I-55*
G01*
X3746*
Y4041*
X3912*
G37*
X3746Y4238D02*
G36*
Y4140D01*
X6565*
G75*
G02X6676I55*
G01*
X6762*
G75*
G02X6872I55*
G01*
X7352*
G75*
G02X7463I55*
G01*
X7549*
G75*
G02X7660I55*
G01*
X8140*
G75*
G02X8250I55*
G01*
X8336*
G75*
G02X8447I55*
G01*
X8707*
Y4238*
X8152*
G75*
G02X8041I-55*
G01*
X7561*
G75*
G02X7451I-55*
G01*
X6774*
G75*
G02X6663I-55*
G01*
X6577*
G75*
G02X6466I-55*
G01*
X3746*
G37*
X6466Y5223D02*
G36*
G75*
G02X6577I55D01*
G01*
X6663*
G75*
G02X6774I55*
G01*
X7254*
G75*
G02X7365I55*
G01*
X7451*
G75*
G02X7561I55*
G01*
X8041*
G75*
G02X8152I55*
G01*
X8238*
G75*
G02X8349I55*
G01*
X8707*
Y5321*
X8447*
G75*
G02X8336I-55*
G01*
X8250*
G75*
G02X8140I-55*
G01*
X7660*
G75*
G02X7549I-55*
G01*
X7463*
G75*
G02X7352I-55*
G01*
X6872*
G75*
G02X6762I-55*
G01*
X6676*
G75*
G02X6565I-55*
G01*
X3746*
Y5223*
X6466*
G37*
X3746Y5419D02*
G36*
Y5321D01*
X6565*
G75*
G02X6676I55*
G01*
X6762*
G75*
G02X6872I55*
G01*
X7352*
G75*
G02X7463I55*
G01*
X7549*
G75*
G02X7660I55*
G01*
X8140*
G75*
G02X8250I55*
G01*
X8336*
G75*
G02X8447I55*
G01*
X8707*
Y5419*
X8152*
G75*
G02X8041I-55*
G01*
X7561*
G75*
G02X7451I-55*
G01*
X6774*
G75*
G02X6663I-55*
G01*
X6577*
G75*
G02X6466I-55*
G01*
X3746*
G37*
X6466Y7585D02*
G36*
G75*
G02X6577I55D01*
G01*
X6663*
G75*
G02X6774I55*
G01*
X7254*
G75*
G02X7365I55*
G01*
X7451*
G75*
G02X7561I55*
G01*
X8041*
G75*
G02X8152I55*
G01*
X8238*
G75*
G02X8349I55*
G01*
X8707*
Y7683*
X8447*
G75*
G02X8336I-55*
G01*
X8250*
G75*
G02X8140I-55*
G01*
X7660*
G75*
G02X7549I-55*
G01*
X7463*
G75*
G02X7352I-55*
G01*
X6872*
G75*
G02X6762I-55*
G01*
X6676*
G75*
G02X6565I-55*
G01*
X3746*
Y7585*
X6466*
G37*
X3746Y7782D02*
G36*
Y7683D01*
X6565*
G75*
G02X6676I55*
G01*
X6762*
G75*
G02X6872I55*
G01*
X7352*
G75*
G02X7463I55*
G01*
X7549*
G75*
G02X7660I55*
G01*
X8140*
G75*
G02X8250I55*
G01*
X8336*
G75*
G02X8447I55*
G01*
X8707*
Y7782*
X8152*
G75*
G02X8041I-55*
G01*
X7561*
G75*
G02X7451I-55*
G01*
X6774*
G75*
G02X6663I-55*
G01*
X6577*
G75*
G02X6466I-55*
G01*
X3746*
G37*
X6466Y8766D02*
G36*
G75*
G02X6577I55D01*
G01*
X6663*
G75*
G02X6774I55*
G01*
X7254*
G75*
G02X7365I55*
G01*
X7451*
G75*
G02X7561I55*
G01*
X8041*
G75*
G02X8152I55*
G01*
X8238*
G75*
G02X8349I55*
G01*
X8707*
Y8864*
X8447*
G75*
G02X8336I-55*
G01*
X8250*
G75*
G02X8140I-55*
G01*
X7660*
G75*
G02X7549I-55*
G01*
X7463*
G75*
G02X7352I-55*
G01*
X6872*
G75*
G02X6762I-55*
G01*
X6676*
G75*
G02X6565I-55*
G01*
X3746*
Y8766*
X6466*
G37*
X3746Y8963D02*
G36*
Y8864D01*
X6565*
G75*
G02X6676I55*
G01*
X6762*
G75*
G02X6872I55*
G01*
X7352*
G75*
G02X7463I55*
G01*
X7549*
G75*
G02X7660I55*
G01*
X8140*
G75*
G02X8250I55*
G01*
X8336*
G75*
G02X8447I55*
G01*
X8707*
Y8963*
X8152*
G75*
G02X8041I-55*
G01*
X7561*
G75*
G02X7451I-55*
G01*
X6774*
G75*
G02X6663I-55*
G01*
X6577*
G75*
G02X6466I-55*
G01*
X3746*
G37*
X6466Y9947D02*
G36*
G75*
G02X6577I55D01*
G01*
X6663*
G75*
G02X6774I55*
G01*
X7254*
G75*
G02X7365I55*
G01*
X7451*
G75*
G02X7561I55*
G01*
X8041*
G75*
G02X8152I55*
G01*
X8238*
G75*
G02X8349I55*
G01*
X8707*
Y10045*
X8447*
G75*
G02X8336I-55*
G01*
X8250*
G75*
G02X8140I-55*
G01*
X7660*
G75*
G02X7549I-55*
G01*
X7463*
G75*
G02X7352I-55*
G01*
X6872*
G75*
G02X6762I-55*
G01*
X6676*
G75*
G02X6565I-55*
G01*
X3746*
Y9947*
X6466*
G37*
X3746Y10144D02*
G36*
Y10045D01*
X6565*
G75*
G02X6676I55*
G01*
X6762*
G75*
G02X6872I55*
G01*
X7352*
G75*
G02X7463I55*
G01*
X7549*
G75*
G02X7660I55*
G01*
X8140*
G75*
G02X8250I55*
G01*
X8336*
G75*
G02X8447I55*
G01*
X8707*
Y10144*
X8152*
G75*
G02X8041I-55*
G01*
X7561*
G75*
G02X7451I-55*
G01*
X6774*
G75*
G02X6663I-55*
G01*
X6577*
G75*
G02X6466I-55*
G01*
X3746*
G37*
Y11325D02*
G36*
Y11226D01*
X6565*
G75*
G02X6676I55*
G01*
X6762*
G75*
G02X6872I55*
G01*
X7352*
G75*
G02X7463I55*
G01*
X7549*
G75*
G02X7660I55*
G01*
X8140*
G75*
G02X8250I55*
G01*
X8336*
G75*
G02X8447I55*
G01*
X8707*
Y11325*
X8152*
G75*
G02X8041I-55*
G01*
X7561*
G75*
G02X7451I-55*
G01*
X6774*
G75*
G02X6663I-55*
G01*
X6577*
G75*
G02X6466I-55*
G01*
X3746*
G37*
X4144Y12506D02*
G36*
G75*
G02X4372I114J-83D01*
G01*
X6466*
G75*
G02X6577I55*
G01*
X6663*
G75*
G02X6774I55*
G01*
X7451*
G75*
G02X7561I55*
G01*
X8041*
G75*
G02X8152I55*
G01*
X8707*
Y12801*
X3746*
Y12506*
X4144*
G37*
D02*
D15*
X318Y6990D03*
X518Y6833D03*
X718D03*
X918D03*
X1118D03*
X1318Y6990D03*
D02*
D16*
X414Y4396D02*
X444Y4381D01*
X474*
X503Y4396*
X518Y4425*
Y4514*
X503Y4543*
X474Y4558*
X444*
X414Y4543*
X400Y4514*
Y4425*
X414Y4396*
X503Y4543*
X636Y4499D02*
X695Y4381D01*
X754Y4499*
X1108Y4381D02*
X1182Y4558D01*
X1256Y4381*
X1138Y4455D02*
X1226D01*
X1345Y4381D02*
Y4499D01*
Y4455D02*
X1359Y4484D01*
X1389Y4499*
X1418*
X1448Y4484*
X1463Y4455*
Y4381*
X1581Y4484D02*
X1610Y4499D01*
X1655*
X1684Y4484*
X1699Y4455*
Y4411*
X1684Y4396*
X1655Y4381*
X1625*
X1596Y4396*
X1581Y4411*
Y4425*
X1596Y4440*
X1625Y4455*
X1655*
X1684Y4440*
X1699Y4425*
Y4411D02*
Y4381D01*
D02*
D17*
X400Y400D03*
Y5912D03*
Y12998D03*
X3943Y9455D03*
X4730Y400D03*
Y12998D03*
X5912Y1187D03*
Y2368D03*
Y3549D03*
Y4730D03*
Y5912D03*
Y7093D03*
Y8274D03*
Y9455D03*
Y10636D03*
Y11817D03*
X9061Y400D03*
Y1187D03*
Y2368D03*
Y3549D03*
Y4730D03*
Y5912D03*
Y7093D03*
Y8274D03*
Y9455D03*
Y10636D03*
Y11817D03*
Y12998D03*
D02*
D18*
X2358Y1871D03*
Y2471D03*
Y11123D03*
Y11723D03*
X2974Y3943D03*
Y8143D03*
X3274Y3943D03*
X3574D03*
Y8143D03*
X4258Y1871D03*
Y2171D03*
Y2471D03*
Y11123D03*
Y11423D03*
Y11723D03*
D02*
D19*
X2358Y1471D03*
Y2871D03*
Y10723D03*
Y12123D03*
X2574Y3943D03*
Y8143D03*
X3974Y3943D03*
Y8143D03*
X4258Y1471D03*
Y2871D03*
Y10723D03*
Y12123D03*
D02*
D20*
X1758Y2860D03*
X1877Y12112D03*
X3026Y8766D03*
D02*
D21*
X1856Y2860D03*
X1975Y12112D03*
X3124Y8766D03*
D02*
D23*
X1551Y2171D03*
Y2368D03*
X1561Y11384D03*
Y11581D03*
X1650Y2270D03*
Y2467D03*
X1660Y11482D03*
Y11679D03*
X1748Y2171D03*
Y2368D03*
X1758Y11384D03*
Y11581D03*
X3321Y8943D03*
Y9140D03*
X3420Y9041D03*
X3518Y8943D03*
Y9140D03*
X3616Y9041D03*
X6522Y1679D03*
Y1876D03*
Y2860D03*
Y3057D03*
Y4041D03*
Y4238D03*
Y5223D03*
Y5419D03*
Y6404D03*
Y6600D03*
Y7585D03*
Y7782D03*
Y8766D03*
Y8963D03*
Y9947D03*
Y10144D03*
Y11128D03*
Y11325D03*
Y12309D03*
Y12506D03*
X6620Y1778D03*
Y2959D03*
Y4140D03*
Y5321D03*
Y6502D03*
Y7683D03*
Y8864D03*
Y10045D03*
Y11226D03*
Y12408D03*
X6719Y1679D03*
Y1876D03*
Y2860D03*
Y3057D03*
Y4041D03*
Y4238D03*
Y5223D03*
Y5419D03*
Y6404D03*
Y6600D03*
Y7585D03*
Y7782D03*
Y8766D03*
Y8963D03*
Y9947D03*
Y10144D03*
Y11128D03*
Y11325D03*
Y12309D03*
Y12506D03*
X6817Y1778D03*
Y2959D03*
Y4140D03*
Y5321D03*
Y6502D03*
Y7683D03*
Y8864D03*
Y10045D03*
Y11226D03*
Y12408D03*
X7309Y1679D03*
Y1876D03*
Y2860D03*
Y3057D03*
Y4041D03*
Y4238D03*
Y5223D03*
Y5419D03*
Y6404D03*
Y6600D03*
Y7585D03*
Y7782D03*
Y8766D03*
Y8963D03*
Y9947D03*
Y10144D03*
Y11128D03*
Y11325D03*
Y12309D03*
Y12506D03*
X7408Y1778D03*
Y2959D03*
Y4140D03*
Y5321D03*
Y6502D03*
Y7683D03*
Y8864D03*
Y10045D03*
Y11226D03*
Y12408D03*
X7506Y1679D03*
Y1876D03*
Y2860D03*
Y3057D03*
Y4041D03*
Y4238D03*
Y5223D03*
Y5419D03*
Y6404D03*
Y6600D03*
Y7585D03*
Y7782D03*
Y8766D03*
Y8963D03*
Y9947D03*
Y10144D03*
Y11128D03*
Y11325D03*
Y12309D03*
Y12506D03*
X7604Y1778D03*
Y2959D03*
Y4140D03*
Y5321D03*
Y6502D03*
Y7683D03*
Y8864D03*
Y10045D03*
Y11226D03*
Y12408D03*
X8097Y1679D03*
Y1876D03*
Y2860D03*
Y3057D03*
Y4041D03*
Y4238D03*
Y5223D03*
Y5419D03*
Y6404D03*
Y6600D03*
Y7585D03*
Y7782D03*
Y8766D03*
Y8963D03*
Y9947D03*
Y10144D03*
Y11128D03*
Y11325D03*
Y12309D03*
Y12506D03*
X8195Y1778D03*
Y2959D03*
Y4140D03*
Y5321D03*
Y6502D03*
Y7683D03*
Y8864D03*
Y10045D03*
Y11226D03*
Y12408D03*
X8293Y1679D03*
Y1876D03*
Y2860D03*
Y3057D03*
Y4041D03*
Y4238D03*
Y5223D03*
Y5419D03*
Y6404D03*
Y6600D03*
Y7585D03*
Y7782D03*
Y8766D03*
Y8963D03*
Y9947D03*
Y10144D03*
Y11128D03*
Y11325D03*
Y12309D03*
Y12506D03*
X8392Y1778D03*
Y2959D03*
Y4140D03*
Y5321D03*
Y6502D03*
Y7683D03*
Y8864D03*
Y10045D03*
Y11226D03*
Y12408D03*
D02*
D27*
X4699Y4435D03*
Y4671D03*
Y4908D03*
Y6030D03*
Y6266D03*
Y6502D03*
X4750Y1069D03*
Y1305D03*
Y1541D03*
Y2526D03*
Y2762D03*
Y2998D03*
Y10360D03*
Y10597D03*
Y10833D03*
Y11876D03*
Y12112D03*
Y12349D03*
X5132Y4435D03*
Y4671D03*
Y4908D03*
Y6030D03*
Y6266D03*
Y6502D03*
X5183Y1069D03*
Y1305D03*
Y1541D03*
Y2526D03*
Y2762D03*
Y2998D03*
Y10360D03*
Y10597D03*
Y10833D03*
Y11876D03*
Y12112D03*
Y12349D03*
D02*
D88*
X4187Y2871D02*
X4118D01*
X4187Y10723D02*
X4118D01*
X4258Y2801D02*
Y2732D01*
Y10794D02*
Y10863D01*
X4328Y2871D02*
X4397D01*
X4328Y10723D02*
X4397D01*
X4741Y1069D02*
X4810D01*
X4741Y1305D02*
X4810D01*
X4741Y1541D02*
X4810D01*
X4741Y2526D02*
X4810D01*
X4741Y2762D02*
X4810D01*
X4741Y2998D02*
X4810D01*
X4750Y1059D02*
Y1129D01*
Y1079D02*
Y1009D01*
Y1296D02*
Y1365D01*
Y1315D02*
Y1246D01*
Y1532D02*
Y1601D01*
Y1551D02*
Y1482D01*
Y2516D02*
Y2585D01*
Y2535D02*
Y2466D01*
Y2752D02*
Y2821D01*
Y2771D02*
Y2702D01*
Y2989D02*
Y3058D01*
Y3008D02*
Y2939D01*
X4760Y1069D02*
X4691D01*
X4760Y1305D02*
X4691D01*
X4760Y1541D02*
X4691D01*
X4760Y2526D02*
X4691D01*
X4760Y2762D02*
X4691D01*
X4760Y2998D02*
X4691D01*
X5174Y10360D02*
X5243D01*
X5174Y10597D02*
X5243D01*
X5174Y10833D02*
X5243D01*
X5174Y11876D02*
X5243D01*
X5174Y12112D02*
X5243D01*
X5174Y12349D02*
X5243D01*
X5183Y10351D02*
Y10420D01*
Y10370D02*
Y10301D01*
Y10587D02*
Y10656D01*
Y10606D02*
Y10537D01*
Y10823D02*
Y10892D01*
Y10842D02*
Y10773D01*
Y11867D02*
Y11936D01*
Y11886D02*
Y11817D01*
Y12103D02*
Y12172D01*
Y12122D02*
Y12053D01*
Y12339D02*
Y12408D01*
Y12358D02*
Y12289D01*
X5193Y10360D02*
X5124D01*
X5193Y10597D02*
X5124D01*
X5193Y10833D02*
X5124D01*
X5193Y11876D02*
X5124D01*
X5193Y12112D02*
X5124D01*
X5193Y12349D02*
X5124D01*
X7299Y1876D02*
X7230D01*
X7299Y3057D02*
X7230D01*
X7299Y4238D02*
X7230D01*
X7299Y5419D02*
X7230D01*
X7299Y6600D02*
X7230D01*
X7299Y7782D02*
X7230D01*
X7299Y8963D02*
X7230D01*
X7299Y10144D02*
X7230D01*
X7299Y11325D02*
X7230D01*
X7299Y12506D02*
X7230D01*
X7309Y1866D02*
Y1797D01*
Y1886D02*
Y1955D01*
Y3047D02*
Y2978D01*
Y3067D02*
Y3136D01*
Y4228D02*
Y4159D01*
Y4248D02*
Y4317D01*
Y5410D02*
Y5340D01*
Y5429D02*
Y5498D01*
Y6591D02*
Y6522D01*
Y6610D02*
Y6679D01*
Y7772D02*
Y7703D01*
Y7791D02*
Y7860D01*
Y8953D02*
Y8884D01*
Y8973D02*
Y9042D01*
Y10134D02*
Y10065D01*
Y10154D02*
Y10223D01*
Y11315D02*
Y11246D01*
Y11335D02*
Y11404D01*
Y12496D02*
Y12427D01*
Y12516D02*
Y12585D01*
X7319Y1876D02*
X7388D01*
X7319Y3057D02*
X7388D01*
X7319Y4238D02*
X7388D01*
X7319Y5419D02*
X7388D01*
X7319Y6600D02*
X7388D01*
X7319Y7782D02*
X7388D01*
X7319Y8963D02*
X7388D01*
X7319Y10144D02*
X7388D01*
X7319Y11325D02*
X7388D01*
X7319Y12506D02*
X7388D01*
X8284Y1876D02*
X8215D01*
X8284Y3057D02*
X8215D01*
X8284Y4238D02*
X8215D01*
X8284Y5419D02*
X8215D01*
X8284Y6600D02*
X8215D01*
X8284Y7782D02*
X8215D01*
X8284Y8963D02*
X8215D01*
X8284Y10144D02*
X8215D01*
X8284Y11325D02*
X8215D01*
X8284Y12506D02*
X8215D01*
X8293Y1866D02*
Y1797D01*
Y1886D02*
Y1955D01*
Y3047D02*
Y2978D01*
Y3067D02*
Y3136D01*
Y4228D02*
Y4159D01*
Y4248D02*
Y4317D01*
Y5410D02*
Y5340D01*
Y5429D02*
Y5498D01*
Y6591D02*
Y6522D01*
Y6610D02*
Y6679D01*
Y7772D02*
Y7703D01*
Y7791D02*
Y7860D01*
Y8953D02*
Y8884D01*
Y8973D02*
Y9042D01*
Y10134D02*
Y10065D01*
Y10154D02*
Y10223D01*
Y11315D02*
Y11246D01*
Y11335D02*
Y11404D01*
Y12496D02*
Y12427D01*
Y12516D02*
Y12585D01*
X8303Y1876D02*
X8372D01*
X8303Y3057D02*
X8372D01*
X8303Y4238D02*
X8372D01*
X8303Y5419D02*
X8372D01*
X8303Y6600D02*
X8372D01*
X8303Y7782D02*
X8372D01*
X8303Y8963D02*
X8372D01*
X8303Y10144D02*
X8372D01*
X8303Y11325D02*
X8372D01*
X8303Y12506D02*
X8372D01*
D02*
D89*
X2274Y3943D03*
Y8143D03*
X2358Y1171D03*
Y3171D03*
Y10423D03*
Y12423D03*
X4258Y1171D03*
Y3171D03*
Y10423D03*
Y12423D03*
X4274Y3943D03*
Y8143D03*
D02*
D90*
X1699Y7785D03*
X1853Y5029D03*
X2601Y597D03*
X2680Y9927D03*
X3152Y692D03*
X3231Y9912D03*
D02*
D91*
X1699Y7585D03*
Y7685D03*
X1741Y4929D03*
X1853Y4829D03*
X2701Y597D03*
X2780Y9927D03*
X2801Y597D03*
X2880Y9927D03*
X3252Y580D03*
X3331Y9800D03*
X3352Y692D03*
X3431Y9912D03*
D02*
D96*
X6386Y1187D03*
Y2368D03*
Y3549D03*
Y4730D03*
Y5912D03*
Y7093D03*
Y8274D03*
Y9455D03*
Y10636D03*
Y11817D03*
X6586Y1187D03*
Y2368D03*
Y3549D03*
Y4730D03*
Y5912D03*
Y7093D03*
Y8274D03*
Y9455D03*
Y10636D03*
Y11817D03*
X6786Y1187D03*
Y2368D03*
Y3549D03*
Y4730D03*
Y5912D03*
Y7093D03*
Y8274D03*
Y9455D03*
Y10636D03*
Y11817D03*
X6986Y1187D03*
Y2368D03*
Y3549D03*
Y4730D03*
Y5912D03*
Y7093D03*
Y8274D03*
Y9455D03*
Y10636D03*
Y11817D03*
X7186Y1187D03*
Y2368D03*
Y3549D03*
Y4730D03*
Y5912D03*
Y7093D03*
Y8274D03*
Y9455D03*
Y10636D03*
Y11817D03*
X7386Y1187D03*
Y2368D03*
Y3549D03*
Y4730D03*
Y5912D03*
Y7093D03*
Y8274D03*
Y9455D03*
Y10636D03*
Y11817D03*
X7586Y1187D03*
Y2368D03*
Y3549D03*
Y4730D03*
Y5912D03*
Y7093D03*
Y8274D03*
Y9455D03*
Y10636D03*
Y11817D03*
X7786Y1187D03*
Y2368D03*
Y3549D03*
Y4730D03*
Y5912D03*
Y7093D03*
Y8274D03*
Y9455D03*
Y10636D03*
Y11817D03*
X7986Y1187D03*
Y2368D03*
Y3549D03*
Y4730D03*
Y5912D03*
Y7093D03*
Y8274D03*
Y9455D03*
Y10636D03*
Y11817D03*
X8186Y1187D03*
Y2368D03*
Y3549D03*
Y4730D03*
Y5912D03*
Y7093D03*
Y8274D03*
Y9455D03*
Y10636D03*
Y11817D03*
X8386Y1187D03*
Y2368D03*
Y3549D03*
Y4730D03*
Y5912D03*
Y7093D03*
Y8274D03*
Y9455D03*
Y10636D03*
Y11817D03*
X8586Y1187D03*
Y2368D03*
Y3549D03*
Y4730D03*
Y5912D03*
Y7093D03*
Y8274D03*
Y9455D03*
Y10636D03*
Y11817D03*
X0Y0D02*
M02*
