%FSLAX23Y23*%
%MOIN*%
G04 EasyPC Gerber Version 18.0.6 Build 3620 *
%ADD16C,0.00500*%
%ADD15C,0.10000*%
X0Y0D02*
D02*
D15*
X318Y6990D03*
X400Y400D03*
Y5912D03*
Y12998D03*
X518Y6833D03*
X718D03*
X918D03*
X1118D03*
X1318Y6990D03*
X1551Y2171D03*
Y2368D03*
X1561Y11384D03*
Y11581D03*
X1650Y2270D03*
Y2467D03*
X1660Y11482D03*
Y11679D03*
X1699Y7585D03*
Y7685D03*
Y7785D03*
X1741Y4929D03*
X1748Y2171D03*
Y2368D03*
X1758Y11384D03*
Y11581D03*
X1758Y2860D03*
X1853Y4829D03*
Y5029D03*
X1856Y2860D03*
X1877Y12112D03*
X1975D03*
X2274Y3943D03*
Y8143D03*
X2358Y1171D03*
Y1471D03*
Y1871D03*
Y2471D03*
Y2871D03*
Y3171D03*
Y10423D03*
Y10723D03*
Y11123D03*
Y11723D03*
Y12123D03*
Y12423D03*
X2574Y3943D03*
Y8143D03*
X2601Y597D03*
X2680Y9927D03*
X2701Y597D03*
X2780Y9927D03*
X2801Y597D03*
X2880Y9927D03*
X2974Y3943D03*
Y8143D03*
X3026Y8766D03*
X3124D03*
X3152Y692D03*
X3231Y9912D03*
X3252Y580D03*
X3274Y3943D03*
X3321Y8943D03*
Y9140D03*
X3331Y9800D03*
X3352Y692D03*
X3420Y9041D03*
X3431Y9912D03*
X3518Y8943D03*
Y9140D03*
X3574Y3943D03*
Y8143D03*
X3616Y9041D03*
X3943Y9455D03*
X3974Y3943D03*
Y8143D03*
X4258Y1171D03*
Y1471D03*
Y1871D03*
Y2171D03*
Y2471D03*
Y2871D03*
Y3171D03*
Y10423D03*
Y10723D03*
Y11123D03*
Y11423D03*
Y11723D03*
Y12123D03*
Y12423D03*
X4274Y3943D03*
Y8143D03*
X4699Y4435D03*
Y4671D03*
Y4908D03*
Y6030D03*
Y6266D03*
Y6502D03*
X4730Y400D03*
Y12998D03*
X4750Y1069D03*
Y1305D03*
Y1541D03*
Y2526D03*
Y2762D03*
Y2998D03*
Y10360D03*
Y10597D03*
Y10833D03*
Y11876D03*
Y12112D03*
Y12349D03*
X5132Y4435D03*
Y4671D03*
Y4908D03*
Y6030D03*
Y6266D03*
Y6502D03*
X5183Y1069D03*
Y1305D03*
Y1541D03*
Y2526D03*
Y2762D03*
Y2998D03*
Y10360D03*
Y10597D03*
Y10833D03*
Y11876D03*
Y12112D03*
Y12349D03*
X5912Y1187D03*
Y2368D03*
Y3549D03*
Y4730D03*
Y5912D03*
Y7093D03*
Y8274D03*
Y9455D03*
Y10636D03*
Y11817D03*
X6386Y1187D03*
Y2368D03*
Y3549D03*
Y4730D03*
Y5912D03*
Y7093D03*
Y8274D03*
Y9455D03*
Y10636D03*
Y11817D03*
X6522Y1679D03*
Y1876D03*
Y2860D03*
Y3057D03*
Y4041D03*
Y4238D03*
Y5223D03*
Y5419D03*
Y6404D03*
Y6600D03*
Y7585D03*
Y7782D03*
Y8766D03*
Y8963D03*
Y9947D03*
Y10144D03*
Y11128D03*
Y11325D03*
Y12309D03*
Y12506D03*
X6586Y1187D03*
Y2368D03*
Y3549D03*
Y4730D03*
Y5912D03*
Y7093D03*
Y8274D03*
Y9455D03*
Y10636D03*
Y11817D03*
X6620Y1778D03*
Y2959D03*
Y4140D03*
Y5321D03*
Y6502D03*
Y7683D03*
Y8864D03*
Y10045D03*
Y11226D03*
Y12408D03*
X6719Y1679D03*
Y1876D03*
Y2860D03*
Y3057D03*
Y4041D03*
Y4238D03*
Y5223D03*
Y5419D03*
Y6404D03*
Y6600D03*
Y7585D03*
Y7782D03*
Y8766D03*
Y8963D03*
Y9947D03*
Y10144D03*
Y11128D03*
Y11325D03*
Y12309D03*
Y12506D03*
X6786Y1187D03*
Y2368D03*
Y3549D03*
Y4730D03*
Y5912D03*
Y7093D03*
Y8274D03*
Y9455D03*
Y10636D03*
Y11817D03*
X6817Y1778D03*
Y2959D03*
Y4140D03*
Y5321D03*
Y6502D03*
Y7683D03*
Y8864D03*
Y10045D03*
Y11226D03*
Y12408D03*
X6986Y1187D03*
Y2368D03*
Y3549D03*
Y4730D03*
Y5912D03*
Y7093D03*
Y8274D03*
Y9455D03*
Y10636D03*
Y11817D03*
X7186Y1187D03*
Y2368D03*
Y3549D03*
Y4730D03*
Y5912D03*
Y7093D03*
Y8274D03*
Y9455D03*
Y10636D03*
Y11817D03*
X7309Y1679D03*
Y1876D03*
Y2860D03*
Y3057D03*
Y4041D03*
Y4238D03*
Y5223D03*
Y5419D03*
Y6404D03*
Y6600D03*
Y7585D03*
Y7782D03*
Y8766D03*
Y8963D03*
Y9947D03*
Y10144D03*
Y11128D03*
Y11325D03*
Y12309D03*
Y12506D03*
X7386Y1187D03*
Y2368D03*
Y3549D03*
Y4730D03*
Y5912D03*
Y7093D03*
Y8274D03*
Y9455D03*
Y10636D03*
Y11817D03*
X7408Y1778D03*
Y2959D03*
Y4140D03*
Y5321D03*
Y6502D03*
Y7683D03*
Y8864D03*
Y10045D03*
Y11226D03*
Y12408D03*
X7506Y1679D03*
Y1876D03*
Y2860D03*
Y3057D03*
Y4041D03*
Y4238D03*
Y5223D03*
Y5419D03*
Y6404D03*
Y6600D03*
Y7585D03*
Y7782D03*
Y8766D03*
Y8963D03*
Y9947D03*
Y10144D03*
Y11128D03*
Y11325D03*
Y12309D03*
Y12506D03*
X7586Y1187D03*
Y2368D03*
Y3549D03*
Y4730D03*
Y5912D03*
Y7093D03*
Y8274D03*
Y9455D03*
Y10636D03*
Y11817D03*
X7604Y1778D03*
Y2959D03*
Y4140D03*
Y5321D03*
Y6502D03*
Y7683D03*
Y8864D03*
Y10045D03*
Y11226D03*
Y12408D03*
X7786Y1187D03*
Y2368D03*
Y3549D03*
Y4730D03*
Y5912D03*
Y7093D03*
Y8274D03*
Y9455D03*
Y10636D03*
Y11817D03*
X7986Y1187D03*
Y2368D03*
Y3549D03*
Y4730D03*
Y5912D03*
Y7093D03*
Y8274D03*
Y9455D03*
Y10636D03*
Y11817D03*
X8097Y1679D03*
Y1876D03*
Y2860D03*
Y3057D03*
Y4041D03*
Y4238D03*
Y5223D03*
Y5419D03*
Y6404D03*
Y6600D03*
Y7585D03*
Y7782D03*
Y8766D03*
Y8963D03*
Y9947D03*
Y10144D03*
Y11128D03*
Y11325D03*
Y12309D03*
Y12506D03*
X8186Y1187D03*
Y2368D03*
Y3549D03*
Y4730D03*
Y5912D03*
Y7093D03*
Y8274D03*
Y9455D03*
Y10636D03*
Y11817D03*
X8195Y1778D03*
Y2959D03*
Y4140D03*
Y5321D03*
Y6502D03*
Y7683D03*
Y8864D03*
Y10045D03*
Y11226D03*
Y12408D03*
X8293Y1679D03*
Y1876D03*
Y2860D03*
Y3057D03*
Y4041D03*
Y4238D03*
Y5223D03*
Y5419D03*
Y6404D03*
Y6600D03*
Y7585D03*
Y7782D03*
Y8766D03*
Y8963D03*
Y9947D03*
Y10144D03*
Y11128D03*
Y11325D03*
Y12309D03*
Y12506D03*
X8386Y1187D03*
Y2368D03*
Y3549D03*
Y4730D03*
Y5912D03*
Y7093D03*
Y8274D03*
Y9455D03*
Y10636D03*
Y11817D03*
X8392Y1778D03*
Y2959D03*
Y4140D03*
Y5321D03*
Y6502D03*
Y7683D03*
Y8864D03*
Y10045D03*
Y11226D03*
Y12408D03*
X8586Y1187D03*
Y2368D03*
Y3549D03*
Y4730D03*
Y5912D03*
Y7093D03*
Y8274D03*
Y9455D03*
Y10636D03*
Y11817D03*
X9061Y400D03*
Y1187D03*
Y2368D03*
Y3549D03*
Y4730D03*
Y5912D03*
Y7093D03*
Y8274D03*
Y9455D03*
Y10636D03*
Y11817D03*
Y12998D03*
D02*
D16*
X427Y7049D02*
X440D01*
X433D02*
Y7087D01*
X427D02*
X440D01*
X500Y497D02*
Y459D01*
X531*
X500Y6008D02*
Y5971D01*
X531*
X500Y13095D02*
Y13058D01*
X531*
X627Y6892D02*
X640D01*
X633D02*
Y6930D01*
X627D02*
X640D01*
X827Y6892D02*
X840D01*
X833D02*
Y6930D01*
X827D02*
X840D01*
X1027Y6892D02*
X1040D01*
X1033D02*
Y6930D01*
X1027D02*
X1040D01*
X1227Y6892D02*
X1240D01*
X1233D02*
Y6930D01*
X1227D02*
X1240D01*
X1427Y7049D02*
X1440D01*
X1433D02*
Y7087D01*
X1427D02*
X1440D01*
X1651Y2231D02*
Y2268D01*
Y2249D02*
X1683D01*
Y2231D02*
Y2268D01*
X1651Y2428D02*
Y2465D01*
Y2446D02*
X1683D01*
Y2428D02*
Y2465D01*
X1661Y11443D02*
Y11481D01*
Y11462D02*
X1692D01*
Y11443D02*
Y11481D01*
X1661Y11640D02*
Y11678D01*
Y11659D02*
X1692D01*
Y11640D02*
Y11678D01*
X1750Y2329D02*
Y2367D01*
Y2348D02*
X1781D01*
Y2329D02*
Y2367D01*
X1750Y2526D02*
Y2564D01*
Y2545D02*
X1781D01*
Y2526D02*
Y2564D01*
X1760Y11542D02*
Y11579D01*
Y11561D02*
X1791D01*
Y11542D02*
Y11579D01*
X1760Y11739D02*
Y11776D01*
Y11757D02*
X1791D01*
Y11739D02*
Y11776D01*
X1799Y7644D02*
Y7682D01*
X1830Y7644*
Y7682*
X1799Y7744D02*
Y7782D01*
X1830Y7744*
Y7782*
X1799Y7844D02*
Y7882D01*
X1830Y7844*
Y7882*
X1841Y4988D02*
Y5026D01*
X1857Y5007*
X1873Y5026*
Y4988*
X1848Y2231D02*
Y2268D01*
Y2249D02*
X1879D01*
Y2231D02*
Y2268D01*
X1848Y2428D02*
Y2465D01*
Y2446D02*
X1879D01*
Y2428D02*
Y2465D01*
X1858Y11443D02*
Y11481D01*
Y11462D02*
X1889D01*
Y11443D02*
Y11481D01*
X1858Y11640D02*
Y11678D01*
Y11659D02*
X1889D01*
Y11640D02*
Y11678D01*
X1858Y2920D02*
Y2957D01*
X1890*
X1883Y2938D02*
X1858D01*
X1953Y4888D02*
Y4926D01*
X1969Y4907*
X1985Y4926*
Y4888*
X1953Y5088D02*
Y5126D01*
X1969Y5107*
X1985Y5126*
Y5088*
X1956Y2920D02*
Y2957D01*
X1988*
X1981Y2938D02*
X1956D01*
X1977Y12172D02*
Y12209D01*
X2008*
X2002Y12190D02*
X1977D01*
X2075Y12172D02*
Y12209D01*
X2106*
X2100Y12190D02*
X2075D01*
X2374Y4002D02*
Y4040D01*
X2405*
X2399Y4021D02*
X2374D01*
Y4002D02*
X2405D01*
X2374Y8202D02*
Y8240D01*
X2405*
X2399Y8221D02*
X2374D01*
Y8202D02*
X2405D01*
X2458Y1231D02*
Y1268D01*
X2489*
X2483Y1249D02*
X2458D01*
Y1231D02*
X2489D01*
Y1537D02*
X2486Y1534D01*
X2480Y1531*
X2470*
X2464Y1534*
X2461Y1537*
X2458Y1543*
Y1556*
X2461Y1562*
X2464Y1565*
X2470Y1568*
X2480*
X2486Y1565*
X2489Y1562*
Y1937D02*
X2486Y1934D01*
X2480Y1931*
X2470*
X2464Y1934*
X2461Y1937*
X2458Y1943*
Y1956*
X2461Y1962*
X2464Y1965*
X2470Y1968*
X2480*
X2486Y1965*
X2489Y1962*
Y2537D02*
X2486Y2534D01*
X2480Y2531*
X2470*
X2464Y2534*
X2461Y2537*
X2458Y2543*
Y2556*
X2461Y2562*
X2464Y2565*
X2470Y2568*
X2480*
X2486Y2565*
X2489Y2562*
Y2937D02*
X2486Y2934D01*
X2480Y2931*
X2470*
X2464Y2934*
X2461Y2937*
X2458Y2943*
Y2956*
X2461Y2962*
X2464Y2965*
X2470Y2968*
X2480*
X2486Y2965*
X2489Y2962*
X2458Y3231D02*
Y3268D01*
X2489*
X2483Y3249D02*
X2458D01*
Y3231D02*
X2489D01*
X2458Y10483D02*
Y10520D01*
X2489*
X2483Y10501D02*
X2458D01*
Y10483D02*
X2489D01*
Y10789D02*
X2486Y10786D01*
X2480Y10783*
X2470*
X2464Y10786*
X2461Y10789*
X2458Y10795*
Y10808*
X2461Y10814*
X2464Y10817*
X2470Y10820*
X2480*
X2486Y10817*
X2489Y10814*
Y11189D02*
X2486Y11186D01*
X2480Y11183*
X2470*
X2464Y11186*
X2461Y11189*
X2458Y11195*
Y11208*
X2461Y11214*
X2464Y11217*
X2470Y11220*
X2480*
X2486Y11217*
X2489Y11214*
Y11789D02*
X2486Y11786D01*
X2480Y11783*
X2470*
X2464Y11786*
X2461Y11789*
X2458Y11795*
Y11808*
X2461Y11814*
X2464Y11817*
X2470Y11820*
X2480*
X2486Y11817*
X2489Y11814*
Y12189D02*
X2486Y12186D01*
X2480Y12183*
X2470*
X2464Y12186*
X2461Y12189*
X2458Y12195*
Y12208*
X2461Y12214*
X2464Y12217*
X2470Y12220*
X2480*
X2486Y12217*
X2489Y12214*
X2458Y12483D02*
Y12520D01*
X2489*
X2483Y12501D02*
X2458D01*
Y12483D02*
X2489D01*
X2674Y4002D02*
Y4040D01*
X2692*
X2699Y4037*
X2702Y4034*
X2705Y4027*
Y4015*
X2702Y4009*
X2699Y4006*
X2692Y4002*
X2674*
X2705Y8209D02*
X2702Y8206D01*
X2696Y8202*
X2686*
X2680Y8206*
X2677Y8209*
X2674Y8215*
Y8227*
X2677Y8234*
X2680Y8237*
X2686Y8240*
X2696*
X2702Y8237*
X2705Y8234*
X2701Y656D02*
Y693D01*
X2733Y656*
Y693*
X2780Y9987D02*
Y10024D01*
X2811Y9987*
Y10024*
X2801Y656D02*
Y693D01*
X2833Y656*
Y693*
X2880Y9987D02*
Y10024D01*
X2911Y9987*
Y10024*
X2901Y656D02*
Y693D01*
X2933Y656*
Y693*
X2980Y9987D02*
Y10024D01*
X3011Y9987*
Y10024*
X3105Y4009D02*
X3102Y4006D01*
X3096Y4002*
X3086*
X3080Y4006*
X3077Y4009*
X3074Y4015*
Y4027*
X3077Y4034*
X3080Y4037*
X3086Y4040*
X3096*
X3102Y4037*
X3105Y4034*
Y8209D02*
X3102Y8206D01*
X3096Y8202*
X3086*
X3080Y8206*
X3077Y8209*
X3074Y8215*
Y8227*
X3077Y8234*
X3080Y8237*
X3086Y8240*
X3096*
X3102Y8237*
X3105Y8234*
X3126Y8825D02*
Y8863D01*
X3158*
X3151Y8844D02*
X3126D01*
X3224Y8825D02*
Y8863D01*
X3256*
X3249Y8844D02*
X3224D01*
X3252Y751D02*
Y789D01*
X3268Y770*
X3284Y789*
Y751*
X3331Y9971D02*
Y10009D01*
X3347Y9990*
X3362Y10009*
Y9971*
X3352Y639D02*
Y677D01*
X3368Y658*
X3384Y677*
Y639*
X3405Y4009D02*
X3402Y4006D01*
X3396Y4002*
X3386*
X3380Y4006*
X3377Y4009*
X3374Y4015*
Y4027*
X3377Y4034*
X3380Y4037*
X3386Y4040*
X3396*
X3402Y4037*
X3405Y4034*
X3421Y9002D02*
Y9040D01*
Y9021D02*
X3452D01*
Y9002D02*
Y9040D01*
X3421Y9199D02*
Y9237D01*
Y9218D02*
X3452D01*
Y9199D02*
Y9237D01*
X3431Y9859D02*
Y9897D01*
X3447Y9878*
X3462Y9897*
Y9859*
X3452Y751D02*
Y789D01*
X3468Y770*
X3484Y789*
Y751*
X3520Y9101D02*
Y9138D01*
Y9120D02*
X3551D01*
Y9101D02*
Y9138D01*
X3531Y9971D02*
Y10009D01*
X3547Y9990*
X3562Y10009*
Y9971*
X3618Y9002D02*
Y9040D01*
Y9021D02*
X3649D01*
Y9002D02*
Y9040D01*
X3618Y9199D02*
Y9237D01*
Y9218D02*
X3649D01*
Y9199D02*
Y9237D01*
X3705Y4009D02*
X3702Y4006D01*
X3696Y4002*
X3686*
X3680Y4006*
X3677Y4009*
X3674Y4015*
Y4027*
X3677Y4034*
X3680Y4037*
X3686Y4040*
X3696*
X3702Y4037*
X3705Y4034*
Y8209D02*
X3702Y8206D01*
X3696Y8202*
X3686*
X3680Y8206*
X3677Y8209*
X3674Y8215*
Y8227*
X3677Y8234*
X3680Y8237*
X3686Y8240*
X3696*
X3702Y8237*
X3705Y8234*
X3716Y9101D02*
Y9138D01*
Y9120D02*
X3748D01*
Y9101D02*
Y9138D01*
X4043Y9552D02*
Y9514D01*
X4074*
X4074Y4002D02*
Y4040D01*
X4092*
X4099Y4037*
X4102Y4034*
X4105Y4027*
Y4015*
X4102Y4009*
X4099Y4006*
X4092Y4002*
X4074*
X4105Y8209D02*
X4102Y8206D01*
X4096Y8202*
X4086*
X4080Y8206*
X4077Y8209*
X4074Y8215*
Y8227*
X4077Y8234*
X4080Y8237*
X4086Y8240*
X4096*
X4102Y8237*
X4105Y8234*
X4358Y1231D02*
Y1268D01*
X4389*
X4383Y1249D02*
X4358D01*
Y1231D02*
X4389D01*
X4358Y1531D02*
Y1568D01*
X4377*
X4383Y1565*
X4386Y1562*
X4389Y1556*
Y1543*
X4386Y1537*
X4383Y1534*
X4377Y1531*
X4358*
X4389Y1937D02*
X4386Y1934D01*
X4380Y1931*
X4370*
X4364Y1934*
X4361Y1937*
X4358Y1943*
Y1956*
X4361Y1962*
X4364Y1965*
X4370Y1968*
X4380*
X4386Y1965*
X4389Y1962*
Y2237D02*
X4386Y2234D01*
X4380Y2231*
X4370*
X4364Y2234*
X4361Y2237*
X4358Y2243*
Y2256*
X4361Y2262*
X4364Y2265*
X4370Y2268*
X4380*
X4386Y2265*
X4389Y2262*
Y2537D02*
X4386Y2534D01*
X4380Y2531*
X4370*
X4364Y2534*
X4361Y2537*
X4358Y2543*
Y2556*
X4361Y2562*
X4364Y2565*
X4370Y2568*
X4380*
X4386Y2565*
X4389Y2562*
X4358Y2931D02*
Y2968D01*
X4377*
X4383Y2965*
X4386Y2962*
X4389Y2956*
Y2943*
X4386Y2937*
X4383Y2934*
X4377Y2931*
X4358*
Y3231D02*
Y3268D01*
X4389*
X4383Y3249D02*
X4358D01*
Y3231D02*
X4389D01*
X4358Y10483D02*
Y10520D01*
X4389*
X4383Y10501D02*
X4358D01*
Y10483D02*
X4389D01*
X4358Y10783D02*
Y10820D01*
X4377*
X4383Y10817*
X4386Y10814*
X4389Y10808*
Y10795*
X4386Y10789*
X4383Y10786*
X4377Y10783*
X4358*
X4389Y11189D02*
X4386Y11186D01*
X4380Y11183*
X4370*
X4364Y11186*
X4361Y11189*
X4358Y11195*
Y11208*
X4361Y11214*
X4364Y11217*
X4370Y11220*
X4380*
X4386Y11217*
X4389Y11214*
Y11489D02*
X4386Y11486D01*
X4380Y11483*
X4370*
X4364Y11486*
X4361Y11489*
X4358Y11495*
Y11508*
X4361Y11514*
X4364Y11517*
X4370Y11520*
X4380*
X4386Y11517*
X4389Y11514*
Y11789D02*
X4386Y11786D01*
X4380Y11783*
X4370*
X4364Y11786*
X4361Y11789*
X4358Y11795*
Y11808*
X4361Y11814*
X4364Y11817*
X4370Y11820*
X4380*
X4386Y11817*
X4389Y11814*
X4358Y12183D02*
Y12220D01*
X4377*
X4383Y12217*
X4386Y12214*
X4389Y12208*
Y12195*
X4386Y12189*
X4383Y12186*
X4377Y12183*
X4358*
Y12483D02*
Y12520D01*
X4389*
X4383Y12501D02*
X4358D01*
Y12483D02*
X4389D01*
X4374Y4002D02*
Y4040D01*
X4405*
X4399Y4021D02*
X4374D01*
Y4002D02*
X4405D01*
X4374Y8202D02*
Y8240D01*
X4405*
X4399Y8221D02*
X4374D01*
Y8202D02*
X4405D01*
X4799Y4495D02*
Y4532D01*
Y4513D02*
X4808D01*
X4830Y4532*
X4808Y4513D02*
X4830Y4495D01*
X4799Y4731D02*
Y4768D01*
Y4749D02*
X4808D01*
X4830Y4768*
X4808Y4749D02*
X4830Y4731D01*
X4799Y4967D02*
Y5004D01*
Y4986D02*
X4808D01*
X4830Y5004*
X4808Y4986D02*
X4830Y4967D01*
X4799Y6089D02*
Y6126D01*
Y6108D02*
X4808D01*
X4830Y6126*
X4808Y6108D02*
X4830Y6089D01*
X4799Y6325D02*
Y6363D01*
Y6344D02*
X4808D01*
X4830Y6363*
X4808Y6344D02*
X4830Y6325D01*
X4799Y6561D02*
Y6599D01*
Y6580D02*
X4808D01*
X4830Y6599*
X4808Y6580D02*
X4830Y6561D01*
X4830Y497D02*
Y459D01*
X4862*
X4830Y13095D02*
Y13058D01*
X4862*
X4850Y1128D02*
Y1166D01*
Y1147D02*
X4859D01*
X4881Y1166*
X4859Y1147D02*
X4881Y1128D01*
X4850Y1365D02*
Y1402D01*
Y1383D02*
X4859D01*
X4881Y1402*
X4859Y1383D02*
X4881Y1365D01*
X4850Y1601D02*
Y1638D01*
Y1620D02*
X4859D01*
X4881Y1638*
X4859Y1620D02*
X4881Y1601D01*
X4850Y2585D02*
Y2623D01*
Y2604D02*
X4859D01*
X4881Y2623*
X4859Y2604D02*
X4881Y2585D01*
X4850Y2821D02*
Y2859D01*
Y2840D02*
X4859D01*
X4881Y2859*
X4859Y2840D02*
X4881Y2821D01*
X4850Y3058D02*
Y3095D01*
Y3076D02*
X4859D01*
X4881Y3095*
X4859Y3076D02*
X4881Y3058D01*
X4850Y10420D02*
Y10457D01*
Y10438D02*
X4859D01*
X4881Y10457*
X4859Y10438D02*
X4881Y10420D01*
X4850Y10656D02*
Y10693D01*
Y10675D02*
X4859D01*
X4881Y10693*
X4859Y10675D02*
X4881Y10656D01*
X4850Y10892D02*
Y10930D01*
Y10911D02*
X4859D01*
X4881Y10930*
X4859Y10911D02*
X4881Y10892D01*
X4850Y11935D02*
Y11973D01*
Y11954D02*
X4859D01*
X4881Y11973*
X4859Y11954D02*
X4881Y11935D01*
X4850Y12172D02*
Y12209D01*
Y12190D02*
X4859D01*
X4881Y12209*
X4859Y12190D02*
X4881Y12172D01*
X4850Y12408D02*
Y12445D01*
Y12427D02*
X4859D01*
X4881Y12445*
X4859Y12427D02*
X4881Y12408D01*
X5232Y4495D02*
Y4532D01*
Y4513D02*
X5242D01*
X5263Y4532*
X5242Y4513D02*
X5263Y4495D01*
X5232Y4731D02*
Y4768D01*
Y4749D02*
X5242D01*
X5263Y4768*
X5242Y4749D02*
X5263Y4731D01*
X5232Y4967D02*
Y5004D01*
Y4986D02*
X5242D01*
X5263Y5004*
X5242Y4986D02*
X5263Y4967D01*
X5232Y6089D02*
Y6126D01*
Y6108D02*
X5242D01*
X5263Y6126*
X5242Y6108D02*
X5263Y6089D01*
X5232Y6325D02*
Y6363D01*
Y6344D02*
X5242D01*
X5263Y6363*
X5242Y6344D02*
X5263Y6325D01*
X5232Y6561D02*
Y6599D01*
Y6580D02*
X5242D01*
X5263Y6599*
X5242Y6580D02*
X5263Y6561D01*
X5283Y1128D02*
Y1166D01*
Y1147D02*
X5293D01*
X5314Y1166*
X5293Y1147D02*
X5314Y1128D01*
X5283Y1365D02*
Y1402D01*
Y1383D02*
X5293D01*
X5314Y1402*
X5293Y1383D02*
X5314Y1365D01*
X5283Y1601D02*
Y1638D01*
Y1620D02*
X5293D01*
X5314Y1638*
X5293Y1620D02*
X5314Y1601D01*
X5283Y2585D02*
Y2623D01*
Y2604D02*
X5293D01*
X5314Y2623*
X5293Y2604D02*
X5314Y2585D01*
X5283Y2821D02*
Y2859D01*
Y2840D02*
X5293D01*
X5314Y2859*
X5293Y2840D02*
X5314Y2821D01*
X5283Y3058D02*
Y3095D01*
Y3076D02*
X5293D01*
X5314Y3095*
X5293Y3076D02*
X5314Y3058D01*
X5283Y10420D02*
Y10457D01*
Y10438D02*
X5293D01*
X5314Y10457*
X5293Y10438D02*
X5314Y10420D01*
X5283Y10656D02*
Y10693D01*
Y10675D02*
X5293D01*
X5314Y10693*
X5293Y10675D02*
X5314Y10656D01*
X5283Y10892D02*
Y10930D01*
Y10911D02*
X5293D01*
X5314Y10930*
X5293Y10911D02*
X5314Y10892D01*
X5283Y11935D02*
Y11973D01*
Y11954D02*
X5293D01*
X5314Y11973*
X5293Y11954D02*
X5314Y11935D01*
X5283Y12172D02*
Y12209D01*
Y12190D02*
X5293D01*
X5314Y12209*
X5293Y12190D02*
X5314Y12172D01*
X5283Y12408D02*
Y12445D01*
Y12427D02*
X5293D01*
X5314Y12445*
X5293Y12427D02*
X5314Y12408D01*
X6012Y1284D02*
Y1246D01*
X6043*
X6012Y2465D02*
Y2428D01*
X6043*
X6012Y3646D02*
Y3609D01*
X6043*
X6012Y4827D02*
Y4790D01*
X6043*
X6012Y6008D02*
Y5971D01*
X6043*
X6012Y7189D02*
Y7152D01*
X6043*
X6012Y8371D02*
Y8333D01*
X6043*
X6012Y9552D02*
Y9514D01*
X6043*
X6012Y10733D02*
Y10695D01*
X6043*
X6012Y11914D02*
Y11876D01*
X6043*
X6496Y1246D02*
X6508D01*
X6502D02*
Y1284D01*
X6496D02*
X6508D01*
X6496Y2428D02*
X6508D01*
X6502D02*
Y2465D01*
X6496D02*
X6508D01*
X6496Y3609D02*
X6508D01*
X6502D02*
Y3646D01*
X6496D02*
X6508D01*
X6496Y4790D02*
X6508D01*
X6502D02*
Y4827D01*
X6496D02*
X6508D01*
X6496Y5971D02*
X6508D01*
X6502D02*
Y6008D01*
X6496D02*
X6508D01*
X6496Y7152D02*
X6508D01*
X6502D02*
Y7189D01*
X6496D02*
X6508D01*
X6496Y8333D02*
X6508D01*
X6502D02*
Y8371D01*
X6496D02*
X6508D01*
X6496Y9514D02*
X6508D01*
X6502D02*
Y9552D01*
X6496D02*
X6508D01*
X6496Y10695D02*
X6508D01*
X6502D02*
Y10733D01*
X6496D02*
X6508D01*
X6496Y11876D02*
X6508D01*
X6502D02*
Y11914D01*
X6496D02*
X6508D01*
X6622Y1739D02*
Y1776D01*
Y1757D02*
X6653D01*
Y1739D02*
Y1776D01*
X6622Y1935D02*
Y1973D01*
Y1954D02*
X6653D01*
Y1935D02*
Y1973D01*
X6622Y2920D02*
Y2957D01*
Y2938D02*
X6653D01*
Y2920D02*
Y2957D01*
X6622Y3117D02*
Y3154D01*
Y3135D02*
X6653D01*
Y3117D02*
Y3154D01*
X6622Y4101D02*
Y4138D01*
Y4120D02*
X6653D01*
Y4101D02*
Y4138D01*
X6622Y4298D02*
Y4335D01*
Y4316D02*
X6653D01*
Y4298D02*
Y4335D01*
X6622Y5282D02*
Y5319D01*
Y5301D02*
X6653D01*
Y5282D02*
Y5319D01*
X6622Y5479D02*
Y5516D01*
Y5498D02*
X6653D01*
Y5479D02*
Y5516D01*
X6622Y6463D02*
Y6501D01*
Y6482D02*
X6653D01*
Y6463D02*
Y6501D01*
X6622Y6660D02*
Y6697D01*
Y6679D02*
X6653D01*
Y6660D02*
Y6697D01*
X6622Y7644D02*
Y7682D01*
Y7663D02*
X6653D01*
Y7644D02*
Y7682D01*
X6622Y7841D02*
Y7878D01*
Y7860D02*
X6653D01*
Y7841D02*
Y7878D01*
X6622Y8825D02*
Y8863D01*
Y8844D02*
X6653D01*
Y8825D02*
Y8863D01*
X6622Y9022D02*
Y9060D01*
Y9041D02*
X6653D01*
Y9022D02*
Y9060D01*
X6622Y10006D02*
Y10044D01*
Y10025D02*
X6653D01*
Y10006D02*
Y10044D01*
X6622Y10203D02*
Y10241D01*
Y10222D02*
X6653D01*
Y10203D02*
Y10241D01*
X6622Y11187D02*
Y11225D01*
Y11206D02*
X6653D01*
Y11187D02*
Y11225D01*
X6622Y11384D02*
Y11422D01*
Y11403D02*
X6653D01*
Y11384D02*
Y11422D01*
X6622Y12369D02*
Y12406D01*
Y12387D02*
X6653D01*
Y12369D02*
Y12406D01*
X6622Y12565D02*
Y12603D01*
Y12584D02*
X6653D01*
Y12565D02*
Y12603D01*
X6696Y1246D02*
X6708D01*
X6702D02*
Y1284D01*
X6696D02*
X6708D01*
X6696Y2428D02*
X6708D01*
X6702D02*
Y2465D01*
X6696D02*
X6708D01*
X6696Y3609D02*
X6708D01*
X6702D02*
Y3646D01*
X6696D02*
X6708D01*
X6696Y4790D02*
X6708D01*
X6702D02*
Y4827D01*
X6696D02*
X6708D01*
X6696Y5971D02*
X6708D01*
X6702D02*
Y6008D01*
X6696D02*
X6708D01*
X6696Y7152D02*
X6708D01*
X6702D02*
Y7189D01*
X6696D02*
X6708D01*
X6696Y8333D02*
X6708D01*
X6702D02*
Y8371D01*
X6696D02*
X6708D01*
X6696Y9514D02*
X6708D01*
X6702D02*
Y9552D01*
X6696D02*
X6708D01*
X6696Y10695D02*
X6708D01*
X6702D02*
Y10733D01*
X6696D02*
X6708D01*
X6696Y11876D02*
X6708D01*
X6702D02*
Y11914D01*
X6696D02*
X6708D01*
X6720Y1837D02*
Y1875D01*
Y1856D02*
X6751D01*
Y1837D02*
Y1875D01*
X6720Y3018D02*
Y3056D01*
Y3037D02*
X6751D01*
Y3018D02*
Y3056D01*
X6720Y4199D02*
Y4237D01*
Y4218D02*
X6751D01*
Y4199D02*
Y4237D01*
X6720Y5380D02*
Y5418D01*
Y5399D02*
X6751D01*
Y5380D02*
Y5418D01*
X6720Y6561D02*
Y6599D01*
Y6580D02*
X6751D01*
Y6561D02*
Y6599D01*
X6720Y7743D02*
Y7780D01*
Y7761D02*
X6751D01*
Y7743D02*
Y7780D01*
X6720Y8924D02*
Y8961D01*
Y8942D02*
X6751D01*
Y8924D02*
Y8961D01*
X6720Y10105D02*
Y10142D01*
Y10123D02*
X6751D01*
Y10105D02*
Y10142D01*
X6720Y11286D02*
Y11323D01*
Y11305D02*
X6751D01*
Y11286D02*
Y11323D01*
X6720Y12467D02*
Y12504D01*
Y12486D02*
X6751D01*
Y12467D02*
Y12504D01*
X6819Y1739D02*
Y1776D01*
Y1757D02*
X6850D01*
Y1739D02*
Y1776D01*
X6819Y1935D02*
Y1973D01*
Y1954D02*
X6850D01*
Y1935D02*
Y1973D01*
X6819Y2920D02*
Y2957D01*
Y2938D02*
X6850D01*
Y2920D02*
Y2957D01*
X6819Y3117D02*
Y3154D01*
Y3135D02*
X6850D01*
Y3117D02*
Y3154D01*
X6819Y4101D02*
Y4138D01*
Y4120D02*
X6850D01*
Y4101D02*
Y4138D01*
X6819Y4298D02*
Y4335D01*
Y4316D02*
X6850D01*
Y4298D02*
Y4335D01*
X6819Y5282D02*
Y5319D01*
Y5301D02*
X6850D01*
Y5282D02*
Y5319D01*
X6819Y5479D02*
Y5516D01*
Y5498D02*
X6850D01*
Y5479D02*
Y5516D01*
X6819Y6463D02*
Y6501D01*
Y6482D02*
X6850D01*
Y6463D02*
Y6501D01*
X6819Y6660D02*
Y6697D01*
Y6679D02*
X6850D01*
Y6660D02*
Y6697D01*
X6819Y7644D02*
Y7682D01*
Y7663D02*
X6850D01*
Y7644D02*
Y7682D01*
X6819Y7841D02*
Y7878D01*
Y7860D02*
X6850D01*
Y7841D02*
Y7878D01*
X6819Y8825D02*
Y8863D01*
Y8844D02*
X6850D01*
Y8825D02*
Y8863D01*
X6819Y9022D02*
Y9060D01*
Y9041D02*
X6850D01*
Y9022D02*
Y9060D01*
X6819Y10006D02*
Y10044D01*
Y10025D02*
X6850D01*
Y10006D02*
Y10044D01*
X6819Y10203D02*
Y10241D01*
Y10222D02*
X6850D01*
Y10203D02*
Y10241D01*
X6819Y11187D02*
Y11225D01*
Y11206D02*
X6850D01*
Y11187D02*
Y11225D01*
X6819Y11384D02*
Y11422D01*
Y11403D02*
X6850D01*
Y11384D02*
Y11422D01*
X6819Y12369D02*
Y12406D01*
Y12387D02*
X6850D01*
Y12369D02*
Y12406D01*
X6819Y12565D02*
Y12603D01*
Y12584D02*
X6850D01*
Y12565D02*
Y12603D01*
X6896Y1246D02*
X6908D01*
X6902D02*
Y1284D01*
X6896D02*
X6908D01*
X6896Y2428D02*
X6908D01*
X6902D02*
Y2465D01*
X6896D02*
X6908D01*
X6896Y3609D02*
X6908D01*
X6902D02*
Y3646D01*
X6896D02*
X6908D01*
X6896Y4790D02*
X6908D01*
X6902D02*
Y4827D01*
X6896D02*
X6908D01*
X6896Y5971D02*
X6908D01*
X6902D02*
Y6008D01*
X6896D02*
X6908D01*
X6896Y7152D02*
X6908D01*
X6902D02*
Y7189D01*
X6896D02*
X6908D01*
X6896Y8333D02*
X6908D01*
X6902D02*
Y8371D01*
X6896D02*
X6908D01*
X6896Y9514D02*
X6908D01*
X6902D02*
Y9552D01*
X6896D02*
X6908D01*
X6896Y10695D02*
X6908D01*
X6902D02*
Y10733D01*
X6896D02*
X6908D01*
X6896Y11876D02*
X6908D01*
X6902D02*
Y11914D01*
X6896D02*
X6908D01*
X6917Y1837D02*
Y1875D01*
Y1856D02*
X6948D01*
Y1837D02*
Y1875D01*
X6917Y3018D02*
Y3056D01*
Y3037D02*
X6948D01*
Y3018D02*
Y3056D01*
X6917Y4199D02*
Y4237D01*
Y4218D02*
X6948D01*
Y4199D02*
Y4237D01*
X6917Y5380D02*
Y5418D01*
Y5399D02*
X6948D01*
Y5380D02*
Y5418D01*
X6917Y6561D02*
Y6599D01*
Y6580D02*
X6948D01*
Y6561D02*
Y6599D01*
X6917Y7743D02*
Y7780D01*
Y7761D02*
X6948D01*
Y7743D02*
Y7780D01*
X6917Y8924D02*
Y8961D01*
Y8942D02*
X6948D01*
Y8924D02*
Y8961D01*
X6917Y10105D02*
Y10142D01*
Y10123D02*
X6948D01*
Y10105D02*
Y10142D01*
X6917Y11286D02*
Y11323D01*
Y11305D02*
X6948D01*
Y11286D02*
Y11323D01*
X6917Y12467D02*
Y12504D01*
Y12486D02*
X6948D01*
Y12467D02*
Y12504D01*
X7096Y1246D02*
X7108D01*
X7102D02*
Y1284D01*
X7096D02*
X7108D01*
X7096Y2428D02*
X7108D01*
X7102D02*
Y2465D01*
X7096D02*
X7108D01*
X7096Y3609D02*
X7108D01*
X7102D02*
Y3646D01*
X7096D02*
X7108D01*
X7096Y4790D02*
X7108D01*
X7102D02*
Y4827D01*
X7096D02*
X7108D01*
X7096Y5971D02*
X7108D01*
X7102D02*
Y6008D01*
X7096D02*
X7108D01*
X7096Y7152D02*
X7108D01*
X7102D02*
Y7189D01*
X7096D02*
X7108D01*
X7096Y8333D02*
X7108D01*
X7102D02*
Y8371D01*
X7096D02*
X7108D01*
X7096Y9514D02*
X7108D01*
X7102D02*
Y9552D01*
X7096D02*
X7108D01*
X7096Y10695D02*
X7108D01*
X7102D02*
Y10733D01*
X7096D02*
X7108D01*
X7096Y11876D02*
X7108D01*
X7102D02*
Y11914D01*
X7096D02*
X7108D01*
X7296Y1246D02*
X7308D01*
X7302D02*
Y1284D01*
X7296D02*
X7308D01*
X7296Y2428D02*
X7308D01*
X7302D02*
Y2465D01*
X7296D02*
X7308D01*
X7296Y3609D02*
X7308D01*
X7302D02*
Y3646D01*
X7296D02*
X7308D01*
X7296Y4790D02*
X7308D01*
X7302D02*
Y4827D01*
X7296D02*
X7308D01*
X7296Y5971D02*
X7308D01*
X7302D02*
Y6008D01*
X7296D02*
X7308D01*
X7296Y7152D02*
X7308D01*
X7302D02*
Y7189D01*
X7296D02*
X7308D01*
X7296Y8333D02*
X7308D01*
X7302D02*
Y8371D01*
X7296D02*
X7308D01*
X7296Y9514D02*
X7308D01*
X7302D02*
Y9552D01*
X7296D02*
X7308D01*
X7296Y10695D02*
X7308D01*
X7302D02*
Y10733D01*
X7296D02*
X7308D01*
X7296Y11876D02*
X7308D01*
X7302D02*
Y11914D01*
X7296D02*
X7308D01*
X7409Y1739D02*
Y1776D01*
Y1757D02*
X7440D01*
Y1739D02*
Y1776D01*
X7409Y1935D02*
Y1973D01*
Y1954D02*
X7440D01*
Y1935D02*
Y1973D01*
X7409Y2920D02*
Y2957D01*
Y2938D02*
X7440D01*
Y2920D02*
Y2957D01*
X7409Y3117D02*
Y3154D01*
Y3135D02*
X7440D01*
Y3117D02*
Y3154D01*
X7409Y4101D02*
Y4138D01*
Y4120D02*
X7440D01*
Y4101D02*
Y4138D01*
X7409Y4298D02*
Y4335D01*
Y4316D02*
X7440D01*
Y4298D02*
Y4335D01*
X7409Y5282D02*
Y5319D01*
Y5301D02*
X7440D01*
Y5282D02*
Y5319D01*
X7409Y5479D02*
Y5516D01*
Y5498D02*
X7440D01*
Y5479D02*
Y5516D01*
X7409Y6463D02*
Y6501D01*
Y6482D02*
X7440D01*
Y6463D02*
Y6501D01*
X7409Y6660D02*
Y6697D01*
Y6679D02*
X7440D01*
Y6660D02*
Y6697D01*
X7409Y7644D02*
Y7682D01*
Y7663D02*
X7440D01*
Y7644D02*
Y7682D01*
X7409Y7841D02*
Y7878D01*
Y7860D02*
X7440D01*
Y7841D02*
Y7878D01*
X7409Y8825D02*
Y8863D01*
Y8844D02*
X7440D01*
Y8825D02*
Y8863D01*
X7409Y9022D02*
Y9060D01*
Y9041D02*
X7440D01*
Y9022D02*
Y9060D01*
X7409Y10006D02*
Y10044D01*
Y10025D02*
X7440D01*
Y10006D02*
Y10044D01*
X7409Y10203D02*
Y10241D01*
Y10222D02*
X7440D01*
Y10203D02*
Y10241D01*
X7409Y11187D02*
Y11225D01*
Y11206D02*
X7440D01*
Y11187D02*
Y11225D01*
X7409Y11384D02*
Y11422D01*
Y11403D02*
X7440D01*
Y11384D02*
Y11422D01*
X7409Y12369D02*
Y12406D01*
Y12387D02*
X7440D01*
Y12369D02*
Y12406D01*
X7409Y12565D02*
Y12603D01*
Y12584D02*
X7440D01*
Y12565D02*
Y12603D01*
X7496Y1246D02*
X7508D01*
X7502D02*
Y1284D01*
X7496D02*
X7508D01*
X7496Y2428D02*
X7508D01*
X7502D02*
Y2465D01*
X7496D02*
X7508D01*
X7496Y3609D02*
X7508D01*
X7502D02*
Y3646D01*
X7496D02*
X7508D01*
X7496Y4790D02*
X7508D01*
X7502D02*
Y4827D01*
X7496D02*
X7508D01*
X7496Y5971D02*
X7508D01*
X7502D02*
Y6008D01*
X7496D02*
X7508D01*
X7496Y7152D02*
X7508D01*
X7502D02*
Y7189D01*
X7496D02*
X7508D01*
X7496Y8333D02*
X7508D01*
X7502D02*
Y8371D01*
X7496D02*
X7508D01*
X7496Y9514D02*
X7508D01*
X7502D02*
Y9552D01*
X7496D02*
X7508D01*
X7496Y10695D02*
X7508D01*
X7502D02*
Y10733D01*
X7496D02*
X7508D01*
X7496Y11876D02*
X7508D01*
X7502D02*
Y11914D01*
X7496D02*
X7508D01*
X7508Y1837D02*
Y1875D01*
Y1856D02*
X7539D01*
Y1837D02*
Y1875D01*
X7508Y3018D02*
Y3056D01*
Y3037D02*
X7539D01*
Y3018D02*
Y3056D01*
X7508Y4199D02*
Y4237D01*
Y4218D02*
X7539D01*
Y4199D02*
Y4237D01*
X7508Y5380D02*
Y5418D01*
Y5399D02*
X7539D01*
Y5380D02*
Y5418D01*
X7508Y6561D02*
Y6599D01*
Y6580D02*
X7539D01*
Y6561D02*
Y6599D01*
X7508Y7743D02*
Y7780D01*
Y7761D02*
X7539D01*
Y7743D02*
Y7780D01*
X7508Y8924D02*
Y8961D01*
Y8942D02*
X7539D01*
Y8924D02*
Y8961D01*
X7508Y10105D02*
Y10142D01*
Y10123D02*
X7539D01*
Y10105D02*
Y10142D01*
X7508Y11286D02*
Y11323D01*
Y11305D02*
X7539D01*
Y11286D02*
Y11323D01*
X7508Y12467D02*
Y12504D01*
Y12486D02*
X7539D01*
Y12467D02*
Y12504D01*
X7606Y1739D02*
Y1776D01*
Y1757D02*
X7637D01*
Y1739D02*
Y1776D01*
X7606Y1935D02*
Y1973D01*
Y1954D02*
X7637D01*
Y1935D02*
Y1973D01*
X7606Y2920D02*
Y2957D01*
Y2938D02*
X7637D01*
Y2920D02*
Y2957D01*
X7606Y3117D02*
Y3154D01*
Y3135D02*
X7637D01*
Y3117D02*
Y3154D01*
X7606Y4101D02*
Y4138D01*
Y4120D02*
X7637D01*
Y4101D02*
Y4138D01*
X7606Y4298D02*
Y4335D01*
Y4316D02*
X7637D01*
Y4298D02*
Y4335D01*
X7606Y5282D02*
Y5319D01*
Y5301D02*
X7637D01*
Y5282D02*
Y5319D01*
X7606Y5479D02*
Y5516D01*
Y5498D02*
X7637D01*
Y5479D02*
Y5516D01*
X7606Y6463D02*
Y6501D01*
Y6482D02*
X7637D01*
Y6463D02*
Y6501D01*
X7606Y6660D02*
Y6697D01*
Y6679D02*
X7637D01*
Y6660D02*
Y6697D01*
X7606Y7644D02*
Y7682D01*
Y7663D02*
X7637D01*
Y7644D02*
Y7682D01*
X7606Y7841D02*
Y7878D01*
Y7860D02*
X7637D01*
Y7841D02*
Y7878D01*
X7606Y8825D02*
Y8863D01*
Y8844D02*
X7637D01*
Y8825D02*
Y8863D01*
X7606Y9022D02*
Y9060D01*
Y9041D02*
X7637D01*
Y9022D02*
Y9060D01*
X7606Y10006D02*
Y10044D01*
Y10025D02*
X7637D01*
Y10006D02*
Y10044D01*
X7606Y10203D02*
Y10241D01*
Y10222D02*
X7637D01*
Y10203D02*
Y10241D01*
X7606Y11187D02*
Y11225D01*
Y11206D02*
X7637D01*
Y11187D02*
Y11225D01*
X7606Y11384D02*
Y11422D01*
Y11403D02*
X7637D01*
Y11384D02*
Y11422D01*
X7606Y12369D02*
Y12406D01*
Y12387D02*
X7637D01*
Y12369D02*
Y12406D01*
X7606Y12565D02*
Y12603D01*
Y12584D02*
X7637D01*
Y12565D02*
Y12603D01*
X7696Y1246D02*
X7708D01*
X7702D02*
Y1284D01*
X7696D02*
X7708D01*
X7696Y2428D02*
X7708D01*
X7702D02*
Y2465D01*
X7696D02*
X7708D01*
X7696Y3609D02*
X7708D01*
X7702D02*
Y3646D01*
X7696D02*
X7708D01*
X7696Y4790D02*
X7708D01*
X7702D02*
Y4827D01*
X7696D02*
X7708D01*
X7696Y5971D02*
X7708D01*
X7702D02*
Y6008D01*
X7696D02*
X7708D01*
X7696Y7152D02*
X7708D01*
X7702D02*
Y7189D01*
X7696D02*
X7708D01*
X7696Y8333D02*
X7708D01*
X7702D02*
Y8371D01*
X7696D02*
X7708D01*
X7696Y9514D02*
X7708D01*
X7702D02*
Y9552D01*
X7696D02*
X7708D01*
X7696Y10695D02*
X7708D01*
X7702D02*
Y10733D01*
X7696D02*
X7708D01*
X7696Y11876D02*
X7708D01*
X7702D02*
Y11914D01*
X7696D02*
X7708D01*
X7704Y1837D02*
Y1875D01*
Y1856D02*
X7736D01*
Y1837D02*
Y1875D01*
X7704Y3018D02*
Y3056D01*
Y3037D02*
X7736D01*
Y3018D02*
Y3056D01*
X7704Y4199D02*
Y4237D01*
Y4218D02*
X7736D01*
Y4199D02*
Y4237D01*
X7704Y5380D02*
Y5418D01*
Y5399D02*
X7736D01*
Y5380D02*
Y5418D01*
X7704Y6561D02*
Y6599D01*
Y6580D02*
X7736D01*
Y6561D02*
Y6599D01*
X7704Y7743D02*
Y7780D01*
Y7761D02*
X7736D01*
Y7743D02*
Y7780D01*
X7704Y8924D02*
Y8961D01*
Y8942D02*
X7736D01*
Y8924D02*
Y8961D01*
X7704Y10105D02*
Y10142D01*
Y10123D02*
X7736D01*
Y10105D02*
Y10142D01*
X7704Y11286D02*
Y11323D01*
Y11305D02*
X7736D01*
Y11286D02*
Y11323D01*
X7704Y12467D02*
Y12504D01*
Y12486D02*
X7736D01*
Y12467D02*
Y12504D01*
X7896Y1246D02*
X7908D01*
X7902D02*
Y1284D01*
X7896D02*
X7908D01*
X7896Y2428D02*
X7908D01*
X7902D02*
Y2465D01*
X7896D02*
X7908D01*
X7896Y3609D02*
X7908D01*
X7902D02*
Y3646D01*
X7896D02*
X7908D01*
X7896Y4790D02*
X7908D01*
X7902D02*
Y4827D01*
X7896D02*
X7908D01*
X7896Y5971D02*
X7908D01*
X7902D02*
Y6008D01*
X7896D02*
X7908D01*
X7896Y7152D02*
X7908D01*
X7902D02*
Y7189D01*
X7896D02*
X7908D01*
X7896Y8333D02*
X7908D01*
X7902D02*
Y8371D01*
X7896D02*
X7908D01*
X7896Y9514D02*
X7908D01*
X7902D02*
Y9552D01*
X7896D02*
X7908D01*
X7896Y10695D02*
X7908D01*
X7902D02*
Y10733D01*
X7896D02*
X7908D01*
X7896Y11876D02*
X7908D01*
X7902D02*
Y11914D01*
X7896D02*
X7908D01*
X8096Y1246D02*
X8108D01*
X8102D02*
Y1284D01*
X8096D02*
X8108D01*
X8096Y2428D02*
X8108D01*
X8102D02*
Y2465D01*
X8096D02*
X8108D01*
X8096Y3609D02*
X8108D01*
X8102D02*
Y3646D01*
X8096D02*
X8108D01*
X8096Y4790D02*
X8108D01*
X8102D02*
Y4827D01*
X8096D02*
X8108D01*
X8096Y5971D02*
X8108D01*
X8102D02*
Y6008D01*
X8096D02*
X8108D01*
X8096Y7152D02*
X8108D01*
X8102D02*
Y7189D01*
X8096D02*
X8108D01*
X8096Y8333D02*
X8108D01*
X8102D02*
Y8371D01*
X8096D02*
X8108D01*
X8096Y9514D02*
X8108D01*
X8102D02*
Y9552D01*
X8096D02*
X8108D01*
X8096Y10695D02*
X8108D01*
X8102D02*
Y10733D01*
X8096D02*
X8108D01*
X8096Y11876D02*
X8108D01*
X8102D02*
Y11914D01*
X8096D02*
X8108D01*
X8197Y1739D02*
Y1776D01*
Y1757D02*
X8228D01*
Y1739D02*
Y1776D01*
X8197Y1935D02*
Y1973D01*
Y1954D02*
X8228D01*
Y1935D02*
Y1973D01*
X8197Y2920D02*
Y2957D01*
Y2938D02*
X8228D01*
Y2920D02*
Y2957D01*
X8197Y3117D02*
Y3154D01*
Y3135D02*
X8228D01*
Y3117D02*
Y3154D01*
X8197Y4101D02*
Y4138D01*
Y4120D02*
X8228D01*
Y4101D02*
Y4138D01*
X8197Y4298D02*
Y4335D01*
Y4316D02*
X8228D01*
Y4298D02*
Y4335D01*
X8197Y5282D02*
Y5319D01*
Y5301D02*
X8228D01*
Y5282D02*
Y5319D01*
X8197Y5479D02*
Y5516D01*
Y5498D02*
X8228D01*
Y5479D02*
Y5516D01*
X8197Y6463D02*
Y6501D01*
Y6482D02*
X8228D01*
Y6463D02*
Y6501D01*
X8197Y6660D02*
Y6697D01*
Y6679D02*
X8228D01*
Y6660D02*
Y6697D01*
X8197Y7644D02*
Y7682D01*
Y7663D02*
X8228D01*
Y7644D02*
Y7682D01*
X8197Y7841D02*
Y7878D01*
Y7860D02*
X8228D01*
Y7841D02*
Y7878D01*
X8197Y8825D02*
Y8863D01*
Y8844D02*
X8228D01*
Y8825D02*
Y8863D01*
X8197Y9022D02*
Y9060D01*
Y9041D02*
X8228D01*
Y9022D02*
Y9060D01*
X8197Y10006D02*
Y10044D01*
Y10025D02*
X8228D01*
Y10006D02*
Y10044D01*
X8197Y10203D02*
Y10241D01*
Y10222D02*
X8228D01*
Y10203D02*
Y10241D01*
X8197Y11187D02*
Y11225D01*
Y11206D02*
X8228D01*
Y11187D02*
Y11225D01*
X8197Y11384D02*
Y11422D01*
Y11403D02*
X8228D01*
Y11384D02*
Y11422D01*
X8197Y12369D02*
Y12406D01*
Y12387D02*
X8228D01*
Y12369D02*
Y12406D01*
X8197Y12565D02*
Y12603D01*
Y12584D02*
X8228D01*
Y12565D02*
Y12603D01*
X8296Y1246D02*
X8308D01*
X8302D02*
Y1284D01*
X8296D02*
X8308D01*
X8296Y2428D02*
X8308D01*
X8302D02*
Y2465D01*
X8296D02*
X8308D01*
X8296Y3609D02*
X8308D01*
X8302D02*
Y3646D01*
X8296D02*
X8308D01*
X8296Y4790D02*
X8308D01*
X8302D02*
Y4827D01*
X8296D02*
X8308D01*
X8296Y5971D02*
X8308D01*
X8302D02*
Y6008D01*
X8296D02*
X8308D01*
X8296Y7152D02*
X8308D01*
X8302D02*
Y7189D01*
X8296D02*
X8308D01*
X8296Y8333D02*
X8308D01*
X8302D02*
Y8371D01*
X8296D02*
X8308D01*
X8296Y9514D02*
X8308D01*
X8302D02*
Y9552D01*
X8296D02*
X8308D01*
X8296Y10695D02*
X8308D01*
X8302D02*
Y10733D01*
X8296D02*
X8308D01*
X8296Y11876D02*
X8308D01*
X8302D02*
Y11914D01*
X8296D02*
X8308D01*
X8295Y1837D02*
Y1875D01*
Y1856D02*
X8326D01*
Y1837D02*
Y1875D01*
X8295Y3018D02*
Y3056D01*
Y3037D02*
X8326D01*
Y3018D02*
Y3056D01*
X8295Y4199D02*
Y4237D01*
Y4218D02*
X8326D01*
Y4199D02*
Y4237D01*
X8295Y5380D02*
Y5418D01*
Y5399D02*
X8326D01*
Y5380D02*
Y5418D01*
X8295Y6561D02*
Y6599D01*
Y6580D02*
X8326D01*
Y6561D02*
Y6599D01*
X8295Y7743D02*
Y7780D01*
Y7761D02*
X8326D01*
Y7743D02*
Y7780D01*
X8295Y8924D02*
Y8961D01*
Y8942D02*
X8326D01*
Y8924D02*
Y8961D01*
X8295Y10105D02*
Y10142D01*
Y10123D02*
X8326D01*
Y10105D02*
Y10142D01*
X8295Y11286D02*
Y11323D01*
Y11305D02*
X8326D01*
Y11286D02*
Y11323D01*
X8295Y12467D02*
Y12504D01*
Y12486D02*
X8326D01*
Y12467D02*
Y12504D01*
X8393Y1739D02*
Y1776D01*
Y1757D02*
X8425D01*
Y1739D02*
Y1776D01*
X8393Y1935D02*
Y1973D01*
Y1954D02*
X8425D01*
Y1935D02*
Y1973D01*
X8393Y2920D02*
Y2957D01*
Y2938D02*
X8425D01*
Y2920D02*
Y2957D01*
X8393Y3117D02*
Y3154D01*
Y3135D02*
X8425D01*
Y3117D02*
Y3154D01*
X8393Y4101D02*
Y4138D01*
Y4120D02*
X8425D01*
Y4101D02*
Y4138D01*
X8393Y4298D02*
Y4335D01*
Y4316D02*
X8425D01*
Y4298D02*
Y4335D01*
X8393Y5282D02*
Y5319D01*
Y5301D02*
X8425D01*
Y5282D02*
Y5319D01*
X8393Y5479D02*
Y5516D01*
Y5498D02*
X8425D01*
Y5479D02*
Y5516D01*
X8393Y6463D02*
Y6501D01*
Y6482D02*
X8425D01*
Y6463D02*
Y6501D01*
X8393Y6660D02*
Y6697D01*
Y6679D02*
X8425D01*
Y6660D02*
Y6697D01*
X8393Y7644D02*
Y7682D01*
Y7663D02*
X8425D01*
Y7644D02*
Y7682D01*
X8393Y7841D02*
Y7878D01*
Y7860D02*
X8425D01*
Y7841D02*
Y7878D01*
X8393Y8825D02*
Y8863D01*
Y8844D02*
X8425D01*
Y8825D02*
Y8863D01*
X8393Y9022D02*
Y9060D01*
Y9041D02*
X8425D01*
Y9022D02*
Y9060D01*
X8393Y10006D02*
Y10044D01*
Y10025D02*
X8425D01*
Y10006D02*
Y10044D01*
X8393Y10203D02*
Y10241D01*
Y10222D02*
X8425D01*
Y10203D02*
Y10241D01*
X8393Y11187D02*
Y11225D01*
Y11206D02*
X8425D01*
Y11187D02*
Y11225D01*
X8393Y11384D02*
Y11422D01*
Y11403D02*
X8425D01*
Y11384D02*
Y11422D01*
X8393Y12369D02*
Y12406D01*
Y12387D02*
X8425D01*
Y12369D02*
Y12406D01*
X8393Y12565D02*
Y12603D01*
Y12584D02*
X8425D01*
Y12565D02*
Y12603D01*
X8496Y1246D02*
X8508D01*
X8502D02*
Y1284D01*
X8496D02*
X8508D01*
X8496Y2428D02*
X8508D01*
X8502D02*
Y2465D01*
X8496D02*
X8508D01*
X8496Y3609D02*
X8508D01*
X8502D02*
Y3646D01*
X8496D02*
X8508D01*
X8496Y4790D02*
X8508D01*
X8502D02*
Y4827D01*
X8496D02*
X8508D01*
X8496Y5971D02*
X8508D01*
X8502D02*
Y6008D01*
X8496D02*
X8508D01*
X8496Y7152D02*
X8508D01*
X8502D02*
Y7189D01*
X8496D02*
X8508D01*
X8496Y8333D02*
X8508D01*
X8502D02*
Y8371D01*
X8496D02*
X8508D01*
X8496Y9514D02*
X8508D01*
X8502D02*
Y9552D01*
X8496D02*
X8508D01*
X8496Y10695D02*
X8508D01*
X8502D02*
Y10733D01*
X8496D02*
X8508D01*
X8496Y11876D02*
X8508D01*
X8502D02*
Y11914D01*
X8496D02*
X8508D01*
X8492Y1837D02*
Y1875D01*
Y1856D02*
X8523D01*
Y1837D02*
Y1875D01*
X8492Y3018D02*
Y3056D01*
Y3037D02*
X8523D01*
Y3018D02*
Y3056D01*
X8492Y4199D02*
Y4237D01*
Y4218D02*
X8523D01*
Y4199D02*
Y4237D01*
X8492Y5380D02*
Y5418D01*
Y5399D02*
X8523D01*
Y5380D02*
Y5418D01*
X8492Y6561D02*
Y6599D01*
Y6580D02*
X8523D01*
Y6561D02*
Y6599D01*
X8492Y7743D02*
Y7780D01*
Y7761D02*
X8523D01*
Y7743D02*
Y7780D01*
X8492Y8924D02*
Y8961D01*
Y8942D02*
X8523D01*
Y8924D02*
Y8961D01*
X8492Y10105D02*
Y10142D01*
Y10123D02*
X8523D01*
Y10105D02*
Y10142D01*
X8492Y11286D02*
Y11323D01*
Y11305D02*
X8523D01*
Y11286D02*
Y11323D01*
X8492Y12467D02*
Y12504D01*
Y12486D02*
X8523D01*
Y12467D02*
Y12504D01*
X8696Y1246D02*
X8708D01*
X8702D02*
Y1284D01*
X8696D02*
X8708D01*
X8696Y2428D02*
X8708D01*
X8702D02*
Y2465D01*
X8696D02*
X8708D01*
X8696Y3609D02*
X8708D01*
X8702D02*
Y3646D01*
X8696D02*
X8708D01*
X8696Y4790D02*
X8708D01*
X8702D02*
Y4827D01*
X8696D02*
X8708D01*
X8696Y5971D02*
X8708D01*
X8702D02*
Y6008D01*
X8696D02*
X8708D01*
X8696Y7152D02*
X8708D01*
X8702D02*
Y7189D01*
X8696D02*
X8708D01*
X8696Y8333D02*
X8708D01*
X8702D02*
Y8371D01*
X8696D02*
X8708D01*
X8696Y9514D02*
X8708D01*
X8702D02*
Y9552D01*
X8696D02*
X8708D01*
X8696Y10695D02*
X8708D01*
X8702D02*
Y10733D01*
X8696D02*
X8708D01*
X8696Y11876D02*
X8708D01*
X8702D02*
Y11914D01*
X8696D02*
X8708D01*
X9161Y497D02*
Y459D01*
X9192*
X9161Y1284D02*
Y1246D01*
X9192*
X9161Y2465D02*
Y2428D01*
X9192*
X9161Y3646D02*
Y3609D01*
X9192*
X9161Y4827D02*
Y4790D01*
X9192*
X9161Y6008D02*
Y5971D01*
X9192*
X9161Y7189D02*
Y7152D01*
X9192*
X9161Y8371D02*
Y8333D01*
X9192*
X9161Y9552D02*
Y9514D01*
X9192*
X9161Y10733D02*
Y10695D01*
X9192*
X9161Y11914D02*
Y11876D01*
X9192*
X9161Y13095D02*
Y13058D01*
X9192*
X0Y0D02*
M02*
