  0
SECTION
  2
HEADER
  9
$EXTMIN
 10
389.1
 20
335.8
  9
$EXTMAX
 10
629.4
 20
694.2
  9
$LIMMIN
 10
389.1
 20
335.8
  9
$LIMMAX
 10
629.4
 20
694.2
  0
ENDSEC
  0
SECTION
  2
TABLES
  0
TABLE
  2
LAYER
 70
    18
  0
LAYER
  2
0
 70
    64
 62
     7
  6
CONTINUOUS
  0
LAYER
  2
_BOARD
 70
    64
 62
    254
  6
CONTINUOUS
  0
LAYER
  2
_DRILL
 70
    64
 62
    251
  6
CONTINUOUS
  0
ENDTAB
  0
ENDSEC
  0
SECTION
  2
BLOCKS
  0
BLOCK
  8
0
  2
_HOLE
 70
    64
 10
0.0
 20
0.0
  0
CIRCLE
  8
0
 10
0.0
 20
0.0
 40
0.500
  0
ENDBLK
  8
0
  0
ENDSEC
  0
SECTION
  2
ENTITIES
  0
POLYLINE
  8
_BOARD
 66
     1
 62
     3
 10
0.0
 20
0.0
 70
     1
 40
0.0
 41
0.0
  0
VERTEX
  8
_BOARD
 10
389.3
 20
336.0
 40
0.0
 41
0.0
  0
VERTEX
  8
_BOARD
 10
629.3
 20
336.0
  0
VERTEX
  8
_BOARD
 10
629.3
 20
336.0
 40
0.0
 41
0.0
  0
VERTEX
  8
_BOARD
 10
629.3
 20
694.0
  0
VERTEX
  8
_BOARD
 10
629.3
 20
694.0
 40
0.0
 41
0.0
  0
VERTEX
  8
_BOARD
 10
389.3
 20
694.0
  0
VERTEX
  8
_BOARD
 10
389.3
 20
694.0
 40
0.0
 41
0.0
  0
VERTEX
  8
_BOARD
 10
389.3
 20
336.0
 40
0.0
 41
0.0
  0
VERTEX
  8
_BOARD
 10
389.3
 20
336.0
  0
SEQEND
  8
_BOARD
  0
INSERT
  8
_DRILL
  2
_HOLE
 10
524.5
 20
365.0
 41
0.6
 42
0.6
  0
INSERT
  8
_DRILL
  2
_HOLE
 10
524.5
 20
371.0
 41
0.6
 42
0.6
  0
INSERT
  8
_DRILL
  2
_HOLE
 10
524.5
 20
377.0
 41
0.6
 42
0.6
  0
INSERT
  8
_DRILL
  2
_HOLE
 10
524.5
 20
402.0
 41
0.6
 42
0.6
  0
INSERT
  8
_DRILL
  2
_HOLE
 10
524.5
 20
408.0
 41
0.6
 42
0.6
  0
INSERT
  8
_DRILL
  2
_HOLE
 10
524.5
 20
414.0
 41
0.6
 42
0.6
  0
INSERT
  8
_DRILL
  2
_HOLE
 10
513.5
 20
365.0
 41
0.6
 42
0.6
  0
INSERT
  8
_DRILL
  2
_HOLE
 10
513.5
 20
371.0
 41
0.6
 42
0.6
  0
INSERT
  8
_DRILL
  2
_HOLE
 10
513.5
 20
377.0
 41
0.6
 42
0.6
  0
INSERT
  8
_DRILL
  2
_HOLE
 10
513.5
 20
402.0
 41
0.6
 42
0.6
  0
INSERT
  8
_DRILL
  2
_HOLE
 10
513.5
 20
408.0
 41
0.6
 42
0.6
  0
INSERT
  8
_DRILL
  2
_HOLE
 10
513.5
 20
414.0
 41
0.6
 42
0.6
  0
INSERT
  8
_DRILL
  2
_HOLE
 10
524.5
 20
617.0
 41
0.6
 42
0.6
  0
INSERT
  8
_DRILL
  2
_HOLE
 10
524.5
 20
623.0
 41
0.6
 42
0.6
  0
INSERT
  8
_DRILL
  2
_HOLE
 10
524.5
 20
629.0
 41
0.6
 42
0.6
  0
INSERT
  8
_DRILL
  2
_HOLE
 10
524.5
 20
655.5
 41
0.6
 42
0.6
  0
INSERT
  8
_DRILL
  2
_HOLE
 10
524.5
 20
661.5
 41
0.6
 42
0.6
  0
INSERT
  8
_DRILL
  2
_HOLE
 10
524.5
 20
667.5
 41
0.6
 42
0.6
  0
INSERT
  8
_DRILL
  2
_HOLE
 10
513.5
 20
617.0
 41
0.6
 42
0.6
  0
INSERT
  8
_DRILL
  2
_HOLE
 10
513.5
 20
623.0
 41
0.6
 42
0.6
  0
INSERT
  8
_DRILL
  2
_HOLE
 10
513.5
 20
629.0
 41
0.6
 42
0.6
  0
INSERT
  8
_DRILL
  2
_HOLE
 10
513.5
 20
655.5
 41
0.6
 42
0.6
  0
INSERT
  8
_DRILL
  2
_HOLE
 10
513.5
 20
661.5
 41
0.6
 42
0.6
  0
INSERT
  8
_DRILL
  2
_HOLE
 10
513.5
 20
667.5
 41
0.6
 42
0.6
  0
INSERT
  8
_DRILL
  2
_HOLE
 10
524.5
 20
461.5
 41
0.6
 42
0.6
  0
INSERT
  8
_DRILL
  2
_HOLE
 10
524.5
 20
467.5
 41
0.6
 42
0.6
  0
INSERT
  8
_DRILL
  2
_HOLE
 10
524.5
 20
473.5
 41
0.6
 42
0.6
  0
INSERT
  8
_DRILL
  2
_HOLE
 10
524.5
 20
502.0
 41
0.6
 42
0.6
  0
INSERT
  8
_DRILL
  2
_HOLE
 10
524.5
 20
508.0
 41
0.6
 42
0.6
  0
INSERT
  8
_DRILL
  2
_HOLE
 10
524.5
 20
514.0
 41
0.6
 42
0.6
  0
INSERT
  8
_DRILL
  2
_HOLE
 10
513.5
 20
461.5
 41
0.6
 42
0.6
  0
INSERT
  8
_DRILL
  2
_HOLE
 10
513.5
 20
467.5
 41
0.6
 42
0.6
  0
INSERT
  8
_DRILL
  2
_HOLE
 10
513.5
 20
473.5
 41
0.6
 42
0.6
  0
INSERT
  8
_DRILL
  2
_HOLE
 10
513.5
 20
502.0
 41
0.6
 42
0.6
  0
INSERT
  8
_DRILL
  2
_HOLE
 10
513.5
 20
508.0
 41
0.6
 42
0.6
  0
INSERT
  8
_DRILL
  2
_HOLE
 10
513.5
 20
514.0
 41
0.6
 42
0.6
  0
INSERT
  8
_DRILL
  2
_HOLE
 10
443.0
 20
661.5
 41
0.8
 42
0.8
  0
INSERT
  8
_DRILL
  2
_HOLE
 10
440.5
 20
661.5
 41
0.8
 42
0.8
  0
INSERT
  8
_DRILL
  2
_HOLE
 10
440.0
 20
421.5
 41
0.8
 42
0.8
  0
INSERT
  8
_DRILL
  2
_HOLE
 10
437.5
 20
421.5
 41
0.8
 42
0.8
  0
INSERT
  8
_DRILL
  2
_HOLE
 10
473.5
 20
571.5
 41
0.8
 42
0.8
  0
INSERT
  8
_DRILL
  2
_HOLE
 10
471.0
 20
571.5
 41
0.8
 42
0.8
  0
INSERT
  8
_DRILL
  2
_HOLE
 10
464.0
 20
606.0
 41
1.0
 42
1.0
  0
INSERT
  8
_DRILL
  2
_HOLE
 10
461.5
 20
606.0
 41
1.0
 42
1.0
  0
INSERT
  8
_DRILL
  2
_HOLE
 10
458.9
 20
606.0
 41
1.0
 42
1.0
  0
INSERT
  8
_DRILL
  2
_HOLE
 10
468.0
 20
364.0
 41
1.0
 42
1.0
  0
INSERT
  8
_DRILL
  2
_HOLE
 10
465.5
 20
364.0
 41
1.0
 42
1.0
  0
INSERT
  8
_DRILL
  2
_HOLE
 10
462.9
 20
364.0
 41
1.0
 42
1.0
  0
INSERT
  8
_DRILL
  2
_HOLE
 10
431.9
 20
516.0
 41
1.0
 42
1.0
  0
INSERT
  8
_DRILL
  2
_HOLE
 10
431.9
 20
518.5
 41
1.0
 42
1.0
  0
INSERT
  8
_DRILL
  2
_HOLE
 10
431.9
 20
521.1
 41
1.0
 42
1.0
  0
INSERT
  8
_DRILL
  2
_HOLE
 10
476.0
 20
606.4
 41
1.0
 42
1.0
  0
INSERT
  8
_DRILL
  2
_HOLE
 10
473.5
 20
603.6
 41
1.0
 42
1.0
  0
INSERT
  8
_DRILL
  2
_HOLE
 10
470.9
 20
606.4
 41
1.0
 42
1.0
  0
INSERT
  8
_DRILL
  2
_HOLE
 10
478.0
 20
362.4
 41
1.0
 42
1.0
  0
INSERT
  8
_DRILL
  2
_HOLE
 10
475.5
 20
359.6
 41
1.0
 42
1.0
  0
INSERT
  8
_DRILL
  2
_HOLE
 10
472.9
 20
362.4
 41
1.0
 42
1.0
  0
INSERT
  8
_DRILL
  2
_HOLE
 10
431.2
 20
489.3
 41
1.0
 42
1.0
  0
INSERT
  8
_DRILL
  2
_HOLE
 10
428.4
 20
491.9
 41
1.0
 42
1.0
  0
INSERT
  8
_DRILL
  2
_HOLE
 10
431.2
 20
494.4
 41
1.0
 42
1.0
  0
INSERT
  8
_DRILL
  2
_HOLE
 10
553.3
 20
644.0
 41
3.3
 42
3.3
  0
INSERT
  8
_DRILL
  2
_HOLE
 10
600.4
 20
644.0
 41
3.3
 42
3.3
  0
INSERT
  8
_DRILL
  2
_HOLE
 10
591.3
 20
644.0
 41
4.0
 42
4.0
  0
INSERT
  8
_DRILL
  2
_HOLE
 10
582.8
 20
644.0
 41
4.0
 42
4.0
  0
INSERT
  8
_DRILL
  2
_HOLE
 10
576.0
 20
644.0
 41
4.0
 42
4.0
  0
INSERT
  8
_DRILL
  2
_HOLE
 10
569.2
 20
644.0
 41
4.0
 42
4.0
  0
INSERT
  8
_DRILL
  2
_HOLE
 10
562.4
 20
644.0
 41
4.0
 42
4.0
  0
INSERT
  8
_DRILL
  2
_HOLE
 10
588.5
 20
656.5
 41
1.2
 42
1.2
  0
INSERT
  8
_DRILL
  2
_HOLE
 10
591.0
 20
659.0
 41
1.2
 42
1.2
  0
INSERT
  8
_DRILL
  2
_HOLE
 10
596.0
 20
659.0
 41
1.2
 42
1.2
  0
INSERT
  8
_DRILL
  2
_HOLE
 10
593.5
 20
656.5
 41
1.2
 42
1.2
  0
INSERT
  8
_DRILL
  2
_HOLE
 10
593.5
 20
661.5
 41
1.2
 42
1.2
  0
INSERT
  8
_DRILL
  2
_HOLE
 10
588.5
 20
661.5
 41
1.2
 42
1.2
  0
INSERT
  8
_DRILL
  2
_HOLE
 10
568.5
 20
656.5
 41
1.2
 42
1.2
  0
INSERT
  8
_DRILL
  2
_HOLE
 10
571.0
 20
659.0
 41
1.2
 42
1.2
  0
INSERT
  8
_DRILL
  2
_HOLE
 10
576.0
 20
659.0
 41
1.2
 42
1.2
  0
INSERT
  8
_DRILL
  2
_HOLE
 10
573.5
 20
656.5
 41
1.2
 42
1.2
  0
INSERT
  8
_DRILL
  2
_HOLE
 10
573.5
 20
661.5
 41
1.2
 42
1.2
  0
INSERT
  8
_DRILL
  2
_HOLE
 10
568.5
 20
661.5
 41
1.2
 42
1.2
  0
INSERT
  8
_DRILL
  2
_HOLE
 10
548.5
 20
656.5
 41
1.2
 42
1.2
  0
INSERT
  8
_DRILL
  2
_HOLE
 10
551.0
 20
659.0
 41
1.2
 42
1.2
  0
INSERT
  8
_DRILL
  2
_HOLE
 10
556.0
 20
659.0
 41
1.2
 42
1.2
  0
INSERT
  8
_DRILL
  2
_HOLE
 10
553.5
 20
656.5
 41
1.2
 42
1.2
  0
INSERT
  8
_DRILL
  2
_HOLE
 10
553.5
 20
661.5
 41
1.2
 42
1.2
  0
INSERT
  8
_DRILL
  2
_HOLE
 10
548.5
 20
661.5
 41
1.2
 42
1.2
  0
INSERT
  8
_DRILL
  2
_HOLE
 10
553.3
 20
614.0
 41
3.3
 42
3.3
  0
INSERT
  8
_DRILL
  2
_HOLE
 10
600.4
 20
614.0
 41
3.3
 42
3.3
  0
INSERT
  8
_DRILL
  2
_HOLE
 10
591.3
 20
614.0
 41
4.0
 42
4.0
  0
INSERT
  8
_DRILL
  2
_HOLE
 10
582.8
 20
614.0
 41
4.0
 42
4.0
  0
INSERT
  8
_DRILL
  2
_HOLE
 10
576.0
 20
614.0
 41
4.0
 42
4.0
  0
INSERT
  8
_DRILL
  2
_HOLE
 10
569.2
 20
614.0
 41
4.0
 42
4.0
  0
INSERT
  8
_DRILL
  2
_HOLE
 10
562.4
 20
614.0
 41
4.0
 42
4.0
  0
INSERT
  8
_DRILL
  2
_HOLE
 10
588.5
 20
626.5
 41
1.2
 42
1.2
  0
INSERT
  8
_DRILL
  2
_HOLE
 10
591.0
 20
629.0
 41
1.2
 42
1.2
  0
INSERT
  8
_DRILL
  2
_HOLE
 10
596.0
 20
629.0
 41
1.2
 42
1.2
  0
INSERT
  8
_DRILL
  2
_HOLE
 10
593.5
 20
626.5
 41
1.2
 42
1.2
  0
INSERT
  8
_DRILL
  2
_HOLE
 10
593.5
 20
631.5
 41
1.2
 42
1.2
  0
INSERT
  8
_DRILL
  2
_HOLE
 10
588.5
 20
631.5
 41
1.2
 42
1.2
  0
INSERT
  8
_DRILL
  2
_HOLE
 10
568.5
 20
626.5
 41
1.2
 42
1.2
  0
INSERT
  8
_DRILL
  2
_HOLE
 10
571.0
 20
629.0
 41
1.2
 42
1.2
  0
INSERT
  8
_DRILL
  2
_HOLE
 10
576.0
 20
629.0
 41
1.2
 42
1.2
  0
INSERT
  8
_DRILL
  2
_HOLE
 10
573.5
 20
626.5
 41
1.2
 42
1.2
  0
INSERT
  8
_DRILL
  2
_HOLE
 10
573.5
 20
631.5
 41
1.2
 42
1.2
  0
INSERT
  8
_DRILL
  2
_HOLE
 10
568.5
 20
631.5
 41
1.2
 42
1.2
  0
INSERT
  8
_DRILL
  2
_HOLE
 10
548.5
 20
626.5
 41
1.2
 42
1.2
  0
INSERT
  8
_DRILL
  2
_HOLE
 10
551.0
 20
629.0
 41
1.2
 42
1.2
  0
INSERT
  8
_DRILL
  2
_HOLE
 10
556.0
 20
629.0
 41
1.2
 42
1.2
  0
INSERT
  8
_DRILL
  2
_HOLE
 10
553.5
 20
626.5
 41
1.2
 42
1.2
  0
INSERT
  8
_DRILL
  2
_HOLE
 10
553.5
 20
631.5
 41
1.2
 42
1.2
  0
INSERT
  8
_DRILL
  2
_HOLE
 10
548.5
 20
631.5
 41
1.2
 42
1.2
  0
INSERT
  8
_DRILL
  2
_HOLE
 10
553.3
 20
584.0
 41
3.3
 42
3.3
  0
INSERT
  8
_DRILL
  2
_HOLE
 10
600.4
 20
584.0
 41
3.3
 42
3.3
  0
INSERT
  8
_DRILL
  2
_HOLE
 10
591.3
 20
584.0
 41
4.0
 42
4.0
  0
INSERT
  8
_DRILL
  2
_HOLE
 10
582.8
 20
584.0
 41
4.0
 42
4.0
  0
INSERT
  8
_DRILL
  2
_HOLE
 10
576.0
 20
584.0
 41
4.0
 42
4.0
  0
INSERT
  8
_DRILL
  2
_HOLE
 10
569.2
 20
584.0
 41
4.0
 42
4.0
  0
INSERT
  8
_DRILL
  2
_HOLE
 10
562.4
 20
584.0
 41
4.0
 42
4.0
  0
INSERT
  8
_DRILL
  2
_HOLE
 10
588.5
 20
596.5
 41
1.2
 42
1.2
  0
INSERT
  8
_DRILL
  2
_HOLE
 10
591.0
 20
599.0
 41
1.2
 42
1.2
  0
INSERT
  8
_DRILL
  2
_HOLE
 10
596.0
 20
599.0
 41
1.2
 42
1.2
  0
INSERT
  8
_DRILL
  2
_HOLE
 10
593.5
 20
596.5
 41
1.2
 42
1.2
  0
INSERT
  8
_DRILL
  2
_HOLE
 10
593.5
 20
601.5
 41
1.2
 42
1.2
  0
INSERT
  8
_DRILL
  2
_HOLE
 10
588.5
 20
601.5
 41
1.2
 42
1.2
  0
INSERT
  8
_DRILL
  2
_HOLE
 10
568.5
 20
596.5
 41
1.2
 42
1.2
  0
INSERT
  8
_DRILL
  2
_HOLE
 10
571.0
 20
599.0
 41
1.2
 42
1.2
  0
INSERT
  8
_DRILL
  2
_HOLE
 10
576.0
 20
599.0
 41
1.2
 42
1.2
  0
INSERT
  8
_DRILL
  2
_HOLE
 10
573.5
 20
596.5
 41
1.2
 42
1.2
  0
INSERT
  8
_DRILL
  2
_HOLE
 10
573.5
 20
601.5
 41
1.2
 42
1.2
  0
INSERT
  8
_DRILL
  2
_HOLE
 10
568.5
 20
601.5
 41
1.2
 42
1.2
  0
INSERT
  8
_DRILL
  2
_HOLE
 10
548.5
 20
596.5
 41
1.2
 42
1.2
  0
INSERT
  8
_DRILL
  2
_HOLE
 10
551.0
 20
599.0
 41
1.2
 42
1.2
  0
INSERT
  8
_DRILL
  2
_HOLE
 10
556.0
 20
599.0
 41
1.2
 42
1.2
  0
INSERT
  8
_DRILL
  2
_HOLE
 10
553.5
 20
596.5
 41
1.2
 42
1.2
  0
INSERT
  8
_DRILL
  2
_HOLE
 10
553.5
 20
601.5
 41
1.2
 42
1.2
  0
INSERT
  8
_DRILL
  2
_HOLE
 10
548.5
 20
601.5
 41
1.2
 42
1.2
  0
INSERT
  8
_DRILL
  2
_HOLE
 10
553.3
 20
554.0
 41
3.3
 42
3.3
  0
INSERT
  8
_DRILL
  2
_HOLE
 10
600.4
 20
554.0
 41
3.3
 42
3.3
  0
INSERT
  8
_DRILL
  2
_HOLE
 10
591.3
 20
554.0
 41
4.0
 42
4.0
  0
INSERT
  8
_DRILL
  2
_HOLE
 10
582.8
 20
554.0
 41
4.0
 42
4.0
  0
INSERT
  8
_DRILL
  2
_HOLE
 10
576.0
 20
554.0
 41
4.0
 42
4.0
  0
INSERT
  8
_DRILL
  2
_HOLE
 10
569.2
 20
554.0
 41
4.0
 42
4.0
  0
INSERT
  8
_DRILL
  2
_HOLE
 10
562.4
 20
554.0
 41
4.0
 42
4.0
  0
INSERT
  8
_DRILL
  2
_HOLE
 10
588.5
 20
567.3
 41
1.2
 42
1.2
  0
INSERT
  8
_DRILL
  2
_HOLE
 10
591.0
 20
569.8
 41
1.2
 42
1.2
  0
INSERT
  8
_DRILL
  2
_HOLE
 10
596.0
 20
569.8
 41
1.2
 42
1.2
  0
INSERT
  8
_DRILL
  2
_HOLE
 10
593.5
 20
567.3
 41
1.2
 42
1.2
  0
INSERT
  8
_DRILL
  2
_HOLE
 10
593.5
 20
572.3
 41
1.2
 42
1.2
  0
INSERT
  8
_DRILL
  2
_HOLE
 10
588.5
 20
572.3
 41
1.2
 42
1.2
  0
INSERT
  8
_DRILL
  2
_HOLE
 10
568.5
 20
567.3
 41
1.2
 42
1.2
  0
INSERT
  8
_DRILL
  2
_HOLE
 10
571.0
 20
569.8
 41
1.2
 42
1.2
  0
INSERT
  8
_DRILL
  2
_HOLE
 10
576.0
 20
569.8
 41
1.2
 42
1.2
  0
INSERT
  8
_DRILL
  2
_HOLE
 10
573.5
 20
567.3
 41
1.2
 42
1.2
  0
INSERT
  8
_DRILL
  2
_HOLE
 10
573.5
 20
572.3
 41
1.2
 42
1.2
  0
INSERT
  8
_DRILL
  2
_HOLE
 10
568.5
 20
572.3
 41
1.2
 42
1.2
  0
INSERT
  8
_DRILL
  2
_HOLE
 10
548.5
 20
567.3
 41
1.2
 42
1.2
  0
INSERT
  8
_DRILL
  2
_HOLE
 10
551.0
 20
569.8
 41
1.2
 42
1.2
  0
INSERT
  8
_DRILL
  2
_HOLE
 10
556.0
 20
569.8
 41
1.2
 42
1.2
  0
INSERT
  8
_DRILL
  2
_HOLE
 10
553.5
 20
567.3
 41
1.2
 42
1.2
  0
INSERT
  8
_DRILL
  2
_HOLE
 10
553.5
 20
572.3
 41
1.2
 42
1.2
  0
INSERT
  8
_DRILL
  2
_HOLE
 10
548.5
 20
572.3
 41
1.2
 42
1.2
  0
INSERT
  8
_DRILL
  2
_HOLE
 10
553.3
 20
524.0
 41
3.3
 42
3.3
  0
INSERT
  8
_DRILL
  2
_HOLE
 10
600.4
 20
524.0
 41
3.3
 42
3.3
  0
INSERT
  8
_DRILL
  2
_HOLE
 10
591.3
 20
524.0
 41
4.0
 42
4.0
  0
INSERT
  8
_DRILL
  2
_HOLE
 10
582.8
 20
524.0
 41
4.0
 42
4.0
  0
INSERT
  8
_DRILL
  2
_HOLE
 10
576.0
 20
524.0
 41
4.0
 42
4.0
  0
INSERT
  8
_DRILL
  2
_HOLE
 10
569.2
 20
524.0
 41
4.0
 42
4.0
  0
INSERT
  8
_DRILL
  2
_HOLE
 10
562.4
 20
524.0
 41
4.0
 42
4.0
  0
INSERT
  8
_DRILL
  2
_HOLE
 10
588.5
 20
536.5
 41
1.2
 42
1.2
  0
INSERT
  8
_DRILL
  2
_HOLE
 10
591.0
 20
539.0
 41
1.2
 42
1.2
  0
INSERT
  8
_DRILL
  2
_HOLE
 10
596.0
 20
539.0
 41
1.2
 42
1.2
  0
INSERT
  8
_DRILL
  2
_HOLE
 10
593.5
 20
536.5
 41
1.2
 42
1.2
  0
INSERT
  8
_DRILL
  2
_HOLE
 10
593.5
 20
541.5
 41
1.2
 42
1.2
  0
INSERT
  8
_DRILL
  2
_HOLE
 10
588.5
 20
541.5
 41
1.2
 42
1.2
  0
INSERT
  8
_DRILL
  2
_HOLE
 10
568.5
 20
536.5
 41
1.2
 42
1.2
  0
INSERT
  8
_DRILL
  2
_HOLE
 10
571.0
 20
539.0
 41
1.2
 42
1.2
  0
INSERT
  8
_DRILL
  2
_HOLE
 10
576.0
 20
539.0
 41
1.2
 42
1.2
  0
INSERT
  8
_DRILL
  2
_HOLE
 10
573.5
 20
536.5
 41
1.2
 42
1.2
  0
INSERT
  8
_DRILL
  2
_HOLE
 10
573.5
 20
541.5
 41
1.2
 42
1.2
  0
INSERT
  8
_DRILL
  2
_HOLE
 10
568.5
 20
541.5
 41
1.2
 42
1.2
  0
INSERT
  8
_DRILL
  2
_HOLE
 10
548.5
 20
536.5
 41
1.2
 42
1.2
  0
INSERT
  8
_DRILL
  2
_HOLE
 10
551.0
 20
539.0
 41
1.2
 42
1.2
  0
INSERT
  8
_DRILL
  2
_HOLE
 10
556.0
 20
539.0
 41
1.2
 42
1.2
  0
INSERT
  8
_DRILL
  2
_HOLE
 10
553.5
 20
536.5
 41
1.2
 42
1.2
  0
INSERT
  8
_DRILL
  2
_HOLE
 10
553.5
 20
541.5
 41
1.2
 42
1.2
  0
INSERT
  8
_DRILL
  2
_HOLE
 10
548.5
 20
541.5
 41
1.2
 42
1.2
  0
INSERT
  8
_DRILL
  2
_HOLE
 10
553.3
 20
494.0
 41
3.3
 42
3.3
  0
INSERT
  8
_DRILL
  2
_HOLE
 10
600.4
 20
494.0
 41
3.3
 42
3.3
  0
INSERT
  8
_DRILL
  2
_HOLE
 10
591.3
 20
494.0
 41
4.0
 42
4.0
  0
INSERT
  8
_DRILL
  2
_HOLE
 10
582.8
 20
494.0
 41
4.0
 42
4.0
  0
INSERT
  8
_DRILL
  2
_HOLE
 10
576.0
 20
494.0
 41
4.0
 42
4.0
  0
INSERT
  8
_DRILL
  2
_HOLE
 10
569.2
 20
494.0
 41
4.0
 42
4.0
  0
INSERT
  8
_DRILL
  2
_HOLE
 10
562.4
 20
494.0
 41
4.0
 42
4.0
  0
INSERT
  8
_DRILL
  2
_HOLE
 10
588.5
 20
506.5
 41
1.2
 42
1.2
  0
INSERT
  8
_DRILL
  2
_HOLE
 10
591.0
 20
509.0
 41
1.2
 42
1.2
  0
INSERT
  8
_DRILL
  2
_HOLE
 10
596.0
 20
509.0
 41
1.2
 42
1.2
  0
INSERT
  8
_DRILL
  2
_HOLE
 10
593.5
 20
506.5
 41
1.2
 42
1.2
  0
INSERT
  8
_DRILL
  2
_HOLE
 10
593.5
 20
511.5
 41
1.2
 42
1.2
  0
INSERT
  8
_DRILL
  2
_HOLE
 10
588.5
 20
511.5
 41
1.2
 42
1.2
  0
INSERT
  8
_DRILL
  2
_HOLE
 10
568.5
 20
506.5
 41
1.2
 42
1.2
  0
INSERT
  8
_DRILL
  2
_HOLE
 10
571.0
 20
509.0
 41
1.2
 42
1.2
  0
INSERT
  8
_DRILL
  2
_HOLE
 10
576.0
 20
509.0
 41
1.2
 42
1.2
  0
INSERT
  8
_DRILL
  2
_HOLE
 10
573.5
 20
506.5
 41
1.2
 42
1.2
  0
INSERT
  8
_DRILL
  2
_HOLE
 10
573.5
 20
511.5
 41
1.2
 42
1.2
  0
INSERT
  8
_DRILL
  2
_HOLE
 10
568.5
 20
511.5
 41
1.2
 42
1.2
  0
INSERT
  8
_DRILL
  2
_HOLE
 10
548.5
 20
506.5
 41
1.2
 42
1.2
  0
INSERT
  8
_DRILL
  2
_HOLE
 10
551.0
 20
509.0
 41
1.2
 42
1.2
  0
INSERT
  8
_DRILL
  2
_HOLE
 10
556.0
 20
509.0
 41
1.2
 42
1.2
  0
INSERT
  8
_DRILL
  2
_HOLE
 10
553.5
 20
506.5
 41
1.2
 42
1.2
  0
INSERT
  8
_DRILL
  2
_HOLE
 10
553.5
 20
511.5
 41
1.2
 42
1.2
  0
INSERT
  8
_DRILL
  2
_HOLE
 10
548.5
 20
511.5
 41
1.2
 42
1.2
  0
INSERT
  8
_DRILL
  2
_HOLE
 10
553.3
 20
464.0
 41
3.3
 42
3.3
  0
INSERT
  8
_DRILL
  2
_HOLE
 10
600.4
 20
464.0
 41
3.3
 42
3.3
  0
INSERT
  8
_DRILL
  2
_HOLE
 10
591.3
 20
464.0
 41
4.0
 42
4.0
  0
INSERT
  8
_DRILL
  2
_HOLE
 10
582.8
 20
464.0
 41
4.0
 42
4.0
  0
INSERT
  8
_DRILL
  2
_HOLE
 10
576.0
 20
464.0
 41
4.0
 42
4.0
  0
INSERT
  8
_DRILL
  2
_HOLE
 10
569.2
 20
464.0
 41
4.0
 42
4.0
  0
INSERT
  8
_DRILL
  2
_HOLE
 10
562.4
 20
464.0
 41
4.0
 42
4.0
  0
INSERT
  8
_DRILL
  2
_HOLE
 10
588.5
 20
476.5
 41
1.2
 42
1.2
  0
INSERT
  8
_DRILL
  2
_HOLE
 10
591.0
 20
479.0
 41
1.2
 42
1.2
  0
INSERT
  8
_DRILL
  2
_HOLE
 10
596.0
 20
479.0
 41
1.2
 42
1.2
  0
INSERT
  8
_DRILL
  2
_HOLE
 10
593.5
 20
476.5
 41
1.2
 42
1.2
  0
INSERT
  8
_DRILL
  2
_HOLE
 10
593.5
 20
481.5
 41
1.2
 42
1.2
  0
INSERT
  8
_DRILL
  2
_HOLE
 10
588.5
 20
481.5
 41
1.2
 42
1.2
  0
INSERT
  8
_DRILL
  2
_HOLE
 10
568.5
 20
476.5
 41
1.2
 42
1.2
  0
INSERT
  8
_DRILL
  2
_HOLE
 10
571.0
 20
479.0
 41
1.2
 42
1.2
  0
INSERT
  8
_DRILL
  2
_HOLE
 10
576.0
 20
479.0
 41
1.2
 42
1.2
  0
INSERT
  8
_DRILL
  2
_HOLE
 10
573.5
 20
476.5
 41
1.2
 42
1.2
  0
INSERT
  8
_DRILL
  2
_HOLE
 10
573.5
 20
481.5
 41
1.2
 42
1.2
  0
INSERT
  8
_DRILL
  2
_HOLE
 10
568.5
 20
481.5
 41
1.2
 42
1.2
  0
INSERT
  8
_DRILL
  2
_HOLE
 10
548.5
 20
476.5
 41
1.2
 42
1.2
  0
INSERT
  8
_DRILL
  2
_HOLE
 10
551.0
 20
479.0
 41
1.2
 42
1.2
  0
INSERT
  8
_DRILL
  2
_HOLE
 10
556.0
 20
479.0
 41
1.2
 42
1.2
  0
INSERT
  8
_DRILL
  2
_HOLE
 10
553.5
 20
476.5
 41
1.2
 42
1.2
  0
INSERT
  8
_DRILL
  2
_HOLE
 10
553.5
 20
481.5
 41
1.2
 42
1.2
  0
INSERT
  8
_DRILL
  2
_HOLE
 10
548.5
 20
481.5
 41
1.2
 42
1.2
  0
INSERT
  8
_DRILL
  2
_HOLE
 10
553.3
 20
434.0
 41
3.3
 42
3.3
  0
INSERT
  8
_DRILL
  2
_HOLE
 10
600.4
 20
434.0
 41
3.3
 42
3.3
  0
INSERT
  8
_DRILL
  2
_HOLE
 10
591.3
 20
434.0
 41
4.0
 42
4.0
  0
INSERT
  8
_DRILL
  2
_HOLE
 10
582.8
 20
434.0
 41
4.0
 42
4.0
  0
INSERT
  8
_DRILL
  2
_HOLE
 10
576.0
 20
434.0
 41
4.0
 42
4.0
  0
INSERT
  8
_DRILL
  2
_HOLE
 10
569.2
 20
434.0
 41
4.0
 42
4.0
  0
INSERT
  8
_DRILL
  2
_HOLE
 10
562.4
 20
434.0
 41
4.0
 42
4.0
  0
INSERT
  8
_DRILL
  2
_HOLE
 10
588.5
 20
446.5
 41
1.2
 42
1.2
  0
INSERT
  8
_DRILL
  2
_HOLE
 10
591.0
 20
449.0
 41
1.2
 42
1.2
  0
INSERT
  8
_DRILL
  2
_HOLE
 10
596.0
 20
449.0
 41
1.2
 42
1.2
  0
INSERT
  8
_DRILL
  2
_HOLE
 10
593.5
 20
446.5
 41
1.2
 42
1.2
  0
INSERT
  8
_DRILL
  2
_HOLE
 10
593.5
 20
451.5
 41
1.2
 42
1.2
  0
INSERT
  8
_DRILL
  2
_HOLE
 10
588.5
 20
451.5
 41
1.2
 42
1.2
  0
INSERT
  8
_DRILL
  2
_HOLE
 10
568.5
 20
446.5
 41
1.2
 42
1.2
  0
INSERT
  8
_DRILL
  2
_HOLE
 10
571.0
 20
449.0
 41
1.2
 42
1.2
  0
INSERT
  8
_DRILL
  2
_HOLE
 10
576.0
 20
449.0
 41
1.2
 42
1.2
  0
INSERT
  8
_DRILL
  2
_HOLE
 10
573.5
 20
446.5
 41
1.2
 42
1.2
  0
INSERT
  8
_DRILL
  2
_HOLE
 10
573.5
 20
451.5
 41
1.2
 42
1.2
  0
INSERT
  8
_DRILL
  2
_HOLE
 10
568.5
 20
451.5
 41
1.2
 42
1.2
  0
INSERT
  8
_DRILL
  2
_HOLE
 10
548.5
 20
446.5
 41
1.2
 42
1.2
  0
INSERT
  8
_DRILL
  2
_HOLE
 10
551.0
 20
449.0
 41
1.2
 42
1.2
  0
INSERT
  8
_DRILL
  2
_HOLE
 10
556.0
 20
449.0
 41
1.2
 42
1.2
  0
INSERT
  8
_DRILL
  2
_HOLE
 10
553.5
 20
446.5
 41
1.2
 42
1.2
  0
INSERT
  8
_DRILL
  2
_HOLE
 10
553.5
 20
451.5
 41
1.2
 42
1.2
  0
INSERT
  8
_DRILL
  2
_HOLE
 10
548.5
 20
451.5
 41
1.2
 42
1.2
  0
INSERT
  8
_DRILL
  2
_HOLE
 10
553.3
 20
404.0
 41
3.3
 42
3.3
  0
INSERT
  8
_DRILL
  2
_HOLE
 10
600.4
 20
404.0
 41
3.3
 42
3.3
  0
INSERT
  8
_DRILL
  2
_HOLE
 10
591.3
 20
404.0
 41
4.0
 42
4.0
  0
INSERT
  8
_DRILL
  2
_HOLE
 10
582.8
 20
404.0
 41
4.0
 42
4.0
  0
INSERT
  8
_DRILL
  2
_HOLE
 10
576.0
 20
404.0
 41
4.0
 42
4.0
  0
INSERT
  8
_DRILL
  2
_HOLE
 10
569.2
 20
404.0
 41
4.0
 42
4.0
  0
INSERT
  8
_DRILL
  2
_HOLE
 10
562.4
 20
404.0
 41
4.0
 42
4.0
  0
INSERT
  8
_DRILL
  2
_HOLE
 10
588.5
 20
416.5
 41
1.2
 42
1.2
  0
INSERT
  8
_DRILL
  2
_HOLE
 10
591.0
 20
419.0
 41
1.2
 42
1.2
  0
INSERT
  8
_DRILL
  2
_HOLE
 10
596.0
 20
419.0
 41
1.2
 42
1.2
  0
INSERT
  8
_DRILL
  2
_HOLE
 10
593.5
 20
416.5
 41
1.2
 42
1.2
  0
INSERT
  8
_DRILL
  2
_HOLE
 10
593.5
 20
421.5
 41
1.2
 42
1.2
  0
INSERT
  8
_DRILL
  2
_HOLE
 10
588.5
 20
421.5
 41
1.2
 42
1.2
  0
INSERT
  8
_DRILL
  2
_HOLE
 10
568.5
 20
416.5
 41
1.2
 42
1.2
  0
INSERT
  8
_DRILL
  2
_HOLE
 10
571.0
 20
419.0
 41
1.2
 42
1.2
  0
INSERT
  8
_DRILL
  2
_HOLE
 10
576.0
 20
419.0
 41
1.2
 42
1.2
  0
INSERT
  8
_DRILL
  2
_HOLE
 10
573.5
 20
416.5
 41
1.2
 42
1.2
  0
INSERT
  8
_DRILL
  2
_HOLE
 10
573.5
 20
421.5
 41
1.2
 42
1.2
  0
INSERT
  8
_DRILL
  2
_HOLE
 10
568.5
 20
421.5
 41
1.2
 42
1.2
  0
INSERT
  8
_DRILL
  2
_HOLE
 10
548.5
 20
416.5
 41
1.2
 42
1.2
  0
INSERT
  8
_DRILL
  2
_HOLE
 10
551.0
 20
419.0
 41
1.2
 42
1.2
  0
INSERT
  8
_DRILL
  2
_HOLE
 10
556.0
 20
419.0
 41
1.2
 42
1.2
  0
INSERT
  8
_DRILL
  2
_HOLE
 10
553.5
 20
416.5
 41
1.2
 42
1.2
  0
INSERT
  8
_DRILL
  2
_HOLE
 10
553.5
 20
421.5
 41
1.2
 42
1.2
  0
INSERT
  8
_DRILL
  2
_HOLE
 10
548.5
 20
421.5
 41
1.2
 42
1.2
  0
INSERT
  8
_DRILL
  2
_HOLE
 10
553.3
 20
374.0
 41
3.3
 42
3.3
  0
INSERT
  8
_DRILL
  2
_HOLE
 10
600.4
 20
374.0
 41
3.3
 42
3.3
  0
INSERT
  8
_DRILL
  2
_HOLE
 10
591.3
 20
374.0
 41
4.0
 42
4.0
  0
INSERT
  8
_DRILL
  2
_HOLE
 10
582.8
 20
374.0
 41
4.0
 42
4.0
  0
INSERT
  8
_DRILL
  2
_HOLE
 10
576.0
 20
374.0
 41
4.0
 42
4.0
  0
INSERT
  8
_DRILL
  2
_HOLE
 10
569.2
 20
374.0
 41
4.0
 42
4.0
  0
INSERT
  8
_DRILL
  2
_HOLE
 10
562.4
 20
374.0
 41
4.0
 42
4.0
  0
INSERT
  8
_DRILL
  2
_HOLE
 10
588.5
 20
386.5
 41
1.2
 42
1.2
  0
INSERT
  8
_DRILL
  2
_HOLE
 10
591.0
 20
389.0
 41
1.2
 42
1.2
  0
INSERT
  8
_DRILL
  2
_HOLE
 10
596.0
 20
389.0
 41
1.2
 42
1.2
  0
INSERT
  8
_DRILL
  2
_HOLE
 10
593.5
 20
386.5
 41
1.2
 42
1.2
  0
INSERT
  8
_DRILL
  2
_HOLE
 10
593.5
 20
391.5
 41
1.2
 42
1.2
  0
INSERT
  8
_DRILL
  2
_HOLE
 10
588.5
 20
391.5
 41
1.2
 42
1.2
  0
INSERT
  8
_DRILL
  2
_HOLE
 10
568.5
 20
386.5
 41
1.2
 42
1.2
  0
INSERT
  8
_DRILL
  2
_HOLE
 10
571.0
 20
389.0
 41
1.2
 42
1.2
  0
INSERT
  8
_DRILL
  2
_HOLE
 10
576.0
 20
389.0
 41
1.2
 42
1.2
  0
INSERT
  8
_DRILL
  2
_HOLE
 10
573.5
 20
386.5
 41
1.2
 42
1.2
  0
INSERT
  8
_DRILL
  2
_HOLE
 10
573.5
 20
391.5
 41
1.2
 42
1.2
  0
INSERT
  8
_DRILL
  2
_HOLE
 10
568.5
 20
391.5
 41
1.2
 42
1.2
  0
INSERT
  8
_DRILL
  2
_HOLE
 10
548.5
 20
386.5
 41
1.2
 42
1.2
  0
INSERT
  8
_DRILL
  2
_HOLE
 10
551.0
 20
389.0
 41
1.2
 42
1.2
  0
INSERT
  8
_DRILL
  2
_HOLE
 10
556.0
 20
389.0
 41
1.2
 42
1.2
  0
INSERT
  8
_DRILL
  2
_HOLE
 10
553.5
 20
386.5
 41
1.2
 42
1.2
  0
INSERT
  8
_DRILL
  2
_HOLE
 10
553.5
 20
391.5
 41
1.2
 42
1.2
  0
INSERT
  8
_DRILL
  2
_HOLE
 10
548.5
 20
391.5
 41
1.2
 42
1.2
  0
INSERT
  8
_DRILL
  2
_HOLE
 10
437.5
 20
643.0
 41
1.2
 42
1.2
  0
INSERT
  8
_DRILL
  2
_HOLE
 10
435.0
 20
645.5
 41
1.2
 42
1.2
  0
INSERT
  8
_DRILL
  2
_HOLE
 10
435.0
 20
650.5
 41
1.2
 42
1.2
  0
INSERT
  8
_DRILL
  2
_HOLE
 10
437.5
 20
648.0
 41
1.2
 42
1.2
  0
INSERT
  8
_DRILL
  2
_HOLE
 10
432.5
 20
648.0
 41
1.2
 42
1.2
  0
INSERT
  8
_DRILL
  2
_HOLE
 10
432.5
 20
643.0
 41
1.2
 42
1.2
  0
INSERT
  8
_DRILL
  2
_HOLE
 10
437.3
 20
404.0
 41
1.2
 42
1.2
  0
INSERT
  8
_DRILL
  2
_HOLE
 10
434.8
 20
406.5
 41
1.2
 42
1.2
  0
INSERT
  8
_DRILL
  2
_HOLE
 10
434.8
 20
411.5
 41
1.2
 42
1.2
  0
INSERT
  8
_DRILL
  2
_HOLE
 10
437.3
 20
409.0
 41
1.2
 42
1.2
  0
INSERT
  8
_DRILL
  2
_HOLE
 10
432.3
 20
409.0
 41
1.2
 42
1.2
  0
INSERT
  8
_DRILL
  2
_HOLE
 10
432.3
 20
404.0
 41
1.2
 42
1.2
  0
INSERT
  8
_DRILL
  2
_HOLE
 10
478.5
 20
576.0
 41
1.2
 42
1.2
  0
INSERT
  8
_DRILL
  2
_HOLE
 10
481.0
 20
578.5
 41
1.2
 42
1.2
  0
INSERT
  8
_DRILL
  2
_HOLE
 10
486.0
 20
578.5
 41
1.2
 42
1.2
  0
INSERT
  8
_DRILL
  2
_HOLE
 10
483.5
 20
576.0
 41
1.2
 42
1.2
  0
INSERT
  8
_DRILL
  2
_HOLE
 10
483.5
 20
581.0
 41
1.2
 42
1.2
  0
INSERT
  8
_DRILL
  2
_HOLE
 10
478.5
 20
581.0
 41
1.2
 42
1.2
  0
INSERT
  8
_DRILL
  2
_HOLE
 10
501.0
 20
618.6
 41
3.3
 42
3.3
  0
INSERT
  8
_DRILL
  2
_HOLE
 10
452.7
 20
618.6
 41
3.3
 42
3.3
  0
INSERT
  8
_DRILL
  2
_HOLE
 10
501.0
 20
669.4
 41
3.3
 42
3.3
  0
INSERT
  8
_DRILL
  2
_HOLE
 10
452.7
 20
669.4
 41
3.3
 42
3.3
  0
INSERT
  8
_DRILL
  2
_HOLE
 10
501.0
 20
626.2
 41
2.1
 42
2.1
  0
INSERT
  8
_DRILL
  2
_HOLE
 10
501.0
 20
636.4
 41
1.1
 42
1.1
  0
INSERT
  8
_DRILL
  2
_HOLE
 10
501.0
 20
661.8
 41
2.1
 42
2.1
  0
INSERT
  8
_DRILL
  2
_HOLE
 10
501.0
 20
651.6
 41
1.1
 42
1.1
  0
INSERT
  8
_DRILL
  2
_HOLE
 10
501.0
 20
644.0
 41
1.1
 42
1.1
  0
INSERT
  8
_DRILL
  2
_HOLE
 10
452.7
 20
626.2
 41
2.1
 42
2.1
  0
INSERT
  8
_DRILL
  2
_HOLE
 10
452.7
 20
661.8
 41
2.1
 42
2.1
  0
INSERT
  8
_DRILL
  2
_HOLE
 10
452.7
 20
636.4
 41
1.1
 42
1.1
  0
INSERT
  8
_DRILL
  2
_HOLE
 10
452.7
 20
651.6
 41
1.1
 42
1.1
  0
INSERT
  8
_DRILL
  2
_HOLE
 10
501.0
 20
378.6
 41
3.3
 42
3.3
  0
INSERT
  8
_DRILL
  2
_HOLE
 10
452.7
 20
378.6
 41
3.3
 42
3.3
  0
INSERT
  8
_DRILL
  2
_HOLE
 10
501.0
 20
429.4
 41
3.3
 42
3.3
  0
INSERT
  8
_DRILL
  2
_HOLE
 10
452.7
 20
429.4
 41
3.3
 42
3.3
  0
INSERT
  8
_DRILL
  2
_HOLE
 10
501.0
 20
386.2
 41
2.1
 42
2.1
  0
INSERT
  8
_DRILL
  2
_HOLE
 10
501.0
 20
396.4
 41
1.1
 42
1.1
  0
INSERT
  8
_DRILL
  2
_HOLE
 10
501.0
 20
421.8
 41
2.1
 42
2.1
  0
INSERT
  8
_DRILL
  2
_HOLE
 10
501.0
 20
411.6
 41
1.1
 42
1.1
  0
INSERT
  8
_DRILL
  2
_HOLE
 10
501.0
 20
404.0
 41
1.1
 42
1.1
  0
INSERT
  8
_DRILL
  2
_HOLE
 10
452.7
 20
386.2
 41
2.1
 42
2.1
  0
INSERT
  8
_DRILL
  2
_HOLE
 10
452.7
 20
421.8
 41
2.1
 42
2.1
  0
INSERT
  8
_DRILL
  2
_HOLE
 10
452.7
 20
396.4
 41
1.1
 42
1.1
  0
INSERT
  8
_DRILL
  2
_HOLE
 10
452.7
 20
411.6
 41
1.1
 42
1.1
  0
INSERT
  8
_DRILL
  2
_HOLE
 10
451.9
 20
449.0
 41
3.3
 42
3.3
  0
INSERT
  8
_DRILL
  2
_HOLE
 10
451.9
 20
555.7
 41
3.3
 42
3.3
  0
INSERT
  8
_DRILL
  2
_HOLE
 10
502.7
 20
449.0
 41
3.3
 42
3.3
  0
INSERT
  8
_DRILL
  2
_HOLE
 10
502.7
 20
555.7
 41
3.3
 42
3.3
  0
INSERT
  8
_DRILL
  2
_HOLE
 10
459.5
 20
449.0
 41
2.1
 42
2.1
  0
INSERT
  8
_DRILL
  2
_HOLE
 10
469.7
 20
449.0
 41
1.1
 42
1.1
  0
INSERT
  8
_DRILL
  2
_HOLE
 10
495.1
 20
449.0
 41
2.1
 42
2.1
  0
INSERT
  8
_DRILL
  2
_HOLE
 10
484.9
 20
449.0
 41
1.1
 42
1.1
  0
INSERT
  8
_DRILL
  2
_HOLE
 10
477.3
 20
449.0
 41
1.1
 42
1.1
  0
INSERT
  8
_DRILL
  2
_HOLE
 10
459.5
 20
555.7
 41
2.1
 42
2.1
  0
INSERT
  8
_DRILL
  2
_HOLE
 10
495.1
 20
555.7
 41
2.1
 42
2.1
  0
INSERT
  8
_DRILL
  2
_HOLE
 10
469.7
 20
555.7
 41
1.1
 42
1.1
  0
INSERT
  8
_DRILL
  2
_HOLE
 10
484.9
 20
555.7
 41
1.1
 42
1.1
  0
INSERT
  8
_DRILL
  2
_HOLE
 10
398.0
 20
576.0
 41
1.3
 42
1.3
  0
INSERT
  8
_DRILL
  2
_HOLE
 10
423.4
 20
576.0
 41
1.3
 42
1.3
  0
INSERT
  8
_DRILL
  2
_HOLE
 10
403.1
 20
580.0
 41
1.3
 42
1.3
  0
INSERT
  8
_DRILL
  2
_HOLE
 10
408.1
 20
580.0
 41
1.3
 42
1.3
  0
INSERT
  8
_DRILL
  2
_HOLE
 10
413.2
 20
580.0
 41
1.3
 42
1.3
  0
INSERT
  8
_DRILL
  2
_HOLE
 10
418.3
 20
580.0
 41
1.3
 42
1.3
  0
INSERT
  8
_DRILL
  2
_HOLE
 10
617.3
 20
354.0
 41
3.5
 42
3.5
  0
INSERT
  8
_DRILL
  2
_HOLE
 10
617.3
 20
394.0
 41
3.5
 42
3.5
  0
INSERT
  8
_DRILL
  2
_HOLE
 10
617.3
 20
434.0
 41
3.5
 42
3.5
  0
INSERT
  8
_DRILL
  2
_HOLE
 10
617.3
 20
474.0
 41
3.5
 42
3.5
  0
INSERT
  8
_DRILL
  2
_HOLE
 10
617.3
 20
514.0
 41
3.5
 42
3.5
  0
INSERT
  8
_DRILL
  2
_HOLE
 10
617.3
 20
554.0
 41
3.5
 42
3.5
  0
INSERT
  8
_DRILL
  2
_HOLE
 10
617.3
 20
594.0
 41
3.5
 42
3.5
  0
INSERT
  8
_DRILL
  2
_HOLE
 10
617.3
 20
634.0
 41
3.5
 42
3.5
  0
INSERT
  8
_DRILL
  2
_HOLE
 10
617.3
 20
674.0
 41
3.5
 42
3.5
  0
INSERT
  8
_DRILL
  2
_HOLE
 10
417.0
 20
354.0
 41
3.5
 42
3.5
  0
INSERT
  8
_DRILL
  2
_HOLE
 10
417.0
 20
674.0
 41
3.5
 42
3.5
  0
INSERT
  8
_DRILL
  2
_HOLE
 10
417.0
 20
514.0
 41
3.5
 42
3.5
  0
INSERT
  8
_DRILL
  2
_HOLE
 10
537.3
 20
354.0
 41
3.5
 42
3.5
  0
INSERT
  8
_DRILL
  2
_HOLE
 10
537.3
 20
394.0
 41
3.5
 42
3.5
  0
INSERT
  8
_DRILL
  2
_HOLE
 10
537.3
 20
434.0
 41
3.5
 42
3.5
  0
INSERT
  8
_DRILL
  2
_HOLE
 10
537.3
 20
474.0
 41
3.5
 42
3.5
  0
INSERT
  8
_DRILL
  2
_HOLE
 10
537.3
 20
514.0
 41
3.5
 42
3.5
  0
INSERT
  8
_DRILL
  2
_HOLE
 10
537.3
 20
554.0
 41
3.5
 42
3.5
  0
INSERT
  8
_DRILL
  2
_HOLE
 10
537.3
 20
594.0
 41
3.5
 42
3.5
  0
INSERT
  8
_DRILL
  2
_HOLE
 10
537.3
 20
634.0
 41
3.5
 42
3.5
  0
INSERT
  8
_DRILL
  2
_HOLE
 10
537.3
 20
674.0
 41
3.5
 42
3.5
  0
ENDSEC
  0
EOF
