  0
SECTION
  2
HEADER
  9
$EXTMIN
 10
359.8
 20
339.8
  9
$EXTMAX
 10
599.2
 20
681.2
  9
$LIMMIN
 10
359.8
 20
339.8
  9
$LIMMAX
 10
599.2
 20
681.2
  0
ENDSEC
  0
SECTION
  2
TABLES
  0
TABLE
  2
LAYER
 70
    18
  0
LAYER
  2
0
 70
    64
 62
     7
  6
CONTINUOUS
  0
LAYER
  2
_BOARD
 70
    64
 62
    254
  6
CONTINUOUS
  0
LAYER
  2
_DRILL
 70
    64
 62
    251
  6
CONTINUOUS
  0
ENDTAB
  0
ENDSEC
  0
SECTION
  2
BLOCKS
  0
BLOCK
  8
0
  2
_HOLE
 70
    64
 10
0.0
 20
0.0
  0
CIRCLE
  8
0
 10
0.0
 20
0.0
 40
0.500
  0
ENDBLK
  8
0
  0
ENDSEC
  0
SECTION
  2
ENTITIES
  0
POLYLINE
  8
_BOARD
 66
     1
 62
     3
 10
0.0
 20
0.0
 70
     1
 40
0.0
 41
0.0
  0
VERTEX
  8
_BOARD
 10
360.0
 20
340.0
 40
0.0
 41
0.0
  0
VERTEX
  8
_BOARD
 10
599.0
 20
340.0
  0
VERTEX
  8
_BOARD
 10
599.0
 20
340.0
 40
0.0
 41
0.0
  0
VERTEX
  8
_BOARD
 10
599.0
 20
681.0
  0
VERTEX
  8
_BOARD
 10
599.0
 20
681.0
 40
0.0
 41
0.0
  0
VERTEX
  8
_BOARD
 10
360.0
 20
681.0
  0
VERTEX
  8
_BOARD
 10
360.0
 20
681.0
 40
0.0
 41
0.0
  0
VERTEX
  8
_BOARD
 10
360.0
 20
340.0
 40
0.0
 41
0.0
  0
VERTEX
  8
_BOARD
 10
360.0
 20
340.0
  0
SEQEND
  8
_BOARD
  0
INSERT
  8
_DRILL
  2
_HOLE
 10
491.5
 20
367.0
 41
0.6
 42
0.6
  0
INSERT
  8
_DRILL
  2
_HOLE
 10
491.5
 20
373.0
 41
0.6
 42
0.6
  0
INSERT
  8
_DRILL
  2
_HOLE
 10
491.5
 20
379.0
 41
0.6
 42
0.6
  0
INSERT
  8
_DRILL
  2
_HOLE
 10
491.5
 20
404.0
 41
0.6
 42
0.6
  0
INSERT
  8
_DRILL
  2
_HOLE
 10
491.5
 20
410.0
 41
0.6
 42
0.6
  0
INSERT
  8
_DRILL
  2
_HOLE
 10
491.5
 20
416.0
 41
0.6
 42
0.6
  0
INSERT
  8
_DRILL
  2
_HOLE
 10
480.5
 20
367.0
 41
0.6
 42
0.6
  0
INSERT
  8
_DRILL
  2
_HOLE
 10
480.5
 20
373.0
 41
0.6
 42
0.6
  0
INSERT
  8
_DRILL
  2
_HOLE
 10
480.5
 20
379.0
 41
0.6
 42
0.6
  0
INSERT
  8
_DRILL
  2
_HOLE
 10
480.5
 20
404.0
 41
0.6
 42
0.6
  0
INSERT
  8
_DRILL
  2
_HOLE
 10
480.5
 20
410.0
 41
0.6
 42
0.6
  0
INSERT
  8
_DRILL
  2
_HOLE
 10
480.5
 20
416.0
 41
0.6
 42
0.6
  0
INSERT
  8
_DRILL
  2
_HOLE
 10
491.5
 20
603.0
 41
0.6
 42
0.6
  0
INSERT
  8
_DRILL
  2
_HOLE
 10
491.5
 20
609.0
 41
0.6
 42
0.6
  0
INSERT
  8
_DRILL
  2
_HOLE
 10
491.5
 20
615.0
 41
0.6
 42
0.6
  0
INSERT
  8
_DRILL
  2
_HOLE
 10
491.5
 20
641.5
 41
0.6
 42
0.6
  0
INSERT
  8
_DRILL
  2
_HOLE
 10
491.5
 20
647.5
 41
0.6
 42
0.6
  0
INSERT
  8
_DRILL
  2
_HOLE
 10
491.5
 20
653.5
 41
0.6
 42
0.6
  0
INSERT
  8
_DRILL
  2
_HOLE
 10
480.5
 20
603.0
 41
0.6
 42
0.6
  0
INSERT
  8
_DRILL
  2
_HOLE
 10
480.5
 20
609.0
 41
0.6
 42
0.6
  0
INSERT
  8
_DRILL
  2
_HOLE
 10
480.5
 20
615.0
 41
0.6
 42
0.6
  0
INSERT
  8
_DRILL
  2
_HOLE
 10
480.5
 20
641.5
 41
0.6
 42
0.6
  0
INSERT
  8
_DRILL
  2
_HOLE
 10
480.5
 20
647.5
 41
0.6
 42
0.6
  0
INSERT
  8
_DRILL
  2
_HOLE
 10
480.5
 20
653.5
 41
0.6
 42
0.6
  0
INSERT
  8
_DRILL
  2
_HOLE
 10
490.2
 20
452.5
 41
0.6
 42
0.6
  0
INSERT
  8
_DRILL
  2
_HOLE
 10
490.2
 20
458.5
 41
0.6
 42
0.6
  0
INSERT
  8
_DRILL
  2
_HOLE
 10
490.2
 20
464.5
 41
0.6
 42
0.6
  0
INSERT
  8
_DRILL
  2
_HOLE
 10
490.2
 20
493.0
 41
0.6
 42
0.6
  0
INSERT
  8
_DRILL
  2
_HOLE
 10
490.2
 20
499.0
 41
0.6
 42
0.6
  0
INSERT
  8
_DRILL
  2
_HOLE
 10
490.2
 20
505.0
 41
0.6
 42
0.6
  0
INSERT
  8
_DRILL
  2
_HOLE
 10
479.2
 20
452.5
 41
0.6
 42
0.6
  0
INSERT
  8
_DRILL
  2
_HOLE
 10
479.2
 20
458.5
 41
0.6
 42
0.6
  0
INSERT
  8
_DRILL
  2
_HOLE
 10
479.2
 20
464.5
 41
0.6
 42
0.6
  0
INSERT
  8
_DRILL
  2
_HOLE
 10
479.2
 20
493.0
 41
0.6
 42
0.6
  0
INSERT
  8
_DRILL
  2
_HOLE
 10
479.2
 20
499.0
 41
0.6
 42
0.6
  0
INSERT
  8
_DRILL
  2
_HOLE
 10
479.2
 20
505.0
 41
0.6
 42
0.6
  0
INSERT
  8
_DRILL
  2
_HOLE
 10
577.9
 20
370.0
 41
1.3
 42
1.3
  0
INSERT
  8
_DRILL
  2
_HOLE
 10
522.1
 20
370.0
 41
1.3
 42
1.3
  0
INSERT
  8
_DRILL
  2
_HOLE
 10
527.1
 20
370.0
 41
1.3
 42
1.3
  0
INSERT
  8
_DRILL
  2
_HOLE
 10
532.2
 20
370.0
 41
1.3
 42
1.3
  0
INSERT
  8
_DRILL
  2
_HOLE
 10
537.3
 20
370.0
 41
1.3
 42
1.3
  0
INSERT
  8
_DRILL
  2
_HOLE
 10
542.4
 20
370.0
 41
1.3
 42
1.3
  0
INSERT
  8
_DRILL
  2
_HOLE
 10
547.5
 20
370.0
 41
1.3
 42
1.3
  0
INSERT
  8
_DRILL
  2
_HOLE
 10
552.5
 20
370.0
 41
1.3
 42
1.3
  0
INSERT
  8
_DRILL
  2
_HOLE
 10
557.6
 20
370.0
 41
1.3
 42
1.3
  0
INSERT
  8
_DRILL
  2
_HOLE
 10
562.7
 20
370.0
 41
1.3
 42
1.3
  0
INSERT
  8
_DRILL
  2
_HOLE
 10
567.8
 20
370.0
 41
1.3
 42
1.3
  0
INSERT
  8
_DRILL
  2
_HOLE
 10
572.9
 20
370.0
 41
1.3
 42
1.3
  0
INSERT
  8
_DRILL
  2
_HOLE
 10
410.0
 20
647.5
 41
0.8
 42
0.8
  0
INSERT
  8
_DRILL
  2
_HOLE
 10
407.5
 20
647.5
 41
0.8
 42
0.8
  0
INSERT
  8
_DRILL
  2
_HOLE
 10
407.0
 20
412.5
 41
0.8
 42
0.8
  0
INSERT
  8
_DRILL
  2
_HOLE
 10
404.5
 20
412.5
 41
0.8
 42
0.8
  0
INSERT
  8
_DRILL
  2
_HOLE
 10
439.2
 20
562.5
 41
0.8
 42
0.8
  0
INSERT
  8
_DRILL
  2
_HOLE
 10
436.7
 20
562.5
 41
0.8
 42
0.8
  0
INSERT
  8
_DRILL
  2
_HOLE
 10
433.0
 20
592.0
 41
1.0
 42
1.0
  0
INSERT
  8
_DRILL
  2
_HOLE
 10
430.5
 20
592.0
 41
1.0
 42
1.0
  0
INSERT
  8
_DRILL
  2
_HOLE
 10
427.9
 20
592.0
 41
1.0
 42
1.0
  0
INSERT
  8
_DRILL
  2
_HOLE
 10
431.0
 20
355.0
 41
1.0
 42
1.0
  0
INSERT
  8
_DRILL
  2
_HOLE
 10
428.5
 20
355.0
 41
1.0
 42
1.0
  0
INSERT
  8
_DRILL
  2
_HOLE
 10
425.9
 20
355.0
 41
1.0
 42
1.0
  0
INSERT
  8
_DRILL
  2
_HOLE
 10
403.0
 20
532.5
 41
1.0
 42
1.0
  0
INSERT
  8
_DRILL
  2
_HOLE
 10
403.0
 20
535.0
 41
1.0
 42
1.0
  0
INSERT
  8
_DRILL
  2
_HOLE
 10
403.0
 20
537.6
 41
1.0
 42
1.0
  0
INSERT
  8
_DRILL
  2
_HOLE
 10
447.0
 20
591.6
 41
1.0
 42
1.0
  0
INSERT
  8
_DRILL
  2
_HOLE
 10
444.5
 20
588.8
 41
1.0
 42
1.0
  0
INSERT
  8
_DRILL
  2
_HOLE
 10
441.9
 20
591.6
 41
1.0
 42
1.0
  0
INSERT
  8
_DRILL
  2
_HOLE
 10
445.0
 20
357.4
 41
1.0
 42
1.0
  0
INSERT
  8
_DRILL
  2
_HOLE
 10
442.5
 20
354.6
 41
1.0
 42
1.0
  0
INSERT
  8
_DRILL
  2
_HOLE
 10
439.9
 20
357.4
 41
1.0
 42
1.0
  0
INSERT
  8
_DRILL
  2
_HOLE
 10
406.9
 20
462.5
 41
1.0
 42
1.0
  0
INSERT
  8
_DRILL
  2
_HOLE
 10
404.1
 20
465.0
 41
1.0
 42
1.0
  0
INSERT
  8
_DRILL
  2
_HOLE
 10
406.9
 20
467.6
 41
1.0
 42
1.0
  0
INSERT
  8
_DRILL
  2
_HOLE
 10
565.5
 20
652.5
 41
1.2
 42
1.2
  0
INSERT
  8
_DRILL
  2
_HOLE
 10
568.0
 20
655.0
 41
1.2
 42
1.2
  0
INSERT
  8
_DRILL
  2
_HOLE
 10
573.0
 20
655.0
 41
1.2
 42
1.2
  0
INSERT
  8
_DRILL
  2
_HOLE
 10
570.5
 20
652.5
 41
1.2
 42
1.2
  0
INSERT
  8
_DRILL
  2
_HOLE
 10
570.5
 20
657.5
 41
1.2
 42
1.2
  0
INSERT
  8
_DRILL
  2
_HOLE
 10
565.5
 20
657.5
 41
1.2
 42
1.2
  0
INSERT
  8
_DRILL
  2
_HOLE
 10
545.5
 20
652.5
 41
1.2
 42
1.2
  0
INSERT
  8
_DRILL
  2
_HOLE
 10
548.0
 20
655.0
 41
1.2
 42
1.2
  0
INSERT
  8
_DRILL
  2
_HOLE
 10
553.0
 20
655.0
 41
1.2
 42
1.2
  0
INSERT
  8
_DRILL
  2
_HOLE
 10
550.5
 20
652.5
 41
1.2
 42
1.2
  0
INSERT
  8
_DRILL
  2
_HOLE
 10
550.5
 20
657.5
 41
1.2
 42
1.2
  0
INSERT
  8
_DRILL
  2
_HOLE
 10
545.5
 20
657.5
 41
1.2
 42
1.2
  0
INSERT
  8
_DRILL
  2
_HOLE
 10
525.5
 20
652.5
 41
1.2
 42
1.2
  0
INSERT
  8
_DRILL
  2
_HOLE
 10
528.0
 20
655.0
 41
1.2
 42
1.2
  0
INSERT
  8
_DRILL
  2
_HOLE
 10
533.0
 20
655.0
 41
1.2
 42
1.2
  0
INSERT
  8
_DRILL
  2
_HOLE
 10
530.5
 20
652.5
 41
1.2
 42
1.2
  0
INSERT
  8
_DRILL
  2
_HOLE
 10
530.5
 20
657.5
 41
1.2
 42
1.2
  0
INSERT
  8
_DRILL
  2
_HOLE
 10
525.5
 20
657.5
 41
1.2
 42
1.2
  0
INSERT
  8
_DRILL
  2
_HOLE
 10
577.9
 20
640.0
 41
1.3
 42
1.3
  0
INSERT
  8
_DRILL
  2
_HOLE
 10
522.1
 20
640.0
 41
1.3
 42
1.3
  0
INSERT
  8
_DRILL
  2
_HOLE
 10
527.1
 20
640.0
 41
1.3
 42
1.3
  0
INSERT
  8
_DRILL
  2
_HOLE
 10
532.2
 20
640.0
 41
1.3
 42
1.3
  0
INSERT
  8
_DRILL
  2
_HOLE
 10
537.3
 20
640.0
 41
1.3
 42
1.3
  0
INSERT
  8
_DRILL
  2
_HOLE
 10
542.4
 20
640.0
 41
1.3
 42
1.3
  0
INSERT
  8
_DRILL
  2
_HOLE
 10
547.5
 20
640.0
 41
1.3
 42
1.3
  0
INSERT
  8
_DRILL
  2
_HOLE
 10
552.5
 20
640.0
 41
1.3
 42
1.3
  0
INSERT
  8
_DRILL
  2
_HOLE
 10
557.6
 20
640.0
 41
1.3
 42
1.3
  0
INSERT
  8
_DRILL
  2
_HOLE
 10
562.7
 20
640.0
 41
1.3
 42
1.3
  0
INSERT
  8
_DRILL
  2
_HOLE
 10
567.8
 20
640.0
 41
1.3
 42
1.3
  0
INSERT
  8
_DRILL
  2
_HOLE
 10
572.9
 20
640.0
 41
1.3
 42
1.3
  0
INSERT
  8
_DRILL
  2
_HOLE
 10
565.5
 20
622.5
 41
1.2
 42
1.2
  0
INSERT
  8
_DRILL
  2
_HOLE
 10
568.0
 20
625.0
 41
1.2
 42
1.2
  0
INSERT
  8
_DRILL
  2
_HOLE
 10
573.0
 20
625.0
 41
1.2
 42
1.2
  0
INSERT
  8
_DRILL
  2
_HOLE
 10
570.5
 20
622.5
 41
1.2
 42
1.2
  0
INSERT
  8
_DRILL
  2
_HOLE
 10
570.5
 20
627.5
 41
1.2
 42
1.2
  0
INSERT
  8
_DRILL
  2
_HOLE
 10
565.5
 20
627.5
 41
1.2
 42
1.2
  0
INSERT
  8
_DRILL
  2
_HOLE
 10
545.5
 20
622.5
 41
1.2
 42
1.2
  0
INSERT
  8
_DRILL
  2
_HOLE
 10
548.0
 20
625.0
 41
1.2
 42
1.2
  0
INSERT
  8
_DRILL
  2
_HOLE
 10
553.0
 20
625.0
 41
1.2
 42
1.2
  0
INSERT
  8
_DRILL
  2
_HOLE
 10
550.5
 20
622.5
 41
1.2
 42
1.2
  0
INSERT
  8
_DRILL
  2
_HOLE
 10
550.5
 20
627.5
 41
1.2
 42
1.2
  0
INSERT
  8
_DRILL
  2
_HOLE
 10
545.5
 20
627.5
 41
1.2
 42
1.2
  0
INSERT
  8
_DRILL
  2
_HOLE
 10
525.5
 20
622.5
 41
1.2
 42
1.2
  0
INSERT
  8
_DRILL
  2
_HOLE
 10
528.0
 20
625.0
 41
1.2
 42
1.2
  0
INSERT
  8
_DRILL
  2
_HOLE
 10
533.0
 20
625.0
 41
1.2
 42
1.2
  0
INSERT
  8
_DRILL
  2
_HOLE
 10
530.5
 20
622.5
 41
1.2
 42
1.2
  0
INSERT
  8
_DRILL
  2
_HOLE
 10
530.5
 20
627.5
 41
1.2
 42
1.2
  0
INSERT
  8
_DRILL
  2
_HOLE
 10
525.5
 20
627.5
 41
1.2
 42
1.2
  0
INSERT
  8
_DRILL
  2
_HOLE
 10
577.9
 20
610.0
 41
1.3
 42
1.3
  0
INSERT
  8
_DRILL
  2
_HOLE
 10
522.1
 20
610.0
 41
1.3
 42
1.3
  0
INSERT
  8
_DRILL
  2
_HOLE
 10
527.1
 20
610.0
 41
1.3
 42
1.3
  0
INSERT
  8
_DRILL
  2
_HOLE
 10
532.2
 20
610.0
 41
1.3
 42
1.3
  0
INSERT
  8
_DRILL
  2
_HOLE
 10
537.3
 20
610.0
 41
1.3
 42
1.3
  0
INSERT
  8
_DRILL
  2
_HOLE
 10
542.4
 20
610.0
 41
1.3
 42
1.3
  0
INSERT
  8
_DRILL
  2
_HOLE
 10
547.5
 20
610.0
 41
1.3
 42
1.3
  0
INSERT
  8
_DRILL
  2
_HOLE
 10
552.5
 20
610.0
 41
1.3
 42
1.3
  0
INSERT
  8
_DRILL
  2
_HOLE
 10
557.6
 20
610.0
 41
1.3
 42
1.3
  0
INSERT
  8
_DRILL
  2
_HOLE
 10
562.7
 20
610.0
 41
1.3
 42
1.3
  0
INSERT
  8
_DRILL
  2
_HOLE
 10
567.8
 20
610.0
 41
1.3
 42
1.3
  0
INSERT
  8
_DRILL
  2
_HOLE
 10
572.9
 20
610.0
 41
1.3
 42
1.3
  0
INSERT
  8
_DRILL
  2
_HOLE
 10
565.5
 20
592.5
 41
1.2
 42
1.2
  0
INSERT
  8
_DRILL
  2
_HOLE
 10
568.0
 20
595.0
 41
1.2
 42
1.2
  0
INSERT
  8
_DRILL
  2
_HOLE
 10
573.0
 20
595.0
 41
1.2
 42
1.2
  0
INSERT
  8
_DRILL
  2
_HOLE
 10
570.5
 20
592.5
 41
1.2
 42
1.2
  0
INSERT
  8
_DRILL
  2
_HOLE
 10
570.5
 20
597.5
 41
1.2
 42
1.2
  0
INSERT
  8
_DRILL
  2
_HOLE
 10
565.5
 20
597.5
 41
1.2
 42
1.2
  0
INSERT
  8
_DRILL
  2
_HOLE
 10
545.5
 20
592.5
 41
1.2
 42
1.2
  0
INSERT
  8
_DRILL
  2
_HOLE
 10
548.0
 20
595.0
 41
1.2
 42
1.2
  0
INSERT
  8
_DRILL
  2
_HOLE
 10
553.0
 20
595.0
 41
1.2
 42
1.2
  0
INSERT
  8
_DRILL
  2
_HOLE
 10
550.5
 20
592.5
 41
1.2
 42
1.2
  0
INSERT
  8
_DRILL
  2
_HOLE
 10
550.5
 20
597.5
 41
1.2
 42
1.2
  0
INSERT
  8
_DRILL
  2
_HOLE
 10
545.5
 20
597.5
 41
1.2
 42
1.2
  0
INSERT
  8
_DRILL
  2
_HOLE
 10
525.5
 20
592.5
 41
1.2
 42
1.2
  0
INSERT
  8
_DRILL
  2
_HOLE
 10
528.0
 20
595.0
 41
1.2
 42
1.2
  0
INSERT
  8
_DRILL
  2
_HOLE
 10
533.0
 20
595.0
 41
1.2
 42
1.2
  0
INSERT
  8
_DRILL
  2
_HOLE
 10
530.5
 20
592.5
 41
1.2
 42
1.2
  0
INSERT
  8
_DRILL
  2
_HOLE
 10
530.5
 20
597.5
 41
1.2
 42
1.2
  0
INSERT
  8
_DRILL
  2
_HOLE
 10
525.5
 20
597.5
 41
1.2
 42
1.2
  0
INSERT
  8
_DRILL
  2
_HOLE
 10
577.9
 20
580.0
 41
1.3
 42
1.3
  0
INSERT
  8
_DRILL
  2
_HOLE
 10
522.1
 20
580.0
 41
1.3
 42
1.3
  0
INSERT
  8
_DRILL
  2
_HOLE
 10
527.1
 20
580.0
 41
1.3
 42
1.3
  0
INSERT
  8
_DRILL
  2
_HOLE
 10
532.2
 20
580.0
 41
1.3
 42
1.3
  0
INSERT
  8
_DRILL
  2
_HOLE
 10
537.3
 20
580.0
 41
1.3
 42
1.3
  0
INSERT
  8
_DRILL
  2
_HOLE
 10
542.4
 20
580.0
 41
1.3
 42
1.3
  0
INSERT
  8
_DRILL
  2
_HOLE
 10
547.5
 20
580.0
 41
1.3
 42
1.3
  0
INSERT
  8
_DRILL
  2
_HOLE
 10
552.5
 20
580.0
 41
1.3
 42
1.3
  0
INSERT
  8
_DRILL
  2
_HOLE
 10
557.6
 20
580.0
 41
1.3
 42
1.3
  0
INSERT
  8
_DRILL
  2
_HOLE
 10
562.7
 20
580.0
 41
1.3
 42
1.3
  0
INSERT
  8
_DRILL
  2
_HOLE
 10
567.8
 20
580.0
 41
1.3
 42
1.3
  0
INSERT
  8
_DRILL
  2
_HOLE
 10
572.9
 20
580.0
 41
1.3
 42
1.3
  0
INSERT
  8
_DRILL
  2
_HOLE
 10
565.5
 20
562.5
 41
1.2
 42
1.2
  0
INSERT
  8
_DRILL
  2
_HOLE
 10
568.0
 20
565.0
 41
1.2
 42
1.2
  0
INSERT
  8
_DRILL
  2
_HOLE
 10
573.0
 20
565.0
 41
1.2
 42
1.2
  0
INSERT
  8
_DRILL
  2
_HOLE
 10
570.5
 20
562.5
 41
1.2
 42
1.2
  0
INSERT
  8
_DRILL
  2
_HOLE
 10
570.5
 20
567.5
 41
1.2
 42
1.2
  0
INSERT
  8
_DRILL
  2
_HOLE
 10
565.5
 20
567.5
 41
1.2
 42
1.2
  0
INSERT
  8
_DRILL
  2
_HOLE
 10
545.5
 20
562.5
 41
1.2
 42
1.2
  0
INSERT
  8
_DRILL
  2
_HOLE
 10
548.0
 20
565.0
 41
1.2
 42
1.2
  0
INSERT
  8
_DRILL
  2
_HOLE
 10
553.0
 20
565.0
 41
1.2
 42
1.2
  0
INSERT
  8
_DRILL
  2
_HOLE
 10
550.5
 20
562.5
 41
1.2
 42
1.2
  0
INSERT
  8
_DRILL
  2
_HOLE
 10
550.5
 20
567.5
 41
1.2
 42
1.2
  0
INSERT
  8
_DRILL
  2
_HOLE
 10
545.5
 20
567.5
 41
1.2
 42
1.2
  0
INSERT
  8
_DRILL
  2
_HOLE
 10
525.5
 20
562.5
 41
1.2
 42
1.2
  0
INSERT
  8
_DRILL
  2
_HOLE
 10
528.0
 20
565.0
 41
1.2
 42
1.2
  0
INSERT
  8
_DRILL
  2
_HOLE
 10
533.0
 20
565.0
 41
1.2
 42
1.2
  0
INSERT
  8
_DRILL
  2
_HOLE
 10
530.5
 20
562.5
 41
1.2
 42
1.2
  0
INSERT
  8
_DRILL
  2
_HOLE
 10
530.5
 20
567.5
 41
1.2
 42
1.2
  0
INSERT
  8
_DRILL
  2
_HOLE
 10
525.5
 20
567.5
 41
1.2
 42
1.2
  0
INSERT
  8
_DRILL
  2
_HOLE
 10
577.9
 20
550.0
 41
1.3
 42
1.3
  0
INSERT
  8
_DRILL
  2
_HOLE
 10
522.1
 20
550.0
 41
1.3
 42
1.3
  0
INSERT
  8
_DRILL
  2
_HOLE
 10
527.1
 20
550.0
 41
1.3
 42
1.3
  0
INSERT
  8
_DRILL
  2
_HOLE
 10
532.2
 20
550.0
 41
1.3
 42
1.3
  0
INSERT
  8
_DRILL
  2
_HOLE
 10
537.3
 20
550.0
 41
1.3
 42
1.3
  0
INSERT
  8
_DRILL
  2
_HOLE
 10
542.4
 20
550.0
 41
1.3
 42
1.3
  0
INSERT
  8
_DRILL
  2
_HOLE
 10
547.5
 20
550.0
 41
1.3
 42
1.3
  0
INSERT
  8
_DRILL
  2
_HOLE
 10
552.5
 20
550.0
 41
1.3
 42
1.3
  0
INSERT
  8
_DRILL
  2
_HOLE
 10
557.6
 20
550.0
 41
1.3
 42
1.3
  0
INSERT
  8
_DRILL
  2
_HOLE
 10
562.7
 20
550.0
 41
1.3
 42
1.3
  0
INSERT
  8
_DRILL
  2
_HOLE
 10
567.8
 20
550.0
 41
1.3
 42
1.3
  0
INSERT
  8
_DRILL
  2
_HOLE
 10
572.9
 20
550.0
 41
1.3
 42
1.3
  0
INSERT
  8
_DRILL
  2
_HOLE
 10
565.5
 20
532.5
 41
1.2
 42
1.2
  0
INSERT
  8
_DRILL
  2
_HOLE
 10
568.0
 20
535.0
 41
1.2
 42
1.2
  0
INSERT
  8
_DRILL
  2
_HOLE
 10
573.0
 20
535.0
 41
1.2
 42
1.2
  0
INSERT
  8
_DRILL
  2
_HOLE
 10
570.5
 20
532.5
 41
1.2
 42
1.2
  0
INSERT
  8
_DRILL
  2
_HOLE
 10
570.5
 20
537.5
 41
1.2
 42
1.2
  0
INSERT
  8
_DRILL
  2
_HOLE
 10
565.5
 20
537.5
 41
1.2
 42
1.2
  0
INSERT
  8
_DRILL
  2
_HOLE
 10
545.5
 20
532.5
 41
1.2
 42
1.2
  0
INSERT
  8
_DRILL
  2
_HOLE
 10
548.0
 20
535.0
 41
1.2
 42
1.2
  0
INSERT
  8
_DRILL
  2
_HOLE
 10
553.0
 20
535.0
 41
1.2
 42
1.2
  0
INSERT
  8
_DRILL
  2
_HOLE
 10
550.5
 20
532.5
 41
1.2
 42
1.2
  0
INSERT
  8
_DRILL
  2
_HOLE
 10
550.5
 20
537.5
 41
1.2
 42
1.2
  0
INSERT
  8
_DRILL
  2
_HOLE
 10
545.5
 20
537.5
 41
1.2
 42
1.2
  0
INSERT
  8
_DRILL
  2
_HOLE
 10
525.5
 20
532.5
 41
1.2
 42
1.2
  0
INSERT
  8
_DRILL
  2
_HOLE
 10
528.0
 20
535.0
 41
1.2
 42
1.2
  0
INSERT
  8
_DRILL
  2
_HOLE
 10
533.0
 20
535.0
 41
1.2
 42
1.2
  0
INSERT
  8
_DRILL
  2
_HOLE
 10
530.5
 20
532.5
 41
1.2
 42
1.2
  0
INSERT
  8
_DRILL
  2
_HOLE
 10
530.5
 20
537.5
 41
1.2
 42
1.2
  0
INSERT
  8
_DRILL
  2
_HOLE
 10
525.5
 20
537.5
 41
1.2
 42
1.2
  0
INSERT
  8
_DRILL
  2
_HOLE
 10
577.9
 20
520.0
 41
1.3
 42
1.3
  0
INSERT
  8
_DRILL
  2
_HOLE
 10
522.1
 20
520.0
 41
1.3
 42
1.3
  0
INSERT
  8
_DRILL
  2
_HOLE
 10
527.1
 20
520.0
 41
1.3
 42
1.3
  0
INSERT
  8
_DRILL
  2
_HOLE
 10
532.2
 20
520.0
 41
1.3
 42
1.3
  0
INSERT
  8
_DRILL
  2
_HOLE
 10
537.3
 20
520.0
 41
1.3
 42
1.3
  0
INSERT
  8
_DRILL
  2
_HOLE
 10
542.4
 20
520.0
 41
1.3
 42
1.3
  0
INSERT
  8
_DRILL
  2
_HOLE
 10
547.5
 20
520.0
 41
1.3
 42
1.3
  0
INSERT
  8
_DRILL
  2
_HOLE
 10
552.5
 20
520.0
 41
1.3
 42
1.3
  0
INSERT
  8
_DRILL
  2
_HOLE
 10
557.6
 20
520.0
 41
1.3
 42
1.3
  0
INSERT
  8
_DRILL
  2
_HOLE
 10
562.7
 20
520.0
 41
1.3
 42
1.3
  0
INSERT
  8
_DRILL
  2
_HOLE
 10
567.8
 20
520.0
 41
1.3
 42
1.3
  0
INSERT
  8
_DRILL
  2
_HOLE
 10
572.9
 20
520.0
 41
1.3
 42
1.3
  0
INSERT
  8
_DRILL
  2
_HOLE
 10
565.5
 20
502.5
 41
1.2
 42
1.2
  0
INSERT
  8
_DRILL
  2
_HOLE
 10
568.0
 20
505.0
 41
1.2
 42
1.2
  0
INSERT
  8
_DRILL
  2
_HOLE
 10
573.0
 20
505.0
 41
1.2
 42
1.2
  0
INSERT
  8
_DRILL
  2
_HOLE
 10
570.5
 20
502.5
 41
1.2
 42
1.2
  0
INSERT
  8
_DRILL
  2
_HOLE
 10
570.5
 20
507.5
 41
1.2
 42
1.2
  0
INSERT
  8
_DRILL
  2
_HOLE
 10
565.5
 20
507.5
 41
1.2
 42
1.2
  0
INSERT
  8
_DRILL
  2
_HOLE
 10
545.5
 20
502.5
 41
1.2
 42
1.2
  0
INSERT
  8
_DRILL
  2
_HOLE
 10
548.0
 20
505.0
 41
1.2
 42
1.2
  0
INSERT
  8
_DRILL
  2
_HOLE
 10
553.0
 20
505.0
 41
1.2
 42
1.2
  0
INSERT
  8
_DRILL
  2
_HOLE
 10
550.5
 20
502.5
 41
1.2
 42
1.2
  0
INSERT
  8
_DRILL
  2
_HOLE
 10
550.5
 20
507.5
 41
1.2
 42
1.2
  0
INSERT
  8
_DRILL
  2
_HOLE
 10
545.5
 20
507.5
 41
1.2
 42
1.2
  0
INSERT
  8
_DRILL
  2
_HOLE
 10
525.5
 20
502.5
 41
1.2
 42
1.2
  0
INSERT
  8
_DRILL
  2
_HOLE
 10
528.0
 20
505.0
 41
1.2
 42
1.2
  0
INSERT
  8
_DRILL
  2
_HOLE
 10
533.0
 20
505.0
 41
1.2
 42
1.2
  0
INSERT
  8
_DRILL
  2
_HOLE
 10
530.5
 20
502.5
 41
1.2
 42
1.2
  0
INSERT
  8
_DRILL
  2
_HOLE
 10
530.5
 20
507.5
 41
1.2
 42
1.2
  0
INSERT
  8
_DRILL
  2
_HOLE
 10
525.5
 20
507.5
 41
1.2
 42
1.2
  0
INSERT
  8
_DRILL
  2
_HOLE
 10
577.9
 20
490.0
 41
1.3
 42
1.3
  0
INSERT
  8
_DRILL
  2
_HOLE
 10
522.1
 20
490.0
 41
1.3
 42
1.3
  0
INSERT
  8
_DRILL
  2
_HOLE
 10
527.1
 20
490.0
 41
1.3
 42
1.3
  0
INSERT
  8
_DRILL
  2
_HOLE
 10
532.2
 20
490.0
 41
1.3
 42
1.3
  0
INSERT
  8
_DRILL
  2
_HOLE
 10
537.3
 20
490.0
 41
1.3
 42
1.3
  0
INSERT
  8
_DRILL
  2
_HOLE
 10
542.4
 20
490.0
 41
1.3
 42
1.3
  0
INSERT
  8
_DRILL
  2
_HOLE
 10
547.5
 20
490.0
 41
1.3
 42
1.3
  0
INSERT
  8
_DRILL
  2
_HOLE
 10
552.5
 20
490.0
 41
1.3
 42
1.3
  0
INSERT
  8
_DRILL
  2
_HOLE
 10
557.6
 20
490.0
 41
1.3
 42
1.3
  0
INSERT
  8
_DRILL
  2
_HOLE
 10
562.7
 20
490.0
 41
1.3
 42
1.3
  0
INSERT
  8
_DRILL
  2
_HOLE
 10
567.8
 20
490.0
 41
1.3
 42
1.3
  0
INSERT
  8
_DRILL
  2
_HOLE
 10
572.9
 20
490.0
 41
1.3
 42
1.3
  0
INSERT
  8
_DRILL
  2
_HOLE
 10
565.5
 20
472.5
 41
1.2
 42
1.2
  0
INSERT
  8
_DRILL
  2
_HOLE
 10
568.0
 20
475.0
 41
1.2
 42
1.2
  0
INSERT
  8
_DRILL
  2
_HOLE
 10
573.0
 20
475.0
 41
1.2
 42
1.2
  0
INSERT
  8
_DRILL
  2
_HOLE
 10
570.5
 20
472.5
 41
1.2
 42
1.2
  0
INSERT
  8
_DRILL
  2
_HOLE
 10
570.5
 20
477.5
 41
1.2
 42
1.2
  0
INSERT
  8
_DRILL
  2
_HOLE
 10
565.5
 20
477.5
 41
1.2
 42
1.2
  0
INSERT
  8
_DRILL
  2
_HOLE
 10
545.5
 20
472.5
 41
1.2
 42
1.2
  0
INSERT
  8
_DRILL
  2
_HOLE
 10
548.0
 20
475.0
 41
1.2
 42
1.2
  0
INSERT
  8
_DRILL
  2
_HOLE
 10
553.0
 20
475.0
 41
1.2
 42
1.2
  0
INSERT
  8
_DRILL
  2
_HOLE
 10
550.5
 20
472.5
 41
1.2
 42
1.2
  0
INSERT
  8
_DRILL
  2
_HOLE
 10
550.5
 20
477.5
 41
1.2
 42
1.2
  0
INSERT
  8
_DRILL
  2
_HOLE
 10
545.5
 20
477.5
 41
1.2
 42
1.2
  0
INSERT
  8
_DRILL
  2
_HOLE
 10
525.5
 20
472.5
 41
1.2
 42
1.2
  0
INSERT
  8
_DRILL
  2
_HOLE
 10
528.0
 20
475.0
 41
1.2
 42
1.2
  0
INSERT
  8
_DRILL
  2
_HOLE
 10
533.0
 20
475.0
 41
1.2
 42
1.2
  0
INSERT
  8
_DRILL
  2
_HOLE
 10
530.5
 20
472.5
 41
1.2
 42
1.2
  0
INSERT
  8
_DRILL
  2
_HOLE
 10
530.5
 20
477.5
 41
1.2
 42
1.2
  0
INSERT
  8
_DRILL
  2
_HOLE
 10
525.5
 20
477.5
 41
1.2
 42
1.2
  0
INSERT
  8
_DRILL
  2
_HOLE
 10
577.9
 20
460.0
 41
1.3
 42
1.3
  0
INSERT
  8
_DRILL
  2
_HOLE
 10
522.1
 20
460.0
 41
1.3
 42
1.3
  0
INSERT
  8
_DRILL
  2
_HOLE
 10
527.1
 20
460.0
 41
1.3
 42
1.3
  0
INSERT
  8
_DRILL
  2
_HOLE
 10
532.2
 20
460.0
 41
1.3
 42
1.3
  0
INSERT
  8
_DRILL
  2
_HOLE
 10
537.3
 20
460.0
 41
1.3
 42
1.3
  0
INSERT
  8
_DRILL
  2
_HOLE
 10
542.4
 20
460.0
 41
1.3
 42
1.3
  0
INSERT
  8
_DRILL
  2
_HOLE
 10
547.5
 20
460.0
 41
1.3
 42
1.3
  0
INSERT
  8
_DRILL
  2
_HOLE
 10
552.5
 20
460.0
 41
1.3
 42
1.3
  0
INSERT
  8
_DRILL
  2
_HOLE
 10
557.6
 20
460.0
 41
1.3
 42
1.3
  0
INSERT
  8
_DRILL
  2
_HOLE
 10
562.7
 20
460.0
 41
1.3
 42
1.3
  0
INSERT
  8
_DRILL
  2
_HOLE
 10
567.8
 20
460.0
 41
1.3
 42
1.3
  0
INSERT
  8
_DRILL
  2
_HOLE
 10
572.9
 20
460.0
 41
1.3
 42
1.3
  0
INSERT
  8
_DRILL
  2
_HOLE
 10
565.5
 20
442.5
 41
1.2
 42
1.2
  0
INSERT
  8
_DRILL
  2
_HOLE
 10
568.0
 20
445.0
 41
1.2
 42
1.2
  0
INSERT
  8
_DRILL
  2
_HOLE
 10
573.0
 20
445.0
 41
1.2
 42
1.2
  0
INSERT
  8
_DRILL
  2
_HOLE
 10
570.5
 20
442.5
 41
1.2
 42
1.2
  0
INSERT
  8
_DRILL
  2
_HOLE
 10
570.5
 20
447.5
 41
1.2
 42
1.2
  0
INSERT
  8
_DRILL
  2
_HOLE
 10
565.5
 20
447.5
 41
1.2
 42
1.2
  0
INSERT
  8
_DRILL
  2
_HOLE
 10
545.5
 20
442.5
 41
1.2
 42
1.2
  0
INSERT
  8
_DRILL
  2
_HOLE
 10
548.0
 20
445.0
 41
1.2
 42
1.2
  0
INSERT
  8
_DRILL
  2
_HOLE
 10
553.0
 20
445.0
 41
1.2
 42
1.2
  0
INSERT
  8
_DRILL
  2
_HOLE
 10
550.5
 20
442.5
 41
1.2
 42
1.2
  0
INSERT
  8
_DRILL
  2
_HOLE
 10
550.5
 20
447.5
 41
1.2
 42
1.2
  0
INSERT
  8
_DRILL
  2
_HOLE
 10
545.5
 20
447.5
 41
1.2
 42
1.2
  0
INSERT
  8
_DRILL
  2
_HOLE
 10
525.5
 20
442.5
 41
1.2
 42
1.2
  0
INSERT
  8
_DRILL
  2
_HOLE
 10
528.0
 20
445.0
 41
1.2
 42
1.2
  0
INSERT
  8
_DRILL
  2
_HOLE
 10
533.0
 20
445.0
 41
1.2
 42
1.2
  0
INSERT
  8
_DRILL
  2
_HOLE
 10
530.5
 20
442.5
 41
1.2
 42
1.2
  0
INSERT
  8
_DRILL
  2
_HOLE
 10
530.5
 20
447.5
 41
1.2
 42
1.2
  0
INSERT
  8
_DRILL
  2
_HOLE
 10
525.5
 20
447.5
 41
1.2
 42
1.2
  0
INSERT
  8
_DRILL
  2
_HOLE
 10
577.9
 20
430.0
 41
1.3
 42
1.3
  0
INSERT
  8
_DRILL
  2
_HOLE
 10
522.1
 20
430.0
 41
1.3
 42
1.3
  0
INSERT
  8
_DRILL
  2
_HOLE
 10
527.1
 20
430.0
 41
1.3
 42
1.3
  0
INSERT
  8
_DRILL
  2
_HOLE
 10
532.2
 20
430.0
 41
1.3
 42
1.3
  0
INSERT
  8
_DRILL
  2
_HOLE
 10
537.3
 20
430.0
 41
1.3
 42
1.3
  0
INSERT
  8
_DRILL
  2
_HOLE
 10
542.4
 20
430.0
 41
1.3
 42
1.3
  0
INSERT
  8
_DRILL
  2
_HOLE
 10
547.5
 20
430.0
 41
1.3
 42
1.3
  0
INSERT
  8
_DRILL
  2
_HOLE
 10
552.5
 20
430.0
 41
1.3
 42
1.3
  0
INSERT
  8
_DRILL
  2
_HOLE
 10
557.6
 20
430.0
 41
1.3
 42
1.3
  0
INSERT
  8
_DRILL
  2
_HOLE
 10
562.7
 20
430.0
 41
1.3
 42
1.3
  0
INSERT
  8
_DRILL
  2
_HOLE
 10
567.8
 20
430.0
 41
1.3
 42
1.3
  0
INSERT
  8
_DRILL
  2
_HOLE
 10
572.9
 20
430.0
 41
1.3
 42
1.3
  0
INSERT
  8
_DRILL
  2
_HOLE
 10
565.5
 20
412.5
 41
1.2
 42
1.2
  0
INSERT
  8
_DRILL
  2
_HOLE
 10
568.0
 20
415.0
 41
1.2
 42
1.2
  0
INSERT
  8
_DRILL
  2
_HOLE
 10
573.0
 20
415.0
 41
1.2
 42
1.2
  0
INSERT
  8
_DRILL
  2
_HOLE
 10
570.5
 20
412.5
 41
1.2
 42
1.2
  0
INSERT
  8
_DRILL
  2
_HOLE
 10
570.5
 20
417.5
 41
1.2
 42
1.2
  0
INSERT
  8
_DRILL
  2
_HOLE
 10
565.5
 20
417.5
 41
1.2
 42
1.2
  0
INSERT
  8
_DRILL
  2
_HOLE
 10
545.5
 20
412.5
 41
1.2
 42
1.2
  0
INSERT
  8
_DRILL
  2
_HOLE
 10
548.0
 20
415.0
 41
1.2
 42
1.2
  0
INSERT
  8
_DRILL
  2
_HOLE
 10
553.0
 20
415.0
 41
1.2
 42
1.2
  0
INSERT
  8
_DRILL
  2
_HOLE
 10
550.5
 20
412.5
 41
1.2
 42
1.2
  0
INSERT
  8
_DRILL
  2
_HOLE
 10
550.5
 20
417.5
 41
1.2
 42
1.2
  0
INSERT
  8
_DRILL
  2
_HOLE
 10
545.5
 20
417.5
 41
1.2
 42
1.2
  0
INSERT
  8
_DRILL
  2
_HOLE
 10
525.5
 20
412.5
 41
1.2
 42
1.2
  0
INSERT
  8
_DRILL
  2
_HOLE
 10
528.0
 20
415.0
 41
1.2
 42
1.2
  0
INSERT
  8
_DRILL
  2
_HOLE
 10
533.0
 20
415.0
 41
1.2
 42
1.2
  0
INSERT
  8
_DRILL
  2
_HOLE
 10
530.5
 20
412.5
 41
1.2
 42
1.2
  0
INSERT
  8
_DRILL
  2
_HOLE
 10
530.5
 20
417.5
 41
1.2
 42
1.2
  0
INSERT
  8
_DRILL
  2
_HOLE
 10
525.5
 20
417.5
 41
1.2
 42
1.2
  0
INSERT
  8
_DRILL
  2
_HOLE
 10
577.9
 20
400.0
 41
1.3
 42
1.3
  0
INSERT
  8
_DRILL
  2
_HOLE
 10
522.1
 20
400.0
 41
1.3
 42
1.3
  0
INSERT
  8
_DRILL
  2
_HOLE
 10
527.1
 20
400.0
 41
1.3
 42
1.3
  0
INSERT
  8
_DRILL
  2
_HOLE
 10
532.2
 20
400.0
 41
1.3
 42
1.3
  0
INSERT
  8
_DRILL
  2
_HOLE
 10
537.3
 20
400.0
 41
1.3
 42
1.3
  0
INSERT
  8
_DRILL
  2
_HOLE
 10
542.4
 20
400.0
 41
1.3
 42
1.3
  0
INSERT
  8
_DRILL
  2
_HOLE
 10
547.5
 20
400.0
 41
1.3
 42
1.3
  0
INSERT
  8
_DRILL
  2
_HOLE
 10
552.5
 20
400.0
 41
1.3
 42
1.3
  0
INSERT
  8
_DRILL
  2
_HOLE
 10
557.6
 20
400.0
 41
1.3
 42
1.3
  0
INSERT
  8
_DRILL
  2
_HOLE
 10
562.7
 20
400.0
 41
1.3
 42
1.3
  0
INSERT
  8
_DRILL
  2
_HOLE
 10
567.8
 20
400.0
 41
1.3
 42
1.3
  0
INSERT
  8
_DRILL
  2
_HOLE
 10
572.9
 20
400.0
 41
1.3
 42
1.3
  0
INSERT
  8
_DRILL
  2
_HOLE
 10
565.5
 20
382.5
 41
1.2
 42
1.2
  0
INSERT
  8
_DRILL
  2
_HOLE
 10
568.0
 20
385.0
 41
1.2
 42
1.2
  0
INSERT
  8
_DRILL
  2
_HOLE
 10
573.0
 20
385.0
 41
1.2
 42
1.2
  0
INSERT
  8
_DRILL
  2
_HOLE
 10
570.5
 20
382.5
 41
1.2
 42
1.2
  0
INSERT
  8
_DRILL
  2
_HOLE
 10
570.5
 20
387.5
 41
1.2
 42
1.2
  0
INSERT
  8
_DRILL
  2
_HOLE
 10
565.5
 20
387.5
 41
1.2
 42
1.2
  0
INSERT
  8
_DRILL
  2
_HOLE
 10
545.5
 20
382.5
 41
1.2
 42
1.2
  0
INSERT
  8
_DRILL
  2
_HOLE
 10
548.0
 20
385.0
 41
1.2
 42
1.2
  0
INSERT
  8
_DRILL
  2
_HOLE
 10
553.0
 20
385.0
 41
1.2
 42
1.2
  0
INSERT
  8
_DRILL
  2
_HOLE
 10
550.5
 20
382.5
 41
1.2
 42
1.2
  0
INSERT
  8
_DRILL
  2
_HOLE
 10
550.5
 20
387.5
 41
1.2
 42
1.2
  0
INSERT
  8
_DRILL
  2
_HOLE
 10
545.5
 20
387.5
 41
1.2
 42
1.2
  0
INSERT
  8
_DRILL
  2
_HOLE
 10
525.5
 20
382.5
 41
1.2
 42
1.2
  0
INSERT
  8
_DRILL
  2
_HOLE
 10
528.0
 20
385.0
 41
1.2
 42
1.2
  0
INSERT
  8
_DRILL
  2
_HOLE
 10
533.0
 20
385.0
 41
1.2
 42
1.2
  0
INSERT
  8
_DRILL
  2
_HOLE
 10
530.5
 20
382.5
 41
1.2
 42
1.2
  0
INSERT
  8
_DRILL
  2
_HOLE
 10
530.5
 20
387.5
 41
1.2
 42
1.2
  0
INSERT
  8
_DRILL
  2
_HOLE
 10
525.5
 20
387.5
 41
1.2
 42
1.2
  0
INSERT
  8
_DRILL
  2
_HOLE
 10
404.5
 20
629.0
 41
1.2
 42
1.2
  0
INSERT
  8
_DRILL
  2
_HOLE
 10
402.0
 20
631.5
 41
1.2
 42
1.2
  0
INSERT
  8
_DRILL
  2
_HOLE
 10
402.0
 20
636.5
 41
1.2
 42
1.2
  0
INSERT
  8
_DRILL
  2
_HOLE
 10
404.5
 20
634.0
 41
1.2
 42
1.2
  0
INSERT
  8
_DRILL
  2
_HOLE
 10
399.5
 20
634.0
 41
1.2
 42
1.2
  0
INSERT
  8
_DRILL
  2
_HOLE
 10
399.5
 20
629.0
 41
1.2
 42
1.2
  0
INSERT
  8
_DRILL
  2
_HOLE
 10
404.3
 20
395.0
 41
1.2
 42
1.2
  0
INSERT
  8
_DRILL
  2
_HOLE
 10
401.8
 20
397.5
 41
1.2
 42
1.2
  0
INSERT
  8
_DRILL
  2
_HOLE
 10
401.8
 20
402.5
 41
1.2
 42
1.2
  0
INSERT
  8
_DRILL
  2
_HOLE
 10
404.3
 20
400.0
 41
1.2
 42
1.2
  0
INSERT
  8
_DRILL
  2
_HOLE
 10
399.3
 20
400.0
 41
1.2
 42
1.2
  0
INSERT
  8
_DRILL
  2
_HOLE
 10
399.3
 20
395.0
 41
1.2
 42
1.2
  0
INSERT
  8
_DRILL
  2
_HOLE
 10
444.2
 20
567.0
 41
1.2
 42
1.2
  0
INSERT
  8
_DRILL
  2
_HOLE
 10
446.7
 20
569.5
 41
1.2
 42
1.2
  0
INSERT
  8
_DRILL
  2
_HOLE
 10
451.7
 20
569.5
 41
1.2
 42
1.2
  0
INSERT
  8
_DRILL
  2
_HOLE
 10
449.2
 20
567.0
 41
1.2
 42
1.2
  0
INSERT
  8
_DRILL
  2
_HOLE
 10
449.2
 20
572.0
 41
1.2
 42
1.2
  0
INSERT
  8
_DRILL
  2
_HOLE
 10
444.2
 20
572.0
 41
1.2
 42
1.2
  0
INSERT
  8
_DRILL
  2
_HOLE
 10
468.0
 20
604.6
 41
3.3
 42
3.3
  0
INSERT
  8
_DRILL
  2
_HOLE
 10
419.7
 20
604.6
 41
3.3
 42
3.3
  0
INSERT
  8
_DRILL
  2
_HOLE
 10
468.0
 20
655.4
 41
3.3
 42
3.3
  0
INSERT
  8
_DRILL
  2
_HOLE
 10
419.7
 20
655.4
 41
3.3
 42
3.3
  0
INSERT
  8
_DRILL
  2
_HOLE
 10
468.0
 20
612.2
 41
2.1
 42
2.1
  0
INSERT
  8
_DRILL
  2
_HOLE
 10
468.0
 20
622.4
 41
1.1
 42
1.1
  0
INSERT
  8
_DRILL
  2
_HOLE
 10
468.0
 20
647.8
 41
2.1
 42
2.1
  0
INSERT
  8
_DRILL
  2
_HOLE
 10
468.0
 20
637.6
 41
1.1
 42
1.1
  0
INSERT
  8
_DRILL
  2
_HOLE
 10
468.0
 20
630.0
 41
1.1
 42
1.1
  0
INSERT
  8
_DRILL
  2
_HOLE
 10
419.7
 20
612.2
 41
2.1
 42
2.1
  0
INSERT
  8
_DRILL
  2
_HOLE
 10
419.7
 20
647.8
 41
2.1
 42
2.1
  0
INSERT
  8
_DRILL
  2
_HOLE
 10
419.7
 20
622.4
 41
1.1
 42
1.1
  0
INSERT
  8
_DRILL
  2
_HOLE
 10
419.7
 20
637.6
 41
1.1
 42
1.1
  0
INSERT
  8
_DRILL
  2
_HOLE
 10
468.0
 20
369.6
 41
3.3
 42
3.3
  0
INSERT
  8
_DRILL
  2
_HOLE
 10
419.7
 20
369.6
 41
3.3
 42
3.3
  0
INSERT
  8
_DRILL
  2
_HOLE
 10
468.0
 20
420.4
 41
3.3
 42
3.3
  0
INSERT
  8
_DRILL
  2
_HOLE
 10
419.7
 20
420.4
 41
3.3
 42
3.3
  0
INSERT
  8
_DRILL
  2
_HOLE
 10
468.0
 20
377.2
 41
2.1
 42
2.1
  0
INSERT
  8
_DRILL
  2
_HOLE
 10
468.0
 20
387.4
 41
1.1
 42
1.1
  0
INSERT
  8
_DRILL
  2
_HOLE
 10
468.0
 20
412.8
 41
2.1
 42
2.1
  0
INSERT
  8
_DRILL
  2
_HOLE
 10
468.0
 20
402.6
 41
1.1
 42
1.1
  0
INSERT
  8
_DRILL
  2
_HOLE
 10
468.0
 20
395.0
 41
1.1
 42
1.1
  0
INSERT
  8
_DRILL
  2
_HOLE
 10
419.7
 20
377.2
 41
2.1
 42
2.1
  0
INSERT
  8
_DRILL
  2
_HOLE
 10
419.7
 20
412.8
 41
2.1
 42
2.1
  0
INSERT
  8
_DRILL
  2
_HOLE
 10
419.7
 20
387.4
 41
1.1
 42
1.1
  0
INSERT
  8
_DRILL
  2
_HOLE
 10
419.7
 20
402.6
 41
1.1
 42
1.1
  0
INSERT
  8
_DRILL
  2
_HOLE
 10
417.6
 20
440.0
 41
3.3
 42
3.3
  0
INSERT
  8
_DRILL
  2
_HOLE
 10
417.6
 20
546.7
 41
3.3
 42
3.3
  0
INSERT
  8
_DRILL
  2
_HOLE
 10
468.4
 20
440.0
 41
3.3
 42
3.3
  0
INSERT
  8
_DRILL
  2
_HOLE
 10
468.4
 20
546.7
 41
3.3
 42
3.3
  0
INSERT
  8
_DRILL
  2
_HOLE
 10
425.2
 20
440.0
 41
2.1
 42
2.1
  0
INSERT
  8
_DRILL
  2
_HOLE
 10
435.4
 20
440.0
 41
1.1
 42
1.1
  0
INSERT
  8
_DRILL
  2
_HOLE
 10
460.8
 20
440.0
 41
2.1
 42
2.1
  0
INSERT
  8
_DRILL
  2
_HOLE
 10
450.6
 20
440.0
 41
1.1
 42
1.1
  0
INSERT
  8
_DRILL
  2
_HOLE
 10
443.0
 20
440.0
 41
1.1
 42
1.1
  0
INSERT
  8
_DRILL
  2
_HOLE
 10
425.2
 20
546.7
 41
2.1
 42
2.1
  0
INSERT
  8
_DRILL
  2
_HOLE
 10
460.8
 20
546.7
 41
2.1
 42
2.1
  0
INSERT
  8
_DRILL
  2
_HOLE
 10
435.4
 20
546.7
 41
1.1
 42
1.1
  0
INSERT
  8
_DRILL
  2
_HOLE
 10
450.6
 20
546.7
 41
1.1
 42
1.1
  0
INSERT
  8
_DRILL
  2
_HOLE
 10
393.3
 20
517.4
 41
1.3
 42
1.3
  0
INSERT
  8
_DRILL
  2
_HOLE
 10
367.9
 20
517.4
 41
1.3
 42
1.3
  0
INSERT
  8
_DRILL
  2
_HOLE
 10
388.2
 20
513.4
 41
1.3
 42
1.3
  0
INSERT
  8
_DRILL
  2
_HOLE
 10
383.2
 20
513.4
 41
1.3
 42
1.3
  0
INSERT
  8
_DRILL
  2
_HOLE
 10
378.1
 20
513.4
 41
1.3
 42
1.3
  0
INSERT
  8
_DRILL
  2
_HOLE
 10
373.0
 20
513.4
 41
1.3
 42
1.3
  0
INSERT
  8
_DRILL
  2
_HOLE
 10
480.0
 20
670.0
 41
3.5
 42
3.5
  0
INSERT
  8
_DRILL
  2
_HOLE
 10
480.0
 20
350.0
 41
3.5
 42
3.5
  0
INSERT
  8
_DRILL
  2
_HOLE
 10
460.0
 20
580.0
 41
3.5
 42
3.5
  0
INSERT
  8
_DRILL
  2
_HOLE
 10
590.0
 20
350.0
 41
3.5
 42
3.5
  0
INSERT
  8
_DRILL
  2
_HOLE
 10
590.0
 20
490.0
 41
3.5
 42
3.5
  0
INSERT
  8
_DRILL
  2
_HOLE
 10
590.0
 20
370.0
 41
3.5
 42
3.5
  0
INSERT
  8
_DRILL
  2
_HOLE
 10
590.0
 20
400.0
 41
3.5
 42
3.5
  0
INSERT
  8
_DRILL
  2
_HOLE
 10
590.0
 20
430.0
 41
3.5
 42
3.5
  0
INSERT
  8
_DRILL
  2
_HOLE
 10
590.0
 20
460.0
 41
3.5
 42
3.5
  0
INSERT
  8
_DRILL
  2
_HOLE
 10
590.0
 20
520.0
 41
3.5
 42
3.5
  0
INSERT
  8
_DRILL
  2
_HOLE
 10
590.0
 20
550.0
 41
3.5
 42
3.5
  0
INSERT
  8
_DRILL
  2
_HOLE
 10
590.0
 20
580.0
 41
3.5
 42
3.5
  0
INSERT
  8
_DRILL
  2
_HOLE
 10
590.0
 20
610.0
 41
3.5
 42
3.5
  0
INSERT
  8
_DRILL
  2
_HOLE
 10
590.0
 20
640.0
 41
3.5
 42
3.5
  0
INSERT
  8
_DRILL
  2
_HOLE
 10
510.0
 20
490.0
 41
3.5
 42
3.5
  0
INSERT
  8
_DRILL
  2
_HOLE
 10
370.0
 20
350.0
 41
3.5
 42
3.5
  0
INSERT
  8
_DRILL
  2
_HOLE
 10
370.0
 20
670.0
 41
3.5
 42
3.5
  0
INSERT
  8
_DRILL
  2
_HOLE
 10
370.0
 20
490.0
 41
3.5
 42
3.5
  0
INSERT
  8
_DRILL
  2
_HOLE
 10
590.0
 20
670.0
 41
3.5
 42
3.5
  0
INSERT
  8
_DRILL
  2
_HOLE
 10
510.0
 20
370.0
 41
3.5
 42
3.5
  0
INSERT
  8
_DRILL
  2
_HOLE
 10
510.0
 20
400.0
 41
3.5
 42
3.5
  0
INSERT
  8
_DRILL
  2
_HOLE
 10
510.0
 20
430.0
 41
3.5
 42
3.5
  0
INSERT
  8
_DRILL
  2
_HOLE
 10
510.0
 20
460.0
 41
3.5
 42
3.5
  0
INSERT
  8
_DRILL
  2
_HOLE
 10
510.0
 20
520.0
 41
3.5
 42
3.5
  0
INSERT
  8
_DRILL
  2
_HOLE
 10
510.0
 20
550.0
 41
3.5
 42
3.5
  0
INSERT
  8
_DRILL
  2
_HOLE
 10
510.0
 20
580.0
 41
3.5
 42
3.5
  0
INSERT
  8
_DRILL
  2
_HOLE
 10
510.0
 20
610.0
 41
3.5
 42
3.5
  0
INSERT
  8
_DRILL
  2
_HOLE
 10
510.0
 20
640.0
 41
3.5
 42
3.5
  0
ENDSEC
  0
EOF
