G04 ================== begin FILE IDENTIFICATION RECORD ==================*
G04 Layout Name:  pc051b_toplevel_42.brd*
G04 Film Name:    pc051a_SS1*
G04 File Format:  Gerber RS274X*
G04 File Origin:  Cadence Allegro 16.6-S035*
G04 Origin Date:  Fri Nov 20 14:16:37 2015*
G04 *
G04 Layer:  MANUFACTURING/AUTOSILK_TOP*
G04 Layer:  BOARD GEOMETRY/SILKSCREEN_TOP*
G04 *
G04 Offset:    (0.0000 0.0000)*
G04 Mirror:    No*
G04 Mode:      Positive*
G04 Rotation:  0*
G04 FullContactRelief:  No*
G04 UndefLineWidth:     0.2000*
G04 ================== end FILE IDENTIFICATION RECORD ====================*
%FSLAX35Y35*MOMM*%
%IR0*IPPOS*OFA0.00000B0.00000*MIA0B0*SFA1.00000B1.00000*%
%ADD10C,.1*%
%ADD11C,.2*%
%ADD12C,.3*%
%ADD13C,.203*%
G75*
%LPD*%
G75*
G54D10*
G01X1610000Y8270000D02*
X1890000D01*
Y8130000D01*
X1610000D01*
Y8270000D01*
G01Y8470000D02*
X1890000D01*
Y8330000D01*
X1610000D01*
Y8470000D01*
G01X2315000Y8887500D02*
Y8912500D01*
G01X2485000D02*
Y8887500D01*
G01X3390000Y1360000D02*
X3110000D01*
Y1500000D01*
X3390000D01*
Y1460060D01*
G01Y1980000D02*
X3110000D01*
Y2120000D01*
X3390000D01*
Y2080060D01*
G01Y2360000D02*
X3110000D01*
Y2500000D01*
X3390000D01*
Y2460060D01*
G01Y2980000D02*
X3110000D01*
Y3120000D01*
X3390000D01*
Y3080060D01*
G01Y3360000D02*
X3110000D01*
Y3500000D01*
X3390000D01*
Y3460060D01*
G01Y3980000D02*
X3110000D01*
Y4120000D01*
X3390000D01*
Y4080060D01*
G01Y4360000D02*
X3110000D01*
Y4500000D01*
X3390000D01*
Y4460060D01*
G01Y4980000D02*
X3110000D01*
Y5120000D01*
X3390000D01*
Y5080060D01*
G01X3215000Y9387500D02*
Y9412500D01*
G01X3390000Y1399940D02*
Y1360000D01*
G01Y2019940D02*
Y1980000D01*
G01Y2399940D02*
Y2360000D01*
G01Y3019940D02*
Y2980000D01*
G01Y3399940D02*
Y3360000D01*
G01Y4019940D02*
Y3980000D01*
G01Y4399940D02*
Y4360000D01*
G01Y5019940D02*
Y4980000D01*
G01X3385000Y9412500D02*
Y9387500D01*
G01X6570000Y340000D02*
Y480000D01*
G01X6850000Y340000D02*
X6570000D01*
G01Y520000D02*
Y660000D01*
G01Y780000D02*
Y920000D01*
G01X6850000Y780000D02*
X6570000D01*
G01Y660000D02*
X6850000D01*
G01X6570000Y480000D02*
X6850000D01*
G01Y520000D02*
X6570000D01*
G01Y960000D02*
Y1100000D01*
G01X6850000Y960000D02*
X6570000D01*
G01Y1100000D02*
X6850000D01*
G01X6570000Y920000D02*
X6850000D01*
G01X7230000Y340000D02*
X6950000D01*
G01X6850000Y379940D02*
Y340000D01*
G01X6950000D02*
Y379940D01*
G01X7230000Y780000D02*
X6950000D01*
G01D02*
Y819940D01*
G01X6850000D02*
Y780000D01*
G01X6950000Y520000D02*
Y559940D01*
G01X6850000Y660000D02*
Y620060D01*
G01Y559940D02*
Y520000D01*
G01Y480000D02*
Y440060D01*
G01X6950000D02*
Y480000D01*
G01X7084100Y520000D02*
X6950000D01*
G01Y480000D02*
X7069120D01*
G01X6850000Y1100000D02*
Y1060060D01*
G01Y999940D02*
Y960000D01*
G01X6950000D02*
Y999940D01*
G01Y1060060D02*
Y1100000D01*
G01X7093400Y960000D02*
X6950000D01*
G01Y1100000D02*
X7230000D01*
G01X6950000Y920000D02*
X7093400D01*
G01X6950000Y880060D02*
Y920000D01*
G01X6850000D02*
Y880060D01*
G01X7230000Y379940D02*
Y340000D01*
G01Y819940D02*
Y780000D01*
G01X7118470Y660000D02*
X7182500D01*
G01X7230000Y442500D02*
Y440060D01*
G01X7182500Y520000D02*
X7175900D01*
G01X7230000Y1100000D02*
Y1060060D01*
G01Y999940D02*
Y988500D01*
G01X11355960Y5345000D02*
Y5416670D01*
X11351510Y5431670D01*
X11342620Y5441670D01*
X11331500Y5445000D01*
X11320380Y5441670D01*
X11311490Y5431670D01*
X11307040Y5416670D01*
Y5345000D01*
G01X11274960Y5425000D02*
X11268290Y5436670D01*
X11259390Y5443330D01*
X11249390Y5445000D01*
X11240490Y5443330D01*
X11231600Y5435000D01*
X11226040Y5425000D01*
X11224930Y5415000D01*
X11227150Y5403340D01*
X11234940Y5395000D01*
X11242720Y5391670D01*
X11252720D01*
G01X11242720D02*
X11236050Y5386670D01*
X11230490Y5378340D01*
X11228270Y5368330D01*
X11230490Y5358330D01*
X11236050Y5350000D01*
X11246050Y5345000D01*
X11256060Y5346670D01*
X11266060Y5353330D01*
G01X11202850Y5478330D02*
X11136150D01*
G01X11109620Y5361670D02*
X11102950Y5351670D01*
X11095170Y5346670D01*
X11086280Y5345000D01*
X11075160Y5348330D01*
X11067380Y5356670D01*
X11065150Y5366670D01*
X11066270Y5376670D01*
X11070710Y5385000D01*
X11092950Y5401670D01*
X11102950Y5413330D01*
X11109620Y5430000D01*
X11111850Y5445000D01*
X11065150D01*
G01X11930000Y9452730D02*
X11830000D01*
Y9408270D01*
G01Y9349500D02*
X11930000D01*
X11910000Y9362840D01*
G01X11830000D02*
Y9336160D01*
G01X12560010Y9031810D02*
X12568340Y9040710D01*
X12573340Y9050710D01*
Y9059610D01*
X12568340Y9068500D01*
X12560010Y9075170D01*
X12548340Y9078510D01*
X12536680Y9076280D01*
X12526670Y9070720D01*
X12520010Y9060720D01*
X12516670Y9047380D01*
X12510010Y9039600D01*
X12498340Y9036260D01*
X12486670Y9038490D01*
X12478340Y9044040D01*
X12473340Y9051820D01*
Y9059610D01*
X12476670Y9067390D01*
X12485010Y9074060D01*
G01X12573340Y9115040D02*
X12473340D01*
Y9157280D01*
G01X12521670Y9141720D02*
Y9115040D01*
G01X12573340Y9194930D02*
X12473340D01*
Y9221610D01*
X12478340Y9230500D01*
X12490010Y9237170D01*
X12503340Y9239390D01*
X12516670Y9237170D01*
X12526670Y9231610D01*
X12531680Y9221610D01*
Y9194930D01*
G01X12490010Y9277040D02*
X12480010Y9283710D01*
X12475010Y9291490D01*
X12473340Y9300380D01*
X12476670Y9311500D01*
X12485010Y9319280D01*
X12495010Y9321510D01*
X12505010Y9320390D01*
X12513340Y9315950D01*
X12530010Y9293710D01*
X12541670Y9283710D01*
X12558340Y9277040D01*
X12573340Y9274810D01*
Y9321510D01*
G01X12750010Y8851810D02*
X12758340Y8860710D01*
X12763340Y8870710D01*
Y8879610D01*
X12758340Y8888500D01*
X12750010Y8895170D01*
X12738340Y8898510D01*
X12726680Y8896280D01*
X12716670Y8890720D01*
X12710010Y8880720D01*
X12706670Y8867380D01*
X12700010Y8859600D01*
X12688340Y8856260D01*
X12676670Y8858490D01*
X12668340Y8864040D01*
X12663340Y8871820D01*
Y8879610D01*
X12666670Y8887390D01*
X12675010Y8894060D01*
G01X12763340Y8935040D02*
X12663340D01*
Y8977280D01*
G01X12711670Y8961720D02*
Y8935040D01*
G01X12763340Y9014930D02*
X12663340D01*
Y9041610D01*
X12668340Y9050500D01*
X12680010Y9057170D01*
X12693340Y9059390D01*
X12706670Y9057170D01*
X12716670Y9051610D01*
X12721680Y9041610D01*
Y9014930D01*
G01X12763340Y9118160D02*
X12663340D01*
X12683340Y9104820D01*
G01X12763340D02*
Y9131500D01*
G54D11*
G01X-653000Y635000D02*
X100100D01*
G01X-653000D02*
Y9375000D01*
G01X100100D02*
X-653000D01*
G01X285590Y310000D02*
X-163000D01*
G01Y635000D02*
Y310000D01*
G01Y9700000D02*
Y9375000D01*
G01Y9700000D02*
X285590D01*
G01X107000Y647000D02*
Y933000D01*
G01X221300Y845000D02*
X107000Y647000D01*
G01X100100Y635000D02*
X107000Y647000D01*
G01Y1203000D02*
Y1405000D01*
G01X407000Y845000D02*
X221300D01*
G01X127000Y953000D02*
X407000D01*
G01Y1183000D02*
X127000D01*
G01Y953000D02*
G03X107000Y933000I0J-20000D01*
G01Y1203000D02*
G03X127000Y1183000I20000J0D01*
G01Y1425000D02*
X407000D01*
G01Y1545000D02*
X127000D01*
G01X107000Y1565000D02*
G03X127000Y1545000I20000J0D01*
G01Y1425000D02*
G03X107000Y1405000I0J-20000D01*
G01Y1565000D02*
Y1925000D01*
G01X407000Y2065000D02*
X127000D01*
G01X107000Y2085000D02*
Y2525000D01*
G01Y2085000D02*
G03X127000Y2065000I20000J0D01*
G01Y1945000D02*
X407000D01*
G01X127000D02*
G03X107000Y1925000I0J-20000D01*
G01Y2685000D02*
Y3125000D01*
G01X407000Y2665000D02*
X127000D01*
G01Y2545000D02*
X407000D01*
G01X107000Y2685000D02*
G03X127000Y2665000I20000J0D01*
G01Y2545000D02*
G03X107000Y2525000I0J-20000D01*
G01Y3285000D02*
Y3725000D01*
G01X407000Y3265000D02*
X127000D01*
G01Y3145000D02*
X407000D01*
G01X107000Y3285000D02*
G03X127000Y3265000I20000J0D01*
G01Y3145000D02*
G03X107000Y3125000I0J-20000D01*
G01X127000Y3745000D02*
X407000D01*
G01X127000D02*
G03X107000Y3725000I0J-20000D01*
G01Y3885000D02*
Y4325000D01*
G01X407000Y3865000D02*
X127000D01*
G01X107000Y3885000D02*
G03X127000Y3865000I20000J0D01*
G01X107000Y4485000D02*
Y4925000D01*
G01X407000Y4465000D02*
X127000D01*
G01Y4345000D02*
X407000D01*
G01X107000Y4485000D02*
G03X127000Y4465000I20000J0D01*
G01Y4345000D02*
G03X107000Y4325000I0J-20000D01*
G01X127000Y4945000D02*
X407000D01*
G01X127000D02*
G03X107000Y4925000I0J-20000D01*
G01Y5085000D02*
Y5525000D01*
G01X407000Y5065000D02*
X127000D01*
G01X107000Y5085000D02*
G03X127000Y5065000I20000J0D01*
G01X107000Y5685000D02*
Y6125000D01*
G01X407000Y5665000D02*
X127000D01*
G01Y5545000D02*
X407000D01*
G01X107000Y5685000D02*
G03X127000Y5665000I20000J0D01*
G01Y5545000D02*
G03X107000Y5525000I0J-20000D01*
G01X127000Y6145000D02*
X407000D01*
G01Y6265000D02*
X127000D01*
G01X107000Y6285000D02*
Y6725000D01*
G01X127000Y6145000D02*
G03X107000Y6125000I0J-20000D01*
G01Y6285000D02*
G03X127000Y6265000I20000J0D01*
G01Y6745000D02*
G03X107000Y6725000I0J-20000D01*
G01X407000Y6865000D02*
X127000D01*
G01X107000Y6885000D02*
G03X127000Y6865000I20000J0D01*
G01X107000Y6885000D02*
Y7325000D01*
G01X127000Y6745000D02*
X407000D01*
G01Y7465000D02*
X127000D01*
G01X107000Y7485000D02*
G03X127000Y7465000I20000J0D01*
G01X107000Y7485000D02*
Y7925000D01*
G01X127000Y7345000D02*
X407000D01*
G01X127000D02*
G03X107000Y7325000I0J-20000D01*
G01X127000Y7945000D02*
X407000D01*
G01X127000D02*
G03X107000Y7925000I0J-20000D01*
G01Y8085000D02*
Y8445000D01*
G01X407000Y8065000D02*
X127000D01*
G01X107000Y8085000D02*
G03X127000Y8065000I20000J0D01*
G01Y8827000D02*
X407000D01*
G01X127000D02*
G03X107000Y8807000I0J-20000D01*
G01Y8605000D02*
Y8807000D01*
G01X407000Y8585000D02*
X127000D01*
G01Y8465000D02*
X407000D01*
G01X127000D02*
G03X107000Y8445000I0J-20000D01*
G01Y8605000D02*
G03X127000Y8585000I20000J0D01*
G01X407000Y9057000D02*
X127000D01*
G01X407000Y9165000D02*
X221300D01*
G01X107000Y9077000D02*
G03X127000Y9057000I20000J0D01*
G01X107000Y9077000D02*
Y9363000D01*
G01X221300Y9165000D02*
X107000Y9363000D01*
G01D02*
X100100Y9375000D01*
G01X642000Y310000D02*
Y860000D01*
G01Y310000D02*
X428410D01*
G01X407000Y1405000D02*
Y1203000D01*
G01D02*
Y1183000D01*
G01D02*
Y953000D01*
G01D02*
Y933000D01*
G01D02*
Y845000D01*
G01X642000Y860000D02*
X407000D01*
G01X472000Y1128000D02*
X407000D01*
G01X472000D02*
G03X492000Y1108000I20000J0D01*
G01Y1028000D02*
G03X472000Y1008000I0J-20000D01*
G01X407000D02*
X472000D01*
G01X407000Y1565000D02*
Y1545000D01*
G01D02*
Y1425000D01*
G01D02*
Y1405000D01*
G01X472000Y1382000D02*
X407000D01*
G01X472000D02*
G03X492000Y1362000I20000J0D01*
G01Y1536000D02*
G03X472000Y1516000I0J-20000D01*
G01X407000D02*
X472000D01*
G01X407000Y1925000D02*
Y1565000D01*
G01X472000Y1636000D02*
X407000D01*
G01X472000D02*
G03X492000Y1616000I20000J0D01*
G01Y1282000D02*
G03X472000Y1262000I0J-20000D01*
G01X407000D02*
X472000D01*
G01X407000Y2525000D02*
Y2085000D01*
G01D02*
Y2065000D01*
G01D02*
Y1945000D01*
G01X492000Y2044000D02*
G03X472000Y2024000I0J-20000D01*
G01X407000D02*
X472000D01*
G01X407000Y1945000D02*
Y1925000D01*
G01X472000Y1890000D02*
X407000D01*
G01X472000D02*
G03X492000Y1870000I20000J0D01*
G01Y1790000D02*
G03X472000Y1770000I0J-20000D01*
G01X407000D02*
X472000D01*
G01Y2144000D02*
X407000D01*
G01X472000D02*
G03X492000Y2124000I20000J0D01*
G01Y2298000D02*
G03X472000Y2278000I0J-20000D01*
G01X407000D02*
X472000D01*
G01Y2398000D02*
X407000D01*
G01X472000D02*
G03X492000Y2378000I20000J0D01*
G01X472000Y2906000D02*
X407000D01*
G01X472000D02*
G03X492000Y2886000I20000J0D01*
G01X407000Y3125000D02*
Y2685000D01*
G01X492000Y2806000D02*
G03X472000Y2786000I0J-20000D01*
G01X407000D02*
X472000D01*
G01X407000Y2685000D02*
Y2665000D01*
G01D02*
Y2545000D01*
G01D02*
Y2525000D01*
G01X472000Y2652000D02*
X407000D01*
G01X472000D02*
G03X492000Y2632000I20000J0D01*
G01Y2552000D02*
G03X472000Y2532000I0J-20000D01*
G01X407000D02*
X472000D01*
G01X407000Y3725000D02*
Y3285000D01*
G01X492000Y3060000D02*
G03X472000Y3040000I0J-20000D01*
G01X407000D02*
X472000D01*
G01X407000Y3285000D02*
Y3265000D01*
G01D02*
Y3145000D01*
G01D02*
Y3125000D01*
G01X472000Y3160000D02*
X407000D01*
G01X472000D02*
G03X492000Y3140000I20000J0D01*
G01Y3314000D02*
G03X472000Y3294000I0J-20000D01*
G01X407000D02*
X472000D01*
G01X407000Y3865000D02*
Y3745000D01*
G01D02*
Y3725000D01*
G01X472000Y3668000D02*
X407000D01*
G01X472000D02*
G03X492000Y3648000I20000J0D01*
G01X472000Y3414000D02*
X407000D01*
G01X472000D02*
G03X492000Y3394000I20000J0D01*
G01Y3568000D02*
G03X472000Y3548000I0J-20000D01*
G01X407000D02*
X472000D01*
G01X407000Y4325000D02*
Y3885000D01*
G01X472000Y4176000D02*
X407000D01*
G01X472000D02*
G03X492000Y4156000I20000J0D01*
G01Y4076000D02*
G03X472000Y4056000I0J-20000D01*
G01X407000D02*
X472000D01*
G01X492000Y3822000D02*
G03X472000Y3802000I0J-20000D01*
G01X407000D02*
X472000D01*
G01X407000Y3885000D02*
Y3865000D01*
G01X472000Y3922000D02*
X407000D01*
G01X472000D02*
G03X492000Y3902000I20000J0D01*
G01X407000Y4925000D02*
Y4485000D01*
G01D02*
Y4465000D01*
G01D02*
Y4345000D01*
G01X472000Y4430000D02*
X407000D01*
G01X472000D02*
G03X492000Y4410000I20000J0D01*
G01Y4584000D02*
G03X472000Y4564000I0J-20000D01*
G01X407000D02*
X472000D01*
G01X407000Y4345000D02*
Y4325000D01*
G01X492000Y4330000D02*
G03X472000Y4310000I0J-20000D01*
G01X407000D02*
X472000D01*
G01X407000Y5065000D02*
Y4945000D01*
G01D02*
Y4925000D01*
G01X472000Y4938000D02*
X407000D01*
G01X472000D02*
G03X492000Y4918000I20000J0D01*
G01Y4838000D02*
G03X472000Y4818000I0J-20000D01*
G01X407000D02*
X472000D01*
G01Y4684000D02*
X407000D01*
G01X472000D02*
G03X492000Y4664000I20000J0D01*
G01X407000Y5525000D02*
Y5085000D01*
G01X472000Y5446000D02*
X407000D01*
G01X472000D02*
G03X492000Y5426000I20000J0D01*
G01X472000Y5192000D02*
X407000D01*
G01X472000D02*
G03X492000Y5172000I20000J0D01*
G01Y5346000D02*
G03X472000Y5326000I0J-20000D01*
G01X407000D02*
X472000D01*
G01X407000Y5085000D02*
Y5065000D01*
G01X492000Y5092000D02*
G03X472000Y5072000I0J-20000D01*
G01X407000D02*
X472000D01*
G01X407000Y6125000D02*
Y5685000D01*
G01D02*
Y5665000D01*
G01D02*
Y5545000D01*
G01D02*
Y5525000D01*
G01X472000Y5700000D02*
X407000D01*
G01X472000D02*
G03X492000Y5680000I20000J0D01*
G01Y5600000D02*
G03X472000Y5580000I0J-20000D01*
G01X407000D02*
X472000D01*
G01X492000Y5854000D02*
G03X472000Y5834000I0J-20000D01*
G01X407000D02*
X472000D01*
G01X407000Y6725000D02*
Y6285000D01*
G01Y6145000D02*
Y6125000D01*
G01X492000Y6108000D02*
G03X472000Y6088000I0J-20000D01*
G01X407000D02*
X472000D01*
G01X407000Y6285000D02*
Y6265000D01*
G01D02*
Y6145000D01*
G01X472000Y6208000D02*
X407000D01*
G01X472000D02*
G03X492000Y6188000I20000J0D01*
G01X472000Y5954000D02*
X407000D01*
G01X472000D02*
G03X492000Y5934000I20000J0D01*
G01X407000Y6745000D02*
Y6725000D01*
G01X472000Y6716000D02*
X407000D01*
G01X472000D02*
G03X492000Y6696000I20000J0D01*
G01X472000Y6462000D02*
X407000D01*
G01X472000D02*
G03X492000Y6442000I20000J0D01*
G01Y6362000D02*
G03X472000Y6342000I0J-20000D01*
G01X407000D02*
X472000D01*
G01X492000Y6616000D02*
G03X472000Y6596000I0J-20000D01*
G01X407000D02*
X472000D01*
G01X407000Y6885000D02*
Y6865000D01*
G01D02*
Y6745000D01*
G01X492000Y6870000D02*
G03X472000Y6850000I0J-20000D01*
G01X407000D02*
X472000D01*
G01X407000Y7325000D02*
Y6885000D01*
G01X472000Y6970000D02*
X407000D01*
G01X472000D02*
G03X492000Y6950000I20000J0D01*
G01Y7124000D02*
G03X472000Y7104000I0J-20000D01*
G01X407000D02*
X472000D01*
G01X407000Y7485000D02*
Y7465000D01*
G01D02*
Y7345000D01*
G01X472000Y7478000D02*
X407000D01*
G01X472000D02*
G03X492000Y7458000I20000J0D01*
G01X407000Y7925000D02*
Y7485000D01*
G01Y7345000D02*
Y7325000D01*
G01X472000Y7224000D02*
X407000D01*
G01X472000D02*
G03X492000Y7204000I20000J0D01*
G01Y7378000D02*
G03X472000Y7358000I0J-20000D01*
G01X407000D02*
X472000D01*
G01X492000Y7632000D02*
G03X472000Y7612000I0J-20000D01*
G01X407000D02*
X472000D01*
G01X407000Y8065000D02*
Y7945000D01*
G01D02*
Y7925000D01*
G01X472000Y7732000D02*
X407000D01*
G01X472000D02*
G03X492000Y7712000I20000J0D01*
G01X472000Y7986000D02*
X407000D01*
G01X472000D02*
G03X492000Y7966000I20000J0D01*
G01Y7886000D02*
G03X472000Y7866000I0J-20000D01*
G01X407000D02*
X472000D01*
G01X407000Y8445000D02*
Y8085000D01*
G01X472000Y8240000D02*
X407000D01*
G01X472000D02*
G03X492000Y8220000I20000J0D01*
G01Y8394000D02*
G03X472000Y8374000I0J-20000D01*
G01X407000D02*
X472000D01*
G01X492000Y8140000D02*
G03X472000Y8120000I0J-20000D01*
G01X407000D02*
X472000D01*
G01X407000Y8085000D02*
Y8065000D01*
G01Y9057000D02*
Y8827000D01*
G01D02*
Y8807000D01*
G01D02*
Y8605000D01*
G01D02*
Y8585000D01*
G01D02*
Y8465000D01*
G01D02*
Y8445000D01*
G01X472000Y8494000D02*
X407000D01*
G01X472000D02*
G03X492000Y8474000I20000J0D01*
G01X472000Y8748000D02*
X407000D01*
G01X472000D02*
G03X492000Y8728000I20000J0D01*
G01Y8648000D02*
G03X472000Y8628000I0J-20000D01*
G01X407000D02*
X472000D01*
G01X642000Y9150000D02*
Y9700000D01*
G01X407000Y9150000D02*
X642000D01*
G01X407000Y9165000D02*
Y9077000D01*
G01D02*
Y9057000D01*
G01X472000Y9002000D02*
X407000D01*
G01X472000D02*
G03X492000Y8982000I20000J0D01*
G01Y8902000D02*
G03X472000Y8882000I0J-20000D01*
G01X407000D02*
X472000D01*
G01X428410Y9700000D02*
X642000D01*
G01X1964440Y6202680D02*
X2063500D01*
Y6286500D01*
G01Y6413500D02*
Y6494780D01*
X1964440D01*
G01X1830000Y6610000D02*
Y6890000D01*
X1970000D01*
Y6610000D01*
X1830000D01*
G01X2385000Y6512500D02*
Y6487500D01*
G01X2215000D02*
Y6512500D01*
G01X2390000Y6730000D02*
X2110000D01*
Y6870000D01*
X2390000D01*
Y6730000D01*
G01X2440000Y1330000D02*
Y1335850D01*
G01Y1330000D02*
X2530000D01*
G01Y1730000D02*
X2460100D01*
G01Y1770000D02*
X2530000D01*
G01X2440000Y2164150D02*
Y2170000D01*
G01X2530000D02*
X2430000D01*
G01X2440000Y2330000D02*
Y2335850D01*
G01Y2330000D02*
X2530000D01*
G01Y2730000D02*
X2460100D01*
G01Y2770000D02*
X2530000D01*
G01X2440000Y3164150D02*
Y3170000D01*
G01X2530000D02*
X2430000D01*
G01X2440000Y3330000D02*
Y3335850D01*
G01Y3330000D02*
X2530000D01*
G01Y3730000D02*
X2460100D01*
G01Y3770000D02*
X2530000D01*
G01X2440000Y4164150D02*
Y4170000D01*
G01X2530000D02*
X2430000D01*
G01X2440000Y4330000D02*
Y4335850D01*
G01Y4330000D02*
X2530000D01*
G01Y4730000D02*
X2460100D01*
G01Y4770000D02*
X2530000D01*
G01X2440000Y5164150D02*
Y5170000D01*
G01X2530000D02*
X2430000D01*
G01X2635000Y6512500D02*
Y6487500D01*
G01X2465000D02*
Y6512500D01*
G01X2890000Y6730000D02*
X2610000D01*
Y6870000D01*
X2890000D01*
Y6730000D01*
G01X2800000Y9427000D02*
Y9173000D01*
G01X3070000Y1335850D02*
Y1330000D01*
G01X2980000D02*
X3070000D01*
G01Y1730000D02*
Y1724150D01*
G01X2980000Y1730000D02*
X3070000D01*
G01Y1775850D02*
Y1770000D01*
G01X2980000D02*
X3070000D01*
G01Y2170000D02*
Y2164150D01*
G01X2980000Y2170000D02*
X3070000D01*
G01Y2335850D02*
Y2330000D01*
G01X2980000D02*
X3070000D01*
G01Y2730000D02*
Y2724150D01*
G01X2980000Y2730000D02*
X3070000D01*
G01Y2775850D02*
Y2770000D01*
G01X2980000D02*
X3070000D01*
G01Y3170000D02*
Y3164150D01*
G01X2980000Y3170000D02*
X3070000D01*
G01Y3335850D02*
Y3330000D01*
G01X2980000D02*
X3070000D01*
G01Y3730000D02*
Y3724150D01*
G01X2980000Y3730000D02*
X3070000D01*
G01Y3775850D02*
Y3770000D01*
G01X2980000D02*
X3070000D01*
G01Y4170000D02*
Y4164150D01*
G01X2980000Y4170000D02*
X3070000D01*
G01Y4335850D02*
Y4330000D01*
G01X2980000D02*
X3070000D01*
G01Y4730000D02*
Y4724150D01*
G01X2980000Y4730000D02*
X3070000D01*
G01Y4775850D02*
Y4770000D01*
G01X2980000D02*
X3070000D01*
G01Y5170000D02*
Y5164150D01*
G01X2980000Y5170000D02*
X3070000D01*
G01X5900000Y310000D02*
Y315850D01*
G01Y310000D02*
X5990000D01*
G01X6210610Y532140D02*
X6204770Y536080D01*
X6197960Y538700D01*
X6190170D01*
X6181410Y534760D01*
X6174600Y528210D01*
X6169730Y520340D01*
X6165840Y507220D01*
X6164870Y495410D01*
X6166810Y483610D01*
X6169730Y475740D01*
X6175570Y467870D01*
X6182390Y462620D01*
X6189200Y460000D01*
X6196010D01*
X6202830Y462620D01*
X6208670Y466560D01*
X6213530Y471800D01*
G01X6249410Y525580D02*
X6255250Y533450D01*
X6262060Y537390D01*
X6269850Y538700D01*
X6279580Y536080D01*
X6286390Y529520D01*
X6288340Y521650D01*
X6287370Y513780D01*
X6283470Y507220D01*
X6264010Y494100D01*
X6255250Y484920D01*
X6249410Y471800D01*
X6247460Y460000D01*
X6288340D01*
G01X5990000Y710000D02*
X5920100D01*
G01Y750000D02*
X5990000D01*
G01X6190610Y952140D02*
X6184770Y956080D01*
X6177960Y958700D01*
X6170170D01*
X6161410Y954760D01*
X6154600Y948210D01*
X6149730Y940340D01*
X6145840Y927220D01*
X6144870Y915410D01*
X6146810Y903610D01*
X6149730Y895740D01*
X6155570Y887870D01*
X6162390Y882620D01*
X6169200Y880000D01*
X6176010D01*
X6182830Y882620D01*
X6188670Y886560D01*
X6193530Y891800D01*
G01X6247900Y880000D02*
Y958700D01*
X6236220Y942960D01*
G01Y880000D02*
X6259580D01*
G01X5900000Y1144150D02*
Y1150000D01*
G01X5990000D02*
X5890000D01*
G01X6530000Y315850D02*
Y310000D01*
G01X6440000D02*
X6530000D01*
G01X6649730Y810000D02*
Y888700D01*
X6674070D01*
X6681850Y884760D01*
X6686720Y879520D01*
X6688670Y869020D01*
X6686720Y858530D01*
X6680880Y851970D01*
X6674070Y848040D01*
X6649730D01*
G01X6674070D02*
X6688670Y810000D01*
G01X6726490Y825740D02*
X6732330Y816560D01*
X6740110Y811310D01*
X6748870Y810000D01*
X6756660Y811310D01*
X6764450Y817870D01*
X6769310Y825740D01*
X6770290Y833610D01*
X6768340Y842790D01*
X6761530Y849350D01*
X6754710Y851970D01*
X6745950D01*
G01X6754710D02*
X6760550Y855910D01*
X6765420Y862470D01*
X6767370Y870340D01*
X6765420Y878210D01*
X6760550Y884760D01*
X6751790Y888700D01*
X6743030Y887390D01*
X6734270Y882140D01*
G01X6530000Y710000D02*
Y704150D01*
G01X6440000Y710000D02*
X6530000D01*
G01Y755850D02*
Y750000D01*
G01X6440000D02*
X6530000D01*
G01X6649730Y990000D02*
Y1068700D01*
X6674070D01*
X6681850Y1064760D01*
X6686720Y1059520D01*
X6688670Y1049020D01*
X6686720Y1038530D01*
X6680880Y1031970D01*
X6674070Y1028040D01*
X6649730D01*
G01X6674070D02*
X6688670Y990000D01*
G01X6747900D02*
Y1068700D01*
X6736220Y1052960D01*
G01Y990000D02*
X6759580D01*
G01X6530000Y1150000D02*
Y1144150D01*
G01X6440000Y1150000D02*
X6530000D01*
G01X6659730Y380000D02*
Y458700D01*
X6684070D01*
X6691850Y454760D01*
X6696720Y449520D01*
X6698670Y439020D01*
X6696720Y428530D01*
X6690880Y421970D01*
X6684070Y418040D01*
X6659730D01*
G01X6684070D02*
X6698670Y380000D01*
G01X6739410Y445580D02*
X6745250Y453450D01*
X6752060Y457390D01*
X6759850Y458700D01*
X6769580Y456080D01*
X6776390Y449520D01*
X6778340Y441650D01*
X6777370Y433780D01*
X6773470Y427220D01*
X6754010Y414100D01*
X6745250Y404920D01*
X6739410Y391800D01*
X6737460Y380000D01*
X6778340D01*
G01X7040610Y452140D02*
X7034770Y456080D01*
X7027960Y458700D01*
X7020170D01*
X7011410Y454760D01*
X7004600Y448210D01*
X6999730Y440340D01*
X6995840Y427220D01*
X6994870Y415410D01*
X6996810Y403610D01*
X6999730Y395740D01*
X7005570Y387870D01*
X7012390Y382620D01*
X7019200Y380000D01*
X7026010D01*
X7032830Y382620D01*
X7038670Y386560D01*
X7043530Y391800D01*
G01X7109580Y380000D02*
Y458700D01*
X7073570Y402300D01*
X7122230D01*
G01X6659730Y550000D02*
Y628700D01*
X6684070D01*
X6691850Y624760D01*
X6696720Y619520D01*
X6698670Y609020D01*
X6696720Y598530D01*
X6690880Y591970D01*
X6684070Y588040D01*
X6659730D01*
G01X6684070D02*
X6698670Y550000D01*
G01X6769580D02*
Y628700D01*
X6733570Y572300D01*
X6782230D01*
G01X7040610Y622140D02*
X7034770Y626080D01*
X7027960Y628700D01*
X7020170D01*
X7011410Y624760D01*
X7004600Y618210D01*
X6999730Y610340D01*
X6995840Y597220D01*
X6994870Y585410D01*
X6996810Y573610D01*
X6999730Y565740D01*
X7005570Y557870D01*
X7012390Y552620D01*
X7019200Y550000D01*
X7026010D01*
X7032830Y552620D01*
X7038670Y556560D01*
X7043530Y561800D01*
G01X7079410Y582790D02*
X7086220Y591970D01*
X7092060Y597220D01*
X7099850Y599840D01*
X7106660Y597220D01*
X7111530Y591970D01*
X7115420Y584100D01*
X7116390Y574920D01*
X7115420Y567050D01*
X7111530Y559180D01*
X7105690Y552620D01*
X7098870Y550000D01*
X7091090Y552620D01*
X7084270Y560490D01*
X7080380Y572300D01*
X7079410Y585410D01*
X7081350Y602470D01*
X7084270Y611650D01*
X7089140Y620830D01*
X7095950Y627390D01*
X7102770Y628700D01*
X7109580Y626080D01*
X7114450Y619520D01*
G01X7050610Y882140D02*
X7044770Y886080D01*
X7037960Y888700D01*
X7030170D01*
X7021410Y884760D01*
X7014600Y878210D01*
X7009730Y870340D01*
X7005840Y857220D01*
X7004870Y845410D01*
X7006810Y833610D01*
X7009730Y825740D01*
X7015570Y817870D01*
X7022390Y812620D01*
X7029200Y810000D01*
X7036010D01*
X7042830Y812620D01*
X7048670Y816560D01*
X7053530Y821800D01*
G01X7086490D02*
X7092330Y815250D01*
X7099140Y811310D01*
X7107900Y810000D01*
X7116660Y812620D01*
X7123470Y817870D01*
X7128340Y827050D01*
X7129310Y837540D01*
X7127370Y848040D01*
X7122500Y854600D01*
X7115690Y859840D01*
X7108870Y861150D01*
X7102060Y859840D01*
X7093300Y854600D01*
X7096220Y888700D01*
X7122500D01*
G01X7060610Y1062140D02*
X7054770Y1066080D01*
X7047960Y1068700D01*
X7040170D01*
X7031410Y1064760D01*
X7024600Y1058210D01*
X7019730Y1050340D01*
X7015840Y1037220D01*
X7014870Y1025410D01*
X7016810Y1013610D01*
X7019730Y1005740D01*
X7025570Y997870D01*
X7032390Y992620D01*
X7039200Y990000D01*
X7046010D01*
X7052830Y992620D01*
X7058670Y996560D01*
X7063530Y1001800D01*
G01X7096490Y1005740D02*
X7102330Y996560D01*
X7110110Y991310D01*
X7118870Y990000D01*
X7126660Y991310D01*
X7134450Y997870D01*
X7139310Y1005740D01*
X7140290Y1013610D01*
X7138340Y1022790D01*
X7131530Y1029350D01*
X7124710Y1031970D01*
X7115950D01*
G01X7124710D02*
X7130550Y1035910D01*
X7135420Y1042470D01*
X7137370Y1050340D01*
X7135420Y1058210D01*
X7130550Y1064760D01*
X7121790Y1068700D01*
X7113030Y1067390D01*
X7104270Y1062140D01*
G01X8309000Y3097000D02*
X8669000D01*
X8839000Y2927000D01*
Y2747000D01*
X8809000Y2717000D01*
X8319000D01*
X8309000Y2727000D01*
Y3097000D01*
G01X8280000Y3860000D02*
X8640000D01*
X8810000Y3690000D01*
Y3510000D01*
X8780000Y3480000D01*
X8290000D01*
X8280000Y3490000D01*
Y3860000D01*
G01X8769000Y3074000D02*
X9099000D01*
X9147000Y3122000D01*
Y3287000D01*
X9284000Y3424000D01*
X9295000D01*
Y3494000D01*
X9229000Y3560000D01*
X9140000D01*
X8954000Y3374000D01*
Y3304000D01*
X8914000Y3264000D01*
X8764000D01*
X8742000Y3242000D01*
Y3101000D01*
X8769000Y3074000D01*
G54D12*
G01X2400000Y2220000D02*
X3850000D01*
X3860000Y2210000D01*
Y1290000D01*
X2410000D01*
X2400000Y1300000D01*
Y2220000D01*
G01Y3220000D02*
X3850000D01*
X3860000Y3210000D01*
Y2290000D01*
X2410000D01*
X2400000Y2300000D01*
Y3220000D01*
G01Y4220000D02*
X3850000D01*
X3860000Y4210000D01*
Y3290000D01*
X2410000D01*
X2400000Y3300000D01*
Y4220000D01*
G01Y5220000D02*
X3850000D01*
X3860000Y5210000D01*
Y4290000D01*
X2410000D01*
X2400000Y4300000D01*
Y5220000D01*
G01X4200000Y2220000D02*
X5650000D01*
X5660000Y2210000D01*
Y1290000D01*
X4210000D01*
X4200000Y1300000D01*
Y2220000D01*
G01Y3220000D02*
X5650000D01*
X5660000Y3210000D01*
Y2290000D01*
X4210000D01*
X4200000Y2300000D01*
Y3220000D01*
G01Y4220000D02*
X5650000D01*
X5660000Y4210000D01*
Y3290000D01*
X4210000D01*
X4200000Y3300000D01*
Y4220000D01*
G01Y5220000D02*
X5650000D01*
X5660000Y5210000D01*
Y4290000D01*
X4210000D01*
X4200000Y4300000D01*
Y5220000D01*
G01X5860000Y750000D02*
X5760000D01*
X5330000Y1180000D01*
G01X5850000Y1200000D02*
X7300000D01*
X7310000Y1190000D01*
Y270000D01*
X5860000D01*
X5850000Y280000D01*
Y1200000D01*
G01X12080000Y1090000D02*
X13350000D01*
X13370000Y1070000D01*
Y510000D01*
X13360000Y500000D01*
X12090000D01*
X12080000Y510000D01*
Y1090000D01*
G01X13680000Y580000D02*
X13620000D01*
X13350000Y850000D01*
G01X13700000Y700000D02*
X15700000D01*
Y430000D01*
X15680000Y410000D01*
X13750000D01*
X13700000Y460000D01*
Y700000D01*
G54D13*
G01X1304820Y320480D02*
X1312230Y305240D01*
X1321110Y295080D01*
X1331490Y290000D01*
X1343340Y295080D01*
X1352230Y305240D01*
X1361120Y320480D01*
X1364080Y340800D01*
Y442400D01*
G01X1436260Y391600D02*
Y320480D01*
X1442190Y302700D01*
X1451080Y292540D01*
X1461450Y290000D01*
X1471820Y292540D01*
X1480710Y302700D01*
X1486640Y320480D01*
G01Y290000D02*
Y391600D01*
G01X1588450Y290000D02*
Y442400D01*
G01X1684330Y244280D02*
X1693230Y239200D01*
X1705080Y244280D01*
X1712490Y254440D01*
X1718410Y267140D01*
X1727300Y307780D01*
X1746570Y391600D01*
G01X1699150D02*
X1727300Y307780D01*
G01X1941300Y417000D02*
X1950190Y432240D01*
X1960560Y439860D01*
X1972410Y442400D01*
X1987230Y437320D01*
X1997600Y424620D01*
X2000570Y409380D01*
X1999080Y394140D01*
X1993160Y381440D01*
X1963520Y356040D01*
X1950190Y338260D01*
X1941300Y312860D01*
X1938330Y290000D01*
X2000570D01*
G01X2096450Y442400D02*
X2084600Y437320D01*
X2075710Y424620D01*
X2069780Y409380D01*
X2065330Y389060D01*
X2063850Y366200D01*
X2065330Y343340D01*
X2069780Y323020D01*
X2075710Y307780D01*
X2084600Y295080D01*
X2096450Y290000D01*
X2108300Y295080D01*
X2117190Y307780D01*
X2123120Y323020D01*
X2127570Y343340D01*
X2129050Y366200D01*
X2127570Y389060D01*
X2123120Y409380D01*
X2117190Y424620D01*
X2108300Y437320D01*
X2096450Y442400D01*
G01X2223450Y290000D02*
Y442400D01*
X2205670Y411920D01*
G01Y290000D02*
X2241230D01*
G01X2317850Y312860D02*
X2326740Y300160D01*
X2337110Y292540D01*
X2350450Y290000D01*
X2363790Y295080D01*
X2374160Y305240D01*
X2381570Y323020D01*
X2383050Y343340D01*
X2380080Y363660D01*
X2372670Y376360D01*
X2362300Y386520D01*
X2351930Y389060D01*
X2341560Y386520D01*
X2328230Y376360D01*
X2332670Y442400D01*
X2372670D01*
G01X1249260Y911600D02*
Y840480D01*
X1255190Y822700D01*
X1264080Y812540D01*
X1274450Y810000D01*
X1284820Y812540D01*
X1293710Y822700D01*
X1299640Y840480D01*
G01Y810000D02*
Y911600D01*
G01X1401450Y810000D02*
X1392560Y812540D01*
X1383670Y822700D01*
X1377740Y840480D01*
X1374780Y860800D01*
X1377740Y881120D01*
X1383670Y898900D01*
X1392560Y909060D01*
X1401450Y911600D01*
X1410340Y909060D01*
X1419230Y898900D01*
X1425160Y881120D01*
X1426640Y860800D01*
X1425160Y840480D01*
X1419230Y822700D01*
X1410340Y812540D01*
X1401450Y810000D01*
G01X1501780D02*
Y962400D01*
G01Y886200D02*
X1509190Y901440D01*
X1518080Y909060D01*
X1526970Y911600D01*
X1540300Y906520D01*
X1549190Y896360D01*
X1555120Y878580D01*
Y858260D01*
X1552160Y837940D01*
X1546230Y822700D01*
X1535860Y812540D01*
X1526970Y810000D01*
X1518080Y812540D01*
X1509190Y820160D01*
X1501780Y832860D01*
G01X1636190Y860800D02*
X1674710D01*
G01X1757260Y810000D02*
Y962400D01*
G01Y888740D02*
X1764670Y901440D01*
X1772080Y909060D01*
X1783930Y911600D01*
X1792820Y909060D01*
X1803190Y898900D01*
X1807640Y883660D01*
Y810000D01*
G01X1887230Y878580D02*
X1934640D01*
X1930190Y896360D01*
X1922790Y906520D01*
X1912410Y911600D01*
X1902040Y909060D01*
X1893150Y901440D01*
X1887230Y883660D01*
X1884260Y868420D01*
Y853180D01*
X1887230Y837940D01*
X1894630Y822700D01*
X1903520Y812540D01*
X1913900Y810000D01*
X1924270Y815080D01*
X1934640Y830320D01*
G01X2009780Y759200D02*
Y911600D01*
G01Y888740D02*
X2017190Y901440D01*
X2024600Y909060D01*
X2036450Y911600D01*
X2046820Y909060D01*
X2057190Y896360D01*
X2061640Y878580D01*
X2063120Y860800D01*
X2061640Y843020D01*
X2057190Y825240D01*
X2048300Y815080D01*
X2036450Y810000D01*
X2026080Y812540D01*
X2015710Y820160D01*
X2009780Y830320D01*
G01X2144190Y860800D02*
X2182710D01*
G01X2263780Y759200D02*
Y911600D01*
G01Y888740D02*
X2271190Y901440D01*
X2278600Y909060D01*
X2290450Y911600D01*
X2300820Y909060D01*
X2311190Y896360D01*
X2315640Y878580D01*
X2317120Y860800D01*
X2315640Y843020D01*
X2311190Y825240D01*
X2302300Y815080D01*
X2290450Y810000D01*
X2280080Y812540D01*
X2269710Y820160D01*
X2263780Y830320D01*
G01X2441160Y898900D02*
X2430790Y909060D01*
X2421900Y911600D01*
X2410040Y906520D01*
X2401150Y896360D01*
X2395230Y878580D01*
X2393740Y860800D01*
X2395230Y843020D01*
X2401150Y827780D01*
X2410040Y815080D01*
X2421900Y810000D01*
X2432270Y815080D01*
X2441160Y825240D01*
G01X2544450Y962400D02*
X2532600Y957320D01*
X2523710Y944620D01*
X2517780Y929380D01*
X2513330Y909060D01*
X2511850Y886200D01*
X2513330Y863340D01*
X2517780Y843020D01*
X2523710Y827780D01*
X2532600Y815080D01*
X2544450Y810000D01*
X2556300Y815080D01*
X2565190Y827780D01*
X2571120Y843020D01*
X2575570Y863340D01*
X2577050Y886200D01*
X2575570Y909060D01*
X2571120Y929380D01*
X2565190Y944620D01*
X2556300Y957320D01*
X2544450Y962400D01*
G01X2638850Y832860D02*
X2647740Y820160D01*
X2658110Y812540D01*
X2671450Y810000D01*
X2684790Y815080D01*
X2695160Y825240D01*
X2702570Y843020D01*
X2704050Y863340D01*
X2701080Y883660D01*
X2693670Y896360D01*
X2683300Y906520D01*
X2672930Y909060D01*
X2662560Y906520D01*
X2649230Y896360D01*
X2653670Y962400D01*
X2693670D01*
G01X2798450Y810000D02*
Y962400D01*
X2780670Y931920D01*
G01Y810000D02*
X2816230D01*
G01X2952120D02*
Y911600D01*
G01Y893820D02*
X2946190Y903980D01*
X2937300Y909060D01*
X2926930Y911600D01*
X2916560Y906520D01*
X2907670Y896360D01*
X2901740Y881120D01*
X2898780Y860800D01*
X2901740Y840480D01*
X2907670Y825240D01*
X2916560Y815080D01*
X2926930Y810000D01*
X2937300Y812540D01*
X2946190Y820160D01*
X2952120Y830320D01*
G01X1251850Y702400D02*
Y593180D01*
X1257780Y570320D01*
X1269630Y555080D01*
X1284450Y550000D01*
X1299270Y555080D01*
X1311120Y570320D01*
X1317050Y593180D01*
Y702400D01*
G01X1386260Y550000D02*
Y651600D01*
G01Y626200D02*
X1392190Y638900D01*
X1401080Y649060D01*
X1412930Y651600D01*
X1423300Y649060D01*
X1432190Y638900D01*
X1436640Y621120D01*
Y550000D01*
G01X1538450Y651600D02*
Y550000D01*
G01Y692240D02*
X1535490Y694780D01*
Y699860D01*
X1538450Y702400D01*
X1541410Y699860D01*
Y694780D01*
X1538450Y692240D01*
G01X1638780Y651600D02*
X1665450Y550000D01*
X1692120Y651600D01*
G01X1770230Y618580D02*
X1817640D01*
X1813190Y636360D01*
X1805790Y646520D01*
X1795410Y651600D01*
X1785040Y649060D01*
X1776150Y641440D01*
X1770230Y623660D01*
X1767260Y608420D01*
Y593180D01*
X1770230Y577940D01*
X1777630Y562700D01*
X1786520Y552540D01*
X1796900Y550000D01*
X1807270Y555080D01*
X1817640Y570320D01*
G01X1898710Y550000D02*
Y651600D01*
G01Y631280D02*
X1906110Y641440D01*
X1913520Y649060D01*
X1923900Y651600D01*
X1931300Y649060D01*
X1940190Y641440D01*
G01X2024230Y567780D02*
X2031630Y557620D01*
X2042000Y550000D01*
X2050900D01*
X2059790Y555080D01*
X2065710Y562700D01*
X2068670Y572860D01*
X2067190Y588100D01*
X2061270Y595720D01*
X2034600Y610960D01*
X2028670Y628740D01*
X2031630Y641440D01*
X2037560Y649060D01*
X2046450Y651600D01*
X2055340Y649060D01*
X2064230Y641440D01*
G01X2173450Y651600D02*
Y550000D01*
G01Y692240D02*
X2170490Y694780D01*
Y699860D01*
X2173450Y702400D01*
X2176410Y699860D01*
Y694780D01*
X2173450Y692240D01*
G01X2300450Y702400D02*
Y550000D01*
G01X2279710Y651600D02*
X2321190D01*
G01X2396330Y504280D02*
X2405230Y499200D01*
X2417080Y504280D01*
X2424490Y514440D01*
X2430410Y527140D01*
X2439300Y567780D01*
X2458570Y651600D01*
G01X2411150D02*
X2439300Y567780D01*
G01X2681450Y550000D02*
X2672560Y552540D01*
X2663670Y562700D01*
X2657740Y580480D01*
X2654780Y600800D01*
X2657740Y621120D01*
X2663670Y638900D01*
X2672560Y649060D01*
X2681450Y651600D01*
X2690340Y649060D01*
X2699230Y638900D01*
X2705160Y621120D01*
X2706640Y600800D01*
X2705160Y580480D01*
X2699230Y562700D01*
X2690340Y552540D01*
X2681450Y550000D01*
G01X2799560D02*
Y679540D01*
X2802520Y692240D01*
X2808450Y699860D01*
X2817340Y702400D01*
X2826230Y697320D01*
X2830670Y684620D01*
G01X2812900Y641440D02*
X2783260D01*
G01X3074300Y631280D02*
X3080230Y638900D01*
X3084670Y651600D01*
X3087640Y669380D01*
X3084670Y684620D01*
X3078750Y694780D01*
X3068380Y702400D01*
X3028370D01*
Y550000D01*
X3077270D01*
X3087640Y560160D01*
X3093570Y575400D01*
X3096530Y593180D01*
X3093570Y610960D01*
X3084670Y626200D01*
X3074300Y631280D01*
X3028370D01*
G01X3168710Y550000D02*
Y651600D01*
G01Y631280D02*
X3176110Y641440D01*
X3183520Y649060D01*
X3193900Y651600D01*
X3201300Y649060D01*
X3210190Y641440D01*
G01X3316450Y651600D02*
Y550000D01*
G01Y692240D02*
X3313490Y694780D01*
Y699860D01*
X3316450Y702400D01*
X3319410Y699860D01*
Y694780D01*
X3316450Y692240D01*
G01X3421230Y567780D02*
X3428630Y557620D01*
X3439000Y550000D01*
X3447900D01*
X3456790Y555080D01*
X3462710Y562700D01*
X3465670Y572860D01*
X3464190Y588100D01*
X3458270Y595720D01*
X3431600Y610960D01*
X3425670Y628740D01*
X3428630Y641440D01*
X3434560Y649060D01*
X3443450Y651600D01*
X3452340Y649060D01*
X3461230Y641440D01*
G01X3570450Y702400D02*
Y550000D01*
G01X3549710Y651600D02*
X3591190D01*
G01X3697450Y550000D02*
X3688560Y552540D01*
X3679670Y562700D01*
X3673740Y580480D01*
X3670780Y600800D01*
X3673740Y621120D01*
X3679670Y638900D01*
X3688560Y649060D01*
X3697450Y651600D01*
X3706340Y649060D01*
X3715230Y638900D01*
X3721160Y621120D01*
X3722640Y600800D01*
X3721160Y580480D01*
X3715230Y562700D01*
X3706340Y552540D01*
X3697450Y550000D01*
G01X3824450D02*
Y702400D01*
G01X4047330Y550000D02*
Y702400D01*
G01X4109570D02*
Y550000D01*
G01Y626200D02*
X4047330D01*
G01X4235080Y550000D02*
X4175820D01*
Y702400D01*
X4235080D01*
G01X4211380Y628740D02*
X4175820D01*
G01X4302820Y550000D02*
Y702400D01*
X4338380D01*
X4350230Y694780D01*
X4359120Y677000D01*
X4362080Y656680D01*
X4359120Y636360D01*
X4351710Y621120D01*
X4338380Y613500D01*
X4302820D01*
G01X2035700Y6123260D02*
X2024020Y6122370D01*
X2013100Y6118620D01*
X2004720Y6110240D01*
X2000680Y6095420D01*
X2002320Y6079110D01*
X2007860Y6063090D01*
X2021630Y6040940D01*
X2036740Y6023730D01*
X2055010Y6009660D01*
X2068930Y6002030D01*
X2085990Y5997540D01*
X2100510Y5997690D01*
X2111430Y6001430D01*
X2118760Y6008760D01*
X2122510Y6019690D01*
X2123410Y6031360D01*
X2121460Y6043790D01*
G01X2201230Y6091230D02*
X2093470Y6198990D01*
X2102450Y6164870D01*
G01X2188660Y6078660D02*
X2213800Y6103800D01*
G01X2181320Y6250930D02*
X2176830Y6267990D01*
X2178780Y6280710D01*
X2185360Y6290890D01*
X2199430Y6297780D01*
X2215750Y6296130D01*
X2228620Y6287450D01*
X2238350Y6275620D01*
X2243140Y6262450D01*
X2240140Y6223540D01*
X2243290Y6201540D01*
X2254960Y6177290D01*
X2269030Y6159030D01*
X2313030Y6203030D01*
G01X1800000Y6639820D02*
X1647600D01*
Y6676860D01*
X1655220Y6688710D01*
X1665380Y6696120D01*
X1685700Y6699080D01*
X1706020Y6696120D01*
X1718720Y6687230D01*
X1726340Y6676860D01*
Y6639820D01*
G01Y6676860D02*
X1800000Y6699080D01*
G01X1777140Y6763850D02*
X1789840Y6772740D01*
X1797460Y6783110D01*
X1800000Y6796450D01*
X1794920Y6809790D01*
X1784760Y6820160D01*
X1766980Y6827570D01*
X1746660Y6829050D01*
X1726340Y6826080D01*
X1713640Y6818670D01*
X1703480Y6808300D01*
X1700940Y6797930D01*
X1703480Y6787560D01*
X1713640Y6774230D01*
X1647600Y6778670D01*
Y6818670D01*
G01X1964820Y8120000D02*
Y8272400D01*
X2001860D01*
X2013710Y8264780D01*
X2021120Y8254620D01*
X2024080Y8234300D01*
X2021120Y8213980D01*
X2012230Y8201280D01*
X2001860Y8193660D01*
X1964820D01*
G01X2001860D02*
X2024080Y8120000D01*
G01X2121450D02*
Y8272400D01*
X2103670Y8241920D01*
G01Y8120000D02*
X2139230D01*
G01X2220300Y8247000D02*
X2229190Y8262240D01*
X2239560Y8269860D01*
X2251410Y8272400D01*
X2266230Y8267320D01*
X2276600Y8254620D01*
X2279570Y8239380D01*
X2278080Y8224140D01*
X2272160Y8211440D01*
X2242520Y8186040D01*
X2229190Y8168260D01*
X2220300Y8142860D01*
X2217330Y8120000D01*
X2279570D01*
G01X1964820Y8350000D02*
Y8502400D01*
X2001860D01*
X2013710Y8494780D01*
X2021120Y8484620D01*
X2024080Y8464300D01*
X2021120Y8443980D01*
X2012230Y8431280D01*
X2001860Y8423660D01*
X1964820D01*
G01X2001860D02*
X2024080Y8350000D01*
G01X2121450D02*
Y8502400D01*
X2103670Y8471920D01*
G01Y8350000D02*
X2139230D01*
G01X2248450D02*
Y8502400D01*
X2230670Y8471920D01*
G01Y8350000D02*
X2266230D01*
G01X2254450Y1670000D02*
Y1822400D01*
X2236670Y1791920D01*
G01Y1670000D02*
X2272230D01*
G01X2221850Y2700480D02*
X2230740Y2682700D01*
X2242600Y2672540D01*
X2255930Y2670000D01*
X2267790Y2672540D01*
X2279640Y2685240D01*
X2287050Y2700480D01*
X2288530Y2715720D01*
X2285570Y2733500D01*
X2275190Y2746200D01*
X2264820Y2751280D01*
X2251490D01*
G01X2264820D02*
X2273710Y2758900D01*
X2281120Y2771600D01*
X2284080Y2786840D01*
X2281120Y2802080D01*
X2273710Y2814780D01*
X2260380Y2822400D01*
X2247040Y2819860D01*
X2233710Y2809700D01*
G01X2272230Y3670000D02*
Y3822400D01*
X2217410Y3713180D01*
X2291490D01*
G01X2226300Y4733500D02*
X2236670Y4751280D01*
X2245560Y4761440D01*
X2257410Y4766520D01*
X2267790Y4761440D01*
X2275190Y4751280D01*
X2281120Y4736040D01*
X2282600Y4718260D01*
X2281120Y4703020D01*
X2275190Y4687780D01*
X2266300Y4675080D01*
X2255930Y4670000D01*
X2244080Y4675080D01*
X2233710Y4690320D01*
X2227780Y4713180D01*
X2226300Y4738580D01*
X2229260Y4771600D01*
X2233710Y4789380D01*
X2241110Y4807160D01*
X2251490Y4819860D01*
X2261860Y4822400D01*
X2272230Y4817320D01*
X2279640Y4804620D01*
G01X2236700Y5663150D02*
X2245590Y5655530D01*
X2255960Y5650450D01*
X2267820D01*
X2281150Y5658070D01*
X2291520Y5670770D01*
X2298930Y5686010D01*
X2304860Y5711410D01*
X2306340Y5734270D01*
X2303380Y5757130D01*
X2298930Y5772370D01*
X2290040Y5787610D01*
X2279670Y5797770D01*
X2269300Y5802850D01*
X2258930D01*
X2248560Y5797770D01*
X2239670Y5790150D01*
X2232260Y5779990D01*
G01X2167490Y5785070D02*
X2157120Y5797770D01*
X2145260Y5802850D01*
X2133410Y5797770D01*
X2123040Y5782530D01*
X2115630Y5759670D01*
X2112670Y5736810D01*
Y5708870D01*
X2115630Y5686010D01*
X2123040Y5665690D01*
X2131930Y5655530D01*
X2142300Y5650450D01*
X2154150Y5655530D01*
X2163040Y5665690D01*
X2168970Y5680930D01*
X2171930Y5701250D01*
X2168970Y5719030D01*
X2161560Y5736810D01*
X2152670Y5746970D01*
X2142300Y5749510D01*
X2130450Y5744430D01*
X2121560Y5731730D01*
X2112670Y5708870D01*
G01X2320000Y6924820D02*
X2167600D01*
Y6961860D01*
X2175220Y6973710D01*
X2185380Y6981120D01*
X2205700Y6984080D01*
X2226020Y6981120D01*
X2238720Y6972230D01*
X2246340Y6961860D01*
Y6924820D01*
G01Y6961860D02*
X2320000Y6984080D01*
G01X2256500Y7053300D02*
X2238720Y7063670D01*
X2228560Y7072560D01*
X2223480Y7084410D01*
X2228560Y7094790D01*
X2238720Y7102190D01*
X2253960Y7108120D01*
X2271740Y7109600D01*
X2286980Y7108120D01*
X2302220Y7102190D01*
X2314920Y7093300D01*
X2320000Y7082930D01*
X2314920Y7071080D01*
X2299680Y7060710D01*
X2276820Y7054780D01*
X2251420Y7053300D01*
X2218400Y7056260D01*
X2200620Y7060710D01*
X2182840Y7068110D01*
X2170140Y7078490D01*
X2167600Y7088860D01*
X2172680Y7099230D01*
X2185380Y7106640D01*
G01X2150300Y8812050D02*
X2142680Y8803160D01*
X2137600Y8792790D01*
Y8780930D01*
X2145220Y8767600D01*
X2157920Y8757230D01*
X2173160Y8749820D01*
X2198560Y8743890D01*
X2221420Y8742410D01*
X2244280Y8745370D01*
X2259520Y8749820D01*
X2274760Y8758710D01*
X2284920Y8769080D01*
X2290000Y8779450D01*
Y8789820D01*
X2284920Y8800190D01*
X2277300Y8809080D01*
X2267140Y8816490D01*
G01X2226500Y8878300D02*
X2208720Y8888670D01*
X2198560Y8897560D01*
X2193480Y8909410D01*
X2198560Y8919790D01*
X2208720Y8927190D01*
X2223960Y8933120D01*
X2241740Y8934600D01*
X2256980Y8933120D01*
X2272220Y8927190D01*
X2284920Y8918300D01*
X2290000Y8907930D01*
X2284920Y8896080D01*
X2269680Y8885710D01*
X2246820Y8879780D01*
X2221420Y8878300D01*
X2188400Y8881260D01*
X2170620Y8885710D01*
X2152840Y8893110D01*
X2140140Y8903490D01*
X2137600Y8913860D01*
X2142680Y8924230D01*
X2155380Y8931640D01*
G01X2530000Y9216870D02*
X2377600D01*
Y9253910D01*
X2385220Y9265760D01*
X2395380Y9273170D01*
X2415700Y9276130D01*
X2436020Y9273170D01*
X2448720Y9264280D01*
X2456340Y9253910D01*
Y9216870D01*
G01Y9253910D02*
X2530000Y9276130D01*
G01Y9391280D02*
X2377600D01*
X2486820Y9336460D01*
Y9410540D01*
G01X2247000Y9720000D02*
X3060000D01*
Y9480000D01*
X2247000D01*
Y9720000D01*
G01X2390000D02*
X2460000Y9800000D01*
X2320000D01*
X2390000Y9720000D01*
G01X2764820Y5600000D02*
Y5752400D01*
X2801860D01*
X2813710Y5744780D01*
X2821120Y5734620D01*
X2824080Y5714300D01*
X2821120Y5693980D01*
X2812230Y5681280D01*
X2801860Y5673660D01*
X2764820D01*
G01X2801860D02*
X2824080Y5600000D01*
G01X2896260Y5617780D02*
X2906630Y5605080D01*
X2918490Y5600000D01*
X2930340Y5605080D01*
X2940710Y5620320D01*
X2948120Y5643180D01*
X2951080Y5666040D01*
Y5693980D01*
X2948120Y5716840D01*
X2940710Y5737160D01*
X2931820Y5747320D01*
X2921450Y5752400D01*
X2909600Y5747320D01*
X2900710Y5737160D01*
X2894780Y5721920D01*
X2891820Y5701600D01*
X2894780Y5683820D01*
X2902190Y5666040D01*
X2911080Y5655880D01*
X2921450Y5653340D01*
X2933300Y5658420D01*
X2942190Y5671120D01*
X2951080Y5693980D01*
G01X2795700Y6593260D02*
X2784020Y6592370D01*
X2773100Y6588620D01*
X2764720Y6580240D01*
X2760680Y6565420D01*
X2762320Y6549110D01*
X2767860Y6533090D01*
X2781630Y6510940D01*
X2796740Y6493730D01*
X2815010Y6479660D01*
X2828930Y6472030D01*
X2845990Y6467540D01*
X2860510Y6467690D01*
X2871430Y6471430D01*
X2878760Y6478760D01*
X2882510Y6489690D01*
X2883410Y6501360D01*
X2881460Y6513790D01*
G01X2961230Y6561230D02*
X2853470Y6668990D01*
X2862450Y6634870D01*
G01X2948660Y6548660D02*
X2973800Y6573800D01*
G01X3051030Y6651030D02*
X2943270Y6758790D01*
X2952250Y6724670D01*
G01X3038460Y6638460D02*
X3063600Y6663600D01*
G01X2450300Y6747050D02*
X2442680Y6738160D01*
X2437600Y6727790D01*
Y6715930D01*
X2445220Y6702600D01*
X2457920Y6692230D01*
X2473160Y6684820D01*
X2498560Y6678890D01*
X2521420Y6677410D01*
X2544280Y6680370D01*
X2559520Y6684820D01*
X2574760Y6693710D01*
X2584920Y6704080D01*
X2590000Y6714450D01*
Y6724820D01*
X2584920Y6735190D01*
X2577300Y6744080D01*
X2567140Y6751490D01*
G01X2590000Y6838490D02*
X2556980Y6841450D01*
X2529040Y6845900D01*
X2503640Y6851820D01*
X2475700Y6859230D01*
X2437600Y6871080D01*
Y6811820D01*
G01X2820000Y6934820D02*
X2667600D01*
Y6971860D01*
X2675220Y6983710D01*
X2685380Y6991120D01*
X2705700Y6994080D01*
X2726020Y6991120D01*
X2738720Y6982230D01*
X2746340Y6971860D01*
Y6934820D01*
G01Y6971860D02*
X2820000Y6994080D01*
G01Y7088490D02*
X2786980Y7091450D01*
X2759040Y7095900D01*
X2733640Y7101820D01*
X2705700Y7109230D01*
X2667600Y7121080D01*
Y7061820D01*
G01X3005700Y6493260D02*
X2994020Y6492370D01*
X2983100Y6488620D01*
X2974720Y6480240D01*
X2970680Y6465420D01*
X2972320Y6449110D01*
X2977860Y6433090D01*
X2991630Y6410940D01*
X3006740Y6393730D01*
X3025010Y6379660D01*
X3038930Y6372030D01*
X3055990Y6367540D01*
X3070510Y6367690D01*
X3081430Y6371430D01*
X3088760Y6378760D01*
X3092510Y6389690D01*
X3093410Y6401360D01*
X3091460Y6413790D01*
G01X3171230Y6461230D02*
X3063470Y6568990D01*
X3072450Y6534870D01*
G01X3158660Y6448660D02*
X3183800Y6473800D01*
G01X3221820Y6544140D02*
X3237080Y6541450D01*
X3249810Y6543400D01*
X3261030Y6551030D01*
X3266870Y6564050D01*
X3267020Y6578570D01*
X3259690Y6596380D01*
X3246360Y6611800D01*
X3229900Y6624070D01*
X3215680Y6627810D01*
X3201160Y6627660D01*
X3192040Y6622120D01*
X3186500Y6612990D01*
X3184250Y6596380D01*
X3140700Y6646220D01*
X3168980Y6674510D01*
G01X2953370Y7229200D02*
Y7381600D01*
X2990410D01*
X3002260Y7373980D01*
X3009670Y7363820D01*
X3012630Y7343500D01*
X3009670Y7323180D01*
X3000780Y7310480D01*
X2990410Y7302860D01*
X2953370D01*
G01X2990410D02*
X3012630Y7229200D01*
G01X3139630D02*
X3080370D01*
Y7381600D01*
X3139630D01*
G01X3115930Y7307940D02*
X3080370D01*
G01X3245890Y7305400D02*
X3275520D01*
Y7259680D01*
X3266630Y7244440D01*
X3256260Y7234280D01*
X3241450Y7229200D01*
X3226630Y7234280D01*
X3216260Y7244440D01*
X3207370Y7259680D01*
X3201440Y7277460D01*
X3198480Y7297780D01*
Y7315560D01*
X3201440Y7330800D01*
X3207370Y7348580D01*
X3216260Y7363820D01*
X3225150Y7373980D01*
X3237000Y7381600D01*
X3247370D01*
X3259220Y7376520D01*
X3268120Y7366360D01*
G01X3331400Y7259680D02*
X3340290Y7241900D01*
X3352150Y7231740D01*
X3365480Y7229200D01*
X3377340Y7231740D01*
X3389190Y7244440D01*
X3396600Y7259680D01*
X3398080Y7274920D01*
X3395120Y7292700D01*
X3384740Y7305400D01*
X3374370Y7310480D01*
X3361040D01*
G01X3374370D02*
X3383260Y7318100D01*
X3390670Y7330800D01*
X3393630Y7346040D01*
X3390670Y7361280D01*
X3383260Y7373980D01*
X3369930Y7381600D01*
X3356590Y7379060D01*
X3343260Y7368900D01*
G01X3307050Y9739700D02*
X3298160Y9747320D01*
X3287790Y9752400D01*
X3275930D01*
X3262600Y9744780D01*
X3252230Y9732080D01*
X3244820Y9716840D01*
X3238890Y9691440D01*
X3237410Y9668580D01*
X3240370Y9645720D01*
X3244820Y9630480D01*
X3253710Y9615240D01*
X3264080Y9605080D01*
X3274450Y9600000D01*
X3284820D01*
X3295190Y9605080D01*
X3304080Y9612700D01*
X3311490Y9622860D01*
G01X3368850Y9630480D02*
X3377740Y9612700D01*
X3389600Y9602540D01*
X3402930Y9600000D01*
X3414790Y9602540D01*
X3426640Y9615240D01*
X3434050Y9630480D01*
X3435530Y9645720D01*
X3432570Y9663500D01*
X3422190Y9676200D01*
X3411820Y9681280D01*
X3398490D01*
G01X3411820D02*
X3420710Y9688900D01*
X3428120Y9701600D01*
X3431080Y9716840D01*
X3428120Y9732080D01*
X3420710Y9744780D01*
X3407380Y9752400D01*
X3394040Y9749860D01*
X3380710Y9739700D01*
G01X3790200Y5639650D02*
X3799090Y5632030D01*
X3809460Y5626950D01*
X3821320D01*
X3834650Y5634570D01*
X3845020Y5647270D01*
X3852430Y5662510D01*
X3858360Y5687910D01*
X3859840Y5710770D01*
X3856880Y5733630D01*
X3852430Y5748870D01*
X3843540Y5764110D01*
X3833170Y5774270D01*
X3822800Y5779350D01*
X3812430D01*
X3802060Y5774270D01*
X3793170Y5766650D01*
X3785760Y5756490D01*
G01X3695800Y5779350D02*
Y5626950D01*
X3713580Y5657430D01*
G01Y5779350D02*
X3678020D01*
G01X3568800Y5626950D02*
X3580650Y5632030D01*
X3589540Y5644730D01*
X3595470Y5659970D01*
X3599920Y5680290D01*
X3601400Y5703150D01*
X3599920Y5726010D01*
X3595470Y5746330D01*
X3589540Y5761570D01*
X3580650Y5774270D01*
X3568800Y5779350D01*
X3556950Y5774270D01*
X3548060Y5761570D01*
X3542130Y5746330D01*
X3537680Y5726010D01*
X3536200Y5703150D01*
X3537680Y5680290D01*
X3542130Y5659970D01*
X3548060Y5644730D01*
X3556950Y5632030D01*
X3568800Y5626950D01*
G01X3375700Y6473260D02*
X3364020Y6472370D01*
X3353100Y6468620D01*
X3344720Y6460240D01*
X3340680Y6445420D01*
X3342320Y6429110D01*
X3347860Y6413090D01*
X3361630Y6390940D01*
X3376740Y6373730D01*
X3395010Y6359660D01*
X3408930Y6352030D01*
X3425990Y6347540D01*
X3440510Y6347690D01*
X3451430Y6351430D01*
X3458760Y6358760D01*
X3462510Y6369690D01*
X3463410Y6381360D01*
X3461460Y6393790D01*
G01X3541230Y6441230D02*
X3433470Y6548990D01*
X3442450Y6514870D01*
G01X3528660Y6428660D02*
X3553800Y6453800D01*
G01X3643600Y6543600D02*
X3535840Y6651370D01*
X3574300Y6535370D01*
X3626690Y6587760D01*
G01X3720000Y6934820D02*
X3567600D01*
Y6971860D01*
X3575220Y6983710D01*
X3585380Y6991120D01*
X3605700Y6994080D01*
X3626020Y6991120D01*
X3638720Y6982230D01*
X3646340Y6971860D01*
Y6934820D01*
G01Y6971860D02*
X3720000Y6994080D01*
G01Y7091450D02*
X3717460Y7101820D01*
X3709840Y7113670D01*
X3697140Y7121080D01*
X3679360Y7124050D01*
X3661580Y7121080D01*
X3646340Y7112190D01*
X3638720Y7098860D01*
Y7084040D01*
X3633640Y7075150D01*
X3620940Y7067740D01*
X3603160Y7064780D01*
X3585380Y7069230D01*
X3572680Y7079600D01*
X3567600Y7091450D01*
X3572680Y7103300D01*
X3585380Y7113670D01*
X3603160Y7118120D01*
X3620940Y7115160D01*
X3633640Y7107750D01*
X3638720Y7098860D01*
Y7084040D01*
X3646340Y7070710D01*
X3661580Y7061820D01*
X3679360Y7058850D01*
X3697140Y7061820D01*
X3709840Y7069230D01*
X3717460Y7081080D01*
X3720000Y7091450D01*
G01X3620000Y9184820D02*
X3467600D01*
Y9221860D01*
X3475220Y9233710D01*
X3485380Y9241120D01*
X3505700Y9244080D01*
X3526020Y9241120D01*
X3538720Y9232230D01*
X3546340Y9221860D01*
Y9184820D01*
G01Y9221860D02*
X3620000Y9244080D01*
G01X3493000Y9313300D02*
X3477760Y9322190D01*
X3470140Y9332560D01*
X3467600Y9344410D01*
X3472680Y9359230D01*
X3485380Y9369600D01*
X3500620Y9372570D01*
X3515860Y9371080D01*
X3528560Y9365160D01*
X3553960Y9335520D01*
X3571740Y9322190D01*
X3597140Y9313300D01*
X3620000Y9310330D01*
Y9372570D01*
G01X3556500Y9440300D02*
X3538720Y9450670D01*
X3528560Y9459560D01*
X3523480Y9471410D01*
X3528560Y9481790D01*
X3538720Y9489190D01*
X3553960Y9495120D01*
X3571740Y9496600D01*
X3586980Y9495120D01*
X3602220Y9489190D01*
X3614920Y9480300D01*
X3620000Y9469930D01*
X3614920Y9458080D01*
X3599680Y9447710D01*
X3576820Y9441780D01*
X3551420Y9440300D01*
X3518400Y9443260D01*
X3500620Y9447710D01*
X3482840Y9455110D01*
X3470140Y9465490D01*
X3467600Y9475860D01*
X3472680Y9486230D01*
X3485380Y9493640D01*
G01X4054450Y1822400D02*
X4042600Y1817320D01*
X4033710Y1804620D01*
X4027780Y1789380D01*
X4023330Y1769060D01*
X4021850Y1746200D01*
X4023330Y1723340D01*
X4027780Y1703020D01*
X4033710Y1687780D01*
X4042600Y1675080D01*
X4054450Y1670000D01*
X4066300Y1675080D01*
X4075190Y1687780D01*
X4081120Y1703020D01*
X4085570Y1723340D01*
X4087050Y1746200D01*
X4085570Y1769060D01*
X4081120Y1789380D01*
X4075190Y1804620D01*
X4066300Y1817320D01*
X4054450Y1822400D01*
G01X4026300Y2797000D02*
X4035190Y2812240D01*
X4045560Y2819860D01*
X4057410Y2822400D01*
X4072230Y2817320D01*
X4082600Y2804620D01*
X4085570Y2789380D01*
X4084080Y2774140D01*
X4078160Y2761440D01*
X4048520Y2736040D01*
X4035190Y2718260D01*
X4026300Y2692860D01*
X4023330Y2670000D01*
X4085570D01*
G01X4021850Y3692860D02*
X4030740Y3680160D01*
X4041110Y3672540D01*
X4054450Y3670000D01*
X4067790Y3675080D01*
X4078160Y3685240D01*
X4085570Y3703020D01*
X4087050Y3723340D01*
X4084080Y3743660D01*
X4076670Y3756360D01*
X4066300Y3766520D01*
X4055930Y3769060D01*
X4045560Y3766520D01*
X4032230Y3756360D01*
X4036670Y3822400D01*
X4076670D01*
G01X4051490Y4670000D02*
X4054450Y4703020D01*
X4058900Y4730960D01*
X4064820Y4756360D01*
X4072230Y4784300D01*
X4084080Y4822400D01*
X4024820D01*
G01X4175700Y6623260D02*
X4164020Y6622370D01*
X4153100Y6618620D01*
X4144720Y6610240D01*
X4140680Y6595420D01*
X4142320Y6579110D01*
X4147860Y6563090D01*
X4161630Y6540940D01*
X4176740Y6523730D01*
X4195010Y6509660D01*
X4208930Y6502030D01*
X4225990Y6497540D01*
X4240510Y6497690D01*
X4251430Y6501430D01*
X4258760Y6508760D01*
X4262510Y6519690D01*
X4263410Y6531360D01*
X4261460Y6543790D01*
G01X4341230Y6591230D02*
X4233470Y6698990D01*
X4242450Y6664870D01*
G01X4328660Y6578660D02*
X4353800Y6603800D01*
G01X4386430Y6679530D02*
X4405290Y6673240D01*
X4420850Y6674440D01*
X4432080Y6682080D01*
X4438670Y6692260D01*
X4438070Y6709620D01*
X4432530Y6725630D01*
X4422800Y6737460D01*
X4408130Y6747930D01*
X4391820Y6749580D01*
X4380890Y6745840D01*
X4371460Y6736410D01*
G01X4380890Y6745840D02*
X4381790Y6757510D01*
X4378050Y6771730D01*
X4369370Y6784600D01*
X4356500Y6793280D01*
X4342280Y6797020D01*
X4327460Y6792980D01*
X4319830Y6781760D01*
X4317580Y6765140D01*
G01X3965700Y6843260D02*
X3954020Y6842370D01*
X3943100Y6838620D01*
X3934720Y6830240D01*
X3930680Y6815420D01*
X3932320Y6799110D01*
X3937860Y6783090D01*
X3951630Y6760940D01*
X3966740Y6743730D01*
X3985010Y6729660D01*
X3998930Y6722030D01*
X4015990Y6717540D01*
X4030510Y6717690D01*
X4041430Y6721430D01*
X4048760Y6728760D01*
X4052510Y6739690D01*
X4053410Y6751360D01*
X4051460Y6763790D01*
G01X4131230Y6811230D02*
X4136770Y6820360D01*
X4139760Y6834130D01*
X4136020Y6848350D01*
X4125540Y6863020D01*
X4110880Y6873490D01*
X4093810Y6877980D01*
X4078990Y6873940D01*
X4068520Y6863470D01*
X4058640Y6860770D01*
X4044420Y6864510D01*
X4029750Y6874990D01*
X4020330Y6890710D01*
X4018680Y6907020D01*
X4023470Y6918990D01*
X4035440Y6923780D01*
X4051760Y6922140D01*
X4067470Y6912710D01*
X4077950Y6898040D01*
X4081690Y6883820D01*
X4078990Y6873940D01*
X4068520Y6863470D01*
X4064480Y6848650D01*
X4068970Y6831580D01*
X4079440Y6816920D01*
X4094120Y6806440D01*
X4108330Y6802700D01*
X4122100Y6805690D01*
X4131230Y6811230D01*
G01X3760300Y8672050D02*
X3752680Y8663160D01*
X3747600Y8652790D01*
Y8640930D01*
X3755220Y8627600D01*
X3767920Y8617230D01*
X3783160Y8609820D01*
X3808560Y8603890D01*
X3831420Y8602410D01*
X3854280Y8605370D01*
X3869520Y8609820D01*
X3884760Y8618710D01*
X3894920Y8629080D01*
X3900000Y8639450D01*
Y8649820D01*
X3894920Y8660190D01*
X3887300Y8669080D01*
X3877140Y8676490D01*
G01X3773000Y8738300D02*
X3757760Y8747190D01*
X3750140Y8757560D01*
X3747600Y8769410D01*
X3752680Y8784230D01*
X3765380Y8794600D01*
X3780620Y8797570D01*
X3795860Y8796080D01*
X3808560Y8790160D01*
X3833960Y8760520D01*
X3851740Y8747190D01*
X3877140Y8738300D01*
X3900000Y8735330D01*
Y8797570D01*
G01X4120000Y9196870D02*
X3967600D01*
Y9233910D01*
X3975220Y9245760D01*
X3985380Y9253170D01*
X4005700Y9256130D01*
X4026020Y9253170D01*
X4038720Y9244280D01*
X4046340Y9233910D01*
Y9196870D01*
G01Y9233910D02*
X4120000Y9256130D01*
G01X4089520Y9320900D02*
X4107300Y9329790D01*
X4117460Y9341650D01*
X4120000Y9354980D01*
X4117460Y9366840D01*
X4104760Y9378690D01*
X4089520Y9386100D01*
X4074280Y9387580D01*
X4056500Y9384620D01*
X4043800Y9374240D01*
X4038720Y9363870D01*
Y9350540D01*
G01Y9363870D02*
X4031100Y9372760D01*
X4018400Y9380170D01*
X4003160Y9383130D01*
X3987920Y9380170D01*
X3975220Y9372760D01*
X3967600Y9359430D01*
X3970140Y9346090D01*
X3980300Y9332760D01*
G01X4194820Y5590000D02*
Y5742400D01*
X4231860D01*
X4243710Y5734780D01*
X4251120Y5724620D01*
X4254080Y5704300D01*
X4251120Y5683980D01*
X4242230Y5671280D01*
X4231860Y5663660D01*
X4194820D01*
G01X4231860D02*
X4254080Y5590000D01*
G01X4351450D02*
Y5742400D01*
X4333670Y5711920D01*
G01Y5590000D02*
X4369230D01*
G01X4478450Y5742400D02*
X4466600Y5737320D01*
X4457710Y5724620D01*
X4451780Y5709380D01*
X4447330Y5689060D01*
X4445850Y5666200D01*
X4447330Y5643340D01*
X4451780Y5623020D01*
X4457710Y5607780D01*
X4466600Y5595080D01*
X4478450Y5590000D01*
X4490300Y5595080D01*
X4499190Y5607780D01*
X4505120Y5623020D01*
X4509570Y5643340D01*
X4511050Y5666200D01*
X4509570Y5689060D01*
X4505120Y5709380D01*
X4499190Y5724620D01*
X4490300Y5737320D01*
X4478450Y5742400D01*
G01X4415700Y6593260D02*
X4404020Y6592370D01*
X4393100Y6588620D01*
X4384720Y6580240D01*
X4380680Y6565420D01*
X4382320Y6549110D01*
X4387860Y6533090D01*
X4401630Y6510940D01*
X4416740Y6493730D01*
X4435010Y6479660D01*
X4448930Y6472030D01*
X4465990Y6467540D01*
X4480510Y6467690D01*
X4491430Y6471430D01*
X4498760Y6478760D01*
X4502510Y6489690D01*
X4503410Y6501360D01*
X4501460Y6513790D01*
G01X4581230Y6561230D02*
X4473470Y6668990D01*
X4482450Y6634870D01*
G01X4568660Y6548660D02*
X4593800Y6573800D01*
G01X4606230Y6676020D02*
X4600980Y6695930D01*
X4600090Y6709400D01*
X4604880Y6721380D01*
X4615800Y6725120D01*
X4628220Y6723170D01*
X4643190Y6716590D01*
X4656810Y6705060D01*
X4666540Y6693240D01*
X4673130Y6678270D01*
X4675820Y6663000D01*
X4672080Y6652080D01*
X4660110Y6647290D01*
X4642000Y6650730D01*
X4621640Y6662700D01*
X4602630Y6679620D01*
X4581380Y6705060D01*
X4571950Y6720780D01*
X4564610Y6738590D01*
X4562970Y6754900D01*
X4568510Y6764030D01*
X4579430Y6767780D01*
X4593650Y6764030D01*
G01X4464820Y7250000D02*
Y7402400D01*
X4501860D01*
X4513710Y7394780D01*
X4521120Y7384620D01*
X4524080Y7364300D01*
X4521120Y7343980D01*
X4512230Y7331280D01*
X4501860Y7323660D01*
X4464820D01*
G01X4501860D02*
X4524080Y7250000D01*
G01X4651080D02*
X4591820D01*
Y7402400D01*
X4651080D01*
G01X4627380Y7328740D02*
X4591820D01*
G01X4757340Y7326200D02*
X4786970D01*
Y7280480D01*
X4778080Y7265240D01*
X4767710Y7255080D01*
X4752900Y7250000D01*
X4738080Y7255080D01*
X4727710Y7265240D01*
X4718820Y7280480D01*
X4712890Y7298260D01*
X4709930Y7318580D01*
Y7336360D01*
X4712890Y7351600D01*
X4718820Y7369380D01*
X4727710Y7384620D01*
X4736600Y7394780D01*
X4748450Y7402400D01*
X4758820D01*
X4770670Y7397320D01*
X4779570Y7387160D01*
G01X4847300Y7377000D02*
X4856190Y7392240D01*
X4866560Y7399860D01*
X4878410Y7402400D01*
X4893230Y7397320D01*
X4903600Y7384620D01*
X4906570Y7369380D01*
X4905080Y7354140D01*
X4899160Y7341440D01*
X4869520Y7316040D01*
X4856190Y7298260D01*
X4847300Y7272860D01*
X4844330Y7250000D01*
X4906570D01*
G01X5370000Y9030180D02*
X5522400D01*
Y8993140D01*
X5514780Y8981290D01*
X5504620Y8973880D01*
X5484300Y8970920D01*
X5463980Y8973880D01*
X5451280Y8982770D01*
X5443660Y8993140D01*
Y9030180D01*
G01Y8993140D02*
X5370000Y8970920D01*
G01X5497000Y8901700D02*
X5512240Y8892810D01*
X5519860Y8882440D01*
X5522400Y8870590D01*
X5517320Y8855770D01*
X5504620Y8845400D01*
X5489380Y8842430D01*
X5474140Y8843920D01*
X5461440Y8849840D01*
X5436040Y8879480D01*
X5418260Y8892810D01*
X5392860Y8901700D01*
X5370000Y8904670D01*
Y8842430D01*
G01X5392860Y8779150D02*
X5380160Y8770260D01*
X5372540Y8759890D01*
X5370000Y8746550D01*
X5375080Y8733210D01*
X5385240Y8722840D01*
X5403020Y8715430D01*
X5423340Y8713950D01*
X5443660Y8716920D01*
X5456360Y8724330D01*
X5466520Y8734700D01*
X5469060Y8745070D01*
X5466520Y8755440D01*
X5456360Y8768770D01*
X5522400Y8764330D01*
Y8724330D01*
G01X5010300Y9327050D02*
X5002680Y9318160D01*
X4997600Y9307790D01*
Y9295930D01*
X5005220Y9282600D01*
X5017920Y9272230D01*
X5033160Y9264820D01*
X5058560Y9258890D01*
X5081420Y9257410D01*
X5104280Y9260370D01*
X5119520Y9264820D01*
X5134760Y9273710D01*
X5144920Y9284080D01*
X5150000Y9294450D01*
Y9304820D01*
X5144920Y9315190D01*
X5137300Y9324080D01*
X5127140Y9331490D01*
G01Y9388850D02*
X5139840Y9397740D01*
X5147460Y9408110D01*
X5150000Y9421450D01*
X5144920Y9434790D01*
X5134760Y9445160D01*
X5116980Y9452570D01*
X5096660Y9454050D01*
X5076340Y9451080D01*
X5063640Y9443670D01*
X5053480Y9433300D01*
X5050940Y9422930D01*
X5053480Y9412560D01*
X5063640Y9399230D01*
X4997600Y9403670D01*
Y9443670D01*
G01X5528300Y6908050D02*
X5520680Y6899160D01*
X5515600Y6888790D01*
Y6876930D01*
X5523220Y6863600D01*
X5535920Y6853230D01*
X5551160Y6845820D01*
X5576560Y6839890D01*
X5599420Y6838410D01*
X5622280Y6841370D01*
X5637520Y6845820D01*
X5652760Y6854710D01*
X5662920Y6865080D01*
X5668000Y6875450D01*
Y6885820D01*
X5662920Y6896190D01*
X5655300Y6905080D01*
X5645140Y6912490D01*
G01X5668000Y7002450D02*
X5515600D01*
X5546080Y6984670D01*
G01X5668000D02*
Y7020230D01*
G01X5616870Y7320000D02*
Y7472400D01*
X5653910D01*
X5665760Y7464780D01*
X5673170Y7454620D01*
X5676130Y7434300D01*
X5673170Y7413980D01*
X5664280Y7401280D01*
X5653910Y7393660D01*
X5616870D01*
G01X5653910D02*
X5676130Y7320000D01*
G01X5745350Y7447000D02*
X5754240Y7462240D01*
X5764610Y7469860D01*
X5776460Y7472400D01*
X5791280Y7467320D01*
X5801650Y7454620D01*
X5804620Y7439380D01*
X5803130Y7424140D01*
X5797210Y7411440D01*
X5767570Y7386040D01*
X5754240Y7368260D01*
X5745350Y7342860D01*
X5742380Y7320000D01*
X5804620D01*
G01X6390300Y1847050D02*
X6382680Y1838160D01*
X6377600Y1827790D01*
Y1815930D01*
X6385220Y1802600D01*
X6397920Y1792230D01*
X6413160Y1784820D01*
X6438560Y1778890D01*
X6461420Y1777410D01*
X6484280Y1780370D01*
X6499520Y1784820D01*
X6514760Y1793710D01*
X6524920Y1804080D01*
X6530000Y1814450D01*
Y1824820D01*
X6524920Y1835190D01*
X6517300Y1844080D01*
X6507140Y1851490D01*
G01X6530000Y1941450D02*
X6377600D01*
X6408080Y1923670D01*
G01X6530000D02*
Y1959230D01*
G01X6377600Y2068450D02*
X6382680Y2056600D01*
X6395380Y2047710D01*
X6410620Y2041780D01*
X6430940Y2037330D01*
X6453800Y2035850D01*
X6476660Y2037330D01*
X6496980Y2041780D01*
X6512220Y2047710D01*
X6524920Y2056600D01*
X6530000Y2068450D01*
X6524920Y2080300D01*
X6512220Y2089190D01*
X6496980Y2095120D01*
X6476660Y2099570D01*
X6453800Y2101050D01*
X6430940Y2099570D01*
X6410620Y2095120D01*
X6395380Y2089190D01*
X6382680Y2080300D01*
X6377600Y2068450D01*
G01X6580800Y2151000D02*
Y2239900D01*
G01X6530000Y2322450D02*
X6377600D01*
X6408080Y2304670D01*
G01X6530000D02*
Y2340230D01*
G01X6640300Y1957050D02*
X6632680Y1948160D01*
X6627600Y1937790D01*
Y1925930D01*
X6635220Y1912600D01*
X6647920Y1902230D01*
X6663160Y1894820D01*
X6688560Y1888890D01*
X6711420Y1887410D01*
X6734280Y1890370D01*
X6749520Y1894820D01*
X6764760Y1903710D01*
X6774920Y1914080D01*
X6780000Y1924450D01*
Y1934820D01*
X6774920Y1945190D01*
X6767300Y1954080D01*
X6757140Y1961490D01*
G01X6780000Y2051450D02*
X6777460Y2061820D01*
X6769840Y2073670D01*
X6757140Y2081080D01*
X6739360Y2084050D01*
X6721580Y2081080D01*
X6706340Y2072190D01*
X6698720Y2058860D01*
Y2044040D01*
X6693640Y2035150D01*
X6680940Y2027740D01*
X6663160Y2024780D01*
X6645380Y2029230D01*
X6632680Y2039600D01*
X6627600Y2051450D01*
X6632680Y2063300D01*
X6645380Y2073670D01*
X6663160Y2078120D01*
X6680940Y2075160D01*
X6693640Y2067750D01*
X6698720Y2058860D01*
Y2044040D01*
X6706340Y2030710D01*
X6721580Y2021820D01*
X6739360Y2018850D01*
X6757140Y2021820D01*
X6769840Y2029230D01*
X6777460Y2041080D01*
X6780000Y2051450D01*
G01X6830800Y2134000D02*
Y2222900D01*
G01X6780000Y2305450D02*
X6627600D01*
X6658080Y2287670D01*
G01X6780000D02*
Y2323230D01*
G01X6390300Y4217050D02*
X6382680Y4208160D01*
X6377600Y4197790D01*
Y4185930D01*
X6385220Y4172600D01*
X6397920Y4162230D01*
X6413160Y4154820D01*
X6438560Y4148890D01*
X6461420Y4147410D01*
X6484280Y4150370D01*
X6499520Y4154820D01*
X6514760Y4163710D01*
X6524920Y4174080D01*
X6530000Y4184450D01*
Y4194820D01*
X6524920Y4205190D01*
X6517300Y4214080D01*
X6507140Y4221490D01*
G01X6530000Y4308490D02*
X6496980Y4311450D01*
X6469040Y4315900D01*
X6443640Y4321820D01*
X6415700Y4329230D01*
X6377600Y4341080D01*
Y4281820D01*
G01X6580800Y4394000D02*
Y4482900D01*
G01X6530000Y4565450D02*
X6377600D01*
X6408080Y4547670D01*
G01X6530000D02*
Y4583230D01*
G01X6259870Y5339200D02*
Y5491600D01*
X6296910D01*
X6308760Y5483980D01*
X6316170Y5473820D01*
X6319130Y5453500D01*
X6316170Y5433180D01*
X6307280Y5420480D01*
X6296910Y5412860D01*
X6259870D01*
G01X6296910D02*
X6319130Y5339200D01*
G01X6446130D02*
X6386870D01*
Y5491600D01*
X6446130D01*
G01X6422430Y5417940D02*
X6386870D01*
G01X6552390Y5415400D02*
X6582020D01*
Y5369680D01*
X6573130Y5354440D01*
X6562760Y5344280D01*
X6547950Y5339200D01*
X6533130Y5344280D01*
X6522760Y5354440D01*
X6513870Y5369680D01*
X6507940Y5387460D01*
X6504980Y5407780D01*
Y5425560D01*
X6507940Y5440800D01*
X6513870Y5458580D01*
X6522760Y5473820D01*
X6531650Y5483980D01*
X6543500Y5491600D01*
X6553870D01*
X6565720Y5486520D01*
X6574620Y5476360D01*
G01X6670500Y5339200D02*
Y5491600D01*
X6652720Y5461120D01*
G01Y5339200D02*
X6688280D01*
G01X7110000Y1874820D02*
X6957600D01*
Y1911860D01*
X6965220Y1923710D01*
X6975380Y1931120D01*
X6995700Y1934080D01*
X7016020Y1931120D01*
X7028720Y1922230D01*
X7036340Y1911860D01*
Y1874820D01*
G01Y1911860D02*
X7110000Y1934080D01*
G01Y2031450D02*
X6957600D01*
X6988080Y2013670D01*
G01X7110000D02*
Y2049230D01*
G01X7160800Y2114000D02*
Y2202900D01*
G01X7110000Y2285450D02*
X6957600D01*
X6988080Y2267670D01*
G01X7110000D02*
Y2303230D01*
G01X6700300Y4187050D02*
X6692680Y4178160D01*
X6687600Y4167790D01*
Y4155930D01*
X6695220Y4142600D01*
X6707920Y4132230D01*
X6723160Y4124820D01*
X6748560Y4118890D01*
X6771420Y4117410D01*
X6794280Y4120370D01*
X6809520Y4124820D01*
X6824760Y4133710D01*
X6834920Y4144080D01*
X6840000Y4154450D01*
Y4164820D01*
X6834920Y4175190D01*
X6827300Y4184080D01*
X6817140Y4191490D01*
G01X6822220Y4256260D02*
X6834920Y4266630D01*
X6840000Y4278490D01*
X6834920Y4290340D01*
X6819680Y4300710D01*
X6796820Y4308120D01*
X6773960Y4311080D01*
X6746020D01*
X6723160Y4308120D01*
X6702840Y4300710D01*
X6692680Y4291820D01*
X6687600Y4281450D01*
X6692680Y4269600D01*
X6702840Y4260710D01*
X6718080Y4254780D01*
X6738400Y4251820D01*
X6756180Y4254780D01*
X6773960Y4262190D01*
X6784120Y4271080D01*
X6786660Y4281450D01*
X6781580Y4293300D01*
X6768880Y4302190D01*
X6746020Y4311080D01*
G01X6890800Y4364000D02*
Y4452900D01*
G01X6840000Y4535450D02*
X6687600D01*
X6718080Y4517670D01*
G01X6840000D02*
Y4553230D01*
G01X6845700Y7608950D02*
X6853320Y7617840D01*
X6858400Y7628210D01*
Y7640070D01*
X6850780Y7653400D01*
X6838080Y7663770D01*
X6822840Y7671180D01*
X6797440Y7677110D01*
X6774580Y7678590D01*
X6751720Y7675630D01*
X6736480Y7671180D01*
X6721240Y7662290D01*
X6711080Y7651920D01*
X6706000Y7641550D01*
Y7631180D01*
X6711080Y7620810D01*
X6718700Y7611920D01*
X6728860Y7604510D01*
G01X6706000Y7496770D02*
X6858400D01*
X6749180Y7551590D01*
Y7477510D01*
G01X7331820Y1451000D02*
Y1603400D01*
X7368860D01*
X7380710Y1595780D01*
X7388120Y1585620D01*
X7391080Y1565300D01*
X7388120Y1544980D01*
X7379230Y1532280D01*
X7368860Y1524660D01*
X7331820D01*
G01X7368860D02*
X7391080Y1451000D01*
G01X7460300Y1578000D02*
X7469190Y1593240D01*
X7479560Y1600860D01*
X7491410Y1603400D01*
X7506230Y1598320D01*
X7516600Y1585620D01*
X7519570Y1570380D01*
X7518080Y1555140D01*
X7512160Y1542440D01*
X7482520Y1517040D01*
X7469190Y1499260D01*
X7460300Y1473860D01*
X7457330Y1451000D01*
X7519570D01*
G01X7582850Y1481480D02*
X7591740Y1463700D01*
X7603600Y1453540D01*
X7616930Y1451000D01*
X7628790Y1453540D01*
X7640640Y1466240D01*
X7648050Y1481480D01*
X7649530Y1496720D01*
X7646570Y1514500D01*
X7636190Y1527200D01*
X7625820Y1532280D01*
X7612490D01*
G01X7625820D02*
X7634710Y1539900D01*
X7642120Y1552600D01*
X7645080Y1567840D01*
X7642120Y1583080D01*
X7634710Y1595780D01*
X7621380Y1603400D01*
X7608040Y1600860D01*
X7594710Y1590700D01*
G01X7067600Y4426870D02*
X7220000D01*
Y4486130D01*
G01Y4583500D02*
X7217460Y4593870D01*
X7209840Y4605720D01*
X7197140Y4613130D01*
X7179360Y4616100D01*
X7161580Y4613130D01*
X7146340Y4604240D01*
X7138720Y4590910D01*
Y4576090D01*
X7133640Y4567200D01*
X7120940Y4559790D01*
X7103160Y4556830D01*
X7085380Y4561280D01*
X7072680Y4571650D01*
X7067600Y4583500D01*
X7072680Y4595350D01*
X7085380Y4605720D01*
X7103160Y4610170D01*
X7120940Y4607210D01*
X7133640Y4599800D01*
X7138720Y4590910D01*
Y4576090D01*
X7146340Y4562760D01*
X7161580Y4553870D01*
X7179360Y4550900D01*
X7197140Y4553870D01*
X7209840Y4561280D01*
X7217460Y4573130D01*
X7220000Y4583500D01*
G01X7580000Y4754820D02*
X7427600D01*
Y4791860D01*
X7435220Y4803710D01*
X7445380Y4811120D01*
X7465700Y4814080D01*
X7486020Y4811120D01*
X7498720Y4802230D01*
X7506340Y4791860D01*
Y4754820D01*
G01Y4791860D02*
X7580000Y4814080D01*
G01X7453000Y4883300D02*
X7437760Y4892190D01*
X7430140Y4902560D01*
X7427600Y4914410D01*
X7432680Y4929230D01*
X7445380Y4939600D01*
X7460620Y4942570D01*
X7475860Y4941080D01*
X7488560Y4935160D01*
X7513960Y4905520D01*
X7531740Y4892190D01*
X7557140Y4883300D01*
X7580000Y4880330D01*
Y4942570D01*
G01Y5038450D02*
X7577460Y5048820D01*
X7569840Y5060670D01*
X7557140Y5068080D01*
X7539360Y5071050D01*
X7521580Y5068080D01*
X7506340Y5059190D01*
X7498720Y5045860D01*
Y5031040D01*
X7493640Y5022150D01*
X7480940Y5014740D01*
X7463160Y5011780D01*
X7445380Y5016230D01*
X7432680Y5026600D01*
X7427600Y5038450D01*
X7432680Y5050300D01*
X7445380Y5060670D01*
X7463160Y5065120D01*
X7480940Y5062160D01*
X7493640Y5054750D01*
X7498720Y5045860D01*
Y5031040D01*
X7506340Y5017710D01*
X7521580Y5008820D01*
X7539360Y5005850D01*
X7557140Y5008820D01*
X7569840Y5016230D01*
X7577460Y5028080D01*
X7580000Y5038450D01*
G01X7160000Y7160180D02*
X7312400D01*
Y7123140D01*
X7304780Y7111290D01*
X7294620Y7103880D01*
X7274300Y7100920D01*
X7253980Y7103880D01*
X7241280Y7112770D01*
X7233660Y7123140D01*
Y7160180D01*
G01Y7123140D02*
X7160000Y7100920D01*
G01X7287000Y7031700D02*
X7302240Y7022810D01*
X7309860Y7012440D01*
X7312400Y7000590D01*
X7307320Y6985770D01*
X7294620Y6975400D01*
X7279380Y6972430D01*
X7264140Y6973920D01*
X7251440Y6979840D01*
X7226040Y7009480D01*
X7208260Y7022810D01*
X7182860Y7031700D01*
X7160000Y7034670D01*
Y6972430D01*
G01Y6858770D02*
X7312400D01*
X7203180Y6913590D01*
Y6839510D01*
G01X7611850Y3722400D02*
Y3613180D01*
X7617780Y3590320D01*
X7629630Y3575080D01*
X7644450Y3570000D01*
X7659270Y3575080D01*
X7671120Y3590320D01*
X7677050Y3613180D01*
Y3722400D01*
G01X7771450Y3570000D02*
Y3722400D01*
X7753670Y3691920D01*
G01Y3570000D02*
X7789230D01*
G01X7854000Y3519200D02*
X7942900D01*
G01X8025450Y3570000D02*
Y3722400D01*
X8007670Y3691920D01*
G01Y3570000D02*
X8043230D01*
G01X7810000Y4754820D02*
X7657600D01*
Y4791860D01*
X7665220Y4803710D01*
X7675380Y4811120D01*
X7695700Y4814080D01*
X7716020Y4811120D01*
X7728720Y4802230D01*
X7736340Y4791860D01*
Y4754820D01*
G01Y4791860D02*
X7810000Y4814080D01*
G01X7683000Y4883300D02*
X7667760Y4892190D01*
X7660140Y4902560D01*
X7657600Y4914410D01*
X7662680Y4929230D01*
X7675380Y4939600D01*
X7690620Y4942570D01*
X7705860Y4941080D01*
X7718560Y4935160D01*
X7743960Y4905520D01*
X7761740Y4892190D01*
X7787140Y4883300D01*
X7810000Y4880330D01*
Y4942570D01*
G01Y5035490D02*
X7776980Y5038450D01*
X7749040Y5042900D01*
X7723640Y5048820D01*
X7695700Y5056230D01*
X7657600Y5068080D01*
Y5008820D01*
G01X7775220Y7162400D02*
X7810780D01*
G01X7793000D02*
Y7010000D01*
G01X7775220D02*
X7810780D01*
G01X7952600Y7149700D02*
X7943710Y7157320D01*
X7933340Y7162400D01*
X7921480D01*
X7908150Y7154780D01*
X7897780Y7142080D01*
X7890370Y7126840D01*
X7884440Y7101440D01*
X7882960Y7078580D01*
X7885920Y7055720D01*
X7890370Y7040480D01*
X7899260Y7025240D01*
X7909630Y7015080D01*
X7920000Y7010000D01*
X7930370D01*
X7940740Y7015080D01*
X7949630Y7022700D01*
X7957040Y7032860D01*
G01X8014400Y7040480D02*
X8023290Y7022700D01*
X8035150Y7012540D01*
X8048480Y7010000D01*
X8060340Y7012540D01*
X8072190Y7025240D01*
X8079600Y7040480D01*
X8081080Y7055720D01*
X8078120Y7073500D01*
X8067740Y7086200D01*
X8057370Y7091280D01*
X8044040D01*
G01X8057370D02*
X8066260Y7098900D01*
X8073670Y7111600D01*
X8076630Y7126840D01*
X8073670Y7142080D01*
X8066260Y7154780D01*
X8052930Y7162400D01*
X8039590Y7159860D01*
X8026260Y7149700D01*
G01X7910300Y7567050D02*
X7902680Y7558160D01*
X7897600Y7547790D01*
Y7535930D01*
X7905220Y7522600D01*
X7917920Y7512230D01*
X7933160Y7504820D01*
X7958560Y7498890D01*
X7981420Y7497410D01*
X8004280Y7500370D01*
X8019520Y7504820D01*
X8034760Y7513710D01*
X8044920Y7524080D01*
X8050000Y7534450D01*
Y7544820D01*
X8044920Y7555190D01*
X8037300Y7564080D01*
X8027140Y7571490D01*
G01X8050000Y7679230D02*
X7897600D01*
X8006820Y7624410D01*
Y7698490D01*
G01X8050000Y7788450D02*
X7897600D01*
X7928080Y7770670D01*
G01X8050000D02*
Y7806230D01*
G01X7988350Y8349570D02*
X7835950D01*
Y8386610D01*
X7843570Y8398460D01*
X7853730Y8405870D01*
X7874050Y8408830D01*
X7894370Y8405870D01*
X7907070Y8396980D01*
X7914690Y8386610D01*
Y8349570D01*
G01Y8386610D02*
X7988350Y8408830D01*
G01Y8506200D02*
X7835950D01*
X7866430Y8488420D01*
G01X7988350D02*
Y8523980D01*
G01X7957870Y8600600D02*
X7975650Y8609490D01*
X7985810Y8621350D01*
X7988350Y8634680D01*
X7985810Y8646540D01*
X7973110Y8658390D01*
X7957870Y8665800D01*
X7942630Y8667280D01*
X7924850Y8664320D01*
X7912150Y8653940D01*
X7907070Y8643570D01*
Y8630240D01*
G01Y8643570D02*
X7899450Y8652460D01*
X7886750Y8659870D01*
X7871510Y8662830D01*
X7856270Y8659870D01*
X7843570Y8652460D01*
X7835950Y8639130D01*
X7838490Y8625790D01*
X7848650Y8612460D01*
G01X7793820Y8103000D02*
Y8255400D01*
X7830860D01*
X7842710Y8247780D01*
X7850120Y8237620D01*
X7853080Y8217300D01*
X7850120Y8196980D01*
X7841230Y8184280D01*
X7830860Y8176660D01*
X7793820D01*
G01X7830860D02*
X7853080Y8103000D01*
G01X7950450D02*
Y8255400D01*
X7932670Y8224920D01*
G01Y8103000D02*
X7968230D01*
G01X8095230D02*
Y8255400D01*
X8040410Y8146180D01*
X8114490D01*
G01X8077050Y2269700D02*
X8068160Y2277320D01*
X8057790Y2282400D01*
X8045930D01*
X8032600Y2274780D01*
X8022230Y2262080D01*
X8014820Y2246840D01*
X8008890Y2221440D01*
X8007410Y2198580D01*
X8010370Y2175720D01*
X8014820Y2160480D01*
X8023710Y2145240D01*
X8034080Y2135080D01*
X8044450Y2130000D01*
X8054820D01*
X8065190Y2135080D01*
X8074080Y2142700D01*
X8081490Y2152860D01*
G01X8171450Y2130000D02*
Y2282400D01*
X8153670Y2251920D01*
G01Y2130000D02*
X8189230D01*
G01X8298450D02*
Y2282400D01*
X8280670Y2251920D01*
G01Y2130000D02*
X8316230D01*
G01X8381000Y2079200D02*
X8469900D01*
G01X8552450Y2130000D02*
Y2282400D01*
X8534670Y2251920D01*
G01Y2130000D02*
X8570230D01*
G01X8067050Y2539700D02*
X8058160Y2547320D01*
X8047790Y2552400D01*
X8035930D01*
X8022600Y2544780D01*
X8012230Y2532080D01*
X8004820Y2516840D01*
X7998890Y2491440D01*
X7997410Y2468580D01*
X8000370Y2445720D01*
X8004820Y2430480D01*
X8013710Y2415240D01*
X8024080Y2405080D01*
X8034450Y2400000D01*
X8044820D01*
X8055190Y2405080D01*
X8064080Y2412700D01*
X8071490Y2422860D01*
G01X8161450Y2400000D02*
Y2552400D01*
X8143670Y2521920D01*
G01Y2400000D02*
X8179230D01*
G01X8260300Y2527000D02*
X8269190Y2542240D01*
X8279560Y2549860D01*
X8291410Y2552400D01*
X8306230Y2547320D01*
X8316600Y2534620D01*
X8319570Y2519380D01*
X8318080Y2504140D01*
X8312160Y2491440D01*
X8282520Y2466040D01*
X8269190Y2448260D01*
X8260300Y2422860D01*
X8257330Y2400000D01*
X8319570D01*
G01X8371000Y2349200D02*
X8459900D01*
G01X8542450Y2400000D02*
Y2552400D01*
X8524670Y2521920D01*
G01Y2400000D02*
X8560230D01*
G01X8321850Y3520000D02*
Y3672400D01*
X8351490D01*
X8363340Y3664780D01*
X8372230Y3654620D01*
X8379640Y3639380D01*
X8385570Y3621600D01*
X8387050Y3596200D01*
X8385570Y3570800D01*
X8379640Y3553020D01*
X8372230Y3537780D01*
X8363340Y3527620D01*
X8351490Y3520000D01*
X8321850D01*
G01X8514050Y3659700D02*
X8505160Y3667320D01*
X8494790Y3672400D01*
X8482930D01*
X8469600Y3664780D01*
X8459230Y3652080D01*
X8451820Y3636840D01*
X8445890Y3611440D01*
X8444410Y3588580D01*
X8447370Y3565720D01*
X8451820Y3550480D01*
X8460710Y3535240D01*
X8471080Y3525080D01*
X8481450Y3520000D01*
X8491820D01*
X8502190Y3525080D01*
X8511080Y3532700D01*
X8518490Y3542860D01*
G01X8608450Y3520000D02*
X8596600Y3522540D01*
X8586230Y3532700D01*
X8577330Y3547940D01*
X8571410Y3565720D01*
X8568440Y3586040D01*
Y3606360D01*
X8571410Y3626680D01*
X8577330Y3644460D01*
X8586230Y3659700D01*
X8596600Y3669860D01*
X8608450Y3672400D01*
X8620300Y3669860D01*
X8630670Y3659700D01*
X8639570Y3644460D01*
X8645490Y3626680D01*
X8648460Y3606360D01*
Y3586040D01*
X8645490Y3565720D01*
X8639570Y3547940D01*
X8630670Y3532700D01*
X8620300Y3522540D01*
X8608450Y3520000D01*
G01X8707300Y3647000D02*
X8716190Y3662240D01*
X8726560Y3669860D01*
X8738410Y3672400D01*
X8753230Y3667320D01*
X8763600Y3654620D01*
X8766570Y3639380D01*
X8765080Y3624140D01*
X8759160Y3611440D01*
X8729520Y3586040D01*
X8716190Y3568260D01*
X8707300Y3542860D01*
X8704330Y3520000D01*
X8766570D01*
G01X7946820Y4622000D02*
Y4774400D01*
X7983860D01*
X7995710Y4766780D01*
X8003120Y4756620D01*
X8006080Y4736300D01*
X8003120Y4715980D01*
X7994230Y4703280D01*
X7983860Y4695660D01*
X7946820D01*
G01X7983860D02*
X8006080Y4622000D01*
G01X8133080D02*
X8073820D01*
Y4774400D01*
X8133080D01*
G01X8109380Y4700740D02*
X8073820D01*
G01X8199330Y4642320D02*
X8211190Y4629620D01*
X8224520Y4622000D01*
X8236380D01*
X8248230Y4629620D01*
X8257120Y4642320D01*
X8261570Y4660100D01*
X8258600Y4677880D01*
X8251190Y4693120D01*
X8237860Y4703280D01*
X8220080Y4708360D01*
X8209710Y4718520D01*
X8205260Y4736300D01*
X8208230Y4754080D01*
X8215630Y4766780D01*
X8226000Y4774400D01*
X8236380D01*
X8246750Y4769320D01*
X8255640Y4756620D01*
G01X8339670Y4774400D02*
X8375230D01*
G01X8357450D02*
Y4622000D01*
G01X8339670D02*
X8375230D01*
G01X8450370D02*
Y4774400D01*
X8518530Y4622000D01*
Y4774400D01*
G01X8304820Y5490000D02*
Y5642400D01*
X8341860D01*
X8353710Y5634780D01*
X8361120Y5624620D01*
X8364080Y5604300D01*
X8361120Y5583980D01*
X8352230Y5571280D01*
X8341860Y5563660D01*
X8304820D01*
G01X8341860D02*
X8364080Y5490000D01*
G01X8433300Y5617000D02*
X8442190Y5632240D01*
X8452560Y5639860D01*
X8464410Y5642400D01*
X8479230Y5637320D01*
X8489600Y5624620D01*
X8492570Y5609380D01*
X8491080Y5594140D01*
X8485160Y5581440D01*
X8455520Y5556040D01*
X8442190Y5538260D01*
X8433300Y5512860D01*
X8430330Y5490000D01*
X8492570D01*
G01X8560300Y5617000D02*
X8569190Y5632240D01*
X8579560Y5639860D01*
X8591410Y5642400D01*
X8606230Y5637320D01*
X8616600Y5624620D01*
X8619570Y5609380D01*
X8618080Y5594140D01*
X8612160Y5581440D01*
X8582520Y5556040D01*
X8569190Y5538260D01*
X8560300Y5512860D01*
X8557330Y5490000D01*
X8619570D01*
G01X8324820Y5690000D02*
Y5842400D01*
X8361860D01*
X8373710Y5834780D01*
X8381120Y5824620D01*
X8384080Y5804300D01*
X8381120Y5783980D01*
X8372230Y5771280D01*
X8361860Y5763660D01*
X8324820D01*
G01X8361860D02*
X8384080Y5690000D01*
G01X8453300Y5817000D02*
X8462190Y5832240D01*
X8472560Y5839860D01*
X8484410Y5842400D01*
X8499230Y5837320D01*
X8509600Y5824620D01*
X8512570Y5809380D01*
X8511080Y5794140D01*
X8505160Y5781440D01*
X8475520Y5756040D01*
X8462190Y5738260D01*
X8453300Y5712860D01*
X8450330Y5690000D01*
X8512570D01*
G01X8608450D02*
Y5842400D01*
X8590670Y5811920D01*
G01Y5690000D02*
X8626230D01*
G01X8255300Y6397050D02*
X8247680Y6388160D01*
X8242600Y6377790D01*
Y6365930D01*
X8250220Y6352600D01*
X8262920Y6342230D01*
X8278160Y6334820D01*
X8303560Y6328890D01*
X8326420Y6327410D01*
X8349280Y6330370D01*
X8364520Y6334820D01*
X8379760Y6343710D01*
X8389920Y6354080D01*
X8395000Y6364450D01*
Y6374820D01*
X8389920Y6385190D01*
X8382300Y6394080D01*
X8372140Y6401490D01*
G01X8364520Y6458850D02*
X8382300Y6467740D01*
X8392460Y6479600D01*
X8395000Y6492930D01*
X8392460Y6504790D01*
X8379760Y6516640D01*
X8364520Y6524050D01*
X8349280Y6525530D01*
X8331500Y6522570D01*
X8318800Y6512190D01*
X8313720Y6501820D01*
Y6488490D01*
G01Y6501820D02*
X8306100Y6510710D01*
X8293400Y6518120D01*
X8278160Y6521080D01*
X8262920Y6518120D01*
X8250220Y6510710D01*
X8242600Y6497380D01*
X8245140Y6484040D01*
X8255300Y6470710D01*
G01X8331500Y6590300D02*
X8313720Y6600670D01*
X8303560Y6609560D01*
X8298480Y6621410D01*
X8303560Y6631790D01*
X8313720Y6639190D01*
X8328960Y6645120D01*
X8346740Y6646600D01*
X8361980Y6645120D01*
X8377220Y6639190D01*
X8389920Y6630300D01*
X8395000Y6619930D01*
X8389920Y6608080D01*
X8374680Y6597710D01*
X8351820Y6591780D01*
X8326420Y6590300D01*
X8293400Y6593260D01*
X8275620Y6597710D01*
X8257840Y6605110D01*
X8245140Y6615490D01*
X8242600Y6625860D01*
X8247680Y6636230D01*
X8260380Y6643640D01*
G01X8100300Y7557050D02*
X8092680Y7548160D01*
X8087600Y7537790D01*
Y7525930D01*
X8095220Y7512600D01*
X8107920Y7502230D01*
X8123160Y7494820D01*
X8148560Y7488890D01*
X8171420Y7487410D01*
X8194280Y7490370D01*
X8209520Y7494820D01*
X8224760Y7503710D01*
X8234920Y7514080D01*
X8240000Y7524450D01*
Y7534820D01*
X8234920Y7545190D01*
X8227300Y7554080D01*
X8217140Y7561490D01*
G01X8240000Y7669230D02*
X8087600D01*
X8196820Y7614410D01*
Y7688490D01*
G01X8113000Y7750300D02*
X8097760Y7759190D01*
X8090140Y7769560D01*
X8087600Y7781410D01*
X8092680Y7796230D01*
X8105380Y7806600D01*
X8120620Y7809570D01*
X8135860Y7808080D01*
X8148560Y7802160D01*
X8173960Y7772520D01*
X8191740Y7759190D01*
X8217140Y7750300D01*
X8240000Y7747330D01*
Y7809570D01*
G01X8390450Y2761000D02*
X8378600Y2763540D01*
X8368230Y2773700D01*
X8359330Y2788940D01*
X8353410Y2806720D01*
X8350440Y2827040D01*
Y2847360D01*
X8353410Y2867680D01*
X8359330Y2885460D01*
X8368230Y2900700D01*
X8378600Y2910860D01*
X8390450Y2913400D01*
X8402300Y2910860D01*
X8412670Y2900700D01*
X8421570Y2885460D01*
X8427490Y2867680D01*
X8430460Y2847360D01*
Y2827040D01*
X8427490Y2806720D01*
X8421570Y2788940D01*
X8412670Y2773700D01*
X8402300Y2763540D01*
X8390450Y2761000D01*
G01X8484850Y2913400D02*
Y2804180D01*
X8490780Y2781320D01*
X8502630Y2766080D01*
X8517450Y2761000D01*
X8532270Y2766080D01*
X8544120Y2781320D01*
X8550050Y2804180D01*
Y2913400D01*
G01X8644450D02*
Y2761000D01*
G01X8610370Y2913400D02*
X8678530D01*
G01X8743300Y2824500D02*
X8753670Y2842280D01*
X8762560Y2852440D01*
X8774410Y2857520D01*
X8784790Y2852440D01*
X8792190Y2842280D01*
X8798120Y2827040D01*
X8799600Y2809260D01*
X8798120Y2794020D01*
X8792190Y2778780D01*
X8783300Y2766080D01*
X8772930Y2761000D01*
X8761080Y2766080D01*
X8750710Y2781320D01*
X8744780Y2804180D01*
X8743300Y2829580D01*
X8746260Y2862600D01*
X8750710Y2880380D01*
X8758110Y2898160D01*
X8768490Y2910860D01*
X8778860Y2913400D01*
X8789230Y2908320D01*
X8796640Y2895620D01*
G01X8870000Y4404820D02*
X8717600D01*
Y4441860D01*
X8725220Y4453710D01*
X8735380Y4461120D01*
X8755700Y4464080D01*
X8776020Y4461120D01*
X8788720Y4452230D01*
X8796340Y4441860D01*
Y4404820D01*
G01Y4441860D02*
X8870000Y4464080D01*
G01X8743000Y4533300D02*
X8727760Y4542190D01*
X8720140Y4552560D01*
X8717600Y4564410D01*
X8722680Y4579230D01*
X8735380Y4589600D01*
X8750620Y4592570D01*
X8765860Y4591080D01*
X8778560Y4585160D01*
X8803960Y4555520D01*
X8821740Y4542190D01*
X8847140Y4533300D01*
X8870000Y4530330D01*
Y4592570D01*
G01X8717600Y4688450D02*
X8722680Y4676600D01*
X8735380Y4667710D01*
X8750620Y4661780D01*
X8770940Y4657330D01*
X8793800Y4655850D01*
X8816660Y4657330D01*
X8836980Y4661780D01*
X8852220Y4667710D01*
X8864920Y4676600D01*
X8870000Y4688450D01*
X8864920Y4700300D01*
X8852220Y4709190D01*
X8836980Y4715120D01*
X8816660Y4719570D01*
X8793800Y4721050D01*
X8770940Y4719570D01*
X8750620Y4715120D01*
X8735380Y4709190D01*
X8722680Y4700300D01*
X8717600Y4688450D01*
G01X8720000Y5104820D02*
X8567600D01*
Y5141860D01*
X8575220Y5153710D01*
X8585380Y5161120D01*
X8605700Y5164080D01*
X8626020Y5161120D01*
X8638720Y5152230D01*
X8646340Y5141860D01*
Y5104820D01*
G01Y5141860D02*
X8720000Y5164080D01*
G01Y5261450D02*
X8567600D01*
X8598080Y5243670D01*
G01X8720000D02*
Y5279230D01*
G01X8702220Y5363260D02*
X8714920Y5373630D01*
X8720000Y5385490D01*
X8714920Y5397340D01*
X8699680Y5407710D01*
X8676820Y5415120D01*
X8653960Y5418080D01*
X8626020D01*
X8603160Y5415120D01*
X8582840Y5407710D01*
X8572680Y5398820D01*
X8567600Y5388450D01*
X8572680Y5376600D01*
X8582840Y5367710D01*
X8598080Y5361780D01*
X8618400Y5358820D01*
X8636180Y5361780D01*
X8653960Y5369190D01*
X8664120Y5378080D01*
X8666660Y5388450D01*
X8661580Y5400300D01*
X8648880Y5409190D01*
X8626020Y5418080D01*
G01X8487050Y7549700D02*
X8478160Y7557320D01*
X8467790Y7562400D01*
X8455930D01*
X8442600Y7554780D01*
X8432230Y7542080D01*
X8424820Y7526840D01*
X8418890Y7501440D01*
X8417410Y7478580D01*
X8420370Y7455720D01*
X8424820Y7440480D01*
X8433710Y7425240D01*
X8444080Y7415080D01*
X8454450Y7410000D01*
X8464820D01*
X8475190Y7415080D01*
X8484080Y7422700D01*
X8491490Y7432860D01*
G01X8548850Y7440480D02*
X8557740Y7422700D01*
X8569600Y7412540D01*
X8582930Y7410000D01*
X8594790Y7412540D01*
X8606640Y7425240D01*
X8614050Y7440480D01*
X8615530Y7455720D01*
X8612570Y7473500D01*
X8602190Y7486200D01*
X8591820Y7491280D01*
X8578490D01*
G01X8591820D02*
X8600710Y7498900D01*
X8608120Y7511600D01*
X8611080Y7526840D01*
X8608120Y7542080D01*
X8600710Y7554780D01*
X8587380Y7562400D01*
X8574040Y7559860D01*
X8560710Y7549700D01*
G01X8708450Y7410000D02*
X8718820Y7412540D01*
X8730670Y7420160D01*
X8738080Y7432860D01*
X8741050Y7450640D01*
X8738080Y7468420D01*
X8729190Y7483660D01*
X8715860Y7491280D01*
X8701040D01*
X8692150Y7496360D01*
X8684740Y7509060D01*
X8681780Y7526840D01*
X8686230Y7544620D01*
X8696600Y7557320D01*
X8708450Y7562400D01*
X8720300Y7557320D01*
X8730670Y7544620D01*
X8735120Y7526840D01*
X8732160Y7509060D01*
X8724750Y7496360D01*
X8715860Y7491280D01*
X8701040D01*
X8687710Y7483660D01*
X8678820Y7468420D01*
X8675850Y7450640D01*
X8678820Y7432860D01*
X8686230Y7420160D01*
X8698080Y7412540D01*
X8708450Y7410000D01*
G01X8744820Y8420000D02*
Y8572400D01*
X8781860D01*
X8793710Y8564780D01*
X8801120Y8554620D01*
X8804080Y8534300D01*
X8801120Y8513980D01*
X8792230Y8501280D01*
X8781860Y8493660D01*
X8744820D01*
G01X8781860D02*
X8804080Y8420000D01*
G01X8901450D02*
Y8572400D01*
X8883670Y8541920D01*
G01Y8420000D02*
X8919230D01*
G01X9025490D02*
X9028450Y8453020D01*
X9032900Y8480960D01*
X9038820Y8506360D01*
X9046230Y8534300D01*
X9058080Y8572400D01*
X8998820D01*
G01X8657180Y8193000D02*
Y8040600D01*
X8620140D01*
X8608290Y8048220D01*
X8600880Y8058380D01*
X8597920Y8078700D01*
X8600880Y8099020D01*
X8609770Y8111720D01*
X8620140Y8119340D01*
X8657180D01*
G01X8620140D02*
X8597920Y8193000D01*
G01X8500550D02*
Y8040600D01*
X8518330Y8071080D01*
G01Y8193000D02*
X8482770D01*
G01X8373550D02*
X8363180Y8190460D01*
X8351330Y8182840D01*
X8343920Y8170140D01*
X8340950Y8152360D01*
X8343920Y8134580D01*
X8352810Y8119340D01*
X8366140Y8111720D01*
X8380960D01*
X8389850Y8106640D01*
X8397260Y8093940D01*
X8400220Y8076160D01*
X8395770Y8058380D01*
X8385400Y8045680D01*
X8373550Y8040600D01*
X8361700Y8045680D01*
X8351330Y8058380D01*
X8346880Y8076160D01*
X8349840Y8093940D01*
X8357250Y8106640D01*
X8366140Y8111720D01*
X8380960D01*
X8394290Y8119340D01*
X8403180Y8134580D01*
X8406150Y8152360D01*
X8403180Y8170140D01*
X8395770Y8182840D01*
X8383920Y8190460D01*
X8373550Y8193000D01*
G01X8843370Y922400D02*
Y770000D01*
X8902630D01*
G01X8967400D02*
Y922400D01*
X8997040D01*
X9008890Y914780D01*
X9017780Y904620D01*
X9025190Y889380D01*
X9031120Y871600D01*
X9032600Y846200D01*
X9031120Y820800D01*
X9025190Y803020D01*
X9017780Y787780D01*
X9008890Y777620D01*
X8997040Y770000D01*
X8967400D01*
G01X9098850Y833500D02*
X9109220Y851280D01*
X9118110Y861440D01*
X9129960Y866520D01*
X9140340Y861440D01*
X9147740Y851280D01*
X9153670Y836040D01*
X9155150Y818260D01*
X9153670Y803020D01*
X9147740Y787780D01*
X9138850Y775080D01*
X9128480Y770000D01*
X9116630Y775080D01*
X9106260Y790320D01*
X9100330Y813180D01*
X9098850Y838580D01*
X9101810Y871600D01*
X9106260Y889380D01*
X9113660Y907160D01*
X9124040Y919860D01*
X9134410Y922400D01*
X9144780Y917320D01*
X9152190Y904620D01*
G01X8780300Y3094000D02*
Y3246400D01*
X8836600D01*
G01X8815860Y3172740D02*
X8780300D01*
G01X8905820Y3094000D02*
Y3246400D01*
X8942860D01*
X8954710Y3238780D01*
X8962120Y3228620D01*
X8965080Y3208300D01*
X8962120Y3187980D01*
X8953230Y3175280D01*
X8942860Y3167660D01*
X8905820D01*
G01X8942860D02*
X8965080Y3094000D01*
G01X9034300Y3221000D02*
X9043190Y3236240D01*
X9053560Y3243860D01*
X9065410Y3246400D01*
X9080230Y3241320D01*
X9090600Y3228620D01*
X9093570Y3213380D01*
X9092080Y3198140D01*
X9086160Y3185440D01*
X9056520Y3160040D01*
X9043190Y3142260D01*
X9034300Y3116860D01*
X9031330Y3094000D01*
X9093570D01*
G01X9110000Y4424820D02*
X8957600D01*
Y4461860D01*
X8965220Y4473710D01*
X8975380Y4481120D01*
X8995700Y4484080D01*
X9016020Y4481120D01*
X9028720Y4472230D01*
X9036340Y4461860D01*
Y4424820D01*
G01Y4461860D02*
X9110000Y4484080D01*
G01Y4581450D02*
X8957600D01*
X8988080Y4563670D01*
G01X9110000D02*
Y4599230D01*
G01X9046500Y4680300D02*
X9028720Y4690670D01*
X9018560Y4699560D01*
X9013480Y4711410D01*
X9018560Y4721790D01*
X9028720Y4729190D01*
X9043960Y4735120D01*
X9061740Y4736600D01*
X9076980Y4735120D01*
X9092220Y4729190D01*
X9104920Y4720300D01*
X9110000Y4709930D01*
X9104920Y4698080D01*
X9089680Y4687710D01*
X9066820Y4681780D01*
X9041420Y4680300D01*
X9008400Y4683260D01*
X8990620Y4687710D01*
X8972840Y4695110D01*
X8960140Y4705490D01*
X8957600Y4715860D01*
X8962680Y4726230D01*
X8975380Y4733640D01*
G01X9260000Y5124820D02*
X9107600D01*
Y5161860D01*
X9115220Y5173710D01*
X9125380Y5181120D01*
X9145700Y5184080D01*
X9166020Y5181120D01*
X9178720Y5172230D01*
X9186340Y5161860D01*
Y5124820D01*
G01Y5161860D02*
X9260000Y5184080D01*
G01Y5281450D02*
X9107600D01*
X9138080Y5263670D01*
G01X9260000D02*
Y5299230D01*
G01X9237140Y5375850D02*
X9249840Y5384740D01*
X9257460Y5395110D01*
X9260000Y5408450D01*
X9254920Y5421790D01*
X9244760Y5432160D01*
X9226980Y5439570D01*
X9206660Y5441050D01*
X9186340Y5438080D01*
X9173640Y5430670D01*
X9163480Y5420300D01*
X9160940Y5409930D01*
X9163480Y5399560D01*
X9173640Y5386230D01*
X9107600Y5390670D01*
Y5430670D01*
G01X8970300Y6677050D02*
X8962680Y6668160D01*
X8957600Y6657790D01*
Y6645930D01*
X8965220Y6632600D01*
X8977920Y6622230D01*
X8993160Y6614820D01*
X9018560Y6608890D01*
X9041420Y6607410D01*
X9064280Y6610370D01*
X9079520Y6614820D01*
X9094760Y6623710D01*
X9104920Y6634080D01*
X9110000Y6644450D01*
Y6654820D01*
X9104920Y6665190D01*
X9097300Y6674080D01*
X9087140Y6681490D01*
G01X9079520Y6738850D02*
X9097300Y6747740D01*
X9107460Y6759600D01*
X9110000Y6772930D01*
X9107460Y6784790D01*
X9094760Y6796640D01*
X9079520Y6804050D01*
X9064280Y6805530D01*
X9046500Y6802570D01*
X9033800Y6792190D01*
X9028720Y6781820D01*
Y6768490D01*
G01Y6781820D02*
X9021100Y6790710D01*
X9008400Y6798120D01*
X8993160Y6801080D01*
X8977920Y6798120D01*
X8965220Y6790710D01*
X8957600Y6777380D01*
X8960140Y6764040D01*
X8970300Y6750710D01*
G01X9110000Y6895490D02*
X9076980Y6898450D01*
X9049040Y6902900D01*
X9023640Y6908820D01*
X8995700Y6916230D01*
X8957600Y6928080D01*
Y6868820D01*
G01X9282400Y7673130D02*
X9130000D01*
Y7613870D01*
G01X9152860Y7549100D02*
X9140160Y7540210D01*
X9132540Y7529840D01*
X9130000Y7516500D01*
X9135080Y7503160D01*
X9145240Y7492790D01*
X9163020Y7485380D01*
X9183340Y7483900D01*
X9203660Y7486870D01*
X9216360Y7494280D01*
X9226520Y7504650D01*
X9229060Y7515020D01*
X9226520Y7525390D01*
X9216360Y7538720D01*
X9282400Y7534280D01*
Y7494280D01*
G01X9339700Y8097950D02*
X9347320Y8106840D01*
X9352400Y8117210D01*
Y8129070D01*
X9344780Y8142400D01*
X9332080Y8152770D01*
X9316840Y8160180D01*
X9291440Y8166110D01*
X9268580Y8167590D01*
X9245720Y8164630D01*
X9230480Y8160180D01*
X9215240Y8151290D01*
X9205080Y8140920D01*
X9200000Y8130550D01*
Y8120180D01*
X9205080Y8109810D01*
X9212700Y8100920D01*
X9222860Y8093510D01*
G01X9230480Y8036150D02*
X9212700Y8027260D01*
X9202540Y8015400D01*
X9200000Y8002070D01*
X9202540Y7990210D01*
X9215240Y7978360D01*
X9230480Y7970950D01*
X9245720Y7969470D01*
X9263500Y7972430D01*
X9276200Y7982810D01*
X9281280Y7993180D01*
Y8006510D01*
G01Y7993180D02*
X9288900Y7984290D01*
X9301600Y7976880D01*
X9316840Y7973920D01*
X9332080Y7976880D01*
X9344780Y7984290D01*
X9352400Y7997620D01*
X9349860Y8010960D01*
X9339700Y8024290D01*
G01X9222860Y7909150D02*
X9210160Y7900260D01*
X9202540Y7889890D01*
X9200000Y7876550D01*
X9205080Y7863210D01*
X9215240Y7852840D01*
X9233020Y7845430D01*
X9253340Y7843950D01*
X9273660Y7846920D01*
X9286360Y7854330D01*
X9296520Y7864700D01*
X9299060Y7875070D01*
X9296520Y7885440D01*
X9286360Y7898770D01*
X9352400Y7894330D01*
Y7854330D01*
G01X9313370Y912400D02*
Y760000D01*
X9372630D01*
G01X9437400D02*
Y912400D01*
X9467040D01*
X9478890Y904780D01*
X9487780Y894620D01*
X9495190Y879380D01*
X9501120Y861600D01*
X9502600Y836200D01*
X9501120Y810800D01*
X9495190Y793020D01*
X9487780Y777780D01*
X9478890Y767620D01*
X9467040Y760000D01*
X9437400D01*
G01X9564400Y782860D02*
X9573290Y770160D01*
X9583660Y762540D01*
X9597000Y760000D01*
X9610340Y765080D01*
X9620710Y775240D01*
X9628120Y793020D01*
X9629600Y813340D01*
X9626630Y833660D01*
X9619220Y846360D01*
X9608850Y856520D01*
X9598480Y859060D01*
X9588110Y856520D01*
X9574780Y846360D01*
X9579220Y912400D01*
X9619220D01*
G01X9577050Y6599700D02*
X9568160Y6607320D01*
X9557790Y6612400D01*
X9545930D01*
X9532600Y6604780D01*
X9522230Y6592080D01*
X9514820Y6576840D01*
X9508890Y6551440D01*
X9507410Y6528580D01*
X9510370Y6505720D01*
X9514820Y6490480D01*
X9523710Y6475240D01*
X9534080Y6465080D01*
X9544450Y6460000D01*
X9554820D01*
X9565190Y6465080D01*
X9574080Y6472700D01*
X9581490Y6482860D01*
G01X9689230Y6460000D02*
Y6612400D01*
X9634410Y6503180D01*
X9708490D01*
G01X9765850Y6490480D02*
X9774740Y6472700D01*
X9786600Y6462540D01*
X9799930Y6460000D01*
X9811790Y6462540D01*
X9823640Y6475240D01*
X9831050Y6490480D01*
X9832530Y6505720D01*
X9829570Y6523500D01*
X9819190Y6536200D01*
X9808820Y6541280D01*
X9795490D01*
G01X9808820D02*
X9817710Y6548900D01*
X9825120Y6561600D01*
X9828080Y6576840D01*
X9825120Y6592080D01*
X9817710Y6604780D01*
X9804380Y6612400D01*
X9791040Y6609860D01*
X9777710Y6599700D01*
G01X9537050Y7689700D02*
X9528160Y7697320D01*
X9517790Y7702400D01*
X9505930D01*
X9492600Y7694780D01*
X9482230Y7682080D01*
X9474820Y7666840D01*
X9468890Y7641440D01*
X9467410Y7618580D01*
X9470370Y7595720D01*
X9474820Y7580480D01*
X9483710Y7565240D01*
X9494080Y7555080D01*
X9504450Y7550000D01*
X9514820D01*
X9525190Y7555080D01*
X9534080Y7562700D01*
X9541490Y7572860D01*
G01X9649230Y7550000D02*
Y7702400D01*
X9594410Y7593180D01*
X9668490D01*
G01X9730300Y7613500D02*
X9740670Y7631280D01*
X9749560Y7641440D01*
X9761410Y7646520D01*
X9771790Y7641440D01*
X9779190Y7631280D01*
X9785120Y7616040D01*
X9786600Y7598260D01*
X9785120Y7583020D01*
X9779190Y7567780D01*
X9770300Y7555080D01*
X9759930Y7550000D01*
X9748080Y7555080D01*
X9737710Y7570320D01*
X9731780Y7593180D01*
X9730300Y7618580D01*
X9733260Y7651600D01*
X9737710Y7669380D01*
X9745110Y7687160D01*
X9755490Y7699860D01*
X9765860Y7702400D01*
X9776230Y7697320D01*
X9783640Y7684620D01*
G01X9537050Y7459700D02*
X9528160Y7467320D01*
X9517790Y7472400D01*
X9505930D01*
X9492600Y7464780D01*
X9482230Y7452080D01*
X9474820Y7436840D01*
X9468890Y7411440D01*
X9467410Y7388580D01*
X9470370Y7365720D01*
X9474820Y7350480D01*
X9483710Y7335240D01*
X9494080Y7325080D01*
X9504450Y7320000D01*
X9514820D01*
X9525190Y7325080D01*
X9534080Y7332700D01*
X9541490Y7342860D01*
G01X9649230Y7320000D02*
Y7472400D01*
X9594410Y7363180D01*
X9668490D01*
G01X9725850Y7342860D02*
X9734740Y7330160D01*
X9745110Y7322540D01*
X9758450Y7320000D01*
X9771790Y7325080D01*
X9782160Y7335240D01*
X9789570Y7353020D01*
X9791050Y7373340D01*
X9788080Y7393660D01*
X9780670Y7406360D01*
X9770300Y7416520D01*
X9759930Y7419060D01*
X9749560Y7416520D01*
X9736230Y7406360D01*
X9740670Y7472400D01*
X9780670D01*
G01X9763370Y902400D02*
Y750000D01*
X9822630D01*
G01X9887400D02*
Y902400D01*
X9917040D01*
X9928890Y894780D01*
X9937780Y884620D01*
X9945190Y869380D01*
X9951120Y851600D01*
X9952600Y826200D01*
X9951120Y800800D01*
X9945190Y783020D01*
X9937780Y767780D01*
X9928890Y757620D01*
X9917040Y750000D01*
X9887400D01*
G01X10064780D02*
Y902400D01*
X10009960Y793180D01*
X10084040D01*
G01X10147950Y6210300D02*
X10156840Y6202680D01*
X10167210Y6197600D01*
X10179070D01*
X10192400Y6205220D01*
X10202770Y6217920D01*
X10210180Y6233160D01*
X10216110Y6258560D01*
X10217590Y6281420D01*
X10214630Y6304280D01*
X10210180Y6319520D01*
X10201290Y6334760D01*
X10190920Y6344920D01*
X10180550Y6350000D01*
X10170180D01*
X10159810Y6344920D01*
X10150920Y6337300D01*
X10143510Y6327140D01*
G01X10035770Y6350000D02*
Y6197600D01*
X10090590Y6306820D01*
X10016510D01*
G01X9908770Y6350000D02*
Y6197600D01*
X9963590Y6306820D01*
X9889510D01*
G01X10233370Y892400D02*
Y740000D01*
X10292630D01*
G01X10357400D02*
Y892400D01*
X10387040D01*
X10398890Y884780D01*
X10407780Y874620D01*
X10415190Y859380D01*
X10421120Y841600D01*
X10422600Y816200D01*
X10421120Y790800D01*
X10415190Y773020D01*
X10407780Y757780D01*
X10398890Y747620D01*
X10387040Y740000D01*
X10357400D01*
G01X10484400Y770480D02*
X10493290Y752700D01*
X10505150Y742540D01*
X10518480Y740000D01*
X10530340Y742540D01*
X10542190Y755240D01*
X10549600Y770480D01*
X10551080Y785720D01*
X10548120Y803500D01*
X10537740Y816200D01*
X10527370Y821280D01*
X10514040D01*
G01X10527370D02*
X10536260Y828900D01*
X10543670Y841600D01*
X10546630Y856840D01*
X10543670Y872080D01*
X10536260Y884780D01*
X10522930Y892400D01*
X10509590Y889860D01*
X10496260Y879700D01*
G01X10375930Y3300000D02*
Y3452400D01*
X10414450Y3325400D01*
X10452970Y3452400D01*
Y3300000D01*
G01X10541450D02*
X10529600Y3302540D01*
X10519230Y3312700D01*
X10510330Y3327940D01*
X10504410Y3345720D01*
X10501440Y3366040D01*
Y3386360D01*
X10504410Y3406680D01*
X10510330Y3424460D01*
X10519230Y3439700D01*
X10529600Y3449860D01*
X10541450Y3452400D01*
X10553300Y3449860D01*
X10563670Y3439700D01*
X10572570Y3424460D01*
X10578490Y3406680D01*
X10581460Y3386360D01*
Y3366040D01*
X10578490Y3345720D01*
X10572570Y3327940D01*
X10563670Y3312700D01*
X10553300Y3302540D01*
X10541450Y3300000D01*
G01X10635850D02*
Y3452400D01*
X10665490D01*
X10677340Y3444780D01*
X10686230Y3434620D01*
X10693640Y3419380D01*
X10699570Y3401600D01*
X10701050Y3376200D01*
X10699570Y3350800D01*
X10693640Y3333020D01*
X10686230Y3317780D01*
X10677340Y3307620D01*
X10665490Y3300000D01*
X10635850D01*
G01X10825080D02*
X10765820D01*
Y3452400D01*
X10825080D01*
G01X10801380Y3378740D02*
X10765820D01*
G01X10427050Y8749700D02*
X10418160Y8757320D01*
X10407790Y8762400D01*
X10395930D01*
X10382600Y8754780D01*
X10372230Y8742080D01*
X10364820Y8726840D01*
X10358890Y8701440D01*
X10357410Y8678580D01*
X10360370Y8655720D01*
X10364820Y8640480D01*
X10373710Y8625240D01*
X10384080Y8615080D01*
X10394450Y8610000D01*
X10404820D01*
X10415190Y8615080D01*
X10424080Y8622700D01*
X10431490Y8632860D01*
G01X10493300Y8737000D02*
X10502190Y8752240D01*
X10512560Y8759860D01*
X10524410Y8762400D01*
X10539230Y8757320D01*
X10549600Y8744620D01*
X10552570Y8729380D01*
X10551080Y8714140D01*
X10545160Y8701440D01*
X10515520Y8676040D01*
X10502190Y8658260D01*
X10493300Y8632860D01*
X10490330Y8610000D01*
X10552570D01*
G01X10615850Y8640480D02*
X10624740Y8622700D01*
X10636600Y8612540D01*
X10649930Y8610000D01*
X10661790Y8612540D01*
X10673640Y8625240D01*
X10681050Y8640480D01*
X10682530Y8655720D01*
X10679570Y8673500D01*
X10669190Y8686200D01*
X10658820Y8691280D01*
X10645490D01*
G01X10658820D02*
X10667710Y8698900D01*
X10675120Y8711600D01*
X10678080Y8726840D01*
X10675120Y8742080D01*
X10667710Y8754780D01*
X10654380Y8762400D01*
X10641040Y8759860D01*
X10627710Y8749700D01*
G01X10427050Y8949700D02*
X10418160Y8957320D01*
X10407790Y8962400D01*
X10395930D01*
X10382600Y8954780D01*
X10372230Y8942080D01*
X10364820Y8926840D01*
X10358890Y8901440D01*
X10357410Y8878580D01*
X10360370Y8855720D01*
X10364820Y8840480D01*
X10373710Y8825240D01*
X10384080Y8815080D01*
X10394450Y8810000D01*
X10404820D01*
X10415190Y8815080D01*
X10424080Y8822700D01*
X10431490Y8832860D01*
G01X10493300Y8937000D02*
X10502190Y8952240D01*
X10512560Y8959860D01*
X10524410Y8962400D01*
X10539230Y8957320D01*
X10549600Y8944620D01*
X10552570Y8929380D01*
X10551080Y8914140D01*
X10545160Y8901440D01*
X10515520Y8876040D01*
X10502190Y8858260D01*
X10493300Y8832860D01*
X10490330Y8810000D01*
X10552570D01*
G01X10615850Y8832860D02*
X10624740Y8820160D01*
X10635110Y8812540D01*
X10648450Y8810000D01*
X10661790Y8815080D01*
X10672160Y8825240D01*
X10679570Y8843020D01*
X10681050Y8863340D01*
X10678080Y8883660D01*
X10670670Y8896360D01*
X10660300Y8906520D01*
X10649930Y8909060D01*
X10639560Y8906520D01*
X10626230Y8896360D01*
X10630670Y8962400D01*
X10670670D01*
G01X10624080Y3710000D02*
X10564820D01*
Y3862400D01*
X10624080D01*
G01X10600380Y3788740D02*
X10564820D01*
G01X10687370Y3710000D02*
Y3862400D01*
X10755530Y3710000D01*
Y3862400D01*
G01X10848450Y3710000D02*
Y3862400D01*
X10830670Y3831920D01*
G01Y3710000D02*
X10866230D01*
G01X10636870Y6642400D02*
Y6490000D01*
X10696130D01*
G01X10765350Y6553500D02*
X10775720Y6571280D01*
X10784610Y6581440D01*
X10796460Y6586520D01*
X10806840Y6581440D01*
X10814240Y6571280D01*
X10820170Y6556040D01*
X10821650Y6538260D01*
X10820170Y6523020D01*
X10814240Y6507780D01*
X10805350Y6495080D01*
X10794980Y6490000D01*
X10783130Y6495080D01*
X10772760Y6510320D01*
X10766830Y6533180D01*
X10765350Y6558580D01*
X10768310Y6591600D01*
X10772760Y6609380D01*
X10780160Y6627160D01*
X10790540Y6639860D01*
X10800910Y6642400D01*
X10811280Y6637320D01*
X10818690Y6624620D01*
G01X10782050Y7268700D02*
X10773160Y7276320D01*
X10762790Y7281400D01*
X10750930D01*
X10737600Y7273780D01*
X10727230Y7261080D01*
X10719820Y7245840D01*
X10713890Y7220440D01*
X10712410Y7197580D01*
X10715370Y7174720D01*
X10719820Y7159480D01*
X10728710Y7144240D01*
X10739080Y7134080D01*
X10749450Y7129000D01*
X10759820D01*
X10770190Y7134080D01*
X10779080Y7141700D01*
X10786490Y7151860D01*
G01X10894230Y7129000D02*
Y7281400D01*
X10839410Y7172180D01*
X10913490D01*
G01X11003450Y7281400D02*
X10991600Y7276320D01*
X10982710Y7263620D01*
X10976780Y7248380D01*
X10972330Y7228060D01*
X10970850Y7205200D01*
X10972330Y7182340D01*
X10976780Y7162020D01*
X10982710Y7146780D01*
X10991600Y7134080D01*
X11003450Y7129000D01*
X11015300Y7134080D01*
X11024190Y7146780D01*
X11030120Y7162020D01*
X11034570Y7182340D01*
X11036050Y7205200D01*
X11034570Y7228060D01*
X11030120Y7248380D01*
X11024190Y7263620D01*
X11015300Y7276320D01*
X11003450Y7281400D01*
G01X10637050Y9189700D02*
X10628160Y9197320D01*
X10617790Y9202400D01*
X10605930D01*
X10592600Y9194780D01*
X10582230Y9182080D01*
X10574820Y9166840D01*
X10568890Y9141440D01*
X10567410Y9118580D01*
X10570370Y9095720D01*
X10574820Y9080480D01*
X10583710Y9065240D01*
X10594080Y9055080D01*
X10604450Y9050000D01*
X10614820D01*
X10625190Y9055080D01*
X10634080Y9062700D01*
X10641490Y9072860D01*
G01X10703300Y9177000D02*
X10712190Y9192240D01*
X10722560Y9199860D01*
X10734410Y9202400D01*
X10749230Y9197320D01*
X10759600Y9184620D01*
X10762570Y9169380D01*
X10761080Y9154140D01*
X10755160Y9141440D01*
X10725520Y9116040D01*
X10712190Y9098260D01*
X10703300Y9072860D01*
X10700330Y9050000D01*
X10762570D01*
G01X10830300Y9177000D02*
X10839190Y9192240D01*
X10849560Y9199860D01*
X10861410Y9202400D01*
X10876230Y9197320D01*
X10886600Y9184620D01*
X10889570Y9169380D01*
X10888080Y9154140D01*
X10882160Y9141440D01*
X10852520Y9116040D01*
X10839190Y9098260D01*
X10830300Y9072860D01*
X10827330Y9050000D01*
X10889570D01*
G01X10647050Y9389700D02*
X10638160Y9397320D01*
X10627790Y9402400D01*
X10615930D01*
X10602600Y9394780D01*
X10592230Y9382080D01*
X10584820Y9366840D01*
X10578890Y9341440D01*
X10577410Y9318580D01*
X10580370Y9295720D01*
X10584820Y9280480D01*
X10593710Y9265240D01*
X10604080Y9255080D01*
X10614450Y9250000D01*
X10624820D01*
X10635190Y9255080D01*
X10644080Y9262700D01*
X10651490Y9272860D01*
G01X10713300Y9377000D02*
X10722190Y9392240D01*
X10732560Y9399860D01*
X10744410Y9402400D01*
X10759230Y9397320D01*
X10769600Y9384620D01*
X10772570Y9369380D01*
X10771080Y9354140D01*
X10765160Y9341440D01*
X10735520Y9316040D01*
X10722190Y9298260D01*
X10713300Y9272860D01*
X10710330Y9250000D01*
X10772570D01*
G01X10886230D02*
Y9402400D01*
X10831410Y9293180D01*
X10905490D01*
G01X11446030Y1340070D02*
X11440490Y1324060D01*
X11439590Y1310590D01*
X11443330Y1299670D01*
X11455310Y1294870D01*
X11468780Y1295770D01*
X11485840Y1300260D01*
X11502310Y1312530D01*
X11574150Y1384380D01*
G01X11642990Y1315530D02*
X11535230Y1207770D01*
G01X11618900Y1339630D02*
X11667090Y1291440D01*
G01X11598840Y1144160D02*
X11732790Y1225730D01*
X11651220Y1091780D01*
G01X11679510Y1138920D02*
X11645980Y1172450D01*
G01X11775000Y1075760D02*
X11795950Y1054810D01*
X11763620Y1022480D01*
X11746560Y1017990D01*
X11732040Y1018140D01*
X11717970Y1025030D01*
X11711090Y1039090D01*
X11710940Y1053610D01*
X11715430Y1070670D01*
X11723810Y1087440D01*
X11736080Y1103900D01*
X11748660Y1116480D01*
X11761520Y1125160D01*
X11778290Y1133540D01*
X11795350Y1138030D01*
X11808820Y1138920D01*
X11822590Y1135930D01*
X11829930Y1128600D01*
X11834720Y1116630D01*
X11833820Y1103150D01*
G01X11825590Y917410D02*
X11783680Y959320D01*
X11891440Y1067090D01*
X11933350Y1025180D01*
G01X11864500Y989860D02*
X11839360Y1015000D01*
G01X11870330Y872670D02*
X11978100Y980430D01*
X11918530Y824470D01*
X12026290Y932240D01*
G01X11364820Y3920000D02*
Y4072400D01*
X11400380D01*
X11412230Y4064780D01*
X11421120Y4047000D01*
X11424080Y4026680D01*
X11421120Y4006360D01*
X11413710Y3991120D01*
X11400380Y3983500D01*
X11364820D01*
G01X11530340Y3996200D02*
X11559970D01*
Y3950480D01*
X11551080Y3935240D01*
X11540710Y3925080D01*
X11525900Y3920000D01*
X11511080Y3925080D01*
X11500710Y3935240D01*
X11491820Y3950480D01*
X11485890Y3968260D01*
X11482930Y3988580D01*
Y4006360D01*
X11485890Y4021600D01*
X11491820Y4039380D01*
X11500710Y4054620D01*
X11509600Y4064780D01*
X11521450Y4072400D01*
X11531820D01*
X11543670Y4067320D01*
X11552570Y4057160D01*
G01X11648450Y3920000D02*
X11636600Y3922540D01*
X11626230Y3932700D01*
X11617330Y3947940D01*
X11611410Y3965720D01*
X11608440Y3986040D01*
Y4006360D01*
X11611410Y4026680D01*
X11617330Y4044460D01*
X11626230Y4059700D01*
X11636600Y4069860D01*
X11648450Y4072400D01*
X11660300Y4069860D01*
X11670670Y4059700D01*
X11679570Y4044460D01*
X11685490Y4026680D01*
X11688460Y4006360D01*
Y3986040D01*
X11685490Y3965720D01*
X11679570Y3947940D01*
X11670670Y3932700D01*
X11660300Y3922540D01*
X11648450Y3920000D01*
G01X11775450D02*
X11763600Y3922540D01*
X11753230Y3932700D01*
X11744330Y3947940D01*
X11738410Y3965720D01*
X11735440Y3986040D01*
Y4006360D01*
X11738410Y4026680D01*
X11744330Y4044460D01*
X11753230Y4059700D01*
X11763600Y4069860D01*
X11775450Y4072400D01*
X11787300Y4069860D01*
X11797670Y4059700D01*
X11806570Y4044460D01*
X11812490Y4026680D01*
X11815460Y4006360D01*
Y3986040D01*
X11812490Y3965720D01*
X11806570Y3947940D01*
X11797670Y3932700D01*
X11787300Y3922540D01*
X11775450Y3920000D01*
G01X11869850D02*
Y4072400D01*
X11899490D01*
X11911340Y4064780D01*
X11920230Y4054620D01*
X11927640Y4039380D01*
X11933570Y4021600D01*
X11935050Y3996200D01*
X11933570Y3970800D01*
X11927640Y3953020D01*
X11920230Y3937780D01*
X11911340Y3927620D01*
X11899490Y3920000D01*
X11869850D01*
G01X11540300Y6477050D02*
X11532680Y6468160D01*
X11527600Y6457790D01*
Y6445930D01*
X11535220Y6432600D01*
X11547920Y6422230D01*
X11563160Y6414820D01*
X11588560Y6408890D01*
X11611420Y6407410D01*
X11634280Y6410370D01*
X11649520Y6414820D01*
X11664760Y6423710D01*
X11674920Y6434080D01*
X11680000Y6444450D01*
Y6454820D01*
X11674920Y6465190D01*
X11667300Y6474080D01*
X11657140Y6481490D01*
G01X11553000Y6543300D02*
X11537760Y6552190D01*
X11530140Y6562560D01*
X11527600Y6574410D01*
X11532680Y6589230D01*
X11545380Y6599600D01*
X11560620Y6602570D01*
X11575860Y6601080D01*
X11588560Y6595160D01*
X11613960Y6565520D01*
X11631740Y6552190D01*
X11657140Y6543300D01*
X11680000Y6540330D01*
Y6602570D01*
G01X11662220Y6673260D02*
X11674920Y6683630D01*
X11680000Y6695490D01*
X11674920Y6707340D01*
X11659680Y6717710D01*
X11636820Y6725120D01*
X11613960Y6728080D01*
X11586020D01*
X11563160Y6725120D01*
X11542840Y6717710D01*
X11532680Y6708820D01*
X11527600Y6698450D01*
X11532680Y6686600D01*
X11542840Y6677710D01*
X11558080Y6671780D01*
X11578400Y6668820D01*
X11596180Y6671780D01*
X11613960Y6679190D01*
X11624120Y6688080D01*
X11626660Y6698450D01*
X11621580Y6710300D01*
X11608880Y6719190D01*
X11586020Y6728080D01*
G01X11612400Y7073130D02*
X11460000D01*
Y7013870D01*
G01Y6898720D02*
X11612400D01*
X11503180Y6953540D01*
Y6879460D01*
G01X11602400Y7653130D02*
X11450000D01*
Y7593870D01*
G01X11480480Y7529100D02*
X11462700Y7520210D01*
X11452540Y7508350D01*
X11450000Y7495020D01*
X11452540Y7483160D01*
X11465240Y7471310D01*
X11480480Y7463900D01*
X11495720Y7462420D01*
X11513500Y7465380D01*
X11526200Y7475760D01*
X11531280Y7486130D01*
Y7499460D01*
G01Y7486130D02*
X11538900Y7477240D01*
X11551600Y7469830D01*
X11566840Y7466870D01*
X11582080Y7469830D01*
X11594780Y7477240D01*
X11602400Y7490570D01*
X11599860Y7503910D01*
X11589700Y7517240D01*
G01X11407050Y7959700D02*
X11398160Y7967320D01*
X11387790Y7972400D01*
X11375930D01*
X11362600Y7964780D01*
X11352230Y7952080D01*
X11344820Y7936840D01*
X11338890Y7911440D01*
X11337410Y7888580D01*
X11340370Y7865720D01*
X11344820Y7850480D01*
X11353710Y7835240D01*
X11364080Y7825080D01*
X11374450Y7820000D01*
X11384820D01*
X11395190Y7825080D01*
X11404080Y7832700D01*
X11411490Y7842860D01*
G01X11473300Y7947000D02*
X11482190Y7962240D01*
X11492560Y7969860D01*
X11504410Y7972400D01*
X11519230Y7967320D01*
X11529600Y7954620D01*
X11532570Y7939380D01*
X11531080Y7924140D01*
X11525160Y7911440D01*
X11495520Y7886040D01*
X11482190Y7868260D01*
X11473300Y7842860D01*
X11470330Y7820000D01*
X11532570D01*
G01X11628450D02*
X11638820Y7822540D01*
X11650670Y7830160D01*
X11658080Y7842860D01*
X11661050Y7860640D01*
X11658080Y7878420D01*
X11649190Y7893660D01*
X11635860Y7901280D01*
X11621040D01*
X11612150Y7906360D01*
X11604740Y7919060D01*
X11601780Y7936840D01*
X11606230Y7954620D01*
X11616600Y7967320D01*
X11628450Y7972400D01*
X11640300Y7967320D01*
X11650670Y7954620D01*
X11655120Y7936840D01*
X11652160Y7919060D01*
X11644750Y7906360D01*
X11635860Y7901280D01*
X11621040D01*
X11607710Y7893660D01*
X11598820Y7878420D01*
X11595850Y7860640D01*
X11598820Y7842860D01*
X11606230Y7830160D01*
X11618080Y7822540D01*
X11628450Y7820000D01*
G01X11900200Y9719650D02*
X11909090Y9712030D01*
X11919460Y9706950D01*
X11931320D01*
X11944650Y9714570D01*
X11955020Y9727270D01*
X11962430Y9742510D01*
X11968360Y9767910D01*
X11969840Y9790770D01*
X11966880Y9813630D01*
X11962430Y9828870D01*
X11953540Y9844110D01*
X11943170Y9854270D01*
X11932800Y9859350D01*
X11922430D01*
X11912060Y9854270D01*
X11903170Y9846650D01*
X11895760Y9836490D01*
G01X11805800Y9859350D02*
Y9706950D01*
X11823580Y9737430D01*
G01Y9859350D02*
X11788020D01*
G01X11681760D02*
X11678800Y9826330D01*
X11674350Y9798390D01*
X11668430Y9772990D01*
X11661020Y9745050D01*
X11649170Y9706950D01*
X11708430D01*
G01X12071850Y5811070D02*
X11919450D01*
Y5848110D01*
X11927070Y5859960D01*
X11937230Y5867370D01*
X11957550Y5870330D01*
X11977870Y5867370D01*
X11990570Y5858480D01*
X11998190Y5848110D01*
Y5811070D01*
G01Y5848110D02*
X12071850Y5870330D01*
G01Y5967700D02*
X11919450D01*
X11949930Y5949920D01*
G01X12071850D02*
Y5985480D01*
G01X11777050Y8229700D02*
X11768160Y8237320D01*
X11757790Y8242400D01*
X11745930D01*
X11732600Y8234780D01*
X11722230Y8222080D01*
X11714820Y8206840D01*
X11708890Y8181440D01*
X11707410Y8158580D01*
X11710370Y8135720D01*
X11714820Y8120480D01*
X11723710Y8105240D01*
X11734080Y8095080D01*
X11744450Y8090000D01*
X11754820D01*
X11765190Y8095080D01*
X11774080Y8102700D01*
X11781490Y8112860D01*
G01X11871450Y8090000D02*
Y8242400D01*
X11853670Y8211920D01*
G01Y8090000D02*
X11889230D01*
G01X11998450D02*
X12008820Y8092540D01*
X12020670Y8100160D01*
X12028080Y8112860D01*
X12031050Y8130640D01*
X12028080Y8148420D01*
X12019190Y8163660D01*
X12005860Y8171280D01*
X11991040D01*
X11982150Y8176360D01*
X11974740Y8189060D01*
X11971780Y8206840D01*
X11976230Y8224620D01*
X11986600Y8237320D01*
X11998450Y8242400D01*
X12010300Y8237320D01*
X12020670Y8224620D01*
X12025120Y8206840D01*
X12022160Y8189060D01*
X12014750Y8176360D01*
X12005860Y8171280D01*
X11991040D01*
X11977710Y8163660D01*
X11968820Y8148420D01*
X11965850Y8130640D01*
X11968820Y8112860D01*
X11976230Y8100160D01*
X11988080Y8092540D01*
X11998450Y8090000D01*
G01X11972400Y8473130D02*
X11820000D01*
Y8413870D01*
G01X11947000Y8344650D02*
X11962240Y8335760D01*
X11969860Y8325390D01*
X11972400Y8313540D01*
X11967320Y8298720D01*
X11954620Y8288350D01*
X11939380Y8285380D01*
X11924140Y8286870D01*
X11911440Y8292790D01*
X11886040Y8322430D01*
X11868260Y8335760D01*
X11842860Y8344650D01*
X11820000Y8347620D01*
Y8285380D01*
G01X12994300Y4790050D02*
X12986680Y4781160D01*
X12981600Y4770790D01*
Y4758930D01*
X12989220Y4745600D01*
X13001920Y4735230D01*
X13017160Y4727820D01*
X13042560Y4721890D01*
X13065420Y4720410D01*
X13088280Y4723370D01*
X13103520Y4727820D01*
X13118760Y4736710D01*
X13128920Y4747080D01*
X13134000Y4757450D01*
Y4767820D01*
X13128920Y4778190D01*
X13121300Y4787080D01*
X13111140Y4794490D01*
G01X13134000Y4902230D02*
X12981600D01*
X13090820Y4847410D01*
Y4921490D01*
G01X13134000Y5011450D02*
X13131460Y5021820D01*
X13123840Y5033670D01*
X13111140Y5041080D01*
X13093360Y5044050D01*
X13075580Y5041080D01*
X13060340Y5032190D01*
X13052720Y5018860D01*
Y5004040D01*
X13047640Y4995150D01*
X13034940Y4987740D01*
X13017160Y4984780D01*
X12999380Y4989230D01*
X12986680Y4999600D01*
X12981600Y5011450D01*
X12986680Y5023300D01*
X12999380Y5033670D01*
X13017160Y5038120D01*
X13034940Y5035160D01*
X13047640Y5027750D01*
X13052720Y5018860D01*
Y5004040D01*
X13060340Y4990710D01*
X13075580Y4981820D01*
X13093360Y4978850D01*
X13111140Y4981820D01*
X13123840Y4989230D01*
X13131460Y5001080D01*
X13134000Y5011450D01*
G01X13816950Y5291300D02*
X13825840Y5283680D01*
X13836210Y5278600D01*
X13848070D01*
X13861400Y5286220D01*
X13871770Y5298920D01*
X13879180Y5314160D01*
X13885110Y5339560D01*
X13886590Y5362420D01*
X13883630Y5385280D01*
X13879180Y5400520D01*
X13870290Y5415760D01*
X13859920Y5425920D01*
X13849550Y5431000D01*
X13839180D01*
X13828810Y5425920D01*
X13819920Y5418300D01*
X13812510Y5408140D01*
G01X13704770Y5431000D02*
Y5278600D01*
X13759590Y5387820D01*
X13685510D01*
G01X13598510Y5431000D02*
X13595550Y5397980D01*
X13591100Y5370040D01*
X13585180Y5344640D01*
X13577770Y5316700D01*
X13565920Y5278600D01*
X13625180D01*
G01X13999400Y5935130D02*
X13847000D01*
Y5875870D01*
G01Y5781460D02*
X13880020Y5778500D01*
X13907960Y5774050D01*
X13933360Y5768130D01*
X13961300Y5760720D01*
X13999400Y5748870D01*
Y5808130D01*
M02*
