G04 ================== begin FILE IDENTIFICATION RECORD ==================*
G04 Layout Name:  pc051b_toplevel_42.brd*
G04 Film Name:    pc051a_SM1*
G04 File Format:  Gerber RS274X*
G04 File Origin:  Cadence Allegro 16.6-S035*
G04 Origin Date:  Fri Nov 20 14:16:37 2015*
G04 *
G04 Layer:  PIN/SOLDERMASK_TOP*
G04 Layer:  PACKAGE GEOMETRY/SOLDERMASK_TOP*
G04 Layer:  BOARD GEOMETRY/SOLDERMASK_TOP*
G04 *
G04 Offset:    (0.0000 0.0000)*
G04 Mirror:    No*
G04 Mode:      Positive*
G04 Rotation:  0*
G04 FullContactRelief:  No*
G04 UndefLineWidth:     0.1270*
G04 ================== end FILE IDENTIFICATION RECORD ====================*
%FSLAX35Y35*MOMM*%
%IR0*IPPOS*OFA0.00000B0.00000*MIA0B0*SFA1.00000B1.00000*%
%ADD50R,2.X.5*%
%ADD45R,.3X1.5*%
%ADD36R,.3X1.05*%
%ADD40R,1.5X.3*%
%ADD35R,1.05X.3*%
%ADD27C,.4*%
%ADD34R,.28X2.35*%
%ADD44R,1.55X.55*%
%ADD22R,10.922X6.604*%
%ADD16R,.85X.85*%
%ADD47R,1.0668X.762*%
%ADD28R,.762X1.0668*%
%ADD32O,1.4X3.2*%
%ADD55R,6.X3.*%
%ADD33O,1.4X2.6*%
%ADD46R,1.1X1.45*%
%ADD38R,1.45X1.1*%
%ADD17R,2.4X1.6*%
%ADD43R,2.55X1.1*%
%ADD14R,1.15X1.25*%
%ADD24R,1.75X1.1*%
%ADD13R,1.25X1.15*%
%ADD29R,2.032X1.27*%
%ADD15R,.3X.9*%
%ADD10C,5.*%
%ADD42R,1.8X1.55*%
%ADD31R,1.X1.*%
%ADD11C,1.7*%
%ADD18R,1.65X1.45*%
%ADD41C,1.45*%
%ADD49C,1.55*%
%ADD54R,1.45X2.95*%
%ADD48C,1.65*%
%ADD37R,4.1X4.1*%
%ADD23R,1.27X3.048*%
%ADD53R,2.95X1.45*%
%ADD21C,1.4224*%
%ADD26R,.85X.45*%
%ADD20R,2.032X3.683*%
%ADD52R,1.55X1.55*%
%ADD25C,2.286*%
%ADD51R,1.75X1.75*%
%ADD19C,1.778*%
%ADD39C,6.2484*%
%ADD30C,1.8796*%
%ADD12R,.9144X.7874*%
%ADD56C,.45*%
G75*
%LPD*%
G75*
G54D10*
X357000Y560000D03*
Y9450000D03*
G54D20*
X2960000Y1530000D03*
X2550000D03*
X2960000Y1970000D03*
X2550000D03*
X2960000Y2530000D03*
X2550000D03*
X2960000Y2970000D03*
X2550000D03*
X2960000Y3530000D03*
X2550000D03*
X2960000Y3970000D03*
X2550000D03*
X2960000Y4530000D03*
X2550000D03*
X2960000Y4970000D03*
X2550000D03*
X4350000Y1530000D03*
Y1970000D03*
Y2530000D03*
Y2970000D03*
Y3530000D03*
Y3970000D03*
Y4530000D03*
Y4970000D03*
X4760000Y1530000D03*
Y1970000D03*
Y2530000D03*
Y2970000D03*
Y3530000D03*
Y3970000D03*
Y4530000D03*
Y4970000D03*
G54D11*
X611000Y1322000D03*
Y1068000D03*
Y1576000D03*
Y2084000D03*
Y1830000D03*
Y2592000D03*
Y2338000D03*
Y2846000D03*
Y3354000D03*
Y3100000D03*
Y3862000D03*
Y3608000D03*
Y4116000D03*
Y4624000D03*
Y4370000D03*
Y5132000D03*
Y4878000D03*
Y5386000D03*
Y5894000D03*
Y5640000D03*
Y6148000D03*
Y6656000D03*
Y6402000D03*
Y7164000D03*
Y6910000D03*
Y7418000D03*
Y7926000D03*
Y7672000D03*
Y8434000D03*
Y8180000D03*
Y8688000D03*
Y8942000D03*
X1119000Y1322000D03*
Y1068000D03*
X865000Y1322000D03*
Y1068000D03*
X1119000Y1576000D03*
X865000D03*
X1119000Y2084000D03*
Y1830000D03*
X865000Y2084000D03*
Y1830000D03*
X1119000Y2592000D03*
Y2338000D03*
X865000Y2592000D03*
Y2338000D03*
X1119000Y2846000D03*
X865000D03*
X1119000Y3354000D03*
Y3100000D03*
X865000Y3354000D03*
Y3100000D03*
X1119000Y3862000D03*
Y3608000D03*
X865000Y3862000D03*
Y3608000D03*
X1119000Y4116000D03*
X865000D03*
X1119000Y4624000D03*
Y4370000D03*
X865000Y4624000D03*
Y4370000D03*
X1119000Y5132000D03*
Y4878000D03*
X865000Y5132000D03*
Y4878000D03*
X1119000Y5386000D03*
X865000D03*
X1119000Y5894000D03*
Y5640000D03*
X865000Y5894000D03*
Y5640000D03*
X1119000Y6148000D03*
X865000D03*
X1119000Y6656000D03*
Y6402000D03*
X865000Y6656000D03*
Y6402000D03*
X1119000Y7164000D03*
Y6910000D03*
X865000Y7164000D03*
Y6910000D03*
X1119000Y7418000D03*
X865000D03*
X1119000Y7926000D03*
Y7672000D03*
X865000Y7926000D03*
Y7672000D03*
X1119000Y8434000D03*
Y8180000D03*
X865000Y8434000D03*
Y8180000D03*
X1119000Y8688000D03*
X865000D03*
X1119000Y8942000D03*
X865000D03*
X9535000Y2152500D03*
Y5147500D03*
X10252500Y5635000D03*
X12247500D03*
X12735000Y2152500D03*
Y5147500D03*
G54D12*
X1911100Y6253480D03*
Y6443980D03*
X2088900Y6350000D03*
G54D30*
X7527000Y1801000D03*
X7550000Y4080000D03*
X7750000D03*
X7935000Y3994000D03*
X8144000Y3992000D03*
X8407000Y3989000D03*
X8017000Y4209000D03*
X8273000Y4183000D03*
X8740000Y430000D03*
X9113000Y4599000D03*
X9530000Y430000D03*
X10273000Y4175000D03*
X10278000Y3945000D03*
X10273000Y4389000D03*
X13750000Y4540000D03*
X13915000Y4680000D03*
G54D21*
X2755000Y5670000D03*
X4225000Y5680000D03*
X9148000Y3965000D03*
X10135000Y4700000D03*
X12105000Y4440000D03*
G54D31*
X7255000Y4290000D03*
X7105000D03*
G54D13*
X1900000Y6675000D03*
Y6825000D03*
X3180000Y6295000D03*
Y6445000D03*
X3690000Y8935000D03*
Y9085000D03*
X4670000Y6335000D03*
Y6485000D03*
X5270000Y8845000D03*
Y8995000D03*
X7060000Y6975000D03*
Y7125000D03*
X7757000Y1636000D03*
Y1786000D03*
X7750000Y4625000D03*
Y4475000D03*
X7540000Y4625000D03*
Y4475000D03*
X8350000Y7825000D03*
Y7675000D03*
X8500000Y7825000D03*
Y7675000D03*
X9015000Y4998000D03*
Y4848000D03*
X8815000Y4998000D03*
Y4848000D03*
X9015000Y5348000D03*
Y5198000D03*
X8815000Y5348000D03*
Y5198000D03*
X9100000Y7975000D03*
Y8125000D03*
G54D22*
X3109640Y8023700D03*
X4709640D03*
X6405640Y6144700D03*
G54D40*
X9465000Y2475000D03*
Y2425000D03*
Y2675000D03*
Y2825000D03*
Y2775000D03*
Y2725000D03*
Y2575000D03*
Y2525000D03*
Y2925000D03*
Y2875000D03*
Y2625000D03*
Y3075000D03*
Y3325000D03*
Y3025000D03*
Y2975000D03*
Y3225000D03*
Y3275000D03*
Y3175000D03*
Y3125000D03*
Y3575000D03*
Y3525000D03*
Y3475000D03*
Y3425000D03*
Y3375000D03*
Y3675000D03*
Y3625000D03*
Y3775000D03*
Y3725000D03*
Y4175000D03*
Y4125000D03*
Y3825000D03*
Y4075000D03*
Y3925000D03*
Y3875000D03*
Y3975000D03*
Y4025000D03*
Y4275000D03*
Y4425000D03*
Y4625000D03*
Y4225000D03*
Y4525000D03*
Y4475000D03*
Y4375000D03*
Y4325000D03*
Y4575000D03*
Y4725000D03*
Y4875000D03*
Y4775000D03*
Y4825000D03*
Y4675000D03*
X9835000Y2475000D03*
Y2425000D03*
Y2925000D03*
Y2675000D03*
Y2875000D03*
Y2825000D03*
Y2575000D03*
Y2625000D03*
Y2525000D03*
Y2775000D03*
Y2725000D03*
Y3075000D03*
Y3325000D03*
Y3175000D03*
Y3125000D03*
Y3225000D03*
Y3275000D03*
Y2975000D03*
Y3025000D03*
Y3575000D03*
Y3475000D03*
Y3525000D03*
Y3625000D03*
Y3675000D03*
Y3725000D03*
Y3775000D03*
Y3375000D03*
Y3425000D03*
Y4175000D03*
Y4025000D03*
Y3975000D03*
Y3825000D03*
Y3875000D03*
Y4075000D03*
Y4125000D03*
Y3925000D03*
Y4625000D03*
Y4275000D03*
Y4225000D03*
Y4425000D03*
Y4475000D03*
Y4375000D03*
Y4325000D03*
Y4525000D03*
Y4575000D03*
Y4775000D03*
Y4825000D03*
Y4875000D03*
Y4675000D03*
Y4725000D03*
X12665000Y2475000D03*
Y2425000D03*
Y2675000D03*
Y2925000D03*
Y2875000D03*
Y2825000D03*
Y2625000D03*
Y2575000D03*
Y2525000D03*
Y2725000D03*
Y2775000D03*
Y3175000D03*
Y3075000D03*
Y3125000D03*
Y3225000D03*
Y3275000D03*
Y2975000D03*
Y3025000D03*
Y3325000D03*
Y3425000D03*
Y3675000D03*
Y3575000D03*
Y3625000D03*
Y3725000D03*
Y3775000D03*
Y3475000D03*
Y3525000D03*
Y3375000D03*
Y4175000D03*
Y3925000D03*
Y4125000D03*
Y4075000D03*
Y4025000D03*
Y3975000D03*
Y3875000D03*
Y3825000D03*
Y4475000D03*
Y4425000D03*
Y4325000D03*
Y4375000D03*
Y4225000D03*
Y4275000D03*
Y4575000D03*
Y4525000D03*
Y4625000D03*
Y4725000D03*
Y4775000D03*
Y4825000D03*
Y4875000D03*
Y4675000D03*
X13035000Y2475000D03*
Y2425000D03*
Y2575000D03*
Y2525000D03*
Y2925000D03*
Y2775000D03*
Y2725000D03*
Y2825000D03*
Y2875000D03*
Y2675000D03*
Y2625000D03*
Y3175000D03*
Y3025000D03*
Y2975000D03*
Y3325000D03*
Y3225000D03*
Y3275000D03*
Y3075000D03*
Y3125000D03*
Y3425000D03*
Y3675000D03*
Y3475000D03*
Y3525000D03*
Y3725000D03*
Y3775000D03*
Y3375000D03*
Y3575000D03*
Y3625000D03*
Y3925000D03*
Y3825000D03*
Y3875000D03*
Y4075000D03*
Y4125000D03*
Y3975000D03*
Y4025000D03*
Y4175000D03*
Y4625000D03*
Y4575000D03*
Y4525000D03*
Y4475000D03*
Y4325000D03*
Y4375000D03*
Y4225000D03*
Y4275000D03*
Y4425000D03*
Y4675000D03*
Y4725000D03*
Y4825000D03*
Y4875000D03*
Y4775000D03*
G54D23*
X2769280Y8900000D03*
X2939460D03*
X3109640D03*
X3279820D03*
X3450000D03*
X4369280D03*
X4539460D03*
X4709640D03*
X4879820D03*
X5050000D03*
X6065280Y7021000D03*
X6235460D03*
X6405640D03*
X6575820D03*
X6746000D03*
G54D41*
X9735000Y2300000D03*
Y5000000D03*
X10400000Y5835000D03*
X12100000D03*
X12935000Y2300000D03*
Y5000000D03*
G54D14*
X1825000Y8200000D03*
X1675000D03*
X1825000Y8400000D03*
X1675000D03*
X2175000Y6800000D03*
X2325000D03*
X2775000Y5850000D03*
X2675000Y6800000D03*
X2825000D03*
X3175000Y1430000D03*
Y1610000D03*
Y2050000D03*
Y1870000D03*
Y2430000D03*
Y2870000D03*
Y2610000D03*
Y3050000D03*
Y3430000D03*
Y3610000D03*
Y4050000D03*
Y3870000D03*
Y4610000D03*
Y4430000D03*
Y5050000D03*
Y4870000D03*
X2925000Y5850000D03*
X3325000Y1430000D03*
Y1610000D03*
X3555000Y1430000D03*
X3705000D03*
X3555000Y1610000D03*
X3705000D03*
X3325000Y2050000D03*
Y1870000D03*
X3555000Y2050000D03*
X3705000D03*
X3555000Y1870000D03*
X3705000D03*
X3325000Y2430000D03*
X3555000D03*
X3705000D03*
X3325000Y2870000D03*
Y2610000D03*
X3555000D03*
X3705000D03*
X3555000Y2870000D03*
X3705000D03*
X3325000Y3050000D03*
X3555000D03*
X3705000D03*
X3325000Y3430000D03*
Y3610000D03*
X3555000Y3430000D03*
X3705000D03*
X3555000Y3610000D03*
X3705000D03*
X3325000Y4050000D03*
Y3870000D03*
X3555000D03*
X3705000D03*
X3555000Y4050000D03*
X3705000D03*
X3325000Y4610000D03*
Y4430000D03*
X3555000Y4610000D03*
X3705000D03*
X3555000Y4430000D03*
X3705000D03*
X3325000Y5050000D03*
Y4870000D03*
X3555000Y5050000D03*
X3705000D03*
X3555000Y4870000D03*
X3705000D03*
X3575000Y6800000D03*
X3725000D03*
X4375000Y5850000D03*
X4225000D03*
X4975000Y1430000D03*
Y1610000D03*
Y2050000D03*
Y1870000D03*
Y2430000D03*
Y2870000D03*
Y2610000D03*
Y3050000D03*
Y3430000D03*
Y3610000D03*
Y4050000D03*
Y3870000D03*
Y4430000D03*
Y4610000D03*
Y5050000D03*
Y4870000D03*
X5125000Y1430000D03*
X5355000D03*
Y1610000D03*
X5125000D03*
Y2050000D03*
X5355000D03*
Y1870000D03*
X5125000D03*
Y2430000D03*
X5355000D03*
Y2610000D03*
Y2870000D03*
X5125000D03*
Y2610000D03*
Y3050000D03*
X5355000D03*
X5125000Y3430000D03*
X5355000D03*
Y3610000D03*
X5125000D03*
Y4050000D03*
X5355000Y3870000D03*
Y4050000D03*
X5125000Y3870000D03*
Y4430000D03*
X5355000Y4610000D03*
Y4430000D03*
X5125000Y4610000D03*
Y5050000D03*
X5355000D03*
Y4870000D03*
X5125000D03*
X5505000Y1430000D03*
Y1610000D03*
Y2050000D03*
Y1870000D03*
Y2430000D03*
Y2610000D03*
Y2870000D03*
Y3050000D03*
Y3430000D03*
Y3610000D03*
Y3870000D03*
Y4050000D03*
Y4610000D03*
Y4430000D03*
Y5050000D03*
Y4870000D03*
X6095000Y9459000D03*
X6245000D03*
X6975000Y2470000D03*
X7125000D03*
X7695000Y2430000D03*
X7845000D03*
X7695000Y2280000D03*
X7845000D03*
X8179000Y8447000D03*
X8329000D03*
Y8293000D03*
X8179000D03*
X8730000Y5752000D03*
Y5595000D03*
X8625000Y8450000D03*
X8475000D03*
X8472000Y8293000D03*
X8622000D03*
X8880000Y5752000D03*
Y5595000D03*
X9525000Y7200000D03*
Y6950000D03*
X10025000Y6450000D03*
X9675000Y7200000D03*
Y6950000D03*
X10175000Y6450000D03*
X10835000Y6959000D03*
X10685000D03*
X11869000Y6115000D03*
X12019000D03*
G54D32*
X7475000Y8862000D03*
X8925000D03*
G54D50*
X12240000Y6920500D03*
Y7000500D03*
Y7080500D03*
Y7160500D03*
Y7240500D03*
Y7320500D03*
Y7400500D03*
Y7480500D03*
Y7560500D03*
Y7640500D03*
Y8670500D03*
Y8750500D03*
Y8830500D03*
Y8910500D03*
Y8990500D03*
Y9070500D03*
Y9150500D03*
Y9230500D03*
Y9310500D03*
Y9390500D03*
X13060000Y7120500D03*
Y7040500D03*
Y6960500D03*
Y7520500D03*
Y7440500D03*
Y7360500D03*
Y7280500D03*
Y7200500D03*
Y7680500D03*
Y7600500D03*
Y8790500D03*
Y8710500D03*
Y9190500D03*
Y9110500D03*
Y9030500D03*
Y8950500D03*
Y8870500D03*
Y9430500D03*
Y9350500D03*
Y9270500D03*
G54D51*
X12240000Y8012500D03*
Y9762500D03*
X13240000Y8012500D03*
Y9762500D03*
X13740000Y6587500D03*
Y7155500D03*
Y7695500D03*
Y8337500D03*
Y8905500D03*
Y9445500D03*
X14240000Y8012500D03*
Y9762500D03*
X14740000Y6587500D03*
Y8337500D03*
X15240000Y8012500D03*
Y9762500D03*
X15740000Y6587500D03*
Y7445500D03*
Y8337500D03*
Y9195500D03*
G54D42*
X9980000Y6696000D03*
Y6950000D03*
Y7204000D03*
X10420000Y6696000D03*
Y7204000D03*
Y6950000D03*
G54D15*
X2400000Y5905000D03*
Y6195000D03*
X2600000Y5905000D03*
X2550000D03*
X2500000D03*
X2450000D03*
Y6195000D03*
X2500000D03*
X2550000D03*
X2600000D03*
X4050000Y5905000D03*
X4000000D03*
X3950000D03*
X3900000D03*
X3850000D03*
Y6195000D03*
X3900000D03*
X3950000D03*
X4000000D03*
X4050000D03*
G54D24*
X2662500Y9230000D03*
Y9370000D03*
X2937500Y9230000D03*
Y9370000D03*
X4262500Y9230000D03*
X4537500D03*
X4262500Y9370000D03*
X4537500D03*
X5958500Y7491000D03*
X6233500D03*
X5958500Y7351000D03*
X6233500D03*
G54D33*
X7475000Y9459000D03*
X8925000D03*
G54D25*
X6026000Y8511000D03*
X6534000D03*
X10000000Y8363000D03*
X10100000Y9646000D03*
X11250000Y8363000D03*
X11350000Y9646000D03*
G54D52*
X12740000Y6587500D03*
Y8337500D03*
G54D43*
X10000000Y8638000D03*
Y8765000D03*
Y8892000D03*
Y9019000D03*
Y9146000D03*
Y9273000D03*
Y9400000D03*
X11250000Y8638000D03*
Y8765000D03*
Y8892000D03*
Y9019000D03*
Y9146000D03*
Y9273000D03*
Y9400000D03*
G54D16*
X2200000Y5855000D03*
Y5945000D03*
X2750000Y6305000D03*
Y6395000D03*
X2900000Y6305000D03*
Y6395000D03*
X3650000Y5855000D03*
Y5945000D03*
X4200000Y6305000D03*
X4350000D03*
X4200000Y6395000D03*
X4350000D03*
X6575000Y2480000D03*
X6485000D03*
X6635000Y4030000D03*
X6545000D03*
X6805000Y2460000D03*
X6715000D03*
X6945000Y4030000D03*
X6855000D03*
X8550000Y6545000D03*
Y6455000D03*
X9005000Y7000000D03*
X9095000D03*
X8800000Y7415000D03*
Y7505000D03*
X9745000Y6700000D03*
X9655000D03*
X10405000Y9150000D03*
Y9300000D03*
X10755000Y8750000D03*
X10845000D03*
X10495000Y9150000D03*
X10755000Y8900000D03*
X10845000D03*
X10495000Y9300000D03*
X11750000Y6695000D03*
Y6605000D03*
Y7855000D03*
Y7945000D03*
Y8445000D03*
Y8355000D03*
Y9605000D03*
Y9695000D03*
G54D34*
X7900000Y8800000D03*
X7850000D03*
X7800000D03*
X7750000D03*
X8300000D03*
X8250000D03*
X8200000D03*
X8150000D03*
X8100000D03*
X8050000D03*
X8000000D03*
X7950000D03*
X8650000D03*
X8600000D03*
X8550000D03*
X8500000D03*
X8450000D03*
X8400000D03*
X8350000D03*
G54D26*
X6389000Y9337000D03*
Y9467000D03*
X6599000D03*
Y9402000D03*
Y9337000D03*
G54D53*
X13324000Y5093000D03*
Y4793000D03*
G54D17*
X2500000Y6050000D03*
X3950000D03*
G54D44*
X10570000Y359500D03*
Y486500D03*
Y613500D03*
Y740500D03*
X11330000Y359500D03*
Y740500D03*
Y613500D03*
Y486500D03*
G54D35*
X8265000Y6800000D03*
Y6850000D03*
Y6900000D03*
Y6950000D03*
Y7000000D03*
Y7050000D03*
Y7100000D03*
Y7150000D03*
Y7200000D03*
X8835000Y7150000D03*
Y7100000D03*
Y7050000D03*
Y7000000D03*
Y6950000D03*
Y6900000D03*
Y6850000D03*
Y6800000D03*
Y7200000D03*
G54D54*
X13174000Y5361000D03*
X13474000D03*
G54D18*
X2300000Y6410000D03*
Y6590000D03*
X2400000Y8810000D03*
Y8990000D03*
X2550000Y6410000D03*
Y6590000D03*
X3300000Y9310000D03*
Y9490000D03*
X3750000Y6410000D03*
Y6590000D03*
X4000000Y6410000D03*
Y6590000D03*
Y8810000D03*
Y8990000D03*
X4900000Y9310000D03*
Y9490000D03*
X5778000Y7086000D03*
Y6906000D03*
X6596000Y7431000D03*
Y7611000D03*
G54D27*
X7010000Y2730000D03*
X6930000D03*
X6850000D03*
X6770000D03*
X6690000D03*
X7010000Y2810000D03*
X6930000D03*
X6850000D03*
X6770000D03*
X6690000D03*
X7010000Y2890000D03*
X6930000D03*
X6850000D03*
X6770000D03*
X6690000D03*
X7010000Y2970000D03*
X6930000D03*
X6850000D03*
X6770000D03*
X6690000D03*
X7010000Y3050000D03*
X6930000D03*
X6850000D03*
X6770000D03*
X6690000D03*
X7010000Y3130000D03*
X6930000D03*
X6850000D03*
X6770000D03*
X6690000D03*
X7010000Y3210000D03*
X6930000D03*
X6850000D03*
X6770000D03*
X6690000D03*
X7010000Y3290000D03*
X6930000D03*
X6850000D03*
X6770000D03*
X6690000D03*
X7010000Y3370000D03*
X6930000D03*
X6850000D03*
X6770000D03*
X6690000D03*
X7010000Y3450000D03*
X6930000D03*
X6850000D03*
X6770000D03*
X6690000D03*
X7010000Y3530000D03*
X6930000D03*
X6850000D03*
X6770000D03*
X6690000D03*
X7010000Y3610000D03*
X6930000D03*
X6850000D03*
X6770000D03*
X6690000D03*
X7010000Y3690000D03*
X6930000D03*
X6850000D03*
X6770000D03*
X6690000D03*
X7010000Y3770000D03*
X6930000D03*
X6850000D03*
X6770000D03*
X6690000D03*
X7410000Y2730000D03*
X7330000D03*
X7250000D03*
X7170000D03*
X7090000D03*
X7410000Y2810000D03*
X7330000D03*
X7250000D03*
X7170000D03*
X7090000D03*
X7410000Y2890000D03*
X7330000D03*
X7250000D03*
X7170000D03*
X7090000D03*
X7410000Y2970000D03*
X7330000D03*
X7250000D03*
X7170000D03*
X7090000D03*
X7410000Y3050000D03*
X7330000D03*
X7250000D03*
X7170000D03*
X7090000D03*
X7410000Y3130000D03*
X7330000D03*
X7250000D03*
X7170000D03*
X7090000D03*
X7410000Y3210000D03*
X7330000D03*
X7250000D03*
X7170000D03*
X7090000D03*
X7410000Y3290000D03*
X7330000D03*
X7250000D03*
X7170000D03*
X7090000D03*
X7410000Y3370000D03*
X7330000D03*
X7250000D03*
X7170000D03*
X7090000D03*
X7410000Y3450000D03*
X7330000D03*
X7250000D03*
X7170000D03*
X7090000D03*
X7410000Y3530000D03*
X7330000D03*
X7250000D03*
X7170000D03*
X7090000D03*
X7410000Y3610000D03*
X7330000D03*
X7250000D03*
X7170000D03*
X7090000D03*
X7410000Y3690000D03*
X7330000D03*
X7250000D03*
X7170000D03*
X7090000D03*
X7410000Y3770000D03*
X7330000D03*
X7250000D03*
X7170000D03*
X7090000D03*
G54D36*
X8750000Y6715000D03*
X8700000D03*
X8650000D03*
X8600000D03*
X8550000D03*
X8500000D03*
X8450000D03*
X8400000D03*
X8350000D03*
Y7285000D03*
X8400000D03*
X8450000D03*
X8500000D03*
X8550000D03*
X8600000D03*
X8650000D03*
X8700000D03*
X8750000D03*
G54D45*
X10825000Y5935000D03*
X10675000D03*
X10725000D03*
X10825000Y5565000D03*
X10675000D03*
X10725000D03*
X10775000D03*
X10625000D03*
X10775000Y5935000D03*
X10625000D03*
X10575000D03*
X10525000D03*
X10575000Y5565000D03*
X10525000D03*
X11125000Y5935000D03*
X11175000D03*
X10975000D03*
X11025000D03*
X10875000D03*
X11125000Y5565000D03*
X11175000D03*
X10975000D03*
X11025000D03*
X10875000D03*
X11275000Y5935000D03*
X11225000D03*
X11075000D03*
X10925000D03*
X11225000Y5565000D03*
X11075000D03*
X10925000D03*
X11275000D03*
X11325000Y5935000D03*
X11625000D03*
X11375000D03*
X11625000Y5565000D03*
X11375000D03*
X11325000D03*
X11675000Y5935000D03*
Y5565000D03*
X11475000D03*
X11425000D03*
X11575000Y5935000D03*
X11525000D03*
X11475000D03*
X11425000D03*
X11575000Y5565000D03*
X11525000D03*
X11725000Y5935000D03*
X11825000D03*
X11775000D03*
X11725000Y5565000D03*
X11775000D03*
X11825000D03*
X11975000Y5935000D03*
X11925000D03*
X11975000Y5565000D03*
X11925000D03*
X11875000Y5935000D03*
Y5565000D03*
G54D19*
X2400000Y9600000D03*
X2908000D03*
X2654000D03*
X4000000D03*
X4508000D03*
X4254000D03*
X5696000Y7721000D03*
X6204000D03*
X5950000D03*
X8242000Y6150000D03*
X8292000Y8050000D03*
X8496000Y6150000D03*
X8750000D03*
X8546000Y8050000D03*
X8800000D03*
X9300000Y6700000D03*
Y7208000D03*
Y6954000D03*
X11280000Y6704000D03*
Y6450000D03*
Y6958000D03*
X11438000Y7616000D03*
Y7362000D03*
Y7870000D03*
X13470000Y560000D03*
Y760000D03*
X13670000Y560000D03*
Y760000D03*
X13870000Y560000D03*
Y760000D03*
X14070000Y560000D03*
Y760000D03*
X14270000Y560000D03*
Y760000D03*
X14470000Y560000D03*
Y760000D03*
X14670000Y560000D03*
Y760000D03*
X15100000Y1336000D03*
Y1590000D03*
Y1844000D03*
Y2098000D03*
Y2352000D03*
Y2606000D03*
Y2860000D03*
Y3114000D03*
Y3368000D03*
Y3622000D03*
Y3876000D03*
Y4130000D03*
Y4384000D03*
Y4638000D03*
Y4892000D03*
Y5146000D03*
Y5400000D03*
X15354000Y1336000D03*
Y1590000D03*
Y1844000D03*
Y2098000D03*
Y2352000D03*
Y2606000D03*
Y2860000D03*
Y3114000D03*
Y3368000D03*
Y3622000D03*
Y3876000D03*
Y4130000D03*
Y4384000D03*
Y4638000D03*
Y4892000D03*
Y5146000D03*
Y5400000D03*
G54D37*
X8550000Y7000000D03*
G54D46*
X10656000Y6758000D03*
X10836000D03*
G54D55*
X13891000Y4971000D03*
Y5471000D03*
G54D28*
X7500000Y640500D03*
Y490000D03*
X7580000Y640500D03*
X7660000D03*
X7740000D03*
Y490000D03*
X7660000D03*
X7580000D03*
G54D56*
G01X8490000Y3057000D02*
G03I22000J-5820D01*
G01X8446000Y2990000D02*
G03I22000J-5820D01*
G01X8365000Y3012180D02*
G03I22000J-5820D01*
G01X8415000Y3813000D02*
G03I22000J-5820D01*
G01X8524000Y3818000D02*
G03I22000J-5820D01*
G01X8620000Y3746920D02*
G03I22000J-5820D01*
G01X9121760Y3368180D02*
G03I-22760J0D01*
G01X8866760Y3336180D02*
G03I-22760J0D01*
G01X9201760Y3468180D02*
G03I-22760J0D01*
G54D29*
X7500000Y920000D03*
Y1240000D03*
X7200000Y920000D03*
Y1240000D03*
X7800000Y920000D03*
Y1240000D03*
X8150000Y920000D03*
Y1240000D03*
G54D38*
X9000000Y7510000D03*
Y7690000D03*
X11750000Y6910000D03*
Y7090000D03*
Y7460000D03*
Y7640000D03*
Y8660000D03*
Y8840000D03*
Y9210000D03*
Y9390000D03*
G54D47*
X11649500Y400000D03*
Y480000D03*
Y560000D03*
Y640000D03*
X11800000Y400000D03*
Y640000D03*
Y560000D03*
Y480000D03*
G54D39*
X9550000Y1450000D03*
Y5850000D03*
X12950000Y1450000D03*
Y5850000D03*
G54D48*
X12030000Y6820500D03*
Y7300500D03*
Y7780500D03*
Y8570500D03*
Y9050500D03*
Y9530500D03*
X12490000Y6587500D03*
Y8012500D03*
Y8337500D03*
Y9762500D03*
X12990000Y6587500D03*
Y8012500D03*
Y8337500D03*
Y9762500D03*
X13460000Y6587500D03*
Y8012500D03*
Y8337500D03*
Y9762500D03*
G54D49*
X12650000Y6820500D03*
Y7780500D03*
Y8570500D03*
Y9530500D03*
M02*
