G04 ================== begin FILE IDENTIFICATION RECORD ==================*
G04 Layout Name:  pc051b_toplevel_42.brd*
G04 Film Name:    pc051a_L5*
G04 File Format:  Gerber RS274X*
G04 File Origin:  Cadence Allegro 16.6-S035*
G04 Origin Date:  Fri Nov 20 14:16:37 2015*
G04 *
G04 Layer:  VIA CLASS/L5*
G04 Layer:  PIN/L5*
G04 Layer:  ETCH/L5*
G04 *
G04 Offset:    (0.0000 0.0000)*
G04 Mirror:    No*
G04 Mode:      Positive*
G04 Rotation:  0*
G04 FullContactRelief:  No*
G04 UndefLineWidth:     0.1270*
G04 ================== end FILE IDENTIFICATION RECORD ====================*
%FSLAX35Y35*MOMM*%
%IR0*IPPOS*OFA0.00000B0.00000*MIA0B0*SFA1.00000B1.00000*%
%ADD16C,.5*%
%ADD12C,.8128*%
%ADD13C,.6096*%
%ADD18O,1.4X3.2*%
%ADD19O,1.4X2.6*%
%ADD21C,1.*%
%ADD10C,5.*%
%ADD15C,2.032*%
%ADD11C,1.7*%
%ADD24C,1.55*%
%ADD22C,1.65*%
%ADD14C,1.524*%
%ADD23C,1.75*%
%ADD20C,5.842*%
%ADD17C,1.6256*%
%ADD25C,.203*%
%ADD26C,.23*%
%ADD29C,.864*%
%ADD36C,.7544*%
%ADD42C,2.1044*%
%ADD35C,2.18*%
%ADD39C,2.2044*%
%ADD41C,2.3044*%
%ADD28C,1.0672*%
%ADD27C,2.2544*%
%ADD38C,2.1564*%
%ADD40C,2.2564*%
%ADD30C,1.3672*%
%ADD33C,2.0784*%
%ADD31O,1.9544X3.1544*%
%ADD34C,2.5864*%
%ADD37C,6.3964*%
%ADD32O,1.9544X3.7544*%
G75*
%LPD*%
G75*
G36*
G01X100000Y100000D02*
Y411860D01*
G02X118870Y417090I10159J2D01*
G03Y702910I238130J142910D01*
G02X100000Y708140I-8711J5228D01*
G01Y6587280D01*
X521650D01*
G03X700350I89350J68720D01*
G01X775650D01*
G03X954350I89350J68720D01*
G01X1029650D01*
G03X1208350I89350J68720D01*
G01X2096520D01*
X2097120Y6582880D01*
G03X2202880I52880J7120D01*
G01X2203480Y6587280D01*
X2656520D01*
X2657120Y6582880D01*
G03X2762880I52880J7120D01*
G01X2763480Y6587280D01*
X3550100D01*
G02X3556480Y6569220I-6J-10159D01*
G03X3623520I33520J-41520D01*
G02X3629900Y6587280I6386J7901D01*
G01X5654640D01*
G03X5737360I41360J33720D01*
G01X5867280D01*
Y100000D01*
X3853770D01*
Y325270D01*
X2937130D01*
Y100000D01*
X100000D01*
G37*
G36*
G01X8515720D02*
Y2132720D01*
X8132720D01*
Y3872850D01*
G02X8142980Y3883000I10158J-8D01*
G03Y4101000I1020J109000D01*
G02X8132720Y4111150I-102J10158D01*
G01Y4732720D01*
X7807440D01*
G02X7798250Y4747220I-3J10161D01*
G03X7738980Y4822210I-48252J22781D01*
G02X7726720Y4832150I-2100J9940D01*
G01Y5164650D01*
G02X7742230Y5173290I10160J2D01*
G03Y5246710I22770J36710D01*
G02X7726720Y5255350I-5350J8638D01*
G01Y5419550D01*
X7145490Y6000790D01*
X7146510Y6003780D01*
G03X7078780Y6071510I-50510J17220D01*
G01X7075790Y6070490D01*
X5613550Y7532720D01*
X5442150D01*
G03X5357850I-42150J-32720D01*
G01X3842150D01*
G03X3832720Y7542150I-42150J-32720D01*
G01Y7657850D01*
G03Y7742150I-32720J42150D01*
G01Y7857850D01*
G03Y7942150I-32720J42150D01*
G01Y8057850D01*
G03Y8142150I-32720J42150D01*
G01Y8257850D01*
G03Y8342150I-32720J42150D01*
G01Y8457850D01*
G03Y8542150I-32720J42150D01*
G01Y9132720D01*
X3163020D01*
X3162340Y9137000D01*
G03X3056940I-52700J-8360D01*
G01X3056260Y9132720D01*
X2167280D01*
Y6653120D01*
G02X2155980Y6643020I-10161J-3D01*
G03X2105870Y6620000I-5985J-53023D01*
G01X1239130D01*
G02X1229200Y6632300I2J10160D01*
G03X1008800I-110200J23700D01*
G02X998870Y6620000I-9932J-2140D01*
G01X985130D01*
G02X975200Y6632300I2J10160D01*
G03X754800I-110200J23700D01*
G02X744870Y6620000I-9932J-2140D01*
G01X731130D01*
G02X721200Y6632300I2J10160D01*
G03X500800I-110200J23700D01*
G02X490870Y6620000I-9932J-2140D01*
G01X100000D01*
Y9301860D01*
G02X118870Y9307090I10159J2D01*
G03Y9592910I238130J142910D01*
G02X100000Y9598140I-8711J5228D01*
G01Y9900000D01*
X15900000D01*
Y100000D01*
X8515720D01*
G37*
G36*
G01X7200000D02*
Y2882120D01*
G02X7210130Y2892280I10160J0D01*
G03X7230730Y2961510I-132J37719D01*
G02Y2978490I5585J8490D01*
G03Y3041510I-20730J31510D01*
G02Y3058490I5585J8490D01*
G03X7241510Y3069270I-20730J31510D01*
G02X7258490I8490J-5585D01*
G03Y3110730I31510J20730D01*
G02X7241510I-8490J5585D01*
G03X7230730Y3121510I-31510J-20730D01*
G02Y3138490I5585J8490D01*
G03Y3201510I-20730J31510D01*
G02Y3218490I5585J8490D01*
G03Y3281510I-20730J31510D01*
G02Y3298490I5585J8490D01*
G03X7241510Y3309270I-20730J31510D01*
G02X7258490I8490J-5585D01*
G03X7310730Y3361510I31510J20730D01*
G02Y3378490I5585J8490D01*
G03X7258490Y3430730I-20730J31510D01*
G02X7241510I-8490J5585D01*
G03X7210130Y3447720I-31513J-20729D01*
G02X7200000Y3457880I30J10160D01*
G01Y5300000D01*
X5900000D01*
Y6620000D01*
X5749560D01*
X5749230Y6624730D01*
G03X5642770I-53230J-3730D01*
G01X5642440Y6620000D01*
X3939380D01*
G02X3933080Y6638130I-1J10159D01*
G03X3866920I-33080J41870D01*
G02X3860620Y6620000I-6299J-7971D01*
G01X3649470D01*
G02X3641560Y6636530I3J10159D01*
G03X3558440I-41560J33470D01*
G02X3550530Y6620000I-7913J-6371D01*
G01X2754130D01*
G03X2665870I-44130J-30000D01*
G01X2200000D01*
Y9100000D01*
X3064620D01*
G03X3154660I45020J28640D01*
G01X3800000D01*
Y8553360D01*
G03Y8446640I0J-53360D01*
G01Y8353360D01*
G03Y8246640I0J-53360D01*
G01Y8153360D01*
G03Y8046640I0J-53360D01*
G01Y7953360D01*
G03Y7846640I0J-53360D01*
G01Y7753360D01*
G03Y7646640I0J-53360D01*
G01Y7553360D01*
G03X3853160Y7495360I0J-53362D01*
G01X3853560Y7500000D01*
X5346440D01*
X5346840Y7495360D01*
G03X5453160I53160J4640D01*
G01X5453560Y7500000D01*
X5600000D01*
X5708520Y7391480D01*
G02X5700480Y7374170I-7183J-7186D01*
G03X5749170Y7325480I-4480J-53170D01*
G02X5766480Y7333520I10124J857D01*
G01X7050740Y6049260D01*
G03X7124260Y5975740I45260J-28260D01*
G01X7694000Y5406000D01*
Y4700000D01*
X8100000D01*
Y4303300D01*
G02X8083630Y4295260I-10161J3D01*
G03Y4122740I-66630J-86260D01*
G02X8100000Y4114700I6209J-8043D01*
G01Y4091720D01*
G03X8048910Y4045280I43996J-99724D01*
G02X8031090Y4045450I-8863J4968D01*
G03X7874140Y4084430I-96093J-51449D01*
G02X7858360Y4091760I-5679J8425D01*
G03X7658530Y4139280I-108362J-11762D01*
G02X7641470I-8530J5520D01*
G03Y4020720I-91470J-59280D01*
G02X7658530I8530J-5520D01*
G03X7810860Y3989570I91472J59279D01*
G02X7826640Y3982240I5679J-8425D01*
G03X8030090Y3940720I108362J11762D01*
G02X8047910Y3940550I8863J-4968D01*
G03X8100000Y3892280I96089J51452D01*
G01Y2100000D01*
X8483000D01*
Y100000D01*
X7200000D01*
G37*
G36*
G01X5900000D02*
Y5267280D01*
X7167280D01*
Y3849460D01*
G02X7151370Y3841090I-10158J2D01*
G03X7104470Y3837770I-21367J-31088D01*
G02X7087490Y3844130I-6881J7475D01*
G03X7012510I-37490J-4130D01*
G02X6995530Y3837770I-10099J1115D01*
G03X6938490Y3830730I-25527J-27770D01*
G02X6921510I-8490J5585D01*
G03X6858490I-31510J-20730D01*
G02X6841510I-8490J5585D01*
G03X6778490I-31510J-20730D01*
G02X6761510I-8490J5585D01*
G03X6698490I-31510J-20730D01*
G02X6681510I-8490J5585D01*
G03Y3789270I-31510J-20730D01*
G02X6698490I8490J-5585D01*
G03X6761510I31510J20730D01*
G02X6778490I8490J-5585D01*
G03X6841510I31510J20730D01*
G02X6858490I8490J-5585D01*
G03X6869270Y3778490I31510J20730D01*
G02Y3761510I-5585J-8490D01*
G03Y3698490I20730J-31510D01*
G02Y3681510I-5585J-8490D01*
G03X6858490Y3670730I20730J-31510D01*
G02X6841510I-8490J5585D01*
G03X6789270Y3618490I-31510J-20730D01*
G02Y3601510I-5585J-8490D01*
G03X6830730I20730J-31510D01*
G02Y3618490I5585J8490D01*
G03X6841510Y3629270I-20730J31510D01*
G02X6858490I8490J-5585D01*
G03X6921510I31510J20730D01*
G02X6938490I8490J-5585D01*
G03X6949270Y3618490I31510J20730D01*
G02Y3601510I-5585J-8490D01*
G03X6990730I20730J-31510D01*
G02Y3618490I5585J8490D01*
G03Y3681510I-20730J31510D01*
G02Y3698490I5585J8490D01*
G03Y3761510I-20730J31510D01*
G02Y3778490I5585J8490D01*
G03X7007490Y3805870I-20731J31510D01*
G02X7024470Y3812230I10099J-1115D01*
G03X7075530I25530J27770D01*
G02X7092510Y3805870I6881J-7475D01*
G03X7109270Y3778490I37491J4130D01*
G02Y3761510I-5585J-8490D01*
G03X7151370Y3698910I20732J-31514D01*
G02X7167280Y3690540I5752J-8372D01*
G01Y3609460D01*
G02X7151370Y3601090I-10158J2D01*
G03X7109270Y3538490I-21368J-31086D01*
G02Y3521510I-5585J-8490D01*
G03X7151370Y3458910I20732J-31514D01*
G02X7167280Y3450540I5752J-8372D01*
G01Y3049460D01*
G02X7151370Y3041090I-10158J2D01*
G03X7098490Y3030730I-21364J-31088D01*
G02X7081510I-8490J5585D01*
G03X7070730Y3041510I-31510J-20730D01*
G02Y3058490I5585J8490D01*
G03Y3121510I-20730J31510D01*
G02Y3138490I5585J8490D01*
G03Y3201510I-20730J31510D01*
G02Y3218490I5585J8490D01*
G03Y3281510I-20730J31510D01*
G02Y3298490I5585J8490D01*
G03Y3361510I-20730J31510D01*
G02Y3378490I5585J8490D01*
G03X7018490Y3430730I-20730J31510D01*
G02X7001510I-8490J5585D01*
G03X6949270Y3378490I-31510J-20730D01*
G02Y3361510I-5585J-8490D01*
G03X6938490Y3350730I20730J-31510D01*
G02X6921510I-8490J5585D01*
G03X6858490I-31510J-20730D01*
G02X6841510I-8490J5585D01*
G03X6830730Y3361510I-31510J-20730D01*
G02Y3378490I5585J8490D01*
G03X6778490Y3430730I-20730J31510D01*
G02X6761510I-8490J5585D01*
G03Y3389270I-31510J-20730D01*
G02X6778490I8490J-5585D01*
G03X6789270Y3378490I31510J20730D01*
G02Y3361510I-5585J-8490D01*
G03Y3298490I20730J-31510D01*
G02Y3281510I-5585J-8490D01*
G03Y3218490I20730J-31510D01*
G02Y3201510I-5585J-8490D01*
G03X6841510Y3149270I20730J-31510D01*
G02X6858490I8490J-5585D01*
G03X6921510I31510J20730D01*
G02X6938490I8490J-5585D01*
G03X6949270Y3138490I31510J20730D01*
G02Y3121510I-5585J-8490D01*
G03Y3058490I20730J-31510D01*
G02Y3041510I-5585J-8490D01*
G03X7001510Y2989270I20730J-31510D01*
G02X7018490I8490J-5585D01*
G03X7029270Y2978490I31510J20730D01*
G02Y2961510I-5585J-8490D01*
G03Y2898490I20730J-31510D01*
G02Y2881510I-5585J-8490D01*
G03Y2818490I20730J-31510D01*
G02Y2801510I-5585J-8490D01*
G03X7081510Y2749270I20730J-31510D01*
G02X7098490I8490J-5585D01*
G03X7109270Y2738490I31510J20730D01*
G02Y2721510I-5585J-8490D01*
G03X7151370Y2658910I20732J-31514D01*
G02X7167280Y2650540I5752J-8372D01*
G01Y100000D01*
X5900000D01*
G37*
%LPC*%
G75*
G36*
G01X10041990Y525090D02*
G03X10000910Y484010I50010J-91090D01*
G02X9983090I-8910J4892D01*
G03X9942010Y525090I-91090J-50010D01*
G02Y542910I4892J8910D01*
G03X9983090Y583990I-50010J91090D01*
G02X10000910I8910J-4892D01*
G03X10041990Y542910I91090J50010D01*
G02Y525090I-4892J-8910D01*
G37*
G36*
G01X9841990D02*
G03X9800910Y484010I50010J-91090D01*
G02X9783090I-8910J4892D01*
G03X9742010Y525090I-91090J-50010D01*
G02Y542910I4892J8910D01*
G03X9783090Y583990I-50010J91090D01*
G02X9800910I8910J-4892D01*
G03X9841990Y542910I91090J50010D01*
G02Y525090I-4892J-8910D01*
G37*
G36*
G01X9441990D02*
G03X9400910Y484010I50010J-91090D01*
G02X9383090I-8910J4892D01*
G03X9342010Y525090I-91090J-50010D01*
G02Y542910I4892J8910D01*
G03X9383090Y583990I-50010J91090D01*
G02X9400910I8910J-4892D01*
G03X9441990Y542910I91090J50010D01*
G02Y525090I-4892J-8910D01*
G37*
G36*
G01X9241990D02*
G03X9200910Y484010I50010J-91090D01*
G02X9183090I-8910J4892D01*
G03X9142010Y525090I-91090J-50010D01*
G02Y542910I4892J8910D01*
G03X9183090Y583990I-50010J91090D01*
G02X9200910I8910J-4892D01*
G03X9241990Y542910I91090J50010D01*
G02Y525090I-4892J-8910D01*
G37*
G36*
G01X9041990D02*
G03X9000910Y484010I50010J-91090D01*
G02X8983090I-8910J4892D01*
G03X8942010Y525090I-91090J-50010D01*
G02Y542910I4892J8910D01*
G03X8983090Y583990I-50010J91090D01*
G02X9000910I8910J-4892D01*
G03X9041990Y542910I91090J50010D01*
G02Y525090I-4892J-8910D01*
G37*
G36*
G01X13361840Y9712370D02*
G03X13343650Y9712180I-9048J-4622D01*
G02Y9812820I-103650J50320D01*
G03X13361840Y9812630I9142J4432D01*
G02Y9712370I98160J-50130D01*
G37*
G36*
G01X11973420Y9258120D02*
G03X11963170Y9248350I-99J-10158D01*
G02X11920420Y9293200I-43170J1651D01*
G03X11930670Y9302970I99J10158D01*
G02X11973420Y9258120I43170J-1651D01*
G37*
G36*
G01X11872320Y8686340D02*
G03X11869500Y8701970I-7644J6690D01*
G02X11922510Y8711550I20498J38029D01*
G03X11925330Y8695920I7644J-6690D01*
G02X11947450Y8664930I-20504J-38025D01*
G03X11963600Y8658470I10027J1650D01*
G02X11924530Y8602520I66394J-87979D01*
G03X11912910Y8615450I-9719J2952D01*
G02X11872320Y8686340I-8081J42438D01*
G37*
G36*
G01X10561260Y8036510D02*
G03Y8022490I7351J-7010D01*
G02X10498740I-31260J-29820D01*
G03Y8036510I-7351J7010D01*
G02X10561260I31260J29820D01*
G37*
G36*
G01X13361840Y7962370D02*
G03X13343650Y7962180I-9048J-4622D01*
G02Y8062820I-103650J50320D01*
G03X13361840Y8062630I9142J4432D01*
G02Y7962370I98160J-50130D01*
G37*
G36*
G01X10472670Y7748430D02*
G03X10462750Y7758350I-10155J-235D01*
G02X10506960Y7802560I1020J43190D01*
G03X10516880Y7792640I10155J235D01*
G02X10472670Y7748430I-1020J-43190D01*
G37*
G36*
G01X12012810Y7544240D02*
G03X12024240Y7532810I10073J-1357D01*
G02X11987190Y7495760I5760J-42810D01*
G03X11975760Y7507190I-10073J1357D01*
G02X12012810Y7544240I-5760J42810D01*
G37*
G36*
G01X11897510Y6558740D02*
G03X11883490I-7010J-7351D01*
G02Y6621260I-29820J31260D01*
G03X11897510I7010J7351D01*
G02Y6558740I29820J-31260D01*
G37*
G36*
G01X10884940Y6388550D02*
G03X10897840Y6383050I9334J4014D01*
G02X10873320Y6325550I15171J-40448D01*
G03X10860420Y6331050I-9334J-4014D01*
G02X10884940Y6388550I-15171J40448D01*
G37*
G36*
G01X10717650Y6186560D02*
G03X10727570Y6176640I10155J235D01*
G02X10683360Y6132430I-1020J-43190D01*
G03X10673440Y6142350I-10155J-235D01*
G02X10717650Y6186560I1020J43190D01*
G37*
G36*
G01X10676060Y5786080D02*
G03X10686350Y5772980I9722J-2955D01*
G02X10638310Y5735210I3017J-53273D01*
G03X10628020Y5748310I-9722J2955D01*
G02X10676060Y5786080I-3017J53273D01*
G37*
G36*
G01X10748310Y5336180D02*
G03X10740530Y5347850I-10006J1758D01*
G02X10792550Y5382530I9470J42150D01*
G03X10800330Y5370860I10006J-1758D01*
G02X10748310Y5336180I-9470J-42150D01*
G37*
G36*
G01X11176100Y5308100D02*
G03X11186020Y5298180I10155J235D01*
G02X11141810Y5253970I-1020J-43190D01*
G03X11131890Y5263890I-10155J-235D01*
G02X11176100Y5308100I1020J43190D01*
G37*
G36*
G01X10964050Y5294270D02*
G03X10962060Y5278950I5551J-8510D01*
G02X10906410Y5286190I-32062J-28951D01*
G03X10908400Y5301510I-5551J8510D01*
G02X10964050Y5294270I32062J28951D01*
G37*
G36*
G01X9801300Y4914970D02*
G02X9841730Y4984670I-66297J85032D01*
G02X9801300Y4914970I-6730J-42672D01*
G37*
G36*
G01X13869080Y4581140D02*
G03X13855010Y4569210I-4281J-9213D01*
G02X13795920Y4638860I-105016J-29203D01*
G03X13809990Y4650790I4281J9213D01*
G02X13869080Y4581140I105016J29203D01*
G37*
G36*
G01X10320970Y4291120D02*
G03Y4272880I4471J-9120D01*
G02X10225030I-47970J-97880D01*
G03Y4291120I-4471J9120D01*
G02X10320970I47970J97880D01*
G37*
G36*
G01X13323010Y3658740D02*
G03X13308990I-7010J-7351D01*
G02Y3721260I-29820J31260D01*
G03X13323010I7010J7351D01*
G02Y3658740I29820J-31260D01*
G37*
G36*
G01X12453010Y3633830D02*
G03X12438990I-7010J-7351D01*
G02Y3696350I-29820J31260D01*
G03X12453010I7010J7351D01*
G02Y3633830I29820J-31260D01*
G37*
G36*
G01X10142570Y3651700D02*
G03Y3637680I7351J-7010D01*
G02X10080050I-31260J-29820D01*
G03Y3651700I-7351J7010D01*
G02X10142570I31260J29820D01*
G37*
G36*
G01X9661010Y3448740D02*
G03X9646990I-7010J-7351D01*
G02Y3511260I-29820J31260D01*
G03X9661010I7010J7351D01*
G02Y3448740I29820J-31260D01*
G37*
G36*
G01X12441260Y3513010D02*
G03Y3498990I7351J-7010D01*
G02X12378740I-31260J-29820D01*
G03Y3513010I-7351J7010D01*
G02X12441260I31260J29820D01*
G37*
G36*
G01X12511260Y3361010D02*
G03Y3346990I7351J-7010D01*
G02X12448740I-31260J-29820D01*
G03Y3361010I-7351J7010D01*
G02X12511260I31260J29820D01*
G37*
G36*
G01X8861610Y3313310D02*
G03Y3299290I7351J-7010D01*
G02X8799090I-31260J-29820D01*
G03Y3313310I-7351J7010D01*
G02X8861610I31260J29820D01*
G37*
G36*
G01X8943230Y3025740D02*
G03X8929120I-7055J-7315D01*
G02Y3087900I-30000J31080D01*
G03X8943230I7055J7315D01*
G02Y3025740I30000J-31080D01*
G37*
G36*
G01X9307370Y2982570D02*
G03X9309850Y2967490I7849J-6453D01*
G02X9253630Y2958260I-22849J-36661D01*
G03X9251150Y2973340I-7849J6453D01*
G02X9307370Y2982570I22849J36661D01*
G37*
G36*
G01X9248570Y2774790D02*
G03X9261590Y2765270I10155J225D01*
G02X9230590Y2722850I12191J-41446D01*
G03X9217570Y2732370I-10155J-225D01*
G02X9248570Y2774790I-12191J41446D01*
G37*
G36*
G01X9641990Y525090D02*
G03X9612640Y501080I50017J-91085D01*
G02X9537900Y538710I-82632J-71084D01*
G02X9542010Y542910I9008J-4704D01*
G03X9583090Y583990I-50010J91090D01*
G02X9600910I8910J-4892D01*
G03X9641990Y542910I91090J50010D01*
G02Y525090I-4892J-8910D01*
G37*
G36*
G01X10010800Y3026150D02*
G02X9991800Y3069350I-42622J7032D01*
G03X10007380Y3076200I5555J8509D01*
G02X10018740Y3098990I42625J-7021D01*
G03Y3113010I-7351J7010D01*
G02X10081260I31260J29820D01*
G03Y3098990I7351J-7010D01*
G02X10026380Y3033000I-31258J-29820D01*
G03X10010800Y3026150I-5555J-8509D01*
G37*
G36*
G01X10181260Y3266990D02*
G02X10118740I-31260J-29820D01*
G03Y3281010I-7351J7010D01*
G02X10113120Y3333330I31259J29820D01*
G03X10103620Y3348740I-8673J5286D01*
G02X10080870Y3353110I-3524J43057D01*
G03X10066910Y3347740I-4511J-9103D01*
G02X10017720Y3321370I-40177J15881D01*
G03X10005780Y3314020I-2115J-9938D01*
G02X9973010Y3367250I-41781J10981D01*
G03X9984950Y3374600I2115J9938D01*
G02X10045940Y3402310I41779J-10982D01*
G03X10059900Y3407680I4511J9103D01*
G02X10136960Y3369300I40174J-15890D01*
G03X10146460Y3353890I8673J-5286D01*
G02X10181260Y3281010I3542J-43057D01*
G03Y3266990I7351J-7010D01*
G37*
G36*
G01X9314150Y4009940D02*
G02X9234220Y4010840I-40150J-15942D01*
G03X9224730Y4024950I-9359J3952D01*
G02X9263950Y4051310I-564J43197D01*
G03X9273440Y4037200I9359J-3952D01*
G02X9275950Y4037160I567J-43199D01*
G03X9285850Y4051060I459J10148D01*
G02X9324050Y4023840I40154J15937D01*
G03X9314150Y4009940I-459J-10148D01*
G37*
G36*
G01X12418200Y4325150D02*
G02X12395120Y4363230I-43200J-149D01*
G03X12410010Y4372250I4731J8990D01*
G02X12433090Y4334170I43200J149D01*
G03X12418200Y4325150I-4731J-8990D01*
G37*
G36*
G01X12367830Y4529360D02*
G02X12334790Y4577080I-42831J5643D01*
G03X12347170Y4585640I2309J9893D01*
G02X12385110Y4622920I42829J-5642D01*
G03X12392730Y4638150I-1146J10095D01*
G02X12434890Y4617080I37266J21852D01*
G03X12427270Y4601850I1146J-10095D01*
G02X12380210Y4537920I-37268J-21852D01*
G03X12367830Y4529360I-2309J-9893D01*
G37*
G36*
G01X11354350Y5273520D02*
G02X11268530Y5276130I-43057J-3519D01*
G03X11260150Y5287600I-10058J1448D01*
G02X11310070Y5324070I7159J42601D01*
G03X11318450Y5312600I10058J-1448D01*
G02X11327100Y5310200I-7162J-42600D01*
G03X11340940Y5320480I3714J9456D01*
G02X11419400Y5348760I43057J3521D01*
G03X11436540Y5349520I8329J5817D01*
G02X11438600Y5303240I37460J-21518D01*
G03X11421460Y5302480I-8329J-5817D01*
G02X11368190Y5283800I-37457J21521D01*
G03X11354350Y5273520I-3714J-9456D01*
G37*
G36*
G01X9100320Y6874640D02*
G02X9091290Y6919580I-40418J15256D01*
G03X9108480Y6923910I7383J6977D01*
G02X9182460Y6958400I51515J-13912D01*
G03X9196820Y6966410I4273J9217D01*
G02X9222470Y6884800I103178J-12407D01*
G03X9206110Y6883150I-7581J-6764D01*
G02X9117850Y6877280I-46111J26851D01*
G03X9100320Y6874640I-8026J-6227D01*
G37*
G36*
G01X12411750Y9004620D02*
G02X12359870Y9005840I-26752J-33920D01*
G03X12360250Y9022080I-5912J8263D01*
G02X12364970Y9093160I26751J33920D01*
G03X12363980Y9111150I-5182J8737D01*
G02X12403850Y9113340I17834J39349D01*
G03X12404840Y9095350I5182J-8737D01*
G02X12412130Y9020860I-17838J-39347D01*
G03X12411750Y9004620I5912J-8263D01*
G37*
G36*
G01X13561090Y509990D02*
G02X13419990Y651090I-91090J50010D01*
G03Y668910I-4892J8910D01*
G02X13561090Y810010I50010J91090D01*
G03X13578910I8910J4892D01*
G02X13761090I91090J-50010D01*
G03X13778910I8910J4892D01*
G02X13961090I91090J-50010D01*
G03X13978910I8910J4892D01*
G02X14161090I91090J-50010D01*
G03X14178910I8910J4892D01*
G02X14361090I91090J-50010D01*
G03X14378910I8910J4892D01*
G02X14561090I91090J-50010D01*
G03X14578910I8910J4892D01*
G02X14720010Y668910I91090J-50010D01*
G03Y651090I4892J-8910D01*
G02X14578910Y509990I-50010J-91090D01*
G03X14561090I-8910J-4892D01*
G02X14378910I-91090J50010D01*
G03X14361090I-8910J-4892D01*
G02X14178910I-91090J50010D01*
G03X14161090I-8910J-4892D01*
G02X13978910I-91090J50010D01*
G03X13961090I-8910J-4892D01*
G02X13778910I-91090J50010D01*
G03X13761090I-8910J-4892D01*
G02X13578910I-91090J50010D01*
G03X13561090I-8910J-4892D01*
G37*
G36*
G01X7401510Y2669270D02*
G02X7349270Y2721510I-31510J20730D01*
G03Y2738490I-5585J8490D01*
G02X7401510Y2790730I20730J31510D01*
G03X7418490I8490J5585D01*
G02X7470730Y2738490I31510J-20730D01*
G03Y2721510I5585J-8490D01*
G02X7418490Y2669270I-20730J-31510D01*
G03X7401510I-8490J-5585D01*
G37*
G36*
G01X6487830Y3692340D02*
G03X6477220Y3683860I-589J-10141D01*
G02X6442170Y3727660I-37219J6141D01*
G03X6452780Y3736140I589J10141D01*
G02X6487830Y3692340I37219J-6141D01*
G37*
G36*
G01X6497530Y2734680D02*
G03X6510630Y2732370I7883J6407D01*
G02X6500720Y2676220I19370J-32368D01*
G03X6487620Y2678530I-7883J-6407D01*
G02X6497530Y2734680I-19370J32368D01*
G37*
G36*
G01X6423430Y3457480D02*
G02X6388080Y3477670I-33425J-17482D01*
G03X6396570Y3492520I-514J10146D01*
G02X6393540Y3519660I33431J17471D01*
G03X6382930Y3532390I-9820J2602D01*
G02X6411510Y3590730I-2931J37606D01*
G03X6428490I8490J5585D01*
G02X6472260Y3534330I31512J-20729D01*
G03X6465890Y3521600I3300J-9610D01*
G02X6431920Y3472330I-35891J-11600D01*
G03X6423430Y3457480I514J-10146D01*
G37*
G36*
G01X6419510Y3163500D02*
G02X6364720Y3167990I-29505J-23500D01*
G03X6365850Y3181860I-6814J7536D01*
G02X6409430Y3240360I29506J23502D01*
G03X6423150Y3251950I3794J9424D01*
G02X6496950Y3267560I36848J8050D01*
G03X6513930Y3262260I9954J2041D01*
G02X6503050Y3227440I26072J-27256D01*
G03X6486070Y3232740I-9954J-2041D01*
G02X6445930Y3225000I-26072J27259D01*
G03X6432210Y3213410I-3794J-9424D01*
G02X6420640Y3177370I-36850J-8047D01*
G03X6419510Y3163500I6814J-7536D01*
G37*
G36*
G01X6391380Y2849400D02*
G02Y2890600I-31600J20600D01*
G03X6408400I8510J5547D01*
G02Y2849400I31600J-20600D01*
G03X6391380I-8510J-5547D01*
G37*
G36*
G01X6841510Y2749270D02*
G02Y2790730I-31510J20730D01*
G03X6858490I8490J5585D01*
G02X6869270Y2801510I31510J-20730D01*
G03Y2818490I-5585J8490D01*
G02Y2881510I20730J31510D01*
G03Y2898490I-5585J8490D01*
G02X6858490Y2909270I20730J31510D01*
G03X6841510I-8490J-5585D01*
G02X6778490I-31510J20730D01*
G03X6761510I-8490J-5585D01*
G02Y2950730I-31510J20730D01*
G03X6778490I8490J5585D01*
G02X6841510I31510J-20730D01*
G03X6858490I8490J5585D01*
G02X6910730Y2898490I31510J-20730D01*
G03Y2881510I5585J-8490D01*
G02Y2818490I-20730J-31510D01*
G03Y2801510I5585J-8490D01*
G02X6858490Y2749270I-20730J-31510D01*
G03X6841510I-8490J-5585D01*
G37*
G36*
G01X6681510Y2669270D02*
G02Y2710730I-31510J20730D01*
G03X6698490I8490J5585D01*
G02Y2669270I31510J-20730D01*
G03X6681510I-8490J-5585D01*
G37*
G54D29*
X2300000Y6150000D03*
X2452300Y6292300D03*
X3900000Y5800000D03*
X3690000Y9208000D03*
X4709640Y9130640D03*
X5448000Y9015000D03*
X6124000D03*
X6405640Y7239640D03*
X6599000Y9533000D03*
X7110000Y8110000D03*
X7866000Y6769000D03*
X7679000Y6773000D03*
X7717000Y7165000D03*
X7762000Y6895000D03*
X7742340Y7297660D03*
X7804000Y7826000D03*
X7836000Y7990000D03*
X7950000Y8978000D03*
X7800000Y8983000D03*
X8299000Y2559000D03*
X8286000Y2396300D03*
X8223000Y2679000D03*
X8243880Y4621880D03*
X8057000Y6765000D03*
X7981000Y6894000D03*
X7962000Y7370000D03*
X8250000Y8980000D03*
X8100000Y8981000D03*
X8436000Y2314000D03*
X8651000Y4848000D03*
X8689000Y5042000D03*
X8729000Y5453000D03*
X8514000Y5846000D03*
X8621000Y5752000D03*
X8619000Y5595000D03*
X8476820Y6545000D03*
X8500480Y7430000D03*
X8584760Y7525240D03*
X8700000Y7700000D03*
X8630000Y7620000D03*
X9204800Y2355200D03*
X9111860Y2582860D03*
X9111000Y4848000D03*
X9138000Y4998000D03*
X9207000Y5117000D03*
X9015000Y5476000D03*
X9037640Y5675320D03*
X9110000Y6490000D03*
X8930000Y6390000D03*
X9060000Y6360000D03*
X8800000Y6590000D03*
X9284000Y2450000D03*
X9215430Y2530430D03*
X9346820Y2625000D03*
X9346050Y3321710D03*
X9325000Y3623820D03*
X9310000Y3740000D03*
X9720000Y2825000D03*
X9714000Y2675000D03*
X10038000Y2619000D03*
X9637150Y3050000D03*
X9660000Y3320000D03*
X9960000Y3575000D03*
X9640000Y3590000D03*
X9962000Y4048200D03*
X9945000Y3825000D03*
X9953000Y4425000D03*
X9963000Y4296000D03*
X9954000Y4725000D03*
X9685000Y4825000D03*
X9815000Y8638000D03*
Y9019000D03*
X9809000Y9400000D03*
X10121000Y2213000D03*
X10231250Y2347000D03*
X10305000Y2469000D03*
Y2598000D03*
X10091140Y3505500D03*
X10182000Y3450000D03*
X10186000Y8638000D03*
X10212000Y9019000D03*
X10199000Y9400000D03*
X10570000Y282000D03*
Y834000D03*
X10833500Y4243500D03*
X10789000Y4812000D03*
X10740000Y4913000D03*
X10903000Y4727000D03*
X11252000Y5432000D03*
X10925000Y5434000D03*
X11023000Y5740000D03*
X10922640Y6053180D03*
X11075000Y6090000D03*
X11021000Y8681000D03*
X11070000Y9019000D03*
X11079000Y9400000D03*
X11646000Y276000D03*
X11565000Y560000D03*
X11454000Y475000D03*
X11616000Y832000D03*
X11390000Y4482000D03*
Y4968680D03*
X11554200Y5736000D03*
X11375000Y6073000D03*
X11439000Y8638000D03*
X11426000Y9019000D03*
X11435000Y9400000D03*
X11800000Y309000D03*
Y735000D03*
X11777000Y5754000D03*
X12096820Y7140450D03*
X11750000Y8248000D03*
X12060000Y8870000D03*
X12540000Y3175000D03*
X12410680Y4069320D03*
X12495000Y4125000D03*
X12307000Y4413000D03*
X12280000Y4290000D03*
X12240000Y6852320D03*
X12382000Y7443000D03*
X12399500Y7240500D03*
X12387000Y7338000D03*
X12240000Y7714000D03*
Y8605000D03*
Y9455000D03*
X12900000Y4175000D03*
X12745000Y7000000D03*
X12645000Y7150000D03*
X12718000Y7602000D03*
X12912500Y7600500D03*
X12645000Y7338000D03*
X12651000Y7446000D03*
X12630000Y8880000D03*
X12694000Y8743000D03*
X12737000Y9300000D03*
X12636000Y9050000D03*
X12628000Y9150000D03*
X12920500Y9350500D03*
X13180000Y4175000D03*
X13270000Y4585680D03*
X13420000Y4530000D03*
X13390000Y4370000D03*
X13160000Y4425680D03*
X13324000Y4986000D03*
X13088000Y5264000D03*
X13077000Y5468000D03*
X13083000Y5361000D03*
X13163000Y5093000D03*
X13235500Y6960500D03*
X13222500Y7680500D03*
X13198500Y8710500D03*
X13260000Y9030000D03*
X13208500Y9430500D03*
X13677000Y4088000D03*
X13583000Y4239000D03*
X13496000Y4296000D03*
X13505000Y5093000D03*
X13580000Y7040000D03*
X13460000Y9110000D03*
X14230000Y6780000D03*
X14210000Y7330000D03*
X13980000Y8120000D03*
X13890000Y8690000D03*
X14220000Y8500000D03*
X14140000Y9270000D03*
X13950000Y9180000D03*
X14430000Y6960000D03*
X14340000Y7520000D03*
X5918000Y6906000D03*
X7381000Y490000D03*
X7833000D03*
X7637000Y1611000D03*
X7540000Y4370000D03*
X7750000D03*
X8031000Y2705000D03*
G54D36*
X8700000Y7150000D03*
X8600000D03*
X8500000D03*
X8400000D03*
X8500000Y7050000D03*
X8600000D03*
X8700000D03*
Y6950000D03*
X8600000D03*
X8500000D03*
X8400000D03*
Y6850000D03*
X8500000D03*
X8600000D03*
X8700000D03*
X7488560Y3174500D03*
X7450000Y3730000D03*
X7370000Y3810000D03*
X6640000Y2940000D03*
X6460000Y3350000D03*
X6450000Y3010000D03*
X6350000Y3000000D03*
X6567300Y3527200D03*
G54D42*
X12740000Y6587500D03*
Y8337500D03*
G54D35*
X8407000Y3989000D03*
X8273000Y4183000D03*
X8740000Y430000D03*
X9113000Y4599000D03*
X10278000Y3945000D03*
X7527000Y1801000D03*
G54D39*
X12030000Y6820500D03*
Y7300500D03*
Y7780500D03*
Y9050500D03*
Y9530500D03*
X12490000Y6587500D03*
Y8012500D03*
Y8337500D03*
Y9762500D03*
X12990000Y6587500D03*
Y8012500D03*
Y8337500D03*
Y9762500D03*
X13460000Y6587500D03*
Y8337500D03*
G54D41*
X12240000Y8012500D03*
Y9762500D03*
X13740000Y6587500D03*
Y7155500D03*
Y7695500D03*
Y8337500D03*
Y8905500D03*
Y9445500D03*
X14240000Y8012500D03*
Y9762500D03*
X14740000Y6587500D03*
Y8337500D03*
X15240000Y8012500D03*
Y9762500D03*
X15740000Y6587500D03*
Y7445500D03*
Y8337500D03*
Y9195500D03*
G54D28*
X1911100Y6151100D03*
X1813480Y6253480D03*
X2400000Y1750000D03*
X2380000Y2530000D03*
X2400000Y2750000D03*
X2380000Y2970000D03*
X2400000Y3750000D03*
Y4750000D03*
X2450000Y5790000D03*
X2200000Y6030000D03*
X2500000Y6050000D03*
X2900000Y6220000D03*
X2750000D03*
X2580000Y6298210D03*
X2680000Y5942300D03*
X2900000Y6480000D03*
X2750000Y6470000D03*
X3440000Y1610000D03*
Y1430000D03*
Y1870000D03*
Y1740000D03*
Y2430000D03*
Y2870000D03*
Y2610000D03*
Y2740000D03*
Y3610000D03*
Y3740000D03*
Y3430000D03*
Y3870000D03*
Y4610000D03*
Y4430000D03*
Y4870000D03*
Y4740000D03*
X3450000Y6060000D03*
X3820000Y1430000D03*
Y1610000D03*
Y2050000D03*
Y1870000D03*
Y2430000D03*
Y2870000D03*
Y2610000D03*
Y3050000D03*
Y3430000D03*
Y3610000D03*
Y4050000D03*
Y3870000D03*
Y4430000D03*
Y4610000D03*
Y4870000D03*
Y5050000D03*
X4120000Y5930000D03*
X3949000Y6051000D03*
X4030000Y6298210D03*
X4180000Y1530000D03*
X4200000Y1750000D03*
X4180000Y1970000D03*
X4200000Y2750000D03*
Y3750000D03*
X4180000Y3530000D03*
Y3970000D03*
Y4530000D03*
X4200000Y4750000D03*
X4180000Y4970000D03*
X4200000Y6220000D03*
X4350000D03*
X4200000Y6470000D03*
X4350000Y6480000D03*
X5240000Y1610000D03*
Y1430000D03*
Y1870000D03*
Y1740000D03*
Y2430000D03*
Y2870000D03*
Y2610000D03*
Y2740000D03*
Y3610000D03*
Y3740000D03*
Y3430000D03*
Y3870000D03*
Y4610000D03*
Y4430000D03*
Y4870000D03*
Y4740000D03*
X5030000Y5900000D03*
X5620000Y1430000D03*
Y1610000D03*
Y2050000D03*
Y1870000D03*
Y2430000D03*
Y2870000D03*
Y2610000D03*
Y3050000D03*
Y3430000D03*
Y3610000D03*
Y4050000D03*
Y3870000D03*
Y4430000D03*
Y4610000D03*
Y4870000D03*
Y5050000D03*
X5701000Y5402000D03*
X5703000Y5609000D03*
X5696000Y5821000D03*
Y6021000D03*
Y6221000D03*
Y6421000D03*
X2400000Y9200000D03*
Y9400000D03*
X3300000Y9639000D03*
X3700000Y9700000D03*
X4157000Y8810000D03*
X4000000Y9200000D03*
Y9400000D03*
X4900000Y9635000D03*
X5400000Y7700000D03*
Y7900000D03*
Y8100000D03*
Y8300000D03*
Y8500000D03*
X5300000Y8700000D03*
X5100000Y9300000D03*
X5300000Y9700000D03*
X6596000Y7756000D03*
X7096000Y6221000D03*
Y6621000D03*
Y6421000D03*
X7310000Y7950000D03*
X8075580Y8293000D03*
Y8447000D03*
X8623000Y6455000D03*
X8800000Y7610000D03*
X8725420Y8293000D03*
X8733000Y8450000D03*
X8950000Y7285000D03*
X9149000Y7510000D03*
X9100000Y8254000D03*
X9639000Y4175000D03*
X9290000Y4580000D03*
X9568000Y6700000D03*
X10175000Y6576000D03*
X10299500Y7312000D03*
X10549000Y5346000D03*
X10898000Y5754000D03*
X10685000Y7092000D03*
X10535000Y7298000D03*
X11225000Y5759000D03*
X11375000Y5712000D03*
X11750000Y6517000D03*
X11653000Y7945000D03*
X11682700Y9060000D03*
X11909000Y8881000D03*
X11840000Y9695000D03*
X12880500Y7360500D03*
X13420000Y7040500D03*
X13604000Y4391000D03*
X2400000Y7300000D03*
Y7500000D03*
Y7700000D03*
Y7900000D03*
Y8100000D03*
Y8300000D03*
Y8500000D03*
X2550000Y6720000D03*
X2555000Y8810000D03*
X4110000Y6690000D03*
X3850000Y6800000D03*
X3800000Y7300000D03*
X5400000D03*
X7111000Y5424000D03*
X7096000Y5821000D03*
X7106000Y5620000D03*
X7580000Y3370000D03*
X7705000Y3180000D03*
X6460000Y2570000D03*
X6530000Y3080000D03*
X6545000Y3930000D03*
X6710000Y2560000D03*
X6890000Y2660000D03*
X6820000Y3930000D03*
G54D27*
X611000Y1322000D03*
Y1068000D03*
Y1576000D03*
Y2084000D03*
Y1830000D03*
Y2592000D03*
Y2338000D03*
Y2846000D03*
Y3354000D03*
Y3100000D03*
Y3862000D03*
Y3608000D03*
Y4116000D03*
Y4624000D03*
Y4370000D03*
Y5132000D03*
Y4878000D03*
Y5386000D03*
Y5894000D03*
Y5640000D03*
Y6148000D03*
Y6402000D03*
X1119000Y1322000D03*
Y1068000D03*
X865000Y1322000D03*
Y1068000D03*
X1119000Y1576000D03*
X865000D03*
X1119000Y2084000D03*
Y1830000D03*
X865000Y2084000D03*
Y1830000D03*
X1119000Y2592000D03*
Y2338000D03*
X865000Y2592000D03*
Y2338000D03*
X1119000Y2846000D03*
X865000D03*
X1119000Y3354000D03*
Y3100000D03*
X865000Y3354000D03*
Y3100000D03*
X1119000Y3862000D03*
Y3608000D03*
X865000Y3862000D03*
Y3608000D03*
X1119000Y4116000D03*
X865000D03*
X1119000Y4624000D03*
Y4370000D03*
X865000Y4624000D03*
Y4370000D03*
X1119000Y5132000D03*
Y4878000D03*
X865000Y5132000D03*
Y4878000D03*
X1119000Y5386000D03*
X865000D03*
X1119000Y5894000D03*
Y5640000D03*
X865000Y5894000D03*
Y5640000D03*
X1119000Y6148000D03*
X865000D03*
X1119000Y6402000D03*
X865000D03*
X611000Y7164000D03*
Y6910000D03*
Y7418000D03*
Y7926000D03*
Y7672000D03*
Y8434000D03*
Y8180000D03*
Y8688000D03*
Y8942000D03*
X1119000Y7164000D03*
Y6910000D03*
X865000Y7164000D03*
Y6910000D03*
X1119000Y7418000D03*
X865000D03*
X1119000Y7926000D03*
Y7672000D03*
X865000Y7926000D03*
Y7672000D03*
X1119000Y8434000D03*
Y8180000D03*
X865000Y8434000D03*
Y8180000D03*
X1119000Y8688000D03*
X865000D03*
X1119000Y8942000D03*
X865000D03*
X9535000Y2152500D03*
Y5147500D03*
X10252500Y5635000D03*
X12247500D03*
X12735000Y2152500D03*
Y5147500D03*
G54D38*
X9735000Y2300000D03*
X10400000Y5835000D03*
X12100000D03*
X12935000Y2300000D03*
Y5000000D03*
G54D40*
X12650000Y6820500D03*
Y7780500D03*
Y8570500D03*
Y9530500D03*
G54D30*
X2755000Y5670000D03*
X4225000Y5680000D03*
X9148000Y3965000D03*
X10135000Y4700000D03*
X12105000Y4440000D03*
G54D33*
X2400000Y9600000D03*
X2908000D03*
X2654000D03*
X4000000D03*
X4508000D03*
X4254000D03*
X5696000Y7721000D03*
X6204000D03*
X5950000D03*
X8242000Y6150000D03*
X8292000Y8050000D03*
X8496000Y6150000D03*
X8750000D03*
X8546000Y8050000D03*
X8800000D03*
X9300000Y6700000D03*
Y7208000D03*
X11280000Y6704000D03*
Y6450000D03*
Y6958000D03*
X11438000Y7616000D03*
Y7362000D03*
Y7870000D03*
X15100000Y1336000D03*
Y1590000D03*
Y1844000D03*
Y2098000D03*
Y2352000D03*
Y2606000D03*
Y2860000D03*
Y3114000D03*
Y3368000D03*
Y3622000D03*
Y3876000D03*
Y4130000D03*
Y4384000D03*
Y4638000D03*
Y4892000D03*
Y5146000D03*
Y5400000D03*
X15354000Y1336000D03*
Y1590000D03*
Y1844000D03*
Y2098000D03*
Y2352000D03*
Y2606000D03*
Y2860000D03*
Y3114000D03*
Y3368000D03*
Y3622000D03*
Y3876000D03*
Y4130000D03*
Y4384000D03*
Y4638000D03*
Y4892000D03*
Y5146000D03*
Y5400000D03*
G54D31*
X8925000Y9459000D03*
X7475000D03*
G54D34*
X6026000Y8511000D03*
X6534000D03*
X10000000Y8363000D03*
X10100000Y9646000D03*
X11250000Y8363000D03*
X11350000Y9646000D03*
G54D37*
X9550000Y1450000D03*
Y5850000D03*
X12950000Y1450000D03*
Y5850000D03*
G54D32*
X8925000Y8862000D03*
X7475000D03*
%LPD*%
G75*
G36*
G01X13761090Y610010D02*
G03X13720010Y651090I-91090J-50010D01*
G02Y668910I4892J8910D01*
G03X13761090Y709990I-50010J91090D01*
G02X13778910I8910J-4892D01*
G03X13819990Y668910I91090J50010D01*
G02Y651090I-4892J-8910D01*
G03X13778910Y610010I50010J-91090D01*
G02X13761090I-8910J4892D01*
G37*
G36*
G01X13561090D02*
G03X13520010Y651090I-91090J-50010D01*
G02Y668910I4892J8910D01*
G03X13561090Y709990I-50010J91090D01*
G02X13578910I8910J-4892D01*
G03X13619990Y668910I91090J50010D01*
G02Y651090I-4892J-8910D01*
G03X13578910Y610010I50010J-91090D01*
G02X13561090I-8910J4892D01*
G37*
G36*
G01X14161090D02*
G03X14120010Y651090I-91090J-50010D01*
G02Y668910I4892J8910D01*
G03X14161090Y709990I-50010J91090D01*
G02X14178910I8910J-4892D01*
G03X14219990Y668910I91090J50010D01*
G02Y651090I-4892J-8910D01*
G03X14178910Y610010I50010J-91090D01*
G02X14161090I-8910J4892D01*
G37*
G36*
G01X13961090D02*
G03X13920010Y651090I-91090J-50010D01*
G02Y668910I4892J8910D01*
G03X13961090Y709990I-50010J91090D01*
G02X13978910I8910J-4892D01*
G03X14019990Y668910I91090J50010D01*
G02Y651090I-4892J-8910D01*
G03X13978910Y610010I50010J-91090D01*
G02X13961090I-8910J4892D01*
G37*
G36*
G01X14561090D02*
G03X14520010Y651090I-91090J-50010D01*
G02Y668910I4892J8910D01*
G03X14561090Y709990I-50010J91090D01*
G02X14578910I8910J-4892D01*
G03X14619990Y668910I91090J50010D01*
G02Y651090I-4892J-8910D01*
G03X14578910Y610010I50010J-91090D01*
G02X14561090I-8910J4892D01*
G37*
G36*
G01X14361090D02*
G03X14320010Y651090I-91090J-50010D01*
G02Y668910I4892J8910D01*
G03X14361090Y709990I-50010J91090D01*
G02X14378910I8910J-4892D01*
G03X14419990Y668910I91090J50010D01*
G02Y651090I-4892J-8910D01*
G03X14378910Y610010I50010J-91090D01*
G02X14361090I-8910J4892D01*
G37*
G54D10*
X357000Y560000D03*
Y9450000D03*
G54D20*
X9550000Y1450000D03*
Y5850000D03*
X12950000Y1450000D03*
Y5850000D03*
G54D11*
X611000Y1322000D03*
Y1068000D03*
Y1576000D03*
Y2084000D03*
Y1830000D03*
Y2592000D03*
Y2338000D03*
Y2846000D03*
Y3354000D03*
Y3100000D03*
Y3862000D03*
Y3608000D03*
Y4116000D03*
Y4624000D03*
Y4370000D03*
Y5132000D03*
Y4878000D03*
Y5386000D03*
Y5894000D03*
Y5640000D03*
Y6148000D03*
Y6656000D03*
Y6402000D03*
Y7164000D03*
Y6910000D03*
Y7418000D03*
Y7926000D03*
Y7672000D03*
Y8434000D03*
Y8180000D03*
Y8688000D03*
Y8942000D03*
X1119000Y1322000D03*
Y1068000D03*
X865000Y1322000D03*
Y1068000D03*
X1119000Y1576000D03*
X865000D03*
X1119000Y2084000D03*
Y1830000D03*
X865000Y2084000D03*
Y1830000D03*
X1119000Y2592000D03*
Y2338000D03*
X865000Y2592000D03*
Y2338000D03*
X1119000Y2846000D03*
X865000D03*
X1119000Y3354000D03*
Y3100000D03*
X865000Y3354000D03*
Y3100000D03*
X1119000Y3862000D03*
Y3608000D03*
X865000Y3862000D03*
Y3608000D03*
X1119000Y4116000D03*
X865000D03*
X1119000Y4624000D03*
Y4370000D03*
X865000Y4624000D03*
Y4370000D03*
X1119000Y5132000D03*
Y4878000D03*
X865000Y5132000D03*
Y4878000D03*
X1119000Y5386000D03*
X865000D03*
X1119000Y5894000D03*
Y5640000D03*
X865000Y5894000D03*
Y5640000D03*
X1119000Y6148000D03*
X865000D03*
X1119000Y6656000D03*
Y6402000D03*
X865000Y6656000D03*
Y6402000D03*
X1119000Y7164000D03*
Y6910000D03*
X865000Y7164000D03*
Y6910000D03*
X1119000Y7418000D03*
X865000D03*
X1119000Y7926000D03*
Y7672000D03*
X865000Y7926000D03*
Y7672000D03*
X1119000Y8434000D03*
Y8180000D03*
X865000Y8434000D03*
Y8180000D03*
X1119000Y8688000D03*
X865000D03*
X1119000Y8942000D03*
X865000D03*
X9535000Y2152500D03*
Y5147500D03*
X10252500Y5635000D03*
X12247500D03*
X12735000Y2152500D03*
Y5147500D03*
G54D21*
X9735000Y2300000D03*
Y5000000D03*
X10400000Y5835000D03*
X12100000D03*
X12650000Y6820500D03*
Y7780500D03*
Y8570500D03*
Y9530500D03*
X12935000Y2300000D03*
Y5000000D03*
G54D12*
X1911100Y6151100D03*
X1813480Y6253480D03*
X2400000Y1750000D03*
X2380000Y2530000D03*
X2400000Y2750000D03*
X2380000Y2970000D03*
X2400000Y3750000D03*
Y4750000D03*
X2450000Y5790000D03*
X2200000Y6030000D03*
X2150000Y6590000D03*
X2400000Y7300000D03*
Y7500000D03*
Y7700000D03*
Y7900000D03*
Y8100000D03*
Y8300000D03*
Y8500000D03*
Y9200000D03*
Y9400000D03*
X2755000Y5670000D03*
X2500000Y6050000D03*
X2900000Y6220000D03*
X2750000D03*
X2580000Y6298210D03*
X2680000Y5942300D03*
X2710000Y6590000D03*
X2900000Y6480000D03*
X2750000Y6470000D03*
X2550000Y6720000D03*
X2555000Y8810000D03*
X3109640Y9128640D03*
X3300000Y9639000D03*
X3440000Y1610000D03*
Y1430000D03*
Y1870000D03*
Y1740000D03*
Y2050000D03*
Y2430000D03*
Y2870000D03*
Y2610000D03*
Y2740000D03*
Y3050000D03*
Y3610000D03*
Y3740000D03*
Y3430000D03*
Y3870000D03*
Y4050000D03*
Y4610000D03*
Y4430000D03*
Y4870000D03*
Y4740000D03*
Y5050000D03*
X3450000Y6060000D03*
X3650000Y6030000D03*
X3590000Y6527700D03*
X3600000Y6670000D03*
X3610000Y6410000D03*
X3700000Y8700000D03*
Y9700000D03*
X3820000Y1430000D03*
Y1610000D03*
Y2050000D03*
Y1870000D03*
Y2430000D03*
Y2870000D03*
Y2610000D03*
Y3050000D03*
Y3430000D03*
Y3610000D03*
Y4050000D03*
Y3870000D03*
Y4430000D03*
Y4610000D03*
Y4870000D03*
Y5050000D03*
X4120000Y5930000D03*
X3949000Y6051000D03*
X4030000Y6298210D03*
X3760000Y6180000D03*
X4110000Y6690000D03*
X3900000Y6680000D03*
X3850000Y6800000D03*
X3800000Y7300000D03*
Y7500000D03*
Y7700000D03*
Y7900000D03*
Y8100000D03*
Y8300000D03*
Y8500000D03*
X4157000Y8810000D03*
X4000000Y9200000D03*
Y9400000D03*
X4180000Y1530000D03*
X4200000Y1750000D03*
X4180000Y1970000D03*
X4200000Y2750000D03*
Y3750000D03*
X4180000Y3530000D03*
Y3970000D03*
Y4530000D03*
X4200000Y4750000D03*
X4180000Y4970000D03*
X4225000Y5680000D03*
X4200000Y6220000D03*
X4350000D03*
X4200000Y6470000D03*
X4350000Y6480000D03*
X4900000Y9635000D03*
X5240000Y1610000D03*
Y1430000D03*
Y1870000D03*
Y1740000D03*
Y2050000D03*
Y2430000D03*
Y2870000D03*
Y2610000D03*
Y2740000D03*
Y3050000D03*
Y3610000D03*
Y3740000D03*
Y3430000D03*
Y3870000D03*
Y4050000D03*
Y4610000D03*
Y4430000D03*
Y4870000D03*
Y4740000D03*
Y5050000D03*
X5030000Y5900000D03*
X5400000Y7300000D03*
Y7500000D03*
Y7700000D03*
Y7900000D03*
Y8100000D03*
Y8300000D03*
Y8500000D03*
X5300000Y8700000D03*
X5100000Y9300000D03*
X5300000Y9700000D03*
X5620000Y1430000D03*
Y1610000D03*
Y2050000D03*
Y1870000D03*
Y2430000D03*
Y2870000D03*
Y2610000D03*
Y3050000D03*
Y3430000D03*
Y3610000D03*
Y4050000D03*
Y3870000D03*
Y4430000D03*
Y4610000D03*
Y4870000D03*
Y5050000D03*
X5701000Y5402000D03*
X5703000Y5609000D03*
X5696000Y5821000D03*
Y6021000D03*
Y6221000D03*
Y6421000D03*
Y6621000D03*
Y7321000D03*
Y7521000D03*
X6460000Y2570000D03*
X6590000Y2580000D03*
X6530000Y3080000D03*
X6545000Y3930000D03*
X6680000D03*
X6596000Y7756000D03*
X6710000Y2560000D03*
X6850000D03*
X6890000Y2660000D03*
X6820000Y3930000D03*
X7015000Y4200000D03*
X6945000Y3935000D03*
X7000000Y4395000D03*
X7111000Y5424000D03*
X7096000Y5821000D03*
X7106000Y5620000D03*
X7096000Y6221000D03*
Y6021000D03*
Y6621000D03*
Y6421000D03*
Y6821000D03*
X6796000Y7421000D03*
X7096000Y7821000D03*
X7300000Y4181580D03*
Y4400000D03*
X7540000Y4760000D03*
X7310000Y7950000D03*
X7580000Y3370000D03*
X7705000Y3180000D03*
X7750000Y4770000D03*
X8075580Y8293000D03*
Y8447000D03*
X8623000Y6455000D03*
X8800000Y7610000D03*
X8725420Y8293000D03*
X8733000Y8450000D03*
X9148000Y3965000D03*
X9160000Y6910000D03*
X8950000Y7285000D03*
X9149000Y7510000D03*
X9100000Y7845000D03*
Y8254000D03*
X9639000Y4175000D03*
X9290000Y4580000D03*
X9314780Y4707800D03*
X9327000Y4825000D03*
X9568000Y6700000D03*
X10135000Y4700000D03*
X10175000Y6576000D03*
X10299500Y7312000D03*
X10549000Y5346000D03*
X10689370Y5719710D03*
X10898000Y5754000D03*
X10625000Y5801580D03*
X10685000Y7092000D03*
X10535000Y7298000D03*
X11225000Y5759000D03*
X11375000Y5712000D03*
X11750000Y6517000D03*
Y6783000D03*
X11653000Y7945000D03*
X11750000Y7764000D03*
Y8532000D03*
X11682700Y9060000D03*
X11750000Y9516000D03*
X12105000Y4440000D03*
X11909000Y8881000D03*
X11840000Y9695000D03*
X12860000Y4880000D03*
Y4740000D03*
X12880500Y7360500D03*
X13420000Y7040500D03*
X13604000Y4391000D03*
G54D22*
X12030000Y6820500D03*
Y7300500D03*
Y7780500D03*
Y8570500D03*
Y9050500D03*
Y9530500D03*
X12490000Y6587500D03*
Y8012500D03*
Y8337500D03*
Y9762500D03*
X12990000Y6587500D03*
Y8012500D03*
Y8337500D03*
Y9762500D03*
X13460000Y6587500D03*
Y8012500D03*
Y8337500D03*
Y9762500D03*
G54D13*
X1900000Y7000000D03*
X2000000Y8400000D03*
Y8200000D03*
X2300000Y6150000D03*
X2452300Y6292300D03*
X3690000Y9208000D03*
X3900000Y5800000D03*
X3902300Y6292300D03*
X4709640Y9130640D03*
X5448000Y9015000D03*
X5918000Y6906000D03*
X6124000Y9015000D03*
X6405640Y7239640D03*
X6389000Y9271320D03*
X6599000Y9533000D03*
X7381000Y490000D03*
X7110000Y8110000D03*
X7833000Y490000D03*
X7637000Y1611000D03*
X7750000Y4370000D03*
X7540000D03*
X7765000Y5210000D03*
X7866000Y6769000D03*
X7679000Y6773000D03*
X7717000Y7165000D03*
X7762000Y6895000D03*
X7742340Y7297660D03*
X7804000Y7826000D03*
X7836000Y7990000D03*
X7950000Y8978000D03*
X7800000Y8983000D03*
X8299000Y2559000D03*
X8286000Y2396300D03*
X8223000Y2679000D03*
X8031000Y2705000D03*
X8243880Y4621880D03*
X8057000Y6765000D03*
X7981000Y6894000D03*
X7962000Y7370000D03*
X8100000Y8981000D03*
X8250000Y8980000D03*
X8436000Y2314000D03*
X8651000Y4848000D03*
X8689000Y5042000D03*
X8729000Y5453000D03*
X8514000Y5846000D03*
X8621000Y5752000D03*
X8619000Y5595000D03*
X8476820Y6545000D03*
X8500480Y7430000D03*
X8584760Y7525240D03*
X8700000Y7700000D03*
X8630000Y7620000D03*
X9204800Y2355200D03*
X9205380Y2773820D03*
X9111860Y2582860D03*
X8973230Y3056820D03*
X8830350Y3269470D03*
X8899120Y3056820D03*
X8830350Y3343130D03*
X9111000Y4848000D03*
X9138000Y4998000D03*
X9207000Y5117000D03*
X9015000Y5476000D03*
X9037640Y5675320D03*
X9110000Y6490000D03*
X8930000Y6390000D03*
X9060000Y6360000D03*
X8800000Y6590000D03*
X9059900Y6889900D03*
X9284000Y2450000D03*
X9215430Y2530430D03*
X9346820Y2625000D03*
X9273780Y2723820D03*
X9287000Y2930830D03*
X9346050Y3321710D03*
X9274000Y3010000D03*
X9310000Y3740000D03*
X9325000Y3623820D03*
X9617170Y3480000D03*
X9274000Y3994000D03*
X9326000Y4067000D03*
X9224170Y4068150D03*
X9714000Y2675000D03*
X9720000Y2825000D03*
X10038000Y2619000D03*
X9660000Y3320000D03*
X9637150Y3050000D03*
X9968180Y3033180D03*
X9964000Y3325000D03*
X10050000Y3142830D03*
X10026730Y3363620D03*
X10050000Y3069170D03*
X9960000Y3575000D03*
X9640000Y3590000D03*
X9690830Y3480000D03*
X9945000Y3825000D03*
X9962000Y4048200D03*
X9963000Y4296000D03*
X9953000Y4425000D03*
X9954000Y4725000D03*
X9835000Y4942000D03*
X9685000Y4825000D03*
X9815000Y8638000D03*
Y9019000D03*
X9809000Y9400000D03*
X10121000Y2213000D03*
X10305000Y2469000D03*
X10231250Y2347000D03*
X10305000Y2598000D03*
X10150000Y3310830D03*
Y3237170D03*
X10100080Y3391800D03*
X10111310Y3607860D03*
X10091140Y3505500D03*
X10111310Y3681520D03*
X10182000Y3450000D03*
X10463770Y7801540D03*
X10186000Y8638000D03*
X10212000Y9019000D03*
X10199000Y9400000D03*
X10570000Y282000D03*
Y834000D03*
X10833500Y4243500D03*
X10789000Y4812000D03*
X10740000Y4913000D03*
X10750000Y5390000D03*
X10790860Y5328710D03*
X10726550Y6133450D03*
X10674460Y6185540D03*
X10845250Y6371500D03*
X10836000Y6606000D03*
X10835000Y7095000D03*
X10515860Y7749450D03*
X10530000Y7992670D03*
Y8066330D03*
X10903000Y4727000D03*
X11252000Y5432000D03*
X10925000Y5434000D03*
X10940460Y5330460D03*
X11132910Y5307080D03*
X11267310Y5330200D03*
X10930000Y5250000D03*
X11185000Y5254990D03*
X11311290Y5270000D03*
X11023000Y5740000D03*
X11075000Y6090000D03*
X10922640Y6053180D03*
X10913010Y6342600D03*
X11021000Y8681000D03*
X11070000Y9019000D03*
X11079000Y9400000D03*
X11646000Y276000D03*
X11454000Y475000D03*
X11616000Y832000D03*
X11565000Y560000D03*
X11390000Y4482000D03*
Y4968680D03*
X11474000Y5328000D03*
X11384000Y5324000D03*
X11554200Y5736000D03*
X11375000Y6073000D03*
X11439000Y8638000D03*
X11426000Y9019000D03*
X11435000Y9400000D03*
X11800000Y309000D03*
Y735000D03*
X11777000Y5754000D03*
X11853670Y6590000D03*
X11927330D03*
X12096820Y7140450D03*
X12030000Y7490000D03*
X11970000Y7550000D03*
X11750000Y8248000D03*
X12060000Y8870000D03*
X11890000Y8740000D03*
X11904830Y8657890D03*
X11920000Y9250000D03*
X11973840Y9301320D03*
X12540000Y3175000D03*
X12480000Y3317170D03*
Y3390830D03*
X12482830Y3665090D03*
X12410000Y3542830D03*
X12409170Y3665090D03*
X12410000Y3469170D03*
X12410680Y4069320D03*
X12495000Y4125000D03*
X12375000Y4325000D03*
X12453210Y4372400D03*
X12325000Y4535000D03*
X12430000Y4660000D03*
X12390000Y4580000D03*
X12307000Y4413000D03*
X12280000Y4290000D03*
X12240000Y6852320D03*
X12382000Y7443000D03*
X12399500Y7240500D03*
X12387000Y7338000D03*
X12240000Y7714000D03*
Y8605000D03*
X12381820Y9150500D03*
X12385000Y8970700D03*
X12387000Y9056000D03*
X12240000Y9455000D03*
X12900000Y4175000D03*
X12745000Y7000000D03*
X12645000Y7150000D03*
X12718000Y7602000D03*
X12912500Y7600500D03*
X12645000Y7338000D03*
X12651000Y7446000D03*
X12630000Y8880000D03*
X12694000Y8743000D03*
X12737000Y9300000D03*
X12636000Y9050000D03*
X12628000Y9150000D03*
X12920500Y9350500D03*
X13352830Y3690000D03*
X13279170D03*
X13180000Y4175000D03*
X13160000Y4425680D03*
X13390000Y4370000D03*
X13420000Y4530000D03*
X13270000Y4585680D03*
X13324000Y4986000D03*
X13088000Y5264000D03*
X13077000Y5468000D03*
X13083000Y5361000D03*
X13163000Y5093000D03*
X13235500Y6960500D03*
X13222500Y7680500D03*
X13198500Y8710500D03*
X13260000Y9030000D03*
X13208500Y9430500D03*
X13677000Y4088000D03*
X13583000Y4239000D03*
X13496000Y4296000D03*
X13505000Y5093000D03*
X13580000Y7040000D03*
X13460000Y9110000D03*
X14230000Y6780000D03*
X14210000Y7330000D03*
X13980000Y8120000D03*
X14220000Y8500000D03*
X13890000Y8690000D03*
X14140000Y9270000D03*
X13950000Y9180000D03*
X14430000Y6960000D03*
X14340000Y7520000D03*
G54D23*
X12240000Y8012500D03*
Y9762500D03*
X13240000Y8012500D03*
Y9762500D03*
X13740000Y6587500D03*
Y7155500D03*
Y7695500D03*
Y8337500D03*
Y8905500D03*
Y9445500D03*
X14240000Y8012500D03*
Y9762500D03*
X14740000Y6587500D03*
Y8337500D03*
X15240000Y8012500D03*
Y9762500D03*
X15740000Y6587500D03*
Y7445500D03*
Y8337500D03*
Y9195500D03*
G54D14*
X2400000Y9600000D03*
X2908000D03*
X2654000D03*
X4000000D03*
X4508000D03*
X4254000D03*
X5696000Y7721000D03*
X6204000D03*
X5950000D03*
X8242000Y6150000D03*
X8292000Y8050000D03*
X8496000Y6150000D03*
X8750000D03*
X8546000Y8050000D03*
X8800000D03*
X9300000Y6700000D03*
Y7208000D03*
Y6954000D03*
X11280000Y6704000D03*
Y6450000D03*
Y6958000D03*
X11438000Y7616000D03*
Y7362000D03*
Y7870000D03*
X13470000Y560000D03*
Y760000D03*
X13670000Y560000D03*
Y760000D03*
X13870000Y560000D03*
Y760000D03*
X14070000Y560000D03*
Y760000D03*
X14270000Y560000D03*
Y760000D03*
X14470000Y560000D03*
Y760000D03*
X14670000Y560000D03*
Y760000D03*
X15100000Y1336000D03*
Y1590000D03*
Y1844000D03*
Y2098000D03*
Y2352000D03*
Y2606000D03*
Y2860000D03*
Y3114000D03*
Y3368000D03*
Y3622000D03*
Y3876000D03*
Y4130000D03*
Y4384000D03*
Y4638000D03*
Y4892000D03*
Y5146000D03*
Y5400000D03*
X15354000Y1336000D03*
Y1590000D03*
Y1844000D03*
Y2098000D03*
Y2352000D03*
Y2606000D03*
Y2860000D03*
Y3114000D03*
Y3368000D03*
Y3622000D03*
Y3876000D03*
Y4130000D03*
Y4384000D03*
Y4638000D03*
Y4892000D03*
Y5146000D03*
Y5400000D03*
G54D24*
X12740000Y6587500D03*
Y8337500D03*
G54D15*
X6026000Y8511000D03*
X6534000D03*
X10000000Y8363000D03*
X10100000Y9646000D03*
X11250000Y8363000D03*
X11350000Y9646000D03*
G54D25*
G01X3489850Y162860D02*
X3498740Y150160D01*
X3509110Y142540D01*
X3522450Y140000D01*
X3535790Y145080D01*
X3546160Y155240D01*
X3553570Y173020D01*
X3555050Y193340D01*
X3552080Y213660D01*
X3544670Y226360D01*
X3534300Y236520D01*
X3523930Y239060D01*
X3513560Y236520D01*
X3500230Y226360D01*
X3504670Y292400D01*
X3544670D01*
G01X3776450Y134920D02*
X3773490Y137460D01*
Y142540D01*
X3776450Y145080D01*
X3779410Y142540D01*
Y137460D01*
X3776450Y134920D01*
G54D16*
X6440000Y2870000D03*
X6468250Y2710900D03*
X6359780Y2870000D03*
X6530000Y2700000D03*
X6640000Y2940000D03*
X6650000Y2690000D03*
X6460000Y3350000D03*
X6395360Y3205360D03*
X6450000Y3010000D03*
X6460000Y3260000D03*
X6390000Y3140000D03*
X6350000Y3000000D03*
X6540000Y3235000D03*
X6490000Y3730000D03*
X6460000Y3570000D03*
X6430000Y3510000D03*
X6440000Y3690000D03*
X6380000Y3570000D03*
X6390000Y3440000D03*
X6567300Y3527200D03*
X6650000Y3810000D03*
X7050000Y2930000D03*
Y2850000D03*
Y2770000D03*
X6810000Y2930000D03*
X6890000D03*
X6730000D03*
X6810000Y2770000D03*
X6890000D03*
X6730000Y2690000D03*
X6890000Y2850000D03*
X6970000Y2930000D03*
X6810000Y3170000D03*
X7050000Y3330000D03*
Y3010000D03*
Y3170000D03*
Y3250000D03*
Y3090000D03*
X6970000Y3330000D03*
X6890000D03*
X6810000D03*
X6890000Y3250000D03*
X6810000D03*
X6970000Y3090000D03*
X6890000Y3170000D03*
X6970000D03*
Y3250000D03*
Y3010000D03*
X6890000Y3090000D03*
X6810000D03*
Y3010000D03*
X6890000D03*
X7050000Y3410000D03*
X6970000Y3730000D03*
X6890000D03*
X6970000Y3570000D03*
X6890000Y3650000D03*
X6810000D03*
Y3570000D03*
Y3410000D03*
X6970000D03*
X6730000D03*
X6970000Y3650000D03*
X6890000Y3410000D03*
Y3570000D03*
Y3490000D03*
X6810000D03*
X7050000Y3840000D03*
X6730000Y3810000D03*
X6810000D03*
X6890000D03*
X6970000D03*
X7450000Y2770000D03*
Y2690000D03*
X7370000Y2770000D03*
Y2690000D03*
X7130000Y2770000D03*
Y2690000D03*
Y2930000D03*
X7210000D03*
X7488560Y3174500D03*
X7450000Y3250000D03*
X7370000D03*
X7130000Y3010000D03*
X7210000D03*
Y3090000D03*
Y3330000D03*
Y3250000D03*
X7290000Y3090000D03*
Y3330000D03*
X7210000Y3170000D03*
X7450000Y3730000D03*
X7130000D03*
Y3490000D03*
Y3570000D03*
X7290000Y3410000D03*
X7210000D03*
X7370000Y3810000D03*
X7130000D03*
X8700000Y7150000D03*
X8600000D03*
X8500000D03*
X8400000D03*
X8500000Y7050000D03*
X8600000D03*
X8700000D03*
Y6950000D03*
X8600000D03*
X8500000D03*
X8400000D03*
Y6850000D03*
X8500000D03*
X8600000D03*
X8700000D03*
G54D26*
G01X865000Y8062200D02*
Y8180000D01*
G01D02*
Y8297800D01*
G01X747200Y8180000D02*
X865000D01*
G01D02*
X982800D01*
G01X776620Y8091620D02*
X865000Y8180000D01*
G01D02*
X953380Y8268380D01*
G01X776620D02*
X865000Y8180000D01*
G01D02*
X953380Y8091620D01*
G01X8740000Y315920D02*
Y430000D01*
G01X8654250Y344250D02*
X8740000Y430000D01*
G01D02*
Y544080D01*
G01X8625920Y430000D02*
X8740000D01*
G01D02*
X8854080D01*
G01X8740000D02*
X8825750Y515750D01*
G01X8654250D02*
X8740000Y430000D01*
G01D02*
X8825750Y344250D01*
G54D17*
X7527000Y1801000D03*
X7550000Y4080000D03*
X7750000D03*
X7935000Y3994000D03*
X8144000Y3992000D03*
X8407000Y3989000D03*
X8017000Y4209000D03*
X8273000Y4183000D03*
X8740000Y430000D03*
X9113000Y4599000D03*
X9530000Y430000D03*
X10273000Y4175000D03*
X10278000Y3945000D03*
X10273000Y4389000D03*
X13750000Y4540000D03*
X13915000Y4680000D03*
G54D18*
X7475000Y8862000D03*
X8925000D03*
G54D19*
X7475000Y9459000D03*
X8925000D03*
M02*
