M48
METRIC
T01C.2
T02C.3302
T03C.4064
T04C.85
T05C.9144
T06C.95
T07C1.
T08C1.016
T09C1.05
T10C1.35
T11C1.4986
T12C1.7
T13C2.8
T14C3.302
T15C1.4
T16C1.45
T17C1.55
T18C1.7
;LEADER: 12 
;HEADER: 
;CODE  : ASCII 
;FILE  : pc051a_toplevel_22-1-6.drl for  ... layers TOP and BOTTOM
;DESIGN: pc051a_toplevel_22.brd
;T01 Holesize 1. = 0.200000 Tolerance = +0.000000/-0.000000 PLATED MM Quantity = 116
;T02 Holesize 2. = 0.330200 Tolerance = +0.000000/-0.000000 PLATED MM Quantity = 290
;T03 Holesize 3. = 0.406400 Tolerance = +0.000000/-0.000000 PLATED MM Quantity = 244
;T04 Holesize 4. = 0.850000 Tolerance = +0.000000/-0.000000 PLATED MM Quantity = 2
;T05 Holesize 5. = 0.914400 Tolerance = +0.000000/-0.000000 PLATED MM Quantity = 100
;T06 Holesize 6. = 0.950000 Tolerance = +0.000000/-0.000000 PLATED MM Quantity = 18
;T07 Holesize 7. = 1.000000 Tolerance = +0.000000/-0.000000 PLATED MM Quantity = 102
;T08 Holesize 8. = 1.016000 Tolerance = +0.000000/-0.000000 PLATED MM Quantity = 8
;T09 Holesize 9. = 1.050000 Tolerance = +0.000000/-0.000000 PLATED MM Quantity = 20
;T10 Holesize 10. = 1.350000 Tolerance = +0.000000/-0.000000 PLATED MM Quantity = 4
;T11 Holesize 11. = 1.498600 Tolerance = +0.000000/-0.000000 PLATED MM Quantity = 2
;T12 Holesize 12. = 1.700000 Tolerance = +0.000000/-0.000000 PLATED MM Quantity = 4
;T13 Holesize 13. = 2.800000 Tolerance = +0.000000/-0.000000 PLATED MM Quantity = 2
;T14 Holesize 14. = 3.302000 Tolerance = +0.000000/-0.000000 PLATED MM Quantity = 4
;T15 Holesize 15. = 1.400000 Tolerance = +0.000000/-0.000000 NON_PLATED MM Quantity = 1
;T16 Holesize 16. = 1.450000 Tolerance = +0.000000/-0.000000 NON_PLATED MM Quantity = 6
;T17 Holesize 17. = 1.550000 Tolerance = +0.000000/-0.000000 NON_PLATED MM Quantity = 4
;T18 Holesize 18. = 1.700000 Tolerance = +0.000000/-0.000000 NON_PLATED MM Quantity = 1
%
G90
T01
X06890000Y03010000
X06810000Y03010000
X06810000Y03090000
X06890000Y03090000
X06970000Y02930000
X06810000Y03490000
X06890000Y03490000
X06890000Y03570000
X06890000Y03410000
X07290000Y03090000
X07210000Y03410000
X07210000Y02930000
X07210000Y03170000
X07290000Y03330000
X07210000Y03090000
X07290000Y03410000
X07210000Y03010000
X07210000Y03250000
X07210000Y03330000
X06970000Y03650000
X07130000Y03570000
X07130000Y03490000
X07130000Y02930000
X07130000Y03010000
X07370000Y03250000
X07450000Y03250000
X06890000Y02850000
X06730000Y02690000
X06650000Y02690000
X06890000Y02770000
X06810000Y02770000
X06640000Y02940000
X06730000Y02930000
X06890000Y02930000
X06810000Y02930000
X07130000Y02690000
X07050000Y02770000
X07130000Y02770000
X07370000Y02690000
X07370000Y02770000
X07450000Y02690000
X07450000Y02770000
X06540000Y03235000
X06970000Y03010000
X06970000Y03250000
X06970000Y03170000
X06890000Y03170000
X06970000Y03090000
X06810000Y03250000
X06890000Y03250000
X06810000Y03330000
X06890000Y03330000
X06730000Y03410000
X06970000Y03330000
X06970000Y03410000
X06810000Y03410000
X07050000Y03090000
X07050000Y03250000
X07050000Y03170000
X07050000Y03010000
X07050000Y03330000
X06810000Y03170000
X07488560Y03174500
X07130000Y03730000
X06810000Y03570000
X06810000Y03650000
X06890000Y03650000
X06970000Y03570000
X06890000Y03730000
X06970000Y03730000
X06567300Y03527200
X06970000Y03810000
R04X-00080000
X07130000Y03810000
X07050000Y03840000
X07290000Y03730000
X07370000Y03810000
X07290000Y03810000
X07450000Y03730000
X07050000Y03410000
X07050000Y02850000
X07050000Y02930000
X06530000Y02700000
X06359780Y02870000
X06350000Y03000000
X06390000Y03140000
X06460000Y03260000
X06390000Y03440000
X06380000Y03570000
X06440000Y03690000
X06468250Y02710900
X06440000Y02870000
X06450000Y03010000
X06395360Y03205360
X06460000Y03350000
X06430000Y03510000
X06460000Y03570000
X06490000Y03730000
X08700000Y06850000
R03X-00100000
X08400000Y06950000
R03X00100000
X08700000Y07050000
R02X-00100000
X08400000Y07150000
R03X00100000
T02
X13165000Y04725000
X10161000Y04531000
X07962000Y07370000
X07836000Y07990000
X10229000Y04719000
X07742340Y07297660
X07804000Y07826000
X11831000Y04095000
X11713000Y03570000
X12302000Y02994000
X13437000Y03045380
X13491000Y03400000
X12097000Y03983000
X12171000Y03742500
X12286340Y03777660
X11975000Y04255000
X13242320Y03207320
X12074000Y03278000
X12146000Y03129000
X11732000Y03964000
X11684000Y03461000
X12427000Y02991000
X13450000Y02940380
X13564000Y03483000
X11991000Y03906000
X12026000Y03797000
X12411000Y03768000
X12154000Y04246000
X13367000Y03181000
X12062960Y03402030
X12256970Y03125280
X08388000Y03007180
X08146880Y03413120
X10232380Y03269620
X10270000Y03750000
X08733000Y03912000
X10143000Y03761000
X10227380Y02988620
X07931960Y03220040
X08868000Y03484000
X08643000Y03741920
X10065000Y03539000
X08512000Y03051180
X08198970Y03361030
X10180290Y03321710
X10370000Y03790000
X08806000Y03861000
X10016560Y03790560
X10175290Y03040710
X07879870Y03272130
X08759000Y03487000
X09179000Y03469000
X09101000Y03367000
X08547000Y03813000
X10132000Y03641000
X11522000Y02721000
X11476000Y00600000
X11802000Y02576380
X11646000Y00276000
X12426000Y01373000
X11789000Y02920000
X11994000Y01914000
X12155000Y01664000
X11609000Y02617000
X11616000Y00832000
X11816000Y02399380
X11524000Y00475000
X12369000Y01840000
X11888000Y02842000
X08630000Y07620000
X08870000Y03010000
X08729000Y05453000
X08619000Y05595000
X08621000Y05752000
X08476820Y06545000
X09059900Y06889900
X09015000Y05476000
X02452300Y06292300
X02300000Y06150000
X03902300Y06292300
X12387000Y07338000
X12399500Y07240500
X12387000Y09056000
X12385000Y08970700
X13320000Y02480000
X14700000Y06780000
X13175000Y02625000
X14880000Y06780000
X13430000Y02390000
X14781000Y06970000
X13286000Y02605000
X14783000Y07223000
X13260000Y02300000
X15180000Y07520000
X15110000Y08210000
X14430000Y06330000
X10720000Y03790000
X13950000Y09180000
X10850000Y04010000
X14160000Y08850000
X10570000Y03960000
X13320000Y09034790
X10710000Y04030000
X13460000Y09110000
X13495000Y05975000
X14140000Y09270000
X02000000Y08200000
X02000000Y08400000
X01900000Y07000000
X10835000Y07095000
X10836000Y06606000
X09990000Y04820000
X10570000Y00282000
X10570000Y00834000
X03900000Y05800000
X10100000Y04800000
X11367590Y06468510
X11133080Y06135920
X11085390Y06498610
X11040000Y06251000
X10763000Y08118000
X10621930Y06118930
X11429250Y06428200
X11185170Y06083830
X11137480Y06446520
X11168000Y06259000
X10815090Y08065910
X10741000Y06113000
X11137910Y05279090
X11005910Y09183180
X12061730Y07610820
X10851910Y05347090
X11973840Y09301320
X10664180Y05407180
X11190000Y05227000
X10953820Y09235270
X11983230Y07503320
X10904000Y05295000
X11920000Y09250000
X10663000Y05310000
X08547000Y00631000
X07958000Y04871000
X12230000Y02420000
X07958000Y04797340
X12320000Y02420000
X08584760Y07525240
X09010000Y02980000
X11769000Y05091000
X11904000Y05064000
X08800000Y06590000
X09120000Y04330000
X08500480Y07430000
X09138000Y04998000
X10010000Y04527000
X08700000Y07700000
X07765000Y05210000
X09100490Y04445490
X08689000Y05042000
X10372250Y04390000
X07762000Y06895000
X07679000Y06773000
X10278000Y04380000
X10089000Y04329000
X07717000Y07165000
X08057000Y06765000
X09229000Y05498000
X09651000Y04477000
X07981000Y06894000
X08514000Y05846000
X09649960Y04662060
X07866000Y06769000
X10590000Y04640000
X09060000Y06360000
X08500000Y04296000
X08930000Y06390000
X08919000Y04290000
X08286000Y02396300
X08436000Y02314000
X10175000Y04191000
X11870000Y04930000
X11973000Y06118000
X07543000Y03900000
X07540000Y04190000
X10310490Y04119510
X07750000Y03800000
X07750000Y04190000
X10338000Y02905000
X10634000Y03153000
X11479000Y05184000
X10332000Y04271000
X11572000Y04806000
X11572000Y06097000
X09927820Y04907820
X09685000Y04825000
X08846000Y03337000
X12180000Y00190000
X09189000Y04848000
X08651000Y04848000
X10901000Y06191000
X10925000Y05434000
X11777000Y05754000
X09286670Y03662530
X09656000Y03642000
X09299000Y03925000
X09110000Y06490000
X04709640Y09130640
X06405640Y07239640
X05918000Y06906000
X12628000Y09150000
X12636000Y09050000
X12694000Y08743000
X12382000Y07443000
X12240000Y07714000
X12651000Y07446000
X12645000Y07338000
X12094000Y07098000
X12089000Y06946300
X12645000Y07150000
X12745000Y07000000
X11375000Y06073000
X11061000Y06074000
X11023000Y05740000
X11554200Y05736000
X09663000Y03980000
X09657000Y03425000
X09655000Y03190000
X09333000Y03202000
X09648000Y02925000
X09950000Y02925000
X09357000Y02675000
X08581000Y08940000
X08200000Y08969000
X07819000Y08959000
X11070000Y09019000
X11439000Y08638000
X11435000Y09400000
X09815000Y08638000
X09815000Y09019000
X09809000Y09400000
X12381820Y09150500
X12062000Y08831000
X12240000Y09455000
X12240000Y08605000
X13198500Y08710500
X12920500Y09350500
X13208500Y09430500
X13235500Y06960500
X13222500Y07680500
X12843000Y03402800
X12838000Y03575000
X13195000Y04214000
X13208000Y03608000
X12827500Y02682500
X12860000Y02880000
X12841000Y03075000
X12531000Y04075000
X12450000Y04310000
X12526000Y04425000
X12529000Y04725000
X12529000Y04875000
X11800000Y00309000
X12431000Y00200000
X11750000Y08248000
X12883000Y00200000
X11800000Y00735000
X12847000Y03825000
X12849000Y04252000
X12912500Y07600500
X10199000Y09400000
X10212000Y09019000
X10186000Y08638000
X11079000Y09400000
X11021000Y08681000
X11426000Y09019000
X10775000Y05420000
X12718000Y07602000
X12630000Y08880000
X12737000Y09300000
X07819000Y08609000
X07110000Y08110000
X08469000Y02985000
X08438000Y03808000
X10309000Y02709000
X11473000Y03985000
X11769000Y04857000
X11396000Y04967000
X11396000Y05297000
X10174000Y02781000
X10795000Y03153000
X11667000Y06226000
T03
X07000000Y04395000
X06850000Y02560000
X06590000Y02580000
X06680000Y03930000
X06945000Y03935000
X07015000Y04200000
X09149000Y07510000
X08950000Y07285000
X08075580Y08447000
X08733000Y08450000
X03440000Y01430000
X05240000Y01430000
X03440000Y02430000
X05240000Y02430000
X03440000Y03430000
X05240000Y03430000
X03440000Y04430000
X05240000Y04430000
X02200000Y06030000
X03650000Y06030000
X03610000Y06410000
X03440000Y02050000
X05240000Y02050000
X03440000Y03050000
X05240000Y03050000
X03440000Y04050000
X05240000Y04050000
X03440000Y05050000
X05240000Y05050000
X03760000Y06180000
X11682700Y09060000
X11909000Y08881000
X14588000Y07040500
X13240000Y02420000
X12880500Y07360500
X12120000Y06110000
X14560000Y08820000
X13550000Y06180000
X09465000Y04945000
X09327000Y04825000
X09610000Y04775000
X09314780Y04707800
X12860000Y04740000
X12860000Y04880000
X13145000Y04925000
X11750000Y06783000
X07096000Y07821000
X05696000Y07521000
X07096000Y06821000
X06796000Y07421000
X09100000Y07845000
X11750000Y07764000
X11750000Y08532000
X11750000Y09516000
X02450000Y05790000
X04120000Y05930000
X05030000Y05900000
X02680000Y05942300
X03450000Y06060000
X04000000Y09200000
X04000000Y09400000
X05300000Y08700000
X05300000Y09700000
X05100000Y09300000
X02580000Y06298210
X02750000Y06220000
X02900000Y06220000
X05696000Y07321000
X04350000Y06220000
X04200000Y06220000
X04030000Y06298210
X04180000Y04530000
X04180000Y03530000
X02380000Y02530000
X04180000Y01530000
X04180000Y04970000
X04180000Y03970000
X02380000Y02970000
X04180000Y01970000
X07750000Y04590000
X07300000Y04400000
X07300000Y04181580
X03700000Y09700000
X03700000Y08700000
X02400000Y09200000
X02400000Y09400000
X07540000Y04580000
X07310000Y07950000
X09667000Y04147000
X09316000Y04454000
X02550000Y06720000
X02150000Y06590000
X02750000Y06470000
X04350000Y06480000
X04200000Y06470000
X03900000Y06680000
X03600000Y06670000
X03850000Y06800000
X01813480Y06253480
X06596000Y07756000
X04157000Y08810000
X02555000Y08810000
X04900000Y09635000
X03109640Y09128640
X13283000Y04379000
X13248000Y04997420
X11375000Y05712000
X11252000Y05432000
X11225000Y05759000
X10549000Y05346000
X10625000Y05801580
X08800000Y07610000
X08075580Y08293000
X08725420Y08293000
X09100000Y08254000
X08623000Y06455000
X09160000Y06910000
X10175000Y06576000
X09568000Y06700000
X10299500Y07312000
X11653000Y07945000
X05696000Y06621000
X03820000Y01610000
X03820000Y01430000
X05620000Y01610000
X05620000Y01430000
X02400000Y01750000
X03440000Y01740000
X03820000Y01870000
X03820000Y02050000
X04200000Y01750000
X05240000Y01740000
X05620000Y01870000
X05620000Y02050000
X03820000Y02430000
X05620000Y02430000
X06460000Y02570000
X06710000Y02560000
X02400000Y02750000
X03440000Y02740000
X03820000Y02610000
X03820000Y02870000
X04200000Y02750000
X05240000Y02740000
X05620000Y02610000
X05620000Y02870000
X06890000Y02660000
X03820000Y03050000
X05620000Y03050000
X06530000Y03080000
X07705000Y03180000
X07580000Y03370000
X02400000Y03750000
X03440000Y03740000
X03820000Y03610000
X03820000Y03430000
X04200000Y03750000
X05240000Y03740000
X05620000Y03610000
X05620000Y03430000
X03820000Y03870000
X03820000Y04050000
X05620000Y03870000
X05620000Y04050000
X06545000Y03930000
X06820000Y03930000
X03820000Y04610000
X03820000Y04430000
X05620000Y04610000
X05620000Y04430000
X02400000Y04750000
X03440000Y04740000
X03820000Y05050000
X03820000Y04870000
X04200000Y04750000
X05240000Y04740000
X05620000Y05050000
X05620000Y04870000
X03800000Y08500000
R04Y-00200000
X02400000Y08500000
R03Y-00200000
X05400000Y08500000
R03Y-00200000
X02400000Y07700000
R02Y-00200000
X03800000Y07500000
X03800000Y07300000
X05400000Y07700000
R02Y-00200000
X05696000Y06421000
R03Y-00200000
X05703000Y05609000
X05701000Y05402000
X07111000Y05424000
X07106000Y05620000
X07096000Y05821000
R04Y00200000
X11840000Y09695000
X11750000Y06517000
X10535000Y07298000
X10685000Y07092000
X10898000Y05754000
X10689370Y05719710
X13440000Y05000000
X13604000Y04391000
X03300000Y09639000
X01911100Y06151100
X03590000Y06527700
X04110000Y06690000
X02900000Y06480000
X02710000Y06590000
X03949000Y06051000
X02500000Y06050000
X05240000Y01610000
X03440000Y01610000
X05240000Y02610000
X03440000Y02610000
X03440000Y03610000
X05240000Y03610000
X03440000Y04610000
X05240000Y04610000
X05240000Y01870000
X03440000Y01870000
X05240000Y02870000
X03440000Y02870000
X03440000Y03870000
X05240000Y03870000
X03440000Y04870000
X05240000Y04870000
T04
X12740000Y08337500
X12740000Y06587500
T05
X08892000Y00434000
X08892000Y00634000
X09092000Y00434000
X09092000Y00634000
X09292000Y00434000
X09292000Y00634000
X09492000Y00434000
X09492000Y00634000
X09692000Y00434000
X09692000Y00634000
X09892000Y00434000
X09892000Y00634000
X10092000Y00434000
X10092000Y00634000
X13950000Y05450000
X14204000Y05450000
X13950000Y05196000
X14204000Y05196000
X13950000Y04942000
X14204000Y04942000
X13950000Y04688000
X14204000Y04688000
X13950000Y04434000
X14204000Y04434000
X13950000Y04180000
X14204000Y04180000
X13950000Y03926000
X14204000Y03926000
X13950000Y03672000
X14204000Y03672000
X13950000Y03418000
X14204000Y03418000
X13950000Y03164000
X14204000Y03164000
X13950000Y02910000
X14204000Y02910000
X13950000Y02656000
X14204000Y02656000
X13950000Y02402000
X14204000Y02402000
X13950000Y02148000
X14204000Y02148000
X13950000Y01894000
X14204000Y01894000
X13950000Y01640000
X14204000Y01640000
X13950000Y01386000
X14204000Y01386000
X08800000Y08050000
R02X-00254000
X09300000Y06700000
R02Y00254000
X08750000Y06150000
R02X-00254000
X05696000Y07721000
R02X00254000
X04000000Y09600000
R02X00254000
X02400000Y09600000
R02X00254000
X15100000Y05400000
X15354000Y05400000
X15100000Y05146000
X15354000Y05146000
X15100000Y04892000
X15354000Y04892000
X15100000Y04638000
X15354000Y04638000
X15100000Y04384000
X15354000Y04384000
X15100000Y04130000
X15354000Y04130000
X15100000Y03876000
X15354000Y03876000
X15100000Y03622000
X15354000Y03622000
X15100000Y03368000
X15354000Y03368000
X15100000Y03114000
X15354000Y03114000
X15100000Y02860000
X15354000Y02860000
X15100000Y02606000
X15354000Y02606000
X15100000Y02352000
X15354000Y02352000
X15100000Y02098000
X15354000Y02098000
X15100000Y01844000
X15354000Y01844000
X15100000Y01590000
X15354000Y01590000
X15100000Y01336000
X15354000Y01336000
T06
X13460000Y08337500
X12990000Y08337500
X12490000Y08337500
X13460000Y09762500
X12990000Y09762500
X12490000Y09762500
X12030000Y08570500
R02Y00480000
X13460000Y06587500
X12990000Y06587500
X12490000Y06587500
X13460000Y08012500
X12990000Y08012500
X12490000Y08012500
X12030000Y06820500
R02Y00480000
T07
X00611000Y01068000
R31Y00254000
X00865000Y01068000
R31Y00254000
X01119000Y01068000
R31Y00254000
X12735000Y02152500
X12735000Y05147500
X09535000Y02152500
X09535000Y05147500
X12247500Y05635000
X10252500Y05635000
T08
X11210000Y03870000
X10970000Y03660000
X12070000Y00380000
X10970000Y03380000
X13430000Y05500000
X08510000Y04500000
X13350000Y00280000
X13740000Y00290000
T09
X15740000Y08337500
R02X-01000000
X15240000Y09762500
R03X-01000000
X15740000Y09195500
X13740000Y08905500
X13740000Y09445500
X15740000Y06587500
R02X-01000000
X15240000Y08012500
R03X-01000000
X15740000Y07445500
X13740000Y07155500
X13740000Y07695500
T10
X10100000Y09646000
X10000000Y08363000
X11350000Y09646000
X11250000Y08363000
T11
X06534000Y08511000
X06026000Y08511000
T12
X09120000Y08750000
X07280000Y08750000
X09120000Y09645000
X07280000Y09645000
T13
X00357000Y00560000
X00357000Y09450000
T14
X12950000Y01450000
X12950000Y05850000
X09550000Y01450000
X09550000Y05850000
T15
X08920000Y08995000
T16
X12935000Y02300000
X12935000Y05000000
X09735000Y02300000
X09735000Y05000000
X12100000Y05835000
X10400000Y05835000
T17
X12650000Y08570500
X12650000Y09530500
X12650000Y06820500
X12650000Y07780500
T18
X07480000Y09085000
M30
