M48
METRIC
T01C.2
T02C.3302
T03C.4064
T04C.85
T05C.9144
T06C.95
T07C1.
T08C1.016
T09C1.05
T10C1.35
T11C1.4986
T12C2.8
T13C3.302
T14C1.45
T15C1.55
;LEADER: 12 
;HEADER: 
;CODE  : ASCII 
;FILE  : pc051b_toplevel_42-1-6.drl for  ... layers TOP and BOTTOM
;DESIGN: pc051b_toplevel_42.brd
;T01 Holesize 1. = 0.200000 Tolerance = +0.000000/-0.000000 PLATED MM Quantity = 114
;T02 Holesize 2. = 0.330200 Tolerance = +0.000000/-0.000000 PLATED MM Quantity = 249
;T03 Holesize 3. = 0.406400 Tolerance = +0.000000/-0.000000 PLATED MM Quantity = 226
;T04 Holesize 4. = 0.850000 Tolerance = +0.000000/-0.000000 PLATED MM Quantity = 2
;T05 Holesize 5. = 0.914400 Tolerance = +0.000000/-0.000000 PLATED MM Quantity = 72
;T06 Holesize 6. = 0.950000 Tolerance = +0.000000/-0.000000 PLATED MM Quantity = 18
;T07 Holesize 7. = 1.000000 Tolerance = +0.000000/-0.000000 PLATED MM Quantity = 102
;T08 Holesize 8. = 1.016000 Tolerance = +0.000000/-0.000000 PLATED MM Quantity = 16
;T09 Holesize 9. = 1.050000 Tolerance = +0.000000/-0.000000 PLATED MM Quantity = 20
;T10 Holesize 10. = 1.350000 Tolerance = +0.000000/-0.000000 PLATED MM Quantity = 4
;T11 Holesize 11. = 1.498600 Tolerance = +0.000000/-0.000000 PLATED MM Quantity = 2
;T12 Holesize 12. = 2.800000 Tolerance = +0.000000/-0.000000 PLATED MM Quantity = 2
;T13 Holesize 13. = 3.302000 Tolerance = +0.000000/-0.000000 PLATED MM Quantity = 4
;T14 Holesize 14. = 1.450000 Tolerance = +0.000000/-0.000000 NON_PLATED MM Quantity = 6
;T15 Holesize 15. = 1.550000 Tolerance = +0.000000/-0.000000 NON_PLATED MM Quantity = 4
%
G90
T01
X06890000Y03010000
X06810000Y03010000
X06810000Y03090000
X06890000Y03090000
X06970000Y02930000
X06810000Y03490000
X06890000Y03490000
X06890000Y03570000
X06890000Y03410000
X07210000Y03170000
X07210000Y03410000
X07290000Y03330000
X07290000Y03090000
X07210000Y02930000
X07210000Y03250000
X07290000Y03410000
X07210000Y03330000
X07210000Y03090000
X07210000Y03010000
X06970000Y03650000
X07130000Y03570000
X07130000Y03490000
X07130000Y02930000
X07130000Y03010000
X07370000Y03250000
X07450000Y03250000
X06890000Y02850000
X06730000Y02690000
X06650000Y02690000
X06890000Y02770000
X06810000Y02770000
X06640000Y02940000
X06730000Y02930000
X06890000Y02930000
X06810000Y02930000
X07130000Y02690000
X07050000Y02770000
X07130000Y02770000
X07370000Y02690000
X07370000Y02770000
X07450000Y02690000
X07450000Y02770000
X06540000Y03235000
X06970000Y03010000
X06970000Y03250000
X06970000Y03170000
X06890000Y03170000
X06970000Y03090000
X06810000Y03250000
X06890000Y03250000
X06810000Y03330000
X06890000Y03330000
X06730000Y03410000
X06970000Y03330000
X06970000Y03410000
X06810000Y03410000
X07050000Y03090000
X07050000Y03250000
X07050000Y03170000
X07050000Y03010000
X07050000Y03330000
X06810000Y03170000
X07488560Y03174500
X07130000Y03730000
X06810000Y03570000
X06810000Y03650000
X06890000Y03650000
X06970000Y03570000
X06890000Y03730000
X06970000Y03730000
X06567300Y03527200
X06970000Y03810000
R04X-00080000
X07130000Y03810000
X07050000Y03840000
X07370000Y03810000
X07450000Y03730000
X07050000Y03410000
X07050000Y02850000
X07050000Y02930000
X06530000Y02700000
X06359780Y02870000
X06350000Y03000000
X06390000Y03140000
X06460000Y03260000
X06390000Y03440000
X06380000Y03570000
X06440000Y03690000
X06468250Y02710900
X06440000Y02870000
X06450000Y03010000
X06395360Y03205360
X06460000Y03350000
X06430000Y03510000
X06460000Y03570000
X06490000Y03730000
X08700000Y06850000
R03X-00100000
X08400000Y06950000
R03X00100000
X08700000Y07050000
R02X-00100000
X08400000Y07150000
R03X00100000
T02
X13260000Y09030000
X12280000Y04290000
X14210000Y07330000
X12307000Y04413000
X13580000Y07040000
X12390000Y04580000
X12430000Y04660000
X14230000Y06780000
X13270000Y04585680
X14430000Y06960000
X13420000Y04530000
X12325000Y04535000
X14340000Y07520000
X12453210Y04372400
X13980000Y08120000
X13390000Y04370000
X12375000Y04325000
X13890000Y08690000
X13583000Y04239000
X14220000Y08500000
X13460000Y09110000
X13677000Y04088000
X13496000Y04296000
X03690000Y09208000
X06124000Y09015000
X05448000Y09015000
X11384000Y05324000
X11474000Y05328000
X09215430Y02530430
X07962000Y07370000
X07836000Y07990000
X09111860Y02582860
X07742340Y07297660
X07804000Y07826000
X10182000Y03450000
X08830350Y03343130
X10100080Y03391800
X10111310Y03681520
X09690830Y03480000
X08899120Y03056820
X09287000Y02930830
X10150000Y03237170
X10050000Y03069170
X10091140Y03505500
X08830350Y03269470
X10026730Y03363620
X10111310Y03607860
X09617170Y03480000
X08973230Y03056820
X09274000Y03010000
X10150000Y03310830
X10050000Y03142830
X12410000Y03469170
X12480000Y03390830
X13279170Y03690000
X12409170Y03665090
X12410000Y03542830
X12480000Y03317170
X13352830Y03690000
X12482830Y03665090
X10305000Y02598000
X11565000Y00560000
X10231250Y02347000
X11646000Y00276000
X09325000Y03623820
X09310000Y03740000
X11616000Y00832000
X10305000Y02469000
X10121000Y02213000
X11454000Y00475000
X08630000Y07620000
X09224170Y04068150
X08729000Y05453000
X08619000Y05595000
X08621000Y05752000
X08476820Y06545000
X09059900Y06889900
X09015000Y05476000
X02452300Y06292300
X02300000Y06150000
X03902300Y06292300
X12387000Y07338000
X12399500Y07240500
X12387000Y09056000
X12385000Y08970700
X12495000Y04125000
X13950000Y09180000
X12410680Y04069320
X14140000Y09270000
X06389000Y09271320
X02000000Y08200000
X02000000Y08400000
X01900000Y07000000
X10835000Y07095000
X10836000Y06606000
X10570000Y00282000
X10570000Y00834000
X10463770Y07801540
X11311290Y05270000
X10530000Y07992670
X11185000Y05254990
X11927330Y06590000
X10930000Y05250000
X11904830Y08657890
X10790860Y05328710
X10515860Y07749450
X11267310Y05330200
X10530000Y08066330
X11132910Y05307080
X10940460Y05330460
X11853670Y06590000
X11890000Y08740000
X10750000Y05390000
X11970000Y07550000
X10845250Y06371500
X11973840Y09301320
X10674460Y06185540
X12030000Y07490000
X10913010Y06342600
X11920000Y09250000
X10726550Y06133450
X08584760Y07525240
X09326000Y04067000
X08800000Y06590000
X10740000Y04913000
X09138000Y04998000
X08243880Y04621880
X08500480Y07430000
X09284000Y02450000
X11390000Y04968680
X11390000Y04482000
X09207000Y05117000
X08700000Y07700000
X07765000Y05210000
X08689000Y05042000
X09205380Y02773820
X07762000Y06895000
X09273780Y02723820
X07679000Y06773000
X07717000Y07165000
X09346820Y02625000
X08057000Y06765000
X09037640Y05675320
X10789000Y04812000
X07981000Y06894000
X08514000Y05846000
X10903000Y04727000
X07866000Y06769000
X10833500Y04243500
X09204800Y02355200
X09060000Y06360000
X08930000Y06390000
X10038000Y02619000
X08286000Y02396300
X08436000Y02314000
X07540000Y04370000
X07750000Y04370000
X08031000Y02705000
X09685000Y04825000
X13163000Y05093000
X08250000Y08980000
X08100000Y08981000
X07800000Y08983000
X09835000Y04942000
X09954000Y04725000
X09953000Y04425000
X09963000Y04296000
X09962000Y04048200
X09964000Y03325000
X09968180Y03033180
X09720000Y02825000
X09714000Y02675000
X06599000Y09533000
X13160000Y04425680
X07833000Y00490000
X07381000Y00490000
X07637000Y01611000
X09637150Y03050000
X09945000Y03825000
X09111000Y04848000
X08651000Y04848000
X10922640Y06053180
X10925000Y05434000
X11777000Y05754000
X09110000Y06490000
X04709640Y09130640
X06405640Y07239640
X05918000Y06906000
X12628000Y09150000
X12636000Y09050000
X12694000Y08743000
X12382000Y07443000
X12240000Y07714000
X12651000Y07446000
X12645000Y07338000
X12096820Y07140450
X12240000Y06852320
X12645000Y07150000
X12745000Y07000000
X11375000Y06073000
X11075000Y06090000
X11023000Y05740000
X11554200Y05736000
X11252000Y05432000
X09640000Y03590000
X09660000Y03320000
X09346050Y03321710
X11070000Y09019000
X11439000Y08638000
X11435000Y09400000
X09815000Y08638000
X09815000Y09019000
X09809000Y09400000
X12381820Y09150500
X12060000Y08870000
X12240000Y09455000
X12240000Y08605000
X13198500Y08710500
X12920500Y09350500
X13208500Y09430500
X13235500Y06960500
X13222500Y07680500
X13180000Y04175000
X11800000Y00309000
X11750000Y08248000
X11800000Y00735000
X12900000Y04175000
X12912500Y07600500
X10199000Y09400000
X10212000Y09019000
X10186000Y08638000
X11079000Y09400000
X11021000Y08681000
X11426000Y09019000
X12718000Y07602000
X12630000Y08880000
X12737000Y09300000
X07110000Y08110000
X12540000Y03175000
X09274000Y03994000
X09960000Y03575000
X07950000Y08978000
X13505000Y05093000
X13083000Y05361000
X13077000Y05468000
X13088000Y05264000
X13324000Y04986000
X08299000Y02559000
X08223000Y02679000
T03
X13420000Y07040500
X12880500Y07360500
X07000000Y04395000
X06850000Y02560000
X06590000Y02580000
X06680000Y03930000
X06945000Y03935000
X07015000Y04200000
X09149000Y07510000
X08950000Y07285000
X08075580Y08447000
X08733000Y08450000
X03440000Y01430000
X05240000Y01430000
X03440000Y02430000
X05240000Y02430000
X03440000Y03430000
X05240000Y03430000
X03440000Y04430000
X05240000Y04430000
X03610000Y06410000
X03440000Y02050000
X05240000Y02050000
X03440000Y03050000
X05240000Y03050000
X03440000Y04050000
X05240000Y04050000
X03440000Y05050000
X05240000Y05050000
X03760000Y06180000
X11682700Y09060000
X11909000Y08881000
X09327000Y04825000
X09314780Y04707800
X12860000Y04740000
X12860000Y04880000
X11750000Y06783000
X07096000Y07821000
X05696000Y07521000
X07096000Y06821000
X06796000Y07421000
X09100000Y07845000
X11750000Y07764000
X11750000Y08532000
X11750000Y09516000
X02450000Y05790000
X04000000Y09200000
X04000000Y09400000
X05300000Y08700000
X05300000Y09700000
X05100000Y09300000
X05696000Y07321000
X04180000Y04530000
X04180000Y03530000
X02380000Y02530000
X04180000Y01530000
X04180000Y04970000
X04180000Y03970000
X02380000Y02970000
X04180000Y01970000
X07750000Y04770000
X07300000Y04400000
X07300000Y04181580
X03700000Y09700000
X03700000Y08700000
X02400000Y09200000
X02400000Y09400000
X07540000Y04760000
X07310000Y07950000
X09639000Y04175000
X09290000Y04580000
X02550000Y06720000
X02150000Y06590000
X02750000Y06470000
X04350000Y06480000
X04200000Y06470000
X03900000Y06680000
X03600000Y06670000
X03850000Y06800000
X01813480Y06253480
X06596000Y07756000
X04157000Y08810000
X02555000Y08810000
X04900000Y09635000
X03109640Y09128640
X11375000Y05712000
X11225000Y05759000
X10549000Y05346000
X10625000Y05801580
X08800000Y07610000
X08075580Y08293000
X08725420Y08293000
X09100000Y08254000
X08623000Y06455000
X09160000Y06910000
X10175000Y06576000
X09568000Y06700000
X10299500Y07312000
X11653000Y07945000
X05696000Y06621000
X03820000Y01610000
X03820000Y01430000
X05620000Y01610000
X05620000Y01430000
X02400000Y01750000
X03440000Y01740000
X03820000Y01870000
X03820000Y02050000
X04200000Y01750000
X05240000Y01740000
X05620000Y01870000
X05620000Y02050000
X03820000Y02430000
X05620000Y02430000
X06460000Y02570000
X06710000Y02560000
X02400000Y02750000
X03440000Y02740000
X03820000Y02610000
X03820000Y02870000
X04200000Y02750000
X05240000Y02740000
X05620000Y02610000
X05620000Y02870000
X06890000Y02660000
X03820000Y03050000
X05620000Y03050000
X06530000Y03080000
X07705000Y03180000
X07580000Y03370000
X02400000Y03750000
X03440000Y03740000
X03820000Y03610000
X03820000Y03430000
X04200000Y03750000
X05240000Y03740000
X05620000Y03610000
X05620000Y03430000
X03820000Y03870000
X03820000Y04050000
X05620000Y03870000
X05620000Y04050000
X06545000Y03930000
X06820000Y03930000
X03820000Y04610000
X03820000Y04430000
X05620000Y04610000
X05620000Y04430000
X02400000Y04750000
X03440000Y04740000
X03820000Y05050000
X03820000Y04870000
X04200000Y04750000
X05240000Y04740000
X05620000Y05050000
X05620000Y04870000
X03800000Y08500000
R04Y-00200000
X02400000Y08500000
R03Y-00200000
X05400000Y08500000
R03Y-00200000
X02400000Y07700000
R02Y-00200000
X03800000Y07500000
X03800000Y07300000
X05400000Y07700000
R02Y-00200000
X05696000Y06421000
R03Y-00200000
X05703000Y05609000
X05701000Y05402000
X07111000Y05424000
X07106000Y05620000
X07096000Y05821000
R04Y00200000
X11840000Y09695000
X11750000Y06517000
X10535000Y07298000
X10685000Y07092000
X10898000Y05754000
X10689370Y05719710
X13604000Y04391000
X03300000Y09639000
X01911100Y06151100
X03590000Y06527700
X04110000Y06690000
X02900000Y06480000
X02710000Y06590000
X03949000Y06051000
X02500000Y06050000
X05240000Y01610000
X03440000Y01610000
X05240000Y02610000
X03440000Y02610000
X03440000Y03610000
X05240000Y03610000
X03440000Y04610000
X05240000Y04610000
X05240000Y01870000
X03440000Y01870000
X05240000Y02870000
X03440000Y02870000
X03440000Y03870000
X05240000Y03870000
X03440000Y04870000
X05240000Y04870000
X12105000Y04440000
X09148000Y03965000
X10135000Y04700000
X02755000Y05670000
X04225000Y05680000
T04
X12740000Y08337500
X12740000Y06587500
T05
X14670000Y00760000
X14670000Y00560000
X14470000Y00760000
X14470000Y00560000
X14270000Y00760000
X14270000Y00560000
X14070000Y00760000
X14070000Y00560000
X13870000Y00760000
X13870000Y00560000
X13670000Y00760000
X13670000Y00560000
X13470000Y00760000
X13470000Y00560000
X11280000Y06450000
R02Y00254000
X08800000Y08050000
R02X-00254000
X09300000Y06700000
R02Y00254000
X08750000Y06150000
R02X-00254000
X11438000Y07362000
R02Y00254000
X05696000Y07721000
R02X00254000
X04000000Y09600000
R02X00254000
X02400000Y09600000
R02X00254000
X15100000Y05400000
X15354000Y05400000
X15100000Y05146000
X15354000Y05146000
X15100000Y04892000
X15354000Y04892000
X15100000Y04638000
X15354000Y04638000
X15100000Y04384000
X15354000Y04384000
X15100000Y04130000
X15354000Y04130000
X15100000Y03876000
X15354000Y03876000
X15100000Y03622000
X15354000Y03622000
X15100000Y03368000
X15354000Y03368000
X15100000Y03114000
X15354000Y03114000
X15100000Y02860000
X15354000Y02860000
X15100000Y02606000
X15354000Y02606000
X15100000Y02352000
X15354000Y02352000
X15100000Y02098000
X15354000Y02098000
X15100000Y01844000
X15354000Y01844000
X15100000Y01590000
X15354000Y01590000
X15100000Y01336000
X15354000Y01336000
T06
X13460000Y08337500
X12990000Y08337500
X12490000Y08337500
X13460000Y09762500
X12990000Y09762500
X12490000Y09762500
X12030000Y08570500
R02Y00480000
X13460000Y06587500
X12990000Y06587500
X12490000Y06587500
X13460000Y08012500
X12990000Y08012500
X12490000Y08012500
X12030000Y06820500
R02Y00480000
T07
X00611000Y01068000
R31Y00254000
X00865000Y01068000
R31Y00254000
X01119000Y01068000
R31Y00254000
X09535000Y02152500
X09535000Y05147500
X12735000Y02152500
X12735000Y05147500
X12247500Y05635000
X10252500Y05635000
T08
X08740000Y00430000
X09530000Y00430000
X10273000Y04175000
X10273000Y04389000
X07550000Y04080000
X08144000Y03992000
X08407000Y03989000
X07750000Y04080000
X08017000Y04209000
X08273000Y04183000
X07935000Y03994000
X07527000Y01801000
X10278000Y03945000
X09113000Y04599000
X13750000Y04540000
X13915000Y04680000
T09
X15740000Y08337500
R02X-01000000
X15240000Y09762500
R03X-01000000
X15740000Y09195500
X13740000Y08905500
X13740000Y09445500
X15740000Y06587500
R02X-01000000
X15240000Y08012500
R03X-01000000
X15740000Y07445500
X13740000Y07155500
X13740000Y07695500
T10
X10100000Y09646000
X10000000Y08363000
X11350000Y09646000
X11250000Y08363000
T11
X06534000Y08511000
X06026000Y08511000
T12
X00357000Y00560000
X00357000Y09450000
T13
X12950000Y01450000
X12950000Y05850000
X09550000Y01450000
X09550000Y05850000
T14
X09735000Y02300000
X09735000Y05000000
X12935000Y02300000
X12935000Y05000000
X12100000Y05835000
X10400000Y05835000
T15
X12650000Y08570500
X12650000Y09530500
X12650000Y06820500
X12650000Y07780500
M30
