G04 ================== begin FILE IDENTIFICATION RECORD ==================*
G04 Layout Name:  pc051b_toplevel_42.brd*
G04 Film Name:    pc051a_DD*
G04 File Format:  Gerber RS274X*
G04 File Origin:  Cadence Allegro 16.6-S035*
G04 Origin Date:  Fri Nov 20 14:16:37 2015*
G04 *
G04 Layer:  MANUFACTURING/NCDRILL_LEGEND*
G04 Layer:  MANUFACTURING/NCDRILL_FIGURE*
G04 Layer:  MANUFACTURING/NCLEGEND-1-6*
G04 Layer:  DRAWING FORMAT/OUTLINE*
G04 Layer:  DRAWING FORMAT/TITLE_BLOCK*
G04 Layer:  DRAWING FORMAT/TITLE_DATA*
G04 Layer:  DRAWING FORMAT/REVISION_BLOCK*
G04 Layer:  DRAWING FORMAT/REVISION_DATA*
G04 Layer:  BOARD GEOMETRY/OUTLINE*
G04 Layer:  BOARD GEOMETRY/DIMENSION*
G04 *
G04 Offset:    (0.0000 0.0000)*
G04 Mirror:    No*
G04 Mode:      Positive*
G04 Rotation:  0*
G04 FullContactRelief:  No*
G04 UndefLineWidth:     0.1270*
G04 ================== end FILE IDENTIFICATION RECORD ====================*
%FSLAX35Y35*MOMM*%
%IR0*IPPOS*OFA0.00000B0.00000*MIA0B0*SFA1.00000B1.00000*%
%AMMACRO16*
1,1,.127,.15,0.0*
20,1,.127,.15,0.0,.147721,-.026047,0.0*
1,1,.127,.147721,-.026047*
20,1,.127,.147721,-.026047,.140954,-.051303,0.0*
1,1,.127,.140954,-.051303*
20,1,.127,.140954,-.051303,.129904,-.075,0.0*
1,1,.127,.129904,-.075*
20,1,.127,.129904,-.075,.114907,-.096418,0.0*
1,1,.127,.114907,-.096418*
20,1,.127,.114907,-.096418,.096418,-.114907,0.0*
1,1,.127,.096418,-.114907*
20,1,.127,.096418,-.114907,.075,-.129904,0.0*
1,1,.127,.075,-.129904*
20,1,.127,.075,-.129904,.051303,-.140954,0.0*
1,1,.127,.051303,-.140954*
20,1,.127,.051303,-.140954,.026047,-.147721,0.0*
1,1,.127,.026047,-.147721*
20,1,.127,.026047,-.147721,0.0,-.15,0.0*
1,1,.127,0.0,-.15*
20,1,.127,0.0,-.15,-.026047,-.147721,0.0*
1,1,.127,-.026047,-.147721*
20,1,.127,-.026047,-.147721,-.051303,-.140954,0.0*
1,1,.127,-.051303,-.140954*
20,1,.127,-.051303,-.140954,-.075,-.129904,0.0*
1,1,.127,-.075,-.129904*
20,1,.127,-.075,-.129904,-.096418,-.114907,0.0*
1,1,.127,-.096418,-.114907*
20,1,.127,-.096418,-.114907,-.114907,-.096418,0.0*
1,1,.127,-.114907,-.096418*
20,1,.127,-.114907,-.096418,-.129904,-.075,0.0*
1,1,.127,-.129904,-.075*
20,1,.127,-.129904,-.075,-.140954,-.051303,0.0*
1,1,.127,-.140954,-.051303*
20,1,.127,-.140954,-.051303,-.147721,-.026047,0.0*
1,1,.127,-.147721,-.026047*
20,1,.127,-.147721,-.026047,-.15,0.0,0.0*
1,1,.127,-.15,0.0*
20,1,.127,-.15,0.0,-.147721,.026047,0.0*
1,1,.127,-.147721,.026047*
20,1,.127,-.147721,.026047,-.140954,.051303,0.0*
1,1,.127,-.140954,.051303*
20,1,.127,-.140954,.051303,-.129904,.075,0.0*
1,1,.127,-.129904,.075*
20,1,.127,-.129904,.075,-.114907,.096418,0.0*
1,1,.127,-.114907,.096418*
20,1,.127,-.114907,.096418,-.096418,.114907,0.0*
1,1,.127,-.096418,.114907*
20,1,.127,-.096418,.114907,-.075,.129904,0.0*
1,1,.127,-.075,.129904*
20,1,.127,-.075,.129904,-.051303,.140954,0.0*
1,1,.127,-.051303,.140954*
20,1,.127,-.051303,.140954,-.026047,.147721,0.0*
1,1,.127,-.026047,.147721*
20,1,.127,-.026047,.147721,0.0,.15,0.0*
1,1,.127,0.0,.15*
20,1,.127,0.0,.15,.026047,.147721,0.0*
1,1,.127,.026047,.147721*
20,1,.127,.026047,.147721,.051303,.140954,0.0*
1,1,.127,.051303,.140954*
20,1,.127,.051303,.140954,.075,.129904,0.0*
1,1,.127,.075,.129904*
20,1,.127,.075,.129904,.096418,.114907,0.0*
1,1,.127,.096418,.114907*
20,1,.127,.096418,.114907,.114907,.096418,0.0*
1,1,.127,.114907,.096418*
20,1,.127,.114907,.096418,.129904,.075,0.0*
1,1,.127,.129904,.075*
20,1,.127,.129904,.075,.140954,.051303,0.0*
1,1,.127,.140954,.051303*
20,1,.127,.140954,.051303,.147721,.026047,0.0*
1,1,.127,.147721,.026047*
20,1,.127,.147721,.026047,.15,0.0,0.0*
1,1,.127,.15,0.0*
%
%ADD16MACRO16*%
%AMMACRO11*
1,1,.127,.7,0.0*
20,1,.127,.7,0.0,-.7,0.0,0.0*
1,1,.127,-.7,0.0*
1,1,.127,0.0,.7*
20,1,.127,0.0,.7,0.0,-.7,0.0*
1,1,.127,0.0,-.7*
%
%ADD11MACRO11*%
%AMMACRO12*
1,1,.127,.508,.508*
20,1,.127,.508,.508,.508,-.508,0.0*
1,1,.127,.508,-.508*
20,1,.127,.508,-.508,-.508,-.508,0.0*
1,1,.127,-.508,-.508*
20,1,.127,-.508,-.508,-.508,.508,0.0*
1,1,.127,-.508,.508*
20,1,.127,-.508,.508,.508,.508,0.0*
1,1,.127,.508,.508*
%
%ADD12MACRO12*%
%AMMACRO10*
1,1,.127,1.4,0.0*
20,1,.127,1.4,0.0,1.378731,-.243107,0.0*
1,1,.127,1.378731,-.243107*
20,1,.127,1.378731,-.243107,1.31557,-.478828,0.0*
1,1,.127,1.31557,-.478828*
20,1,.127,1.31557,-.478828,1.212436,-.7,0.0*
1,1,.127,1.212436,-.7*
20,1,.127,1.212436,-.7,1.072462,-.899903,0.0*
1,1,.127,1.072462,-.899903*
20,1,.127,1.072462,-.899903,.899903,-1.072462,0.0*
1,1,.127,.899903,-1.072462*
20,1,.127,.899903,-1.072462,.7,-1.212436,0.0*
1,1,.127,.7,-1.212436*
20,1,.127,.7,-1.212436,.478828,-1.31557,0.0*
1,1,.127,.478828,-1.31557*
20,1,.127,.478828,-1.31557,.243107,-1.378731,0.0*
1,1,.127,.243107,-1.378731*
20,1,.127,.243107,-1.378731,0.0,-1.4,0.0*
1,1,.127,0.0,-1.4*
20,1,.127,0.0,-1.4,-.243107,-1.378731,0.0*
1,1,.127,-.243107,-1.378731*
20,1,.127,-.243107,-1.378731,-.478828,-1.31557,0.0*
1,1,.127,-.478828,-1.31557*
20,1,.127,-.478828,-1.31557,-.7,-1.212436,0.0*
1,1,.127,-.7,-1.212436*
20,1,.127,-.7,-1.212436,-.899903,-1.072462,0.0*
1,1,.127,-.899903,-1.072462*
20,1,.127,-.899903,-1.072462,-1.072462,-.899903,0.0*
1,1,.127,-1.072462,-.899903*
20,1,.127,-1.072462,-.899903,-1.212436,-.7,0.0*
1,1,.127,-1.212436,-.7*
20,1,.127,-1.212436,-.7,-1.31557,-.478828,0.0*
1,1,.127,-1.31557,-.478828*
20,1,.127,-1.31557,-.478828,-1.378731,-.243107,0.0*
1,1,.127,-1.378731,-.243107*
20,1,.127,-1.378731,-.243107,-1.4,0.0,0.0*
1,1,.127,-1.4,0.0*
20,1,.127,-1.4,0.0,-1.378731,.243107,0.0*
1,1,.127,-1.378731,.243107*
20,1,.127,-1.378731,.243107,-1.31557,.478828,0.0*
1,1,.127,-1.31557,.478828*
20,1,.127,-1.31557,.478828,-1.212436,.7,0.0*
1,1,.127,-1.212436,.7*
20,1,.127,-1.212436,.7,-1.072462,.899903,0.0*
1,1,.127,-1.072462,.899903*
20,1,.127,-1.072462,.899903,-.899903,1.072462,0.0*
1,1,.127,-.899903,1.072462*
20,1,.127,-.899903,1.072462,-.7,1.212436,0.0*
1,1,.127,-.7,1.212436*
20,1,.127,-.7,1.212436,-.478828,1.31557,0.0*
1,1,.127,-.478828,1.31557*
20,1,.127,-.478828,1.31557,-.243107,1.378731,0.0*
1,1,.127,-.243107,1.378731*
20,1,.127,-.243107,1.378731,0.0,1.4,0.0*
1,1,.127,0.0,1.4*
20,1,.127,0.0,1.4,.243107,1.378731,0.0*
1,1,.127,.243107,1.378731*
20,1,.127,.243107,1.378731,.478828,1.31557,0.0*
1,1,.127,.478828,1.31557*
20,1,.127,.478828,1.31557,.7,1.212436,0.0*
1,1,.127,.7,1.212436*
20,1,.127,.7,1.212436,.899903,1.072462,0.0*
1,1,.127,.899903,1.072462*
20,1,.127,.899903,1.072462,1.072462,.899903,0.0*
1,1,.127,1.072462,.899903*
20,1,.127,1.072462,.899903,1.212436,.7,0.0*
1,1,.127,1.212436,.7*
20,1,.127,1.212436,.7,1.31557,.478828,0.0*
1,1,.127,1.31557,.478828*
20,1,.127,1.31557,.478828,1.378731,.243107,0.0*
1,1,.127,1.378731,.243107*
20,1,.127,1.378731,.243107,1.4,0.0,0.0*
1,1,.127,1.4,0.0*
%
%ADD10MACRO10*%
%AMMACRO13*
1,1,.127,.635,0.0*
20,1,.127,.635,0.0,.625353,-.110267,0.0*
1,1,.127,.625353,-.110267*
20,1,.127,.625353,-.110267,.596705,-.217183,0.0*
1,1,.127,.596705,-.217183*
20,1,.127,.596705,-.217183,.549926,-.3175,0.0*
1,1,.127,.549926,-.3175*
20,1,.127,.549926,-.3175,.486438,-.40817,0.0*
1,1,.127,.486438,-.40817*
20,1,.127,.486438,-.40817,.40817,-.486438,0.0*
1,1,.127,.40817,-.486438*
20,1,.127,.40817,-.486438,.3175,-.549926,0.0*
1,1,.127,.3175,-.549926*
20,1,.127,.3175,-.549926,.217183,-.596705,0.0*
1,1,.127,.217183,-.596705*
20,1,.127,.217183,-.596705,.110267,-.625353,0.0*
1,1,.127,.110267,-.625353*
20,1,.127,.110267,-.625353,0.0,-.635,0.0*
1,1,.127,0.0,-.635*
20,1,.127,0.0,-.635,-.110267,-.625353,0.0*
1,1,.127,-.110267,-.625353*
20,1,.127,-.110267,-.625353,-.217183,-.596705,0.0*
1,1,.127,-.217183,-.596705*
20,1,.127,-.217183,-.596705,-.3175,-.549926,0.0*
1,1,.127,-.3175,-.549926*
20,1,.127,-.3175,-.549926,-.40817,-.486438,0.0*
1,1,.127,-.40817,-.486438*
20,1,.127,-.40817,-.486438,-.486438,-.40817,0.0*
1,1,.127,-.486438,-.40817*
20,1,.127,-.486438,-.40817,-.549926,-.3175,0.0*
1,1,.127,-.549926,-.3175*
20,1,.127,-.549926,-.3175,-.596705,-.217183,0.0*
1,1,.127,-.596705,-.217183*
20,1,.127,-.596705,-.217183,-.625353,-.110267,0.0*
1,1,.127,-.625353,-.110267*
20,1,.127,-.625353,-.110267,-.635,0.0,0.0*
1,1,.127,-.635,0.0*
20,1,.127,-.635,0.0,-.625353,.110267,0.0*
1,1,.127,-.625353,.110267*
20,1,.127,-.625353,.110267,-.596705,.217183,0.0*
1,1,.127,-.596705,.217183*
20,1,.127,-.596705,.217183,-.549926,.3175,0.0*
1,1,.127,-.549926,.3175*
20,1,.127,-.549926,.3175,-.486438,.40817,0.0*
1,1,.127,-.486438,.40817*
20,1,.127,-.486438,.40817,-.40817,.486438,0.0*
1,1,.127,-.40817,.486438*
20,1,.127,-.40817,.486438,-.3175,.549926,0.0*
1,1,.127,-.3175,.549926*
20,1,.127,-.3175,.549926,-.217183,.596705,0.0*
1,1,.127,-.217183,.596705*
20,1,.127,-.217183,.596705,-.110267,.625353,0.0*
1,1,.127,-.110267,.625353*
20,1,.127,-.110267,.625353,0.0,.635,0.0*
1,1,.127,0.0,.635*
20,1,.127,0.0,.635,.110267,.625353,0.0*
1,1,.127,.110267,.625353*
20,1,.127,.110267,.625353,.217183,.596705,0.0*
1,1,.127,.217183,.596705*
20,1,.127,.217183,.596705,.3175,.549926,0.0*
1,1,.127,.3175,.549926*
20,1,.127,.3175,.549926,.40817,.486438,0.0*
1,1,.127,.40817,.486438*
20,1,.127,.40817,.486438,.486438,.40817,0.0*
1,1,.127,.486438,.40817*
20,1,.127,.486438,.40817,.549926,.3175,0.0*
1,1,.127,.549926,.3175*
20,1,.127,.549926,.3175,.596705,.217183,0.0*
1,1,.127,.596705,.217183*
20,1,.127,.596705,.217183,.625353,.110267,0.0*
1,1,.127,.625353,.110267*
20,1,.127,.625353,.110267,.635,0.0,0.0*
1,1,.127,.635,0.0*
1,1,.127,.3175,0.0*
20,1,.127,.3175,0.0,-.3175,0.0,0.0*
1,1,.127,-.3175,0.0*
1,1,.127,0.0,.3175*
20,1,.127,0.0,.3175,0.0,-.3175,0.0*
1,1,.127,0.0,-.3175*
%
%ADD13MACRO13*%
%AMMACRO20*
1,1,.127,.289949,-.7*
20,1,.127,.289949,-.7,-.289949,-.7,0.0*
1,1,.127,-.289949,-.7*
20,1,.127,-.289949,-.7,-.7,-.289949,0.0*
1,1,.127,-.7,-.289949*
20,1,.127,-.7,-.289949,-.7,.289949,0.0*
1,1,.127,-.7,.289949*
20,1,.127,-.7,.289949,-.289949,.7,0.0*
1,1,.127,-.289949,.7*
20,1,.127,-.289949,.7,.289949,.7,0.0*
1,1,.127,.289949,.7*
20,1,.127,.289949,.7,.7,.289949,0.0*
1,1,.127,.7,.289949*
20,1,.127,.7,.289949,.7,-.289949,0.0*
1,1,.127,.7,-.289949*
20,1,.127,.7,-.289949,.289949,-.7,0.0*
1,1,.127,.289949,-.7*
1,1,.127,-.6183,-.35*
20,1,.127,-.6183,-.35,-.6183,.35,0.0*
1,1,.127,-.6183,.35*
20,1,.127,-.6183,.35,-.0817,-.35,0.0*
1,1,.127,-.0817,-.35*
20,1,.127,-.0817,-.35,-.0817,.35,0.0*
1,1,.127,-.0817,.35*
1,1,.127,.1168,-.35*
20,1,.127,.1168,-.35,.1168,.35,0.0*
1,1,.127,.1168,.35*
20,1,.127,.1168,.35,.3968,.35,0.0*
1,1,.127,.3968,.35*
20,1,.127,.3968,.35,.4901,.315,0.0*
1,1,.127,.4901,.315*
20,1,.127,.4901,.315,.5601,.2333,0.0*
1,1,.127,.5601,.2333*
20,1,.127,.5601,.2333,.5834,.14,0.0*
1,1,.127,.5834,.14*
20,1,.127,.5834,.14,.5601,.0467,0.0*
1,1,.127,.5601,.0467*
20,1,.127,.5601,.0467,.5018,-.0233,0.0*
1,1,.127,.5018,-.0233*
20,1,.127,.5018,-.0233,.3968,-.0584,0.0*
1,1,.127,.3968,-.0584*
20,1,.127,.3968,-.0584,.1168,-.0584,0.0*
1,1,.127,.1168,-.0584*
%
%ADD20MACRO20*%
%AMMACRO15*
1,1,.127,1.0795,0.0*
20,1,.127,1.0795,0.0,0.0,-1.0795,0.0*
1,1,.127,0.0,-1.0795*
20,1,.127,0.0,-1.0795,-1.0795,0.0,0.0*
1,1,.127,-1.0795,0.0*
20,1,.127,-1.0795,0.0,0.0,1.0795,0.0*
1,1,.127,0.0,1.0795*
20,1,.127,0.0,1.0795,1.0795,0.0,0.0*
1,1,.127,1.0795,0.0*
%
%ADD15MACRO15*%
%AMMACRO19*
1,1,.127,-.5792,-.9145*
20,1,.127,-.5792,-.9145,-.5792,.9145,0.0*
1,1,.127,-.5792,.9145*
20,1,.127,-.5792,.9145,.5792,.9145,0.0*
1,1,.127,.5792,.9145*
1,1,.127,.1524,.0305*
20,1,.127,.1524,.0305,-.5792,.0305,0.0*
1,1,.127,-.5792,.0305*
%
%ADD19MACRO19*%
%AMMACRO17*
1,1,.127,.2438,.061*
20,1,.127,.2438,.061,.3658,.1524,0.0*
1,1,.127,.3658,.1524*
20,1,.127,.3658,.1524,.4572,.3048,0.0*
1,1,.127,.4572,.3048*
20,1,.127,.4572,.3048,.5182,.5182,0.0*
1,1,.127,.5182,.5182*
20,1,.127,.5182,.5182,.4572,.701,0.0*
1,1,.127,.4572,.701*
20,1,.127,.4572,.701,.3353,.8229,0.0*
1,1,.127,.3353,.8229*
20,1,.127,.3353,.8229,.1219,.9144,0.0*
1,1,.127,.1219,.9144*
20,1,.127,.1219,.9144,-.701,.9144,0.0*
1,1,.127,-.701,.9144*
20,1,.127,-.701,.9144,-.701,-.9144,0.0*
1,1,.127,-.701,-.9144*
20,1,.127,-.701,-.9144,.3048,-.9144,0.0*
1,1,.127,.3048,-.9144*
20,1,.127,.3048,-.9144,.5182,-.7925,0.0*
1,1,.127,.5182,-.7925*
20,1,.127,.5182,-.7925,.6401,-.6096,0.0*
1,1,.127,.6401,-.6096*
20,1,.127,.6401,-.6096,.701,-.3962,0.0*
1,1,.127,.701,-.3962*
20,1,.127,.701,-.3962,.6401,-.1829,0.0*
1,1,.127,.6401,-.1829*
20,1,.127,.6401,-.1829,.4572,0.0,0.0*
1,1,.127,.4572,0.0*
20,1,.127,.4572,0.0,.2438,.061,0.0*
1,1,.127,.2438,.061*
20,1,.127,.2438,.061,-.701,.061,0.0*
1,1,.127,-.701,.061*
%
%ADD17MACRO17*%
%AMMACRO14*
1,1,.127,0.0,.762*
20,1,.127,0.0,.762,.762,-.762,0.0*
1,1,.127,.762,-.762*
20,1,.127,.762,-.762,-.762,-.762,0.0*
1,1,.127,-.762,-.762*
20,1,.127,-.762,-.762,0.0,.762,0.0*
1,1,.127,0.0,.762*
%
%ADD14MACRO14*%
%AMMACRO18*
1,1,.127,0.0,-1.143*
20,1,.127,0.0,-1.143,0.0,-.1143,0.0*
1,1,.127,0.0,-.1143*
20,1,.127,0.0,-.1143,-.762,1.143,0.0*
1,1,.127,-.762,1.143*
1,1,.127,.762,1.143*
20,1,.127,.762,1.143,0.0,-.1143,0.0*
1,1,.127,0.0,-.1143*
%
%ADD18MACRO18*%
%ADD21C,.3048*%
%ADD22C,.127*%
G75*
%LPD*%
G75*
G54D10*
X357000Y560000D03*
Y9450000D03*
X20321500Y10021350D03*
G54D20*
Y8593950D03*
G54D11*
X611000Y1322000D03*
Y1068000D03*
Y1576000D03*
Y2084000D03*
Y1830000D03*
Y2592000D03*
Y2338000D03*
Y2846000D03*
Y3354000D03*
Y3100000D03*
Y3862000D03*
Y3608000D03*
Y4116000D03*
Y4624000D03*
Y4370000D03*
Y5132000D03*
Y4878000D03*
Y5386000D03*
Y5894000D03*
Y5640000D03*
Y6148000D03*
Y6656000D03*
Y6402000D03*
Y7164000D03*
Y6910000D03*
Y7418000D03*
Y7926000D03*
Y7672000D03*
Y8434000D03*
Y8180000D03*
Y8688000D03*
Y8942000D03*
X1119000Y1322000D03*
Y1068000D03*
X865000Y1322000D03*
Y1068000D03*
X1119000Y1576000D03*
X865000D03*
X1119000Y2084000D03*
Y1830000D03*
X865000Y2084000D03*
Y1830000D03*
X1119000Y2592000D03*
Y2338000D03*
X865000Y2592000D03*
Y2338000D03*
X1119000Y2846000D03*
X865000D03*
X1119000Y3354000D03*
Y3100000D03*
X865000Y3354000D03*
Y3100000D03*
X1119000Y3862000D03*
Y3608000D03*
X865000Y3862000D03*
Y3608000D03*
X1119000Y4116000D03*
X865000D03*
X1119000Y4624000D03*
Y4370000D03*
X865000Y4624000D03*
Y4370000D03*
X1119000Y5132000D03*
Y4878000D03*
X865000Y5132000D03*
Y4878000D03*
X1119000Y5386000D03*
X865000D03*
X1119000Y5894000D03*
Y5640000D03*
X865000Y5894000D03*
Y5640000D03*
X1119000Y6148000D03*
X865000D03*
X1119000Y6656000D03*
Y6402000D03*
X865000Y6656000D03*
Y6402000D03*
X1119000Y7164000D03*
Y6910000D03*
X865000Y7164000D03*
Y6910000D03*
X1119000Y7418000D03*
X865000D03*
X1119000Y7926000D03*
Y7672000D03*
X865000Y7926000D03*
Y7672000D03*
X1119000Y8434000D03*
Y8180000D03*
X865000Y8434000D03*
Y8180000D03*
X1119000Y8688000D03*
X865000D03*
X1119000Y8942000D03*
X865000D03*
X9535000Y2152500D03*
Y5147500D03*
X9735000Y2300000D03*
Y5000000D03*
X10400000Y5835000D03*
X10252500Y5635000D03*
X12100000Y5835000D03*
X12030000Y6820500D03*
Y7300500D03*
Y7780500D03*
Y8570500D03*
Y9050500D03*
Y9530500D03*
X12247500Y5635000D03*
X12650000Y6820500D03*
X12490000Y6587500D03*
X12650000Y7780500D03*
X12490000Y8012500D03*
X12240000D03*
X12490000Y8337500D03*
X12650000Y8570500D03*
Y9530500D03*
X12490000Y9762500D03*
X12240000D03*
X12735000Y2152500D03*
X12935000Y2300000D03*
Y5000000D03*
X12735000Y5147500D03*
X12990000Y6587500D03*
X12740000D03*
X12990000Y8012500D03*
Y8337500D03*
X12740000D03*
X12990000Y9762500D03*
X13460000Y6587500D03*
Y8012500D03*
X13240000D03*
X13460000Y8337500D03*
Y9762500D03*
X13240000D03*
X13740000Y6587500D03*
Y7155500D03*
Y7695500D03*
Y8337500D03*
Y8905500D03*
Y9445500D03*
X14240000Y8012500D03*
Y9762500D03*
X14740000Y6587500D03*
Y8337500D03*
X15240000Y8012500D03*
Y9762500D03*
X15740000Y6587500D03*
Y7445500D03*
Y8337500D03*
Y9195500D03*
X20321500Y6452850D03*
Y7166550D03*
Y7880250D03*
Y10735050D03*
Y12876150D03*
Y14303550D03*
Y15017250D03*
Y16444650D03*
G54D21*
G01X13853000Y-1727000D02*
X-3927000D01*
G01X29484160Y-901500D02*
G03I-200660J0D01*
G54D12*
X1911100Y6151100D03*
X1813480Y6253480D03*
X2400000Y1750000D03*
X2380000Y2530000D03*
X2400000Y2750000D03*
X2380000Y2970000D03*
X2400000Y3750000D03*
Y4750000D03*
X2450000Y5790000D03*
X2200000Y6030000D03*
X2150000Y6590000D03*
X2400000Y7300000D03*
Y7500000D03*
Y7700000D03*
Y7900000D03*
Y8100000D03*
Y8300000D03*
Y8500000D03*
Y9200000D03*
Y9400000D03*
X2500000Y6050000D03*
X2900000Y6220000D03*
X2750000D03*
X2580000Y6298210D03*
X2680000Y5942300D03*
X2710000Y6590000D03*
X2900000Y6480000D03*
X2750000Y6470000D03*
X2550000Y6720000D03*
X2555000Y8810000D03*
X3109640Y9128640D03*
X3300000Y9639000D03*
X3440000Y1610000D03*
Y1430000D03*
Y1870000D03*
Y1740000D03*
Y2050000D03*
Y2430000D03*
Y2870000D03*
Y2610000D03*
Y2740000D03*
Y3050000D03*
Y3610000D03*
Y3740000D03*
Y3430000D03*
Y3870000D03*
Y4050000D03*
Y4610000D03*
Y4430000D03*
Y4870000D03*
Y4740000D03*
Y5050000D03*
X3450000Y6060000D03*
X3650000Y6030000D03*
X3590000Y6527700D03*
X3600000Y6670000D03*
X3610000Y6410000D03*
X3700000Y8700000D03*
Y9700000D03*
X3820000Y1430000D03*
Y1610000D03*
Y2050000D03*
Y1870000D03*
Y2430000D03*
Y2870000D03*
Y2610000D03*
Y3050000D03*
Y3430000D03*
Y3610000D03*
Y4050000D03*
Y3870000D03*
Y4430000D03*
Y4610000D03*
Y4870000D03*
Y5050000D03*
X4120000Y5930000D03*
X3949000Y6051000D03*
X4030000Y6298210D03*
X3760000Y6180000D03*
X4110000Y6690000D03*
X3900000Y6680000D03*
X3850000Y6800000D03*
X3800000Y7300000D03*
Y7500000D03*
Y7700000D03*
Y7900000D03*
Y8100000D03*
Y8300000D03*
Y8500000D03*
X4157000Y8810000D03*
X4000000Y9200000D03*
Y9400000D03*
X4180000Y1530000D03*
X4200000Y1750000D03*
X4180000Y1970000D03*
X4200000Y2750000D03*
Y3750000D03*
X4180000Y3530000D03*
Y3970000D03*
Y4530000D03*
X4200000Y4750000D03*
X4180000Y4970000D03*
X4200000Y6220000D03*
X4350000D03*
X4200000Y6470000D03*
X4350000Y6480000D03*
X4900000Y9635000D03*
X5240000Y1610000D03*
Y1430000D03*
Y1870000D03*
Y1740000D03*
Y2050000D03*
Y2430000D03*
Y2870000D03*
Y2610000D03*
Y2740000D03*
Y3050000D03*
Y3610000D03*
Y3740000D03*
Y3430000D03*
Y3870000D03*
Y4050000D03*
Y4610000D03*
Y4430000D03*
Y4870000D03*
Y4740000D03*
Y5050000D03*
X5030000Y5900000D03*
X5400000Y7300000D03*
Y7500000D03*
Y7700000D03*
Y7900000D03*
Y8100000D03*
Y8300000D03*
Y8500000D03*
X5300000Y8700000D03*
X5100000Y9300000D03*
X5300000Y9700000D03*
X5620000Y1430000D03*
Y1610000D03*
Y2050000D03*
Y1870000D03*
Y2430000D03*
Y2870000D03*
Y2610000D03*
Y3050000D03*
Y3430000D03*
Y3610000D03*
Y4050000D03*
Y3870000D03*
Y4430000D03*
Y4610000D03*
Y4870000D03*
Y5050000D03*
X5701000Y5402000D03*
X5703000Y5609000D03*
X5696000Y5821000D03*
Y6021000D03*
Y6221000D03*
Y6421000D03*
Y6621000D03*
Y7321000D03*
Y7521000D03*
X6460000Y2570000D03*
X6590000Y2580000D03*
X6530000Y3080000D03*
X6545000Y3930000D03*
X6680000D03*
X6596000Y7756000D03*
X6710000Y2560000D03*
X6850000D03*
X6890000Y2660000D03*
X6820000Y3930000D03*
X7015000Y4200000D03*
X6945000Y3935000D03*
X7000000Y4395000D03*
X7111000Y5424000D03*
X7096000Y5821000D03*
X7106000Y5620000D03*
X7096000Y6221000D03*
Y6021000D03*
Y6621000D03*
Y6421000D03*
Y6821000D03*
X6796000Y7421000D03*
X7096000Y7821000D03*
X7300000Y4181580D03*
Y4400000D03*
X7540000Y4760000D03*
X7310000Y7950000D03*
X7580000Y3370000D03*
X7705000Y3180000D03*
X7750000Y4770000D03*
X8075580Y8293000D03*
Y8447000D03*
X8623000Y6455000D03*
X8800000Y7610000D03*
X8725420Y8293000D03*
X8733000Y8450000D03*
X9160000Y6910000D03*
X8950000Y7285000D03*
X9149000Y7510000D03*
X9100000Y7845000D03*
Y8254000D03*
X9639000Y4175000D03*
X9290000Y4580000D03*
X9314780Y4707800D03*
X9327000Y4825000D03*
X9568000Y6700000D03*
X10175000Y6576000D03*
X10299500Y7312000D03*
X10549000Y5346000D03*
X10689370Y5719710D03*
X10898000Y5754000D03*
X10625000Y5801580D03*
X10685000Y7092000D03*
X10535000Y7298000D03*
X11225000Y5759000D03*
X11375000Y5712000D03*
X11750000Y6517000D03*
Y6783000D03*
X11653000Y7945000D03*
X11750000Y7764000D03*
Y8532000D03*
X11682700Y9060000D03*
X11750000Y9516000D03*
X11909000Y8881000D03*
X11840000Y9695000D03*
X12860000Y4880000D03*
Y4740000D03*
X12880500Y7360500D03*
X13420000Y7040500D03*
X13604000Y4391000D03*
X20321500Y17158350D03*
G54D22*
G01X-4943000Y-5029000D02*
Y23165000D01*
X33030000D01*
Y-5029000D01*
X-4943000D01*
G01Y-4203500D02*
X-3927000D01*
G01Y-5029000D02*
Y4496000D01*
X-4943000D01*
G01D02*
X-4435000D01*
G01X-4943000Y9068000D02*
X-5070000Y8941000D01*
Y9195000D01*
X-4943000Y9068000D01*
G01X5852000Y22149000D02*
X-4943000D01*
G01X-4244500Y-4808660D02*
X-4722020Y-4659440D01*
X-4244500Y-4510200D01*
G01X-4411630Y-4563930D02*
Y-4754940D01*
G01X-4340000Y-4092250D02*
X-4284280Y-4056440D01*
X-4252460Y-4008690D01*
X-4244500Y-3954960D01*
X-4252460Y-3907200D01*
X-4292240Y-3859450D01*
X-4340000Y-3829610D01*
X-4387750Y-3823650D01*
X-4443450Y-3835580D01*
X-4483250Y-3877370D01*
X-4499180Y-3919150D01*
Y-3972870D01*
G01Y-3919150D02*
X-4523050Y-3883330D01*
X-4562840Y-3853480D01*
X-4610590Y-3841550D01*
X-4658350Y-3853480D01*
X-4698130Y-3883330D01*
X-4722020Y-3937050D01*
X-4714060Y-3990770D01*
X-4682220Y-4044490D01*
G01X-4403670Y-3561010D02*
Y-3405810D01*
G01X-4722020Y-3005900D02*
X-4244500D01*
G01X-4722020Y-3143170D02*
Y-2868610D01*
G01X-4244500Y-2408990D02*
Y-2647750D01*
X-4722020D01*
Y-2408990D01*
G01X-4491220Y-2504490D02*
Y-2647750D01*
G01X-4403670Y-2128450D02*
Y-1973250D01*
G01X-4595660Y22403000D02*
X-4446440Y22880520D01*
X-4297200Y22403000D01*
G01X-4350930Y22570130D02*
X-4541940D01*
G01X-3927000Y-3378000D02*
X13853000D01*
G01X-3927000Y23165000D02*
Y22149000D01*
G01X-3790520Y-3695500D02*
Y-3505000D01*
X-3728880Y-3663750D01*
X-3667240Y-3505000D01*
Y-3695500D01*
G01X-3597650D02*
X-3538380Y-3505000D01*
X-3479110Y-3695500D01*
G01X-3500450Y-3628830D02*
X-3576310D01*
G01X-3347880Y-3505000D02*
Y-3695500D01*
G01X-3402400Y-3505000D02*
X-3293360D01*
G01X-3109970Y-3695500D02*
X-3204790D01*
Y-3505000D01*
X-3109970D01*
G01X-3147900Y-3597070D02*
X-3204790D01*
G01X-3014290Y-3695500D02*
Y-3505000D01*
X-2955030D01*
X-2936060Y-3514530D01*
X-2924210Y-3527230D01*
X-2919470Y-3552630D01*
X-2924210Y-3578030D01*
X-2938430Y-3593900D01*
X-2955030Y-3603430D01*
X-3014290D01*
G01X-2955030D02*
X-2919470Y-3695500D01*
G01X-2804830Y-3505000D02*
X-2747940D01*
G01X-2776380D02*
Y-3695500D01*
G01X-2804830D02*
X-2747940D01*
G01X-2645150D02*
X-2585880Y-3505000D01*
X-2526610Y-3695500D01*
G01X-2547950Y-3628830D02*
X-2623810D01*
G01X-2442790Y-3505000D02*
Y-3695500D01*
X-2347970D01*
G01X-1943260Y-3759000D02*
X-2061790Y-3568500D01*
Y-3536750D01*
X-2038090Y-3505000D01*
X-2014380D01*
X-1990670Y-3536750D01*
Y-3568500D01*
X-2014380Y-3600250D01*
X-2061790Y-3632000D01*
X-2085500Y-3663750D01*
Y-3727250D01*
X-2061790Y-3759000D01*
X-1990670D01*
X-1943260Y-3695500D01*
G01X-1683160Y-3670110D02*
X-1664200Y-3685980D01*
X-1642860Y-3695500D01*
X-1623900D01*
X-1604930Y-3685980D01*
X-1590710Y-3670110D01*
X-1583600Y-3647870D01*
X-1588340Y-3625650D01*
X-1600190Y-3606600D01*
X-1621530Y-3593900D01*
X-1649970Y-3587550D01*
X-1666570Y-3574850D01*
X-1673680Y-3552630D01*
X-1668940Y-3530400D01*
X-1657090Y-3514530D01*
X-1640490Y-3505000D01*
X-1623900D01*
X-1607300Y-3511350D01*
X-1593080Y-3527230D01*
G01X-1490290Y-3695500D02*
Y-3505000D01*
X-1433400D01*
X-1414430Y-3514530D01*
X-1400210Y-3536750D01*
X-1395470Y-3562150D01*
X-1400210Y-3587550D01*
X-1412060Y-3606600D01*
X-1433400Y-3616130D01*
X-1490290D01*
G01X-1204970Y-3695500D02*
X-1299790D01*
Y-3505000D01*
X-1204970D01*
G01X-1242900Y-3597070D02*
X-1299790D01*
G01X-1009730Y-3520880D02*
X-1023950Y-3511350D01*
X-1040540Y-3505000D01*
X-1059510D01*
X-1080850Y-3514530D01*
X-1097440Y-3530400D01*
X-1109290Y-3549450D01*
X-1118780Y-3581200D01*
X-1121150Y-3609780D01*
X-1116400Y-3638350D01*
X-1109290Y-3657400D01*
X-1095070Y-3676450D01*
X-1078470Y-3689150D01*
X-1061880Y-3695500D01*
X-1045290D01*
X-1028690Y-3689150D01*
X-1014470Y-3679630D01*
X-1002610Y-3666930D01*
G01X-3728880Y-1854000D02*
Y-2044500D01*
G01X-3783400Y-1854000D02*
X-3674360D01*
G01X-3538380Y-2044500D02*
X-3557350Y-2041330D01*
X-3573940Y-2028630D01*
X-3588160Y-2009580D01*
X-3597650Y-1987350D01*
X-3602390Y-1961950D01*
Y-1936550D01*
X-3597650Y-1911150D01*
X-3588160Y-1888920D01*
X-3573940Y-1869880D01*
X-3557350Y-1857170D01*
X-3538380Y-1854000D01*
X-3519420Y-1857170D01*
X-3502820Y-1869880D01*
X-3488600Y-1888920D01*
X-3479110Y-1911150D01*
X-3474370Y-1936550D01*
Y-1961950D01*
X-3479110Y-1987350D01*
X-3488600Y-2009580D01*
X-3502820Y-2028630D01*
X-3519420Y-2041330D01*
X-3538380Y-2044500D01*
G01X-3395290Y-1854000D02*
Y-2044500D01*
X-3300470D01*
G01X-3109970D02*
X-3204790D01*
Y-1854000D01*
X-3109970D01*
G01X-3147900Y-1946070D02*
X-3204790D01*
G01X-3014290Y-2044500D02*
Y-1854000D01*
X-2955030D01*
X-2936060Y-1863530D01*
X-2924210Y-1876230D01*
X-2919470Y-1901630D01*
X-2924210Y-1927030D01*
X-2938430Y-1942900D01*
X-2955030Y-1952430D01*
X-3014290D01*
G01X-2955030D02*
X-2919470Y-2044500D01*
G01X-2835650D02*
X-2776380Y-1854000D01*
X-2717110Y-2044500D01*
G01X-2738450Y-1977830D02*
X-2814310D01*
G01X-2640400Y-2044500D02*
Y-1854000D01*
X-2531360Y-2044500D01*
Y-1854000D01*
G01X-2343230Y-1869880D02*
X-2357450Y-1860350D01*
X-2374040Y-1854000D01*
X-2393010D01*
X-2414350Y-1863530D01*
X-2430940Y-1879400D01*
X-2442790Y-1898450D01*
X-2452280Y-1930200D01*
X-2454650Y-1958780D01*
X-2449900Y-1987350D01*
X-2442790Y-2006400D01*
X-2428570Y-2025450D01*
X-2411970Y-2038150D01*
X-2395380Y-2044500D01*
X-2378790D01*
X-2362190Y-2038150D01*
X-2347970Y-2028630D01*
X-2336110Y-2015930D01*
G01X-2157470Y-2044500D02*
X-2252290D01*
Y-1854000D01*
X-2157470D01*
G01X-2195400Y-1946070D02*
X-2252290D01*
G01X-1876030Y-1854000D02*
Y-1990520D01*
X-1866550Y-2019110D01*
X-1847590Y-2038150D01*
X-1823880Y-2044500D01*
X-1800170Y-2038150D01*
X-1781210Y-2019110D01*
X-1771730Y-1990520D01*
Y-1854000D01*
G01X-1687900Y-2044500D02*
Y-1854000D01*
X-1578860Y-2044500D01*
Y-1854000D01*
G01X-1490290D02*
Y-2044500D01*
X-1395470D01*
G01X-1204970D02*
X-1299790D01*
Y-1854000D01*
X-1204970D01*
G01X-1242900Y-1946070D02*
X-1299790D01*
G01X-1111660Y-2019110D02*
X-1092700Y-2034980D01*
X-1071360Y-2044500D01*
X-1052400D01*
X-1033430Y-2034980D01*
X-1019210Y-2019110D01*
X-1012100Y-1996870D01*
X-1016840Y-1974650D01*
X-1028690Y-1955600D01*
X-1050030Y-1942900D01*
X-1078470Y-1936550D01*
X-1095070Y-1923850D01*
X-1102180Y-1901630D01*
X-1097440Y-1879400D01*
X-1085590Y-1863530D01*
X-1068990Y-1854000D01*
X-1052400D01*
X-1035800Y-1860350D01*
X-1021580Y-1876230D01*
G01X-921160Y-2019110D02*
X-902200Y-2034980D01*
X-880860Y-2044500D01*
X-861900D01*
X-842930Y-2034980D01*
X-828710Y-2019110D01*
X-821600Y-1996870D01*
X-826340Y-1974650D01*
X-838190Y-1955600D01*
X-859530Y-1942900D01*
X-887970Y-1936550D01*
X-904570Y-1923850D01*
X-911680Y-1901630D01*
X-906940Y-1879400D01*
X-895090Y-1863530D01*
X-878490Y-1854000D01*
X-861900D01*
X-845300Y-1860350D01*
X-831080Y-1876230D01*
G01X-540160Y-2019110D02*
X-521200Y-2034980D01*
X-499860Y-2044500D01*
X-480900D01*
X-461930Y-2034980D01*
X-447710Y-2019110D01*
X-440600Y-1996870D01*
X-445340Y-1974650D01*
X-457190Y-1955600D01*
X-478530Y-1942900D01*
X-506970Y-1936550D01*
X-523570Y-1923850D01*
X-530680Y-1901630D01*
X-525940Y-1879400D01*
X-514090Y-1863530D01*
X-497490Y-1854000D01*
X-480900D01*
X-464300Y-1860350D01*
X-450080Y-1876230D01*
G01X-299880Y-1854000D02*
Y-2044500D01*
G01X-354400Y-1854000D02*
X-245360D01*
G01X-168650Y-2044500D02*
X-109380Y-1854000D01*
X-50110Y-2044500D01*
G01X-71450Y-1977830D02*
X-147310D01*
G01X81120Y-1854000D02*
Y-2044500D01*
G01X26600Y-1854000D02*
X135640D01*
G01X319030Y-2044500D02*
X224210D01*
Y-1854000D01*
X319030D01*
G01X281100Y-1946070D02*
X224210D01*
G01X409970Y-2044500D02*
Y-1854000D01*
X457380D01*
X476340Y-1863530D01*
X490570Y-1876230D01*
X502420Y-1895270D01*
X511900Y-1917500D01*
X514270Y-1949250D01*
X511900Y-1981000D01*
X502420Y-2003230D01*
X490570Y-2022280D01*
X476340Y-2034980D01*
X457380Y-2044500D01*
X409970D01*
G01X-3688750Y22498500D02*
X-3652940Y22442780D01*
X-3605190Y22410960D01*
X-3551460Y22403000D01*
X-3503700Y22410960D01*
X-3455950Y22450740D01*
X-3426110Y22498500D01*
X-3420150Y22546250D01*
X-3432080Y22601950D01*
X-3473870Y22641750D01*
X-3515650Y22657680D01*
X-3569370D01*
G01X-3515650D02*
X-3479830Y22681550D01*
X-3449980Y22721340D01*
X-3438050Y22769090D01*
X-3449980Y22816850D01*
X-3479830Y22856630D01*
X-3533550Y22880520D01*
X-3587270Y22872560D01*
X-3640990Y22840720D01*
G01X-3157510Y22562170D02*
X-3002310D01*
G01X-2602400Y22880520D02*
Y22403000D01*
G01X-2739670Y22880520D02*
X-2465110D01*
G01X-2005490Y22403000D02*
X-2244250D01*
Y22880520D01*
X-2005490D01*
G01X-2100990Y22649720D02*
X-2244250D01*
G01X-1724950Y22562170D02*
X-1569750D01*
G01X-1704900Y4821250D02*
Y5138750D01*
X-1752140Y5075250D01*
G01Y4821250D02*
X-1657670D01*
G01X-1390000Y5138750D02*
X-1421500Y5128170D01*
X-1445110Y5101710D01*
X-1460860Y5069960D01*
X-1472670Y5027620D01*
X-1476610Y4980000D01*
X-1472670Y4932370D01*
X-1460860Y4890040D01*
X-1445110Y4858280D01*
X-1421500Y4831830D01*
X-1390000Y4821250D01*
X-1358510Y4831830D01*
X-1334890Y4858280D01*
X-1319140Y4890040D01*
X-1307330Y4932370D01*
X-1303390Y4980000D01*
X-1307330Y5027620D01*
X-1319140Y5069960D01*
X-1334890Y5101710D01*
X-1358510Y5128170D01*
X-1390000Y5138750D01*
G01X-1075100D02*
X-1106600Y5128170D01*
X-1130210Y5101710D01*
X-1145960Y5069960D01*
X-1157770Y5027620D01*
X-1161710Y4980000D01*
X-1157770Y4932370D01*
X-1145960Y4890040D01*
X-1130210Y4858280D01*
X-1106600Y4831830D01*
X-1075100Y4821250D01*
X-1043610Y4831830D01*
X-1019990Y4858280D01*
X-1004240Y4890040D01*
X-992430Y4932370D01*
X-988490Y4980000D01*
X-992430Y5027620D01*
X-1004240Y5069960D01*
X-1019990Y5101710D01*
X-1043610Y5128170D01*
X-1075100Y5138750D01*
G01X-250000Y0D02*
X-1640000D01*
G01X-1390000Y4583130D02*
Y0D01*
G01X-1452500Y400000D02*
X-1390000Y0D01*
X-1327500Y400000D01*
X-1452500D01*
G01X-1390000Y5376870D02*
Y10000000D01*
G01X-1327500Y9600000D02*
X-1390000Y10000000D01*
X-1452500Y9600000D01*
X-1327500D01*
G01X-250000Y10000000D02*
X-1640000D01*
G01X0Y0D02*
Y10000000D01*
X16000000D01*
Y0D01*
X0D01*
G01Y10250000D02*
Y11880000D01*
G01X7858880Y11630000D02*
X0D01*
G01X400000Y11692500D02*
X0Y11630000D01*
X400000Y11567500D01*
Y11692500D01*
G01X1851500Y-1727000D02*
Y-5029000D01*
G01X1999840Y-3670110D02*
X2018800Y-3685980D01*
X2040140Y-3695500D01*
X2059100D01*
X2078070Y-3685980D01*
X2092290Y-3670110D01*
X2099400Y-3647870D01*
X2094660Y-3625650D01*
X2082810Y-3606600D01*
X2061470Y-3593900D01*
X2033030Y-3587550D01*
X2016430Y-3574850D01*
X2009320Y-3552630D01*
X2014060Y-3530400D01*
X2025910Y-3514530D01*
X2042510Y-3505000D01*
X2059100D01*
X2075700Y-3511350D01*
X2089920Y-3527230D01*
G01X2187970Y-3505000D02*
Y-3641520D01*
X2197450Y-3670110D01*
X2216410Y-3689150D01*
X2240120Y-3695500D01*
X2263830Y-3689150D01*
X2282790Y-3670110D01*
X2292270Y-3641520D01*
Y-3505000D01*
G01X2383210Y-3695500D02*
Y-3505000D01*
X2442470D01*
X2461440Y-3514530D01*
X2473290Y-3527230D01*
X2478030Y-3552630D01*
X2473290Y-3578030D01*
X2459070Y-3593900D01*
X2442470Y-3603430D01*
X2383210D01*
G01X2442470D02*
X2478030Y-3695500D01*
G01X2576080D02*
Y-3505000D01*
X2666160D01*
G01X2632970Y-3597070D02*
X2576080D01*
G01X2752350Y-3695500D02*
X2811620Y-3505000D01*
X2870890Y-3695500D01*
G01X2849550Y-3628830D02*
X2773690D01*
G01X3054270Y-3520880D02*
X3040050Y-3511350D01*
X3023460Y-3505000D01*
X3004490D01*
X2983150Y-3514530D01*
X2966560Y-3530400D01*
X2954710Y-3549450D01*
X2945220Y-3581200D01*
X2942850Y-3609780D01*
X2947600Y-3638350D01*
X2954710Y-3657400D01*
X2968930Y-3676450D01*
X2985530Y-3689150D01*
X3002120Y-3695500D01*
X3018710D01*
X3035310Y-3689150D01*
X3049530Y-3679630D01*
X3061390Y-3666930D01*
G01X3240030Y-3695500D02*
X3145210D01*
Y-3505000D01*
X3240030D01*
G01X3202100Y-3597070D02*
X3145210D01*
G01X3573620Y-3505000D02*
Y-3695500D01*
G01X3519100Y-3505000D02*
X3628140D01*
G01X3811530Y-3695500D02*
X3716710D01*
Y-3505000D01*
X3811530D01*
G01X3773600Y-3597070D02*
X3716710D01*
G01X3904840Y-3695500D02*
X4004400Y-3505000D01*
G01X3904840D02*
X4004400Y-3695500D01*
G01X4145120Y-3505000D02*
Y-3695500D01*
G01X4090600Y-3505000D02*
X4199640D01*
G01X4283470D02*
Y-3641520D01*
X4292950Y-3670110D01*
X4311910Y-3689150D01*
X4335620Y-3695500D01*
X4359330Y-3689150D01*
X4378290Y-3670110D01*
X4387770Y-3641520D01*
Y-3505000D01*
G01X4478710Y-3695500D02*
Y-3505000D01*
X4537970D01*
X4556940Y-3514530D01*
X4568790Y-3527230D01*
X4573530Y-3552630D01*
X4568790Y-3578030D01*
X4554570Y-3593900D01*
X4537970Y-3603430D01*
X4478710D01*
G01X4537970D02*
X4573530Y-3695500D01*
G01X4764030D02*
X4669210D01*
Y-3505000D01*
X4764030D01*
G01X4726100Y-3597070D02*
X4669210D01*
G01X5026500Y-3695500D02*
Y-3568500D01*
G01Y-3603430D02*
X5033610Y-3587550D01*
X5045470Y-3574850D01*
X5062060Y-3568500D01*
X5078650Y-3574850D01*
X5090510Y-3587550D01*
X5097620Y-3603430D01*
Y-3695500D01*
G01Y-3603430D02*
X5104730Y-3587550D01*
X5116580Y-3574850D01*
X5133180Y-3568500D01*
X5149770Y-3574850D01*
X5161630Y-3587550D01*
X5168740Y-3606600D01*
Y-3695500D01*
G01X5288120Y-3568500D02*
Y-3695500D01*
G01Y-3517700D02*
X5283380Y-3514530D01*
Y-3508170D01*
X5288120Y-3505000D01*
X5292860Y-3508170D01*
Y-3514530D01*
X5288120Y-3517700D01*
G01X5516550Y-3584380D02*
X5499960Y-3571680D01*
X5485730Y-3568500D01*
X5466770Y-3574850D01*
X5452540Y-3587550D01*
X5443060Y-3609780D01*
X5440690Y-3632000D01*
X5443060Y-3654230D01*
X5452540Y-3673280D01*
X5466770Y-3689150D01*
X5485730Y-3695500D01*
X5502330Y-3689150D01*
X5516550Y-3676450D01*
G01X5635930Y-3695500D02*
Y-3568500D01*
G01Y-3593900D02*
X5647780Y-3581200D01*
X5659640Y-3571680D01*
X5676230Y-3568500D01*
X5688080Y-3571680D01*
X5702310Y-3581200D01*
G01X5859620Y-3695500D02*
X5845400Y-3692330D01*
X5831170Y-3679630D01*
X5821690Y-3657400D01*
X5816950Y-3632000D01*
X5821690Y-3606600D01*
X5831170Y-3584380D01*
X5845400Y-3571680D01*
X5859620Y-3568500D01*
X5873840Y-3571680D01*
X5888070Y-3584380D01*
X5897550Y-3606600D01*
X5899920Y-3632000D01*
X5897550Y-3657400D01*
X5888070Y-3679630D01*
X5873840Y-3692330D01*
X5859620Y-3695500D01*
G01X6169500D02*
Y-3568500D01*
G01Y-3603430D02*
X6176610Y-3587550D01*
X6188470Y-3574850D01*
X6205060Y-3568500D01*
X6221650Y-3574850D01*
X6233510Y-3587550D01*
X6240620Y-3603430D01*
Y-3695500D01*
G01Y-3603430D02*
X6247730Y-3587550D01*
X6259580Y-3574850D01*
X6276180Y-3568500D01*
X6292770Y-3574850D01*
X6304630Y-3587550D01*
X6311740Y-3606600D01*
Y-3695500D01*
G01X2004580Y-2044500D02*
Y-1854000D01*
X2094660D01*
G01X2061470Y-1946070D02*
X2004580D01*
G01X2211670Y-1854000D02*
X2268560D01*
G01X2240120D02*
Y-2044500D01*
G01X2211670D02*
X2268560D01*
G01X2376100D02*
Y-1854000D01*
X2485140Y-2044500D01*
Y-1854000D01*
G01X2592670D02*
X2649560D01*
G01X2621120D02*
Y-2044500D01*
G01X2592670D02*
X2649560D01*
G01X2761840Y-2019110D02*
X2780800Y-2034980D01*
X2802140Y-2044500D01*
X2821100D01*
X2840070Y-2034980D01*
X2854290Y-2019110D01*
X2861400Y-1996870D01*
X2856660Y-1974650D01*
X2844810Y-1955600D01*
X2823470Y-1942900D01*
X2795030Y-1936550D01*
X2778430Y-1923850D01*
X2771320Y-1901630D01*
X2776060Y-1879400D01*
X2787910Y-1863530D01*
X2804510Y-1854000D01*
X2821100D01*
X2837700Y-1860350D01*
X2851920Y-1876230D01*
G01X2952340Y-2044500D02*
Y-1854000D01*
G01X3051900D02*
Y-2044500D01*
G01Y-1949250D02*
X2952340D01*
G01X3399210Y-3251000D02*
Y-3060500D01*
X3458470D01*
X3477440Y-3070030D01*
X3489290Y-3082730D01*
X3494030Y-3108130D01*
X3489290Y-3133530D01*
X3475070Y-3149400D01*
X3458470Y-3158930D01*
X3399210D01*
G01X3458470D02*
X3494030Y-3251000D01*
G01X3684530D02*
X3589710D01*
Y-3060500D01*
X3684530D01*
G01X3646600Y-3152570D02*
X3589710D01*
G01X3765980Y-3251000D02*
Y-3060500D01*
X3827620Y-3219250D01*
X3889260Y-3060500D01*
Y-3251000D01*
G01X4018120D02*
X3999150Y-3247830D01*
X3982560Y-3235130D01*
X3968340Y-3216080D01*
X3958850Y-3193850D01*
X3954110Y-3168450D01*
Y-3143050D01*
X3958850Y-3117650D01*
X3968340Y-3095420D01*
X3982560Y-3076380D01*
X3999150Y-3063670D01*
X4018120Y-3060500D01*
X4037080Y-3063670D01*
X4053680Y-3076380D01*
X4067900Y-3095420D01*
X4077390Y-3117650D01*
X4082130Y-3143050D01*
Y-3168450D01*
X4077390Y-3193850D01*
X4067900Y-3216080D01*
X4053680Y-3235130D01*
X4037080Y-3247830D01*
X4018120Y-3251000D01*
G01X4149350Y-3060500D02*
X4208620Y-3251000D01*
X4267890Y-3060500D01*
G01X4446530Y-3251000D02*
X4351710D01*
Y-3060500D01*
X4446530D01*
G01X4408600Y-3152570D02*
X4351710D01*
G01X4720850Y-3251000D02*
X4780120Y-3060500D01*
X4839390Y-3251000D01*
G01X4818050Y-3184330D02*
X4742190D01*
G01X4916100Y-3251000D02*
Y-3060500D01*
X5025140Y-3251000D01*
Y-3060500D01*
G01X5161120Y-3251000D02*
Y-3165280D01*
X5113710Y-3060500D01*
G01X5208530D02*
X5161120Y-3165280D01*
G01X5561080Y-3149400D02*
X5570570Y-3139880D01*
X5577680Y-3124000D01*
X5582420Y-3101770D01*
X5577680Y-3082730D01*
X5568200Y-3070030D01*
X5551600Y-3060500D01*
X5487600D01*
Y-3251000D01*
X5565830D01*
X5582420Y-3238300D01*
X5591900Y-3219250D01*
X5596640Y-3197020D01*
X5591900Y-3174800D01*
X5577680Y-3155750D01*
X5561080Y-3149400D01*
X5487600D01*
G01X5680470Y-3060500D02*
Y-3197020D01*
X5689950Y-3225610D01*
X5708910Y-3244650D01*
X5732620Y-3251000D01*
X5756330Y-3244650D01*
X5775290Y-3225610D01*
X5784770Y-3197020D01*
Y-3060500D01*
G01X5875710Y-3251000D02*
Y-3060500D01*
X5934970D01*
X5953940Y-3070030D01*
X5965790Y-3082730D01*
X5970530Y-3108130D01*
X5965790Y-3133530D01*
X5951570Y-3149400D01*
X5934970Y-3158930D01*
X5875710D01*
G01X5934970D02*
X5970530Y-3251000D01*
G01X6066210D02*
Y-3060500D01*
X6125470D01*
X6144440Y-3070030D01*
X6156290Y-3082730D01*
X6161030Y-3108130D01*
X6156290Y-3133530D01*
X6142070Y-3149400D01*
X6125470Y-3158930D01*
X6066210D01*
G01X6125470D02*
X6161030Y-3251000D01*
G01X6254340Y-3225610D02*
X6273300Y-3241480D01*
X6294640Y-3251000D01*
X6313600D01*
X6332570Y-3241480D01*
X6346790Y-3225610D01*
X6353900Y-3203370D01*
X6349160Y-3181150D01*
X6337310Y-3162100D01*
X6315970Y-3149400D01*
X6287530Y-3143050D01*
X6270930Y-3130350D01*
X6263820Y-3108130D01*
X6268560Y-3085900D01*
X6280410Y-3070030D01*
X6297010Y-3060500D01*
X6313600D01*
X6330200Y-3066850D01*
X6344420Y-3082730D01*
G01X5217000Y-4775000D02*
X5026500D01*
X5153500Y-4902000D01*
X5280500Y-4648000D01*
G01X5489970Y-4711500D02*
Y-4848020D01*
X5499450Y-4876610D01*
X5518410Y-4895650D01*
X5542120Y-4902000D01*
X5565830Y-4895650D01*
X5584790Y-4876610D01*
X5594270Y-4848020D01*
Y-4711500D01*
G01X5678100Y-4902000D02*
Y-4711500D01*
X5787140Y-4902000D01*
Y-4711500D01*
G01X5875710D02*
Y-4902000D01*
X5970530D01*
G01X6161030D02*
X6066210D01*
Y-4711500D01*
X6161030D01*
G01X6123100Y-4803570D02*
X6066210D01*
G01X6254340Y-4876610D02*
X6273300Y-4892480D01*
X6294640Y-4902000D01*
X6313600D01*
X6332570Y-4892480D01*
X6346790Y-4876610D01*
X6353900Y-4854370D01*
X6349160Y-4832150D01*
X6337310Y-4813100D01*
X6315970Y-4800400D01*
X6287530Y-4794050D01*
X6270930Y-4781350D01*
X6263820Y-4759130D01*
X6268560Y-4736900D01*
X6280410Y-4721030D01*
X6297010Y-4711500D01*
X6313600D01*
X6330200Y-4717850D01*
X6344420Y-4733730D01*
G01X6444840Y-4876610D02*
X6463800Y-4892480D01*
X6485140Y-4902000D01*
X6504100D01*
X6523070Y-4892480D01*
X6537290Y-4876610D01*
X6544400Y-4854370D01*
X6539660Y-4832150D01*
X6527810Y-4813100D01*
X6506470Y-4800400D01*
X6478030Y-4794050D01*
X6461430Y-4781350D01*
X6454320Y-4759130D01*
X6459060Y-4736900D01*
X6470910Y-4721030D01*
X6487510Y-4711500D01*
X6504100D01*
X6520700Y-4717850D01*
X6534920Y-4733730D01*
G01X6825840Y-4876610D02*
X6844800Y-4892480D01*
X6866140Y-4902000D01*
X6885100D01*
X6904070Y-4892480D01*
X6918290Y-4876610D01*
X6925400Y-4854370D01*
X6920660Y-4832150D01*
X6908810Y-4813100D01*
X6887470Y-4800400D01*
X6859030Y-4794050D01*
X6842430Y-4781350D01*
X6835320Y-4759130D01*
X6840060Y-4736900D01*
X6851910Y-4721030D01*
X6868510Y-4711500D01*
X6885100D01*
X6901700Y-4717850D01*
X6915920Y-4733730D01*
G01X7066120Y-4711500D02*
Y-4902000D01*
G01X7011600Y-4711500D02*
X7120640D01*
G01X7197350Y-4902000D02*
X7256620Y-4711500D01*
X7315890Y-4902000D01*
G01X7294550Y-4835330D02*
X7218690D01*
G01X7447120Y-4711500D02*
Y-4902000D01*
G01X7392600Y-4711500D02*
X7501640D01*
G01X7685030Y-4902000D02*
X7590210D01*
Y-4711500D01*
X7685030D01*
G01X7647100Y-4803570D02*
X7590210D01*
G01X7775970Y-4902000D02*
Y-4711500D01*
X7823380D01*
X7842340Y-4721030D01*
X7856570Y-4733730D01*
X7868420Y-4752770D01*
X7877900Y-4775000D01*
X7880270Y-4806750D01*
X7877900Y-4838500D01*
X7868420Y-4860730D01*
X7856570Y-4879780D01*
X7842340Y-4892480D01*
X7823380Y-4902000D01*
X7775970D01*
G01X6350000Y2687500D02*
X6180000D01*
G01X6350000D02*
X6180000D01*
G01X6350000Y3812500D02*
X6180000D01*
G01X6350000D02*
X6180000D01*
G01X5852000Y22149000D02*
Y23165000D01*
G01X6430000Y2416200D02*
Y2687500D01*
G01Y2416200D02*
Y2687500D01*
G01X6557000Y2701950D02*
X6303000D01*
X6353800Y2663850D01*
G01X6557000D02*
Y2740040D01*
G01Y2955950D02*
X6303000D01*
X6353800Y2917850D01*
G01X6557000D02*
Y2994040D01*
G01X6565460Y3209950D02*
X6561230Y3203600D01*
X6552770D01*
X6548540Y3209950D01*
X6552770Y3216300D01*
X6561230D01*
X6565460Y3209950D01*
G01X6345330Y3403620D02*
X6319940Y3422680D01*
X6307230Y3444900D01*
X6303000Y3470300D01*
X6311460Y3502050D01*
X6332630Y3524280D01*
X6358030Y3530630D01*
X6383440Y3527450D01*
X6404600Y3514750D01*
X6446930Y3451250D01*
X6476570Y3422680D01*
X6518910Y3403620D01*
X6557000Y3397270D01*
Y3530630D01*
G01X6518910Y3648100D02*
X6540070Y3667150D01*
X6552770Y3689370D01*
X6557000Y3717950D01*
X6548540Y3746530D01*
X6531610Y3768750D01*
X6501970Y3784630D01*
X6468100Y3787800D01*
X6434240Y3781450D01*
X6413070Y3765570D01*
X6396140Y3743350D01*
X6391900Y3721130D01*
X6396140Y3698900D01*
X6413070Y3670330D01*
X6303000Y3679850D01*
Y3765570D01*
G01X6367500Y3087500D02*
X6430000Y2687500D01*
X6492500Y3087500D01*
X6367500D01*
G01X6557000Y2701950D02*
X6303000D01*
X6353800Y2663850D01*
G01X6557000D02*
Y2740040D01*
G01Y2955950D02*
X6303000D01*
X6353800Y2917850D01*
G01X6557000D02*
Y2994040D01*
G01X6565460Y3209950D02*
X6561230Y3203600D01*
X6552770D01*
X6548540Y3209950D01*
X6552770Y3216300D01*
X6561230D01*
X6565460Y3209950D01*
G01X6345330Y3403620D02*
X6319940Y3422680D01*
X6307230Y3444900D01*
X6303000Y3470300D01*
X6311460Y3502050D01*
X6332630Y3524280D01*
X6358030Y3530630D01*
X6383440Y3527450D01*
X6404600Y3514750D01*
X6446930Y3451250D01*
X6476570Y3422680D01*
X6518910Y3403620D01*
X6557000Y3397270D01*
Y3530630D01*
G01X6518910Y3648100D02*
X6540070Y3667150D01*
X6552770Y3689370D01*
X6557000Y3717950D01*
X6548540Y3746530D01*
X6531610Y3768750D01*
X6501970Y3784630D01*
X6468100Y3787800D01*
X6434240Y3781450D01*
X6413070Y3765570D01*
X6396140Y3743350D01*
X6391900Y3721130D01*
X6396140Y3698900D01*
X6413070Y3670330D01*
X6303000Y3679850D01*
Y3765570D01*
G01X6367500Y3087500D02*
X6430000Y2687500D01*
X6492500Y3087500D01*
X6367500D01*
G01X6492500Y3412500D02*
X6430000Y3812500D01*
X6367500Y3412500D01*
X6492500D01*
G01D02*
X6430000Y3812500D01*
X6367500Y3412500D01*
X6492500D01*
G01X6430000Y4003700D02*
Y3812500D01*
G01X7000000Y4107500D02*
X6600000Y4045000D01*
X7000000Y3982500D01*
Y4107500D01*
G01X6754170Y4045000D02*
X6600000D01*
G01Y4062500D02*
Y4295000D01*
G01Y4062500D02*
Y4295000D01*
G01X6754170Y4045000D02*
X6600000D01*
G01X7000000Y4107500D02*
X6600000Y4045000D01*
X7000000Y3982500D01*
Y4107500D01*
G01X6430000Y4003700D02*
Y3812500D01*
G01X6985940Y3947630D02*
X7008170Y3926460D01*
X7033570Y3918000D01*
X7058970Y3926460D01*
X7081190Y3951860D01*
X7097070Y3989970D01*
X7103420Y4028070D01*
Y4074630D01*
X7097070Y4112730D01*
X7081190Y4146600D01*
X7062140Y4163540D01*
X7039920Y4172000D01*
X7014520Y4163540D01*
X6995470Y4146600D01*
X6982770Y4121200D01*
X6976420Y4087330D01*
X6982770Y4057700D01*
X6998650Y4028070D01*
X7017700Y4011130D01*
X7039920Y4006900D01*
X7065320Y4015360D01*
X7084370Y4036530D01*
X7103420Y4074630D01*
G01X6985940Y3947630D02*
X7008170Y3926460D01*
X7033570Y3918000D01*
X7058970Y3926460D01*
X7081190Y3951860D01*
X7097070Y3989970D01*
X7103420Y4028070D01*
Y4074630D01*
X7097070Y4112730D01*
X7081190Y4146600D01*
X7062140Y4163540D01*
X7039920Y4172000D01*
X7014520Y4163540D01*
X6995470Y4146600D01*
X6982770Y4121200D01*
X6976420Y4087330D01*
X6982770Y4057700D01*
X6998650Y4028070D01*
X7017700Y4011130D01*
X7039920Y4006900D01*
X7065320Y4015360D01*
X7084370Y4036530D01*
X7103420Y4074630D01*
G01X7100000Y3982500D02*
X7500000Y4045000D01*
X7100000Y4107500D01*
Y3982500D01*
G01X7325670Y4045000D02*
X7500000D01*
G01X7325670D02*
X7500000D01*
G01X7100000Y3982500D02*
X7500000Y4045000D01*
X7100000Y4107500D01*
Y3982500D01*
G01X7833000Y3476000D02*
X7841460Y3450600D01*
X7862630Y3431550D01*
X7888030Y3418850D01*
X7921900Y3409320D01*
X7960000Y3406150D01*
X7998100Y3409320D01*
X8031970Y3418850D01*
X8057370Y3431550D01*
X8078540Y3450600D01*
X8087000Y3476000D01*
X8078540Y3501400D01*
X8057370Y3520450D01*
X8031970Y3533150D01*
X7998100Y3542680D01*
X7960000Y3545850D01*
X7921900Y3542680D01*
X7888030Y3533150D01*
X7862630Y3520450D01*
X7841460Y3501400D01*
X7833000Y3476000D01*
G01X8095460Y3730000D02*
X8091230Y3723650D01*
X8082770D01*
X8078540Y3730000D01*
X8082770Y3736350D01*
X8091230D01*
X8095460Y3730000D01*
G01X8087000Y3984000D02*
X8082770Y4006220D01*
X8070070Y4031620D01*
X8048910Y4047500D01*
X8019270Y4053850D01*
X7989640Y4047500D01*
X7964240Y4028450D01*
X7951530Y3999870D01*
Y3968130D01*
X7943070Y3949070D01*
X7921900Y3933200D01*
X7892270Y3926850D01*
X7862630Y3936380D01*
X7841460Y3958600D01*
X7833000Y3984000D01*
X7841460Y4009400D01*
X7862630Y4031620D01*
X7892270Y4041150D01*
X7921900Y4034800D01*
X7943070Y4018930D01*
X7951530Y3999870D01*
Y3968130D01*
X7964240Y3939550D01*
X7989640Y3920500D01*
X8019270Y3914150D01*
X8048910Y3920500D01*
X8070070Y3936380D01*
X8082770Y3961780D01*
X8087000Y3984000D01*
G01X7660000Y3690000D02*
X8210000D01*
G01X7833000Y3476000D02*
X7841460Y3450600D01*
X7862630Y3431550D01*
X7888030Y3418850D01*
X7921900Y3409320D01*
X7960000Y3406150D01*
X7998100Y3409320D01*
X8031970Y3418850D01*
X8057370Y3431550D01*
X8078540Y3450600D01*
X8087000Y3476000D01*
X8078540Y3501400D01*
X8057370Y3520450D01*
X8031970Y3533150D01*
X7998100Y3542680D01*
X7960000Y3545850D01*
X7921900Y3542680D01*
X7888030Y3533150D01*
X7862630Y3520450D01*
X7841460Y3501400D01*
X7833000Y3476000D01*
G01X8095460Y3730000D02*
X8091230Y3723650D01*
X8082770D01*
X8078540Y3730000D01*
X8082770Y3736350D01*
X8091230D01*
X8095460Y3730000D01*
G01X8087000Y3984000D02*
X8082770Y4006220D01*
X8070070Y4031620D01*
X8048910Y4047500D01*
X8019270Y4053850D01*
X7989640Y4047500D01*
X7964240Y4028450D01*
X7951530Y3999870D01*
Y3968130D01*
X7943070Y3949070D01*
X7921900Y3933200D01*
X7892270Y3926850D01*
X7862630Y3936380D01*
X7841460Y3958600D01*
X7833000Y3984000D01*
X7841460Y4009400D01*
X7862630Y4031620D01*
X7892270Y4041150D01*
X7921900Y4034800D01*
X7943070Y4018930D01*
X7951530Y3999870D01*
Y3968130D01*
X7964240Y3939550D01*
X7989640Y3920500D01*
X8019270Y3914150D01*
X8048910Y3920500D01*
X8070070Y3936380D01*
X8082770Y3961780D01*
X8087000Y3984000D01*
G01X7660000Y3690000D02*
X8210000D01*
G01X7500000Y4062500D02*
Y4295000D01*
G01X7660000Y3770000D02*
X8210000D01*
G01X7500000Y4062500D02*
Y4295000D01*
G01X7660000Y3770000D02*
X8210000D01*
G01X8011000Y-1727000D02*
Y-5029000D01*
G01X8265000Y-4457500D02*
Y-4267000D01*
G01Y-4457500D02*
X13266260D01*
G01X8272620Y-3949500D02*
X8253650Y-3955850D01*
X8239430Y-3971730D01*
X8229950Y-3990770D01*
X8222840Y-4016180D01*
X8220470Y-4044750D01*
X8222840Y-4073330D01*
X8229950Y-4098730D01*
X8239430Y-4117780D01*
X8253650Y-4133650D01*
X8272620Y-4140000D01*
X8291580Y-4133650D01*
X8305810Y-4117780D01*
X8315290Y-4098730D01*
X8322400Y-4073330D01*
X8324770Y-4044750D01*
X8322400Y-4016180D01*
X8315290Y-3990770D01*
X8305810Y-3971730D01*
X8291580Y-3955850D01*
X8272620Y-3949500D01*
G01X8309370Y-3187500D02*
Y-2743000D01*
X8420280D01*
X8464640Y-2765230D01*
X8497920Y-2794860D01*
X8525650Y-2839300D01*
X8547830Y-2891180D01*
X8553370Y-2965260D01*
X8547830Y-3039340D01*
X8525650Y-3091200D01*
X8497920Y-3135650D01*
X8464640Y-3165280D01*
X8420280Y-3187500D01*
X8309370D01*
G01X8875860D02*
X8831500Y-3180090D01*
X8792690Y-3150470D01*
X8759410Y-3106010D01*
X8737220Y-3054150D01*
X8726130Y-2994880D01*
Y-2935620D01*
X8737220Y-2876350D01*
X8759410Y-2824490D01*
X8792690Y-2780050D01*
X8831500Y-2750410D01*
X8875860Y-2743000D01*
X8920230Y-2750410D01*
X8959050Y-2780050D01*
X8992330Y-2824490D01*
X9014520Y-2876350D01*
X9025610Y-2935620D01*
Y-2994880D01*
X9014520Y-3054150D01*
X8992330Y-3106010D01*
X8959050Y-3150470D01*
X8920230Y-3180090D01*
X8875860Y-3187500D01*
G01X9637320D02*
Y-2743000D01*
X9892420Y-3187500D01*
Y-2743000D01*
G01X10209360Y-3187500D02*
X10165000Y-3180090D01*
X10126190Y-3150470D01*
X10092910Y-3106010D01*
X10070720Y-3054150D01*
X10059630Y-2994880D01*
Y-2935620D01*
X10070720Y-2876350D01*
X10092910Y-2824490D01*
X10126190Y-2780050D01*
X10165000Y-2750410D01*
X10209360Y-2743000D01*
X10253730Y-2750410D01*
X10292550Y-2780050D01*
X10325830Y-2824490D01*
X10348020Y-2876350D01*
X10359110Y-2935620D01*
Y-2994880D01*
X10348020Y-3054150D01*
X10325830Y-3106010D01*
X10292550Y-3150470D01*
X10253730Y-3180090D01*
X10209360Y-3187500D01*
G01X10653860Y-2743000D02*
Y-3187500D01*
G01X10526320Y-2743000D02*
X10781420D01*
G01X11426410Y-3128250D02*
X11470780Y-3165280D01*
X11520690Y-3187500D01*
X11565050D01*
X11609420Y-3165280D01*
X11642700Y-3128250D01*
X11659330Y-3076370D01*
X11648240Y-3024520D01*
X11620510Y-2980070D01*
X11570600Y-2950430D01*
X11504050Y-2935620D01*
X11465230Y-2905990D01*
X11448590Y-2854130D01*
X11459690Y-2802270D01*
X11487410Y-2765230D01*
X11526230Y-2743000D01*
X11565050D01*
X11603870Y-2757810D01*
X11637150Y-2794860D01*
G01X12109370Y-2780050D02*
X12076100Y-2757810D01*
X12037290Y-2743000D01*
X11992920D01*
X11943000Y-2765230D01*
X11904190Y-2802270D01*
X11876450Y-2846720D01*
X11854270Y-2920800D01*
X11848720Y-2987480D01*
X11859820Y-3054150D01*
X11876450Y-3098610D01*
X11909730Y-3143060D01*
X11948550Y-3172690D01*
X11987360Y-3187500D01*
X12026190D01*
X12065010Y-3172690D01*
X12098290Y-3150470D01*
X12126020Y-3120840D01*
G01X12293220Y-3187500D02*
X12431860Y-2743000D01*
X12570520Y-3187500D01*
G01X12520600Y-3031930D02*
X12343130D01*
G01X12765450Y-2743000D02*
Y-3187500D01*
X12987290D01*
G01X13431790D02*
X13209950D01*
Y-2743000D01*
X13431790D01*
G01X13343050Y-2957840D02*
X13209950D01*
G01X8011000Y-2552500D02*
X13853000D01*
G01X8272620Y-2044500D02*
X8253650Y-2041330D01*
X8237060Y-2028630D01*
X8222840Y-2009580D01*
X8213350Y-1987350D01*
X8208610Y-1961950D01*
Y-1936550D01*
X8213350Y-1911150D01*
X8222840Y-1888920D01*
X8237060Y-1869880D01*
X8253650Y-1857170D01*
X8272620Y-1854000D01*
X8291580Y-1857170D01*
X8308180Y-1869880D01*
X8322400Y-1888920D01*
X8331890Y-1911150D01*
X8336630Y-1936550D01*
Y-1961950D01*
X8331890Y-1987350D01*
X8322400Y-2009580D01*
X8308180Y-2028630D01*
X8291580Y-2041330D01*
X8272620Y-2044500D01*
G01X8415710D02*
Y-1854000D01*
X8474970D01*
X8493940Y-1863530D01*
X8505790Y-1876230D01*
X8510530Y-1901630D01*
X8505790Y-1927030D01*
X8491570Y-1942900D01*
X8474970Y-1952430D01*
X8415710D01*
G01X8474970D02*
X8510530Y-2044500D01*
G01X8625170Y-1854000D02*
X8682060D01*
G01X8653620D02*
Y-2044500D01*
G01X8625170D02*
X8682060D01*
G01X8858340Y-1949250D02*
X8905760D01*
Y-2006400D01*
X8891530Y-2025450D01*
X8874940Y-2038150D01*
X8851230Y-2044500D01*
X8827530Y-2038150D01*
X8810930Y-2025450D01*
X8796710Y-2006400D01*
X8787220Y-1984180D01*
X8782480Y-1958780D01*
Y-1936550D01*
X8787220Y-1917500D01*
X8796710Y-1895270D01*
X8810930Y-1876230D01*
X8825150Y-1863530D01*
X8844120Y-1854000D01*
X8860710D01*
X8879680Y-1860350D01*
X8893900Y-1873050D01*
G01X9006170Y-1854000D02*
X9063060D01*
G01X9034620D02*
Y-2044500D01*
G01X9006170D02*
X9063060D01*
G01X9170600D02*
Y-1854000D01*
X9279640Y-2044500D01*
Y-1854000D01*
G01X9356350Y-2044500D02*
X9415620Y-1854000D01*
X9474890Y-2044500D01*
G01X9453550Y-1977830D02*
X9377690D01*
G01X9558710Y-1854000D02*
Y-2044500D01*
X9653530D01*
G01X9937340Y-2019110D02*
X9956300Y-2034980D01*
X9977640Y-2044500D01*
X9996600D01*
X10015570Y-2034980D01*
X10029790Y-2019110D01*
X10036900Y-1996870D01*
X10032160Y-1974650D01*
X10020310Y-1955600D01*
X9998970Y-1942900D01*
X9970530Y-1936550D01*
X9953930Y-1923850D01*
X9946820Y-1901630D01*
X9951560Y-1879400D01*
X9963410Y-1863530D01*
X9980010Y-1854000D01*
X9996600D01*
X10013200Y-1860350D01*
X10027420Y-1876230D01*
G01X10229770Y-1869880D02*
X10215550Y-1860350D01*
X10198960Y-1854000D01*
X10179990D01*
X10158650Y-1863530D01*
X10142060Y-1879400D01*
X10130210Y-1898450D01*
X10120720Y-1930200D01*
X10118350Y-1958780D01*
X10123100Y-1987350D01*
X10130210Y-2006400D01*
X10144430Y-2025450D01*
X10161030Y-2038150D01*
X10177620Y-2044500D01*
X10194210D01*
X10210810Y-2038150D01*
X10225030Y-2028630D01*
X10236890Y-2015930D01*
G01X10308850Y-2044500D02*
X10368120Y-1854000D01*
X10427390Y-2044500D01*
G01X10406050Y-1977830D02*
X10330190D01*
G01X10511210Y-1854000D02*
Y-2044500D01*
X10606030D01*
G01X10796530D02*
X10701710D01*
Y-1854000D01*
X10796530D01*
G01X10758600Y-1946070D02*
X10701710D01*
G01X8022500Y3290000D02*
X7960000Y3690000D01*
X7897500Y3290000D01*
X8022500D01*
G01X7960000Y3190250D02*
Y3690000D01*
G01Y3190250D02*
Y3690000D01*
G01X8022500Y3290000D02*
X7960000Y3690000D01*
X7897500Y3290000D01*
X8022500D01*
G01X7897500Y4170000D02*
X7960000Y3770000D01*
X8022500Y4170000D01*
X7897500D01*
G01X7960000Y4269750D02*
Y3770000D01*
G01Y4269750D02*
Y3770000D01*
G01X7897500Y4170000D02*
X7960000Y3770000D01*
X8022500Y4170000D01*
X7897500D01*
G01X8215100Y11471250D02*
Y11788750D01*
X8167860Y11725250D01*
G01Y11471250D02*
X8262330D01*
G01X8455200Y11603530D02*
X8482760Y11640590D01*
X8506380Y11661750D01*
X8537880Y11672330D01*
X8565430Y11661750D01*
X8585110Y11640590D01*
X8600860Y11608830D01*
X8604800Y11571790D01*
X8600860Y11540040D01*
X8585110Y11508280D01*
X8561490Y11481830D01*
X8533940Y11471250D01*
X8502450Y11481830D01*
X8474890Y11513570D01*
X8459140Y11561210D01*
X8455200Y11614120D01*
X8463070Y11682910D01*
X8474890Y11719960D01*
X8494570Y11757000D01*
X8522120Y11783460D01*
X8549680Y11788750D01*
X8577240Y11778170D01*
X8596930Y11751710D01*
G01X8844900Y11788750D02*
X8813400Y11778170D01*
X8789790Y11751710D01*
X8774040Y11719960D01*
X8762230Y11677620D01*
X8758290Y11630000D01*
X8762230Y11582370D01*
X8774040Y11540040D01*
X8789790Y11508280D01*
X8813400Y11481830D01*
X8844900Y11471250D01*
X8876390Y11481830D01*
X8900010Y11508280D01*
X8915760Y11540040D01*
X8927570Y11582370D01*
X8931510Y11630000D01*
X8927570Y11677620D01*
X8915760Y11719960D01*
X8900010Y11751710D01*
X8876390Y11778170D01*
X8844900Y11788750D01*
G01X9265760Y-4457500D02*
Y-4267000D01*
G01X9201120Y11630000D02*
X16000000D01*
G01X10266520Y-4457500D02*
Y-4267000D01*
G01X11267280Y-4457500D02*
Y-4267000D01*
G01X12268040Y-4457500D02*
Y-4267000D01*
G01X13268800Y-4457500D02*
Y-4267000D01*
G01X13281500Y-4140000D02*
Y-4013000D01*
G01Y-4047930D02*
X13288610Y-4032050D01*
X13300470Y-4019350D01*
X13317060Y-4013000D01*
X13333650Y-4019350D01*
X13345510Y-4032050D01*
X13352620Y-4047930D01*
Y-4140000D01*
G01Y-4047930D02*
X13359730Y-4032050D01*
X13371580Y-4019350D01*
X13388180Y-4013000D01*
X13404770Y-4019350D01*
X13416630Y-4032050D01*
X13423740Y-4051100D01*
Y-4140000D01*
G01X13472000D02*
Y-4013000D01*
G01Y-4047930D02*
X13479110Y-4032050D01*
X13490970Y-4019350D01*
X13507560Y-4013000D01*
X13524150Y-4019350D01*
X13536010Y-4032050D01*
X13543120Y-4047930D01*
Y-4140000D01*
G01Y-4047930D02*
X13550230Y-4032050D01*
X13562080Y-4019350D01*
X13578680Y-4013000D01*
X13595270Y-4019350D01*
X13607130Y-4032050D01*
X13614240Y-4051100D01*
Y-4140000D01*
G01X14043500Y-5029000D02*
X13916500Y-5156000D01*
X14170500D01*
X14043500Y-5029000D01*
G01X13853000D02*
Y-584000D01*
G01X33030000Y-3759000D02*
X13853000D01*
G01X14166690Y-2265480D02*
Y-2425500D01*
G01X14120930Y-2265480D02*
X14212450D01*
G01X14302830D02*
X14350580D01*
G01X14326710D02*
Y-2425500D01*
G01X14302830D02*
X14350580D01*
G01X14486730Y-2265480D02*
Y-2425500D01*
G01X14440970Y-2265480D02*
X14532490D01*
G01X14606960D02*
Y-2425500D01*
X14686540D01*
G01X14846560D02*
X14766980D01*
Y-2265480D01*
X14846560D01*
G01X14814730Y-2342820D02*
X14766980D01*
G01X14210120Y-1330760D02*
Y-1614730D01*
X14229930Y-1674180D01*
X14269560Y-1713790D01*
X14319090Y-1727000D01*
X14368620Y-1713790D01*
X14408250Y-1674180D01*
X14428060Y-1614730D01*
Y-1330760D01*
G01X14689540Y-1727000D02*
Y-1462850D01*
G01Y-1528890D02*
X14709360Y-1495860D01*
X14739080Y-1469450D01*
X14778710Y-1462850D01*
X14813370Y-1469450D01*
X14843090Y-1495860D01*
X14857960Y-1542090D01*
Y-1727000D01*
G01X15228410Y-1462850D02*
Y-1727000D01*
G01Y-1357180D02*
X15218500Y-1350580D01*
Y-1337360D01*
X15228410Y-1330760D01*
X15238320Y-1337360D01*
Y-1350580D01*
X15228410Y-1357180D01*
G01X15593910Y-1462850D02*
X15683070Y-1727000D01*
X15772230Y-1462850D01*
G01X16063440Y-1548690D02*
X16221940D01*
X16207070Y-1502460D01*
X16182310Y-1476050D01*
X16147640Y-1462850D01*
X16112970Y-1469450D01*
X16083250Y-1489260D01*
X16063440Y-1535490D01*
X16053520Y-1575120D01*
Y-1614730D01*
X16063440Y-1654360D01*
X16088200Y-1693990D01*
X16117920Y-1720400D01*
X16152590Y-1727000D01*
X16187260Y-1713790D01*
X16221940Y-1674180D01*
G01X16523050Y-1727000D02*
Y-1462850D01*
G01Y-1515670D02*
X16547810Y-1489260D01*
X16572580Y-1469450D01*
X16607250Y-1462850D01*
X16632010Y-1469450D01*
X16661730Y-1489260D01*
G01X16972760Y-1680780D02*
X16997520Y-1707190D01*
X17032190Y-1727000D01*
X17061910D01*
X17091630Y-1713790D01*
X17111440Y-1693990D01*
X17121340Y-1667580D01*
X17116390Y-1627940D01*
X17096580Y-1608130D01*
X17007420Y-1568510D01*
X16987610Y-1522270D01*
X16997520Y-1489260D01*
X17017330Y-1469450D01*
X17047050Y-1462850D01*
X17076770Y-1469450D01*
X17106490Y-1489260D01*
G01X17501710Y-1462850D02*
Y-1727000D01*
G01Y-1357180D02*
X17491800Y-1350580D01*
Y-1337360D01*
X17501710Y-1330760D01*
X17511620Y-1337360D01*
Y-1350580D01*
X17501710Y-1357180D01*
G01X17956370Y-1330760D02*
Y-1727000D01*
G01X17887030Y-1462850D02*
X18025710D01*
G01X18307020Y-1845870D02*
X18336740Y-1859080D01*
X18376360Y-1845870D01*
X18401120Y-1819460D01*
X18420940Y-1786440D01*
X18450650Y-1680780D01*
X18515040Y-1462850D01*
G01X18356550D02*
X18450650Y-1680780D01*
G01X19320350Y-1727000D02*
X19290630Y-1720400D01*
X19260910Y-1693990D01*
X19241100Y-1647760D01*
X19231190Y-1594920D01*
X19241100Y-1542090D01*
X19260910Y-1495860D01*
X19290630Y-1469450D01*
X19320350Y-1462850D01*
X19350070Y-1469450D01*
X19379790Y-1495860D01*
X19399590Y-1542090D01*
X19404560Y-1594920D01*
X19399590Y-1647760D01*
X19379790Y-1693990D01*
X19350070Y-1720400D01*
X19320350Y-1727000D01*
G01X19745290D02*
Y-1390200D01*
X19755200Y-1357180D01*
X19775010Y-1337360D01*
X19804730Y-1330760D01*
X19834450Y-1343970D01*
X19849300Y-1376990D01*
G01X19789870Y-1489260D02*
X19690800D01*
G01X20723950Y-1515670D02*
X20743770Y-1495860D01*
X20758620Y-1462850D01*
X20768540Y-1416610D01*
X20758620Y-1376990D01*
X20738810Y-1350580D01*
X20704140Y-1330760D01*
X20570410D01*
Y-1727000D01*
X20733860D01*
X20768540Y-1700590D01*
X20788340Y-1660960D01*
X20798250Y-1614730D01*
X20788340Y-1568510D01*
X20758620Y-1528890D01*
X20723950Y-1515670D01*
X20570410D01*
G01X21069650Y-1727000D02*
Y-1462850D01*
G01Y-1515670D02*
X21094410Y-1489260D01*
X21119180Y-1469450D01*
X21153850Y-1462850D01*
X21178610Y-1469450D01*
X21208330Y-1489260D01*
G01X21593650Y-1462850D02*
Y-1727000D01*
G01Y-1357180D02*
X21583740Y-1350580D01*
Y-1337360D01*
X21593650Y-1330760D01*
X21603560Y-1337360D01*
Y-1350580D01*
X21593650Y-1357180D01*
G01X21974020Y-1680780D02*
X21998780Y-1707190D01*
X22033450Y-1727000D01*
X22063170D01*
X22092890Y-1713790D01*
X22112700Y-1693990D01*
X22122600Y-1667580D01*
X22117650Y-1627940D01*
X22097840Y-1608130D01*
X22008680Y-1568510D01*
X21988870Y-1522270D01*
X21998780Y-1489260D01*
X22018590Y-1469450D01*
X22048310Y-1462850D01*
X22078030Y-1469450D01*
X22107750Y-1489260D01*
G01X22502970Y-1330760D02*
Y-1727000D01*
G01X22433630Y-1462850D02*
X22572310D01*
G01X22957630Y-1727000D02*
X22927910Y-1720400D01*
X22898190Y-1693990D01*
X22878380Y-1647760D01*
X22868470Y-1594920D01*
X22878380Y-1542090D01*
X22898190Y-1495860D01*
X22927910Y-1469450D01*
X22957630Y-1462850D01*
X22987350Y-1469450D01*
X23017070Y-1495860D01*
X23036870Y-1542090D01*
X23041840Y-1594920D01*
X23036870Y-1647760D01*
X23017070Y-1693990D01*
X22987350Y-1720400D01*
X22957630Y-1727000D01*
G01X23412290D02*
Y-1330760D01*
G01X24217600Y-1727000D02*
Y-1330760D01*
G01X24425620D02*
Y-1727000D01*
G01Y-1528890D02*
X24217600D01*
G01X24875330Y-1727000D02*
X24677210D01*
Y-1330760D01*
X24875330D01*
G01X24796080Y-1522270D02*
X24677210D01*
G01X25131870Y-1727000D02*
Y-1330760D01*
X25250740D01*
X25290370Y-1350580D01*
X25320090Y-1396800D01*
X25329990Y-1449630D01*
X25320090Y-1502460D01*
X25295320Y-1542090D01*
X25250740Y-1561910D01*
X25131870D01*
G01X33030000Y-2108000D02*
X13853000D01*
G01X14059420Y-677980D02*
Y-792660D01*
X14067370Y-816670D01*
X14083290Y-832670D01*
X14103190Y-838000D01*
X14123090Y-832670D01*
X14139010Y-816670D01*
X14146960Y-792660D01*
Y-677980D01*
G01X14221430Y-816670D02*
X14237340Y-830000D01*
X14255250Y-838000D01*
X14271170D01*
X14287090Y-830000D01*
X14299030Y-816670D01*
X14304990Y-797990D01*
X14301010Y-779330D01*
X14291060Y-763330D01*
X14273160Y-752650D01*
X14249280Y-747320D01*
X14235360Y-736660D01*
X14229380Y-717990D01*
X14233370Y-699320D01*
X14243310Y-685980D01*
X14257240Y-677980D01*
X14271170D01*
X14285100Y-683310D01*
X14297040Y-696650D01*
G01X14463020Y-838000D02*
X14383440D01*
Y-677980D01*
X14463020D01*
G01X14431190Y-755320D02*
X14383440D01*
G01X14539480Y-838000D02*
Y-677980D01*
X14579270D01*
X14595190Y-685980D01*
X14607130Y-696650D01*
X14617080Y-712650D01*
X14625030Y-731320D01*
X14627020Y-757990D01*
X14625030Y-784660D01*
X14617080Y-803330D01*
X14607130Y-819330D01*
X14595190Y-830000D01*
X14579270Y-838000D01*
X14539480D01*
G01X14903290D02*
X14887370Y-835330D01*
X14873450Y-824670D01*
X14861510Y-808660D01*
X14853550Y-789990D01*
X14849570Y-768660D01*
Y-747320D01*
X14853550Y-725990D01*
X14861510Y-707320D01*
X14873450Y-691320D01*
X14887370Y-680650D01*
X14903290Y-677980D01*
X14919210Y-680650D01*
X14933130Y-691320D01*
X14945070Y-707320D01*
X14953030Y-725990D01*
X14957010Y-747320D01*
Y-768660D01*
X14953030Y-789990D01*
X14945070Y-808660D01*
X14933130Y-824670D01*
X14919210Y-835330D01*
X14903290Y-838000D01*
G01X15017550D02*
Y-677980D01*
X15109070Y-838000D01*
Y-677980D01*
G01X33030000Y-1219000D02*
X13853000D01*
G01Y-584000D02*
Y2591000D01*
G01Y-584000D02*
X33030000D01*
G01X13987370Y114500D02*
X14081850D01*
G01X14034610D02*
Y-203000D01*
G01X13987370D02*
X14081850D01*
G01X14266890Y-160680D02*
X14298390Y-187130D01*
X14333820Y-203000D01*
X14365320D01*
X14396810Y-187130D01*
X14420440Y-160680D01*
X14432250Y-123620D01*
X14424380Y-86590D01*
X14404690Y-54840D01*
X14369250Y-33660D01*
X14322010Y-23080D01*
X14294450Y-1920D01*
X14282640Y35120D01*
X14290520Y72170D01*
X14310200Y98620D01*
X14337760Y114500D01*
X14365320D01*
X14392880Y103920D01*
X14416500Y77460D01*
G01X14581850Y-160680D02*
X14613350Y-187130D01*
X14648780Y-203000D01*
X14680280D01*
X14711770Y-187130D01*
X14735400Y-160680D01*
X14747210Y-123620D01*
X14739340Y-86590D01*
X14719650Y-54840D01*
X14684210Y-33660D01*
X14636970Y-23080D01*
X14609410Y-1920D01*
X14597600Y35120D01*
X14605480Y72170D01*
X14625160Y98620D01*
X14652720Y114500D01*
X14680280D01*
X14707840Y103920D01*
X14731460Y77460D01*
G01X14892880Y114500D02*
Y-113040D01*
X14908620Y-160680D01*
X14940120Y-192420D01*
X14979490Y-203000D01*
X15018860Y-192420D01*
X15050360Y-160680D01*
X15066100Y-113040D01*
Y114500D01*
G01X15373190Y-203000D02*
X15215710D01*
Y114500D01*
X15373190D01*
G01X15310200Y-38950D02*
X15215710D01*
G01X33030000Y432000D02*
X13853000D01*
G01X33030000Y1448000D02*
X13853000D01*
G01X33030000Y2464000D02*
X13853000D01*
G01X14043500Y23165000D02*
X13916500Y23292000D01*
X14170500D01*
X14043500Y23165000D01*
G01X14274000Y-4711500D02*
X14474020Y-4076500D01*
X14674060Y-4711500D01*
G01X14602040Y-4489260D02*
X14346000D01*
G01X15504510Y-4584510D02*
X15552500Y-4658590D01*
X15616510Y-4700920D01*
X15688540Y-4711500D01*
X15752550Y-4700920D01*
X15816550Y-4648010D01*
X15856550Y-4584510D01*
X15864550Y-4521000D01*
X15848550Y-4446930D01*
X15792540Y-4394010D01*
X15736530Y-4372830D01*
X15664520D01*
G01X15736530D02*
X15784540Y-4341080D01*
X15824550Y-4288180D01*
X15840550Y-4224670D01*
X15824550Y-4161170D01*
X15784540Y-4108260D01*
X15712530Y-4076500D01*
X15640530Y-4087080D01*
X15568520Y-4129420D01*
G01X16513780Y-4499840D02*
X16721800D01*
G01X17555040Y-4076500D02*
Y-4711500D01*
G01X17371030Y-4076500D02*
X17739070D01*
G01X18652330Y-4711500D02*
X18332290D01*
Y-4076500D01*
X18652330D01*
G01X18524310Y-4383410D02*
X18332290D01*
G01X19325560Y-4499840D02*
X19533580D01*
G01X15186500Y-3759000D02*
Y-5029000D01*
G01X15504000Y-584000D02*
Y2591000D01*
G01X15600000Y11567500D02*
X16000000Y11630000D01*
X15600000Y11692500D01*
Y11567500D01*
G01X16000000Y10250000D02*
Y11880000D01*
G01X16424500Y-203000D02*
Y114500D01*
X16503230D01*
X16534730Y98620D01*
X16558350Y77460D01*
X16578040Y45710D01*
X16593790Y8660D01*
X16597720Y-44250D01*
X16593790Y-97170D01*
X16578040Y-134210D01*
X16558350Y-165970D01*
X16534730Y-187130D01*
X16503230Y-203000D01*
X16424500D01*
G01X16727640D02*
X16826070Y114500D01*
X16924500Y-203000D01*
G01X16889060Y-91880D02*
X16763070D01*
G01X17141030Y114500D02*
Y-203000D01*
G01X17050480Y114500D02*
X17231580D01*
G01X17534730Y-203000D02*
X17377250D01*
Y114500D01*
X17534730D01*
G01X17471740Y-38950D02*
X17377250D01*
G01X16393000Y21641000D02*
Y23165000D01*
G01X24648000D02*
Y21641000D01*
X16393000D01*
G01X16749870Y22276000D02*
Y22593500D01*
X16844360D01*
X16875850Y22577620D01*
X16899480Y22540580D01*
X16907350Y22498250D01*
X16899480Y22455920D01*
X16879790Y22424160D01*
X16844360Y22408280D01*
X16749870D01*
G01X17064830Y22276000D02*
Y22593500D01*
X17163250D01*
X17194750Y22577620D01*
X17214440Y22556460D01*
X17222310Y22514120D01*
X17214440Y22471790D01*
X17190810Y22445340D01*
X17163250Y22429450D01*
X17064830D01*
G01X17163250D02*
X17222310Y22276000D01*
G01X17458530D02*
X17427030Y22281290D01*
X17399480Y22302450D01*
X17375850Y22334210D01*
X17360100Y22371250D01*
X17352230Y22413580D01*
Y22455920D01*
X17360100Y22498250D01*
X17375850Y22535290D01*
X17399480Y22567040D01*
X17427030Y22588210D01*
X17458530Y22593500D01*
X17490020Y22588210D01*
X17517580Y22567040D01*
X17541210Y22535290D01*
X17556960Y22498250D01*
X17564830Y22455920D01*
Y22413580D01*
X17556960Y22371250D01*
X17541210Y22334210D01*
X17517580Y22302450D01*
X17490020Y22281290D01*
X17458530Y22276000D01*
G01X17694750Y22339500D02*
X17714440Y22307740D01*
X17738050Y22286580D01*
X17765610Y22276000D01*
X17797110Y22286580D01*
X17820730Y22307740D01*
X17844360Y22339500D01*
X17852230Y22381830D01*
Y22593500D01*
G01X18167190Y22276000D02*
X18009710D01*
Y22593500D01*
X18167190D01*
G01X18104200Y22440050D02*
X18009710D01*
G01X18490020Y22567040D02*
X18466400Y22582920D01*
X18438850Y22593500D01*
X18407350D01*
X18371910Y22577620D01*
X18344360Y22551170D01*
X18324670Y22519410D01*
X18308920Y22466500D01*
X18304980Y22418870D01*
X18312860Y22371250D01*
X18324670Y22339500D01*
X18348290Y22307740D01*
X18375850Y22286580D01*
X18403410Y22276000D01*
X18430970D01*
X18458530Y22286580D01*
X18482150Y22302450D01*
X18501840Y22323610D01*
G01X18718370Y22593500D02*
Y22276000D01*
G01X18627820Y22593500D02*
X18808920D01*
G01X18986090D02*
X19080570D01*
G01X19033330D02*
Y22276000D01*
G01X18986090D02*
X19080570D01*
G01X19348290D02*
X19316790Y22281290D01*
X19289240Y22302450D01*
X19265610Y22334210D01*
X19249860Y22371250D01*
X19241990Y22413580D01*
Y22455920D01*
X19249860Y22498250D01*
X19265610Y22535290D01*
X19289240Y22567040D01*
X19316790Y22588210D01*
X19348290Y22593500D01*
X19379780Y22588210D01*
X19407340Y22567040D01*
X19430970Y22535290D01*
X19446720Y22498250D01*
X19454590Y22455920D01*
Y22413580D01*
X19446720Y22371250D01*
X19430970Y22334210D01*
X19407340Y22302450D01*
X19379780Y22281290D01*
X19348290Y22276000D01*
G01X19572700D02*
Y22593500D01*
X19753800Y22276000D01*
Y22593500D01*
G01X18097240Y-2725830D02*
Y-2408340D01*
G01Y-2455950D02*
X18116920Y-2429500D01*
X18136600Y-2413630D01*
X18168100Y-2408340D01*
X18195650Y-2413630D01*
X18223210Y-2440080D01*
X18235030Y-2477130D01*
X18238960Y-2514170D01*
X18235030Y-2551210D01*
X18223210Y-2588260D01*
X18199590Y-2609420D01*
X18168100Y-2620000D01*
X18140550Y-2614710D01*
X18112990Y-2598840D01*
X18097240Y-2577680D01*
G01X18545980Y-2434790D02*
X18518430Y-2413630D01*
X18494810Y-2408340D01*
X18463320Y-2418920D01*
X18439700Y-2440080D01*
X18423950Y-2477130D01*
X18420010Y-2514170D01*
X18423950Y-2551210D01*
X18439700Y-2582970D01*
X18463320Y-2609420D01*
X18494810Y-2620000D01*
X18522370Y-2609420D01*
X18545980Y-2588260D01*
G01X18797900Y-2302500D02*
X18766400Y-2313080D01*
X18742790Y-2339540D01*
X18727040Y-2371290D01*
X18715230Y-2413630D01*
X18711290Y-2461250D01*
X18715230Y-2508880D01*
X18727040Y-2551210D01*
X18742790Y-2582970D01*
X18766400Y-2609420D01*
X18797900Y-2620000D01*
X18829390Y-2609420D01*
X18853010Y-2582970D01*
X18868760Y-2551210D01*
X18880570Y-2508880D01*
X18884510Y-2461250D01*
X18880570Y-2413630D01*
X18868760Y-2371290D01*
X18853010Y-2339540D01*
X18829390Y-2313080D01*
X18797900Y-2302500D01*
G01X19026190Y-2572390D02*
X19049810Y-2598840D01*
X19077370Y-2614710D01*
X19112800Y-2620000D01*
X19148230Y-2609420D01*
X19175780Y-2588260D01*
X19195470Y-2551210D01*
X19199410Y-2508880D01*
X19191530Y-2466550D01*
X19171850Y-2440080D01*
X19144290Y-2418920D01*
X19116740Y-2413630D01*
X19089180Y-2418920D01*
X19053750Y-2440080D01*
X19065560Y-2302500D01*
X19171850D01*
G01X19427700Y-2620000D02*
Y-2302500D01*
X19380460Y-2366000D01*
G01Y-2620000D02*
X19474930D01*
G01X19813460D02*
Y-2408340D01*
G01Y-2445370D02*
X19797710Y-2424210D01*
X19774090Y-2413630D01*
X19746540Y-2408340D01*
X19718980Y-2418920D01*
X19695360Y-2440080D01*
X19679610Y-2471840D01*
X19671740Y-2514170D01*
X19679610Y-2556500D01*
X19695360Y-2588260D01*
X19718980Y-2609420D01*
X19746540Y-2620000D01*
X19774090Y-2614710D01*
X19797710Y-2598840D01*
X19813460Y-2577680D01*
G01X20321220Y-2514170D02*
X20423580D01*
G01X20923470Y-2620000D02*
Y-2302500D01*
X21017950D01*
X21049440Y-2318380D01*
X21073060Y-2355420D01*
X21080930Y-2397750D01*
X21073060Y-2440080D01*
X21053380Y-2471840D01*
X21017950Y-2487720D01*
X20923470D01*
G01X21261990Y-2620000D02*
Y-2408340D01*
G01Y-2450660D02*
X21281670Y-2429500D01*
X21301350Y-2413630D01*
X21328910Y-2408340D01*
X21348590Y-2413630D01*
X21372210Y-2429500D01*
G01X21632000Y-2620000D02*
X21608380Y-2614710D01*
X21584760Y-2593550D01*
X21569010Y-2556500D01*
X21561140Y-2514170D01*
X21569010Y-2471840D01*
X21584760Y-2434790D01*
X21608380Y-2413630D01*
X21632000Y-2408340D01*
X21655620Y-2413630D01*
X21679240Y-2434790D01*
X21694980Y-2471840D01*
X21698930Y-2514170D01*
X21694980Y-2556500D01*
X21679240Y-2593550D01*
X21655620Y-2614710D01*
X21632000Y-2620000D01*
G01X21946900Y-2302500D02*
Y-2620000D01*
G01X21891790Y-2408340D02*
X22002010D01*
G01X22261800Y-2620000D02*
X22238180Y-2614710D01*
X22214560Y-2593550D01*
X22198810Y-2556500D01*
X22190940Y-2514170D01*
X22198810Y-2471840D01*
X22214560Y-2434790D01*
X22238180Y-2413630D01*
X22261800Y-2408340D01*
X22285420Y-2413630D01*
X22309040Y-2434790D01*
X22324780Y-2471840D01*
X22328730Y-2514170D01*
X22324780Y-2556500D01*
X22309040Y-2593550D01*
X22285420Y-2614710D01*
X22261800Y-2620000D01*
G01X22576700Y-2302500D02*
Y-2620000D01*
G01X22521590Y-2408340D02*
X22631810D01*
G01X22808930Y-2715250D02*
X22832550Y-2725830D01*
X22864050Y-2715250D01*
X22883720Y-2694090D01*
X22899480Y-2667620D01*
X22923090Y-2582970D01*
X22974270Y-2408340D01*
G01X22848300D02*
X22923090Y-2582970D01*
G01X23135640Y-2725830D02*
Y-2408340D01*
G01Y-2455950D02*
X23155320Y-2429500D01*
X23175000Y-2413630D01*
X23206500Y-2408340D01*
X23234050Y-2413630D01*
X23261610Y-2440080D01*
X23273430Y-2477130D01*
X23277360Y-2514170D01*
X23273430Y-2551210D01*
X23261610Y-2588260D01*
X23237990Y-2609420D01*
X23206500Y-2620000D01*
X23178950Y-2614710D01*
X23151390Y-2598840D01*
X23135640Y-2577680D01*
G01X23462350Y-2477130D02*
X23588330D01*
X23576510Y-2440080D01*
X23556830Y-2418920D01*
X23529280Y-2408340D01*
X23501720Y-2413630D01*
X23478100Y-2429500D01*
X23462350Y-2466550D01*
X23454470Y-2498300D01*
Y-2530040D01*
X23462350Y-2561790D01*
X23482030Y-2593550D01*
X23505650Y-2614710D01*
X23533210Y-2620000D01*
X23560770Y-2609420D01*
X23588330Y-2577680D01*
G01X24068530D02*
X24100020Y-2604130D01*
X24135450Y-2620000D01*
X24166950D01*
X24198440Y-2604130D01*
X24222060Y-2577680D01*
X24233870Y-2540620D01*
X24226000Y-2503590D01*
X24206310Y-2471840D01*
X24170880Y-2450660D01*
X24123650Y-2440080D01*
X24096090Y-2418920D01*
X24084270Y-2381880D01*
X24092150Y-2344830D01*
X24111830Y-2318380D01*
X24139390Y-2302500D01*
X24166950D01*
X24194500Y-2313080D01*
X24218130Y-2339540D01*
G01X24466100Y-2620000D02*
X24442480Y-2614710D01*
X24418860Y-2593550D01*
X24403110Y-2556500D01*
X24395240Y-2514170D01*
X24403110Y-2471840D01*
X24418860Y-2434790D01*
X24442480Y-2413630D01*
X24466100Y-2408340D01*
X24489720Y-2413630D01*
X24513340Y-2434790D01*
X24529080Y-2471840D01*
X24533030Y-2514170D01*
X24529080Y-2556500D01*
X24513340Y-2593550D01*
X24489720Y-2614710D01*
X24466100Y-2620000D01*
G01X24702270Y-2302500D02*
Y-2620000D01*
X24859730D01*
G01X25095900Y-2408340D02*
Y-2620000D01*
G01Y-2323670D02*
X25088020Y-2318380D01*
Y-2307790D01*
X25095900Y-2302500D01*
X25103780Y-2307790D01*
Y-2318380D01*
X25095900Y-2323670D01*
G01X25324190Y-2620000D02*
Y-2302500D01*
X25402920D01*
X25434420Y-2318380D01*
X25458040Y-2339540D01*
X25477730Y-2371290D01*
X25493470Y-2408340D01*
X25497410Y-2461250D01*
X25493470Y-2514170D01*
X25477730Y-2551210D01*
X25458040Y-2582970D01*
X25434420Y-2604130D01*
X25402920Y-2620000D01*
X25324190D01*
G01X25942180D02*
X26040600Y-2302500D01*
X26139020Y-2620000D01*
G01X26103580Y-2508880D02*
X25977610D01*
G01X26268890Y-2620000D02*
Y-2302500D01*
X26347620D01*
X26379120Y-2318380D01*
X26402740Y-2339540D01*
X26422430Y-2371290D01*
X26438170Y-2408340D01*
X26442110Y-2461250D01*
X26438170Y-2514170D01*
X26422430Y-2551210D01*
X26402740Y-2582970D01*
X26379120Y-2604130D01*
X26347620Y-2620000D01*
X26268890D01*
G01X26757010Y-2328960D02*
X26733380Y-2313080D01*
X26705830Y-2302500D01*
X26674340D01*
X26638900Y-2318380D01*
X26611350Y-2344830D01*
X26591670Y-2376590D01*
X26575910Y-2429500D01*
X26571980Y-2477130D01*
X26579860Y-2524750D01*
X26591670Y-2556500D01*
X26615290Y-2588260D01*
X26642850Y-2609420D01*
X26670400Y-2620000D01*
X26697950D01*
X26725510Y-2609420D01*
X26749130Y-2593550D01*
X26768820Y-2572390D01*
G01X26942000Y-2514170D02*
X27036480D01*
G01X26985300Y-2445370D02*
Y-2582970D01*
G01X27225400Y-2620000D02*
Y-2302500D01*
X27375000D01*
G01X27319880Y-2455950D02*
X27225400D01*
G01X27536370Y-2620000D02*
Y-2302500D01*
X27630850D01*
X27662340Y-2318380D01*
X27685960Y-2355420D01*
X27693830Y-2397750D01*
X27685960Y-2440080D01*
X27666280Y-2471840D01*
X27630850Y-2487720D01*
X27536370D01*
G01X27953620Y-2461250D02*
X28032360D01*
Y-2556500D01*
X28008730Y-2588260D01*
X27981180Y-2609420D01*
X27941810Y-2620000D01*
X27902450Y-2609420D01*
X27874890Y-2588260D01*
X27851270Y-2556500D01*
X27835510Y-2519460D01*
X27827640Y-2477130D01*
Y-2440080D01*
X27835510Y-2408340D01*
X27851270Y-2371290D01*
X27874890Y-2339540D01*
X27898500Y-2318380D01*
X27930000Y-2302500D01*
X27957550D01*
X27989050Y-2313080D01*
X28012670Y-2334250D01*
G01X28146480Y-2620000D02*
X28244900Y-2302500D01*
X28343320Y-2620000D01*
G01X28307880Y-2508880D02*
X28181910D01*
G01X28803840Y-2620000D02*
Y-2302500D01*
G01Y-2461250D02*
X28823520Y-2429500D01*
X28847150Y-2413630D01*
X28870760Y-2408340D01*
X28906190Y-2418920D01*
X28929810Y-2440080D01*
X28945560Y-2477130D01*
Y-2519460D01*
X28937680Y-2561790D01*
X28921940Y-2593550D01*
X28894380Y-2614710D01*
X28870760Y-2620000D01*
X28847150Y-2614710D01*
X28823520Y-2598840D01*
X28803840Y-2572390D01*
G01X29189600Y-2620000D02*
X29165980Y-2614710D01*
X29142360Y-2593550D01*
X29126610Y-2556500D01*
X29118740Y-2514170D01*
X29126610Y-2471840D01*
X29142360Y-2434790D01*
X29165980Y-2413630D01*
X29189600Y-2408340D01*
X29213220Y-2413630D01*
X29236840Y-2434790D01*
X29252580Y-2471840D01*
X29256530Y-2514170D01*
X29252580Y-2556500D01*
X29236840Y-2593550D01*
X29213220Y-2614710D01*
X29189600Y-2620000D01*
G01X29575360D02*
Y-2408340D01*
G01Y-2445370D02*
X29559610Y-2424210D01*
X29535990Y-2413630D01*
X29508440Y-2408340D01*
X29480880Y-2418920D01*
X29457260Y-2440080D01*
X29441510Y-2471840D01*
X29433640Y-2514170D01*
X29441510Y-2556500D01*
X29457260Y-2588260D01*
X29480880Y-2609420D01*
X29508440Y-2620000D01*
X29535990Y-2614710D01*
X29559610Y-2598840D01*
X29575360Y-2577680D01*
G01X29764290Y-2620000D02*
Y-2408340D01*
G01Y-2450660D02*
X29783970Y-2429500D01*
X29803650Y-2413630D01*
X29831210Y-2408340D01*
X29850890Y-2413630D01*
X29874510Y-2429500D01*
G01X30205160Y-2302500D02*
Y-2620000D01*
G01Y-2572390D02*
X30189410Y-2598840D01*
X30165790Y-2614710D01*
X30138240Y-2620000D01*
X30106750Y-2609420D01*
X30083120Y-2582970D01*
X30067370Y-2551210D01*
X30063440Y-2514170D01*
X30067370Y-2477130D01*
X30083120Y-2445370D01*
X30106750Y-2418920D01*
X30138240Y-2408340D01*
X30165790Y-2413630D01*
X30185480Y-2424210D01*
X30205160Y-2445370D01*
G01X18425000Y-584000D02*
Y2591000D01*
G01X18948740Y-203000D02*
Y114500D01*
X19051110Y-150080D01*
X19153480Y114500D01*
Y-203000D01*
G01X19366070D02*
X19334570Y-197710D01*
X19307020Y-176550D01*
X19283390Y-144790D01*
X19267640Y-107750D01*
X19259770Y-65420D01*
Y-23080D01*
X19267640Y19250D01*
X19283390Y56290D01*
X19307020Y88040D01*
X19334570Y109210D01*
X19366070Y114500D01*
X19397560Y109210D01*
X19425120Y88040D01*
X19448750Y56290D01*
X19464500Y19250D01*
X19472370Y-23080D01*
Y-65420D01*
X19464500Y-107750D01*
X19448750Y-144790D01*
X19425120Y-176550D01*
X19397560Y-197710D01*
X19366070Y-203000D01*
G01X19594420D02*
Y114500D01*
X19673150D01*
X19704650Y98620D01*
X19728270Y77460D01*
X19747960Y45710D01*
X19763710Y8660D01*
X19767640Y-44250D01*
X19763710Y-97170D01*
X19747960Y-134210D01*
X19728270Y-165970D01*
X19704650Y-187130D01*
X19673150Y-203000D01*
X19594420D01*
G01X20220400D02*
Y114500D01*
X20401500Y-203000D01*
Y114500D01*
G01X20625910Y-203000D02*
X20594410Y-197710D01*
X20566860Y-176550D01*
X20543230Y-144790D01*
X20527480Y-107750D01*
X20519610Y-65420D01*
Y-23080D01*
X20527480Y19250D01*
X20543230Y56290D01*
X20566860Y88040D01*
X20594410Y109210D01*
X20625910Y114500D01*
X20657400Y109210D01*
X20684960Y88040D01*
X20708590Y56290D01*
X20724340Y19250D01*
X20732210Y-23080D01*
Y-65420D01*
X20724340Y-107750D01*
X20708590Y-144790D01*
X20684960Y-176550D01*
X20657400Y-197710D01*
X20625910Y-203000D01*
G01X20940870Y-213580D02*
X20932990Y-208290D01*
Y-197710D01*
X20940870Y-192420D01*
X20948750Y-197710D01*
Y-208290D01*
X20940870Y-213580D01*
G01X19180000Y6096000D02*
Y21020000D01*
X31461000D01*
Y6096000D01*
X19180000D01*
G01Y6809700D02*
X31461000D01*
G01X19180000Y7523400D02*
X31461000D01*
G01X19180000Y8237100D02*
X31461000D01*
G01X19180000Y8950800D02*
X31461000D01*
G01X19180000Y9664500D02*
X31461000D01*
G01X19180000Y10378200D02*
X31461000D01*
G01X19180000Y11091900D02*
X31461000D01*
G01X19180000Y11805600D02*
X31461000D01*
G01X19180000Y12519300D02*
X31461000D01*
G01X19180000Y13233000D02*
X31461000D01*
G01X19180000Y13946700D02*
X31461000D01*
G01X19180000Y14660400D02*
X31461000D01*
G01X19180000Y15374100D02*
X31461000D01*
G01X19180000Y16087800D02*
X31461000D01*
G01X19180000Y16801500D02*
X31461000D01*
G01X19180000Y17515200D02*
X31461000D01*
G01X19180000Y18228900D02*
X31461000D01*
G01X19180000Y18942600D02*
X31461000D01*
G01X19180000Y19656300D02*
X31461000D01*
G01X19180000Y20370000D02*
X31461000D01*
G01X19459450Y19180050D02*
Y19497550D01*
X19609050D01*
G01X19553930Y19344100D02*
X19459450D01*
G01X19801910Y19497550D02*
X19896380D01*
G01X19849150D02*
Y19180050D01*
G01X19801910D02*
X19896380D01*
G01X20187670Y19338800D02*
X20266410D01*
Y19243550D01*
X20242780Y19211790D01*
X20215230Y19190630D01*
X20175860Y19180050D01*
X20136500Y19190630D01*
X20108940Y19211790D01*
X20085320Y19243550D01*
X20069560Y19280590D01*
X20061690Y19322920D01*
Y19359970D01*
X20069560Y19391710D01*
X20085320Y19428760D01*
X20108940Y19460510D01*
X20132550Y19481670D01*
X20164050Y19497550D01*
X20191600D01*
X20223100Y19486970D01*
X20246720Y19465800D01*
G01X20392340Y19497550D02*
Y19270010D01*
X20408090Y19222370D01*
X20439580Y19190630D01*
X20478950Y19180050D01*
X20518320Y19190630D01*
X20549810Y19222370D01*
X20565560Y19270010D01*
Y19497550D01*
G01X20715120Y19180050D02*
Y19497550D01*
X20813530D01*
X20845030Y19481670D01*
X20864710Y19460510D01*
X20872580Y19418170D01*
X20864710Y19375840D01*
X20841090Y19349390D01*
X20813530Y19333500D01*
X20715120D01*
G01X20813530D02*
X20872580Y19180050D01*
G01X21187480D02*
X21030020D01*
Y19497550D01*
X21187480D01*
G01X21124500Y19344100D02*
X21030020D01*
G01X20457000Y22403000D02*
X21600000D01*
G01X20898960Y1400000D02*
Y1590500D01*
X20946360D01*
X20965320Y1580970D01*
X20979540Y1568270D01*
X20991390Y1549230D01*
X21000870Y1527000D01*
X21003240Y1495250D01*
X21000870Y1463500D01*
X20991390Y1441270D01*
X20979540Y1422220D01*
X20965320Y1409520D01*
X20946360Y1400000D01*
X20898960D01*
G01X21141600Y1393650D02*
X21136860Y1396830D01*
Y1403170D01*
X21141600Y1406350D01*
X21146340Y1403170D01*
Y1396830D01*
X21141600Y1393650D01*
G01X21384240Y1574620D02*
X21370020Y1584150D01*
X21353430Y1590500D01*
X21334470D01*
X21313140Y1580970D01*
X21296550Y1565100D01*
X21284700Y1546050D01*
X21275220Y1514300D01*
X21272850Y1485720D01*
X21277590Y1457150D01*
X21284700Y1438100D01*
X21298920Y1419050D01*
X21315510Y1406350D01*
X21332100Y1400000D01*
X21348690D01*
X21365280Y1406350D01*
X21379500Y1415870D01*
X21391350Y1428570D01*
G01X21482310Y1527000D02*
Y1438100D01*
X21491790Y1415870D01*
X21506010Y1403170D01*
X21522600Y1400000D01*
X21539190Y1403170D01*
X21553410Y1415870D01*
X21562890Y1438100D01*
G01Y1400000D02*
Y1527000D01*
G01X21677550Y1422220D02*
X21689400Y1409520D01*
X21705990Y1400000D01*
X21720210D01*
X21734430Y1406350D01*
X21743910Y1415870D01*
X21748650Y1428570D01*
X21746280Y1447630D01*
X21736800Y1457150D01*
X21694140Y1476200D01*
X21684660Y1498430D01*
X21689400Y1514300D01*
X21698880Y1523820D01*
X21713100Y1527000D01*
X21727320Y1523820D01*
X21741540Y1514300D01*
G01X21868050Y1422220D02*
X21879900Y1409520D01*
X21896490Y1400000D01*
X21910710D01*
X21924930Y1406350D01*
X21934410Y1415870D01*
X21939150Y1428570D01*
X21936780Y1447630D01*
X21927300Y1457150D01*
X21884640Y1476200D01*
X21875160Y1498430D01*
X21879900Y1514300D01*
X21889380Y1523820D01*
X21903600Y1527000D01*
X21917820Y1523820D01*
X21932040Y1514300D01*
G01X22136760Y1400000D02*
Y1527000D01*
G01Y1504780D02*
X22127280Y1517470D01*
X22113060Y1523820D01*
X22096470Y1527000D01*
X22079880Y1520650D01*
X22065660Y1507950D01*
X22056180Y1488900D01*
X22051440Y1463500D01*
X22056180Y1438100D01*
X22065660Y1419050D01*
X22079880Y1406350D01*
X22096470Y1400000D01*
X22113060Y1403170D01*
X22127280Y1412700D01*
X22136760Y1425390D01*
G01X22244310Y1400000D02*
Y1527000D01*
G01Y1495250D02*
X22253790Y1511120D01*
X22268010Y1523820D01*
X22286970Y1527000D01*
X22303560Y1523820D01*
X22317780Y1511120D01*
X22324890Y1488900D01*
Y1400000D01*
G01X22439550Y1422220D02*
X22451400Y1409520D01*
X22467990Y1400000D01*
X22482210D01*
X22496430Y1406350D01*
X22505910Y1415870D01*
X22510650Y1428570D01*
X22508280Y1447630D01*
X22498800Y1457150D01*
X22456140Y1476200D01*
X22446660Y1498430D01*
X22451400Y1514300D01*
X22460880Y1523820D01*
X22475100Y1527000D01*
X22489320Y1523820D01*
X22503540Y1514300D01*
G01X20970930Y19893750D02*
X21069350Y20211250D01*
X21167770Y19893750D01*
G01X21132330Y20004870D02*
X21006360D01*
G01X21305520Y20211250D02*
Y19893750D01*
X21462980D01*
G01X21620420Y20211250D02*
Y19893750D01*
X21777880D01*
G01X22242340Y20211250D02*
Y19983710D01*
X22258090Y19936070D01*
X22289580Y19904330D01*
X22328950Y19893750D01*
X22368320Y19904330D01*
X22399810Y19936070D01*
X22415560Y19983710D01*
Y20211250D01*
G01X22553310Y19893750D02*
Y20211250D01*
X22734390Y19893750D01*
Y20211250D01*
G01X22911510D02*
X23005980D01*
G01X22958750D02*
Y19893750D01*
G01X22911510D02*
X23005980D01*
G01X23273650Y20211250D02*
Y19893750D01*
G01X23183110Y20211250D02*
X23364190D01*
G01X23505880Y19936070D02*
X23537370Y19909620D01*
X23572800Y19893750D01*
X23604300D01*
X23635790Y19909620D01*
X23659410Y19936070D01*
X23671220Y19973130D01*
X23663350Y20010160D01*
X23643660Y20041910D01*
X23608230Y20063090D01*
X23561000Y20073670D01*
X23533440Y20094830D01*
X23521620Y20131870D01*
X23529500Y20168920D01*
X23549180Y20195370D01*
X23576740Y20211250D01*
X23604300D01*
X23631850Y20200670D01*
X23655480Y20174210D01*
G01X24119930Y19893750D02*
X24218350Y20211250D01*
X24316770Y19893750D01*
G01X24281330Y20004870D02*
X24155360D01*
G01X24454520Y19893750D02*
Y20211250D01*
X24552930D01*
X24584430Y20195370D01*
X24604110Y20174210D01*
X24611980Y20131870D01*
X24604110Y20089540D01*
X24580490Y20063090D01*
X24552930Y20047200D01*
X24454520D01*
G01X24552930D02*
X24611980Y19893750D01*
G01X24926880D02*
X24769420D01*
Y20211250D01*
X24926880D01*
G01X24863900Y20057800D02*
X24769420D01*
G01X25430710Y20211250D02*
X25525180D01*
G01X25477950D02*
Y19893750D01*
G01X25430710D02*
X25525180D01*
G01X25702310D02*
Y20211250D01*
X25883390Y19893750D01*
Y20211250D01*
G01X26320290Y19893750D02*
Y20211250D01*
X26422650Y19946670D01*
X26525010Y20211250D01*
Y19893750D01*
G01X26690310Y20211250D02*
X26784780D01*
G01X26737550D02*
Y19893750D01*
G01X26690310D02*
X26784780D01*
G01X26973720Y20211250D02*
Y19893750D01*
X27131180D01*
G01X27288620Y20211250D02*
Y19893750D01*
X27446080D01*
G01X27635010Y20211250D02*
X27729480D01*
G01X27682250D02*
Y19893750D01*
G01X27635010D02*
X27729480D01*
G01X27894790D02*
Y20211250D01*
X27997150Y19946670D01*
X28099510Y20211250D01*
Y19893750D01*
G01X28390780D02*
X28233320D01*
Y20211250D01*
X28390780D01*
G01X28327800Y20057800D02*
X28233320D01*
G01X28626950Y20211250D02*
Y19893750D01*
G01X28536410Y20211250D02*
X28717490D01*
G01X29020580Y19893750D02*
X28863120D01*
Y20211250D01*
X29020580D01*
G01X28957600Y20057800D02*
X28863120D01*
G01X29178020Y19893750D02*
Y20211250D01*
X29276430D01*
X29307930Y20195370D01*
X29327610Y20174210D01*
X29335480Y20131870D01*
X29327610Y20089540D01*
X29303990Y20063090D01*
X29276430Y20047200D01*
X29178020D01*
G01X29276430D02*
X29335480Y19893750D01*
G01X29488980Y19936070D02*
X29520470Y19909620D01*
X29555900Y19893750D01*
X29587400D01*
X29618890Y19909620D01*
X29642510Y19936070D01*
X29654320Y19973130D01*
X29646450Y20010160D01*
X29626760Y20041910D01*
X29591330Y20063090D01*
X29544100Y20073670D01*
X29516540Y20094830D01*
X29504720Y20131870D01*
X29512600Y20168920D01*
X29532280Y20195370D01*
X29559840Y20211250D01*
X29587400D01*
X29614950Y20200670D01*
X29638580Y20174210D01*
G01X21490780Y22403000D02*
G03I-462280J0D01*
G01X21219000D02*
G03I-190500J0D01*
G01X21346000Y-584000D02*
Y2591000D01*
G01X21297640Y20543750D02*
Y20861250D01*
X21376370D01*
X21407870Y20845370D01*
X21431490Y20824210D01*
X21451180Y20792460D01*
X21466920Y20755410D01*
X21470860Y20702500D01*
X21466920Y20649580D01*
X21451180Y20612540D01*
X21431490Y20580780D01*
X21407870Y20559620D01*
X21376370Y20543750D01*
X21297640D01*
G01X21620420D02*
Y20861250D01*
X21718830D01*
X21750330Y20845370D01*
X21770010Y20824210D01*
X21777880Y20781870D01*
X21770010Y20739540D01*
X21746390Y20713090D01*
X21718830Y20697200D01*
X21620420D01*
G01X21718830D02*
X21777880Y20543750D01*
G01X21966810Y20861250D02*
X22061280D01*
G01X22014050D02*
Y20543750D01*
G01X21966810D02*
X22061280D01*
G01X22250220Y20861250D02*
Y20543750D01*
X22407680D01*
G01X22565120Y20861250D02*
Y20543750D01*
X22722580D01*
G01X23360260Y20834790D02*
X23336630Y20850670D01*
X23309080Y20861250D01*
X23277590D01*
X23242150Y20845370D01*
X23214600Y20818920D01*
X23194920Y20787160D01*
X23179160Y20734250D01*
X23175230Y20686620D01*
X23183110Y20639000D01*
X23194920Y20607250D01*
X23218540Y20575490D01*
X23246100Y20554330D01*
X23273650Y20543750D01*
X23301200D01*
X23328760Y20554330D01*
X23352380Y20570200D01*
X23372070Y20591360D01*
G01X23505880Y20543750D02*
Y20861250D01*
G01X23671220D02*
Y20543750D01*
G01Y20702500D02*
X23505880D01*
G01X23805030Y20543750D02*
X23903450Y20861250D01*
X24001870Y20543750D01*
G01X23966430Y20654870D02*
X23840460D01*
G01X24139620Y20543750D02*
Y20861250D01*
X24238030D01*
X24269530Y20845370D01*
X24289210Y20824210D01*
X24297080Y20781870D01*
X24289210Y20739540D01*
X24265590Y20713090D01*
X24238030Y20697200D01*
X24139620D01*
G01X24238030D02*
X24297080Y20543750D01*
G01X24533250Y20861250D02*
Y20543750D01*
G01X24442710Y20861250D02*
X24623790D01*
G01X24848150Y20533170D02*
X24840270Y20538460D01*
Y20549040D01*
X24848150Y20554330D01*
X24856030Y20549040D01*
Y20538460D01*
X24848150Y20533170D01*
G01Y20676030D02*
X24840270Y20681330D01*
Y20691910D01*
X24848150Y20697200D01*
X24856030Y20691910D01*
Y20681330D01*
X24848150Y20676030D01*
G01X25477950Y20861250D02*
Y20543750D01*
G01X25387410Y20861250D02*
X25568490D01*
G01X25792850Y20543750D02*
X25761350Y20549040D01*
X25733800Y20570200D01*
X25710180Y20601960D01*
X25694430Y20639000D01*
X25686560Y20681330D01*
Y20723670D01*
X25694430Y20766000D01*
X25710180Y20803040D01*
X25733800Y20834790D01*
X25761350Y20855960D01*
X25792850Y20861250D01*
X25824340Y20855960D01*
X25851900Y20834790D01*
X25875520Y20803040D01*
X25891270Y20766000D01*
X25899140Y20723670D01*
Y20681330D01*
X25891270Y20639000D01*
X25875520Y20601960D01*
X25851900Y20570200D01*
X25824340Y20549040D01*
X25792850Y20543750D01*
G01X26029020D02*
Y20861250D01*
X26123500D01*
X26154990Y20845370D01*
X26178610Y20808330D01*
X26186480Y20766000D01*
X26178610Y20723670D01*
X26158930Y20691910D01*
X26123500Y20676030D01*
X26029020D01*
G01X26737550Y20861250D02*
Y20543750D01*
G01X26682440Y20755410D02*
X26792660D01*
G01X27052450Y20543750D02*
X27028830Y20549040D01*
X27005210Y20570200D01*
X26989460Y20607250D01*
X26981590Y20649580D01*
X26989460Y20691910D01*
X27005210Y20728960D01*
X27028830Y20750120D01*
X27052450Y20755410D01*
X27076070Y20750120D01*
X27099690Y20728960D01*
X27115430Y20691910D01*
X27119380Y20649580D01*
X27115430Y20607250D01*
X27099690Y20570200D01*
X27076070Y20549040D01*
X27052450Y20543750D01*
G01X27713740Y20713090D02*
X27729490Y20728960D01*
X27741300Y20755410D01*
X27749180Y20792460D01*
X27741300Y20824210D01*
X27725550Y20845370D01*
X27698000Y20861250D01*
X27591710D01*
Y20543750D01*
X27721620D01*
X27749180Y20564910D01*
X27764920Y20596670D01*
X27772790Y20633710D01*
X27764920Y20670740D01*
X27741300Y20702500D01*
X27713740Y20713090D01*
X27591710D01*
G01X27997150Y20543750D02*
X27965650Y20549040D01*
X27938100Y20570200D01*
X27914480Y20601960D01*
X27898730Y20639000D01*
X27890860Y20681330D01*
Y20723670D01*
X27898730Y20766000D01*
X27914480Y20803040D01*
X27938100Y20834790D01*
X27965650Y20855960D01*
X27997150Y20861250D01*
X28028640Y20855960D01*
X28056200Y20834790D01*
X28079820Y20803040D01*
X28095570Y20766000D01*
X28103440Y20723670D01*
Y20681330D01*
X28095570Y20639000D01*
X28079820Y20601960D01*
X28056200Y20570200D01*
X28028640Y20549040D01*
X27997150Y20543750D01*
G01X28312050Y20861250D02*
Y20543750D01*
G01X28221510Y20861250D02*
X28402590D01*
G01X28626950D02*
Y20543750D01*
G01X28536410Y20861250D02*
X28717490D01*
G01X28941850Y20543750D02*
X28910350Y20549040D01*
X28882800Y20570200D01*
X28859180Y20601960D01*
X28843430Y20639000D01*
X28835560Y20681330D01*
Y20723670D01*
X28843430Y20766000D01*
X28859180Y20803040D01*
X28882800Y20834790D01*
X28910350Y20855960D01*
X28941850Y20861250D01*
X28973340Y20855960D01*
X29000900Y20834790D01*
X29024520Y20803040D01*
X29040270Y20766000D01*
X29048140Y20723670D01*
Y20681330D01*
X29040270Y20639000D01*
X29024520Y20601960D01*
X29000900Y20570200D01*
X28973340Y20549040D01*
X28941850Y20543750D01*
G01X29154390D02*
Y20861250D01*
X29256750Y20596670D01*
X29359110Y20861250D01*
Y20543750D01*
G01X21028500Y22974500D02*
Y21831500D01*
G01X21463000Y19656300D02*
Y6096000D01*
G01X22076000Y-203000D02*
Y114500D01*
X22154730D01*
X22186230Y98620D01*
X22209850Y77460D01*
X22229540Y45710D01*
X22245290Y8660D01*
X22249220Y-44250D01*
X22245290Y-97170D01*
X22229540Y-134210D01*
X22209850Y-165970D01*
X22186230Y-187130D01*
X22154730Y-203000D01*
X22076000D01*
G01X22398830D02*
Y114500D01*
X22497250D01*
X22528750Y98620D01*
X22548440Y77460D01*
X22556310Y35120D01*
X22548440Y-7210D01*
X22524810Y-33660D01*
X22497250Y-49550D01*
X22398830D01*
G01X22497250D02*
X22556310Y-203000D01*
G01X22694100D02*
X22792530Y114500D01*
X22890960Y-203000D01*
G01X22855520Y-91880D02*
X22729530D01*
G01X22989380Y114500D02*
X23044490Y-203000D01*
X23107490Y114500D01*
X23170480Y-203000D01*
X23225600Y114500D01*
G01X23331900Y-203000D02*
Y114500D01*
X23513000Y-203000D01*
Y114500D01*
G01X22108000Y22403000D02*
X23124000D01*
G01X22235000Y22593500D02*
Y22212500D01*
X22997000Y21958500D01*
Y22847500D01*
X22235000Y22593500D01*
G01X23076850Y11290000D02*
Y11607500D01*
X23029610Y11544000D01*
G01Y11290000D02*
X23124080D01*
G01X23391750Y11279420D02*
X23383870Y11284710D01*
Y11295290D01*
X23391750Y11300580D01*
X23399630Y11295290D01*
Y11284710D01*
X23391750Y11279420D01*
G01X23753890Y11290000D02*
Y11607500D01*
X23608230Y11379960D01*
X23805070D01*
G01X23954620Y11327030D02*
X23982180Y11300580D01*
X24013670Y11290000D01*
X24045170Y11300580D01*
X24072730Y11332320D01*
X24092410Y11379960D01*
X24100280Y11427580D01*
Y11485790D01*
X24092410Y11533410D01*
X24072730Y11575750D01*
X24049100Y11596920D01*
X24021550Y11607500D01*
X23990050Y11596920D01*
X23966440Y11575750D01*
X23950690Y11544000D01*
X23942820Y11501660D01*
X23950690Y11464630D01*
X23970370Y11427580D01*
X23994000Y11406410D01*
X24021550Y11401120D01*
X24053040Y11411700D01*
X24076660Y11438160D01*
X24100280Y11485790D01*
G01X24336450Y11290000D02*
X24364000Y11295290D01*
X24395500Y11311160D01*
X24415180Y11337610D01*
X24423060Y11374670D01*
X24415180Y11411700D01*
X24391560Y11443450D01*
X24356130Y11459340D01*
X24316770D01*
X24293150Y11469920D01*
X24273460Y11496370D01*
X24265590Y11533410D01*
X24277400Y11570460D01*
X24304950Y11596920D01*
X24336450Y11607500D01*
X24367940Y11596920D01*
X24395500Y11570460D01*
X24407310Y11533410D01*
X24399430Y11496370D01*
X24379750Y11469920D01*
X24356130Y11459340D01*
X24316770D01*
X24281340Y11443450D01*
X24257720Y11411700D01*
X24249840Y11374670D01*
X24257720Y11337610D01*
X24277400Y11311160D01*
X24308900Y11295290D01*
X24336450Y11290000D01*
G01X24576550Y11422280D02*
X24604110Y11459340D01*
X24627730Y11480500D01*
X24659230Y11491080D01*
X24686780Y11480500D01*
X24706460Y11459340D01*
X24722210Y11427580D01*
X24726150Y11390540D01*
X24722210Y11358790D01*
X24706460Y11327030D01*
X24682840Y11300580D01*
X24655290Y11290000D01*
X24623800Y11300580D01*
X24596240Y11332320D01*
X24580490Y11379960D01*
X24576550Y11432870D01*
X24584420Y11501660D01*
X24596240Y11538710D01*
X24615920Y11575750D01*
X24643470Y11602210D01*
X24671030Y11607500D01*
X24698590Y11596920D01*
X24718280Y11570460D01*
G01X23076850Y15889700D02*
X23045350Y15879120D01*
X23021740Y15852660D01*
X23005990Y15820910D01*
X22994180Y15778570D01*
X22990240Y15730950D01*
X22994180Y15683320D01*
X23005990Y15640990D01*
X23021740Y15609230D01*
X23045350Y15582780D01*
X23076850Y15572200D01*
X23108340Y15582780D01*
X23131960Y15609230D01*
X23147710Y15640990D01*
X23159520Y15683320D01*
X23163460Y15730950D01*
X23159520Y15778570D01*
X23147710Y15820910D01*
X23131960Y15852660D01*
X23108340Y15879120D01*
X23076850Y15889700D01*
G01X23391750Y15561620D02*
X23383870Y15566910D01*
Y15577490D01*
X23391750Y15582780D01*
X23399630Y15577490D01*
Y15566910D01*
X23391750Y15561620D01*
G01X23639720Y15609230D02*
X23667280Y15582780D01*
X23698770Y15572200D01*
X23730270Y15582780D01*
X23757830Y15614520D01*
X23777510Y15662160D01*
X23785380Y15709780D01*
Y15767990D01*
X23777510Y15815610D01*
X23757830Y15857950D01*
X23734200Y15879120D01*
X23706650Y15889700D01*
X23675150Y15879120D01*
X23651540Y15857950D01*
X23635790Y15826200D01*
X23627920Y15783860D01*
X23635790Y15746830D01*
X23655470Y15709780D01*
X23679100Y15688610D01*
X23706650Y15683320D01*
X23738140Y15693900D01*
X23761760Y15720360D01*
X23785380Y15767990D01*
G01X24021550Y15572200D02*
Y15889700D01*
X23974310Y15826200D01*
G01Y15572200D02*
X24068780D01*
G01X24383690D02*
Y15889700D01*
X24238030Y15662160D01*
X24434870D01*
G01X24698590Y15572200D02*
Y15889700D01*
X24552930Y15662160D01*
X24749770D01*
G01X23076850Y17317100D02*
X23045350Y17306520D01*
X23021740Y17280060D01*
X23005990Y17248310D01*
X22994180Y17205970D01*
X22990240Y17158350D01*
X22994180Y17110720D01*
X23005990Y17068390D01*
X23021740Y17036630D01*
X23045350Y17010180D01*
X23076850Y16999600D01*
X23108340Y17010180D01*
X23131960Y17036630D01*
X23147710Y17068390D01*
X23159520Y17110720D01*
X23163460Y17158350D01*
X23159520Y17205970D01*
X23147710Y17248310D01*
X23131960Y17280060D01*
X23108340Y17306520D01*
X23076850Y17317100D01*
G01X23391750Y16989020D02*
X23383870Y16994310D01*
Y17004890D01*
X23391750Y17010180D01*
X23399630Y17004890D01*
Y16994310D01*
X23391750Y16989020D01*
G01X23753890Y16999600D02*
Y17317100D01*
X23608230Y17089560D01*
X23805070D01*
G01X24021550Y17317100D02*
X23990050Y17306520D01*
X23966440Y17280060D01*
X23950690Y17248310D01*
X23938880Y17205970D01*
X23934940Y17158350D01*
X23938880Y17110720D01*
X23950690Y17068390D01*
X23966440Y17036630D01*
X23990050Y17010180D01*
X24021550Y16999600D01*
X24053040Y17010180D01*
X24076660Y17036630D01*
X24092410Y17068390D01*
X24104220Y17110720D01*
X24108160Y17158350D01*
X24104220Y17205970D01*
X24092410Y17248310D01*
X24076660Y17280060D01*
X24053040Y17306520D01*
X24021550Y17317100D01*
G01X24261650Y17131880D02*
X24289210Y17168940D01*
X24312830Y17190100D01*
X24344330Y17200680D01*
X24371880Y17190100D01*
X24391560Y17168940D01*
X24407310Y17137180D01*
X24411250Y17100140D01*
X24407310Y17068390D01*
X24391560Y17036630D01*
X24367940Y17010180D01*
X24340390Y16999600D01*
X24308900Y17010180D01*
X24281340Y17041920D01*
X24265590Y17089560D01*
X24261650Y17142470D01*
X24269520Y17211260D01*
X24281340Y17248310D01*
X24301020Y17285350D01*
X24328570Y17311810D01*
X24356130Y17317100D01*
X24383690Y17306520D01*
X24403380Y17280060D01*
G01X24698590Y16999600D02*
Y17317100D01*
X24552930Y17089560D01*
X24749770D01*
G01X23076850Y18030800D02*
X23045350Y18020220D01*
X23021740Y17993760D01*
X23005990Y17962010D01*
X22994180Y17919670D01*
X22990240Y17872050D01*
X22994180Y17824420D01*
X23005990Y17782090D01*
X23021740Y17750330D01*
X23045350Y17723880D01*
X23076850Y17713300D01*
X23108340Y17723880D01*
X23131960Y17750330D01*
X23147710Y17782090D01*
X23159520Y17824420D01*
X23163460Y17872050D01*
X23159520Y17919670D01*
X23147710Y17962010D01*
X23131960Y17993760D01*
X23108340Y18020220D01*
X23076850Y18030800D01*
G01X23391750Y17702720D02*
X23383870Y17708010D01*
Y17718590D01*
X23391750Y17723880D01*
X23399630Y17718590D01*
Y17708010D01*
X23391750Y17702720D01*
G01X23620040Y17776800D02*
X23643660Y17739750D01*
X23675150Y17718590D01*
X23710590Y17713300D01*
X23742080Y17718590D01*
X23773580Y17745040D01*
X23793260Y17776800D01*
X23797190Y17808550D01*
X23789320Y17845580D01*
X23761760Y17872050D01*
X23734200Y17882640D01*
X23698770D01*
G01X23734200D02*
X23757830Y17898510D01*
X23777510Y17924960D01*
X23785380Y17956710D01*
X23777510Y17988470D01*
X23757830Y18014920D01*
X23722400Y18030800D01*
X23686970Y18025510D01*
X23651540Y18004340D01*
G01X23934940Y17776800D02*
X23958560Y17739750D01*
X23990050Y17718590D01*
X24025490Y17713300D01*
X24056980Y17718590D01*
X24088480Y17745040D01*
X24108160Y17776800D01*
X24112090Y17808550D01*
X24104220Y17845580D01*
X24076660Y17872050D01*
X24049100Y17882640D01*
X24013670D01*
G01X24049100D02*
X24072730Y17898510D01*
X24092410Y17924960D01*
X24100280Y17956710D01*
X24092410Y17988470D01*
X24072730Y18014920D01*
X24037300Y18030800D01*
X24001870Y18025510D01*
X23966440Y18004340D01*
G01X24336450Y18030800D02*
X24304950Y18020220D01*
X24281340Y17993760D01*
X24265590Y17962010D01*
X24253780Y17919670D01*
X24249840Y17872050D01*
X24253780Y17824420D01*
X24265590Y17782090D01*
X24281340Y17750330D01*
X24304950Y17723880D01*
X24336450Y17713300D01*
X24367940Y17723880D01*
X24391560Y17750330D01*
X24407310Y17782090D01*
X24419120Y17824420D01*
X24423060Y17872050D01*
X24419120Y17919670D01*
X24407310Y17962010D01*
X24391560Y17993760D01*
X24367940Y18020220D01*
X24336450Y18030800D01*
G01X24576550Y17977880D02*
X24600170Y18009630D01*
X24627730Y18025510D01*
X24659230Y18030800D01*
X24698590Y18020220D01*
X24726150Y17993760D01*
X24734020Y17962010D01*
X24730080Y17930250D01*
X24714330Y17903800D01*
X24635600Y17850880D01*
X24600170Y17813840D01*
X24576550Y17760910D01*
X24568680Y17713300D01*
X24734020D01*
G01X23549200Y6294100D02*
Y6611600D01*
X23501960Y6548100D01*
G01Y6294100D02*
X23596430D01*
G01X23864100Y6283520D02*
X23856220Y6288810D01*
Y6299390D01*
X23864100Y6304680D01*
X23871980Y6299390D01*
Y6288810D01*
X23864100Y6283520D01*
G01X24171120Y6294100D02*
X24179000Y6362890D01*
X24190810Y6421090D01*
X24206550Y6474020D01*
X24226240Y6532220D01*
X24257730Y6611600D01*
X24100270D01*
G01X23391750Y7007800D02*
Y7325300D01*
X23344510Y7261800D01*
G01Y7007800D02*
X23438980D01*
G01X23706650Y6997220D02*
X23698770Y7002510D01*
Y7013090D01*
X23706650Y7018380D01*
X23714530Y7013090D01*
Y7002510D01*
X23706650Y6997220D01*
G01X23934940Y7055410D02*
X23958560Y7028960D01*
X23986120Y7013090D01*
X24021550Y7007800D01*
X24056980Y7018380D01*
X24084530Y7039540D01*
X24104220Y7076590D01*
X24108160Y7118920D01*
X24100280Y7161250D01*
X24080600Y7187720D01*
X24053040Y7208880D01*
X24025490Y7214170D01*
X23997930Y7208880D01*
X23962500Y7187720D01*
X23974310Y7325300D01*
X24080600D01*
G01X24249840Y7055410D02*
X24273460Y7028960D01*
X24301020Y7013090D01*
X24336450Y7007800D01*
X24371880Y7018380D01*
X24399430Y7039540D01*
X24419120Y7076590D01*
X24423060Y7118920D01*
X24415180Y7161250D01*
X24395500Y7187720D01*
X24367940Y7208880D01*
X24340390Y7214170D01*
X24312830Y7208880D01*
X24277400Y7187720D01*
X24289210Y7325300D01*
X24395500D01*
G01X23391750Y7721500D02*
Y8039000D01*
X23344510Y7975500D01*
G01Y7721500D02*
X23438980D01*
G01X23706650Y7710920D02*
X23698770Y7716210D01*
Y7726790D01*
X23706650Y7732080D01*
X23714530Y7726790D01*
Y7716210D01*
X23706650Y7710920D01*
G01X24068790Y7721500D02*
Y8039000D01*
X23923130Y7811460D01*
X24119970D01*
G01X24249840Y7769110D02*
X24273460Y7742660D01*
X24301020Y7726790D01*
X24336450Y7721500D01*
X24371880Y7732080D01*
X24399430Y7753240D01*
X24419120Y7790290D01*
X24423060Y7832620D01*
X24415180Y7874950D01*
X24395500Y7901420D01*
X24367940Y7922580D01*
X24340390Y7927870D01*
X24312830Y7922580D01*
X24277400Y7901420D01*
X24289210Y8039000D01*
X24395500D01*
G01X23549200Y8435200D02*
Y8752700D01*
X23501960Y8689200D01*
G01Y8435200D02*
X23596430D01*
G01X23864100Y8424620D02*
X23856220Y8429910D01*
Y8440490D01*
X23864100Y8445780D01*
X23871980Y8440490D01*
Y8429910D01*
X23864100Y8424620D01*
G01X24226240Y8435200D02*
Y8752700D01*
X24080580Y8525160D01*
X24277420D01*
G01X23147690Y9212400D02*
X23171310Y9175350D01*
X23202800Y9154190D01*
X23238240Y9148900D01*
X23269730Y9154190D01*
X23301230Y9180640D01*
X23320910Y9212400D01*
X23324840Y9244150D01*
X23316970Y9281180D01*
X23289410Y9307650D01*
X23261850Y9318240D01*
X23226420D01*
G01X23261850D02*
X23285480Y9334110D01*
X23305160Y9360560D01*
X23313030Y9392310D01*
X23305160Y9424070D01*
X23285480Y9450520D01*
X23250050Y9466400D01*
X23214620Y9461110D01*
X23179190Y9439940D01*
G01X23549200Y9138320D02*
X23541320Y9143610D01*
Y9154190D01*
X23549200Y9159480D01*
X23557080Y9154190D01*
Y9143610D01*
X23549200Y9138320D01*
G01X23777490Y9212400D02*
X23801110Y9175350D01*
X23832600Y9154190D01*
X23868040Y9148900D01*
X23899530Y9154190D01*
X23931030Y9180640D01*
X23950710Y9212400D01*
X23954640Y9244150D01*
X23946770Y9281180D01*
X23919210Y9307650D01*
X23891650Y9318240D01*
X23856220D01*
G01X23891650D02*
X23915280Y9334110D01*
X23934960Y9360560D01*
X23942830Y9392310D01*
X23934960Y9424070D01*
X23915280Y9450520D01*
X23879850Y9466400D01*
X23844420Y9461110D01*
X23808990Y9439940D01*
G01X24179000Y9466400D02*
X24147500Y9455820D01*
X24123890Y9429360D01*
X24108140Y9397610D01*
X24096330Y9355270D01*
X24092390Y9307650D01*
X24096330Y9260020D01*
X24108140Y9217690D01*
X24123890Y9185930D01*
X24147500Y9159480D01*
X24179000Y9148900D01*
X24210490Y9159480D01*
X24234110Y9185930D01*
X24249860Y9217690D01*
X24261670Y9260020D01*
X24265610Y9307650D01*
X24261670Y9355270D01*
X24249860Y9397610D01*
X24234110Y9429360D01*
X24210490Y9455820D01*
X24179000Y9466400D01*
G01X24419100Y9413480D02*
X24442720Y9445230D01*
X24470280Y9461110D01*
X24501780Y9466400D01*
X24541140Y9455820D01*
X24568700Y9429360D01*
X24576570Y9397610D01*
X24572630Y9365850D01*
X24556880Y9339400D01*
X24478150Y9286480D01*
X24442720Y9249440D01*
X24419100Y9196510D01*
X24411230Y9148900D01*
X24576570D01*
G01X23474400Y10127180D02*
X23498020Y10158930D01*
X23525580Y10174810D01*
X23557080Y10180100D01*
X23596440Y10169520D01*
X23624000Y10143060D01*
X23631870Y10111310D01*
X23627930Y10079550D01*
X23612180Y10053100D01*
X23533450Y10000180D01*
X23498020Y9963140D01*
X23474400Y9910210D01*
X23466530Y9862600D01*
X23631870D01*
G01X23864100Y9852020D02*
X23856220Y9857310D01*
Y9867890D01*
X23864100Y9873180D01*
X23871980Y9867890D01*
Y9857310D01*
X23864100Y9852020D01*
G01X24179000Y9862600D02*
X24206550Y9867890D01*
X24238050Y9883760D01*
X24257730Y9910210D01*
X24265610Y9947270D01*
X24257730Y9984300D01*
X24234110Y10016050D01*
X24198680Y10031940D01*
X24159320D01*
X24135700Y10042520D01*
X24116010Y10068970D01*
X24108140Y10106010D01*
X24119950Y10143060D01*
X24147500Y10169520D01*
X24179000Y10180100D01*
X24210490Y10169520D01*
X24238050Y10143060D01*
X24249860Y10106010D01*
X24241980Y10068970D01*
X24222300Y10042520D01*
X24198680Y10031940D01*
X24159320D01*
X24123890Y10016050D01*
X24100270Y9984300D01*
X24092390Y9947270D01*
X24100270Y9910210D01*
X24119950Y9883760D01*
X24151450Y9867890D01*
X24179000Y9862600D01*
G01X23549200Y10576300D02*
Y10893800D01*
X23501960Y10830300D01*
G01Y10576300D02*
X23596430D01*
G01X23864100Y10565720D02*
X23856220Y10571010D01*
Y10581590D01*
X23864100Y10586880D01*
X23871980Y10581590D01*
Y10571010D01*
X23864100Y10565720D01*
G01X24171120Y10576300D02*
X24179000Y10645090D01*
X24190810Y10703290D01*
X24206550Y10756220D01*
X24226240Y10814420D01*
X24257730Y10893800D01*
X24100270D01*
G01X23391750Y12003700D02*
Y12321200D01*
X23344510Y12257700D01*
G01Y12003700D02*
X23438980D01*
G01X23706650Y11993120D02*
X23698770Y11998410D01*
Y12008990D01*
X23706650Y12014280D01*
X23714530Y12008990D01*
Y11998410D01*
X23706650Y11993120D01*
G01X23934940Y12067200D02*
X23958560Y12030150D01*
X23990050Y12008990D01*
X24025490Y12003700D01*
X24056980Y12008990D01*
X24088480Y12035440D01*
X24108160Y12067200D01*
X24112090Y12098950D01*
X24104220Y12135980D01*
X24076660Y12162450D01*
X24049100Y12173040D01*
X24013670D01*
G01X24049100D02*
X24072730Y12188910D01*
X24092410Y12215360D01*
X24100280Y12247110D01*
X24092410Y12278870D01*
X24072730Y12305320D01*
X24037300Y12321200D01*
X24001870Y12315910D01*
X23966440Y12294740D01*
G01X24249840Y12051310D02*
X24273460Y12024860D01*
X24301020Y12008990D01*
X24336450Y12003700D01*
X24371880Y12014280D01*
X24399430Y12035440D01*
X24419120Y12072490D01*
X24423060Y12114820D01*
X24415180Y12157150D01*
X24395500Y12183620D01*
X24367940Y12204780D01*
X24340390Y12210070D01*
X24312830Y12204780D01*
X24277400Y12183620D01*
X24289210Y12321200D01*
X24395500D01*
G01X23391750Y12717400D02*
Y13034900D01*
X23344510Y12971400D01*
G01Y12717400D02*
X23438980D01*
G01X23706650Y12706820D02*
X23698770Y12712110D01*
Y12722690D01*
X23706650Y12727980D01*
X23714530Y12722690D01*
Y12712110D01*
X23706650Y12706820D01*
G01X24021550Y13034900D02*
X23990050Y13024320D01*
X23966440Y12997860D01*
X23950690Y12966110D01*
X23938880Y12923770D01*
X23934940Y12876150D01*
X23938880Y12828520D01*
X23950690Y12786190D01*
X23966440Y12754430D01*
X23990050Y12727980D01*
X24021550Y12717400D01*
X24053040Y12727980D01*
X24076660Y12754430D01*
X24092410Y12786190D01*
X24104220Y12828520D01*
X24108160Y12876150D01*
X24104220Y12923770D01*
X24092410Y12966110D01*
X24076660Y12997860D01*
X24053040Y13024320D01*
X24021550Y13034900D01*
G01X24249840Y12765010D02*
X24273460Y12738560D01*
X24301020Y12722690D01*
X24336450Y12717400D01*
X24371880Y12727980D01*
X24399430Y12749140D01*
X24419120Y12786190D01*
X24423060Y12828520D01*
X24415180Y12870850D01*
X24395500Y12897320D01*
X24367940Y12918480D01*
X24340390Y12923770D01*
X24312830Y12918480D01*
X24277400Y12897320D01*
X24289210Y13034900D01*
X24395500D01*
G01X23234300Y13431100D02*
Y13748600D01*
X23187060Y13685100D01*
G01Y13431100D02*
X23281530D01*
G01X23549200Y13420520D02*
X23541320Y13425810D01*
Y13436390D01*
X23549200Y13441680D01*
X23557080Y13436390D01*
Y13425810D01*
X23549200Y13420520D01*
G01X23864100Y13748600D02*
X23832600Y13738020D01*
X23808990Y13711560D01*
X23793240Y13679810D01*
X23781430Y13637470D01*
X23777490Y13589850D01*
X23781430Y13542220D01*
X23793240Y13499890D01*
X23808990Y13468130D01*
X23832600Y13441680D01*
X23864100Y13431100D01*
X23895590Y13441680D01*
X23919210Y13468130D01*
X23934960Y13499890D01*
X23946770Y13542220D01*
X23950710Y13589850D01*
X23946770Y13637470D01*
X23934960Y13679810D01*
X23919210Y13711560D01*
X23895590Y13738020D01*
X23864100Y13748600D01*
G01X24179000Y13431100D02*
Y13748600D01*
X24131760Y13685100D01*
G01Y13431100D02*
X24226230D01*
G01X24419100Y13563380D02*
X24446660Y13600440D01*
X24470280Y13621600D01*
X24501780Y13632180D01*
X24529330Y13621600D01*
X24549010Y13600440D01*
X24564760Y13568680D01*
X24568700Y13531640D01*
X24564760Y13499890D01*
X24549010Y13468130D01*
X24525390Y13441680D01*
X24497840Y13431100D01*
X24466350Y13441680D01*
X24438790Y13473420D01*
X24423040Y13521060D01*
X24419100Y13573970D01*
X24426970Y13642760D01*
X24438790Y13679810D01*
X24458470Y13716850D01*
X24486020Y13743310D01*
X24513580Y13748600D01*
X24541140Y13738020D01*
X24560830Y13711560D01*
G01X23549200Y14144800D02*
Y14462300D01*
X23501960Y14398800D01*
G01Y14144800D02*
X23596430D01*
G01X23864100Y14134220D02*
X23856220Y14139510D01*
Y14150090D01*
X23864100Y14155380D01*
X23871980Y14150090D01*
Y14139510D01*
X23864100Y14134220D01*
G01X24179000Y14462300D02*
X24147500Y14451720D01*
X24123890Y14425260D01*
X24108140Y14393510D01*
X24096330Y14351170D01*
X24092390Y14303550D01*
X24096330Y14255920D01*
X24108140Y14213590D01*
X24123890Y14181830D01*
X24147500Y14155380D01*
X24179000Y14144800D01*
X24210490Y14155380D01*
X24234110Y14181830D01*
X24249860Y14213590D01*
X24261670Y14255920D01*
X24265610Y14303550D01*
X24261670Y14351170D01*
X24249860Y14393510D01*
X24234110Y14425260D01*
X24210490Y14451720D01*
X24179000Y14462300D01*
G01X23391750Y15176000D02*
X23360250Y15165420D01*
X23336640Y15138960D01*
X23320890Y15107210D01*
X23309080Y15064870D01*
X23305140Y15017250D01*
X23309080Y14969620D01*
X23320890Y14927290D01*
X23336640Y14895530D01*
X23360250Y14869080D01*
X23391750Y14858500D01*
X23423240Y14869080D01*
X23446860Y14895530D01*
X23462610Y14927290D01*
X23474420Y14969620D01*
X23478360Y15017250D01*
X23474420Y15064870D01*
X23462610Y15107210D01*
X23446860Y15138960D01*
X23423240Y15165420D01*
X23391750Y15176000D01*
G01X23706650Y14847920D02*
X23698770Y14853210D01*
Y14863790D01*
X23706650Y14869080D01*
X23714530Y14863790D01*
Y14853210D01*
X23706650Y14847920D01*
G01X23954620Y14895530D02*
X23982180Y14869080D01*
X24013670Y14858500D01*
X24045170Y14869080D01*
X24072730Y14900820D01*
X24092410Y14948460D01*
X24100280Y14996080D01*
Y15054290D01*
X24092410Y15101910D01*
X24072730Y15144250D01*
X24049100Y15165420D01*
X24021550Y15176000D01*
X23990050Y15165420D01*
X23966440Y15144250D01*
X23950690Y15112500D01*
X23942820Y15070160D01*
X23950690Y15033130D01*
X23970370Y14996080D01*
X23994000Y14974910D01*
X24021550Y14969620D01*
X24053040Y14980200D01*
X24076660Y15006660D01*
X24100280Y15054290D01*
G01X24249840Y14906110D02*
X24273460Y14879660D01*
X24301020Y14863790D01*
X24336450Y14858500D01*
X24371880Y14869080D01*
X24399430Y14890240D01*
X24419120Y14927290D01*
X24423060Y14969620D01*
X24415180Y15011950D01*
X24395500Y15038420D01*
X24367940Y15059580D01*
X24340390Y15064870D01*
X24312830Y15059580D01*
X24277400Y15038420D01*
X24289210Y15176000D01*
X24395500D01*
G01X23391750Y16603400D02*
X23360250Y16592820D01*
X23336640Y16566360D01*
X23320890Y16534610D01*
X23309080Y16492270D01*
X23305140Y16444650D01*
X23309080Y16397020D01*
X23320890Y16354690D01*
X23336640Y16322930D01*
X23360250Y16296480D01*
X23391750Y16285900D01*
X23423240Y16296480D01*
X23446860Y16322930D01*
X23462610Y16354690D01*
X23474420Y16397020D01*
X23478360Y16444650D01*
X23474420Y16492270D01*
X23462610Y16534610D01*
X23446860Y16566360D01*
X23423240Y16592820D01*
X23391750Y16603400D01*
G01X23706650Y16275320D02*
X23698770Y16280610D01*
Y16291190D01*
X23706650Y16296480D01*
X23714530Y16291190D01*
Y16280610D01*
X23706650Y16275320D01*
G01X24021550Y16285900D02*
X24049100Y16291190D01*
X24080600Y16307060D01*
X24100280Y16333510D01*
X24108160Y16370570D01*
X24100280Y16407600D01*
X24076660Y16439350D01*
X24041230Y16455240D01*
X24001870D01*
X23978250Y16465820D01*
X23958560Y16492270D01*
X23950690Y16529310D01*
X23962500Y16566360D01*
X23990050Y16592820D01*
X24021550Y16603400D01*
X24053040Y16592820D01*
X24080600Y16566360D01*
X24092410Y16529310D01*
X24084530Y16492270D01*
X24064850Y16465820D01*
X24041230Y16455240D01*
X24001870D01*
X23966440Y16439350D01*
X23942820Y16407600D01*
X23934940Y16370570D01*
X23942820Y16333510D01*
X23962500Y16307060D01*
X23994000Y16291190D01*
X24021550Y16285900D01*
G01X24249840Y16333510D02*
X24273460Y16307060D01*
X24301020Y16291190D01*
X24336450Y16285900D01*
X24371880Y16296480D01*
X24399430Y16317640D01*
X24419120Y16354690D01*
X24423060Y16397020D01*
X24415180Y16439350D01*
X24395500Y16465820D01*
X24367940Y16486980D01*
X24340390Y16492270D01*
X24312830Y16486980D01*
X24277400Y16465820D01*
X24289210Y16603400D01*
X24395500D01*
G01X23549200Y18744500D02*
X23517700Y18733920D01*
X23494090Y18707460D01*
X23478340Y18675710D01*
X23466530Y18633370D01*
X23462590Y18585750D01*
X23466530Y18538120D01*
X23478340Y18495790D01*
X23494090Y18464030D01*
X23517700Y18437580D01*
X23549200Y18427000D01*
X23580690Y18437580D01*
X23604310Y18464030D01*
X23620060Y18495790D01*
X23631870Y18538120D01*
X23635810Y18585750D01*
X23631870Y18633370D01*
X23620060Y18675710D01*
X23604310Y18707460D01*
X23580690Y18733920D01*
X23549200Y18744500D01*
G01X23864100Y18416420D02*
X23856220Y18421710D01*
Y18432290D01*
X23864100Y18437580D01*
X23871980Y18432290D01*
Y18421710D01*
X23864100Y18416420D01*
G01X24104200Y18691580D02*
X24127820Y18723330D01*
X24155380Y18739210D01*
X24186880Y18744500D01*
X24226240Y18733920D01*
X24253800Y18707460D01*
X24261670Y18675710D01*
X24257730Y18643950D01*
X24241980Y18617500D01*
X24163250Y18564580D01*
X24127820Y18527540D01*
X24104200Y18474610D01*
X24096330Y18427000D01*
X24261670D01*
G01X23309080Y19222370D02*
X23340570Y19195920D01*
X23376000Y19180050D01*
X23407500D01*
X23438990Y19195920D01*
X23462610Y19222370D01*
X23474420Y19259430D01*
X23466550Y19296460D01*
X23446860Y19328210D01*
X23411430Y19349390D01*
X23364200Y19359970D01*
X23336640Y19381130D01*
X23324820Y19418170D01*
X23332700Y19455220D01*
X23352380Y19481670D01*
X23379940Y19497550D01*
X23407500D01*
X23435050Y19486970D01*
X23458680Y19460510D01*
G01X23659410Y19497550D02*
X23753880D01*
G01X23706650D02*
Y19180050D01*
G01X23659410D02*
X23753880D01*
G01X23946750Y19497550D02*
X24096350D01*
X23946750Y19180050D01*
X24096350D01*
G01X24415180D02*
X24257720D01*
Y19497550D01*
X24415180D01*
G01X24352200Y19344100D02*
X24257720D01*
G01X24267000Y-584000D02*
Y2591000D01*
G01X24916220Y88040D02*
X24892600Y103920D01*
X24865050Y114500D01*
X24833550D01*
X24798110Y98620D01*
X24770560Y72170D01*
X24750870Y40410D01*
X24735120Y-12500D01*
X24731180Y-60130D01*
X24739060Y-107750D01*
X24750870Y-139500D01*
X24774490Y-171260D01*
X24802050Y-192420D01*
X24829610Y-203000D01*
X24857170D01*
X24884730Y-192420D01*
X24908350Y-176550D01*
X24928040Y-155390D01*
G01X25061890Y-203000D02*
Y114500D01*
G01X25227250D02*
Y-203000D01*
G01Y-44250D02*
X25061890D01*
G01X25538270Y-203000D02*
X25380790D01*
Y114500D01*
X25538270D01*
G01X25475280Y-38950D02*
X25380790D01*
G01X25861100Y88040D02*
X25837480Y103920D01*
X25809930Y114500D01*
X25778430D01*
X25742990Y98620D01*
X25715440Y72170D01*
X25695750Y40410D01*
X25680000Y-12500D01*
X25676060Y-60130D01*
X25683940Y-107750D01*
X25695750Y-139500D01*
X25719370Y-171260D01*
X25746930Y-192420D01*
X25774490Y-203000D01*
X25802050D01*
X25829610Y-192420D01*
X25853230Y-176550D01*
X25872920Y-155390D01*
G01X26002840Y-203000D02*
Y114500D01*
G01X26152440D02*
X26002840Y-81300D01*
G01X26176060Y-203000D02*
X26069770Y8660D01*
G01X26483150Y-203000D02*
X26325670D01*
Y114500D01*
X26483150D01*
G01X26420160Y-38950D02*
X26325670D01*
G01X26632760Y-203000D02*
Y114500D01*
X26711490D01*
X26742990Y98620D01*
X26766610Y77460D01*
X26786300Y45710D01*
X26802050Y8660D01*
X26805980Y-44250D01*
X26802050Y-97170D01*
X26786300Y-134210D01*
X26766610Y-165970D01*
X26742990Y-187130D01*
X26711490Y-203000D01*
X26632760D01*
G01X24648000Y22149000D02*
X33030000D01*
G01X25596690Y-5122980D02*
Y-5283000D01*
G01X25550930Y-5122980D02*
X25642450D01*
G01X25756710Y-5283000D02*
X25740790Y-5280330D01*
X25726870Y-5269670D01*
X25714930Y-5253660D01*
X25706970Y-5234990D01*
X25702990Y-5213660D01*
Y-5192320D01*
X25706970Y-5170990D01*
X25714930Y-5152320D01*
X25726870Y-5136320D01*
X25740790Y-5125650D01*
X25756710Y-5122980D01*
X25772630Y-5125650D01*
X25786550Y-5136320D01*
X25798490Y-5152320D01*
X25806450Y-5170990D01*
X25810430Y-5192320D01*
Y-5213660D01*
X25806450Y-5234990D01*
X25798490Y-5253660D01*
X25786550Y-5269670D01*
X25772630Y-5280330D01*
X25756710Y-5283000D01*
G01X25916730Y-5122980D02*
Y-5283000D01*
G01X25870970Y-5122980D02*
X25962490D01*
G01X26027010Y-5283000D02*
X26076750Y-5122980D01*
X26126490Y-5283000D01*
G01X26108580Y-5227000D02*
X26044910D01*
G01X26196980Y-5122980D02*
Y-5283000D01*
X26276560D01*
G01X26511050D02*
Y-5122980D01*
X26602570Y-5283000D01*
Y-5122980D01*
G01X26716830Y-5283000D02*
X26700910Y-5280330D01*
X26686990Y-5269670D01*
X26675050Y-5253660D01*
X26667090Y-5234990D01*
X26663110Y-5213660D01*
Y-5192320D01*
X26667090Y-5170990D01*
X26675050Y-5152320D01*
X26686990Y-5136320D01*
X26700910Y-5125650D01*
X26716830Y-5122980D01*
X26732750Y-5125650D01*
X26746670Y-5136320D01*
X26758610Y-5152320D01*
X26766570Y-5170990D01*
X26770550Y-5192320D01*
Y-5213660D01*
X26766570Y-5234990D01*
X26758610Y-5253660D01*
X26746670Y-5269670D01*
X26732750Y-5280330D01*
X26716830Y-5283000D01*
G01X26876850Y-5288330D02*
X26872870Y-5285670D01*
Y-5280330D01*
X26876850Y-5277670D01*
X26880830Y-5280330D01*
Y-5285670D01*
X26876850Y-5288330D01*
G01X27196890Y-5283000D02*
X27180970Y-5280330D01*
X27167050Y-5269670D01*
X27155110Y-5253660D01*
X27147150Y-5234990D01*
X27143170Y-5213660D01*
Y-5192320D01*
X27147150Y-5170990D01*
X27155110Y-5152320D01*
X27167050Y-5136320D01*
X27180970Y-5125650D01*
X27196890Y-5122980D01*
X27212810Y-5125650D01*
X27226730Y-5136320D01*
X27238670Y-5152320D01*
X27246630Y-5170990D01*
X27250610Y-5192320D01*
Y-5213660D01*
X27246630Y-5234990D01*
X27238670Y-5253660D01*
X27226730Y-5269670D01*
X27212810Y-5280330D01*
X27196890Y-5283000D01*
G01X27319110D02*
Y-5122980D01*
X27394710D01*
G01X27366860Y-5200320D02*
X27319110D01*
G01X27635170Y-5261670D02*
X27651080Y-5275000D01*
X27668990Y-5283000D01*
X27684910D01*
X27700830Y-5275000D01*
X27712770Y-5261670D01*
X27718730Y-5242990D01*
X27714750Y-5224330D01*
X27704800Y-5208330D01*
X27686900Y-5197650D01*
X27663020Y-5192320D01*
X27649100Y-5181660D01*
X27643120Y-5162990D01*
X27647110Y-5144320D01*
X27657050Y-5130980D01*
X27670980Y-5122980D01*
X27684910D01*
X27698840Y-5128310D01*
X27710780Y-5141650D01*
G01X27795190Y-5283000D02*
Y-5122980D01*
G01X27878750D02*
Y-5283000D01*
G01Y-5202990D02*
X27795190D01*
G01X28036780Y-5283000D02*
X27957200D01*
Y-5122980D01*
X28036780D01*
G01X28004950Y-5200320D02*
X27957200D01*
G01X28196800Y-5283000D02*
X28117220D01*
Y-5122980D01*
X28196800D01*
G01X28164970Y-5200320D02*
X28117220D01*
G01X28317030Y-5122980D02*
Y-5283000D01*
G01X28271270Y-5122980D02*
X28362790D01*
G01X28435270Y-5261670D02*
X28451180Y-5275000D01*
X28469090Y-5283000D01*
X28485010D01*
X28500930Y-5275000D01*
X28512870Y-5261670D01*
X28518830Y-5242990D01*
X28514850Y-5224330D01*
X28504900Y-5208330D01*
X28487000Y-5197650D01*
X28463120Y-5192320D01*
X28449200Y-5181660D01*
X28443220Y-5162990D01*
X28447210Y-5144320D01*
X28457150Y-5130980D01*
X28471080Y-5122980D01*
X28485010D01*
X28498940Y-5128310D01*
X28510880Y-5141650D01*
G01X30172500Y-5029000D02*
Y-5410000D01*
X25346500D01*
Y-5029000D01*
G01X26116120Y-1663500D02*
Y-1854000D01*
G01X26061600Y-1663500D02*
X26170640D01*
G01X26256840Y-1911150D02*
X26271060Y-1917500D01*
X26290030Y-1911150D01*
X26301880Y-1898450D01*
X26311360Y-1882570D01*
X26325580Y-1831780D01*
X26356400Y-1727000D01*
G01X26280540D02*
X26325580Y-1831780D01*
G01X26456820Y-1854000D02*
Y-1727000D01*
G01Y-1758750D02*
X26466300Y-1742880D01*
X26480530Y-1730180D01*
X26499490Y-1727000D01*
X26516080Y-1730180D01*
X26530310Y-1742880D01*
X26537420Y-1765100D01*
Y-1854000D01*
G01X26730290Y-1663500D02*
Y-1854000D01*
G01Y-1825430D02*
X26720810Y-1841300D01*
X26706580Y-1850830D01*
X26689990Y-1854000D01*
X26671030Y-1847650D01*
X26656800Y-1831780D01*
X26647320Y-1812730D01*
X26644950Y-1790500D01*
X26647320Y-1768280D01*
X26656800Y-1749220D01*
X26671030Y-1733350D01*
X26689990Y-1727000D01*
X26706580Y-1730180D01*
X26718440Y-1736530D01*
X26730290Y-1749220D01*
G01X26920790Y-1854000D02*
Y-1727000D01*
G01Y-1749220D02*
X26911310Y-1736530D01*
X26897080Y-1730180D01*
X26880490Y-1727000D01*
X26863900Y-1733350D01*
X26849670Y-1746050D01*
X26840190Y-1765100D01*
X26835450Y-1790500D01*
X26840190Y-1815900D01*
X26849670Y-1834950D01*
X26863900Y-1847650D01*
X26880490Y-1854000D01*
X26897080Y-1850830D01*
X26911310Y-1841300D01*
X26920790Y-1828610D01*
G01X27068620Y-1854000D02*
Y-1663500D01*
G01X27259120Y-1854000D02*
Y-1663500D01*
G01X27580850Y-1854000D02*
X27640120Y-1663500D01*
X27699390Y-1854000D01*
G01X27678050Y-1787330D02*
X27602190D01*
G01X27787950Y-1727000D02*
X27830620Y-1854000D01*
X27873290Y-1727000D01*
G01X27985560Y-1768280D02*
X28061420D01*
X28054310Y-1746050D01*
X28042460Y-1733350D01*
X28025860Y-1727000D01*
X28009270Y-1730180D01*
X27995040Y-1739700D01*
X27985560Y-1761930D01*
X27980820Y-1780980D01*
Y-1800020D01*
X27985560Y-1819080D01*
X27997410Y-1838130D01*
X28011640Y-1850830D01*
X28028230Y-1854000D01*
X28044830Y-1847650D01*
X28061420Y-1828610D01*
G01X28171320Y-1854000D02*
Y-1727000D01*
G01Y-1758750D02*
X28180800Y-1742880D01*
X28195030Y-1730180D01*
X28213990Y-1727000D01*
X28230580Y-1730180D01*
X28244810Y-1742880D01*
X28251920Y-1765100D01*
Y-1854000D01*
G01X28361820Y-1727000D02*
Y-1815900D01*
X28371300Y-1838130D01*
X28385530Y-1850830D01*
X28402120Y-1854000D01*
X28418710Y-1850830D01*
X28432940Y-1838130D01*
X28442420Y-1815900D01*
G01Y-1854000D02*
Y-1727000D01*
G01X28557060Y-1768280D02*
X28632920D01*
X28625810Y-1746050D01*
X28613960Y-1733350D01*
X28597360Y-1727000D01*
X28580770Y-1730180D01*
X28566540Y-1739700D01*
X28557060Y-1761930D01*
X28552320Y-1780980D01*
Y-1800020D01*
X28557060Y-1819080D01*
X28568910Y-1838130D01*
X28583140Y-1850830D01*
X28599730Y-1854000D01*
X28616330Y-1847650D01*
X28632920Y-1828610D01*
G01X28778380Y-1888920D02*
X28787860Y-1847650D01*
G01X29183080Y-1752400D02*
X29192570Y-1742880D01*
X29199680Y-1727000D01*
X29204420Y-1704770D01*
X29199680Y-1685730D01*
X29190200Y-1673030D01*
X29173600Y-1663500D01*
X29109600D01*
Y-1854000D01*
X29187830D01*
X29204420Y-1841300D01*
X29213900Y-1822250D01*
X29218640Y-1800020D01*
X29213900Y-1777800D01*
X29199680Y-1758750D01*
X29183080Y-1752400D01*
X29109600D01*
G01X29304840Y-1828610D02*
X29323800Y-1844480D01*
X29345140Y-1854000D01*
X29364100D01*
X29383070Y-1844480D01*
X29397290Y-1828610D01*
X29404400Y-1806370D01*
X29399660Y-1784150D01*
X29387810Y-1765100D01*
X29366470Y-1752400D01*
X29338030Y-1746050D01*
X29321430Y-1733350D01*
X29314320Y-1711130D01*
X29319060Y-1688900D01*
X29330910Y-1673030D01*
X29347510Y-1663500D01*
X29364100D01*
X29380700Y-1669850D01*
X29394920Y-1685730D01*
G01X29545120Y-1854000D02*
X29561710Y-1850830D01*
X29580680Y-1841300D01*
X29592530Y-1825430D01*
X29597270Y-1803200D01*
X29592530Y-1780980D01*
X29578310Y-1761930D01*
X29556970Y-1752400D01*
X29533270D01*
X29519040Y-1746050D01*
X29507190Y-1730180D01*
X29502450Y-1707950D01*
X29509560Y-1685730D01*
X29526150Y-1669850D01*
X29545120Y-1663500D01*
X29564080Y-1669850D01*
X29580680Y-1685730D01*
X29587790Y-1707950D01*
X29583050Y-1730180D01*
X29571200Y-1746050D01*
X29556970Y-1752400D01*
X29533270D01*
X29511930Y-1761930D01*
X29497710Y-1780980D01*
X29492970Y-1803200D01*
X29497710Y-1825430D01*
X29509560Y-1841300D01*
X29528530Y-1850830D01*
X29545120Y-1854000D01*
G01X29926120D02*
Y-1663500D01*
X29897670Y-1701600D01*
G01Y-1854000D02*
X29954560D01*
G01X30116620Y-1663500D02*
Y-1854000D01*
G01X30062100Y-1663500D02*
X30171140D01*
G01X30259710D02*
Y-1854000D01*
X30354530D01*
G01X26066340Y-1536500D02*
Y-1346000D01*
G01X26165900D02*
Y-1536500D01*
G01Y-1441250D02*
X26066340D01*
G01X26306620Y-1542850D02*
X26301880Y-1539670D01*
Y-1533330D01*
X26306620Y-1530150D01*
X26311360Y-1533330D01*
Y-1539670D01*
X26306620Y-1542850D01*
G01X26447340Y-1536500D02*
Y-1346000D01*
G01X26546900D02*
Y-1536500D01*
G01Y-1441250D02*
X26447340D01*
G01X26687620Y-1542850D02*
X26682880Y-1539670D01*
Y-1533330D01*
X26687620Y-1530150D01*
X26692360Y-1533330D01*
Y-1539670D01*
X26687620Y-1542850D01*
G01X26997500Y-1346000D02*
X27030690Y-1536500D01*
X27068620Y-1346000D01*
X27106550Y-1536500D01*
X27139740Y-1346000D01*
G01X27259120Y-1409500D02*
Y-1536500D01*
G01Y-1358700D02*
X27254380Y-1355530D01*
Y-1349170D01*
X27259120Y-1346000D01*
X27263860Y-1349170D01*
Y-1355530D01*
X27259120Y-1358700D01*
G01X27449620Y-1536500D02*
Y-1346000D01*
G01X27640120Y-1536500D02*
Y-1346000D01*
G01X27795060Y-1514280D02*
X27806910Y-1526980D01*
X27823510Y-1536500D01*
X27837730D01*
X27851960Y-1530150D01*
X27861440Y-1520630D01*
X27866180Y-1507930D01*
X27863810Y-1488870D01*
X27854330Y-1479350D01*
X27811650Y-1460300D01*
X27802170Y-1438070D01*
X27806910Y-1422200D01*
X27816400Y-1412680D01*
X27830620Y-1409500D01*
X27844840Y-1412680D01*
X27859070Y-1422200D01*
G01X28164210Y-1536500D02*
Y-1346000D01*
X28221100D01*
X28240070Y-1355530D01*
X28254290Y-1377750D01*
X28259030Y-1403150D01*
X28254290Y-1428550D01*
X28242440Y-1447600D01*
X28221100Y-1457130D01*
X28164210D01*
G01X28361820Y-1536500D02*
Y-1346000D01*
G01Y-1438070D02*
X28373670Y-1422200D01*
X28385530Y-1412680D01*
X28404490Y-1409500D01*
X28418710Y-1412680D01*
X28435310Y-1425380D01*
X28442420Y-1444430D01*
Y-1536500D01*
G01X28542840Y-1593650D02*
X28557060Y-1600000D01*
X28576030Y-1593650D01*
X28587880Y-1580950D01*
X28597360Y-1565070D01*
X28611580Y-1514280D01*
X28642400Y-1409500D01*
G01X28566540D02*
X28611580Y-1514280D01*
G01X28747560D02*
X28759410Y-1526980D01*
X28776010Y-1536500D01*
X28790230D01*
X28804460Y-1530150D01*
X28813940Y-1520630D01*
X28818680Y-1507930D01*
X28816310Y-1488870D01*
X28806830Y-1479350D01*
X28764150Y-1460300D01*
X28754670Y-1438070D01*
X28759410Y-1422200D01*
X28768900Y-1412680D01*
X28783120Y-1409500D01*
X28797340Y-1412680D01*
X28811570Y-1422200D01*
G01X28973620Y-1409500D02*
Y-1536500D01*
G01Y-1358700D02*
X28968880Y-1355530D01*
Y-1349170D01*
X28973620Y-1346000D01*
X28978360Y-1349170D01*
Y-1355530D01*
X28973620Y-1358700D01*
G01X29202050Y-1425380D02*
X29185460Y-1412680D01*
X29171230Y-1409500D01*
X29152270Y-1415850D01*
X29138040Y-1428550D01*
X29128560Y-1450780D01*
X29126190Y-1473000D01*
X29128560Y-1495230D01*
X29138040Y-1514280D01*
X29152270Y-1530150D01*
X29171230Y-1536500D01*
X29187830Y-1530150D01*
X29202050Y-1517450D01*
G01X29319060Y-1514280D02*
X29330910Y-1526980D01*
X29347510Y-1536500D01*
X29361730D01*
X29375960Y-1530150D01*
X29385440Y-1520630D01*
X29390180Y-1507930D01*
X29387810Y-1488870D01*
X29378330Y-1479350D01*
X29335650Y-1460300D01*
X29326170Y-1438070D01*
X29330910Y-1422200D01*
X29340400Y-1412680D01*
X29354620Y-1409500D01*
X29368840Y-1412680D01*
X29383070Y-1422200D01*
G01X29688210Y-1346000D02*
Y-1536500D01*
X29783030D01*
G01X29968790D02*
Y-1409500D01*
G01Y-1431720D02*
X29959310Y-1419030D01*
X29945080Y-1412680D01*
X29928490Y-1409500D01*
X29911900Y-1415850D01*
X29897670Y-1428550D01*
X29888190Y-1447600D01*
X29883450Y-1473000D01*
X29888190Y-1498400D01*
X29897670Y-1517450D01*
X29911900Y-1530150D01*
X29928490Y-1536500D01*
X29945080Y-1533330D01*
X29959310Y-1523800D01*
X29968790Y-1511110D01*
G01X30073950Y-1536500D02*
Y-1346000D01*
G01Y-1441250D02*
X30085800Y-1422200D01*
X30100030Y-1412680D01*
X30114250Y-1409500D01*
X30135580Y-1415850D01*
X30149810Y-1428550D01*
X30159290Y-1450780D01*
Y-1476180D01*
X30154550Y-1501580D01*
X30145070Y-1520630D01*
X30128470Y-1533330D01*
X30114250Y-1536500D01*
X30100030Y-1533330D01*
X30085800Y-1523800D01*
X30073950Y-1507930D01*
G01X30307120Y-1536500D02*
X30292900Y-1533330D01*
X30278670Y-1520630D01*
X30269190Y-1498400D01*
X30264450Y-1473000D01*
X30269190Y-1447600D01*
X30278670Y-1425380D01*
X30292900Y-1412680D01*
X30307120Y-1409500D01*
X30321340Y-1412680D01*
X30335570Y-1425380D01*
X30345050Y-1447600D01*
X30347420Y-1473000D01*
X30345050Y-1498400D01*
X30335570Y-1520630D01*
X30321340Y-1533330D01*
X30307120Y-1536500D01*
G01X30464430D02*
Y-1409500D01*
G01Y-1434900D02*
X30476280Y-1422200D01*
X30488140Y-1412680D01*
X30504730Y-1409500D01*
X30516580Y-1412680D01*
X30530810Y-1422200D01*
G01X30730790Y-1536500D02*
Y-1409500D01*
G01Y-1431720D02*
X30721310Y-1419030D01*
X30707080Y-1412680D01*
X30690490Y-1409500D01*
X30673900Y-1415850D01*
X30659670Y-1428550D01*
X30650190Y-1447600D01*
X30645450Y-1473000D01*
X30650190Y-1498400D01*
X30659670Y-1517450D01*
X30673900Y-1530150D01*
X30690490Y-1536500D01*
X30707080Y-1533330D01*
X30721310Y-1523800D01*
X30730790Y-1511110D01*
G01X30878620Y-1346000D02*
Y-1536500D01*
G01X30845430Y-1409500D02*
X30911810D01*
G01X31069120Y-1536500D02*
X31054900Y-1533330D01*
X31040670Y-1520630D01*
X31031190Y-1498400D01*
X31026450Y-1473000D01*
X31031190Y-1447600D01*
X31040670Y-1425380D01*
X31054900Y-1412680D01*
X31069120Y-1409500D01*
X31083340Y-1412680D01*
X31097570Y-1425380D01*
X31107050Y-1447600D01*
X31109420Y-1473000D01*
X31107050Y-1498400D01*
X31097570Y-1520630D01*
X31083340Y-1533330D01*
X31069120Y-1536500D01*
G01X31226430D02*
Y-1409500D01*
G01Y-1434900D02*
X31238280Y-1422200D01*
X31250140Y-1412680D01*
X31266730Y-1409500D01*
X31278580Y-1412680D01*
X31292810Y-1422200D01*
G01X31400340Y-1593650D02*
X31414560Y-1600000D01*
X31433530Y-1593650D01*
X31445380Y-1580950D01*
X31454860Y-1565070D01*
X31469080Y-1514280D01*
X31499900Y-1409500D01*
G01X31424040D02*
X31469080Y-1514280D01*
G01X31635880Y-1571420D02*
X31645360Y-1530150D01*
G01X26371460Y6294100D02*
Y6611600D01*
X26552540Y6294100D01*
Y6611600D01*
G01X26776900Y6294100D02*
X26745400Y6299390D01*
X26717850Y6320550D01*
X26694230Y6352310D01*
X26678480Y6389350D01*
X26670610Y6431680D01*
Y6474020D01*
X26678480Y6516350D01*
X26694230Y6553390D01*
X26717850Y6585140D01*
X26745400Y6606310D01*
X26776900Y6611600D01*
X26808390Y6606310D01*
X26835950Y6585140D01*
X26859570Y6553390D01*
X26875320Y6516350D01*
X26883190Y6474020D01*
Y6431680D01*
X26875320Y6389350D01*
X26859570Y6352310D01*
X26835950Y6320550D01*
X26808390Y6299390D01*
X26776900Y6294100D01*
G01X27001260D02*
Y6611600D01*
X27182340Y6294100D01*
Y6611600D01*
G01X27355520Y6399930D02*
X27457880D01*
G01X27642870Y6294100D02*
Y6611600D01*
X27737350D01*
X27768840Y6595720D01*
X27792460Y6558680D01*
X27800330Y6516350D01*
X27792460Y6474020D01*
X27772780Y6442260D01*
X27737350Y6426380D01*
X27642870D01*
G01X27957770Y6611600D02*
Y6294100D01*
X28115230D01*
G01X28252980D02*
X28351400Y6611600D01*
X28449820Y6294100D01*
G01X28414380Y6405220D02*
X28288410D01*
G01X28666300Y6611600D02*
Y6294100D01*
G01X28575760Y6611600D02*
X28756840D01*
G01X29059930Y6294100D02*
X28902470D01*
Y6611600D01*
X29059930D01*
G01X28996950Y6458150D02*
X28902470D01*
G01X29209490Y6294100D02*
Y6611600D01*
X29288220D01*
X29319720Y6595720D01*
X29343340Y6574560D01*
X29363030Y6542810D01*
X29378770Y6505760D01*
X29382710Y6452850D01*
X29378770Y6399930D01*
X29363030Y6362890D01*
X29343340Y6331130D01*
X29319720Y6309970D01*
X29288220Y6294100D01*
X29209490D01*
G01X26265200Y19656300D02*
Y6096000D01*
G01X26371460Y7007800D02*
Y7325300D01*
X26552540Y7007800D01*
Y7325300D01*
G01X26776900Y7007800D02*
X26745400Y7013090D01*
X26717850Y7034250D01*
X26694230Y7066010D01*
X26678480Y7103050D01*
X26670610Y7145380D01*
Y7187720D01*
X26678480Y7230050D01*
X26694230Y7267090D01*
X26717850Y7298840D01*
X26745400Y7320010D01*
X26776900Y7325300D01*
X26808390Y7320010D01*
X26835950Y7298840D01*
X26859570Y7267090D01*
X26875320Y7230050D01*
X26883190Y7187720D01*
Y7145380D01*
X26875320Y7103050D01*
X26859570Y7066010D01*
X26835950Y7034250D01*
X26808390Y7013090D01*
X26776900Y7007800D01*
G01X27001260D02*
Y7325300D01*
X27182340Y7007800D01*
Y7325300D01*
G01X27355520Y7113630D02*
X27457880D01*
G01X27642870Y7007800D02*
Y7325300D01*
X27737350D01*
X27768840Y7309420D01*
X27792460Y7272380D01*
X27800330Y7230050D01*
X27792460Y7187720D01*
X27772780Y7155960D01*
X27737350Y7140080D01*
X27642870D01*
G01X27957770Y7325300D02*
Y7007800D01*
X28115230D01*
G01X28252980D02*
X28351400Y7325300D01*
X28449820Y7007800D01*
G01X28414380Y7118920D02*
X28288410D01*
G01X28666300Y7325300D02*
Y7007800D01*
G01X28575760Y7325300D02*
X28756840D01*
G01X29059930Y7007800D02*
X28902470D01*
Y7325300D01*
X29059930D01*
G01X28996950Y7171850D02*
X28902470D01*
G01X29209490Y7007800D02*
Y7325300D01*
X29288220D01*
X29319720Y7309420D01*
X29343340Y7288260D01*
X29363030Y7256510D01*
X29378770Y7219460D01*
X29382710Y7166550D01*
X29378770Y7113630D01*
X29363030Y7076590D01*
X29343340Y7044830D01*
X29319720Y7023670D01*
X29288220Y7007800D01*
X29209490D01*
G01X26371460Y7721500D02*
Y8039000D01*
X26552540Y7721500D01*
Y8039000D01*
G01X26776900Y7721500D02*
X26745400Y7726790D01*
X26717850Y7747950D01*
X26694230Y7779710D01*
X26678480Y7816750D01*
X26670610Y7859080D01*
Y7901420D01*
X26678480Y7943750D01*
X26694230Y7980790D01*
X26717850Y8012540D01*
X26745400Y8033710D01*
X26776900Y8039000D01*
X26808390Y8033710D01*
X26835950Y8012540D01*
X26859570Y7980790D01*
X26875320Y7943750D01*
X26883190Y7901420D01*
Y7859080D01*
X26875320Y7816750D01*
X26859570Y7779710D01*
X26835950Y7747950D01*
X26808390Y7726790D01*
X26776900Y7721500D01*
G01X27001260D02*
Y8039000D01*
X27182340Y7721500D01*
Y8039000D01*
G01X27355520Y7827330D02*
X27457880D01*
G01X27642870Y7721500D02*
Y8039000D01*
X27737350D01*
X27768840Y8023120D01*
X27792460Y7986080D01*
X27800330Y7943750D01*
X27792460Y7901420D01*
X27772780Y7869660D01*
X27737350Y7853780D01*
X27642870D01*
G01X27957770Y8039000D02*
Y7721500D01*
X28115230D01*
G01X28252980D02*
X28351400Y8039000D01*
X28449820Y7721500D01*
G01X28414380Y7832620D02*
X28288410D01*
G01X28666300Y8039000D02*
Y7721500D01*
G01X28575760Y8039000D02*
X28756840D01*
G01X29059930Y7721500D02*
X28902470D01*
Y8039000D01*
X29059930D01*
G01X28996950Y7885550D02*
X28902470D01*
G01X29209490Y7721500D02*
Y8039000D01*
X29288220D01*
X29319720Y8023120D01*
X29343340Y8001960D01*
X29363030Y7970210D01*
X29378770Y7933160D01*
X29382710Y7880250D01*
X29378770Y7827330D01*
X29363030Y7790290D01*
X29343340Y7758530D01*
X29319720Y7737370D01*
X29288220Y7721500D01*
X29209490D01*
G01X26371460Y8435200D02*
Y8752700D01*
X26552540Y8435200D01*
Y8752700D01*
G01X26776900Y8435200D02*
X26745400Y8440490D01*
X26717850Y8461650D01*
X26694230Y8493410D01*
X26678480Y8530450D01*
X26670610Y8572780D01*
Y8615120D01*
X26678480Y8657450D01*
X26694230Y8694490D01*
X26717850Y8726240D01*
X26745400Y8747410D01*
X26776900Y8752700D01*
X26808390Y8747410D01*
X26835950Y8726240D01*
X26859570Y8694490D01*
X26875320Y8657450D01*
X26883190Y8615120D01*
Y8572780D01*
X26875320Y8530450D01*
X26859570Y8493410D01*
X26835950Y8461650D01*
X26808390Y8440490D01*
X26776900Y8435200D01*
G01X27001260D02*
Y8752700D01*
X27182340Y8435200D01*
Y8752700D01*
G01X27355520Y8541030D02*
X27457880D01*
G01X27642870Y8435200D02*
Y8752700D01*
X27737350D01*
X27768840Y8736820D01*
X27792460Y8699780D01*
X27800330Y8657450D01*
X27792460Y8615120D01*
X27772780Y8583360D01*
X27737350Y8567480D01*
X27642870D01*
G01X27957770Y8752700D02*
Y8435200D01*
X28115230D01*
G01X28252980D02*
X28351400Y8752700D01*
X28449820Y8435200D01*
G01X28414380Y8546320D02*
X28288410D01*
G01X28666300Y8752700D02*
Y8435200D01*
G01X28575760Y8752700D02*
X28756840D01*
G01X29059930Y8435200D02*
X28902470D01*
Y8752700D01*
X29059930D01*
G01X28996950Y8599250D02*
X28902470D01*
G01X29209490Y8435200D02*
Y8752700D01*
X29288220D01*
X29319720Y8736820D01*
X29343340Y8715660D01*
X29363030Y8683910D01*
X29378770Y8646860D01*
X29382710Y8593950D01*
X29378770Y8541030D01*
X29363030Y8503990D01*
X29343340Y8472230D01*
X29319720Y8451070D01*
X29288220Y8435200D01*
X29209490D01*
G01X27188000Y-584000D02*
Y2591000D01*
G01X27013070Y9148900D02*
Y9466400D01*
X27107550D01*
X27139040Y9450520D01*
X27162660Y9413480D01*
X27170530Y9371150D01*
X27162660Y9328820D01*
X27142980Y9297060D01*
X27107550Y9281180D01*
X27013070D01*
G01X27327970Y9466400D02*
Y9148900D01*
X27485430D01*
G01X27623180D02*
X27721600Y9466400D01*
X27820020Y9148900D01*
G01X27784580Y9260020D02*
X27658610D01*
G01X28036500Y9466400D02*
Y9148900D01*
G01X27945960Y9466400D02*
X28127040D01*
G01X28430130Y9148900D02*
X28272670D01*
Y9466400D01*
X28430130D01*
G01X28367150Y9312950D02*
X28272670D01*
G01X28579690Y9148900D02*
Y9466400D01*
X28658420D01*
X28689920Y9450520D01*
X28713540Y9429360D01*
X28733230Y9397610D01*
X28748970Y9360560D01*
X28752910Y9307650D01*
X28748970Y9254730D01*
X28733230Y9217690D01*
X28713540Y9185930D01*
X28689920Y9164770D01*
X28658420Y9148900D01*
X28579690D01*
G01X27013070Y9862600D02*
Y10180100D01*
X27107550D01*
X27139040Y10164220D01*
X27162660Y10127180D01*
X27170530Y10084850D01*
X27162660Y10042520D01*
X27142980Y10010760D01*
X27107550Y9994880D01*
X27013070D01*
G01X27327970Y10180100D02*
Y9862600D01*
X27485430D01*
G01X27623180D02*
X27721600Y10180100D01*
X27820020Y9862600D01*
G01X27784580Y9973720D02*
X27658610D01*
G01X28036500Y10180100D02*
Y9862600D01*
G01X27945960Y10180100D02*
X28127040D01*
G01X28430130Y9862600D02*
X28272670D01*
Y10180100D01*
X28430130D01*
G01X28367150Y10026650D02*
X28272670D01*
G01X28579690Y9862600D02*
Y10180100D01*
X28658420D01*
X28689920Y10164220D01*
X28713540Y10143060D01*
X28733230Y10111310D01*
X28748970Y10074260D01*
X28752910Y10021350D01*
X28748970Y9968430D01*
X28733230Y9931390D01*
X28713540Y9899630D01*
X28689920Y9878470D01*
X28658420Y9862600D01*
X28579690D01*
G01X27013070Y10576300D02*
Y10893800D01*
X27107550D01*
X27139040Y10877920D01*
X27162660Y10840880D01*
X27170530Y10798550D01*
X27162660Y10756220D01*
X27142980Y10724460D01*
X27107550Y10708580D01*
X27013070D01*
G01X27327970Y10893800D02*
Y10576300D01*
X27485430D01*
G01X27623180D02*
X27721600Y10893800D01*
X27820020Y10576300D01*
G01X27784580Y10687420D02*
X27658610D01*
G01X28036500Y10893800D02*
Y10576300D01*
G01X27945960Y10893800D02*
X28127040D01*
G01X28430130Y10576300D02*
X28272670D01*
Y10893800D01*
X28430130D01*
G01X28367150Y10740350D02*
X28272670D01*
G01X28579690Y10576300D02*
Y10893800D01*
X28658420D01*
X28689920Y10877920D01*
X28713540Y10856760D01*
X28733230Y10825010D01*
X28748970Y10787960D01*
X28752910Y10735050D01*
X28748970Y10682130D01*
X28733230Y10645090D01*
X28713540Y10613330D01*
X28689920Y10592170D01*
X28658420Y10576300D01*
X28579690D01*
G01X27013070Y11290000D02*
Y11607500D01*
X27107550D01*
X27139040Y11591620D01*
X27162660Y11554580D01*
X27170530Y11512250D01*
X27162660Y11469920D01*
X27142980Y11438160D01*
X27107550Y11422280D01*
X27013070D01*
G01X27327970Y11607500D02*
Y11290000D01*
X27485430D01*
G01X27623180D02*
X27721600Y11607500D01*
X27820020Y11290000D01*
G01X27784580Y11401120D02*
X27658610D01*
G01X28036500Y11607500D02*
Y11290000D01*
G01X27945960Y11607500D02*
X28127040D01*
G01X28430130Y11290000D02*
X28272670D01*
Y11607500D01*
X28430130D01*
G01X28367150Y11454050D02*
X28272670D01*
G01X28579690Y11290000D02*
Y11607500D01*
X28658420D01*
X28689920Y11591620D01*
X28713540Y11570460D01*
X28733230Y11538710D01*
X28748970Y11501660D01*
X28752910Y11448750D01*
X28748970Y11395830D01*
X28733230Y11358790D01*
X28713540Y11327030D01*
X28689920Y11305870D01*
X28658420Y11290000D01*
X28579690D01*
G01X27013070Y12003700D02*
Y12321200D01*
X27107550D01*
X27139040Y12305320D01*
X27162660Y12268280D01*
X27170530Y12225950D01*
X27162660Y12183620D01*
X27142980Y12151860D01*
X27107550Y12135980D01*
X27013070D01*
G01X27327970Y12321200D02*
Y12003700D01*
X27485430D01*
G01X27623180D02*
X27721600Y12321200D01*
X27820020Y12003700D01*
G01X27784580Y12114820D02*
X27658610D01*
G01X28036500Y12321200D02*
Y12003700D01*
G01X27945960Y12321200D02*
X28127040D01*
G01X28430130Y12003700D02*
X28272670D01*
Y12321200D01*
X28430130D01*
G01X28367150Y12167750D02*
X28272670D01*
G01X28579690Y12003700D02*
Y12321200D01*
X28658420D01*
X28689920Y12305320D01*
X28713540Y12284160D01*
X28733230Y12252410D01*
X28748970Y12215360D01*
X28752910Y12162450D01*
X28748970Y12109530D01*
X28733230Y12072490D01*
X28713540Y12040730D01*
X28689920Y12019570D01*
X28658420Y12003700D01*
X28579690D01*
G01X27013070Y12717400D02*
Y13034900D01*
X27107550D01*
X27139040Y13019020D01*
X27162660Y12981980D01*
X27170530Y12939650D01*
X27162660Y12897320D01*
X27142980Y12865560D01*
X27107550Y12849680D01*
X27013070D01*
G01X27327970Y13034900D02*
Y12717400D01*
X27485430D01*
G01X27623180D02*
X27721600Y13034900D01*
X27820020Y12717400D01*
G01X27784580Y12828520D02*
X27658610D01*
G01X28036500Y13034900D02*
Y12717400D01*
G01X27945960Y13034900D02*
X28127040D01*
G01X28430130Y12717400D02*
X28272670D01*
Y13034900D01*
X28430130D01*
G01X28367150Y12881450D02*
X28272670D01*
G01X28579690Y12717400D02*
Y13034900D01*
X28658420D01*
X28689920Y13019020D01*
X28713540Y12997860D01*
X28733230Y12966110D01*
X28748970Y12929060D01*
X28752910Y12876150D01*
X28748970Y12823230D01*
X28733230Y12786190D01*
X28713540Y12754430D01*
X28689920Y12733270D01*
X28658420Y12717400D01*
X28579690D01*
G01X27013070Y13431100D02*
Y13748600D01*
X27107550D01*
X27139040Y13732720D01*
X27162660Y13695680D01*
X27170530Y13653350D01*
X27162660Y13611020D01*
X27142980Y13579260D01*
X27107550Y13563380D01*
X27013070D01*
G01X27327970Y13748600D02*
Y13431100D01*
X27485430D01*
G01X27623180D02*
X27721600Y13748600D01*
X27820020Y13431100D01*
G01X27784580Y13542220D02*
X27658610D01*
G01X28036500Y13748600D02*
Y13431100D01*
G01X27945960Y13748600D02*
X28127040D01*
G01X28430130Y13431100D02*
X28272670D01*
Y13748600D01*
X28430130D01*
G01X28367150Y13595150D02*
X28272670D01*
G01X28579690Y13431100D02*
Y13748600D01*
X28658420D01*
X28689920Y13732720D01*
X28713540Y13711560D01*
X28733230Y13679810D01*
X28748970Y13642760D01*
X28752910Y13589850D01*
X28748970Y13536930D01*
X28733230Y13499890D01*
X28713540Y13468130D01*
X28689920Y13446970D01*
X28658420Y13431100D01*
X28579690D01*
G01X27013070Y14144800D02*
Y14462300D01*
X27107550D01*
X27139040Y14446420D01*
X27162660Y14409380D01*
X27170530Y14367050D01*
X27162660Y14324720D01*
X27142980Y14292960D01*
X27107550Y14277080D01*
X27013070D01*
G01X27327970Y14462300D02*
Y14144800D01*
X27485430D01*
G01X27623180D02*
X27721600Y14462300D01*
X27820020Y14144800D01*
G01X27784580Y14255920D02*
X27658610D01*
G01X28036500Y14462300D02*
Y14144800D01*
G01X27945960Y14462300D02*
X28127040D01*
G01X28430130Y14144800D02*
X28272670D01*
Y14462300D01*
X28430130D01*
G01X28367150Y14308850D02*
X28272670D01*
G01X28579690Y14144800D02*
Y14462300D01*
X28658420D01*
X28689920Y14446420D01*
X28713540Y14425260D01*
X28733230Y14393510D01*
X28748970Y14356460D01*
X28752910Y14303550D01*
X28748970Y14250630D01*
X28733230Y14213590D01*
X28713540Y14181830D01*
X28689920Y14160670D01*
X28658420Y14144800D01*
X28579690D01*
G01X27013070Y14858500D02*
Y15176000D01*
X27107550D01*
X27139040Y15160120D01*
X27162660Y15123080D01*
X27170530Y15080750D01*
X27162660Y15038420D01*
X27142980Y15006660D01*
X27107550Y14990780D01*
X27013070D01*
G01X27327970Y15176000D02*
Y14858500D01*
X27485430D01*
G01X27623180D02*
X27721600Y15176000D01*
X27820020Y14858500D01*
G01X27784580Y14969620D02*
X27658610D01*
G01X28036500Y15176000D02*
Y14858500D01*
G01X27945960Y15176000D02*
X28127040D01*
G01X28430130Y14858500D02*
X28272670D01*
Y15176000D01*
X28430130D01*
G01X28367150Y15022550D02*
X28272670D01*
G01X28579690Y14858500D02*
Y15176000D01*
X28658420D01*
X28689920Y15160120D01*
X28713540Y15138960D01*
X28733230Y15107210D01*
X28748970Y15070160D01*
X28752910Y15017250D01*
X28748970Y14964330D01*
X28733230Y14927290D01*
X28713540Y14895530D01*
X28689920Y14874370D01*
X28658420Y14858500D01*
X28579690D01*
G01X27013070Y15572200D02*
Y15889700D01*
X27107550D01*
X27139040Y15873820D01*
X27162660Y15836780D01*
X27170530Y15794450D01*
X27162660Y15752120D01*
X27142980Y15720360D01*
X27107550Y15704480D01*
X27013070D01*
G01X27327970Y15889700D02*
Y15572200D01*
X27485430D01*
G01X27623180D02*
X27721600Y15889700D01*
X27820020Y15572200D01*
G01X27784580Y15683320D02*
X27658610D01*
G01X28036500Y15889700D02*
Y15572200D01*
G01X27945960Y15889700D02*
X28127040D01*
G01X28430130Y15572200D02*
X28272670D01*
Y15889700D01*
X28430130D01*
G01X28367150Y15736250D02*
X28272670D01*
G01X28579690Y15572200D02*
Y15889700D01*
X28658420D01*
X28689920Y15873820D01*
X28713540Y15852660D01*
X28733230Y15820910D01*
X28748970Y15783860D01*
X28752910Y15730950D01*
X28748970Y15678030D01*
X28733230Y15640990D01*
X28713540Y15609230D01*
X28689920Y15588070D01*
X28658420Y15572200D01*
X28579690D01*
G01X27013070Y16285900D02*
Y16603400D01*
X27107550D01*
X27139040Y16587520D01*
X27162660Y16550480D01*
X27170530Y16508150D01*
X27162660Y16465820D01*
X27142980Y16434060D01*
X27107550Y16418180D01*
X27013070D01*
G01X27327970Y16603400D02*
Y16285900D01*
X27485430D01*
G01X27623180D02*
X27721600Y16603400D01*
X27820020Y16285900D01*
G01X27784580Y16397020D02*
X27658610D01*
G01X28036500Y16603400D02*
Y16285900D01*
G01X27945960Y16603400D02*
X28127040D01*
G01X28430130Y16285900D02*
X28272670D01*
Y16603400D01*
X28430130D01*
G01X28367150Y16449950D02*
X28272670D01*
G01X28579690Y16285900D02*
Y16603400D01*
X28658420D01*
X28689920Y16587520D01*
X28713540Y16566360D01*
X28733230Y16534610D01*
X28748970Y16497560D01*
X28752910Y16444650D01*
X28748970Y16391730D01*
X28733230Y16354690D01*
X28713540Y16322930D01*
X28689920Y16301770D01*
X28658420Y16285900D01*
X28579690D01*
G01X27013070Y16999600D02*
Y17317100D01*
X27107550D01*
X27139040Y17301220D01*
X27162660Y17264180D01*
X27170530Y17221850D01*
X27162660Y17179520D01*
X27142980Y17147760D01*
X27107550Y17131880D01*
X27013070D01*
G01X27327970Y17317100D02*
Y16999600D01*
X27485430D01*
G01X27623180D02*
X27721600Y17317100D01*
X27820020Y16999600D01*
G01X27784580Y17110720D02*
X27658610D01*
G01X28036500Y17317100D02*
Y16999600D01*
G01X27945960Y17317100D02*
X28127040D01*
G01X28430130Y16999600D02*
X28272670D01*
Y17317100D01*
X28430130D01*
G01X28367150Y17163650D02*
X28272670D01*
G01X28579690Y16999600D02*
Y17317100D01*
X28658420D01*
X28689920Y17301220D01*
X28713540Y17280060D01*
X28733230Y17248310D01*
X28748970Y17211260D01*
X28752910Y17158350D01*
X28748970Y17105430D01*
X28733230Y17068390D01*
X28713540Y17036630D01*
X28689920Y17015470D01*
X28658420Y16999600D01*
X28579690D01*
G01X27013070Y17713300D02*
Y18030800D01*
X27107550D01*
X27139040Y18014920D01*
X27162660Y17977880D01*
X27170530Y17935550D01*
X27162660Y17893220D01*
X27142980Y17861460D01*
X27107550Y17845580D01*
X27013070D01*
G01X27327970Y18030800D02*
Y17713300D01*
X27485430D01*
G01X27623180D02*
X27721600Y18030800D01*
X27820020Y17713300D01*
G01X27784580Y17824420D02*
X27658610D01*
G01X28036500Y18030800D02*
Y17713300D01*
G01X27945960Y18030800D02*
X28127040D01*
G01X28430130Y17713300D02*
X28272670D01*
Y18030800D01*
X28430130D01*
G01X28367150Y17877350D02*
X28272670D01*
G01X28579690Y17713300D02*
Y18030800D01*
X28658420D01*
X28689920Y18014920D01*
X28713540Y17993760D01*
X28733230Y17962010D01*
X28748970Y17924960D01*
X28752910Y17872050D01*
X28748970Y17819130D01*
X28733230Y17782090D01*
X28713540Y17750330D01*
X28689920Y17729170D01*
X28658420Y17713300D01*
X28579690D01*
G01X27013070Y18427000D02*
Y18744500D01*
X27107550D01*
X27139040Y18728620D01*
X27162660Y18691580D01*
X27170530Y18649250D01*
X27162660Y18606920D01*
X27142980Y18575160D01*
X27107550Y18559280D01*
X27013070D01*
G01X27327970Y18744500D02*
Y18427000D01*
X27485430D01*
G01X27623180D02*
X27721600Y18744500D01*
X27820020Y18427000D01*
G01X27784580Y18538120D02*
X27658610D01*
G01X28036500Y18744500D02*
Y18427000D01*
G01X27945960Y18744500D02*
X28127040D01*
G01X28430130Y18427000D02*
X28272670D01*
Y18744500D01*
X28430130D01*
G01X28367150Y18591050D02*
X28272670D01*
G01X28579690Y18427000D02*
Y18744500D01*
X28658420D01*
X28689920Y18728620D01*
X28713540Y18707460D01*
X28733230Y18675710D01*
X28748970Y18638660D01*
X28752910Y18585750D01*
X28748970Y18532830D01*
X28733230Y18495790D01*
X28713540Y18464030D01*
X28689920Y18442870D01*
X28658420Y18427000D01*
X28579690D01*
G01X27013070Y19180050D02*
Y19497550D01*
X27107550D01*
X27139040Y19481670D01*
X27162660Y19444630D01*
X27170530Y19402300D01*
X27162660Y19359970D01*
X27142980Y19328210D01*
X27107550Y19312330D01*
X27013070D01*
G01X27327970Y19497550D02*
Y19180050D01*
X27485430D01*
G01X27623180D02*
X27721600Y19497550D01*
X27820020Y19180050D01*
G01X27784580Y19291170D02*
X27658610D01*
G01X28036500Y19497550D02*
Y19180050D01*
G01X27945960Y19497550D02*
X28127040D01*
G01X28430130Y19180050D02*
X28272670D01*
Y19497550D01*
X28430130D01*
G01X28367150Y19344100D02*
X28272670D01*
G01X28579690Y19180050D02*
Y19497550D01*
X28658420D01*
X28689920Y19481670D01*
X28713540Y19460510D01*
X28733230Y19428760D01*
X28748970Y19391710D01*
X28752910Y19338800D01*
X28748970Y19285880D01*
X28733230Y19248840D01*
X28713540Y19217080D01*
X28689920Y19195920D01*
X28658420Y19180050D01*
X28579690D01*
G01X27461680Y-203000D02*
X27560110Y114500D01*
X27658540Y-203000D01*
G01X27623100Y-91880D02*
X27497110D01*
G01X27796330Y-203000D02*
Y114500D01*
X27890820D01*
X27922310Y98620D01*
X27945940Y61580D01*
X27953810Y19250D01*
X27945940Y-23080D01*
X27926250Y-54840D01*
X27890820Y-70720D01*
X27796330D01*
G01X28111290Y-203000D02*
Y114500D01*
X28205780D01*
X28237270Y98620D01*
X28260900Y61580D01*
X28268770Y19250D01*
X28260900Y-23080D01*
X28241210Y-54840D01*
X28205780Y-70720D01*
X28111290D01*
G01X28426250Y-203000D02*
Y114500D01*
X28524670D01*
X28556170Y98620D01*
X28575860Y77460D01*
X28583730Y35120D01*
X28575860Y-7210D01*
X28552230Y-33660D01*
X28524670Y-49550D01*
X28426250D01*
G01X28524670D02*
X28583730Y-203000D01*
G01X28819950D02*
X28788450Y-197710D01*
X28760900Y-176550D01*
X28737270Y-144790D01*
X28721520Y-107750D01*
X28713650Y-65420D01*
Y-23080D01*
X28721520Y19250D01*
X28737270Y56290D01*
X28760900Y88040D01*
X28788450Y109210D01*
X28819950Y114500D01*
X28851440Y109210D01*
X28879000Y88040D01*
X28902630Y56290D01*
X28918380Y19250D01*
X28926250Y-23080D01*
Y-65420D01*
X28918380Y-107750D01*
X28902630Y-144790D01*
X28879000Y-176550D01*
X28851440Y-197710D01*
X28819950Y-203000D01*
G01X29036480Y114500D02*
X29134910Y-203000D01*
X29233340Y114500D01*
G01X29528610Y-203000D02*
X29371130D01*
Y114500D01*
X29528610D01*
G01X29465620Y-38950D02*
X29371130D01*
G01X29678220Y-203000D02*
Y114500D01*
X29756950D01*
X29788450Y98620D01*
X29812070Y77460D01*
X29831760Y45710D01*
X29847510Y8660D01*
X29851440Y-44250D01*
X29847510Y-97170D01*
X29831760Y-134210D01*
X29812070Y-165970D01*
X29788450Y-187130D01*
X29756950Y-203000D01*
X29678220D01*
G01X28585000Y-584000D02*
Y-1219000D01*
G01X29321600Y-795670D02*
X29302550Y-782960D01*
X29280330Y-774500D01*
X29254930D01*
X29226350Y-787210D01*
X29204130Y-808370D01*
X29188250Y-833770D01*
X29175550Y-876100D01*
X29172370Y-914200D01*
X29178730Y-952300D01*
X29188250Y-977700D01*
X29207300Y-1003110D01*
X29229530Y-1020040D01*
X29251750Y-1028500D01*
X29273970D01*
X29296200Y-1020040D01*
X29315250Y-1007340D01*
X29331130Y-990410D01*
G01X29492900Y19656300D02*
Y6096000D01*
G01X29943900Y-774500D02*
Y-956530D01*
X29956600Y-994640D01*
X29982000Y-1020040D01*
X30013750Y-1028500D01*
X30045500Y-1020040D01*
X30070900Y-994640D01*
X30083600Y-956530D01*
Y-774500D01*
G01X30267750Y-1028500D02*
X30248700Y-1024270D01*
X30229650Y-1007340D01*
X30216950Y-977700D01*
X30210600Y-943840D01*
X30216950Y-909970D01*
X30229650Y-880330D01*
X30248700Y-863400D01*
X30267750Y-859170D01*
X30286800Y-863400D01*
X30305850Y-880330D01*
X30318550Y-909970D01*
X30321730Y-943840D01*
X30318550Y-977700D01*
X30305850Y-1007340D01*
X30286800Y-1024270D01*
X30267750Y-1028500D01*
G01X30547150Y-893030D02*
X30559850Y-880330D01*
X30569370Y-859170D01*
X30575730Y-829530D01*
X30569370Y-804130D01*
X30556680Y-787210D01*
X30534450Y-774500D01*
X30448730D01*
Y-1028500D01*
X30553500D01*
X30575730Y-1011570D01*
X30588430Y-986170D01*
X30594770Y-956530D01*
X30588430Y-926910D01*
X30569370Y-901500D01*
X30547150Y-893030D01*
X30448730D01*
G01X30969420Y-816830D02*
X30988480Y-791440D01*
X31010700Y-778730D01*
X31036100Y-774500D01*
X31067850Y-782960D01*
X31090080Y-804130D01*
X31096430Y-829530D01*
X31093250Y-854940D01*
X31080550Y-876100D01*
X31017050Y-918430D01*
X30988480Y-948070D01*
X30969420Y-990410D01*
X30963070Y-1028500D01*
X31096430D01*
G01X31283750Y-774500D02*
X31258350Y-782960D01*
X31239300Y-804130D01*
X31226600Y-829530D01*
X31217070Y-863400D01*
X31213900Y-901500D01*
X31217070Y-939600D01*
X31226600Y-973470D01*
X31239300Y-998870D01*
X31258350Y-1020040D01*
X31283750Y-1028500D01*
X31309150Y-1020040D01*
X31328200Y-998870D01*
X31340900Y-973470D01*
X31350430Y-939600D01*
X31353600Y-901500D01*
X31350430Y-863400D01*
X31340900Y-829530D01*
X31328200Y-804130D01*
X31309150Y-782960D01*
X31283750Y-774500D01*
G01X30109000Y-584000D02*
Y2591000D01*
G01X30244700Y12981980D02*
X30268320Y13013730D01*
X30295880Y13029610D01*
X30327380Y13034900D01*
X30366740Y13024320D01*
X30394300Y12997860D01*
X30402170Y12966110D01*
X30398230Y12934350D01*
X30382480Y12907900D01*
X30303750Y12854980D01*
X30268320Y12817940D01*
X30244700Y12765010D01*
X30236830Y12717400D01*
X30402170D01*
G01X30634400Y13034900D02*
X30602900Y13024320D01*
X30579290Y12997860D01*
X30563540Y12966110D01*
X30551730Y12923770D01*
X30547790Y12876150D01*
X30551730Y12828520D01*
X30563540Y12786190D01*
X30579290Y12754430D01*
X30602900Y12727980D01*
X30634400Y12717400D01*
X30665890Y12727980D01*
X30689510Y12754430D01*
X30705260Y12786190D01*
X30717070Y12828520D01*
X30721010Y12876150D01*
X30717070Y12923770D01*
X30705260Y12966110D01*
X30689510Y12997860D01*
X30665890Y13024320D01*
X30634400Y13034900D01*
G01X30162050Y14144800D02*
Y14462300D01*
X30114810Y14398800D01*
G01Y14144800D02*
X30209280D01*
G01X30476950Y14462300D02*
X30445450Y14451720D01*
X30421840Y14425260D01*
X30406090Y14393510D01*
X30394280Y14351170D01*
X30390340Y14303550D01*
X30394280Y14255920D01*
X30406090Y14213590D01*
X30421840Y14181830D01*
X30445450Y14155380D01*
X30476950Y14144800D01*
X30508440Y14155380D01*
X30532060Y14181830D01*
X30547810Y14213590D01*
X30559620Y14255920D01*
X30563560Y14303550D01*
X30559620Y14351170D01*
X30547810Y14393510D01*
X30532060Y14425260D01*
X30508440Y14451720D01*
X30476950Y14462300D01*
G01X30717050Y14409380D02*
X30740670Y14441130D01*
X30768230Y14457010D01*
X30799730Y14462300D01*
X30839090Y14451720D01*
X30866650Y14425260D01*
X30874520Y14393510D01*
X30870580Y14361750D01*
X30854830Y14335300D01*
X30776100Y14282380D01*
X30740670Y14245340D01*
X30717050Y14192410D01*
X30709180Y14144800D01*
X30874520D01*
G01X30319500Y14858500D02*
Y15176000D01*
X30272260Y15112500D01*
G01Y14858500D02*
X30366730D01*
G01X30634400D02*
X30661950Y14863790D01*
X30693450Y14879660D01*
X30713130Y14906110D01*
X30721010Y14943170D01*
X30713130Y14980200D01*
X30689510Y15011950D01*
X30654080Y15027840D01*
X30614720D01*
X30591100Y15038420D01*
X30571410Y15064870D01*
X30563540Y15101910D01*
X30575350Y15138960D01*
X30602900Y15165420D01*
X30634400Y15176000D01*
X30665890Y15165420D01*
X30693450Y15138960D01*
X30705260Y15101910D01*
X30697380Y15064870D01*
X30677700Y15038420D01*
X30654080Y15027840D01*
X30614720D01*
X30579290Y15011950D01*
X30555670Y14980200D01*
X30547790Y14943170D01*
X30555670Y14906110D01*
X30575350Y14879660D01*
X30606850Y14863790D01*
X30634400Y14858500D01*
G01X30162050Y15572200D02*
Y15889700D01*
X30114810Y15826200D01*
G01Y15572200D02*
X30209280D01*
G01X30476950Y15889700D02*
X30445450Y15879120D01*
X30421840Y15852660D01*
X30406090Y15820910D01*
X30394280Y15778570D01*
X30390340Y15730950D01*
X30394280Y15683320D01*
X30406090Y15640990D01*
X30421840Y15609230D01*
X30445450Y15582780D01*
X30476950Y15572200D01*
X30508440Y15582780D01*
X30532060Y15609230D01*
X30547810Y15640990D01*
X30559620Y15683320D01*
X30563560Y15730950D01*
X30559620Y15778570D01*
X30547810Y15820910D01*
X30532060Y15852660D01*
X30508440Y15879120D01*
X30476950Y15889700D01*
G01X30791850D02*
X30760350Y15879120D01*
X30736740Y15852660D01*
X30720990Y15820910D01*
X30709180Y15778570D01*
X30705240Y15730950D01*
X30709180Y15683320D01*
X30720990Y15640990D01*
X30736740Y15609230D01*
X30760350Y15582780D01*
X30791850Y15572200D01*
X30823340Y15582780D01*
X30846960Y15609230D01*
X30862710Y15640990D01*
X30874520Y15683320D01*
X30878460Y15730950D01*
X30874520Y15778570D01*
X30862710Y15820910D01*
X30846960Y15852660D01*
X30823340Y15879120D01*
X30791850Y15889700D01*
G01X30087250Y17264180D02*
X30110870Y17295930D01*
X30138430Y17311810D01*
X30169930Y17317100D01*
X30209290Y17306520D01*
X30236850Y17280060D01*
X30244720Y17248310D01*
X30240780Y17216550D01*
X30225030Y17190100D01*
X30146300Y17137180D01*
X30110870Y17100140D01*
X30087250Y17047210D01*
X30079380Y16999600D01*
X30244720D01*
G01X30524190D02*
Y17317100D01*
X30378530Y17089560D01*
X30575370D01*
G01X30839090Y16999600D02*
Y17317100D01*
X30693430Y17089560D01*
X30890270D01*
G01X30087250Y17977880D02*
X30110870Y18009630D01*
X30138430Y18025510D01*
X30169930Y18030800D01*
X30209290Y18020220D01*
X30236850Y17993760D01*
X30244720Y17962010D01*
X30240780Y17930250D01*
X30225030Y17903800D01*
X30146300Y17850880D01*
X30110870Y17813840D01*
X30087250Y17760910D01*
X30079380Y17713300D01*
X30244720D01*
G01X30410020Y17750330D02*
X30437580Y17723880D01*
X30469070Y17713300D01*
X30500570Y17723880D01*
X30528130Y17755620D01*
X30547810Y17803260D01*
X30555680Y17850880D01*
Y17909090D01*
X30547810Y17956710D01*
X30528130Y17999050D01*
X30504500Y18020220D01*
X30476950Y18030800D01*
X30445450Y18020220D01*
X30421840Y17999050D01*
X30406090Y17967300D01*
X30398220Y17924960D01*
X30406090Y17887930D01*
X30425770Y17850880D01*
X30449400Y17829710D01*
X30476950Y17824420D01*
X30508440Y17835000D01*
X30532060Y17861460D01*
X30555680Y17909090D01*
G01X30791850Y17713300D02*
Y18030800D01*
X30744610Y17967300D01*
G01Y17713300D02*
X30839080D01*
G01X30162050Y18427000D02*
Y18744500D01*
X30114810Y18681000D01*
G01Y18427000D02*
X30209280D01*
G01X30476950Y18744500D02*
X30445450Y18733920D01*
X30421840Y18707460D01*
X30406090Y18675710D01*
X30394280Y18633370D01*
X30390340Y18585750D01*
X30394280Y18538120D01*
X30406090Y18495790D01*
X30421840Y18464030D01*
X30445450Y18437580D01*
X30476950Y18427000D01*
X30508440Y18437580D01*
X30532060Y18464030D01*
X30547810Y18495790D01*
X30559620Y18538120D01*
X30563560Y18585750D01*
X30559620Y18633370D01*
X30547810Y18675710D01*
X30532060Y18707460D01*
X30508440Y18733920D01*
X30476950Y18744500D01*
G01X30791850Y18427000D02*
Y18744500D01*
X30744610Y18681000D01*
G01Y18427000D02*
X30839080D01*
G01X30162050Y19180050D02*
X30130550Y19185340D01*
X30103000Y19206500D01*
X30079380Y19238260D01*
X30063630Y19275300D01*
X30055760Y19317630D01*
Y19359970D01*
X30063630Y19402300D01*
X30079380Y19439340D01*
X30103000Y19471090D01*
X30130550Y19492260D01*
X30162050Y19497550D01*
X30193540Y19492260D01*
X30221100Y19471090D01*
X30244720Y19439340D01*
X30260470Y19402300D01*
X30268340Y19359970D01*
Y19317630D01*
X30260470Y19275300D01*
X30244720Y19238260D01*
X30221100Y19206500D01*
X30193540Y19185340D01*
X30162050Y19180050D01*
G01X30193540Y19264720D02*
X30240780Y19180050D01*
G01X30476950Y19497550D02*
Y19180050D01*
G01X30386410Y19497550D02*
X30567490D01*
G01X30791850Y19180050D02*
Y19322920D01*
X30713120Y19497550D01*
G01X30870580D02*
X30791850Y19322920D01*
G01X30476950Y6294100D02*
Y6611600D01*
X30429710Y6548100D01*
G01Y6294100D02*
X30524180D01*
G01X30524190Y7007800D02*
Y7325300D01*
X30378530Y7097760D01*
X30575370D01*
G01X30402150Y7853780D02*
X30429710Y7890840D01*
X30453330Y7912000D01*
X30484830Y7922580D01*
X30512380Y7912000D01*
X30532060Y7890840D01*
X30547810Y7859080D01*
X30551750Y7822040D01*
X30547810Y7790290D01*
X30532060Y7758530D01*
X30508440Y7732080D01*
X30480890Y7721500D01*
X30449400Y7732080D01*
X30421840Y7763820D01*
X30406090Y7811460D01*
X30402150Y7864370D01*
X30410020Y7933160D01*
X30421840Y7970210D01*
X30441520Y8007250D01*
X30469070Y8033710D01*
X30496630Y8039000D01*
X30524190Y8028420D01*
X30543880Y8001960D01*
G01X30476950Y8435200D02*
Y8752700D01*
X30429710Y8689200D01*
G01Y8435200D02*
X30524180D01*
G01X30524190Y9148900D02*
Y9466400D01*
X30378530Y9238860D01*
X30575370D01*
G01X30402150Y10127180D02*
X30425770Y10158930D01*
X30453330Y10174810D01*
X30484830Y10180100D01*
X30524190Y10169520D01*
X30551750Y10143060D01*
X30559620Y10111310D01*
X30555680Y10079550D01*
X30539930Y10053100D01*
X30461200Y10000180D01*
X30425770Y9963140D01*
X30402150Y9910210D01*
X30394280Y9862600D01*
X30559620D01*
G01X30524190Y10576300D02*
Y10893800D01*
X30378530Y10666260D01*
X30575370D01*
G01X30402150Y11554580D02*
X30425770Y11586330D01*
X30453330Y11602210D01*
X30484830Y11607500D01*
X30524190Y11596920D01*
X30551750Y11570460D01*
X30559620Y11538710D01*
X30555680Y11506950D01*
X30539930Y11480500D01*
X30461200Y11427580D01*
X30425770Y11390540D01*
X30402150Y11337610D01*
X30394280Y11290000D01*
X30559620D01*
G01X30524190Y12003700D02*
Y12321200D01*
X30378530Y12093660D01*
X30575370D01*
G01X30476950Y13431100D02*
X30504500Y13436390D01*
X30536000Y13452260D01*
X30555680Y13478710D01*
X30563560Y13515770D01*
X30555680Y13552800D01*
X30532060Y13584550D01*
X30496630Y13600440D01*
X30457270D01*
X30433650Y13611020D01*
X30413960Y13637470D01*
X30406090Y13674510D01*
X30417900Y13711560D01*
X30445450Y13738020D01*
X30476950Y13748600D01*
X30508440Y13738020D01*
X30536000Y13711560D01*
X30547810Y13674510D01*
X30539930Y13637470D01*
X30520250Y13611020D01*
X30496630Y13600440D01*
X30457270D01*
X30421840Y13584550D01*
X30398220Y13552800D01*
X30390340Y13515770D01*
X30398220Y13478710D01*
X30417900Y13452260D01*
X30449400Y13436390D01*
X30476950Y13431100D01*
G01X30402150Y16550480D02*
X30425770Y16582230D01*
X30453330Y16598110D01*
X30484830Y16603400D01*
X30524190Y16592820D01*
X30551750Y16566360D01*
X30559620Y16534610D01*
X30555680Y16502850D01*
X30539930Y16476400D01*
X30461200Y16423480D01*
X30425770Y16386440D01*
X30402150Y16333510D01*
X30394280Y16285900D01*
X30559620D01*
G01X30715930Y-160680D02*
X30747430Y-187130D01*
X30782860Y-203000D01*
X30814360D01*
X30845850Y-187130D01*
X30869480Y-160680D01*
X30881290Y-123620D01*
X30873420Y-86590D01*
X30853730Y-54840D01*
X30818290Y-33660D01*
X30771050Y-23080D01*
X30743490Y-1920D01*
X30731680Y35120D01*
X30739560Y72170D01*
X30759240Y98620D01*
X30786800Y114500D01*
X30814360D01*
X30841920Y103920D01*
X30865540Y77460D01*
G01X31113570Y114500D02*
Y-203000D01*
G01X31023020Y114500D02*
X31204120D01*
G01X31330100Y-203000D02*
X31428530Y114500D01*
X31526960Y-203000D01*
G01X31491520Y-91880D02*
X31365530D01*
G01X31743490Y114500D02*
Y-203000D01*
G01X31652940Y114500D02*
X31834040D01*
G01X31971840D02*
Y-113040D01*
X31987580Y-160680D01*
X32019080Y-192420D01*
X32058450Y-203000D01*
X32097820Y-192420D01*
X32129320Y-160680D01*
X32145060Y-113040D01*
Y114500D01*
G01X32290730Y-160680D02*
X32322230Y-187130D01*
X32357660Y-203000D01*
X32389160D01*
X32420650Y-187130D01*
X32444280Y-160680D01*
X32456090Y-123620D01*
X32448220Y-86590D01*
X32428530Y-54840D01*
X32393090Y-33660D01*
X32345850Y-23080D01*
X32318290Y-1920D01*
X32306480Y35120D01*
X32314360Y72170D01*
X32334040Y98620D01*
X32361600Y114500D01*
X32389160D01*
X32416720Y103920D01*
X32440340Y77460D01*
G01X33030000Y9068000D02*
X33157000Y9195000D01*
Y8941000D01*
X33030000Y9068000D01*
G01X33445250Y-530000D02*
Y-276000D01*
X33407150Y-326800D01*
G01Y-530000D02*
X33483340D01*
G01X33629400Y-491910D02*
X33648450Y-513070D01*
X33670670Y-525770D01*
X33699250Y-530000D01*
X33727830Y-521540D01*
X33750050Y-504610D01*
X33765930Y-474970D01*
X33769100Y-441100D01*
X33762750Y-407240D01*
X33746870Y-386070D01*
X33724650Y-369140D01*
X33702430Y-364900D01*
X33680200Y-369140D01*
X33651630Y-386070D01*
X33661150Y-276000D01*
X33746870D01*
G54D13*
X1900000Y7000000D03*
X2000000Y8400000D03*
Y8200000D03*
X2300000Y6150000D03*
X2452300Y6292300D03*
X3900000Y5800000D03*
X3902300Y6292300D03*
X4709640Y9130640D03*
X5918000Y6906000D03*
X6405640Y7239640D03*
X7381000Y490000D03*
X7110000Y8110000D03*
X7833000Y490000D03*
X7637000Y1611000D03*
X7750000Y4370000D03*
X7540000D03*
X7765000Y5210000D03*
X7866000Y6769000D03*
X7679000Y6773000D03*
X7717000Y7165000D03*
X7762000Y6895000D03*
X7742340Y7297660D03*
X7804000Y7826000D03*
X7836000Y7990000D03*
X8286000Y2396300D03*
X8057000Y6765000D03*
X7981000Y6894000D03*
X7962000Y7370000D03*
X8436000Y2314000D03*
X8651000Y4848000D03*
X8689000Y5042000D03*
X8729000Y5453000D03*
X8514000Y5846000D03*
X8621000Y5752000D03*
X8619000Y5595000D03*
X8476820Y6545000D03*
X8500480Y7430000D03*
X8584760Y7525240D03*
X8700000Y7700000D03*
X8630000Y7620000D03*
X9111000Y4848000D03*
X9138000Y4998000D03*
X9015000Y5476000D03*
X9037640Y5675320D03*
X9110000Y6490000D03*
X8930000Y6390000D03*
X9060000Y6360000D03*
X8800000Y6590000D03*
X9059900Y6889900D03*
X9346050Y3321710D03*
X9660000Y3320000D03*
X9640000Y3590000D03*
X9685000Y4825000D03*
X9815000Y8638000D03*
Y9019000D03*
X9809000Y9400000D03*
X10186000Y8638000D03*
X10212000Y9019000D03*
X10199000Y9400000D03*
X10570000Y282000D03*
Y834000D03*
X10836000Y6606000D03*
X10835000Y7095000D03*
X11252000Y5432000D03*
X10925000Y5434000D03*
X11023000Y5740000D03*
X11075000Y6090000D03*
X10922640Y6053180D03*
X11021000Y8681000D03*
X11070000Y9019000D03*
X11079000Y9400000D03*
X11646000Y276000D03*
X11454000Y475000D03*
X11616000Y832000D03*
X11565000Y560000D03*
X11554200Y5736000D03*
X11375000Y6073000D03*
X11439000Y8638000D03*
X11426000Y9019000D03*
X11435000Y9400000D03*
X11800000Y309000D03*
Y735000D03*
X11777000Y5754000D03*
X12096820Y7140450D03*
X11750000Y8248000D03*
X12060000Y8870000D03*
X11920000Y9250000D03*
X11973840Y9301320D03*
X12540000Y3175000D03*
X12240000Y6852320D03*
X12382000Y7443000D03*
X12399500Y7240500D03*
X12387000Y7338000D03*
X12240000Y7714000D03*
Y8605000D03*
X12381820Y9150500D03*
X12385000Y8970700D03*
X12387000Y9056000D03*
X12240000Y9455000D03*
X12900000Y4175000D03*
X12745000Y7000000D03*
X12645000Y7150000D03*
X12718000Y7602000D03*
X12912500Y7600500D03*
X12645000Y7338000D03*
X12651000Y7446000D03*
X12630000Y8880000D03*
X12694000Y8743000D03*
X12737000Y9300000D03*
X12636000Y9050000D03*
X12628000Y9150000D03*
X12920500Y9350500D03*
X13180000Y4175000D03*
X13235500Y6960500D03*
X13222500Y7680500D03*
X13198500Y8710500D03*
X13260000Y9030000D03*
X13208500Y9430500D03*
X13460000Y9110000D03*
X13980000Y8120000D03*
X14220000Y8500000D03*
X14140000Y9270000D03*
X13950000Y9180000D03*
X14430000Y6960000D03*
X20321500Y17872050D03*
G54D14*
X2400000Y9600000D03*
X2908000D03*
X2654000D03*
X4000000D03*
X4508000D03*
X4254000D03*
X5696000Y7721000D03*
X6204000D03*
X5950000D03*
X8242000Y6150000D03*
X8292000Y8050000D03*
X8496000Y6150000D03*
X8750000D03*
X8546000Y8050000D03*
X8800000D03*
X9300000Y6700000D03*
Y7208000D03*
Y6954000D03*
X13470000Y560000D03*
Y760000D03*
X13670000Y560000D03*
Y760000D03*
X13870000Y560000D03*
Y760000D03*
X14070000Y560000D03*
Y760000D03*
X14270000Y560000D03*
Y760000D03*
X14470000Y560000D03*
Y760000D03*
X14670000Y560000D03*
Y760000D03*
X15100000Y1336000D03*
Y1590000D03*
Y1844000D03*
Y2098000D03*
Y2352000D03*
Y2606000D03*
Y2860000D03*
Y3114000D03*
Y3368000D03*
Y3622000D03*
Y3876000D03*
Y4130000D03*
Y4384000D03*
Y4638000D03*
Y4892000D03*
Y5146000D03*
Y5400000D03*
X15354000Y1336000D03*
Y1590000D03*
Y1844000D03*
Y2098000D03*
Y2352000D03*
Y2606000D03*
Y2860000D03*
Y3114000D03*
Y3368000D03*
Y3622000D03*
Y3876000D03*
Y4130000D03*
Y4384000D03*
Y4638000D03*
Y4892000D03*
Y5146000D03*
Y5400000D03*
X20321500Y15730950D03*
G54D15*
X6026000Y8511000D03*
X6534000D03*
X20321500Y11448750D03*
G54D16*
X6440000Y2870000D03*
X6468250Y2710900D03*
X6359780Y2870000D03*
X6530000Y2700000D03*
X6640000Y2940000D03*
X6650000Y2690000D03*
X6460000Y3350000D03*
X6395360Y3205360D03*
X6450000Y3010000D03*
X6460000Y3260000D03*
X6390000Y3140000D03*
X6350000Y3000000D03*
X6540000Y3235000D03*
X6490000Y3730000D03*
X6460000Y3570000D03*
X6430000Y3510000D03*
X6440000Y3690000D03*
X6380000Y3570000D03*
X6390000Y3440000D03*
X6567300Y3527200D03*
X6650000Y3810000D03*
X7050000Y2930000D03*
Y2850000D03*
Y2770000D03*
X6810000Y2930000D03*
X6890000D03*
X6730000D03*
X6810000Y2770000D03*
X6890000D03*
X6730000Y2690000D03*
X6890000Y2850000D03*
X6970000Y2930000D03*
X6810000Y3170000D03*
X7050000Y3330000D03*
Y3010000D03*
Y3170000D03*
Y3250000D03*
Y3090000D03*
X6970000Y3330000D03*
X6890000D03*
X6810000D03*
X6890000Y3250000D03*
X6810000D03*
X6970000Y3090000D03*
X6890000Y3170000D03*
X6970000D03*
Y3250000D03*
Y3010000D03*
X6890000Y3090000D03*
X6810000D03*
Y3010000D03*
X6890000D03*
X7050000Y3410000D03*
X6970000Y3730000D03*
X6890000D03*
X6970000Y3570000D03*
X6890000Y3650000D03*
X6810000D03*
Y3570000D03*
Y3410000D03*
X6970000D03*
X6730000D03*
X6970000Y3650000D03*
X6890000Y3410000D03*
Y3570000D03*
Y3490000D03*
X6810000D03*
X7050000Y3840000D03*
X6730000Y3810000D03*
X6810000D03*
X6890000D03*
X6970000D03*
X7450000Y2770000D03*
Y2690000D03*
X7370000Y2770000D03*
Y2690000D03*
X7130000Y2770000D03*
Y2690000D03*
Y2930000D03*
X7210000D03*
X7488560Y3174500D03*
X7450000Y3250000D03*
X7370000D03*
X7130000Y3010000D03*
X7210000D03*
Y3090000D03*
Y3330000D03*
Y3250000D03*
X7290000Y3090000D03*
Y3330000D03*
X7210000Y3170000D03*
X7450000Y3730000D03*
X7130000D03*
Y3490000D03*
Y3570000D03*
X7290000Y3410000D03*
X7210000D03*
X7370000Y3810000D03*
X7130000D03*
X20321500Y18585750D03*
G54D17*
X7527000Y1801000D03*
X8740000Y430000D03*
X9113000Y4599000D03*
X9530000Y430000D03*
X10273000Y4175000D03*
X10278000Y3945000D03*
X10273000Y4389000D03*
X13750000Y4540000D03*
X20321500Y13589850D03*
G54D18*
X9550000Y1450000D03*
Y5850000D03*
X12950000Y1450000D03*
Y5850000D03*
X20321500Y9307650D03*
G54D19*
X10000000Y8363000D03*
X10100000Y9646000D03*
X11250000Y8363000D03*
X11350000Y9646000D03*
X20321500Y12162450D03*
M02*
