G04 ================== begin FILE IDENTIFICATION RECORD ==================*
G04 Layout Name:  pc051b_toplevel_42.brd*
G04 Film Name:    pc051a_SM6*
G04 File Format:  Gerber RS274X*
G04 File Origin:  Cadence Allegro 16.6-S035*
G04 Origin Date:  Fri Nov 20 14:16:37 2015*
G04 *
G04 Layer:  PIN/SOLDERMASK_BOTTOM*
G04 Layer:  PACKAGE GEOMETRY/SOLDERMASK_BOTTOM*
G04 Layer:  BOARD GEOMETRY/SOLDERMASK_BOTTOM*
G04 *
G04 Offset:    (0.0000 0.0000)*
G04 Mirror:    No*
G04 Mode:      Positive*
G04 Rotation:  0*
G04 FullContactRelief:  No*
G04 UndefLineWidth:     0.1270*
G04 ================== end FILE IDENTIFICATION RECORD ====================*
%FSLAX35Y35*MOMM*%
%IR0*IPPOS*OFA0.00000B0.00000*MIA0B0*SFA1.00000B1.00000*%
%ADD15R,.85X.85*%
%ADD17O,1.4X3.2*%
%ADD18O,1.4X2.6*%
%ADD24R,1.15X1.25*%
%ADD19R,1.25X1.15*%
%ADD10C,5.*%
%ADD11C,1.7*%
%ADD21C,1.45*%
%ADD23C,1.55*%
%ADD22C,1.65*%
%ADD13C,1.4224*%
%ADD26R,1.55X1.55*%
%ADD14C,2.286*%
%ADD25R,1.75X1.75*%
%ADD12C,1.778*%
%ADD20C,6.2484*%
%ADD16C,1.8796*%
%LPD*%
G75*
G54D10*
X357000Y560000D03*
Y9450000D03*
G54D20*
X9550000Y1450000D03*
Y5850000D03*
X12950000Y1450000D03*
Y5850000D03*
G54D11*
X611000Y1322000D03*
Y1068000D03*
Y1576000D03*
Y2084000D03*
Y1830000D03*
Y2592000D03*
Y2338000D03*
Y2846000D03*
Y3354000D03*
Y3100000D03*
Y3862000D03*
Y3608000D03*
Y4116000D03*
Y4624000D03*
Y4370000D03*
Y5132000D03*
Y4878000D03*
Y5386000D03*
Y5894000D03*
Y5640000D03*
Y6148000D03*
Y6656000D03*
Y6402000D03*
Y7164000D03*
Y6910000D03*
Y7418000D03*
Y7926000D03*
Y7672000D03*
Y8434000D03*
Y8180000D03*
Y8688000D03*
Y8942000D03*
X1119000Y1322000D03*
Y1068000D03*
X865000Y1322000D03*
Y1068000D03*
X1119000Y1576000D03*
X865000D03*
X1119000Y2084000D03*
Y1830000D03*
X865000Y2084000D03*
Y1830000D03*
X1119000Y2592000D03*
Y2338000D03*
X865000Y2592000D03*
Y2338000D03*
X1119000Y2846000D03*
X865000D03*
X1119000Y3354000D03*
Y3100000D03*
X865000Y3354000D03*
Y3100000D03*
X1119000Y3862000D03*
Y3608000D03*
X865000Y3862000D03*
Y3608000D03*
X1119000Y4116000D03*
X865000D03*
X1119000Y4624000D03*
Y4370000D03*
X865000Y4624000D03*
Y4370000D03*
X1119000Y5132000D03*
Y4878000D03*
X865000Y5132000D03*
Y4878000D03*
X1119000Y5386000D03*
X865000D03*
X1119000Y5894000D03*
Y5640000D03*
X865000Y5894000D03*
Y5640000D03*
X1119000Y6148000D03*
X865000D03*
X1119000Y6656000D03*
Y6402000D03*
X865000Y6656000D03*
Y6402000D03*
X1119000Y7164000D03*
Y6910000D03*
X865000Y7164000D03*
Y6910000D03*
X1119000Y7418000D03*
X865000D03*
X1119000Y7926000D03*
Y7672000D03*
X865000Y7926000D03*
Y7672000D03*
X1119000Y8434000D03*
Y8180000D03*
X865000Y8434000D03*
Y8180000D03*
X1119000Y8688000D03*
X865000D03*
X1119000Y8942000D03*
X865000D03*
X9535000Y2152500D03*
Y5147500D03*
X10252500Y5635000D03*
X12247500D03*
X12735000Y2152500D03*
Y5147500D03*
G54D12*
X2400000Y9600000D03*
X2908000D03*
X2654000D03*
X4000000D03*
X4508000D03*
X4254000D03*
X5696000Y7721000D03*
X6204000D03*
X5950000D03*
X8242000Y6150000D03*
X8292000Y8050000D03*
X8496000Y6150000D03*
X8750000D03*
X8546000Y8050000D03*
X8800000D03*
X9300000Y6700000D03*
Y7208000D03*
Y6954000D03*
X11280000Y6704000D03*
Y6450000D03*
Y6958000D03*
X11438000Y7616000D03*
Y7362000D03*
Y7870000D03*
X13470000Y560000D03*
Y760000D03*
X13670000Y560000D03*
Y760000D03*
X13870000Y560000D03*
Y760000D03*
X14070000Y560000D03*
Y760000D03*
X14270000Y560000D03*
Y760000D03*
X14470000Y560000D03*
Y760000D03*
X14670000Y560000D03*
Y760000D03*
X15100000Y1336000D03*
Y1590000D03*
Y1844000D03*
Y2098000D03*
Y2352000D03*
Y2606000D03*
Y2860000D03*
Y3114000D03*
Y3368000D03*
Y3622000D03*
Y3876000D03*
Y4130000D03*
Y4384000D03*
Y4638000D03*
Y4892000D03*
Y5146000D03*
Y5400000D03*
X15354000Y1336000D03*
Y1590000D03*
Y1844000D03*
Y2098000D03*
Y2352000D03*
Y2606000D03*
Y2860000D03*
Y3114000D03*
Y3368000D03*
Y3622000D03*
Y3876000D03*
Y4130000D03*
Y4384000D03*
Y4638000D03*
Y4892000D03*
Y5146000D03*
Y5400000D03*
G54D21*
X9735000Y2300000D03*
Y5000000D03*
X10400000Y5835000D03*
X12100000D03*
X12935000Y2300000D03*
Y5000000D03*
G54D13*
X2755000Y5670000D03*
X4225000Y5680000D03*
X9148000Y3965000D03*
X10135000Y4700000D03*
X12105000Y4440000D03*
G54D22*
X12030000Y6820500D03*
Y7300500D03*
Y7780500D03*
Y8570500D03*
Y9050500D03*
Y9530500D03*
X12490000Y6587500D03*
Y8012500D03*
Y8337500D03*
Y9762500D03*
X12990000Y6587500D03*
Y8012500D03*
Y8337500D03*
Y9762500D03*
X13460000Y6587500D03*
Y8012500D03*
Y8337500D03*
Y9762500D03*
G54D14*
X6026000Y8511000D03*
X6534000D03*
X10000000Y8363000D03*
X10100000Y9646000D03*
X11250000Y8363000D03*
X11350000Y9646000D03*
G54D23*
X12650000Y6820500D03*
Y7780500D03*
Y8570500D03*
Y9530500D03*
G54D24*
X12485000Y7000000D03*
X12475000Y7600000D03*
X12460000Y8743000D03*
X12475000Y9300000D03*
X12635000Y7000000D03*
X12625000Y7600000D03*
X12610000Y8743000D03*
X12625000Y9300000D03*
G54D15*
X6635000Y3030000D03*
Y3140000D03*
Y3530000D03*
X6970000Y2835000D03*
Y2745000D03*
X6725000Y3030000D03*
Y3140000D03*
X7050000Y3485000D03*
Y3575000D03*
Y3685000D03*
Y3775000D03*
X6725000Y3530000D03*
X7375000Y3360000D03*
X7465000D03*
X7535000Y3260000D03*
X7625000D03*
X12455000Y7150000D03*
X12545000D03*
X12475000Y7446000D03*
X12565000D03*
X12468000Y7338000D03*
X12558000D03*
X12455000Y9050000D03*
X12545000D03*
X12455000Y9150000D03*
X12545000D03*
X12455000Y8880000D03*
X12545000D03*
G54D16*
X7527000Y1801000D03*
X7550000Y4080000D03*
X7750000D03*
X7935000Y3994000D03*
X8144000Y3992000D03*
X8407000Y3989000D03*
X8017000Y4209000D03*
X8273000Y4183000D03*
X8740000Y430000D03*
X9113000Y4599000D03*
X9530000Y430000D03*
X10273000Y4175000D03*
X10278000Y3945000D03*
X10273000Y4389000D03*
X13750000Y4540000D03*
X13915000Y4680000D03*
G54D25*
X12240000Y8012500D03*
Y9762500D03*
X13240000Y8012500D03*
Y9762500D03*
X13740000Y6587500D03*
Y7155500D03*
Y7695500D03*
Y8337500D03*
Y8905500D03*
Y9445500D03*
X14240000Y8012500D03*
Y9762500D03*
X14740000Y6587500D03*
Y8337500D03*
X15240000Y8012500D03*
Y9762500D03*
X15740000Y6587500D03*
Y7445500D03*
Y8337500D03*
Y9195500D03*
G54D26*
X12740000Y6587500D03*
Y8337500D03*
G54D17*
X7475000Y8862000D03*
X8925000D03*
G54D18*
X7475000Y9459000D03*
X8925000D03*
G54D19*
X9110000Y6775000D03*
Y6625000D03*
M02*
