G04 ================== begin FILE IDENTIFICATION RECORD ==================*
G04 Layout Name:  pc051b_toplevel_42.brd*
G04 Film Name:    pc051a_L3*
G04 File Format:  Gerber RS274X*
G04 File Origin:  Cadence Allegro 16.6-S035*
G04 Origin Date:  Fri Nov 20 14:16:38 2015*
G04 *
G04 Layer:  VIA CLASS/L3*
G04 Layer:  PIN/L3*
G04 Layer:  ETCH/L3*
G04 *
G04 Offset:    (0.0000 0.0000)*
G04 Mirror:    No*
G04 Mode:      Positive*
G04 Rotation:  0*
G04 FullContactRelief:  No*
G04 UndefLineWidth:     0.1270*
G04 ================== end FILE IDENTIFICATION RECORD ====================*
%FSLAX35Y35*MOMM*%
%IR0*IPPOS*OFA0.00000B0.00000*MIA0B0*SFA1.00000B1.00000*%
%ADD16C,.5*%
%ADD12C,.8128*%
%ADD13C,.6096*%
%ADD18O,1.4X3.2*%
%ADD19O,1.4X2.6*%
%ADD21C,1.*%
%ADD10C,5.*%
%ADD15C,2.032*%
%ADD11C,1.7*%
%ADD24C,1.55*%
%ADD22C,1.65*%
%ADD14C,1.524*%
%ADD23C,1.75*%
%ADD20C,5.842*%
%ADD17C,1.6256*%
%ADD25C,.13*%
%ADD26C,.203*%
%ADD27C,.23*%
%ADD28C,.16*%
%ADD29C,.25*%
%ADD30C,.185*%
%ADD35C,.864*%
%ADD46C,.7544*%
%ADD45C,2.1044*%
%ADD38C,2.18*%
%ADD42C,2.2044*%
%ADD44C,2.3044*%
%ADD34C,1.0672*%
%ADD33C,2.2544*%
%ADD40C,2.1564*%
%ADD43C,2.2564*%
%ADD41C,1.3672*%
%ADD36C,2.0784*%
%ADD31O,1.9544X3.1544*%
%ADD37C,2.5864*%
%ADD39C,6.3964*%
%ADD32O,1.9544X3.7544*%
G75*
%LPD*%
G75*
G36*
G01X7200000Y100000D02*
Y2470780D01*
X7419090D01*
G03X7438750Y2464780I19660J29210D01*
G01X8254590D01*
X8306180Y2516370D01*
X8307680Y2516680D01*
G03X8339050Y2542800I-8678J42320D01*
G01X8340330Y2545970D01*
X9077760D01*
X9082580Y2550790D01*
X9086100Y2548180D01*
G03X9070320Y2570980I25755J34686D01*
G02X9060560Y2558030I-9767J-2792D01*
G01X8342440D01*
X8342040Y2562680D01*
G03X8256680Y2567680I-43042J-3682D01*
G01X8256370Y2566180D01*
X8248220Y2558030D01*
X8176370D01*
G02X8169180Y2575370I-3J10159D01*
G01X8230180Y2636370D01*
X8231680Y2636680D01*
G03X8180680Y2687680I-8680J42320D01*
G01X8180370Y2686180D01*
X8099410Y2605220D01*
X8005560D01*
G02X7998370Y2622560I-3J10159D01*
G01X8038180Y2662370D01*
X8039680Y2662680D01*
G03X7988680Y2713680I-8680J42320D01*
G01X7988370Y2712180D01*
X7941410Y2665220D01*
X7578540D01*
G02X7571350Y2682560I-2J10160D01*
G01X7584760Y2695970D01*
X7619720D01*
G03X7626900Y2713310I-5J10158D01*
G01X7602940Y2737280D01*
X7524940D01*
X7501970Y2760250D01*
G03X7496280Y2763120I-7191J-7181D01*
G02X7487640Y2772490I1495J10047D01*
G03X7469020Y2802570I-37637J-2495D01*
G02X7464480Y2814490I5122J8775D01*
G03X7464980Y2817640I-9659J3148D01*
G01Y2840780D01*
X7475780D01*
X7517280Y2799280D01*
X8577980D01*
X8607420Y2828720D01*
X8930280D01*
X8999920Y2898360D01*
X9034370Y2863920D01*
X9105840D01*
G02X9113020Y2846580I-4J-10158D01*
G01X8979760Y2713310D01*
G03X8986940Y2695970I7185J-7182D01*
G01X9013760D01*
X9181710Y2863920D01*
X9263530D01*
X9287200Y2887590D01*
X9289160Y2887680D01*
G03X9330080Y2927580I-2160J43148D01*
G02X9340210Y2936970I10130J-769D01*
G01X9595570D01*
G02X9601620Y2936390I-12J-31969D01*
G03X9607360Y2939660I960J4988D01*
G02X9688420Y2940260I40641J-14656D01*
G01X9689660Y2936970D01*
X9897570D01*
G02X9903620Y2936390I-12J-31969D01*
G03X9909360Y2939660I960J4988D01*
G02X9990420Y2940260I40641J-14656D01*
G01X9991660Y2936970D01*
X10099720D01*
G03X10106900Y2954310I-5J10158D01*
G01X10051820Y3009390D01*
G02X10057290Y3026590I7185J7185D01*
G03X10081260Y3098990I-7289J42581D01*
G02Y3113010I7351J7010D01*
G03X10041660Y3185220I-31258J29822D01*
G01X10039000Y3184690D01*
X10031760Y3191940D01*
G02X10038940Y3209280I7183J7182D01*
G01X10089020D01*
X10091850Y3206450D01*
X10119630D01*
G03X10181260Y3266990I30371J30722D01*
G02Y3281010I7351J7010D01*
G03X10146460Y3353890I-31258J29823D01*
G02X10136960Y3369300I-827J10124D01*
G03X10142470Y3400140I-36879J22501D01*
G02X10152440Y3412260I9968J1961D01*
G01X10160940D01*
X10162040Y3411690D01*
G03X10147310Y3475750I19959J38313D01*
G01X10145790Y3473700D01*
X10139910D01*
G02X10130630Y3487980I6J10159D01*
G03X10062120Y3537500I-39488J17520D01*
G01X10060660Y3536180D01*
X10057430D01*
X10056970Y3535720D01*
X10004710D01*
G02X9996200Y3551420I5J10159D01*
G03X9932390Y3608230I-36196J23585D01*
G01X9928830Y3605270D01*
X9921850Y3612250D01*
G02X9929040Y3629590I7189J7180D01*
G01X10047410D01*
X10057960Y3619040D01*
Y3606450D01*
X10070360Y3594040D01*
X10070750Y3592990D01*
G03X10142570Y3637680I40560J14872D01*
G02Y3651700I7351J7010D01*
G03X10110570Y3724710I-31259J29817D01*
G01X10108420Y3724680D01*
X10106150Y3726940D01*
X10078110D01*
X10074200Y3723030D01*
X9925660D01*
X9777970Y3870720D01*
X8758610D01*
X8757480Y3871330D01*
G03X8748920Y3871840I-4828J-8936D01*
G02X8745740Y3870720I-15931J40157D01*
G01X8720270D01*
G02X8729140Y3955030I12733J41282D01*
G01X8730980Y3955190D01*
X8756850Y3981060D01*
X8856410D01*
X8892070Y3945400D01*
X9082410D01*
X9083620Y3942030D01*
G03X9216160Y3959790I64381J22975D01*
G01X9216300Y3961660D01*
X9223990Y3969350D01*
G02X9239330Y3968230I7187J-7182D01*
G03X9316990Y3998240I34669J25772D01*
G02X9327100Y4009400I10111J1000D01*
G01X9333960D01*
X9397960Y3945400D01*
X9615570D01*
G03X9624600Y3960210I-3J10160D01*
G02X9626120Y4002490I38401J19787D01*
G03X9617450Y4017940I-8676J5289D01*
G01X9613530D01*
X9606440Y4025030D01*
X9368840D01*
G02X9360680Y4041250I-2J10162D01*
G03X9368130Y4076560I-34679J25758D01*
G02X9378040Y4088970I9907J2251D01*
G01X9566770D01*
G03X9573950Y4106310I-3J10158D01*
G01X9572440Y4107830D01*
Y4123030D01*
X9297850D01*
X9261830Y4159050D01*
X9186520D01*
X9169510Y4142050D01*
X8962240D01*
X8962090Y4141900D01*
X8955910D01*
X8286220Y4811590D01*
Y5100590D01*
X8204150Y5182660D01*
G02X8211340Y5200000I7187J7181D01*
G01X9300000D01*
Y5311350D01*
G02X9317340Y5318540I10160J2D01*
G01X9426310Y5209570D01*
G03X9428480Y5207920I7179J7189D01*
G02X9432690Y5194810I-5010J-8840D01*
G03X9622380Y5218700I102308J-47312D01*
G02X9630260Y5235280I7877J6419D01*
G01X9837280D01*
X10407280Y4665280D01*
Y2327720D01*
X10097280Y2017720D01*
X8740060D01*
X8470330Y2287460D01*
X8472500Y2290890D01*
G03X8403970Y2285020I-36496J23112D01*
G01X8405280Y2283560D01*
Y2271430D01*
G02X8396610Y2267840I-5079J1D01*
G01X8316720Y2347720D01*
Y2365930D01*
G03X8255280I-30720J30370D01*
G01Y2322280D01*
X8687280Y1890280D01*
X10150060D01*
X10534720Y2274940D01*
Y4718060D01*
X9890060Y5362720D01*
X9587720D01*
X9409460Y5540980D01*
G02X9420750Y5557460I7183J7187D01*
G03X9317540Y6069660I129248J292542D01*
G02X9300000Y6076630I-7382J6978D01*
G01Y6596080D01*
G03Y6803920I0J103920D01*
G01Y6850080D01*
G03Y7057920I0J103920D01*
G01Y7104080D01*
G03Y7311920I0J103920D01*
G01Y8600000D01*
X7300000D01*
Y8002560D01*
X7296230Y8001550D01*
G03Y7898450I13770J-51550D01*
G01X7300000Y7897440D01*
Y7389810D01*
X7286260Y7376070D01*
Y5942940D01*
X7300000Y5929200D01*
Y5200000D01*
X7722810D01*
X7723960Y5196510D01*
G03X7806040I41040J13490D01*
G01X7807190Y5200000D01*
X8029200D01*
X8174780Y5054420D01*
Y4765420D01*
X8258270Y4681940D01*
G02X8249710Y4664680I-7183J-7190D01*
G03X8286680Y4627710I-5830J-42800D01*
G02X8303940Y4636270I10070J1377D01*
G01X8799830Y4140370D01*
G02X8792640Y4123030I-7187J-7181D01*
G01X8381250D01*
G02X8372020Y4137440I-1J10160D01*
G03X8173980I-99020J45560D01*
G02X8164750Y4123030I-9229J-4250D01*
G01X8107240D01*
X8039620Y4055410D01*
G02X8024130Y4056750I-7181J7185D01*
G03X7990540Y4087790I-89126J-62753D01*
G01X7989990Y4088120D01*
X7985940Y4092160D01*
X7995830Y4102040D01*
X7998420Y4101590D01*
G03X7968960Y4306840I18579J107406D01*
G01X7956290Y4319520D01*
X7784950D01*
G02X7778300Y4337360I1J10160D01*
G03X7721700I-28300J32640D01*
G02X7715050Y4319520I-6651J-7680D01*
G01X7574950D01*
G02X7568300Y4337360I1J10160D01*
G03X7521750Y4330840I-28303J32639D01*
G02X7524640Y4314450I-4292J-9207D01*
G01X7217340Y4007150D01*
G02X7200000Y4014340I-7181J7187D01*
G01Y5700000D01*
X4290470D01*
X4289250Y5703350D01*
G03X4160750I-64250J-23350D01*
G01X4159530Y5700000D01*
X2816430D01*
G03X2693570I-61430J-30000D01*
G01X1214420D01*
G03X1023580I-95420J-60000D01*
G01X960420D01*
G03X769580I-95420J-60000D01*
G01X706420D01*
G03X515580I-95420J-60000D01*
G01X100000D01*
Y9301860D01*
G02X118870Y9307090I10159J2D01*
G03Y9592910I238130J142910D01*
G02X100000Y9598140I-8711J5228D01*
G01Y9900000D01*
X15900000D01*
Y100000D01*
X7200000D01*
G37*
G36*
G01Y2529220D02*
Y2579220D01*
X7254930D01*
G03X7262110Y2582200I-7J10157D01*
G02X7276480I7185J-7185D01*
G01X7317900Y2540780D01*
X7425130D01*
Y2532630D01*
X7422410Y2531200D01*
G03X7419090Y2529220I16353J-31193D01*
G01X7200000D01*
G37*
G36*
G01X7222700Y3647890D02*
X7245220Y3670410D01*
Y3935410D01*
X7427670Y4117870D01*
G02X7444680Y4108070I7190J-7183D01*
G03X7511490Y3978030I105322J-28072D01*
G01X7514780Y3976790D01*
Y3968030D01*
X7403240D01*
X7297850Y3862640D01*
G03X7301850Y3845810I7187J-7182D01*
G02X7321510Y3830730I-11853J-35808D01*
G03X7326340Y3826830I8495J5580D01*
G02X7332730Y3815790I-3649J-9481D01*
G03X7354200Y3775750I37271J-5791D01*
G02X7357130Y3759340I-4256J-9226D01*
G01X7237010Y3639220D01*
X7226290D01*
G02X7222700Y3647890I3J5080D01*
G37*
G36*
G01X7319000Y5230000D02*
Y5885670D01*
G02X7336340Y5892860I10159J3D01*
G01X7981860Y5247340D01*
G02X7974670Y5230000I-7187J-7181D01*
G01X7803290D01*
G03X7726710I-38290J-20000D01*
G01X7319000D01*
G37*
G36*
G01X8156810D02*
X7397700Y5989110D01*
Y7329900D01*
X7602580Y7534780D01*
X8525410D01*
X8542130Y7518060D01*
X8542440Y7516560D01*
G03X8593440Y7567560I42320J8680D01*
G01X8591940Y7567870D01*
X8583700Y7576110D01*
G02X8587290Y7584780I3593J3590D01*
G01X8604940D01*
X8606210Y7583940D01*
G03X8604980Y7655220I23789J36061D01*
G01X8531910D01*
X8525410Y7648720D01*
X7558910D01*
X7336340Y7426150D01*
G02X7319000Y7433340I-7181J7187D01*
G01Y7897250D01*
X7322860Y7898210D01*
G03Y8001790I-12860J51790D01*
G01X7319000Y8002750D01*
Y8550000D01*
X9242000D01*
Y7294230D01*
G03Y7121770I58000J-86230D01*
G01Y7040230D01*
G03X9196820Y6966410I57998J-86232D01*
G02X9182460Y6958400I-10087J1207D01*
G03X9206110Y6883150I-22461J-48401D01*
G02X9222470Y6884800I8779J-5114D01*
G03X9242000Y6867770I77531J69199D01*
G01Y6786230D01*
G03Y6613770I58000J-86230D01*
G01Y5936140D01*
G03X9241820Y5764520I308001J-86133D01*
G01X9242000Y5763850D01*
Y5732970D01*
G02X9224660Y5725790I-10158J5D01*
G01X8959650Y5990790D01*
Y5990810D01*
X8903010Y6047450D01*
X8816920D01*
G02X8810960Y6065840I-2J10160D01*
G03X8689040I-60960J84160D01*
G02X8683080Y6047450I-5958J-8230D01*
G01X8562920D01*
G02X8556960Y6065840I-2J10160D01*
G03X8404080Y6101520I-60962J84161D01*
G01X8369000Y6066440D01*
X8333920Y6101520D01*
G03X8290480Y6058080I-91920J48480D01*
G01X8305280Y6043280D01*
Y5993310D01*
X8378580Y5920010D01*
X8850210D01*
X9035220Y5734990D01*
G02X9029870Y5717810I-7182J-7186D01*
G03X9080130Y5667550I7770J-42490D01*
G02X9097310Y5672900I9994J-1832D01*
G01X9242000Y5528220D01*
Y5230000D01*
X8156810D01*
G37*
G36*
G01X8519180Y2956720D02*
X8532280D01*
X8726020Y3150460D01*
X8772490D01*
G02X8779670Y3133120I-5J-10158D01*
G01X8539280Y2892720D01*
X7555980D01*
X7533770Y2914940D01*
G02X7540950Y2932280I7185J7182D01*
G01X8450980D01*
X8506910Y2988210D01*
X8512220Y2982900D01*
X8511960Y2980490D01*
G02X8509630Y2970330I-42963J4506D01*
G03X8519180Y2956720I9557J-3449D01*
G37*
G36*
G01X7525570Y3025720D02*
Y3031380D01*
X7498910Y3052210D01*
G03X7497150Y3053490I-18938J-24189D01*
G01X7499990Y3062780D01*
X7520490D01*
X7521200Y3062570D01*
G03X7534410Y3061600I8802J29431D01*
G01X7586240Y3069120D01*
X7602120Y3071420D01*
X7638120D01*
X7653600Y3055940D01*
X7756400D01*
X7800650Y3100180D01*
X7901850Y3114840D01*
G02X7913470Y3104790I1461J-10053D01*
G01Y3094290D01*
X7844900Y3025720D01*
X7525570D01*
G37*
G36*
G01X7932980Y3263230D02*
G02X7975160Y3219880I-1021J-43190D01*
G01X7792650Y3193440D01*
G02X7781030Y3203500I-1459J10055D01*
G01Y3214860D01*
X7804400Y3238230D01*
Y3241870D01*
X7836680Y3274150D01*
X7836840Y3275990D01*
G02X7923060Y3273150I43030J-3860D01*
G03X7932980Y3263230I10156J236D01*
G37*
G36*
G01X7514220Y3552890D02*
X7521940Y3560610D01*
X7522590Y3560970D01*
G03X7529720Y3566280I-14589J27032D01*
G01X7537470Y3574030D01*
X7544760D01*
X7639450Y3668720D01*
X7845930D01*
X7881930Y3704720D01*
X8597000D01*
G03X8605760Y3720030I1J10161D01*
G02X8606710Y3765360I37240J21894D01*
G03X8608160Y3769000I-8535J5509D01*
G02X8618150Y3777280I9985J-1880D01*
G01X9264050D01*
G02X9272800Y3761960I-3J-10160D01*
G03X9279280Y3709630I37201J-21960D01*
G01Y3677280D01*
X9294280Y3662280D01*
Y3654260D01*
X9292970Y3652800D01*
G03X9283090Y3613340I32029J-28986D01*
G02X9273230Y3600720I-9857J-2460D01*
G01X7630280D01*
X7573780Y3544220D01*
X7517810D01*
G02X7514220Y3552890I0J5078D01*
G37*
G36*
G01X8242170Y3361230D02*
X8242180Y3359140D01*
X8315690Y3285630D01*
G02X8309960Y3268390I-7183J-7185D01*
G01X8215600Y3254720D01*
G02X8203980Y3264770I-1461J10054D01*
G01Y3275100D01*
X8196950Y3282130D01*
X8166280D01*
X8120070Y3328340D01*
Y3379250D01*
G02X8112930Y3439840I26809J33875D01*
G03X8104950Y3456280I-7983J6282D01*
G01X8095730D01*
X8057730Y3418280D01*
X7630800D01*
G03X7623490Y3415170I6J-10161D01*
G02X7610390Y3413860I-7320J7045D01*
G03X7606990Y3416030I-30387J-43862D01*
G02X7606500Y3424470I2565J4383D01*
G03X7609720Y3427280I-18540J24495D01*
G01X7641350Y3458910D01*
Y3479650D01*
X7668980Y3507280D01*
X8904400D01*
G02X8888570Y3446010I-36399J-23276D01*
G01X8877540Y3457030D01*
X8834250D01*
G02X8824850Y3481840I33749J26973D01*
G01X8824760Y3483800D01*
X8819310Y3489240D01*
G03X8802010Y3483000I-7184J-7184D01*
G02X8790110Y3457030I-43013J3998D01*
G01X8783160D01*
X8771900Y3445780D01*
G02X8728630Y3456280I-12906J41224D01*
G01X8188810D01*
G03X8180830Y3439840I3J-10158D01*
G02X8190070Y3414140I-33950J-26717D01*
G03X8199990Y3404220I10156J236D01*
G02X8242170Y3361230I-1020J-43189D01*
G37*
G36*
G01X7874140Y4084430D02*
G02X7858360Y4091760I-5679J8425D01*
G03X7658530Y4139280I-108362J-11762D01*
G02X7641470I-8530J5520D01*
G03X7521930Y4185320I-91468J-59282D01*
G02X7512130Y4202330I-2617J9820D01*
G01X7558890Y4249080D01*
X7901660D01*
G02X7911490Y4236370I-3J-10159D01*
G03X7943120Y4128860I105509J-27367D01*
G02X7943420Y4114210I-6888J-7469D01*
G01X7932190Y4102980D01*
X7930220Y4102900D01*
G03X7874140Y4084430I4784J-108897D01*
G37*
G36*
G01X7577710Y3884970D02*
G03X7585410Y3917980I-26219J23519D01*
G01X7585220Y3918650D01*
Y3931970D01*
X7697230D01*
G02X7704410Y3914630I-3J-10158D01*
G01X7657820Y3868030D01*
X7585270D01*
G02X7577710Y3884970I4J10159D01*
G37*
G36*
G01X7768280Y3888060D02*
X7781970Y3901760D01*
Y3931970D01*
X7825760D01*
X7828750Y3934960D01*
G02X7844380Y3933420I7183J-7183D01*
G03X7872250Y3904870I90617J60581D01*
G02X7873590Y3889380I-5845J-8309D01*
G01X7854930Y3870720D01*
X7775460D01*
G02X7768280Y3888060I3J10158D01*
G37*
G36*
G01X8282550Y3170000D02*
X8412500Y3188820D01*
X8455530Y3145790D01*
X8474200D01*
X8503280Y3116720D01*
X8412280Y3025720D01*
X8353000D01*
Y3032560D01*
X8354090Y3033950D01*
G02X8358780Y3039000I33900J-26780D01*
G01Y3070800D01*
X8276820Y3152760D01*
G02X8282550Y3170000I7185J7184D01*
G37*
G36*
G01X8247880Y4025030D02*
G03X8208590Y4079800I-103874J-33038D01*
G01X8206520Y4081320D01*
Y4088970D01*
X8217850D01*
X8219020Y4088300D01*
G03X8326980I53980J94700D01*
G01X8328150Y4088970D01*
X8348750D01*
Y4081170D01*
X8346490Y4079660D01*
G03X8304130Y4025030I60512J-90659D01*
G01X8247880D01*
G37*
G36*
G01X8509870D02*
G03X8478640Y4071150I-102873J-36026D01*
G02X8485310Y4088970I6674J7660D01*
G01X8851230D01*
X8897830Y4042370D01*
G02X8890640Y4025030I-7187J-7181D01*
G01X8509870D01*
G37*
G36*
G01X9596610Y3065280D02*
X9331720D01*
X9305930Y3039490D01*
X9302350Y3042600D01*
G03X9230850Y3012160I-28352J-32598D01*
G01X9230760Y3010200D01*
X9207090Y2986530D01*
Y2972720D01*
X9098810D01*
G02X9091620Y2990060I-2J10160D01*
G01X9178840Y3077280D01*
X9594280D01*
G02X9598790Y3069860I-1J-5081D01*
G03X9597980Y3068220I38318J-19946D01*
G01X9596610Y3065280D01*
G37*
G36*
G01X9109940Y3426720D02*
Y3445150D01*
X9135810Y3471020D01*
X9135970Y3472860D01*
G02X9158970Y3507280I43030J-3859D01*
G01X9199030D01*
G02X9187880Y3426720I-20030J-38279D01*
G01X9109940D01*
G37*
G36*
G01X9355950Y3777280D02*
X9739270D01*
X9820670Y3695870D01*
G02X9813490Y3678530I-7185J-7182D01*
G01X9702390D01*
G03X9693560Y3663350I0J-10158D01*
G02X9690650Y3616190I-37560J-21352D01*
G02X9674410Y3616120I-8146J6072D01*
G03X9626230Y3630950I-34412J-26119D01*
G02X9612840Y3640140I-3242J9626D01*
G02X9618440Y3663350I43162J1867D01*
G03X9609610Y3678530I-8830J5022D01*
G01X9425570D01*
X9425550Y3678510D01*
X9355720D01*
Y3687720D01*
X9340720Y3702720D01*
Y3709560D01*
X9342030Y3711020D01*
G03X9347200Y3761960I-32031J28983D01*
G02X9355950Y3777280I8753J5160D01*
G37*
G36*
G01X9282910Y3450030D02*
X9243000Y3489940D01*
G02X9250190Y3507280I7188J7180D01*
G01X9540880D01*
X9574390Y3473760D01*
X9574680Y3472210D01*
G03X9576850Y3464480I42498J7761D01*
G02X9568830Y3450780I-9479J-3648D01*
G01X9563690Y3450030D01*
X9282910D01*
G37*
G36*
G01X9733220Y3471660D02*
G03X9691810Y3523190I-42389J8340D01*
G01X9689770Y3523240D01*
X9669210Y3543790D01*
G02X9669460Y3558410I7182J7189D01*
G03X9681700Y3578720I-29458J31596D01*
G01X9682720Y3582470D01*
X9906710D01*
G02X9916850Y3572820I-5J-10158D01*
G03X9923800Y3551420I43147J2184D01*
G02X9915290Y3535720I-8515J-5541D01*
G01X9836280D01*
X9760100Y3459540D01*
X9743190D01*
G02X9733220Y3471660I-2J10159D01*
G37*
%LPC*%
G75*
G36*
G01X13340870Y2588250D02*
X13668340Y2260780D01*
X13900170D01*
G02X13904610Y2241480I0J-10161D01*
G03X13861230Y2093960I45388J-93485D01*
G02X13852560Y2078520I-8677J-5282D01*
G01X13762290D01*
X13592590Y2248220D01*
X13293390D01*
G02X13287030Y2266300I2J10159D01*
G03X13217090Y2305000I-27030J33699D01*
G02X13199820Y2298990I-10091J1178D01*
G01X13150520Y2348290D01*
Y2427050D01*
X13150540Y2427070D01*
Y2486150D01*
X13119380Y2517310D01*
Y2549510D01*
X13080220Y2588670D01*
Y2675660D01*
X13040220Y2715660D01*
Y2725650D01*
X12910740Y2855120D01*
X12909250Y2855430D01*
G02X12901550Y2868160I2071J9946D01*
G03X12900390Y2895330I-41549J11836D01*
G02X12909880Y2909100I9496J3611D01*
G01X13020020D01*
X13269250Y2659870D01*
G02X13266620Y2643610I-7187J-7180D01*
G03X13324610Y2585620I19380J-38610D01*
G02X13340870Y2588250I9080J-4557D01*
G37*
G36*
G01X13884560Y4353270D02*
G02X13878160Y4335220I-6399J-7891D01*
G01X13843410D01*
X13762560Y4254370D01*
G02X13745220Y4261550I-7181J7187D01*
G01Y4286090D01*
X13843750Y4384620D01*
G02X13859750Y4382470I7179J-7186D01*
G03X13884560Y4353270I90243J51536D01*
G37*
G36*
G01X10041990Y525090D02*
G03X10000910Y484010I50010J-91090D01*
G02X9983090I-8910J4892D01*
G03X9942010Y525090I-91090J-50010D01*
G02Y542910I4892J8910D01*
G03X9983090Y583990I-50010J91090D01*
G02X10000910I8910J-4892D01*
G03X10041990Y542910I91090J50010D01*
G02Y525090I-4892J-8910D01*
G37*
G36*
G01X9841990D02*
G03X9800910Y484010I50010J-91090D01*
G02X9783090I-8910J4892D01*
G03X9742010Y525090I-91090J-50010D01*
G02Y542910I4892J8910D01*
G03X9783090Y583990I-50010J91090D01*
G02X9800910I8910J-4892D01*
G03X9841990Y542910I91090J50010D01*
G02Y525090I-4892J-8910D01*
G37*
G36*
G01X9441990D02*
G03X9400910Y484010I50010J-91090D01*
G02X9383090I-8910J4892D01*
G03X9342010Y525090I-91090J-50010D01*
G02Y542910I4892J8910D01*
G03X9383090Y583990I-50010J91090D01*
G02X9400910I8910J-4892D01*
G03X9441990Y542910I91090J50010D01*
G02Y525090I-4892J-8910D01*
G37*
G36*
G01X9241990D02*
G03X9200910Y484010I50010J-91090D01*
G02X9183090I-8910J4892D01*
G03X9142010Y525090I-91090J-50010D01*
G02Y542910I4892J8910D01*
G03X9183090Y583990I-50010J91090D01*
G02X9200910I8910J-4892D01*
G03X9241990Y542910I91090J50010D01*
G02Y525090I-4892J-8910D01*
G37*
G36*
G01X9041990D02*
G03X9000910Y484010I50010J-91090D01*
G02X8983090I-8910J4892D01*
G03X8942010Y525090I-91090J-50010D01*
G02Y542910I4892J8910D01*
G03X8983090Y583990I-50010J91090D01*
G02X9000910I8910J-4892D01*
G03X9041990Y542910I91090J50010D01*
G02Y525090I-4892J-8910D01*
G37*
G36*
G01X13361840Y9712370D02*
G03X13343650Y9712180I-9048J-4622D01*
G02Y9812820I-103650J50320D01*
G03X13361840Y9812630I9142J4432D01*
G02Y9712370I98160J-50130D01*
G37*
G36*
G01Y7962370D02*
G03X13343650Y7962180I-9048J-4622D01*
G02Y8062820I-103650J50320D01*
G03X13361840Y8062630I9142J4432D01*
G02Y7962370I98160J-50130D01*
G37*
G36*
G01X9801300Y4914970D02*
G02X9841730Y4984670I-66297J85032D01*
G02X9801300Y4914970I-6730J-42672D01*
G37*
G36*
G01X12924460Y4892700D02*
G03X12913320Y4882170I-989J-10111D01*
G02X12838590Y4928880I-53318J-2168D01*
G03X12843170Y4943510I-4075J9308D01*
G02X12924460Y4892700I91833J56490D01*
G37*
G36*
G01X13869080Y4581140D02*
G03X13855010Y4569210I-4281J-9213D01*
G02X13795920Y4638860I-105016J-29203D01*
G03X13809990Y4650790I4281J9213D01*
G02X13869080Y4581140I105016J29203D01*
G37*
G36*
G01X9786280Y4222970D02*
X9731170Y4167870D01*
G02X9714880Y4170560I-7181J7183D01*
G03X9710770Y4177530I-47890J-23542D01*
G03X9692290Y4172240I-8333J-5812D01*
G02X9585660Y4176520I-53290J2760D01*
G03X9575510Y4186970I-10155J291D01*
G01X8959860D01*
G02X8952680Y4204310I3J10158D01*
G01X8987390Y4239030D01*
X10152950D01*
X10155270Y4229430D01*
G03X10145950Y4222970I19736J-38427D01*
G01X9786280D01*
G37*
G36*
G01X10320970Y4291120D02*
G03Y4272880I4471J-9120D01*
G02X10225030I-47970J-97880D01*
G03Y4291120I-4471J9120D01*
G02X10320970I47970J97880D01*
G37*
G36*
G01X9918290Y4088970D02*
X9767230D01*
G02X9760050Y4106310I3J10158D01*
G01X9812760Y4159030D01*
X10047290D01*
G02X10054470Y4141690I-3J-10158D01*
G01X10001760Y4088970D01*
X9989430D01*
Y4081650D01*
X9991090Y4080130D01*
G02X9926620Y4072980I-29090J-31933D01*
G03X9918290Y4088970I-8324J5829D01*
G37*
G36*
G01X9248570Y2774790D02*
G03X9261590Y2765270I10155J225D01*
G02X9230590Y2722850I12191J-41446D01*
G03X9217570Y2732370I-10155J-225D01*
G02X9248570Y2774790I-12191J41446D01*
G37*
G36*
G01X15172830Y1678500D02*
G03X15172890Y1664070I7184J-7185D01*
G02X15015970Y1651140I-72889J-74070D01*
G03X15007760Y1667280I-8214J5980D01*
G01X14744020D01*
X13104020Y3307280D01*
X12737440D01*
G03X12730250Y3289940I-2J-10160D01*
G01X12948310Y3071880D01*
G02X12941130Y3054540I-7187J-7181D01*
G01X12893360D01*
G02X12883390Y3066660I-2J10159D01*
G03X12832660Y3117390I-42390J8340D01*
G02X12820540Y3127360I-1961J9968D01*
G01Y3143350D01*
X12656610Y3307280D01*
X12558980D01*
X12538150Y3286450D01*
X12510370D01*
G02X12448740Y3346990I-30371J30722D01*
G03Y3361010I-7351J7010D01*
G02X12436940Y3394250I31263J29813D01*
G03X12426810Y3405220I-10129J809D01*
G01X12263290D01*
G02X12259700Y3413890I3J5080D01*
G01X12269590Y3423780D01*
X12369920D01*
G03X12377550Y3440650I3J10159D01*
G02X12378740Y3498990I32449J28520D01*
G03Y3513010I-7351J7010D01*
G02X12440370Y3573550I31259J29818D01*
G01X12468150D01*
X12488980Y3552720D01*
X13345980D01*
X13865980Y3032720D01*
X15010800D01*
G03X15018750Y3049210I3J10160D01*
G02X15172890Y3039930I81250J64790D01*
G03X15172830Y3025500I7124J-7245D01*
G01X15265500Y2932830D01*
G03X15279930Y2932890I7185J7184D01*
G02X15254720Y2829280I74068J-72894D01*
G01X15246280D01*
X15227000Y2848560D01*
X15207720Y2829280D01*
X15199280D01*
G02X15017330Y2922960I-99276J30717D01*
G03X15009240Y2939280I-8082J6159D01*
G01X13850290D01*
G03X13854560Y2868890I99710J-29276D01*
G01X13855920Y2865730D01*
X13799310Y2809120D01*
X13758850D01*
G03X13751670Y2791780I5J-10158D01*
G01X14782720Y1760720D01*
X15012440D01*
G03X15020230Y1777390I-7J10158D01*
G02X15199280Y1874720I79773J66604D01*
G01X15207720D01*
X15227000Y1855440D01*
X15246280Y1874720D01*
X15254720D01*
G02X15279930Y1771110I99278J-30716D01*
G03X15265500Y1771170I-7245J-7124D01*
G01X15172830Y1678500D01*
G37*
G36*
G01X15207720Y3906720D02*
X15232720Y3881720D01*
G02X15235380Y3878690I-21705J-21737D01*
G01X15235580Y3878420D01*
X15239410Y3874600D01*
X15250520Y3885700D01*
X15250720Y3887470D01*
G02X15275290Y3808150I103282J-11473D01*
G03X15260410Y3808700I-7695J-6633D01*
G01X15220980Y3769280D01*
X15219030D01*
X15166130Y3716380D01*
X15157420D01*
Y3708660D01*
X15159590Y3707140D01*
G02X15182670Y3559040I-59592J-85135D01*
G03X15190760Y3542720I8082J-6159D01*
G01X15263240D01*
G03X15271330Y3559040I8J10161D01*
G02X15436670I82670J62960D01*
G03X15444760Y3542720I8082J-6159D01*
G01X15485980D01*
X15582720Y3445980D01*
Y1554020D01*
X15445980Y1417280D01*
X15443200D01*
G03X15435250Y1400790I-3J-10160D01*
G02X15254720Y1305280I-81254J-64788D01*
G01X15246280D01*
X15227000Y1324560D01*
X15207720Y1305280D01*
X15199280D01*
G02X15174070Y1408890I-99278J30716D01*
G03X15188500Y1408830I7245J7124D01*
G01X15281170Y1501500D01*
G03X15281110Y1515930I-7184J7185D01*
G02X15457850Y1586190I72890J74070D01*
G03X15475190Y1578630I10154J-377D01*
G01X15489280Y1592720D01*
Y3407280D01*
X15447280Y3449280D01*
X15443200D01*
G03X15435250Y3432790I-3J-10160D01*
G02X15272750I-81250J-64790D01*
G03X15264800Y3449280I-7947J6330D01*
G01X15189200D01*
G03X15181250Y3432790I-3J-10160D01*
G02X15018750I-81250J-64790D01*
G03X15010800Y3449280I-7947J6330D01*
G01X13497280D01*
X13403390Y3543170D01*
X13380790D01*
X13277150Y3646810D01*
X13275310Y3646970D01*
G02X13308990Y3721260I3862J43029D01*
G03X13323010I7010J7351D01*
G02X13391130Y3670010I29823J-31256D01*
G01X13389400Y3666700D01*
X13419490Y3636610D01*
X13442090D01*
X13535980Y3542720D01*
X15009240D01*
G03X15017330Y3559040I8J10161D01*
G02X15029900Y3698720I82671J62966D01*
G03X15023050Y3716380I-6851J7501D01*
G01X14820190D01*
X14767290Y3769280D01*
X12677980D01*
X12594250Y3685550D01*
X12535190D01*
G03X12525220Y3673430I-2J-10159D01*
G02X12453010Y3633830I-42388J-8342D01*
G03X12438990I-7010J-7351D01*
G02X12395780Y3706160I-29819J31258D01*
G01X12399280Y3707300D01*
Y3729700D01*
X12452020Y3782440D01*
X12510620D01*
X12514070Y3778990D01*
X12555550D01*
X12639280Y3862720D01*
X14805990D01*
X14858890Y3809820D01*
X15000620D01*
G03X15009470Y3824970I1J10159D01*
G02X15199280Y3906720I90535J51022D01*
G01X15207720D01*
G37*
G36*
G01X9641990Y525090D02*
G03X9612640Y501080I50017J-91085D01*
G02X9537900Y538710I-82632J-71084D01*
G02X9542010Y542910I9008J-4704D01*
G03X9583090Y583990I-50010J91090D01*
G02X9600910I8910J-4892D01*
G03X9641990Y542910I91090J50010D01*
G02Y525090I-4892J-8910D01*
G37*
G36*
G01X12418200Y4325150D02*
G02X12395120Y4363230I-43200J-149D01*
G03X12410010Y4372250I4731J8990D01*
G02X12433090Y4334170I43200J149D01*
G03X12418200Y4325150I-4731J-8990D01*
G37*
G36*
G01X12367830Y4529360D02*
G02X12334790Y4577080I-42831J5643D01*
G03X12347170Y4585640I2309J9893D01*
G02X12385110Y4622920I42829J-5642D01*
G03X12392730Y4638150I-1146J10095D01*
G02X12434890Y4617080I37266J21852D01*
G03X12427270Y4601850I1146J-10095D01*
G02X12380210Y4537920I-37268J-21852D01*
G03X12367830Y4529360I-2309J-9893D01*
G37*
G36*
G01X12411750Y9004620D02*
G02X12359870Y9005840I-26752J-33920D01*
G03X12360250Y9022080I-5912J8263D01*
G02X12364970Y9093160I26751J33920D01*
G03X12363980Y9111150I-5182J8737D01*
G02X12403850Y9113340I17834J39349D01*
G03X12404840Y9095350I5182J-8737D01*
G02X12412130Y9020860I-17838J-39347D01*
G03X12411750Y9004620I5912J-8263D01*
G37*
G36*
G01X10767030Y4946700D02*
G02X10712970I-27030J-33700D01*
G03X10706610Y4964780I-6362J7921D01*
G01X10455410D01*
X10034780Y5385410D01*
Y5914590D01*
X10244780Y6124590D01*
Y6685410D01*
X10124780Y6805410D01*
Y7489260D01*
X10390120Y7754600D01*
Y7777700D01*
X10421140Y7808720D01*
X10421450Y7810220D01*
G02X10506960Y7802560I42321J-8676D01*
G03X10516880Y7792640I10155J235D01*
G02X10524540Y7707130I-1016J-43189D01*
G01X10523040Y7706820D01*
X10492010Y7675790D01*
X10468930D01*
X10236220Y7443080D01*
Y7346830D01*
G03X10254880Y7341260I10160J-3D01*
G02Y7282740I44620J-29260D01*
G03X10236220Y7277170I-8500J-5567D01*
G01Y6851580D01*
X10336440Y6751360D01*
G03X10353780Y6758550I7181J7187D01*
G01Y7075900D01*
X10512530Y7234650D01*
G03X10510090Y7250810I-7188J7179D01*
G02X10588340Y7299370I24908J47189D01*
G03X10605680Y7292440I10157J256D01*
G01X10633830Y7320590D01*
Y7969410D01*
X10629460Y7973780D01*
X10615270D01*
X10598940Y7957450D01*
X10555020D01*
G02X10498740Y8022490I-25026J35215D01*
G03Y8036510I-7351J7010D01*
G02X10555020Y8101550I31254J29825D01*
G01X10598940D01*
X10615270Y8085220D01*
X10675630D01*
X10745270Y8015580D01*
Y7274420D01*
X10614630Y7143780D01*
X10579270D01*
X10465220Y7029730D01*
Y6144590D01*
X10565220Y6044590D01*
Y5841240D01*
G03X10583320Y5834890I10161J-7D01*
G02X10676060Y5786080I41681J-33314D01*
G03X10686350Y5772980I9722J-2955D01*
G02X10702180Y5771510I3036J-53272D01*
G03X10714780Y5781370I2440J9862D01*
G01Y6091730D01*
X10711470Y6092970D01*
G02X10683510Y6129720I15078J40483D01*
G02X10680820Y6138190I31954J14810D01*
G03X10675680Y6142360I-5000J-910D01*
G02X10632140Y6176860I-1222J43182D01*
G01X10631830Y6178360D01*
X10484780Y6325410D01*
Y6704580D01*
X10819650Y7039450D01*
G03X10816760Y7055840I-7185J7183D01*
G02X10874160Y7113240I18240J39160D01*
G03X10890550Y7110350I9207J4295D01*
G01X10933780Y7153580D01*
Y8409580D01*
X11483780Y8959580D01*
Y9151580D01*
X11697510Y9365310D01*
X11887500D01*
X11887590Y9365400D01*
G02X11914910Y9376170I25401J-24399D01*
G01X11914990Y9376160D01*
X11951990Y9375300D01*
X11982050Y9343760D01*
X11983530Y9343420D01*
G02X11973420Y9258120I-9686J-42101D01*
G03X11963170Y9248350I-99J-10158D01*
G02X11877480Y9242340I-43171J1641D01*
G01X11877210Y9243840D01*
X11867650Y9253870D01*
X11743680D01*
X11595220Y9105410D01*
Y8913410D01*
X11045220Y8363410D01*
Y7107410D01*
X10596220Y6658410D01*
Y6371580D01*
X10691360Y6276440D01*
X10712120D01*
X10718580Y6269980D01*
G03X10735920Y6277170I7181J7187D01*
G01Y6294270D01*
X10654780Y6375410D01*
Y6644590D01*
X11074780Y7064590D01*
Y7901590D01*
X11388410Y8215220D01*
X11701670D01*
G03X11710870Y8229690I1J10159D01*
G02X11788630Y8267340I39129J18310D01*
G03X11804900Y8264710I9083J4550D01*
G01X11834780Y8294590D01*
Y8599380D01*
X11813930Y8620230D01*
Y8695550D01*
X11834780Y8716400D01*
Y8734590D01*
X11847370Y8747180D01*
X11847680Y8748680D01*
G02X11922510Y8711550I42319J-8681D01*
G03X11925330Y8695920I7644J-6690D01*
G02X11947450Y8664930I-20504J-38025D01*
G03X11963600Y8658470I10027J1650D01*
G02X11962590Y8483290I66399J-87976D01*
G03X11946220Y8475260I-6212J-8037D01*
G01Y8248420D01*
X11801580Y8103780D01*
X11434580D01*
X11186220Y7855420D01*
Y7035600D01*
G03X11203830Y7028690I10160J-1D01*
G02X11179660Y6985040I76169J-70693D01*
G03X11162670Y6994870I-9810J2642D01*
G01X10834080Y6666280D01*
G03X10840260Y6648990I7186J-7181D01*
G02X10793010Y6601740I-4260J-42990D01*
G03X10775720Y6607920I-10109J-1006D01*
G01X10766220Y6598420D01*
Y6421580D01*
X10793750Y6394040D01*
G03X10809380Y6395570I7187J7186D01*
G02X10836570Y6413820I35874J-24068D01*
G01X10838070Y6414130D01*
X10851560Y6427620D01*
X10869470D01*
X10875350Y6433500D01*
X10950670D01*
X10956550Y6427620D01*
X11051000D01*
X11136400Y6342220D01*
X11220970D01*
G03X11226230Y6361070I-1J10159D01*
G02X11333770I53770J88930D01*
G03X11339030Y6342220I5261J-8691D01*
G01X11365410D01*
X11591780Y6568590D01*
Y7127070D01*
X11934780Y7470070D01*
Y7524980D01*
G02X12012810Y7544240I35216J25020D01*
G03X12024240Y7532810I10073J-1357D01*
G02X12049060Y7451230I5758J-42814D01*
G01X12046220Y7449840D01*
Y7423900D01*
X12037220Y7414900D01*
X12042040Y7410070D01*
X12043770Y7409860D01*
G02X11922170Y7277650I-13772J-109359D01*
G03X11905050Y7282730I-9938J-2103D01*
G01X11703220Y7080900D01*
Y6834900D01*
G03X11719240Y6826600I10160J0D01*
G02Y6739400I30760J-43600D01*
G03X11703220Y6731100I-5860J-8300D01*
G01Y6568900D01*
G03X11719240Y6560600I10160J0D01*
G02X11699890Y6498670I30761J-43599D01*
G03X11683160Y6502360I-9542J-3491D01*
G01X11411580Y6230780D01*
X11090230D01*
X11004830Y6316180D01*
X10947190D01*
G02X10873320Y6325550I-34178J26420D01*
G03X10860420Y6331050I-9334J-4014D01*
G02X10851680Y6328780I-15171J40449D01*
G01X10847360Y6328130D01*
Y6199190D01*
X10858450Y6188100D01*
Y6078800D01*
X10826220Y6046570D01*
Y5783780D01*
X10831430Y5778570D01*
Y5448390D01*
X10865460Y5414360D01*
Y5353500D01*
X10833490Y5321530D01*
X10833180Y5320030D01*
G02X10748310Y5336180I-42320J8680D01*
G03X10740530Y5347850I-10006J1758D01*
G02X10714780Y5415020I9469J42151D01*
G01Y5658050D01*
G03X10702180Y5667910I-10160J-2D01*
G02X10638310Y5735210I-12810J51800D01*
G03X10628020Y5748310I-9722J2955D01*
G02X10583320Y5768270I-3019J53271D01*
G03X10565220Y5761920I-7939J-6343D01*
G01Y5485410D01*
X10495220Y5415410D01*
Y5392170D01*
G03X10512360Y5384790I10160J3D01*
G02Y5307210I36640J-38790D01*
G03X10495220Y5299830I-6980J-7383D01*
G01Y5284590D01*
X10604590Y5175220D01*
X11025410D01*
X11094100Y5243910D01*
Y5288070D01*
X11093640Y5289080D01*
G02X11090320Y5299840I39268J18008D01*
G03X11073120Y5305320I-10015J-1702D01*
G01X10982580Y5214780D01*
X10955020D01*
G02X10906410Y5286190I-25019J35219D01*
G03X10908400Y5301510I-5551J8510D01*
G02X10964250Y5366520I32064J28949D01*
G01X10965520Y5365680D01*
X10975870D01*
X11054780Y5444590D01*
Y5691220D01*
G03X11040500Y5700500I-10159J-5D01*
G02Y5779500I-17500J39500D01*
G03X11054780Y5788780I4121J9285D01*
G01Y5824590D01*
X11124780Y5894590D01*
Y6054260D01*
G03X11107080Y6061060I-10158J-5D01*
G02X11113360Y6109870I-32079J28936D01*
G03X11129560Y6107360I9019J4676D01*
G01X11227100Y6204900D01*
X11596100D01*
X11842940Y6451740D01*
Y6537560D01*
X11831780Y6548720D01*
Y6548740D01*
X11815110Y6565410D01*
Y6570490D01*
X11814620Y6571520D01*
G02X11883490Y6621260I39048J18483D01*
G03X11897510I7010J7351D01*
G02X11962550Y6564980I29825J-31254D01*
G01Y6521060D01*
X11954380Y6512890D01*
Y6405570D01*
X11667820Y6119010D01*
X11672120Y6114710D01*
Y6066620D01*
G02X11654780Y6059440I-10158J3D01*
G01X11620750Y6093460D01*
X11427360D01*
G03X11417390Y6081340I-2J-10159D01*
G02X11332610I-42390J-8340D01*
G03X11322640Y6093460I-9968J1961D01*
G01X11273270D01*
X11236220Y6056410D01*
Y5848420D01*
X11217500Y5829700D01*
G03X11224740Y5812360I7186J-7181D01*
G02X11184160Y5724660I261J-53359D01*
G03X11166220Y5718120I-7780J-6535D01*
G01Y5398420D01*
X11134670Y5366870D01*
G03X11140150Y5349670I7182J-7185D01*
G02X11176100Y5308100I-7239J-42590D01*
G03X11186020Y5298180I10155J235D01*
G02X11205430Y5293060I-1013J-43191D01*
G03X11220390Y5302010I4802J8951D01*
G01Y5307660D01*
X11223980Y5311250D01*
Y5336680D01*
X11224680Y5337380D01*
X11224990Y5338880D01*
G02X11310070Y5324070I42316J-8690D01*
G03X11318450Y5312600I10058J-1448D01*
G02X11327100Y5310200I-7162J-42600D01*
G03X11340940Y5320480I3714J9456D01*
G02X11419400Y5348760I43057J3521D01*
G03X11436540Y5349520I8329J5817D01*
G02X11438600Y5303240I37460J-21518D01*
G03X11421460Y5302480I-8329J-5817D01*
G02X11360400Y5287820I-37457J21521D01*
G03X11352750Y5282130I-2775J-4257D01*
G02X11353610Y5278680I-41451J-12165D01*
G01X11353920Y5277180D01*
X11356760Y5274340D01*
Y5086950D01*
X11234590Y4964780D01*
X10773390D01*
G03X10767030Y4946700I2J-10159D01*
G37*
G36*
G01X13561090Y509990D02*
G02X13419990Y651090I-91090J50010D01*
G03Y668910I-4892J8910D01*
G02X13561090Y810010I50010J91090D01*
G03X13578910I8910J4892D01*
G02X13761090I91090J-50010D01*
G03X13778910I8910J4892D01*
G02X13961090I91090J-50010D01*
G03X13978910I8910J4892D01*
G02X14161090I91090J-50010D01*
G03X14178910I8910J4892D01*
G02X14361090I91090J-50010D01*
G03X14378910I8910J4892D01*
G02X14561090I91090J-50010D01*
G03X14578910I8910J4892D01*
G02X14720010Y668910I91090J-50010D01*
G03Y651090I4892J-8910D01*
G02X14578910Y509990I-50010J-91090D01*
G03X14561090I-8910J-4892D01*
G02X14378910I-91090J50010D01*
G03X14361090I-8910J-4892D01*
G02X14178910I-91090J50010D01*
G03X14161090I-8910J-4892D01*
G02X13978910I-91090J50010D01*
G03X13961090I-8910J-4892D01*
G02X13778910I-91090J50010D01*
G03X13761090I-8910J-4892D01*
G02X13578910I-91090J50010D01*
G03X13561090I-8910J-4892D01*
G37*
G54D35*
X1900000Y7000000D03*
X2000000Y8400000D03*
Y8200000D03*
X2300000Y6150000D03*
X2452300Y6292300D03*
X3690000Y9208000D03*
X3902300Y6292300D03*
X4709640Y9130640D03*
X5448000Y9015000D03*
X5918000Y6906000D03*
X6124000Y9015000D03*
X6405640Y7239640D03*
X6389000Y9271320D03*
X6599000Y9533000D03*
X7381000Y490000D03*
X7110000Y8110000D03*
X7833000Y490000D03*
X7637000Y1611000D03*
X7950000Y8978000D03*
X7800000Y8983000D03*
X8250000Y8980000D03*
X8100000Y8981000D03*
X8651000Y4848000D03*
X8689000Y5042000D03*
X9204800Y2355200D03*
X9111000Y4848000D03*
X9138000Y4998000D03*
X9207000Y5117000D03*
X9284000Y2450000D03*
X9215430Y2530430D03*
X9346820Y2625000D03*
X9720000Y2825000D03*
X9714000Y2675000D03*
X10038000Y2619000D03*
X9945000Y3825000D03*
X9953000Y4425000D03*
X9963000Y4296000D03*
X9954000Y4725000D03*
X9685000Y4825000D03*
X9815000Y8638000D03*
Y9019000D03*
X9809000Y9400000D03*
X10121000Y2213000D03*
X10231250Y2347000D03*
X10305000Y2469000D03*
Y2598000D03*
X10186000Y8638000D03*
X10212000Y9019000D03*
X10199000Y9400000D03*
X10833500Y4243500D03*
X10789000Y4812000D03*
X10903000Y4727000D03*
X11252000Y5432000D03*
X10925000Y5434000D03*
X10922640Y6053180D03*
X11021000Y8681000D03*
X11070000Y9019000D03*
X11079000Y9400000D03*
X11646000Y276000D03*
X11565000Y560000D03*
X11454000Y475000D03*
X11616000Y832000D03*
X11390000Y4482000D03*
Y4968680D03*
X11554200Y5736000D03*
X11439000Y8638000D03*
X11426000Y9019000D03*
X11435000Y9400000D03*
X11800000Y309000D03*
Y735000D03*
X11777000Y5754000D03*
X12096820Y7140450D03*
X12060000Y8870000D03*
X12540000Y3175000D03*
X12410680Y4069320D03*
X12495000Y4125000D03*
X12307000Y4413000D03*
X12280000Y4290000D03*
X12240000Y6852320D03*
X12382000Y7443000D03*
X12399500Y7240500D03*
X12387000Y7338000D03*
X12240000Y7714000D03*
Y8605000D03*
Y9455000D03*
X12900000Y4175000D03*
X12745000Y7000000D03*
X12645000Y7150000D03*
X12718000Y7602000D03*
X12912500Y7600500D03*
X12645000Y7338000D03*
X12651000Y7446000D03*
X12630000Y8880000D03*
X12694000Y8743000D03*
X12737000Y9300000D03*
X12636000Y9050000D03*
X12628000Y9150000D03*
X12920500Y9350500D03*
X13180000Y4175000D03*
X13270000Y4585680D03*
X13420000Y4530000D03*
X13390000Y4370000D03*
X13160000Y4425680D03*
X13324000Y4986000D03*
X13088000Y5264000D03*
X13077000Y5468000D03*
X13083000Y5361000D03*
X13163000Y5093000D03*
X13235500Y6960500D03*
X13222500Y7680500D03*
X13198500Y8710500D03*
X13260000Y9030000D03*
X13208500Y9430500D03*
X13677000Y4088000D03*
X13583000Y4239000D03*
X13496000Y4296000D03*
X13505000Y5093000D03*
X13580000Y7040000D03*
X13460000Y9110000D03*
X14230000Y6780000D03*
X14210000Y7330000D03*
X13980000Y8120000D03*
X13890000Y8690000D03*
X14220000Y8500000D03*
X14140000Y9270000D03*
X13950000Y9180000D03*
X14430000Y6960000D03*
X14340000Y7520000D03*
X7866000Y6769000D03*
X7679000Y6773000D03*
X7717000Y7165000D03*
X7762000Y6895000D03*
X7742340Y7297660D03*
X7804000Y7826000D03*
X7836000Y7990000D03*
X8057000Y6765000D03*
X7981000Y6894000D03*
X7962000Y7370000D03*
X8514000Y5846000D03*
X8500480Y7430000D03*
X8700000Y7700000D03*
X9110000Y6490000D03*
X8930000Y6390000D03*
X9060000Y6360000D03*
X8800000Y6590000D03*
G54D46*
X8700000Y7150000D03*
X8600000D03*
X8500000D03*
X8400000D03*
X8500000Y7050000D03*
X8600000D03*
X8700000D03*
Y6950000D03*
X8600000D03*
X8500000D03*
X8400000D03*
Y6850000D03*
X8500000D03*
X8600000D03*
X8700000D03*
G54D45*
X12740000Y6587500D03*
Y8337500D03*
G54D38*
X7527000Y1801000D03*
X8740000Y430000D03*
X9113000Y4599000D03*
X10278000Y3945000D03*
G54D42*
X12030000Y6820500D03*
Y7780500D03*
Y9050500D03*
Y9530500D03*
X12490000Y6587500D03*
Y8012500D03*
Y8337500D03*
Y9762500D03*
X12990000Y6587500D03*
Y8012500D03*
Y8337500D03*
Y9762500D03*
X13460000Y6587500D03*
Y8337500D03*
G54D44*
X12240000Y8012500D03*
Y9762500D03*
X13740000Y6587500D03*
Y7155500D03*
Y7695500D03*
Y8337500D03*
Y8905500D03*
Y9445500D03*
X14240000Y8012500D03*
Y9762500D03*
X14740000Y6587500D03*
Y8337500D03*
X15240000Y8012500D03*
Y9762500D03*
X15740000Y6587500D03*
Y7445500D03*
Y8337500D03*
Y9195500D03*
G54D34*
X1911100Y6151100D03*
X1813480Y6253480D03*
X2200000Y6030000D03*
X2150000Y6590000D03*
X2400000Y7300000D03*
Y7500000D03*
Y7700000D03*
Y7900000D03*
Y8100000D03*
Y8300000D03*
Y8500000D03*
Y9200000D03*
Y9400000D03*
X2500000Y6050000D03*
X2710000Y6590000D03*
X2900000Y6480000D03*
X2750000Y6470000D03*
X2550000Y6720000D03*
X2555000Y8810000D03*
X3109640Y9128640D03*
X3300000Y9639000D03*
X3650000Y6030000D03*
X3590000Y6527700D03*
X3600000Y6670000D03*
X3610000Y6410000D03*
X3700000Y8700000D03*
Y9700000D03*
X3949000Y6051000D03*
X3760000Y6180000D03*
X4110000Y6690000D03*
X3900000Y6680000D03*
X3850000Y6800000D03*
X3800000Y7300000D03*
Y7500000D03*
Y7700000D03*
Y7900000D03*
Y8100000D03*
Y8300000D03*
Y8500000D03*
X4157000Y8810000D03*
X4200000Y6470000D03*
X4350000Y6480000D03*
X4900000Y9635000D03*
X5400000Y7300000D03*
Y7500000D03*
Y7700000D03*
Y7900000D03*
Y8100000D03*
Y8300000D03*
Y8500000D03*
X5696000Y5821000D03*
Y6021000D03*
Y6221000D03*
Y6421000D03*
Y6621000D03*
Y7521000D03*
X6596000Y7756000D03*
X7096000Y5821000D03*
Y6221000D03*
Y6021000D03*
Y6621000D03*
Y6421000D03*
Y6821000D03*
X6796000Y7421000D03*
X7096000Y7821000D03*
X7300000Y4181580D03*
Y4400000D03*
X7540000Y4760000D03*
X7750000Y4770000D03*
X9290000Y4580000D03*
X9314780Y4707800D03*
X9327000Y4825000D03*
X9568000Y6700000D03*
X10175000Y6576000D03*
X10898000Y5754000D03*
X10685000Y7092000D03*
X11375000Y5712000D03*
X11653000Y7945000D03*
X11750000Y7764000D03*
Y8532000D03*
X11682700Y9060000D03*
X11750000Y9516000D03*
X11909000Y8881000D03*
X11840000Y9695000D03*
X12860000Y4740000D03*
X12880500Y7360500D03*
X13420000Y7040500D03*
X13604000Y4391000D03*
X8075580Y8293000D03*
X8623000Y6455000D03*
X8800000Y7610000D03*
X8725420Y8293000D03*
X9100000Y7845000D03*
Y8254000D03*
G54D33*
X611000Y5894000D03*
Y6148000D03*
Y6656000D03*
Y6402000D03*
Y7164000D03*
Y6910000D03*
Y7418000D03*
Y7926000D03*
Y7672000D03*
Y8434000D03*
Y8180000D03*
Y8688000D03*
Y8942000D03*
X1119000Y5894000D03*
X865000D03*
X1119000Y6148000D03*
X865000D03*
X1119000Y6656000D03*
Y6402000D03*
X865000Y6656000D03*
Y6402000D03*
X1119000Y7164000D03*
Y6910000D03*
X865000Y7164000D03*
Y6910000D03*
X1119000Y7418000D03*
X865000D03*
X1119000Y7926000D03*
Y7672000D03*
X865000Y7926000D03*
Y7672000D03*
X1119000Y8434000D03*
Y8180000D03*
X865000Y8434000D03*
Y8180000D03*
X1119000Y8688000D03*
X865000D03*
X1119000Y8942000D03*
X865000D03*
X9535000Y2152500D03*
X12247500Y5635000D03*
X12735000Y2152500D03*
Y5147500D03*
G54D40*
X9735000Y2300000D03*
X12100000Y5835000D03*
X12935000Y2300000D03*
G54D43*
X12650000Y6820500D03*
Y7780500D03*
Y8570500D03*
Y9530500D03*
G54D41*
X10135000Y4700000D03*
X12105000Y4440000D03*
G54D36*
X2400000Y9600000D03*
X2908000D03*
X2654000D03*
X4000000D03*
X4508000D03*
X4254000D03*
X5696000Y7721000D03*
X6204000D03*
X5950000D03*
X11280000Y6704000D03*
X11438000Y7616000D03*
Y7362000D03*
Y7870000D03*
X15100000Y2098000D03*
Y2352000D03*
Y2606000D03*
Y4130000D03*
Y4384000D03*
Y4638000D03*
Y4892000D03*
Y5146000D03*
Y5400000D03*
X15354000Y2098000D03*
Y2352000D03*
Y2606000D03*
Y3114000D03*
Y4130000D03*
Y4384000D03*
Y4638000D03*
Y4892000D03*
Y5146000D03*
Y5400000D03*
X8292000Y8050000D03*
X8546000D03*
X8800000D03*
G54D31*
X8925000Y9459000D03*
X7475000D03*
G54D37*
X6026000Y8511000D03*
X6534000D03*
X10000000Y8363000D03*
X10100000Y9646000D03*
X11250000Y8363000D03*
X11350000Y9646000D03*
G54D39*
X9550000Y1450000D03*
X12950000D03*
Y5850000D03*
G54D32*
X8925000Y8862000D03*
X7475000D03*
%LPD*%
G75*
G36*
G01X10521450Y5076220D02*
X10501580D01*
X10146220Y5431580D01*
Y5558450D01*
G02X10164330Y5564780I10161J0D01*
G03Y5705220I88170J70220D01*
G02X10146220Y5711550I-7949J6330D01*
G01Y5868420D01*
X10356220Y6078420D01*
Y6083720D01*
G02X10364890Y6087310I5080J-3D01*
G01X10453780Y5998420D01*
Y5944620D01*
G02X10439860Y5935180I-10160J-1D01*
G03Y5734820I-39860J-100180D01*
G02X10453780Y5725380I3760J-9439D01*
G01Y5531580D01*
X10383780Y5461580D01*
Y5238420D01*
X10528640Y5093560D01*
G02X10521450Y5076220I-7187J-7181D01*
G37*
G36*
G01X11205540Y5216990D02*
G03X11214880Y5223790I-20527J38009D01*
G02X11229090Y5223640I7028J-7336D01*
G01X11245320Y5207410D01*
Y5133120D01*
X11188420Y5076220D01*
X11108550D01*
G02X11101360Y5093560I-3J10159D01*
G01X11205540Y5197740D01*
Y5216990D01*
G37*
G36*
G01X13712890Y2830550D02*
X13142720Y3400720D01*
X12619470D01*
X12596410Y3423780D01*
X12507940D01*
G03X12486240Y3433580I-27943J-32948D01*
G02X12480520Y3450810I1466J10051D01*
G01X12488980Y3459280D01*
X13307280D01*
X13824450Y2942110D01*
X13712890Y2830550D01*
G37*
G36*
G01X13761090Y610010D02*
G03X13720010Y651090I-91090J-50010D01*
G02Y668910I4892J8910D01*
G03X13761090Y709990I-50010J91090D01*
G02X13778910I8910J-4892D01*
G03X13819990Y668910I91090J50010D01*
G02Y651090I-4892J-8910D01*
G03X13778910Y610010I50010J-91090D01*
G02X13761090I-8910J4892D01*
G37*
G36*
G01X13561090D02*
G03X13520010Y651090I-91090J-50010D01*
G02Y668910I4892J8910D01*
G03X13561090Y709990I-50010J91090D01*
G02X13578910I8910J-4892D01*
G03X13619990Y668910I91090J50010D01*
G02Y651090I-4892J-8910D01*
G03X13578910Y610010I50010J-91090D01*
G02X13561090I-8910J4892D01*
G37*
G36*
G01X14161090D02*
G03X14120010Y651090I-91090J-50010D01*
G02Y668910I4892J8910D01*
G03X14161090Y709990I-50010J91090D01*
G02X14178910I8910J-4892D01*
G03X14219990Y668910I91090J50010D01*
G02Y651090I-4892J-8910D01*
G03X14178910Y610010I50010J-91090D01*
G02X14161090I-8910J4892D01*
G37*
G36*
G01X13961090D02*
G03X13920010Y651090I-91090J-50010D01*
G02Y668910I4892J8910D01*
G03X13961090Y709990I-50010J91090D01*
G02X13978910I8910J-4892D01*
G03X14019990Y668910I91090J50010D01*
G02Y651090I-4892J-8910D01*
G03X13978910Y610010I50010J-91090D01*
G02X13961090I-8910J4892D01*
G37*
G36*
G01X14561090D02*
G03X14520010Y651090I-91090J-50010D01*
G02Y668910I4892J8910D01*
G03X14561090Y709990I-50010J91090D01*
G02X14578910I8910J-4892D01*
G03X14619990Y668910I91090J50010D01*
G02Y651090I-4892J-8910D01*
G03X14578910Y610010I50010J-91090D01*
G02X14561090I-8910J4892D01*
G37*
G36*
G01X14361090D02*
G03X14320010Y651090I-91090J-50010D01*
G02Y668910I4892J8910D01*
G03X14361090Y709990I-50010J91090D01*
G02X14378910I8910J-4892D01*
G03X14419990Y668910I91090J50010D01*
G02Y651090I-4892J-8910D01*
G03X14378910Y610010I50010J-91090D01*
G02X14361090I-8910J4892D01*
G37*
G54D10*
X357000Y560000D03*
Y9450000D03*
G54D20*
X9550000Y1450000D03*
Y5850000D03*
X12950000Y1450000D03*
Y5850000D03*
G54D11*
X611000Y1322000D03*
Y1068000D03*
Y1576000D03*
Y2084000D03*
Y1830000D03*
Y2592000D03*
Y2338000D03*
Y2846000D03*
Y3354000D03*
Y3100000D03*
Y3862000D03*
Y3608000D03*
Y4116000D03*
Y4624000D03*
Y4370000D03*
Y5132000D03*
Y4878000D03*
Y5386000D03*
Y5894000D03*
Y5640000D03*
Y6148000D03*
Y6656000D03*
Y6402000D03*
Y7164000D03*
Y6910000D03*
Y7418000D03*
Y7926000D03*
Y7672000D03*
Y8434000D03*
Y8180000D03*
Y8688000D03*
Y8942000D03*
X1119000Y1322000D03*
Y1068000D03*
X865000Y1322000D03*
Y1068000D03*
X1119000Y1576000D03*
X865000D03*
X1119000Y2084000D03*
Y1830000D03*
X865000Y2084000D03*
Y1830000D03*
X1119000Y2592000D03*
Y2338000D03*
X865000Y2592000D03*
Y2338000D03*
X1119000Y2846000D03*
X865000D03*
X1119000Y3354000D03*
Y3100000D03*
X865000Y3354000D03*
Y3100000D03*
X1119000Y3862000D03*
Y3608000D03*
X865000Y3862000D03*
Y3608000D03*
X1119000Y4116000D03*
X865000D03*
X1119000Y4624000D03*
Y4370000D03*
X865000Y4624000D03*
Y4370000D03*
X1119000Y5132000D03*
Y4878000D03*
X865000Y5132000D03*
Y4878000D03*
X1119000Y5386000D03*
X865000D03*
X1119000Y5894000D03*
Y5640000D03*
X865000Y5894000D03*
Y5640000D03*
X1119000Y6148000D03*
X865000D03*
X1119000Y6656000D03*
Y6402000D03*
X865000Y6656000D03*
Y6402000D03*
X1119000Y7164000D03*
Y6910000D03*
X865000Y7164000D03*
Y6910000D03*
X1119000Y7418000D03*
X865000D03*
X1119000Y7926000D03*
Y7672000D03*
X865000Y7926000D03*
Y7672000D03*
X1119000Y8434000D03*
Y8180000D03*
X865000Y8434000D03*
Y8180000D03*
X1119000Y8688000D03*
X865000D03*
X1119000Y8942000D03*
X865000D03*
X9535000Y2152500D03*
Y5147500D03*
X10252500Y5635000D03*
X12247500D03*
X12735000Y2152500D03*
Y5147500D03*
G54D30*
G01X2256840Y5222590D02*
X3857410D01*
G01X7750000Y4080000D02*
Y3915000D01*
X7505000Y3670000D01*
X7460000D01*
X7360000Y3570000D01*
Y3566000D01*
G01X7551490Y3908490D02*
X7253000Y3610000D01*
G54D21*
X9735000Y2300000D03*
Y5000000D03*
X10400000Y5835000D03*
X12100000D03*
X12650000Y6820500D03*
Y7780500D03*
Y8570500D03*
Y9530500D03*
X12935000Y2300000D03*
Y5000000D03*
G54D12*
X1911100Y6151100D03*
X1813480Y6253480D03*
X2400000Y1750000D03*
X2380000Y2530000D03*
X2400000Y2750000D03*
X2380000Y2970000D03*
X2400000Y3750000D03*
Y4750000D03*
X2450000Y5790000D03*
X2200000Y6030000D03*
X2150000Y6590000D03*
X2400000Y7300000D03*
Y7500000D03*
Y7700000D03*
Y7900000D03*
Y8100000D03*
Y8300000D03*
Y8500000D03*
Y9200000D03*
Y9400000D03*
X2755000Y5670000D03*
X2500000Y6050000D03*
X2900000Y6220000D03*
X2750000D03*
X2580000Y6298210D03*
X2680000Y5942300D03*
X2710000Y6590000D03*
X2900000Y6480000D03*
X2750000Y6470000D03*
X2550000Y6720000D03*
X2555000Y8810000D03*
X3109640Y9128640D03*
X3300000Y9639000D03*
X3440000Y1610000D03*
Y1430000D03*
Y1870000D03*
Y1740000D03*
Y2050000D03*
Y2430000D03*
Y2870000D03*
Y2610000D03*
Y2740000D03*
Y3050000D03*
Y3610000D03*
Y3740000D03*
Y3430000D03*
Y3870000D03*
Y4050000D03*
Y4610000D03*
Y4430000D03*
Y4870000D03*
Y4740000D03*
Y5050000D03*
X3450000Y6060000D03*
X3650000Y6030000D03*
X3590000Y6527700D03*
X3600000Y6670000D03*
X3610000Y6410000D03*
X3700000Y8700000D03*
Y9700000D03*
X3820000Y1430000D03*
Y1610000D03*
Y2050000D03*
Y1870000D03*
Y2430000D03*
Y2870000D03*
Y2610000D03*
Y3050000D03*
Y3430000D03*
Y3610000D03*
Y4050000D03*
Y3870000D03*
Y4430000D03*
Y4610000D03*
Y4870000D03*
Y5050000D03*
X4120000Y5930000D03*
X3949000Y6051000D03*
X4030000Y6298210D03*
X3760000Y6180000D03*
X4110000Y6690000D03*
X3900000Y6680000D03*
X3850000Y6800000D03*
X3800000Y7300000D03*
Y7500000D03*
Y7700000D03*
Y7900000D03*
Y8100000D03*
Y8300000D03*
Y8500000D03*
X4157000Y8810000D03*
X4000000Y9200000D03*
Y9400000D03*
X4180000Y1530000D03*
X4200000Y1750000D03*
X4180000Y1970000D03*
X4200000Y2750000D03*
Y3750000D03*
X4180000Y3530000D03*
Y3970000D03*
Y4530000D03*
X4200000Y4750000D03*
X4180000Y4970000D03*
X4225000Y5680000D03*
X4200000Y6220000D03*
X4350000D03*
X4200000Y6470000D03*
X4350000Y6480000D03*
X4900000Y9635000D03*
X5240000Y1610000D03*
Y1430000D03*
Y1870000D03*
Y1740000D03*
Y2050000D03*
Y2430000D03*
Y2870000D03*
Y2610000D03*
Y2740000D03*
Y3050000D03*
Y3610000D03*
Y3740000D03*
Y3430000D03*
Y3870000D03*
Y4050000D03*
Y4610000D03*
Y4430000D03*
Y4870000D03*
Y4740000D03*
Y5050000D03*
X5030000Y5900000D03*
X5400000Y7300000D03*
Y7500000D03*
Y7700000D03*
Y7900000D03*
Y8100000D03*
Y8300000D03*
Y8500000D03*
X5300000Y8700000D03*
X5100000Y9300000D03*
X5300000Y9700000D03*
X5620000Y1430000D03*
Y1610000D03*
Y2050000D03*
Y1870000D03*
Y2430000D03*
Y2870000D03*
Y2610000D03*
Y3050000D03*
Y3430000D03*
Y3610000D03*
Y4050000D03*
Y3870000D03*
Y4430000D03*
Y4610000D03*
Y4870000D03*
Y5050000D03*
X5701000Y5402000D03*
X5703000Y5609000D03*
X5696000Y5821000D03*
Y6021000D03*
Y6221000D03*
Y6421000D03*
Y6621000D03*
Y7321000D03*
Y7521000D03*
X6460000Y2570000D03*
X6590000Y2580000D03*
X6530000Y3080000D03*
X6545000Y3930000D03*
X6680000D03*
X6596000Y7756000D03*
X6710000Y2560000D03*
X6850000D03*
X6890000Y2660000D03*
X6820000Y3930000D03*
X7015000Y4200000D03*
X6945000Y3935000D03*
X7000000Y4395000D03*
X7111000Y5424000D03*
X7096000Y5821000D03*
X7106000Y5620000D03*
X7096000Y6221000D03*
Y6021000D03*
Y6621000D03*
Y6421000D03*
Y6821000D03*
X6796000Y7421000D03*
X7096000Y7821000D03*
X7300000Y4181580D03*
Y4400000D03*
X7540000Y4760000D03*
X7310000Y7950000D03*
X7580000Y3370000D03*
X7705000Y3180000D03*
X7750000Y4770000D03*
X8075580Y8293000D03*
Y8447000D03*
X8623000Y6455000D03*
X8800000Y7610000D03*
X8725420Y8293000D03*
X8733000Y8450000D03*
X9148000Y3965000D03*
X9160000Y6910000D03*
X8950000Y7285000D03*
X9149000Y7510000D03*
X9100000Y7845000D03*
Y8254000D03*
X9639000Y4175000D03*
X9290000Y4580000D03*
X9314780Y4707800D03*
X9327000Y4825000D03*
X9568000Y6700000D03*
X10135000Y4700000D03*
X10175000Y6576000D03*
X10299500Y7312000D03*
X10549000Y5346000D03*
X10689370Y5719710D03*
X10898000Y5754000D03*
X10625000Y5801580D03*
X10685000Y7092000D03*
X10535000Y7298000D03*
X11225000Y5759000D03*
X11375000Y5712000D03*
X11750000Y6517000D03*
Y6783000D03*
X11653000Y7945000D03*
X11750000Y7764000D03*
Y8532000D03*
X11682700Y9060000D03*
X11750000Y9516000D03*
X12105000Y4440000D03*
X11909000Y8881000D03*
X11840000Y9695000D03*
X12860000Y4880000D03*
Y4740000D03*
X12880500Y7360500D03*
X13420000Y7040500D03*
X13604000Y4391000D03*
G54D22*
X12030000Y6820500D03*
Y7300500D03*
Y7780500D03*
Y8570500D03*
Y9050500D03*
Y9530500D03*
X12490000Y6587500D03*
Y8012500D03*
Y8337500D03*
Y9762500D03*
X12990000Y6587500D03*
Y8012500D03*
Y8337500D03*
Y9762500D03*
X13460000Y6587500D03*
Y8012500D03*
Y8337500D03*
Y9762500D03*
G54D13*
X1900000Y7000000D03*
X2000000Y8400000D03*
Y8200000D03*
X2300000Y6150000D03*
X2452300Y6292300D03*
X3690000Y9208000D03*
X3900000Y5800000D03*
X3902300Y6292300D03*
X4709640Y9130640D03*
X5448000Y9015000D03*
X5918000Y6906000D03*
X6124000Y9015000D03*
X6405640Y7239640D03*
X6389000Y9271320D03*
X6599000Y9533000D03*
X7381000Y490000D03*
X7110000Y8110000D03*
X7833000Y490000D03*
X7637000Y1611000D03*
X7750000Y4370000D03*
X7540000D03*
X7765000Y5210000D03*
X7866000Y6769000D03*
X7679000Y6773000D03*
X7717000Y7165000D03*
X7762000Y6895000D03*
X7742340Y7297660D03*
X7804000Y7826000D03*
X7836000Y7990000D03*
X7950000Y8978000D03*
X7800000Y8983000D03*
X8299000Y2559000D03*
X8286000Y2396300D03*
X8223000Y2679000D03*
X8031000Y2705000D03*
X8243880Y4621880D03*
X8057000Y6765000D03*
X7981000Y6894000D03*
X7962000Y7370000D03*
X8100000Y8981000D03*
X8250000Y8980000D03*
X8436000Y2314000D03*
X8651000Y4848000D03*
X8689000Y5042000D03*
X8729000Y5453000D03*
X8514000Y5846000D03*
X8621000Y5752000D03*
X8619000Y5595000D03*
X8476820Y6545000D03*
X8500480Y7430000D03*
X8584760Y7525240D03*
X8700000Y7700000D03*
X8630000Y7620000D03*
X9204800Y2355200D03*
X9205380Y2773820D03*
X9111860Y2582860D03*
X8973230Y3056820D03*
X8830350Y3269470D03*
X8899120Y3056820D03*
X8830350Y3343130D03*
X9111000Y4848000D03*
X9138000Y4998000D03*
X9207000Y5117000D03*
X9015000Y5476000D03*
X9037640Y5675320D03*
X9110000Y6490000D03*
X8930000Y6390000D03*
X9060000Y6360000D03*
X8800000Y6590000D03*
X9059900Y6889900D03*
X9284000Y2450000D03*
X9215430Y2530430D03*
X9346820Y2625000D03*
X9273780Y2723820D03*
X9287000Y2930830D03*
X9346050Y3321710D03*
X9274000Y3010000D03*
X9310000Y3740000D03*
X9325000Y3623820D03*
X9617170Y3480000D03*
X9274000Y3994000D03*
X9326000Y4067000D03*
X9224170Y4068150D03*
X9714000Y2675000D03*
X9720000Y2825000D03*
X10038000Y2619000D03*
X9660000Y3320000D03*
X9637150Y3050000D03*
X9968180Y3033180D03*
X9964000Y3325000D03*
X10050000Y3142830D03*
X10026730Y3363620D03*
X10050000Y3069170D03*
X9960000Y3575000D03*
X9640000Y3590000D03*
X9690830Y3480000D03*
X9945000Y3825000D03*
X9962000Y4048200D03*
X9963000Y4296000D03*
X9953000Y4425000D03*
X9954000Y4725000D03*
X9835000Y4942000D03*
X9685000Y4825000D03*
X9815000Y8638000D03*
Y9019000D03*
X9809000Y9400000D03*
X10121000Y2213000D03*
X10305000Y2469000D03*
X10231250Y2347000D03*
X10305000Y2598000D03*
X10150000Y3310830D03*
Y3237170D03*
X10100080Y3391800D03*
X10111310Y3607860D03*
X10091140Y3505500D03*
X10111310Y3681520D03*
X10182000Y3450000D03*
X10463770Y7801540D03*
X10186000Y8638000D03*
X10212000Y9019000D03*
X10199000Y9400000D03*
X10570000Y282000D03*
Y834000D03*
X10833500Y4243500D03*
X10789000Y4812000D03*
X10740000Y4913000D03*
X10750000Y5390000D03*
X10790860Y5328710D03*
X10726550Y6133450D03*
X10674460Y6185540D03*
X10845250Y6371500D03*
X10836000Y6606000D03*
X10835000Y7095000D03*
X10515860Y7749450D03*
X10530000Y7992670D03*
Y8066330D03*
X10903000Y4727000D03*
X11252000Y5432000D03*
X10925000Y5434000D03*
X10940460Y5330460D03*
X11132910Y5307080D03*
X11267310Y5330200D03*
X10930000Y5250000D03*
X11185000Y5254990D03*
X11311290Y5270000D03*
X11023000Y5740000D03*
X11075000Y6090000D03*
X10922640Y6053180D03*
X10913010Y6342600D03*
X11021000Y8681000D03*
X11070000Y9019000D03*
X11079000Y9400000D03*
X11646000Y276000D03*
X11454000Y475000D03*
X11616000Y832000D03*
X11565000Y560000D03*
X11390000Y4482000D03*
Y4968680D03*
X11474000Y5328000D03*
X11384000Y5324000D03*
X11554200Y5736000D03*
X11375000Y6073000D03*
X11439000Y8638000D03*
X11426000Y9019000D03*
X11435000Y9400000D03*
X11800000Y309000D03*
Y735000D03*
X11777000Y5754000D03*
X11853670Y6590000D03*
X11927330D03*
X12096820Y7140450D03*
X12030000Y7490000D03*
X11970000Y7550000D03*
X11750000Y8248000D03*
X12060000Y8870000D03*
X11890000Y8740000D03*
X11904830Y8657890D03*
X11920000Y9250000D03*
X11973840Y9301320D03*
X12540000Y3175000D03*
X12480000Y3317170D03*
Y3390830D03*
X12482830Y3665090D03*
X12410000Y3542830D03*
X12409170Y3665090D03*
X12410000Y3469170D03*
X12410680Y4069320D03*
X12495000Y4125000D03*
X12375000Y4325000D03*
X12453210Y4372400D03*
X12325000Y4535000D03*
X12430000Y4660000D03*
X12390000Y4580000D03*
X12307000Y4413000D03*
X12280000Y4290000D03*
X12240000Y6852320D03*
X12382000Y7443000D03*
X12399500Y7240500D03*
X12387000Y7338000D03*
X12240000Y7714000D03*
Y8605000D03*
X12381820Y9150500D03*
X12385000Y8970700D03*
X12387000Y9056000D03*
X12240000Y9455000D03*
X12900000Y4175000D03*
X12745000Y7000000D03*
X12645000Y7150000D03*
X12718000Y7602000D03*
X12912500Y7600500D03*
X12645000Y7338000D03*
X12651000Y7446000D03*
X12630000Y8880000D03*
X12694000Y8743000D03*
X12737000Y9300000D03*
X12636000Y9050000D03*
X12628000Y9150000D03*
X12920500Y9350500D03*
X13352830Y3690000D03*
X13279170D03*
X13180000Y4175000D03*
X13160000Y4425680D03*
X13390000Y4370000D03*
X13420000Y4530000D03*
X13270000Y4585680D03*
X13324000Y4986000D03*
X13088000Y5264000D03*
X13077000Y5468000D03*
X13083000Y5361000D03*
X13163000Y5093000D03*
X13235500Y6960500D03*
X13222500Y7680500D03*
X13198500Y8710500D03*
X13260000Y9030000D03*
X13208500Y9430500D03*
X13677000Y4088000D03*
X13583000Y4239000D03*
X13496000Y4296000D03*
X13505000Y5093000D03*
X13580000Y7040000D03*
X13460000Y9110000D03*
X14230000Y6780000D03*
X14210000Y7330000D03*
X13980000Y8120000D03*
X14220000Y8500000D03*
X13890000Y8690000D03*
X14140000Y9270000D03*
X13950000Y9180000D03*
X14430000Y6960000D03*
X14340000Y7520000D03*
G54D23*
X12240000Y8012500D03*
Y9762500D03*
X13240000Y8012500D03*
Y9762500D03*
X13740000Y6587500D03*
Y7155500D03*
Y7695500D03*
Y8337500D03*
Y8905500D03*
Y9445500D03*
X14240000Y8012500D03*
Y9762500D03*
X14740000Y6587500D03*
Y8337500D03*
X15240000Y8012500D03*
Y9762500D03*
X15740000Y6587500D03*
Y7445500D03*
Y8337500D03*
Y9195500D03*
G54D14*
X2400000Y9600000D03*
X2908000D03*
X2654000D03*
X4000000D03*
X4508000D03*
X4254000D03*
X5696000Y7721000D03*
X6204000D03*
X5950000D03*
X8242000Y6150000D03*
X8292000Y8050000D03*
X8496000Y6150000D03*
X8750000D03*
X8546000Y8050000D03*
X8800000D03*
X9300000Y6700000D03*
Y7208000D03*
Y6954000D03*
X11280000Y6704000D03*
Y6450000D03*
Y6958000D03*
X11438000Y7616000D03*
Y7362000D03*
Y7870000D03*
X13470000Y560000D03*
Y760000D03*
X13670000Y560000D03*
Y760000D03*
X13870000Y560000D03*
Y760000D03*
X14070000Y560000D03*
Y760000D03*
X14270000Y560000D03*
Y760000D03*
X14470000Y560000D03*
Y760000D03*
X14670000Y560000D03*
Y760000D03*
X15100000Y1336000D03*
Y1590000D03*
Y1844000D03*
Y2098000D03*
Y2352000D03*
Y2606000D03*
Y2860000D03*
Y3114000D03*
Y3368000D03*
Y3622000D03*
Y3876000D03*
Y4130000D03*
Y4384000D03*
Y4638000D03*
Y4892000D03*
Y5146000D03*
Y5400000D03*
X15354000Y1336000D03*
Y1590000D03*
Y1844000D03*
Y2098000D03*
Y2352000D03*
Y2606000D03*
Y2860000D03*
Y3114000D03*
Y3368000D03*
Y3622000D03*
Y3876000D03*
Y4130000D03*
Y4384000D03*
Y4638000D03*
Y4892000D03*
Y5146000D03*
Y5400000D03*
G54D24*
X12740000Y6587500D03*
Y8337500D03*
G54D15*
X6026000Y8511000D03*
X6534000D03*
X10000000Y8363000D03*
X10100000Y9646000D03*
X11250000Y8363000D03*
X11350000Y9646000D03*
G54D25*
G01X7464890Y2570000D02*
X7330000D01*
X7250000Y2650000D01*
Y2730000D01*
X7050000Y2930000D01*
G01X7438750Y2500000D02*
X7138500D01*
X7005500Y2633000D01*
Y2805500D01*
X7050000Y2850000D01*
G01X7185000Y3660000D02*
X7140000D01*
X7050000Y3570000D01*
Y3490000D01*
X7130000Y3410000D01*
Y3010000D01*
G01X7440260Y2630000D02*
X7367060D01*
X7300000Y2697060D01*
Y2760000D01*
X7130000Y2930000D01*
G01X7490000Y2910000D02*
X7310000D01*
X7210000Y3010000D01*
G01Y2930000D02*
X7270000Y2870000D01*
X7490000D01*
G01X7405750Y3028000D02*
X7334500Y3099250D01*
Y3108440D01*
X7308440Y3134500D01*
X7254500D01*
X7210000Y3090000D01*
G01X7588000Y3449000D02*
X7485000D01*
X7321500Y3285500D01*
X7254500D01*
X7210000Y3330000D01*
G01X7530000Y3130000D02*
X7430000D01*
X7352000Y3208000D01*
X7252000D01*
X7210000Y3250000D01*
G01X7417000Y2963000D02*
X7290000Y3090000D01*
G01X7588000Y3515000D02*
X7484190D01*
X7330450Y3361260D01*
X7321260D01*
X7290000Y3330000D01*
G01X7530000Y3092000D02*
X7414250D01*
X7336250Y3170000D01*
X7210000D01*
G01X7360000Y3566000D02*
X7206000D01*
X7130000Y3490000D01*
G01X7253000Y3610000D02*
X7170000D01*
X7130000Y3570000D01*
G01X7508000Y3588000D02*
X7416000Y3496000D01*
X7376000D01*
X7290000Y3410000D01*
G01X7485370Y3610630D02*
X7476880D01*
X7400250Y3534000D01*
X7334000D01*
X7210000Y3410000D01*
G54D16*
X6440000Y2870000D03*
X6468250Y2710900D03*
X6359780Y2870000D03*
X6530000Y2700000D03*
X6640000Y2940000D03*
X6650000Y2690000D03*
X6460000Y3350000D03*
X6395360Y3205360D03*
X6450000Y3010000D03*
X6460000Y3260000D03*
X6390000Y3140000D03*
X6350000Y3000000D03*
X6540000Y3235000D03*
X6490000Y3730000D03*
X6460000Y3570000D03*
X6430000Y3510000D03*
X6440000Y3690000D03*
X6380000Y3570000D03*
X6390000Y3440000D03*
X6567300Y3527200D03*
X6650000Y3810000D03*
X7050000Y2930000D03*
Y2850000D03*
Y2770000D03*
X6810000Y2930000D03*
X6890000D03*
X6730000D03*
X6810000Y2770000D03*
X6890000D03*
X6730000Y2690000D03*
X6890000Y2850000D03*
X6970000Y2930000D03*
X6810000Y3170000D03*
X7050000Y3330000D03*
Y3010000D03*
Y3170000D03*
Y3250000D03*
Y3090000D03*
X6970000Y3330000D03*
X6890000D03*
X6810000D03*
X6890000Y3250000D03*
X6810000D03*
X6970000Y3090000D03*
X6890000Y3170000D03*
X6970000D03*
Y3250000D03*
Y3010000D03*
X6890000Y3090000D03*
X6810000D03*
Y3010000D03*
X6890000D03*
X7050000Y3410000D03*
X6970000Y3730000D03*
X6890000D03*
X6970000Y3570000D03*
X6890000Y3650000D03*
X6810000D03*
Y3570000D03*
Y3410000D03*
X6970000D03*
X6730000D03*
X6970000Y3650000D03*
X6890000Y3410000D03*
Y3570000D03*
Y3490000D03*
X6810000D03*
X7050000Y3840000D03*
X6730000Y3810000D03*
X6810000D03*
X6890000D03*
X6970000D03*
X7450000Y2770000D03*
Y2690000D03*
X7370000Y2770000D03*
Y2690000D03*
X7130000Y2770000D03*
Y2690000D03*
Y2930000D03*
X7210000D03*
X7488560Y3174500D03*
X7450000Y3250000D03*
X7370000D03*
X7130000Y3010000D03*
X7210000D03*
Y3090000D03*
Y3330000D03*
Y3250000D03*
X7290000Y3090000D03*
Y3330000D03*
X7210000Y3170000D03*
X7450000Y3730000D03*
X7130000D03*
Y3490000D03*
Y3570000D03*
X7290000Y3410000D03*
X7210000D03*
X7370000Y3810000D03*
X7130000D03*
X8700000Y7150000D03*
X8600000D03*
X8500000D03*
X8400000D03*
X8500000Y7050000D03*
X8600000D03*
X8700000D03*
Y6950000D03*
X8600000D03*
X8500000D03*
X8400000D03*
Y6850000D03*
X8500000D03*
X8600000D03*
X8700000D03*
G54D26*
G01X3235850Y170480D02*
X3244740Y152700D01*
X3256600Y142540D01*
X3269930Y140000D01*
X3281790Y142540D01*
X3293640Y155240D01*
X3301050Y170480D01*
X3302530Y185720D01*
X3299570Y203500D01*
X3289190Y216200D01*
X3278820Y221280D01*
X3265490D01*
G01X3278820D02*
X3287710Y228900D01*
X3295120Y241600D01*
X3298080Y256840D01*
X3295120Y272080D01*
X3287710Y284780D01*
X3274380Y292400D01*
X3261040Y289860D01*
X3247710Y279700D01*
G01X3776450Y134920D02*
X3773490Y137460D01*
Y142540D01*
X3776450Y145080D01*
X3779410Y142540D01*
Y137460D01*
X3776450Y134920D01*
G54D17*
X7527000Y1801000D03*
X7550000Y4080000D03*
X7750000D03*
X7935000Y3994000D03*
X8144000Y3992000D03*
X8407000Y3989000D03*
X8017000Y4209000D03*
X8273000Y4183000D03*
X8740000Y430000D03*
X9113000Y4599000D03*
X9530000Y430000D03*
X10273000Y4175000D03*
X10278000Y3945000D03*
X10273000Y4389000D03*
X13750000Y4540000D03*
X13915000Y4680000D03*
G54D27*
G01X611000Y8570200D02*
Y8688000D01*
G01D02*
Y8805800D01*
G01X493200Y8688000D02*
X611000D01*
G01D02*
X728800D01*
G01X522620Y8599620D02*
X611000Y8688000D01*
G01D02*
X699380Y8776380D01*
G01X522620D02*
X611000Y8688000D01*
G01D02*
X699380Y8599620D01*
G01X865000Y8570200D02*
Y8688000D01*
G01D02*
Y8805800D01*
G01X747200Y8688000D02*
X865000D01*
G01D02*
X982800D01*
G01X776620Y8599620D02*
X865000Y8688000D01*
G01D02*
X953380Y8776380D01*
G01X776620D02*
X865000Y8688000D01*
G01D02*
X953380Y8599620D01*
G01X1119000Y8570200D02*
Y8688000D01*
G01D02*
Y8805800D01*
G01X1001200Y8688000D02*
X1119000D01*
G01D02*
X1236800D01*
G01X1030620Y8599620D02*
X1119000Y8688000D01*
G01D02*
X1207380Y8776380D01*
G01X1030620D02*
X1119000Y8688000D01*
G01D02*
X1207380Y8599620D01*
G54D18*
X7475000Y8862000D03*
X8925000D03*
G54D28*
G01X10150000Y3310830D02*
X10104570D01*
X10065740Y3272000D01*
X9856740D01*
X9794740Y3210000D01*
X9712910D01*
X9707730Y3204820D01*
X9612270D01*
X9597090Y3220000D01*
X9407250D01*
X9393780Y3206530D01*
X9298320D01*
X9284850Y3220000D01*
X9180000D01*
X9132000Y3268000D01*
X8952870D01*
X8898050Y3213180D01*
X8643180D01*
X8425000Y2995000D01*
X7510850D01*
X7494850Y3011000D01*
Y3016400D01*
X7480000Y3028000D01*
G01D02*
X7405750D01*
G01X7487950Y2963000D02*
X7417000D01*
G01X7496250Y3630000D02*
Y3621510D01*
X7485370Y3610630D01*
G01X10050000Y3142830D02*
X10004570D01*
X9993740Y3132000D01*
X9675650D01*
X9667650Y3140000D01*
X8830000D01*
X8552000Y2862000D01*
X7543260D01*
X7499260Y2906000D01*
X7494000D01*
X7490000Y2910000D01*
G01X10050000Y3069170D02*
X10004570D01*
X9973740Y3100000D01*
X9662390D01*
X9654390Y3108000D01*
X8843260D01*
X8565260Y2830000D01*
X7530000D01*
X7490000Y2870000D01*
G01X10091140Y3505500D02*
X10091100Y3505460D01*
X10070150D01*
X10069690Y3505000D01*
X9849000D01*
X9772820Y3428820D01*
X9631520D01*
X9466400Y3404890D01*
X9311580D01*
X9302690Y3396000D01*
X8895130D01*
X8864820Y3426310D01*
X8795880D01*
X8657230Y3287660D01*
X8245270Y3227980D01*
X7771030Y3159270D01*
X7730420Y3118660D01*
X7679580D01*
X7664100Y3134140D01*
X7597600D01*
X7577240Y3131190D01*
X7534940Y3125060D01*
X7530000Y3130000D01*
G01X10150000Y3237170D02*
X10104570D01*
X10101740Y3240000D01*
X9870000D01*
X9808000Y3178000D01*
X9726180D01*
X9721000Y3172820D01*
X9599010D01*
X9583830Y3188000D01*
X9420510D01*
X9407040Y3174530D01*
X9285060D01*
X9271590Y3188000D01*
X9166740D01*
X9118740Y3236000D01*
X8966130D01*
X8911310Y3181180D01*
X8656440D01*
X8438260Y2963000D01*
X7487950D01*
G01X10182000Y3450000D02*
X10174980Y3442980D01*
X10093430D01*
X10082090Y3454320D01*
X10069930D01*
X10051250Y3473000D01*
X9862260D01*
X9786080Y3396820D01*
X9633830D01*
X9468710Y3372890D01*
X9324840D01*
X9300470Y3348520D01*
X9292110D01*
X9276630Y3364000D01*
X8881870D01*
X8851560Y3394310D01*
X8809140D01*
X8672340Y3257510D01*
X8249860Y3196310D01*
X7786140Y3129120D01*
X7743680Y3086660D01*
X7666320D01*
X7650840Y3102140D01*
X7599910D01*
X7581830Y3099520D01*
X7530000Y3092000D01*
G01X9617170Y3480000D02*
Y3483180D01*
X9601170Y3499180D01*
X9592420D01*
X9553600Y3538000D01*
X7656260D01*
X7610630Y3492370D01*
Y3471630D01*
X7588000Y3449000D01*
G01X10111310Y3607860D02*
X10099990D01*
X10088680Y3619170D01*
Y3631760D01*
X10060130Y3660310D01*
X9899680D01*
X9751990Y3808000D01*
X7735290D01*
X7532040Y3604750D01*
X7524750D01*
X7508000Y3588000D01*
G01X7588000Y3515000D02*
X7643000Y3570000D01*
X9566860D01*
X9605680Y3531180D01*
X9638380D01*
X9689560Y3480000D01*
X9690830D01*
G01X10111310Y3681520D02*
X10108130D01*
X10093430Y3696220D01*
X10090830D01*
X10086920Y3692310D01*
X9912940D01*
X9765250Y3840000D01*
X7722030D01*
X7518780Y3636750D01*
X7503000D01*
X7496250Y3630000D01*
G01X8496000Y6150000D02*
X8402000Y6056000D01*
Y6033370D01*
X8418640Y6016730D01*
X8890290D01*
X8928930Y5978090D01*
Y5978070D01*
X9575000Y5332000D01*
X9877340D01*
X10504000Y4705340D01*
Y2287660D01*
X10137340Y1921000D01*
X8700000D01*
X8286000Y2335000D01*
Y2396300D01*
G01X8242000Y6150000D02*
X8336000Y6056000D01*
Y6006030D01*
X8391300Y5950730D01*
X8862930D01*
X9547660Y5266000D01*
X9850000D01*
X10438000Y4678000D01*
Y2315000D01*
X10110000Y1987000D01*
X8727340D01*
X8436000Y2278340D01*
Y2314000D01*
G01X9287000Y2930830D02*
X9250810Y2894640D01*
X9047090D01*
X8941230Y3000500D01*
X8941220D01*
X8937610Y2996890D01*
X8911950D01*
X8899120Y3009720D01*
Y3056820D01*
G01X9274000Y3010000D02*
X9237810Y2973810D01*
Y2954030D01*
X9225780Y2942000D01*
X9044990D01*
X8973230Y3013760D01*
Y3056820D01*
G01X10026730Y3363620D02*
Y3374570D01*
X10018500Y3382800D01*
X10017940D01*
X10012800Y3387930D01*
X10006710Y3381840D01*
X9970840D01*
X9965180Y3376180D01*
X9942790D01*
X9906610Y3340000D01*
X9903240D01*
X9891240Y3328000D01*
X9773260D01*
X9743180Y3297920D01*
Y3285530D01*
X9694470Y3236820D01*
X9625530D01*
X9580540Y3281810D01*
X9423800D01*
X9380520Y3238530D01*
X9311580D01*
X9250110Y3300000D01*
X8910000D01*
X8890000Y3280000D01*
X8846220D01*
X8835690Y3269470D01*
X8830350D01*
G01X10100080Y3391800D02*
X10095840Y3396040D01*
X10081350D01*
X10066570Y3410820D01*
X10051920D01*
X10047940Y3414800D01*
X10031200D01*
X10022820Y3423180D01*
X10002790D01*
X9993450Y3413840D01*
X9957580D01*
X9951920Y3408180D01*
X9929530D01*
X9893350Y3372000D01*
X9889980D01*
X9877980Y3360000D01*
X9760000D01*
X9711180Y3311180D01*
Y3298790D01*
X9681210Y3268820D01*
X9638790D01*
X9593800Y3313810D01*
X9410540D01*
X9367260Y3270530D01*
X9324840D01*
X9263370Y3332000D01*
X8896740D01*
X8876740Y3312000D01*
X8866820D01*
X8835690Y3343130D01*
X8830350D01*
G01X9325000Y3623820D02*
Y3675000D01*
X9310000Y3690000D01*
Y3740000D01*
G01X12480000Y3317170D02*
X12525430D01*
X12546260Y3338000D01*
X13116740D01*
X14756740Y1698000D01*
X15148890D01*
X15243000Y1792110D01*
Y1828000D01*
X15259000Y1844000D01*
X15354000D01*
G01X12482830Y3665090D02*
X12478000D01*
X12462000Y3681090D01*
Y3703720D01*
X12478000Y3719720D01*
X12484640D01*
X12488090Y3716270D01*
X12581530D01*
X12665260Y3800000D01*
X14780010D01*
X14832910Y3747100D01*
X15153410D01*
X15206310Y3800000D01*
X15208260D01*
X15284260Y3876000D01*
X15354000D01*
G01X12410000Y3542830D02*
X12455430D01*
X12476260Y3522000D01*
X13333260D01*
X13853260Y3002000D01*
X15152890D01*
X15243000Y2911890D01*
Y2876000D01*
X15259000Y2860000D01*
X15354000D01*
G01X12409170Y3665090D02*
X12414000D01*
X12430000Y3681090D01*
Y3716980D01*
X12464740Y3751720D01*
X12497900D01*
X12501350Y3748270D01*
X12568270D01*
X12652000Y3832000D01*
X14793270D01*
X14846170Y3779100D01*
X15140150D01*
X15193050Y3832000D01*
X15195000D01*
X15211000Y3848000D01*
Y3860000D01*
X15195000Y3876000D01*
X15100000D01*
G01X12480000Y3390830D02*
X12525430D01*
X12546260Y3370000D01*
X13130000D01*
X14770000Y1730000D01*
X15135630D01*
X15211000Y1805370D01*
Y1828000D01*
X15195000Y1844000D01*
X15100000D01*
G01X12410000Y3469170D02*
X12455430D01*
X12476260Y3490000D01*
X13320000D01*
X13840000Y2970000D01*
X15139630D01*
X15211000Y2898630D01*
Y2876000D01*
X15195000Y2860000D01*
X15100000D01*
G01X13352830Y3690000D02*
Y3659830D01*
X13406770Y3605890D01*
X13429370D01*
X13523260Y3512000D01*
X15473260D01*
X15552000Y3433260D01*
Y1566740D01*
X15433260Y1448000D01*
X15316370D01*
X15243000Y1374630D01*
Y1352000D01*
X15259000Y1336000D01*
X15354000D01*
G01X13279170Y3690000D02*
Y3688230D01*
X13393510Y3573890D01*
X13416110D01*
X13510000Y3480000D01*
X15460000D01*
X15520000Y3420000D01*
Y1580000D01*
X15420000Y1480000D01*
X15303110D01*
X15211000Y1387890D01*
Y1352000D01*
X15195000Y1336000D01*
X15100000D01*
G54D19*
X7475000Y9459000D03*
X8925000D03*
G54D29*
G01X611000Y1576000D02*
X490000Y1455000D01*
Y1226000D01*
X534500Y1181500D01*
X1407500D01*
X1419000Y1170000D01*
X2120000D01*
G01Y1230000D02*
X1419000D01*
X1209000Y1440000D01*
X729000D01*
X611000Y1322000D01*
G01X1119000Y2084000D02*
X995000Y2208000D01*
Y2374530D01*
X1080470Y2460000D01*
X1214000D01*
X1524000Y2770000D01*
X2220000D01*
G01X1119000Y2338000D02*
X1234480D01*
X1267040Y2370560D01*
Y2406970D01*
X1555070Y2695000D01*
X2220000D01*
G01X2130000Y4280000D02*
X2072430D01*
X1259930Y3467500D01*
X1071970D01*
X1005500Y3401030D01*
Y3306970D01*
X1071970Y3240500D01*
Y3213500D01*
X984000Y3125530D01*
Y2981000D01*
X1119000Y2846000D01*
G01Y3100000D02*
X1232500Y3213500D01*
Y3383500D01*
X2054000Y4205000D01*
X2130000D01*
G01X1119000Y3608000D02*
X1003520D01*
X989000Y3622520D01*
Y3955500D01*
X1024500Y3991000D01*
X1217010D01*
X1799000Y4572990D01*
Y5145010D01*
X1964700Y5310710D01*
X2217710D01*
G01X2256840Y5222590D02*
X2005470D01*
X1896000Y5113120D01*
Y4516000D01*
X1331000Y3951000D01*
X1208000D01*
X1119000Y3862000D01*
G01X4180000Y1970000D02*
X4110000Y1900000D01*
Y1630000D01*
X4070000Y1590000D01*
Y1430000D01*
X3870000Y1230000D01*
X2120000D01*
G01Y1170000D02*
X3890000D01*
X4180000Y1460000D01*
Y1530000D01*
G01X2220000Y2770000D02*
X2220020D01*
X2235020Y2785000D01*
X2315000D01*
X2380000Y2850000D01*
Y2970000D01*
G01X2220000Y2695000D02*
X2315000D01*
X2380000Y2630000D01*
Y2530000D01*
G01X2130000Y4205000D02*
X2133020Y4208020D01*
X2164110D01*
X2186090Y4230000D01*
X3840000D01*
X4090000Y3980000D01*
Y3600000D01*
X4160000Y3530000D01*
X4180000D01*
G01X2130000Y4280000D02*
X2133020Y4283020D01*
X2133040D01*
X2155020Y4305000D01*
X3871070D01*
X4165000Y4011070D01*
Y3985000D01*
X4180000Y3970000D01*
G01X2217710Y5310710D02*
X3905130D01*
X4180000Y5035840D01*
Y4970000D01*
G01X3857410Y5222590D02*
X4093460Y4986540D01*
Y4616540D01*
X4180000Y4530000D01*
G01X6359780Y2870000D02*
X6280720D01*
X5600720Y2190000D01*
X4170720D01*
X4030000Y2049280D01*
Y1783920D01*
X3956080Y1710000D01*
X3540000D01*
X3440000Y1610000D01*
G01X6440000Y2870000D02*
X6389500Y2920500D01*
X6338860D01*
X6338360Y2920000D01*
X6260000D01*
X5580000Y2240000D01*
X4150000D01*
X3980000Y2070000D01*
Y1804640D01*
X3945360Y1770000D01*
X3540000D01*
X3440000Y1870000D01*
G01X6395360Y3205360D02*
X6380000Y3190000D01*
X4080000D01*
X3980000Y3090000D01*
Y2804640D01*
X3935360Y2760000D01*
X3890000D01*
X3880000Y2770000D01*
X3540000D01*
X3440000Y2870000D01*
G01X6390000Y3140000D02*
X4100720D01*
X4030000Y3069280D01*
Y2783920D01*
X3956080Y2710000D01*
X3540000D01*
X3440000Y2610000D01*
G01Y3870000D02*
X3540000Y3770000D01*
X3910750D01*
X3983940Y3696810D01*
Y3696800D01*
X3990370Y3690370D01*
Y3459680D01*
X4121420Y3328630D01*
X4155350D01*
X4161980Y3322000D01*
X6432000D01*
X6460000Y3350000D01*
G01Y3260000D02*
X6409500D01*
X6389500Y3280000D01*
X4156720D01*
X4155350Y3278630D01*
X4112020D01*
X3940370Y3450280D01*
Y3669660D01*
X3890030Y3720000D01*
X3550000D01*
X3440000Y3610000D01*
G01X6380000Y3570000D02*
X6189280D01*
X5870000Y3889280D01*
Y4030000D01*
X5690000Y4210000D01*
X4160000D01*
X4000000Y4370000D01*
Y4590000D01*
X3880000Y4710000D01*
X3540000D01*
X3440000Y4610000D01*
G01X6460000Y3570000D02*
X6397680Y3632320D01*
X6362320D01*
X6350000Y3620000D01*
X6210000D01*
X5920000Y3910000D01*
Y4050720D01*
X5710720Y4260000D01*
X4169400D01*
X4050000Y4379400D01*
Y4610720D01*
X3900720Y4760000D01*
X3890000D01*
X3880000Y4770000D01*
X3540000D01*
X3440000Y4870000D01*
G01X6530000Y2700000D02*
X6480000Y2650000D01*
X6330720D01*
X6100000Y2419280D01*
Y2053920D01*
X5766080Y1720000D01*
X5350000D01*
X5240000Y1610000D01*
G01X6468250Y2710900D02*
X6417750D01*
X6416850Y2710000D01*
X6320000D01*
X6050000Y2440000D01*
Y2074640D01*
X5745360Y1770000D01*
X5340000D01*
X5240000Y1870000D01*
G01X6450000Y3010000D02*
Y3035500D01*
X6425000Y3060500D01*
X6030500D01*
X5740000Y2770000D01*
X5340000D01*
X5240000Y2870000D01*
G01X6350000Y3000000D02*
X6339500Y3010500D01*
X6051220D01*
X5760720Y2720000D01*
X5690000D01*
X5680000Y2710000D01*
X5340000D01*
X5240000Y2610000D01*
G01X6430000Y3510000D02*
X6410500Y3490500D01*
X6369080D01*
X6368580Y3490000D01*
X6030720D01*
X5755720Y3765000D01*
X5685000D01*
X5680000Y3770000D01*
X5340000D01*
X5240000Y3870000D01*
G01X6390000Y3440000D02*
X6010000D01*
X5735000Y3715000D01*
X5685000D01*
X5680000Y3710000D01*
X5340000D01*
X5240000Y3610000D01*
G01X6440000Y3690000D02*
X6040000Y4090000D01*
Y4490000D01*
X5820000Y4710000D01*
X5340000D01*
X5240000Y4610000D01*
G01X6490000Y3730000D02*
X6090000Y4130000D01*
Y4510000D01*
X5830000Y4770000D01*
X5340000D01*
X5240000Y4870000D01*
G01X7438750Y2500000D02*
X8240000D01*
X8299000Y2559000D01*
G01X7464890Y2570000D02*
X8114000D01*
X8223000Y2679000D01*
G01X8031000Y2705000D02*
X7956000Y2630000D01*
X7477500D01*
X7476490Y2631010D01*
X7442530D01*
X7441520Y2630000D01*
X7440260D01*
G01X8017000Y4209000D02*
X7941700Y4284300D01*
X7544300D01*
X7210000Y3950000D01*
Y3685000D01*
X7185000Y3660000D01*
G01X7550000Y4080000D02*
Y3909980D01*
X7551490Y3908490D01*
G01X9326000Y4067000D02*
X9304070D01*
X9247240Y4123830D01*
X9201100D01*
X9184090Y4106830D01*
X8976830D01*
X8976680Y4106680D01*
X8941320D01*
X8251000Y4797000D01*
Y5086000D01*
X7362480Y5974520D01*
Y7344490D01*
X7587990Y7570000D01*
X8540000D01*
X8584760Y7525240D01*
G01X9224170Y4068150D02*
X9207170Y4051150D01*
X8938860D01*
X8210000Y4780010D01*
Y5069010D01*
X7321480Y5957530D01*
Y7361480D01*
X7573500Y7613500D01*
X8540000D01*
X8546500Y7620000D01*
X8630000D01*
G01X11311290Y5270000D02*
X11321540Y5259750D01*
Y5101540D01*
X11220000Y5000000D01*
X10470000D01*
X10070000Y5400000D01*
Y5900000D01*
X10280000Y6110000D01*
Y6700000D01*
X10160000Y6820000D01*
Y7474670D01*
X10425340Y7740010D01*
Y7763110D01*
X10463770Y7801540D01*
G01X11267310Y5330200D02*
X11259200Y5322090D01*
Y5296660D01*
X11255610Y5293070D01*
Y5246930D01*
X11280540Y5222000D01*
Y5118530D01*
X11203010Y5041000D01*
X10486990D01*
X10111000Y5416990D01*
Y5883010D01*
X10321000Y6093010D01*
Y6716990D01*
X10201000Y6836990D01*
Y7457670D01*
X10454340Y7711010D01*
X10477420D01*
X10515860Y7749450D01*
G01X10530000Y7992670D02*
X10584350D01*
X10600680Y8009000D01*
X10644050D01*
X10669050Y7984000D01*
Y7306000D01*
X10583050Y7220000D01*
X10547690D01*
X10389000Y7061310D01*
Y6113010D01*
X10489000Y6013010D01*
Y5516990D01*
X10419000Y5446990D01*
Y5253010D01*
X10573010Y5099000D01*
X11056990D01*
X11170320Y5212330D01*
Y5240310D01*
X11185000Y5254990D01*
G01X10530000Y8066330D02*
X10584350D01*
X10600680Y8050000D01*
X10661040D01*
X10710050Y8000990D01*
Y7289010D01*
X10600040Y7179000D01*
X10564680D01*
X10430000Y7044320D01*
Y6130000D01*
X10530000Y6030000D01*
Y5500000D01*
X10460000Y5430000D01*
Y5270000D01*
X10590000Y5140000D01*
X11040000D01*
X11129320Y5229320D01*
Y5278060D01*
X11132910Y5281650D01*
Y5307080D01*
G01X11890000Y8740000D02*
X11870000Y8720000D01*
Y8701810D01*
X11849150Y8680960D01*
Y8634820D01*
X11870000Y8613970D01*
Y8280000D01*
X11770000Y8180000D01*
X11403000D01*
X11110000Y7887000D01*
Y7050000D01*
X10690000Y6630000D01*
Y6390000D01*
X10771140Y6308860D01*
Y6167610D01*
X10782230Y6156520D01*
Y6110380D01*
X10750000Y6078150D01*
Y5752200D01*
X10755210Y5746990D01*
Y5692430D01*
X10750000Y5687220D01*
Y5390000D01*
G01X11904830Y8657890D02*
X11904820Y8657880D01*
Y8637140D01*
X11911000Y8630960D01*
Y8263010D01*
X11786990Y8139000D01*
X11419990D01*
X11151000Y7870010D01*
Y7033010D01*
X10731000Y6613010D01*
Y6406990D01*
X10812140Y6325850D01*
Y6184600D01*
X10823230Y6173510D01*
Y6093390D01*
X10791000Y6061160D01*
Y5769190D01*
X10796210Y5763980D01*
Y5433800D01*
X10830240Y5399770D01*
Y5368090D01*
X10790860Y5328710D01*
G01X10726550Y6133450D02*
X10715460Y6144540D01*
Y6147790D01*
X10730140Y6162470D01*
Y6208610D01*
X10697530Y6241220D01*
X10676770D01*
X10561000Y6356990D01*
Y6673000D01*
X11010000Y7122000D01*
Y8378000D01*
X11560000Y8928000D01*
Y9120000D01*
X11729090Y9289090D01*
X11882740D01*
X11920000Y9250000D01*
G01X10674460Y6185540D02*
X10680540Y6191620D01*
Y6200220D01*
X10659780D01*
X10520000Y6340000D01*
Y6689990D01*
X10969000Y7138990D01*
Y8394990D01*
X11519000Y8944990D01*
Y9136990D01*
X11712100Y9330090D01*
X11902090D01*
X11912990Y9340990D01*
Y9341000D01*
X11913000Y9340980D01*
X11936570Y9340430D01*
X11973840Y9301320D01*
G01X10845250Y6371500D02*
X10866150Y6392400D01*
X10884060D01*
X10889940Y6398280D01*
X10936080D01*
X10941960Y6392400D01*
X11036410D01*
X11121810Y6307000D01*
X11380000D01*
X11627000Y6554000D01*
Y7112480D01*
X11970000Y7455480D01*
Y7550000D01*
G01X11853670Y6590000D02*
X11850330Y6586660D01*
Y6580000D01*
X11867000Y6563330D01*
Y6563310D01*
X11878160Y6552150D01*
Y6437150D01*
X11610690Y6169680D01*
X11241690D01*
X11160000Y6087990D01*
Y5880000D01*
X11090000Y5810000D01*
Y5430000D01*
X10990460Y5330460D01*
X10940460D01*
G01X11927330Y6590000D02*
Y6535650D01*
X11919160Y6527480D01*
Y6420160D01*
X11627680Y6128680D01*
X11258680D01*
X11201000Y6071000D01*
Y5863010D01*
X11131000Y5793010D01*
Y5413010D01*
X10967990Y5250000D01*
X10930000D01*
G01X10913010Y6342600D02*
X10921810Y6351400D01*
X11019420D01*
X11104820Y6266000D01*
X11396990D01*
X11668000Y6537010D01*
Y7095490D01*
X12011000Y7438490D01*
Y7480500D01*
X12020500Y7490000D01*
X12030000D01*
M02*
