G04 #@! TF.FileFunction,Soldermask,Top*
%FSLAX46Y46*%
G04 Gerber Fmt 4.6, Leading zero omitted, Abs format (unit mm)*
G04 Created by KiCad (PCBNEW 4.0.2-4+6225~38~ubuntu14.04.1-stable) date Mon 16 May 2016 16:09:22 BST*
%MOMM*%
G01*
G04 APERTURE LIST*
%ADD10C,0.100000*%
%ADD11R,1.900000X3.400000*%
%ADD12R,1.400000X4.750000*%
G04 APERTURE END LIST*
D10*
D11*
X175000000Y-427750000D03*
X173730000Y-423250000D03*
X172460000Y-427750000D03*
X171190000Y-423250000D03*
D12*
X174100000Y-404325000D03*
X171900000Y-404325000D03*
D11*
X162500000Y-427750000D03*
X161230000Y-423250000D03*
X159960000Y-427750000D03*
X158690000Y-423250000D03*
D12*
X161600000Y-404325000D03*
X159400000Y-404325000D03*
D11*
X150000000Y-427750000D03*
X148730000Y-423250000D03*
X147460000Y-427750000D03*
X146190000Y-423250000D03*
D12*
X149100000Y-404325000D03*
X146900000Y-404325000D03*
D11*
X137500000Y-427750000D03*
X136230000Y-423250000D03*
X134960000Y-427750000D03*
X133690000Y-423250000D03*
D12*
X136600000Y-404325000D03*
X134400000Y-404325000D03*
D11*
X125000000Y-427750000D03*
X123730000Y-423250000D03*
X122460000Y-427750000D03*
X121190000Y-423250000D03*
D12*
X124100000Y-404325000D03*
X121900000Y-404325000D03*
D11*
X112500000Y-427750000D03*
X111230000Y-423250000D03*
X109960000Y-427750000D03*
X108690000Y-423250000D03*
D12*
X111600000Y-404325000D03*
X109400000Y-404325000D03*
D11*
X100000000Y-427750000D03*
X98730000Y-423250000D03*
X97460000Y-427750000D03*
X96190000Y-423250000D03*
D12*
X99100000Y-404325000D03*
X96900000Y-404325000D03*
D11*
X87500000Y-427750000D03*
X86230000Y-423250000D03*
X84960000Y-427750000D03*
X83690000Y-423250000D03*
D12*
X86600000Y-404325000D03*
X84400000Y-404325000D03*
D11*
X75000000Y-427750000D03*
X73730000Y-423250000D03*
X72460000Y-427750000D03*
X71190000Y-423250000D03*
D12*
X74100000Y-404325000D03*
X71900000Y-404325000D03*
D11*
X62500000Y-427750000D03*
X61230000Y-423250000D03*
X59960000Y-427750000D03*
X58690000Y-423250000D03*
D12*
X61600000Y-404325000D03*
X59400000Y-404325000D03*
D11*
X50000000Y-427750000D03*
X48730000Y-423250000D03*
X47460000Y-427750000D03*
X46190000Y-423250000D03*
D12*
X49100000Y-404325000D03*
X46900000Y-404325000D03*
D11*
X37500000Y-427750000D03*
X36230000Y-423250000D03*
X34960000Y-427750000D03*
X33690000Y-423250000D03*
D12*
X36600000Y-404325000D03*
X34400000Y-404325000D03*
D11*
X25000000Y-427750000D03*
X23730000Y-423250000D03*
X22460000Y-427750000D03*
X21190000Y-423250000D03*
D12*
X24100000Y-404325000D03*
X21900000Y-404325000D03*
D11*
X175000000Y-395750000D03*
X173730000Y-391250000D03*
X172460000Y-395750000D03*
X171190000Y-391250000D03*
D12*
X174100000Y-372325000D03*
X171900000Y-372325000D03*
D11*
X162500000Y-395750000D03*
X161230000Y-391250000D03*
X159960000Y-395750000D03*
X158690000Y-391250000D03*
D12*
X161600000Y-372325000D03*
X159400000Y-372325000D03*
D11*
X150000000Y-395750000D03*
X148730000Y-391250000D03*
X147460000Y-395750000D03*
X146190000Y-391250000D03*
D12*
X149100000Y-372325000D03*
X146900000Y-372325000D03*
D11*
X137500000Y-395750000D03*
X136230000Y-391250000D03*
X134960000Y-395750000D03*
X133690000Y-391250000D03*
D12*
X136600000Y-372325000D03*
X134400000Y-372325000D03*
D11*
X125000000Y-395750000D03*
X123730000Y-391250000D03*
X122460000Y-395750000D03*
X121190000Y-391250000D03*
D12*
X124100000Y-372325000D03*
X121900000Y-372325000D03*
D11*
X112500000Y-395750000D03*
X111230000Y-391250000D03*
X109960000Y-395750000D03*
X108690000Y-391250000D03*
D12*
X111600000Y-372325000D03*
X109400000Y-372325000D03*
D11*
X100000000Y-395750000D03*
X98730000Y-391250000D03*
X97460000Y-395750000D03*
X96190000Y-391250000D03*
D12*
X99100000Y-372325000D03*
X96900000Y-372325000D03*
D11*
X87500000Y-395750000D03*
X86230000Y-391250000D03*
X84960000Y-395750000D03*
X83690000Y-391250000D03*
D12*
X86600000Y-372325000D03*
X84400000Y-372325000D03*
D11*
X75000000Y-395750000D03*
X73730000Y-391250000D03*
X72460000Y-395750000D03*
X71190000Y-391250000D03*
D12*
X74100000Y-372325000D03*
X71900000Y-372325000D03*
D11*
X62500000Y-395750000D03*
X61230000Y-391250000D03*
X59960000Y-395750000D03*
X58690000Y-391250000D03*
D12*
X61600000Y-372325000D03*
X59400000Y-372325000D03*
D11*
X50000000Y-395750000D03*
X48730000Y-391250000D03*
X47460000Y-395750000D03*
X46190000Y-391250000D03*
D12*
X49100000Y-372325000D03*
X46900000Y-372325000D03*
D11*
X37500000Y-395750000D03*
X36230000Y-391250000D03*
X34960000Y-395750000D03*
X33690000Y-391250000D03*
D12*
X36600000Y-372325000D03*
X34400000Y-372325000D03*
D11*
X25000000Y-395750000D03*
X23730000Y-391250000D03*
X22460000Y-395750000D03*
X21190000Y-391250000D03*
D12*
X24100000Y-372325000D03*
X21900000Y-372325000D03*
D11*
X175000000Y-363750000D03*
X173730000Y-359250000D03*
X172460000Y-363750000D03*
X171190000Y-359250000D03*
D12*
X174100000Y-340325000D03*
X171900000Y-340325000D03*
D11*
X162500000Y-363750000D03*
X161230000Y-359250000D03*
X159960000Y-363750000D03*
X158690000Y-359250000D03*
D12*
X161600000Y-340325000D03*
X159400000Y-340325000D03*
D11*
X150000000Y-363750000D03*
X148730000Y-359250000D03*
X147460000Y-363750000D03*
X146190000Y-359250000D03*
D12*
X149100000Y-340325000D03*
X146900000Y-340325000D03*
D11*
X137500000Y-363750000D03*
X136230000Y-359250000D03*
X134960000Y-363750000D03*
X133690000Y-359250000D03*
D12*
X136600000Y-340325000D03*
X134400000Y-340325000D03*
D11*
X125000000Y-363750000D03*
X123730000Y-359250000D03*
X122460000Y-363750000D03*
X121190000Y-359250000D03*
D12*
X124100000Y-340325000D03*
X121900000Y-340325000D03*
D11*
X112500000Y-363750000D03*
X111230000Y-359250000D03*
X109960000Y-363750000D03*
X108690000Y-359250000D03*
D12*
X111600000Y-340325000D03*
X109400000Y-340325000D03*
D11*
X100000000Y-363750000D03*
X98730000Y-359250000D03*
X97460000Y-363750000D03*
X96190000Y-359250000D03*
D12*
X99100000Y-340325000D03*
X96900000Y-340325000D03*
D11*
X87500000Y-363750000D03*
X86230000Y-359250000D03*
X84960000Y-363750000D03*
X83690000Y-359250000D03*
D12*
X86600000Y-340325000D03*
X84400000Y-340325000D03*
D11*
X75000000Y-363750000D03*
X73730000Y-359250000D03*
X72460000Y-363750000D03*
X71190000Y-359250000D03*
D12*
X74100000Y-340325000D03*
X71900000Y-340325000D03*
D11*
X62500000Y-363750000D03*
X61230000Y-359250000D03*
X59960000Y-363750000D03*
X58690000Y-359250000D03*
D12*
X61600000Y-340325000D03*
X59400000Y-340325000D03*
D11*
X50000000Y-363750000D03*
X48730000Y-359250000D03*
X47460000Y-363750000D03*
X46190000Y-359250000D03*
D12*
X49100000Y-340325000D03*
X46900000Y-340325000D03*
D11*
X37500000Y-363750000D03*
X36230000Y-359250000D03*
X34960000Y-363750000D03*
X33690000Y-359250000D03*
D12*
X36600000Y-340325000D03*
X34400000Y-340325000D03*
D11*
X25000000Y-363750000D03*
X23730000Y-359250000D03*
X22460000Y-363750000D03*
X21190000Y-359250000D03*
D12*
X24100000Y-340325000D03*
X21900000Y-340325000D03*
D11*
X175000000Y-331750000D03*
X173730000Y-327250000D03*
X172460000Y-331750000D03*
X171190000Y-327250000D03*
D12*
X174100000Y-308325000D03*
X171900000Y-308325000D03*
D11*
X162500000Y-331750000D03*
X161230000Y-327250000D03*
X159960000Y-331750000D03*
X158690000Y-327250000D03*
D12*
X161600000Y-308325000D03*
X159400000Y-308325000D03*
D11*
X150000000Y-331750000D03*
X148730000Y-327250000D03*
X147460000Y-331750000D03*
X146190000Y-327250000D03*
D12*
X149100000Y-308325000D03*
X146900000Y-308325000D03*
D11*
X137500000Y-331750000D03*
X136230000Y-327250000D03*
X134960000Y-331750000D03*
X133690000Y-327250000D03*
D12*
X136600000Y-308325000D03*
X134400000Y-308325000D03*
D11*
X125000000Y-331750000D03*
X123730000Y-327250000D03*
X122460000Y-331750000D03*
X121190000Y-327250000D03*
D12*
X124100000Y-308325000D03*
X121900000Y-308325000D03*
D11*
X112500000Y-331750000D03*
X111230000Y-327250000D03*
X109960000Y-331750000D03*
X108690000Y-327250000D03*
D12*
X111600000Y-308325000D03*
X109400000Y-308325000D03*
D11*
X100000000Y-331750000D03*
X98730000Y-327250000D03*
X97460000Y-331750000D03*
X96190000Y-327250000D03*
D12*
X99100000Y-308325000D03*
X96900000Y-308325000D03*
D11*
X87500000Y-331750000D03*
X86230000Y-327250000D03*
X84960000Y-331750000D03*
X83690000Y-327250000D03*
D12*
X86600000Y-308325000D03*
X84400000Y-308325000D03*
D11*
X75000000Y-331750000D03*
X73730000Y-327250000D03*
X72460000Y-331750000D03*
X71190000Y-327250000D03*
D12*
X74100000Y-308325000D03*
X71900000Y-308325000D03*
D11*
X62500000Y-331750000D03*
X61230000Y-327250000D03*
X59960000Y-331750000D03*
X58690000Y-327250000D03*
D12*
X61600000Y-308325000D03*
X59400000Y-308325000D03*
D11*
X50000000Y-331750000D03*
X48730000Y-327250000D03*
X47460000Y-331750000D03*
X46190000Y-327250000D03*
D12*
X49100000Y-308325000D03*
X46900000Y-308325000D03*
D11*
X37500000Y-331750000D03*
X36230000Y-327250000D03*
X34960000Y-331750000D03*
X33690000Y-327250000D03*
D12*
X36600000Y-308325000D03*
X34400000Y-308325000D03*
D11*
X25000000Y-331750000D03*
X23730000Y-327250000D03*
X22460000Y-331750000D03*
X21190000Y-327250000D03*
D12*
X24100000Y-308325000D03*
X21900000Y-308325000D03*
D11*
X175000000Y-299750000D03*
X173730000Y-295250000D03*
X172460000Y-299750000D03*
X171190000Y-295250000D03*
D12*
X174100000Y-276325000D03*
X171900000Y-276325000D03*
D11*
X162500000Y-299750000D03*
X161230000Y-295250000D03*
X159960000Y-299750000D03*
X158690000Y-295250000D03*
D12*
X161600000Y-276325000D03*
X159400000Y-276325000D03*
D11*
X150000000Y-299750000D03*
X148730000Y-295250000D03*
X147460000Y-299750000D03*
X146190000Y-295250000D03*
D12*
X149100000Y-276325000D03*
X146900000Y-276325000D03*
D11*
X137500000Y-299750000D03*
X136230000Y-295250000D03*
X134960000Y-299750000D03*
X133690000Y-295250000D03*
D12*
X136600000Y-276325000D03*
X134400000Y-276325000D03*
D11*
X125000000Y-299750000D03*
X123730000Y-295250000D03*
X122460000Y-299750000D03*
X121190000Y-295250000D03*
D12*
X124100000Y-276325000D03*
X121900000Y-276325000D03*
D11*
X112500000Y-299750000D03*
X111230000Y-295250000D03*
X109960000Y-299750000D03*
X108690000Y-295250000D03*
D12*
X111600000Y-276325000D03*
X109400000Y-276325000D03*
D11*
X100000000Y-299750000D03*
X98730000Y-295250000D03*
X97460000Y-299750000D03*
X96190000Y-295250000D03*
D12*
X99100000Y-276325000D03*
X96900000Y-276325000D03*
D11*
X87500000Y-299750000D03*
X86230000Y-295250000D03*
X84960000Y-299750000D03*
X83690000Y-295250000D03*
D12*
X86600000Y-276325000D03*
X84400000Y-276325000D03*
D11*
X75000000Y-299750000D03*
X73730000Y-295250000D03*
X72460000Y-299750000D03*
X71190000Y-295250000D03*
D12*
X74100000Y-276325000D03*
X71900000Y-276325000D03*
D11*
X62500000Y-299750000D03*
X61230000Y-295250000D03*
X59960000Y-299750000D03*
X58690000Y-295250000D03*
D12*
X61600000Y-276325000D03*
X59400000Y-276325000D03*
D11*
X50000000Y-299750000D03*
X48730000Y-295250000D03*
X47460000Y-299750000D03*
X46190000Y-295250000D03*
D12*
X49100000Y-276325000D03*
X46900000Y-276325000D03*
D11*
X37500000Y-299750000D03*
X36230000Y-295250000D03*
X34960000Y-299750000D03*
X33690000Y-295250000D03*
D12*
X36600000Y-276325000D03*
X34400000Y-276325000D03*
D11*
X25000000Y-299750000D03*
X23730000Y-295250000D03*
X22460000Y-299750000D03*
X21190000Y-295250000D03*
D12*
X24100000Y-276325000D03*
X21900000Y-276325000D03*
D11*
X175000000Y-267750000D03*
X173730000Y-263250000D03*
X172460000Y-267750000D03*
X171190000Y-263250000D03*
D12*
X174100000Y-244325000D03*
X171900000Y-244325000D03*
D11*
X162500000Y-267750000D03*
X161230000Y-263250000D03*
X159960000Y-267750000D03*
X158690000Y-263250000D03*
D12*
X161600000Y-244325000D03*
X159400000Y-244325000D03*
D11*
X150000000Y-267750000D03*
X148730000Y-263250000D03*
X147460000Y-267750000D03*
X146190000Y-263250000D03*
D12*
X149100000Y-244325000D03*
X146900000Y-244325000D03*
D11*
X137500000Y-267750000D03*
X136230000Y-263250000D03*
X134960000Y-267750000D03*
X133690000Y-263250000D03*
D12*
X136600000Y-244325000D03*
X134400000Y-244325000D03*
D11*
X125000000Y-267750000D03*
X123730000Y-263250000D03*
X122460000Y-267750000D03*
X121190000Y-263250000D03*
D12*
X124100000Y-244325000D03*
X121900000Y-244325000D03*
D11*
X112500000Y-267750000D03*
X111230000Y-263250000D03*
X109960000Y-267750000D03*
X108690000Y-263250000D03*
D12*
X111600000Y-244325000D03*
X109400000Y-244325000D03*
D11*
X100000000Y-267750000D03*
X98730000Y-263250000D03*
X97460000Y-267750000D03*
X96190000Y-263250000D03*
D12*
X99100000Y-244325000D03*
X96900000Y-244325000D03*
D11*
X87500000Y-267750000D03*
X86230000Y-263250000D03*
X84960000Y-267750000D03*
X83690000Y-263250000D03*
D12*
X86600000Y-244325000D03*
X84400000Y-244325000D03*
D11*
X75000000Y-267750000D03*
X73730000Y-263250000D03*
X72460000Y-267750000D03*
X71190000Y-263250000D03*
D12*
X74100000Y-244325000D03*
X71900000Y-244325000D03*
D11*
X62500000Y-267750000D03*
X61230000Y-263250000D03*
X59960000Y-267750000D03*
X58690000Y-263250000D03*
D12*
X61600000Y-244325000D03*
X59400000Y-244325000D03*
D11*
X50000000Y-267750000D03*
X48730000Y-263250000D03*
X47460000Y-267750000D03*
X46190000Y-263250000D03*
D12*
X49100000Y-244325000D03*
X46900000Y-244325000D03*
D11*
X37500000Y-267750000D03*
X36230000Y-263250000D03*
X34960000Y-267750000D03*
X33690000Y-263250000D03*
D12*
X36600000Y-244325000D03*
X34400000Y-244325000D03*
D11*
X25000000Y-267750000D03*
X23730000Y-263250000D03*
X22460000Y-267750000D03*
X21190000Y-263250000D03*
D12*
X24100000Y-244325000D03*
X21900000Y-244325000D03*
D11*
X175000000Y-235750000D03*
X173730000Y-231250000D03*
X172460000Y-235750000D03*
X171190000Y-231250000D03*
D12*
X174100000Y-212325000D03*
X171900000Y-212325000D03*
D11*
X162500000Y-235750000D03*
X161230000Y-231250000D03*
X159960000Y-235750000D03*
X158690000Y-231250000D03*
D12*
X161600000Y-212325000D03*
X159400000Y-212325000D03*
D11*
X150000000Y-235750000D03*
X148730000Y-231250000D03*
X147460000Y-235750000D03*
X146190000Y-231250000D03*
D12*
X149100000Y-212325000D03*
X146900000Y-212325000D03*
D11*
X137500000Y-235750000D03*
X136230000Y-231250000D03*
X134960000Y-235750000D03*
X133690000Y-231250000D03*
D12*
X136600000Y-212325000D03*
X134400000Y-212325000D03*
D11*
X125000000Y-235750000D03*
X123730000Y-231250000D03*
X122460000Y-235750000D03*
X121190000Y-231250000D03*
D12*
X124100000Y-212325000D03*
X121900000Y-212325000D03*
D11*
X112500000Y-235750000D03*
X111230000Y-231250000D03*
X109960000Y-235750000D03*
X108690000Y-231250000D03*
D12*
X111600000Y-212325000D03*
X109400000Y-212325000D03*
D11*
X100000000Y-235750000D03*
X98730000Y-231250000D03*
X97460000Y-235750000D03*
X96190000Y-231250000D03*
D12*
X99100000Y-212325000D03*
X96900000Y-212325000D03*
D11*
X87500000Y-235750000D03*
X86230000Y-231250000D03*
X84960000Y-235750000D03*
X83690000Y-231250000D03*
D12*
X86600000Y-212325000D03*
X84400000Y-212325000D03*
D11*
X75000000Y-235750000D03*
X73730000Y-231250000D03*
X72460000Y-235750000D03*
X71190000Y-231250000D03*
D12*
X74100000Y-212325000D03*
X71900000Y-212325000D03*
D11*
X62500000Y-235750000D03*
X61230000Y-231250000D03*
X59960000Y-235750000D03*
X58690000Y-231250000D03*
D12*
X61600000Y-212325000D03*
X59400000Y-212325000D03*
D11*
X50000000Y-235750000D03*
X48730000Y-231250000D03*
X47460000Y-235750000D03*
X46190000Y-231250000D03*
D12*
X49100000Y-212325000D03*
X46900000Y-212325000D03*
D11*
X37500000Y-235750000D03*
X36230000Y-231250000D03*
X34960000Y-235750000D03*
X33690000Y-231250000D03*
D12*
X36600000Y-212325000D03*
X34400000Y-212325000D03*
D11*
X25000000Y-235750000D03*
X23730000Y-231250000D03*
X22460000Y-235750000D03*
X21190000Y-231250000D03*
D12*
X24100000Y-212325000D03*
X21900000Y-212325000D03*
D11*
X175000000Y-203750000D03*
X173730000Y-199250000D03*
X172460000Y-203750000D03*
X171190000Y-199250000D03*
D12*
X174100000Y-180325000D03*
X171900000Y-180325000D03*
D11*
X162500000Y-203750000D03*
X161230000Y-199250000D03*
X159960000Y-203750000D03*
X158690000Y-199250000D03*
D12*
X161600000Y-180325000D03*
X159400000Y-180325000D03*
D11*
X150000000Y-203750000D03*
X148730000Y-199250000D03*
X147460000Y-203750000D03*
X146190000Y-199250000D03*
D12*
X149100000Y-180325000D03*
X146900000Y-180325000D03*
D11*
X137500000Y-203750000D03*
X136230000Y-199250000D03*
X134960000Y-203750000D03*
X133690000Y-199250000D03*
D12*
X136600000Y-180325000D03*
X134400000Y-180325000D03*
D11*
X125000000Y-203750000D03*
X123730000Y-199250000D03*
X122460000Y-203750000D03*
X121190000Y-199250000D03*
D12*
X124100000Y-180325000D03*
X121900000Y-180325000D03*
D11*
X112500000Y-203750000D03*
X111230000Y-199250000D03*
X109960000Y-203750000D03*
X108690000Y-199250000D03*
D12*
X111600000Y-180325000D03*
X109400000Y-180325000D03*
D11*
X100000000Y-203750000D03*
X98730000Y-199250000D03*
X97460000Y-203750000D03*
X96190000Y-199250000D03*
D12*
X99100000Y-180325000D03*
X96900000Y-180325000D03*
D11*
X87500000Y-203750000D03*
X86230000Y-199250000D03*
X84960000Y-203750000D03*
X83690000Y-199250000D03*
D12*
X86600000Y-180325000D03*
X84400000Y-180325000D03*
D11*
X75000000Y-203750000D03*
X73730000Y-199250000D03*
X72460000Y-203750000D03*
X71190000Y-199250000D03*
D12*
X74100000Y-180325000D03*
X71900000Y-180325000D03*
D11*
X62500000Y-203750000D03*
X61230000Y-199250000D03*
X59960000Y-203750000D03*
X58690000Y-199250000D03*
D12*
X61600000Y-180325000D03*
X59400000Y-180325000D03*
D11*
X50000000Y-203750000D03*
X48730000Y-199250000D03*
X47460000Y-203750000D03*
X46190000Y-199250000D03*
D12*
X49100000Y-180325000D03*
X46900000Y-180325000D03*
D11*
X37500000Y-203750000D03*
X36230000Y-199250000D03*
X34960000Y-203750000D03*
X33690000Y-199250000D03*
D12*
X36600000Y-180325000D03*
X34400000Y-180325000D03*
D11*
X25000000Y-203750000D03*
X23730000Y-199250000D03*
X22460000Y-203750000D03*
X21190000Y-199250000D03*
D12*
X24100000Y-180325000D03*
X21900000Y-180325000D03*
D11*
X175000000Y-171750000D03*
X173730000Y-167250000D03*
X172460000Y-171750000D03*
X171190000Y-167250000D03*
D12*
X174100000Y-148325000D03*
X171900000Y-148325000D03*
D11*
X162500000Y-171750000D03*
X161230000Y-167250000D03*
X159960000Y-171750000D03*
X158690000Y-167250000D03*
D12*
X161600000Y-148325000D03*
X159400000Y-148325000D03*
D11*
X150000000Y-171750000D03*
X148730000Y-167250000D03*
X147460000Y-171750000D03*
X146190000Y-167250000D03*
D12*
X149100000Y-148325000D03*
X146900000Y-148325000D03*
D11*
X137500000Y-171750000D03*
X136230000Y-167250000D03*
X134960000Y-171750000D03*
X133690000Y-167250000D03*
D12*
X136600000Y-148325000D03*
X134400000Y-148325000D03*
D11*
X125000000Y-171750000D03*
X123730000Y-167250000D03*
X122460000Y-171750000D03*
X121190000Y-167250000D03*
D12*
X124100000Y-148325000D03*
X121900000Y-148325000D03*
D11*
X112500000Y-171750000D03*
X111230000Y-167250000D03*
X109960000Y-171750000D03*
X108690000Y-167250000D03*
D12*
X111600000Y-148325000D03*
X109400000Y-148325000D03*
D11*
X100000000Y-171750000D03*
X98730000Y-167250000D03*
X97460000Y-171750000D03*
X96190000Y-167250000D03*
D12*
X99100000Y-148325000D03*
X96900000Y-148325000D03*
D11*
X87500000Y-171750000D03*
X86230000Y-167250000D03*
X84960000Y-171750000D03*
X83690000Y-167250000D03*
D12*
X86600000Y-148325000D03*
X84400000Y-148325000D03*
D11*
X75000000Y-171750000D03*
X73730000Y-167250000D03*
X72460000Y-171750000D03*
X71190000Y-167250000D03*
D12*
X74100000Y-148325000D03*
X71900000Y-148325000D03*
D11*
X62500000Y-171750000D03*
X61230000Y-167250000D03*
X59960000Y-171750000D03*
X58690000Y-167250000D03*
D12*
X61600000Y-148325000D03*
X59400000Y-148325000D03*
D11*
X50000000Y-171750000D03*
X48730000Y-167250000D03*
X47460000Y-171750000D03*
X46190000Y-167250000D03*
D12*
X49100000Y-148325000D03*
X46900000Y-148325000D03*
D11*
X37500000Y-171750000D03*
X36230000Y-167250000D03*
X34960000Y-171750000D03*
X33690000Y-167250000D03*
D12*
X36600000Y-148325000D03*
X34400000Y-148325000D03*
D11*
X25000000Y-171750000D03*
X23730000Y-167250000D03*
X22460000Y-171750000D03*
X21190000Y-167250000D03*
D12*
X24100000Y-148325000D03*
X21900000Y-148325000D03*
D11*
X175000000Y-139750000D03*
X173730000Y-135250000D03*
X172460000Y-139750000D03*
X171190000Y-135250000D03*
D12*
X174100000Y-116325000D03*
X171900000Y-116325000D03*
D11*
X162500000Y-139750000D03*
X161230000Y-135250000D03*
X159960000Y-139750000D03*
X158690000Y-135250000D03*
D12*
X161600000Y-116325000D03*
X159400000Y-116325000D03*
D11*
X150000000Y-139750000D03*
X148730000Y-135250000D03*
X147460000Y-139750000D03*
X146190000Y-135250000D03*
D12*
X149100000Y-116325000D03*
X146900000Y-116325000D03*
D11*
X137500000Y-139750000D03*
X136230000Y-135250000D03*
X134960000Y-139750000D03*
X133690000Y-135250000D03*
D12*
X136600000Y-116325000D03*
X134400000Y-116325000D03*
D11*
X125000000Y-139750000D03*
X123730000Y-135250000D03*
X122460000Y-139750000D03*
X121190000Y-135250000D03*
D12*
X124100000Y-116325000D03*
X121900000Y-116325000D03*
D11*
X112500000Y-139750000D03*
X111230000Y-135250000D03*
X109960000Y-139750000D03*
X108690000Y-135250000D03*
D12*
X111600000Y-116325000D03*
X109400000Y-116325000D03*
D11*
X100000000Y-139750000D03*
X98730000Y-135250000D03*
X97460000Y-139750000D03*
X96190000Y-135250000D03*
D12*
X99100000Y-116325000D03*
X96900000Y-116325000D03*
D11*
X87500000Y-139750000D03*
X86230000Y-135250000D03*
X84960000Y-139750000D03*
X83690000Y-135250000D03*
D12*
X86600000Y-116325000D03*
X84400000Y-116325000D03*
D11*
X75000000Y-139750000D03*
X73730000Y-135250000D03*
X72460000Y-139750000D03*
X71190000Y-135250000D03*
D12*
X74100000Y-116325000D03*
X71900000Y-116325000D03*
D11*
X62500000Y-139750000D03*
X61230000Y-135250000D03*
X59960000Y-139750000D03*
X58690000Y-135250000D03*
D12*
X61600000Y-116325000D03*
X59400000Y-116325000D03*
D11*
X50000000Y-139750000D03*
X48730000Y-135250000D03*
X47460000Y-139750000D03*
X46190000Y-135250000D03*
D12*
X49100000Y-116325000D03*
X46900000Y-116325000D03*
D11*
X37500000Y-139750000D03*
X36230000Y-135250000D03*
X34960000Y-139750000D03*
X33690000Y-135250000D03*
D12*
X36600000Y-116325000D03*
X34400000Y-116325000D03*
D11*
X25000000Y-139750000D03*
X23730000Y-135250000D03*
X22460000Y-139750000D03*
X21190000Y-135250000D03*
D12*
X24100000Y-116325000D03*
X21900000Y-116325000D03*
D11*
X175000000Y-107750000D03*
X173730000Y-103250000D03*
X172460000Y-107750000D03*
X171190000Y-103250000D03*
D12*
X174100000Y-84325000D03*
X171900000Y-84325000D03*
D11*
X162500000Y-107750000D03*
X161230000Y-103250000D03*
X159960000Y-107750000D03*
X158690000Y-103250000D03*
D12*
X161600000Y-84325000D03*
X159400000Y-84325000D03*
D11*
X150000000Y-107750000D03*
X148730000Y-103250000D03*
X147460000Y-107750000D03*
X146190000Y-103250000D03*
D12*
X149100000Y-84325000D03*
X146900000Y-84325000D03*
D11*
X137500000Y-107750000D03*
X136230000Y-103250000D03*
X134960000Y-107750000D03*
X133690000Y-103250000D03*
D12*
X136600000Y-84325000D03*
X134400000Y-84325000D03*
D11*
X125000000Y-107750000D03*
X123730000Y-103250000D03*
X122460000Y-107750000D03*
X121190000Y-103250000D03*
D12*
X124100000Y-84325000D03*
X121900000Y-84325000D03*
D11*
X112500000Y-107750000D03*
X111230000Y-103250000D03*
X109960000Y-107750000D03*
X108690000Y-103250000D03*
D12*
X111600000Y-84325000D03*
X109400000Y-84325000D03*
D11*
X100000000Y-107750000D03*
X98730000Y-103250000D03*
X97460000Y-107750000D03*
X96190000Y-103250000D03*
D12*
X99100000Y-84325000D03*
X96900000Y-84325000D03*
D11*
X87500000Y-107750000D03*
X86230000Y-103250000D03*
X84960000Y-107750000D03*
X83690000Y-103250000D03*
D12*
X86600000Y-84325000D03*
X84400000Y-84325000D03*
D11*
X75000000Y-107750000D03*
X73730000Y-103250000D03*
X72460000Y-107750000D03*
X71190000Y-103250000D03*
D12*
X74100000Y-84325000D03*
X71900000Y-84325000D03*
D11*
X62500000Y-107750000D03*
X61230000Y-103250000D03*
X59960000Y-107750000D03*
X58690000Y-103250000D03*
D12*
X61600000Y-84325000D03*
X59400000Y-84325000D03*
D11*
X50000000Y-107750000D03*
X48730000Y-103250000D03*
X47460000Y-107750000D03*
X46190000Y-103250000D03*
D12*
X49100000Y-84325000D03*
X46900000Y-84325000D03*
D11*
X37500000Y-107750000D03*
X36230000Y-103250000D03*
X34960000Y-107750000D03*
X33690000Y-103250000D03*
D12*
X36600000Y-84325000D03*
X34400000Y-84325000D03*
D11*
X25000000Y-107750000D03*
X23730000Y-103250000D03*
X22460000Y-107750000D03*
X21190000Y-103250000D03*
D12*
X24100000Y-84325000D03*
X21900000Y-84325000D03*
D11*
X175000000Y-75750000D03*
X173730000Y-71250000D03*
X172460000Y-75750000D03*
X171190000Y-71250000D03*
D12*
X174100000Y-52325000D03*
X171900000Y-52325000D03*
D11*
X162500000Y-75750000D03*
X161230000Y-71250000D03*
X159960000Y-75750000D03*
X158690000Y-71250000D03*
D12*
X161600000Y-52325000D03*
X159400000Y-52325000D03*
D11*
X150000000Y-75750000D03*
X148730000Y-71250000D03*
X147460000Y-75750000D03*
X146190000Y-71250000D03*
D12*
X149100000Y-52325000D03*
X146900000Y-52325000D03*
D11*
X137500000Y-75750000D03*
X136230000Y-71250000D03*
X134960000Y-75750000D03*
X133690000Y-71250000D03*
D12*
X136600000Y-52325000D03*
X134400000Y-52325000D03*
D11*
X125000000Y-75750000D03*
X123730000Y-71250000D03*
X122460000Y-75750000D03*
X121190000Y-71250000D03*
D12*
X124100000Y-52325000D03*
X121900000Y-52325000D03*
D11*
X112500000Y-75750000D03*
X111230000Y-71250000D03*
X109960000Y-75750000D03*
X108690000Y-71250000D03*
D12*
X111600000Y-52325000D03*
X109400000Y-52325000D03*
D11*
X100000000Y-75750000D03*
X98730000Y-71250000D03*
X97460000Y-75750000D03*
X96190000Y-71250000D03*
D12*
X99100000Y-52325000D03*
X96900000Y-52325000D03*
D11*
X87500000Y-75750000D03*
X86230000Y-71250000D03*
X84960000Y-75750000D03*
X83690000Y-71250000D03*
D12*
X86600000Y-52325000D03*
X84400000Y-52325000D03*
D11*
X75000000Y-75750000D03*
X73730000Y-71250000D03*
X72460000Y-75750000D03*
X71190000Y-71250000D03*
D12*
X74100000Y-52325000D03*
X71900000Y-52325000D03*
D11*
X62500000Y-75750000D03*
X61230000Y-71250000D03*
X59960000Y-75750000D03*
X58690000Y-71250000D03*
D12*
X61600000Y-52325000D03*
X59400000Y-52325000D03*
D11*
X50000000Y-75750000D03*
X48730000Y-71250000D03*
X47460000Y-75750000D03*
X46190000Y-71250000D03*
D12*
X49100000Y-52325000D03*
X46900000Y-52325000D03*
D11*
X37500000Y-75750000D03*
X36230000Y-71250000D03*
X34960000Y-75750000D03*
X33690000Y-71250000D03*
D12*
X36600000Y-52325000D03*
X34400000Y-52325000D03*
D11*
X25000000Y-75750000D03*
X23730000Y-71250000D03*
X22460000Y-75750000D03*
X21190000Y-71250000D03*
D12*
X24100000Y-52325000D03*
X21900000Y-52325000D03*
D11*
X175000000Y-43750000D03*
X173730000Y-39250000D03*
X172460000Y-43750000D03*
X171190000Y-39250000D03*
D12*
X174100000Y-20325000D03*
X171900000Y-20325000D03*
D11*
X162500000Y-43750000D03*
X161230000Y-39250000D03*
X159960000Y-43750000D03*
X158690000Y-39250000D03*
D12*
X161600000Y-20325000D03*
X159400000Y-20325000D03*
D11*
X150000000Y-43750000D03*
X148730000Y-39250000D03*
X147460000Y-43750000D03*
X146190000Y-39250000D03*
D12*
X149100000Y-20325000D03*
X146900000Y-20325000D03*
D11*
X137500000Y-43750000D03*
X136230000Y-39250000D03*
X134960000Y-43750000D03*
X133690000Y-39250000D03*
D12*
X136600000Y-20325000D03*
X134400000Y-20325000D03*
D11*
X125000000Y-43750000D03*
X123730000Y-39250000D03*
X122460000Y-43750000D03*
X121190000Y-39250000D03*
D12*
X124100000Y-20325000D03*
X121900000Y-20325000D03*
D11*
X112500000Y-43750000D03*
X111230000Y-39250000D03*
X109960000Y-43750000D03*
X108690000Y-39250000D03*
D12*
X111600000Y-20325000D03*
X109400000Y-20325000D03*
D11*
X100000000Y-43750000D03*
X98730000Y-39250000D03*
X97460000Y-43750000D03*
X96190000Y-39250000D03*
D12*
X99100000Y-20325000D03*
X96900000Y-20325000D03*
D11*
X87500000Y-43750000D03*
X86230000Y-39250000D03*
X84960000Y-43750000D03*
X83690000Y-39250000D03*
D12*
X86600000Y-20325000D03*
X84400000Y-20325000D03*
D11*
X75000000Y-43750000D03*
X73730000Y-39250000D03*
X72460000Y-43750000D03*
X71190000Y-39250000D03*
D12*
X74100000Y-20325000D03*
X71900000Y-20325000D03*
D11*
X62500000Y-43750000D03*
X61230000Y-39250000D03*
X59960000Y-43750000D03*
X58690000Y-39250000D03*
D12*
X61600000Y-20325000D03*
X59400000Y-20325000D03*
D11*
X50000000Y-43750000D03*
X48730000Y-39250000D03*
X47460000Y-43750000D03*
X46190000Y-39250000D03*
D12*
X49100000Y-20325000D03*
X46900000Y-20325000D03*
D11*
X37500000Y-43750000D03*
X36230000Y-39250000D03*
X34960000Y-43750000D03*
X33690000Y-39250000D03*
D12*
X36600000Y-20325000D03*
X34400000Y-20325000D03*
D11*
X25000000Y-43750000D03*
X23730000Y-39250000D03*
X22460000Y-43750000D03*
X21190000Y-39250000D03*
D12*
X24100000Y-20325000D03*
X21900000Y-20325000D03*
M02*
