M48
;DRILL file {KiCad 4.0.2-4+6225~38~ubuntu14.04.1-stable} date Mon 16 May 2016 16:09:24 BST
;FORMAT={-:-/ absolute / inch / decimal}
FMAT,2
INCH,TZ
T1C0.016
%
G90
G05
M72
T1
X0.8366Y-1.378
X0.8366Y-2.6378
X0.8366Y-3.8976
X0.8366Y-5.1575
X0.8366Y-6.4173
X0.8366Y-7.6772
X0.8366Y-8.937
X0.8366Y-10.1969
X0.8366Y-11.4567
X0.8366Y-12.7165
X0.8366Y-13.9764
X0.8366Y-15.2362
X0.8366Y-16.4961
X0.9449Y-1.2598
X0.9449Y-2.5197
X0.9449Y-3.7795
X0.9449Y-5.0394
X0.9449Y-6.2992
X0.9449Y-7.5591
X0.9449Y-8.8189
X0.9449Y-10.0787
X0.9449Y-11.3386
X0.9449Y-12.5984
X0.9449Y-13.8583
X0.9449Y-15.1181
X0.9449Y-16.378
X0.9646Y-1.4272
X0.9646Y-2.687
X0.9646Y-3.9469
X0.9646Y-5.2067
X0.9646Y-6.4665
X0.9646Y-7.7264
X0.9646Y-8.9862
X0.9646Y-10.2461
X0.9646Y-11.5059
X0.9646Y-12.7657
X0.9646Y-14.0256
X0.9646Y-15.2854
X0.9646Y-16.5453
X1.3287Y-1.378
X1.3287Y-2.6378
X1.3287Y-3.8976
X1.3287Y-5.1575
X1.3287Y-6.4173
X1.3287Y-7.6772
X1.3287Y-8.937
X1.3287Y-10.1969
X1.3287Y-11.4567
X1.3287Y-12.7165
X1.3287Y-13.9764
X1.3287Y-15.2362
X1.3287Y-16.4961
X1.437Y-1.2598
X1.437Y-2.5197
X1.437Y-3.7795
X1.437Y-5.0394
X1.437Y-6.2992
X1.437Y-7.5591
X1.437Y-8.8189
X1.437Y-10.0787
X1.437Y-11.3386
X1.437Y-12.5984
X1.437Y-13.8583
X1.437Y-15.1181
X1.437Y-16.378
X1.4567Y-1.4272
X1.4567Y-2.687
X1.4567Y-3.9469
X1.4567Y-5.2067
X1.4567Y-6.4665
X1.4567Y-7.7264
X1.4567Y-8.9862
X1.4567Y-10.2461
X1.4567Y-11.5059
X1.4567Y-12.7657
X1.4567Y-14.0256
X1.4567Y-15.2854
X1.4567Y-16.5453
X1.8209Y-1.378
X1.8209Y-2.6378
X1.8209Y-3.8976
X1.8209Y-5.1575
X1.8209Y-6.4173
X1.8209Y-7.6772
X1.8209Y-8.937
X1.8209Y-10.1969
X1.8209Y-11.4567
X1.8209Y-12.7165
X1.8209Y-13.9764
X1.8209Y-15.2362
X1.8209Y-16.4961
X1.9291Y-1.2598
X1.9291Y-2.5197
X1.9291Y-3.7795
X1.9291Y-5.0394
X1.9291Y-6.2992
X1.9291Y-7.5591
X1.9291Y-8.8189
X1.9291Y-10.0787
X1.9291Y-11.3386
X1.9291Y-12.5984
X1.9291Y-13.8583
X1.9291Y-15.1181
X1.9291Y-16.378
X1.9488Y-1.4272
X1.9488Y-2.687
X1.9488Y-3.9469
X1.9488Y-5.2067
X1.9488Y-6.4665
X1.9488Y-7.7264
X1.9488Y-8.9862
X1.9488Y-10.2461
X1.9488Y-11.5059
X1.9488Y-12.7657
X1.9488Y-14.0256
X1.9488Y-15.2854
X1.9488Y-16.5453
X2.313Y-1.378
X2.313Y-2.6378
X2.313Y-3.8976
X2.313Y-5.1575
X2.313Y-6.4173
X2.313Y-7.6772
X2.313Y-8.937
X2.313Y-10.1969
X2.313Y-11.4567
X2.313Y-12.7165
X2.313Y-13.9764
X2.313Y-15.2362
X2.313Y-16.4961
X2.4213Y-1.2598
X2.4213Y-2.5197
X2.4213Y-3.7795
X2.4213Y-5.0394
X2.4213Y-6.2992
X2.4213Y-7.5591
X2.4213Y-8.8189
X2.4213Y-10.0787
X2.4213Y-11.3386
X2.4213Y-12.5984
X2.4213Y-13.8583
X2.4213Y-15.1181
X2.4213Y-16.378
X2.4409Y-1.4272
X2.4409Y-2.687
X2.4409Y-3.9469
X2.4409Y-5.2067
X2.4409Y-6.4665
X2.4409Y-7.7264
X2.4409Y-8.9862
X2.4409Y-10.2461
X2.4409Y-11.5059
X2.4409Y-12.7657
X2.4409Y-14.0256
X2.4409Y-15.2854
X2.4409Y-16.5453
X2.8051Y-1.378
X2.8051Y-2.6378
X2.8051Y-3.8976
X2.8051Y-5.1575
X2.8051Y-6.4173
X2.8051Y-7.6772
X2.8051Y-8.937
X2.8051Y-10.1969
X2.8051Y-11.4567
X2.8051Y-12.7165
X2.8051Y-13.9764
X2.8051Y-15.2362
X2.8051Y-16.4961
X2.9134Y-1.2598
X2.9134Y-2.5197
X2.9134Y-3.7795
X2.9134Y-5.0394
X2.9134Y-6.2992
X2.9134Y-7.5591
X2.9134Y-8.8189
X2.9134Y-10.0787
X2.9134Y-11.3386
X2.9134Y-12.5984
X2.9134Y-13.8583
X2.9134Y-15.1181
X2.9134Y-16.378
X2.9331Y-1.4272
X2.9331Y-2.687
X2.9331Y-3.9469
X2.9331Y-5.2067
X2.9331Y-6.4665
X2.9331Y-7.7264
X2.9331Y-8.9862
X2.9331Y-10.2461
X2.9331Y-11.5059
X2.9331Y-12.7657
X2.9331Y-14.0256
X2.9331Y-15.2854
X2.9331Y-16.5453
X3.2972Y-1.378
X3.2972Y-2.6378
X3.2972Y-3.8976
X3.2972Y-5.1575
X3.2972Y-6.4173
X3.2972Y-7.6772
X3.2972Y-8.937
X3.2972Y-10.1969
X3.2972Y-11.4567
X3.2972Y-12.7165
X3.2972Y-13.9764
X3.2972Y-15.2362
X3.2972Y-16.4961
X3.4055Y-1.2598
X3.4055Y-2.5197
X3.4055Y-3.7795
X3.4055Y-5.0394
X3.4055Y-6.2992
X3.4055Y-7.5591
X3.4055Y-8.8189
X3.4055Y-10.0787
X3.4055Y-11.3386
X3.4055Y-12.5984
X3.4055Y-13.8583
X3.4055Y-15.1181
X3.4055Y-16.378
X3.4252Y-1.4272
X3.4252Y-2.687
X3.4252Y-3.9469
X3.4252Y-5.2067
X3.4252Y-6.4665
X3.4252Y-7.7264
X3.4252Y-8.9862
X3.4252Y-10.2461
X3.4252Y-11.5059
X3.4252Y-12.7657
X3.4252Y-14.0256
X3.4252Y-15.2854
X3.4252Y-16.5453
X3.7894Y-1.378
X3.7894Y-2.6378
X3.7894Y-3.8976
X3.7894Y-5.1575
X3.7894Y-6.4173
X3.7894Y-7.6772
X3.7894Y-8.937
X3.7894Y-10.1969
X3.7894Y-11.4567
X3.7894Y-12.7165
X3.7894Y-13.9764
X3.7894Y-15.2362
X3.7894Y-16.4961
X3.8976Y-1.2598
X3.8976Y-2.5197
X3.8976Y-3.7795
X3.8976Y-5.0394
X3.8976Y-6.2992
X3.8976Y-7.5591
X3.8976Y-8.8189
X3.8976Y-10.0787
X3.8976Y-11.3386
X3.8976Y-12.5984
X3.8976Y-13.8583
X3.8976Y-15.1181
X3.8976Y-16.378
X3.9173Y-1.4272
X3.9173Y-2.687
X3.9173Y-3.9469
X3.9173Y-5.2067
X3.9173Y-6.4665
X3.9173Y-7.7264
X3.9173Y-8.9862
X3.9173Y-10.2461
X3.9173Y-11.5059
X3.9173Y-12.7657
X3.9173Y-14.0256
X3.9173Y-15.2854
X3.9173Y-16.5453
X4.2815Y-1.378
X4.2815Y-2.6378
X4.2815Y-3.8976
X4.2815Y-5.1575
X4.2815Y-6.4173
X4.2815Y-7.6772
X4.2815Y-8.937
X4.2815Y-10.1969
X4.2815Y-11.4567
X4.2815Y-12.7165
X4.2815Y-13.9764
X4.2815Y-15.2362
X4.2815Y-16.4961
X4.3898Y-1.2598
X4.3898Y-2.5197
X4.3898Y-3.7795
X4.3898Y-5.0394
X4.3898Y-6.2992
X4.3898Y-7.5591
X4.3898Y-8.8189
X4.3898Y-10.0787
X4.3898Y-11.3386
X4.3898Y-12.5984
X4.3898Y-13.8583
X4.3898Y-15.1181
X4.3898Y-16.378
X4.4094Y-1.4272
X4.4094Y-2.687
X4.4094Y-3.9469
X4.4094Y-5.2067
X4.4094Y-6.4665
X4.4094Y-7.7264
X4.4094Y-8.9862
X4.4094Y-10.2461
X4.4094Y-11.5059
X4.4094Y-12.7657
X4.4094Y-14.0256
X4.4094Y-15.2854
X4.4094Y-16.5453
X4.7736Y-1.378
X4.7736Y-2.6378
X4.7736Y-3.8976
X4.7736Y-5.1575
X4.7736Y-6.4173
X4.7736Y-7.6772
X4.7736Y-8.937
X4.7736Y-10.1969
X4.7736Y-11.4567
X4.7736Y-12.7165
X4.7736Y-13.9764
X4.7736Y-15.2362
X4.7736Y-16.4961
X4.8819Y-1.2598
X4.8819Y-2.5197
X4.8819Y-3.7795
X4.8819Y-5.0394
X4.8819Y-6.2992
X4.8819Y-7.5591
X4.8819Y-8.8189
X4.8819Y-10.0787
X4.8819Y-11.3386
X4.8819Y-12.5984
X4.8819Y-13.8583
X4.8819Y-15.1181
X4.8819Y-16.378
X4.9016Y-1.4272
X4.9016Y-2.687
X4.9016Y-3.9469
X4.9016Y-5.2067
X4.9016Y-6.4665
X4.9016Y-7.7264
X4.9016Y-8.9862
X4.9016Y-10.2461
X4.9016Y-11.5059
X4.9016Y-12.7657
X4.9016Y-14.0256
X4.9016Y-15.2854
X4.9016Y-16.5453
X5.2657Y-1.378
X5.2657Y-2.6378
X5.2657Y-3.8976
X5.2657Y-5.1575
X5.2657Y-6.4173
X5.2657Y-7.6772
X5.2657Y-8.937
X5.2657Y-10.1969
X5.2657Y-11.4567
X5.2657Y-12.7165
X5.2657Y-13.9764
X5.2657Y-15.2362
X5.2657Y-16.4961
X5.374Y-1.2598
X5.374Y-2.5197
X5.374Y-3.7795
X5.374Y-5.0394
X5.374Y-6.2992
X5.374Y-7.5591
X5.374Y-8.8189
X5.374Y-10.0787
X5.374Y-11.3386
X5.374Y-12.5984
X5.374Y-13.8583
X5.374Y-15.1181
X5.374Y-16.378
X5.3937Y-1.4272
X5.3937Y-2.687
X5.3937Y-3.9469
X5.3937Y-5.2067
X5.3937Y-6.4665
X5.3937Y-7.7264
X5.3937Y-8.9862
X5.3937Y-10.2461
X5.3937Y-11.5059
X5.3937Y-12.7657
X5.3937Y-14.0256
X5.3937Y-15.2854
X5.3937Y-16.5453
X5.7579Y-1.378
X5.7579Y-2.6378
X5.7579Y-3.8976
X5.7579Y-5.1575
X5.7579Y-6.4173
X5.7579Y-7.6772
X5.7579Y-8.937
X5.7579Y-10.1969
X5.7579Y-11.4567
X5.7579Y-12.7165
X5.7579Y-13.9764
X5.7579Y-15.2362
X5.7579Y-16.4961
X5.8661Y-1.2598
X5.8661Y-2.5197
X5.8661Y-3.7795
X5.8661Y-5.0394
X5.8661Y-6.2992
X5.8661Y-7.5591
X5.8661Y-8.8189
X5.8661Y-10.0787
X5.8661Y-11.3386
X5.8661Y-12.5984
X5.8661Y-13.8583
X5.8661Y-15.1181
X5.8661Y-16.378
X5.8858Y-1.4272
X5.8858Y-2.687
X5.8858Y-3.9469
X5.8858Y-5.2067
X5.8858Y-6.4665
X5.8858Y-7.7264
X5.8858Y-8.9862
X5.8858Y-10.2461
X5.8858Y-11.5059
X5.8858Y-12.7657
X5.8858Y-14.0256
X5.8858Y-15.2854
X5.8858Y-16.5453
X6.25Y-1.378
X6.25Y-2.6378
X6.25Y-3.8976
X6.25Y-5.1575
X6.25Y-6.4173
X6.25Y-7.6772
X6.25Y-8.937
X6.25Y-10.1969
X6.25Y-11.4567
X6.25Y-12.7165
X6.25Y-13.9764
X6.25Y-15.2362
X6.25Y-16.4961
X6.3583Y-1.2598
X6.3583Y-2.5197
X6.3583Y-3.7795
X6.3583Y-5.0394
X6.3583Y-6.2992
X6.3583Y-7.5591
X6.3583Y-8.8189
X6.3583Y-10.0787
X6.3583Y-11.3386
X6.3583Y-12.5984
X6.3583Y-13.8583
X6.3583Y-15.1181
X6.3583Y-16.378
X6.378Y-1.4272
X6.378Y-2.687
X6.378Y-3.9469
X6.378Y-5.2067
X6.378Y-6.4665
X6.378Y-7.7264
X6.378Y-8.9862
X6.378Y-10.2461
X6.378Y-11.5059
X6.378Y-12.7657
X6.378Y-14.0256
X6.378Y-15.2854
X6.378Y-16.5453
X6.7421Y-1.378
X6.7421Y-2.6378
X6.7421Y-3.8976
X6.7421Y-5.1575
X6.7421Y-6.4173
X6.7421Y-7.6772
X6.7421Y-8.937
X6.7421Y-10.1969
X6.7421Y-11.4567
X6.7421Y-12.7165
X6.7421Y-13.9764
X6.7421Y-15.2362
X6.7421Y-16.4961
X6.8504Y-1.2598
X6.8504Y-2.5197
X6.8504Y-3.7795
X6.8504Y-5.0394
X6.8504Y-6.2992
X6.8504Y-7.5591
X6.8504Y-8.8189
X6.8504Y-10.0787
X6.8504Y-11.3386
X6.8504Y-12.5984
X6.8504Y-13.8583
X6.8504Y-15.1181
X6.8504Y-16.378
X6.8701Y-1.4272
X6.8701Y-2.687
X6.8701Y-3.9469
X6.8701Y-5.2067
X6.8701Y-6.4665
X6.8701Y-7.7264
X6.8701Y-8.9862
X6.8701Y-10.2461
X6.8701Y-11.5059
X6.8701Y-12.7657
X6.8701Y-14.0256
X6.8701Y-15.2854
X6.8701Y-16.5453
T0
M30
