G04 #@! TF.FileFunction,Legend,Bot*
%FSLAX46Y46*%
G04 Gerber Fmt 4.6, Leading zero omitted, Abs format (unit mm)*
G04 Created by KiCad (PCBNEW 4.0.2-4+6225~38~ubuntu14.04.1-stable) date Mon 16 May 2016 16:09:22 BST*
%MOMM*%
G01*
G04 APERTURE LIST*
%ADD10C,0.100000*%
%ADD11C,0.300000*%
%ADD12C,5.000000*%
G04 APERTURE END LIST*
D10*
D11*
X183249999Y-416607135D02*
X183249999Y-413607135D01*
X182249999Y-415749992D01*
X181249999Y-413607135D01*
X181249999Y-416607135D01*
X180821428Y-384940469D02*
X182249999Y-384940469D01*
X182249999Y-381940469D01*
X182821429Y-353273803D02*
X182821429Y-350273803D01*
X181107144Y-353273803D02*
X182392858Y-351559517D01*
X181107144Y-350273803D02*
X182821429Y-351988089D01*
X181250000Y-318607137D02*
X181250000Y-320749994D01*
X181392858Y-321178565D01*
X181678572Y-321464280D01*
X182107143Y-321607137D01*
X182392858Y-321607137D01*
X181249999Y-289940471D02*
X181249999Y-286940471D01*
X182964285Y-258273805D02*
X182964285Y-255273805D01*
X182964285Y-256702376D02*
X181250000Y-256702376D01*
X181250000Y-258273805D02*
X181250000Y-255273805D01*
X181250001Y-223749996D02*
X181535715Y-223607139D01*
X181964286Y-223607139D01*
X182392858Y-223749996D01*
X182678572Y-224035710D01*
X182821429Y-224321425D01*
X182964286Y-224892853D01*
X182964286Y-225321425D01*
X182821429Y-225892853D01*
X182678572Y-226178567D01*
X182392858Y-226464282D01*
X181964286Y-226607139D01*
X181678572Y-226607139D01*
X181250001Y-226464282D01*
X181107144Y-226321425D01*
X181107144Y-225321425D01*
X181678572Y-225321425D01*
X181392857Y-193369044D02*
X182392857Y-193369044D01*
X182392857Y-194940473D02*
X182392857Y-191940473D01*
X180964286Y-191940473D01*
X182535715Y-161702378D02*
X181535715Y-161702378D01*
X181107144Y-163273807D02*
X182535715Y-163273807D01*
X182535715Y-160273807D01*
X181107144Y-160273807D01*
X182821429Y-131607141D02*
X182821429Y-128607141D01*
X182107144Y-128607141D01*
X181678572Y-128749998D01*
X181392858Y-129035712D01*
X181250001Y-129321427D01*
X181107144Y-129892855D01*
X181107144Y-130321427D01*
X181250001Y-130892855D01*
X181392858Y-131178569D01*
X181678572Y-131464284D01*
X182107144Y-131607141D01*
X182821429Y-131607141D01*
X181107144Y-99654761D02*
X181250001Y-99797618D01*
X181678572Y-99940475D01*
X181964286Y-99940475D01*
X182392858Y-99797618D01*
X182678572Y-99511903D01*
X182821429Y-99226189D01*
X182964286Y-98654761D01*
X182964286Y-98226189D01*
X182821429Y-97654761D01*
X182678572Y-97369046D01*
X182392858Y-97083332D01*
X181964286Y-96940475D01*
X181678572Y-96940475D01*
X181250001Y-97083332D01*
X181107144Y-97226189D01*
X181821429Y-66702380D02*
X181392858Y-66845237D01*
X181250001Y-66988095D01*
X181107144Y-67273809D01*
X181107144Y-67702380D01*
X181250001Y-67988095D01*
X181392858Y-68130952D01*
X181678572Y-68273809D01*
X182821429Y-68273809D01*
X182821429Y-65273809D01*
X181821429Y-65273809D01*
X181535715Y-65416666D01*
X181392858Y-65559523D01*
X181250001Y-65845237D01*
X181250001Y-66130952D01*
X181392858Y-66416666D01*
X181535715Y-66559523D01*
X181821429Y-66702380D01*
X182821429Y-66702380D01*
X182535714Y-35750000D02*
X181107143Y-35750000D01*
X182821429Y-36607143D02*
X181821429Y-33607143D01*
X180821429Y-36607143D01*
X15749999Y-414607135D02*
X15749999Y-411607135D01*
X14749999Y-413749992D01*
X13749999Y-411607135D01*
X13749999Y-414607135D01*
X13321428Y-382940469D02*
X14749999Y-382940469D01*
X14749999Y-379940469D01*
X15321429Y-351273803D02*
X15321429Y-348273803D01*
X13607144Y-351273803D02*
X14892858Y-349559517D01*
X13607144Y-348273803D02*
X15321429Y-349988089D01*
X13750000Y-316607137D02*
X13750000Y-318749994D01*
X13892858Y-319178565D01*
X14178572Y-319464280D01*
X14607143Y-319607137D01*
X14892858Y-319607137D01*
X13750001Y-287940471D02*
X13750001Y-284940471D01*
X15464285Y-256273805D02*
X15464285Y-253273805D01*
X15464285Y-254702376D02*
X13750000Y-254702376D01*
X13750000Y-256273805D02*
X13750000Y-253273805D01*
X13750001Y-221749996D02*
X14035715Y-221607139D01*
X14464286Y-221607139D01*
X14892858Y-221749996D01*
X15178572Y-222035710D01*
X15321429Y-222321425D01*
X15464286Y-222892853D01*
X15464286Y-223321425D01*
X15321429Y-223892853D01*
X15178572Y-224178567D01*
X14892858Y-224464282D01*
X14464286Y-224607139D01*
X14178572Y-224607139D01*
X13750001Y-224464282D01*
X13607144Y-224321425D01*
X13607144Y-223321425D01*
X14178572Y-223321425D01*
X13892857Y-191369044D02*
X14892857Y-191369044D01*
X14892857Y-192940473D02*
X14892857Y-189940473D01*
X13464286Y-189940473D01*
X15035715Y-159702378D02*
X14035715Y-159702378D01*
X13607144Y-161273807D02*
X15035715Y-161273807D01*
X15035715Y-158273807D01*
X13607144Y-158273807D01*
X15321429Y-129607141D02*
X15321429Y-126607141D01*
X14607144Y-126607141D01*
X14178572Y-126749998D01*
X13892858Y-127035712D01*
X13750001Y-127321427D01*
X13607144Y-127892855D01*
X13607144Y-128321427D01*
X13750001Y-128892855D01*
X13892858Y-129178569D01*
X14178572Y-129464284D01*
X14607144Y-129607141D01*
X15321429Y-129607141D01*
X13607144Y-97654761D02*
X13750001Y-97797618D01*
X14178572Y-97940475D01*
X14464286Y-97940475D01*
X14892858Y-97797618D01*
X15178572Y-97511903D01*
X15321429Y-97226189D01*
X15464286Y-96654761D01*
X15464286Y-96226189D01*
X15321429Y-95654761D01*
X15178572Y-95369046D01*
X14892858Y-95083332D01*
X14464286Y-94940475D01*
X14178572Y-94940475D01*
X13750001Y-95083332D01*
X13607144Y-95226189D01*
X14321429Y-64702380D02*
X13892858Y-64845237D01*
X13750001Y-64988095D01*
X13607144Y-65273809D01*
X13607144Y-65702380D01*
X13750001Y-65988095D01*
X13892858Y-66130952D01*
X14178572Y-66273809D01*
X15321429Y-66273809D01*
X15321429Y-63273809D01*
X14321429Y-63273809D01*
X14035715Y-63416666D01*
X13892858Y-63559523D01*
X13750001Y-63845237D01*
X13750001Y-64130952D01*
X13892858Y-64416666D01*
X14035715Y-64559523D01*
X14321429Y-64702380D01*
X15321429Y-64702380D01*
X15035714Y-33750000D02*
X13607143Y-33750000D01*
X15321429Y-34607143D02*
X14321429Y-31607143D01*
X13321429Y-34607143D01*
X173071425Y-436382925D02*
X174785710Y-436382925D01*
X173928568Y-436382925D02*
X173928568Y-433382925D01*
X174214282Y-433811496D01*
X174499996Y-434097211D01*
X174785710Y-434240068D01*
X171928567Y-433668639D02*
X171785710Y-433525782D01*
X171499996Y-433382925D01*
X170785710Y-433382925D01*
X170499996Y-433525782D01*
X170357139Y-433668639D01*
X170214282Y-433954353D01*
X170214282Y-434240068D01*
X170357139Y-434668639D01*
X172071425Y-436382925D01*
X170214282Y-436382925D01*
X160613092Y-436382925D02*
X162327377Y-436382925D01*
X161470235Y-436382925D02*
X161470235Y-433382925D01*
X161755949Y-433811496D01*
X162041663Y-434097211D01*
X162327377Y-434240068D01*
X157755949Y-436382925D02*
X159470234Y-436382925D01*
X158613092Y-436382925D02*
X158613092Y-433382925D01*
X158898806Y-433811496D01*
X159184520Y-434097211D01*
X159470234Y-434240068D01*
X148154759Y-436382925D02*
X149869044Y-436382925D01*
X149011902Y-436382925D02*
X149011902Y-433382925D01*
X149297616Y-433811496D01*
X149583330Y-434097211D01*
X149869044Y-434240068D01*
X146297616Y-433382925D02*
X146011901Y-433382925D01*
X145726187Y-433525782D01*
X145583330Y-433668639D01*
X145440473Y-433954353D01*
X145297616Y-434525782D01*
X145297616Y-435240068D01*
X145440473Y-435811496D01*
X145583330Y-436097211D01*
X145726187Y-436240068D01*
X146011901Y-436382925D01*
X146297616Y-436382925D01*
X146583330Y-436240068D01*
X146726187Y-436097211D01*
X146869044Y-435811496D01*
X147011901Y-435240068D01*
X147011901Y-434525782D01*
X146869044Y-433954353D01*
X146726187Y-433668639D01*
X146583330Y-433525782D01*
X146297616Y-433382925D01*
X135696425Y-436382925D02*
X135124997Y-436382925D01*
X134839282Y-436240068D01*
X134696425Y-436097211D01*
X134410711Y-435668639D01*
X134267854Y-435097211D01*
X134267854Y-433954353D01*
X134410711Y-433668639D01*
X134553568Y-433525782D01*
X134839282Y-433382925D01*
X135410711Y-433382925D01*
X135696425Y-433525782D01*
X135839282Y-433668639D01*
X135982139Y-433954353D01*
X135982139Y-434668639D01*
X135839282Y-434954353D01*
X135696425Y-435097211D01*
X135410711Y-435240068D01*
X134839282Y-435240068D01*
X134553568Y-435097211D01*
X134410711Y-434954353D01*
X134267854Y-434668639D01*
X122952378Y-434668639D02*
X123238092Y-434525782D01*
X123380949Y-434382925D01*
X123523806Y-434097211D01*
X123523806Y-433954353D01*
X123380949Y-433668639D01*
X123238092Y-433525782D01*
X122952378Y-433382925D01*
X122380949Y-433382925D01*
X122095235Y-433525782D01*
X121952378Y-433668639D01*
X121809521Y-433954353D01*
X121809521Y-434097211D01*
X121952378Y-434382925D01*
X122095235Y-434525782D01*
X122380949Y-434668639D01*
X122952378Y-434668639D01*
X123238092Y-434811496D01*
X123380949Y-434954353D01*
X123523806Y-435240068D01*
X123523806Y-435811496D01*
X123380949Y-436097211D01*
X123238092Y-436240068D01*
X122952378Y-436382925D01*
X122380949Y-436382925D01*
X122095235Y-436240068D01*
X121952378Y-436097211D01*
X121809521Y-435811496D01*
X121809521Y-435240068D01*
X121952378Y-434954353D01*
X122095235Y-434811496D01*
X122380949Y-434668639D01*
X111208331Y-433382925D02*
X109208331Y-433382925D01*
X110494045Y-436382925D01*
X97178569Y-433382925D02*
X97749998Y-433382925D01*
X98035712Y-433525782D01*
X98178569Y-433668639D01*
X98464283Y-434097211D01*
X98607140Y-434668639D01*
X98607140Y-435811496D01*
X98464283Y-436097211D01*
X98321426Y-436240068D01*
X98035712Y-436382925D01*
X97464283Y-436382925D01*
X97178569Y-436240068D01*
X97035712Y-436097211D01*
X96892855Y-435811496D01*
X96892855Y-435097211D01*
X97035712Y-434811496D01*
X97178569Y-434668639D01*
X97464283Y-434525782D01*
X98035712Y-434525782D01*
X98321426Y-434668639D01*
X98464283Y-434811496D01*
X98607140Y-435097211D01*
X84577379Y-433382925D02*
X86005950Y-433382925D01*
X86148807Y-434811496D01*
X86005950Y-434668639D01*
X85720236Y-434525782D01*
X85005950Y-434525782D01*
X84720236Y-434668639D01*
X84577379Y-434811496D01*
X84434522Y-435097211D01*
X84434522Y-435811496D01*
X84577379Y-436097211D01*
X84720236Y-436240068D01*
X85005950Y-436382925D01*
X85720236Y-436382925D01*
X86005950Y-436240068D01*
X86148807Y-436097211D01*
X72261903Y-434382925D02*
X72261903Y-436382925D01*
X72976189Y-433240068D02*
X73690474Y-435382925D01*
X71833332Y-435382925D01*
X61374999Y-433382925D02*
X59517856Y-433382925D01*
X60517856Y-434525782D01*
X60089284Y-434525782D01*
X59803570Y-434668639D01*
X59660713Y-434811496D01*
X59517856Y-435097211D01*
X59517856Y-435811496D01*
X59660713Y-436097211D01*
X59803570Y-436240068D01*
X60089284Y-436382925D01*
X60946427Y-436382925D01*
X61232141Y-436240068D01*
X61374999Y-436097211D01*
X48773808Y-433668639D02*
X48630951Y-433525782D01*
X48345237Y-433382925D01*
X47630951Y-433382925D01*
X47345237Y-433525782D01*
X47202380Y-433668639D01*
X47059523Y-433954353D01*
X47059523Y-434240068D01*
X47202380Y-434668639D01*
X48916666Y-436382925D01*
X47059523Y-436382925D01*
X34601190Y-436382925D02*
X36315475Y-436382925D01*
X35458333Y-436382925D02*
X35458333Y-433382925D01*
X35744047Y-433811496D01*
X36029761Y-434097211D01*
X36315475Y-434240068D01*
X23142857Y-433382925D02*
X22857142Y-433382925D01*
X22571428Y-433525782D01*
X22428571Y-433668639D01*
X22285714Y-433954353D01*
X22142857Y-434525782D01*
X22142857Y-435240068D01*
X22285714Y-435811496D01*
X22428571Y-436097211D01*
X22571428Y-436240068D01*
X22857142Y-436382925D01*
X23142857Y-436382925D01*
X23428571Y-436240068D01*
X23571428Y-436097211D01*
X23714285Y-435811496D01*
X23857142Y-435240068D01*
X23857142Y-434525782D01*
X23714285Y-433954353D01*
X23571428Y-433668639D01*
X23428571Y-433525782D01*
X23142857Y-433382925D01*
X173071425Y-16085287D02*
X174785710Y-16085287D01*
X173928568Y-16085287D02*
X173928568Y-13085287D01*
X174214282Y-13513858D01*
X174499996Y-13799573D01*
X174785710Y-13942430D01*
X171928567Y-13371001D02*
X171785710Y-13228144D01*
X171499996Y-13085287D01*
X170785710Y-13085287D01*
X170499996Y-13228144D01*
X170357139Y-13371001D01*
X170214282Y-13656715D01*
X170214282Y-13942430D01*
X170357139Y-14371001D01*
X172071425Y-16085287D01*
X170214282Y-16085287D01*
X160613092Y-16085287D02*
X162327377Y-16085287D01*
X161470235Y-16085287D02*
X161470235Y-13085287D01*
X161755949Y-13513858D01*
X162041663Y-13799573D01*
X162327377Y-13942430D01*
X157755949Y-16085287D02*
X159470234Y-16085287D01*
X158613092Y-16085287D02*
X158613092Y-13085287D01*
X158898806Y-13513858D01*
X159184520Y-13799573D01*
X159470234Y-13942430D01*
X148154759Y-16085287D02*
X149869044Y-16085287D01*
X149011902Y-16085287D02*
X149011902Y-13085287D01*
X149297616Y-13513858D01*
X149583330Y-13799573D01*
X149869044Y-13942430D01*
X146297616Y-13085287D02*
X146011901Y-13085287D01*
X145726187Y-13228144D01*
X145583330Y-13371001D01*
X145440473Y-13656715D01*
X145297616Y-14228144D01*
X145297616Y-14942430D01*
X145440473Y-15513858D01*
X145583330Y-15799573D01*
X145726187Y-15942430D01*
X146011901Y-16085287D01*
X146297616Y-16085287D01*
X146583330Y-15942430D01*
X146726187Y-15799573D01*
X146869044Y-15513858D01*
X147011901Y-14942430D01*
X147011901Y-14228144D01*
X146869044Y-13656715D01*
X146726187Y-13371001D01*
X146583330Y-13228144D01*
X146297616Y-13085287D01*
X135696425Y-16085287D02*
X135124997Y-16085287D01*
X134839282Y-15942430D01*
X134696425Y-15799573D01*
X134410711Y-15371001D01*
X134267854Y-14799573D01*
X134267854Y-13656715D01*
X134410711Y-13371001D01*
X134553568Y-13228144D01*
X134839282Y-13085287D01*
X135410711Y-13085287D01*
X135696425Y-13228144D01*
X135839282Y-13371001D01*
X135982139Y-13656715D01*
X135982139Y-14371001D01*
X135839282Y-14656715D01*
X135696425Y-14799573D01*
X135410711Y-14942430D01*
X134839282Y-14942430D01*
X134553568Y-14799573D01*
X134410711Y-14656715D01*
X134267854Y-14371001D01*
X122952378Y-14371001D02*
X123238092Y-14228144D01*
X123380949Y-14085287D01*
X123523806Y-13799573D01*
X123523806Y-13656715D01*
X123380949Y-13371001D01*
X123238092Y-13228144D01*
X122952378Y-13085287D01*
X122380949Y-13085287D01*
X122095235Y-13228144D01*
X121952378Y-13371001D01*
X121809521Y-13656715D01*
X121809521Y-13799573D01*
X121952378Y-14085287D01*
X122095235Y-14228144D01*
X122380949Y-14371001D01*
X122952378Y-14371001D01*
X123238092Y-14513858D01*
X123380949Y-14656715D01*
X123523806Y-14942430D01*
X123523806Y-15513858D01*
X123380949Y-15799573D01*
X123238092Y-15942430D01*
X122952378Y-16085287D01*
X122380949Y-16085287D01*
X122095235Y-15942430D01*
X121952378Y-15799573D01*
X121809521Y-15513858D01*
X121809521Y-14942430D01*
X121952378Y-14656715D01*
X122095235Y-14513858D01*
X122380949Y-14371001D01*
X111208331Y-13085287D02*
X109208331Y-13085287D01*
X110494045Y-16085287D01*
X97178569Y-13085287D02*
X97749998Y-13085287D01*
X98035712Y-13228144D01*
X98178569Y-13371001D01*
X98464283Y-13799573D01*
X98607140Y-14371001D01*
X98607140Y-15513858D01*
X98464283Y-15799573D01*
X98321426Y-15942430D01*
X98035712Y-16085287D01*
X97464283Y-16085287D01*
X97178569Y-15942430D01*
X97035712Y-15799573D01*
X96892855Y-15513858D01*
X96892855Y-14799573D01*
X97035712Y-14513858D01*
X97178569Y-14371001D01*
X97464283Y-14228144D01*
X98035712Y-14228144D01*
X98321426Y-14371001D01*
X98464283Y-14513858D01*
X98607140Y-14799573D01*
X84577379Y-13085287D02*
X86005950Y-13085287D01*
X86148807Y-14513858D01*
X86005950Y-14371001D01*
X85720236Y-14228144D01*
X85005950Y-14228144D01*
X84720236Y-14371001D01*
X84577379Y-14513858D01*
X84434522Y-14799573D01*
X84434522Y-15513858D01*
X84577379Y-15799573D01*
X84720236Y-15942430D01*
X85005950Y-16085287D01*
X85720236Y-16085287D01*
X86005950Y-15942430D01*
X86148807Y-15799573D01*
X72261903Y-14085287D02*
X72261903Y-16085287D01*
X72976189Y-12942430D02*
X73690474Y-15085287D01*
X71833332Y-15085287D01*
X61374999Y-13085287D02*
X59517856Y-13085287D01*
X60517856Y-14228144D01*
X60089284Y-14228144D01*
X59803570Y-14371001D01*
X59660713Y-14513858D01*
X59517856Y-14799573D01*
X59517856Y-15513858D01*
X59660713Y-15799573D01*
X59803570Y-15942430D01*
X60089284Y-16085287D01*
X60946427Y-16085287D01*
X61232141Y-15942430D01*
X61374999Y-15799573D01*
X48773808Y-13371001D02*
X48630951Y-13228144D01*
X48345237Y-13085287D01*
X47630951Y-13085287D01*
X47345237Y-13228144D01*
X47202380Y-13371001D01*
X47059523Y-13656715D01*
X47059523Y-13942430D01*
X47202380Y-14371001D01*
X48916666Y-16085287D01*
X47059523Y-16085287D01*
X34601190Y-16085287D02*
X36315475Y-16085287D01*
X35458333Y-16085287D02*
X35458333Y-13085287D01*
X35744047Y-13513858D01*
X36029761Y-13799573D01*
X36315475Y-13942430D01*
X23392857Y-13107143D02*
X23107142Y-13107143D01*
X22821428Y-13250000D01*
X22678571Y-13392857D01*
X22535714Y-13678571D01*
X22392857Y-14250000D01*
X22392857Y-14964286D01*
X22535714Y-15535714D01*
X22678571Y-15821429D01*
X22821428Y-15964286D01*
X23107142Y-16107143D01*
X23392857Y-16107143D01*
X23678571Y-15964286D01*
X23821428Y-15821429D01*
X23964285Y-15535714D01*
X24107142Y-14964286D01*
X24107142Y-14250000D01*
X23964285Y-13678571D01*
X23821428Y-13392857D01*
X23678571Y-13250000D01*
X23392857Y-13107143D01*
D12*
X172000000Y-424000000D02*
X173000000Y-424000000D01*
X159500000Y-424000000D02*
X160500000Y-424000000D01*
X147000000Y-424000000D02*
X148000000Y-424000000D01*
X134500000Y-424000000D02*
X135500000Y-424000000D01*
X122000000Y-424000000D02*
X123000000Y-424000000D01*
X109500000Y-424000000D02*
X110500000Y-424000000D01*
X97000000Y-424000000D02*
X98000000Y-424000000D01*
X84500000Y-424000000D02*
X85500000Y-424000000D01*
X72000000Y-424000000D02*
X73000000Y-424000000D01*
X59500000Y-424000000D02*
X60500000Y-424000000D01*
X47000000Y-424000000D02*
X48000000Y-424000000D01*
X34500000Y-424000000D02*
X35500000Y-424000000D01*
X22000000Y-424000000D02*
X23000000Y-424000000D01*
X172000000Y-392000000D02*
X173000000Y-392000000D01*
X159500000Y-392000000D02*
X160500000Y-392000000D01*
X147000000Y-392000000D02*
X148000000Y-392000000D01*
X134500000Y-392000000D02*
X135500000Y-392000000D01*
X122000000Y-392000000D02*
X123000000Y-392000000D01*
X109500000Y-392000000D02*
X110500000Y-392000000D01*
X97000000Y-392000000D02*
X98000000Y-392000000D01*
X84500000Y-392000000D02*
X85500000Y-392000000D01*
X72000000Y-392000000D02*
X73000000Y-392000000D01*
X59500000Y-392000000D02*
X60500000Y-392000000D01*
X47000000Y-392000000D02*
X48000000Y-392000000D01*
X34500000Y-392000000D02*
X35500000Y-392000000D01*
X22000000Y-392000000D02*
X23000000Y-392000000D01*
X172000000Y-360000000D02*
X173000000Y-360000000D01*
X159500000Y-360000000D02*
X160500000Y-360000000D01*
X147000000Y-360000000D02*
X148000000Y-360000000D01*
X134500000Y-360000000D02*
X135500000Y-360000000D01*
X122000000Y-360000000D02*
X123000000Y-360000000D01*
X109500000Y-360000000D02*
X110500000Y-360000000D01*
X97000000Y-360000000D02*
X98000000Y-360000000D01*
X84500000Y-360000000D02*
X85500000Y-360000000D01*
X72000000Y-360000000D02*
X73000000Y-360000000D01*
X59500000Y-360000000D02*
X60500000Y-360000000D01*
X47000000Y-360000000D02*
X48000000Y-360000000D01*
X34500000Y-360000000D02*
X35500000Y-360000000D01*
X22000000Y-360000000D02*
X23000000Y-360000000D01*
X172000000Y-328000000D02*
X173000000Y-328000000D01*
X159500000Y-328000000D02*
X160500000Y-328000000D01*
X147000000Y-328000000D02*
X148000000Y-328000000D01*
X134500000Y-328000000D02*
X135500000Y-328000000D01*
X122000000Y-328000000D02*
X123000000Y-328000000D01*
X109500000Y-328000000D02*
X110500000Y-328000000D01*
X97000000Y-328000000D02*
X98000000Y-328000000D01*
X84500000Y-328000000D02*
X85500000Y-328000000D01*
X72000000Y-328000000D02*
X73000000Y-328000000D01*
X59500000Y-328000000D02*
X60500000Y-328000000D01*
X47000000Y-328000000D02*
X48000000Y-328000000D01*
X34500000Y-328000000D02*
X35500000Y-328000000D01*
X22000000Y-328000000D02*
X23000000Y-328000000D01*
X172000000Y-296000000D02*
X173000000Y-296000000D01*
X159500000Y-296000000D02*
X160500000Y-296000000D01*
X147000000Y-296000000D02*
X148000000Y-296000000D01*
X134500000Y-296000000D02*
X135500000Y-296000000D01*
X122000000Y-296000000D02*
X123000000Y-296000000D01*
X109500000Y-296000000D02*
X110500000Y-296000000D01*
X97000000Y-296000000D02*
X98000000Y-296000000D01*
X84500000Y-296000000D02*
X85500000Y-296000000D01*
X72000000Y-296000000D02*
X73000000Y-296000000D01*
X59500000Y-296000000D02*
X60500000Y-296000000D01*
X47000000Y-296000000D02*
X48000000Y-296000000D01*
X34500000Y-296000000D02*
X35500000Y-296000000D01*
X22000000Y-296000000D02*
X23000000Y-296000000D01*
X172000000Y-264000000D02*
X173000000Y-264000000D01*
X159500000Y-264000000D02*
X160500000Y-264000000D01*
X147000000Y-264000000D02*
X148000000Y-264000000D01*
X134500000Y-264000000D02*
X135500000Y-264000000D01*
X122000000Y-264000000D02*
X123000000Y-264000000D01*
X109500000Y-264000000D02*
X110500000Y-264000000D01*
X97000000Y-264000000D02*
X98000000Y-264000000D01*
X84500000Y-264000000D02*
X85500000Y-264000000D01*
X72000000Y-264000000D02*
X73000000Y-264000000D01*
X59500000Y-264000000D02*
X60500000Y-264000000D01*
X47000000Y-264000000D02*
X48000000Y-264000000D01*
X34500000Y-264000000D02*
X35500000Y-264000000D01*
X22000000Y-264000000D02*
X23000000Y-264000000D01*
X172000000Y-232000000D02*
X173000000Y-232000000D01*
X159500000Y-232000000D02*
X160500000Y-232000000D01*
X147000000Y-232000000D02*
X148000000Y-232000000D01*
X134500000Y-232000000D02*
X135500000Y-232000000D01*
X122000000Y-232000000D02*
X123000000Y-232000000D01*
X109500000Y-232000000D02*
X110500000Y-232000000D01*
X97000000Y-232000000D02*
X98000000Y-232000000D01*
X84500000Y-232000000D02*
X85500000Y-232000000D01*
X72000000Y-232000000D02*
X73000000Y-232000000D01*
X59500000Y-232000000D02*
X60500000Y-232000000D01*
X47000000Y-232000000D02*
X48000000Y-232000000D01*
X34500000Y-232000000D02*
X35500000Y-232000000D01*
X22000000Y-232000000D02*
X23000000Y-232000000D01*
X172000000Y-200000000D02*
X173000000Y-200000000D01*
X159500000Y-200000000D02*
X160500000Y-200000000D01*
X147000000Y-200000000D02*
X148000000Y-200000000D01*
X134500000Y-200000000D02*
X135500000Y-200000000D01*
X122000000Y-200000000D02*
X123000000Y-200000000D01*
X109500000Y-200000000D02*
X110500000Y-200000000D01*
X97000000Y-200000000D02*
X98000000Y-200000000D01*
X84500000Y-200000000D02*
X85500000Y-200000000D01*
X72000000Y-200000000D02*
X73000000Y-200000000D01*
X59500000Y-200000000D02*
X60500000Y-200000000D01*
X47000000Y-200000000D02*
X48000000Y-200000000D01*
X34500000Y-200000000D02*
X35500000Y-200000000D01*
X22000000Y-200000000D02*
X23000000Y-200000000D01*
X172000000Y-168000000D02*
X173000000Y-168000000D01*
X159500000Y-168000000D02*
X160500000Y-168000000D01*
X147000000Y-168000000D02*
X148000000Y-168000000D01*
X134500000Y-168000000D02*
X135500000Y-168000000D01*
X122000000Y-168000000D02*
X123000000Y-168000000D01*
X109500000Y-168000000D02*
X110500000Y-168000000D01*
X97000000Y-168000000D02*
X98000000Y-168000000D01*
X84500000Y-168000000D02*
X85500000Y-168000000D01*
X72000000Y-168000000D02*
X73000000Y-168000000D01*
X59500000Y-168000000D02*
X60500000Y-168000000D01*
X47000000Y-168000000D02*
X48000000Y-168000000D01*
X34500000Y-168000000D02*
X35500000Y-168000000D01*
X22000000Y-168000000D02*
X23000000Y-168000000D01*
X172000000Y-136000000D02*
X173000000Y-136000000D01*
X159500000Y-136000000D02*
X160500000Y-136000000D01*
X147000000Y-136000000D02*
X148000000Y-136000000D01*
X134500000Y-136000000D02*
X135500000Y-136000000D01*
X122000000Y-136000000D02*
X123000000Y-136000000D01*
X109500000Y-136000000D02*
X110500000Y-136000000D01*
X97000000Y-136000000D02*
X98000000Y-136000000D01*
X84500000Y-136000000D02*
X85500000Y-136000000D01*
X72000000Y-136000000D02*
X73000000Y-136000000D01*
X59500000Y-136000000D02*
X60500000Y-136000000D01*
X47000000Y-136000000D02*
X48000000Y-136000000D01*
X34500000Y-136000000D02*
X35500000Y-136000000D01*
X22000000Y-136000000D02*
X23000000Y-136000000D01*
X172000000Y-104000000D02*
X173000000Y-104000000D01*
X159500000Y-104000000D02*
X160500000Y-104000000D01*
X147000000Y-104000000D02*
X148000000Y-104000000D01*
X134500000Y-104000000D02*
X135500000Y-104000000D01*
X122000000Y-104000000D02*
X123000000Y-104000000D01*
X109500000Y-104000000D02*
X110500000Y-104000000D01*
X97000000Y-104000000D02*
X98000000Y-104000000D01*
X84500000Y-104000000D02*
X85500000Y-104000000D01*
X72000000Y-104000000D02*
X73000000Y-104000000D01*
X59500000Y-104000000D02*
X60500000Y-104000000D01*
X47000000Y-104000000D02*
X48000000Y-104000000D01*
X34500000Y-104000000D02*
X35500000Y-104000000D01*
X22000000Y-104000000D02*
X23000000Y-104000000D01*
X172000000Y-72000000D02*
X173000000Y-72000000D01*
X159500000Y-72000000D02*
X160500000Y-72000000D01*
X147000000Y-72000000D02*
X148000000Y-72000000D01*
X134500000Y-72000000D02*
X135500000Y-72000000D01*
X122000000Y-72000000D02*
X123000000Y-72000000D01*
X109500000Y-72000000D02*
X110500000Y-72000000D01*
X97000000Y-72000000D02*
X98000000Y-72000000D01*
X84500000Y-72000000D02*
X85500000Y-72000000D01*
X72000000Y-72000000D02*
X73000000Y-72000000D01*
X59500000Y-72000000D02*
X60500000Y-72000000D01*
X47000000Y-72000000D02*
X48000000Y-72000000D01*
X34500000Y-72000000D02*
X35500000Y-72000000D01*
X22000000Y-72000000D02*
X23000000Y-72000000D01*
X172000000Y-40000000D02*
X173000000Y-40000000D01*
X159500000Y-40000000D02*
X160500000Y-40000000D01*
X147000000Y-40000000D02*
X148000000Y-40000000D01*
X134500000Y-40000000D02*
X135500000Y-40000000D01*
X122000000Y-40000000D02*
X123000000Y-40000000D01*
X109500000Y-40000000D02*
X110500000Y-40000000D01*
X97000000Y-40000000D02*
X98000000Y-40000000D01*
X84500000Y-40000000D02*
X85500000Y-40000000D01*
X72000000Y-40000000D02*
X73000000Y-40000000D01*
X59500000Y-40000000D02*
X60500000Y-40000000D01*
X47000000Y-40000000D02*
X48000000Y-40000000D01*
X34500000Y-40000000D02*
X35500000Y-40000000D01*
D11*
X174428571Y-428428571D02*
X174428571Y-426928571D01*
X173928571Y-428000000D01*
X173428571Y-426928571D01*
X173428571Y-428428571D01*
X171928571Y-428428571D02*
X172785714Y-428428571D01*
X172357142Y-428428571D02*
X172357142Y-426928571D01*
X172499999Y-427142857D01*
X172642857Y-427285714D01*
X172785714Y-427357143D01*
X171357143Y-427071429D02*
X171285714Y-427000000D01*
X171142857Y-426928571D01*
X170785714Y-426928571D01*
X170642857Y-427000000D01*
X170571428Y-427071429D01*
X170500000Y-427214286D01*
X170500000Y-427357143D01*
X170571428Y-427571429D01*
X171428571Y-428428571D01*
X170500000Y-428428571D01*
X161928571Y-428428571D02*
X161928571Y-426928571D01*
X161428571Y-428000000D01*
X160928571Y-426928571D01*
X160928571Y-428428571D01*
X159428571Y-428428571D02*
X160285714Y-428428571D01*
X159857142Y-428428571D02*
X159857142Y-426928571D01*
X159999999Y-427142857D01*
X160142857Y-427285714D01*
X160285714Y-427357143D01*
X158000000Y-428428571D02*
X158857143Y-428428571D01*
X158428571Y-428428571D02*
X158428571Y-426928571D01*
X158571428Y-427142857D01*
X158714286Y-427285714D01*
X158857143Y-427357143D01*
X149428571Y-428428571D02*
X149428571Y-426928571D01*
X148928571Y-428000000D01*
X148428571Y-426928571D01*
X148428571Y-428428571D01*
X146928571Y-428428571D02*
X147785714Y-428428571D01*
X147357142Y-428428571D02*
X147357142Y-426928571D01*
X147499999Y-427142857D01*
X147642857Y-427285714D01*
X147785714Y-427357143D01*
X146000000Y-426928571D02*
X145857143Y-426928571D01*
X145714286Y-427000000D01*
X145642857Y-427071429D01*
X145571428Y-427214286D01*
X145500000Y-427500000D01*
X145500000Y-427857143D01*
X145571428Y-428142857D01*
X145642857Y-428285714D01*
X145714286Y-428357143D01*
X145857143Y-428428571D01*
X146000000Y-428428571D01*
X146142857Y-428357143D01*
X146214286Y-428285714D01*
X146285714Y-428142857D01*
X146357143Y-427857143D01*
X146357143Y-427500000D01*
X146285714Y-427214286D01*
X146214286Y-427071429D01*
X146142857Y-427000000D01*
X146000000Y-426928571D01*
X136214285Y-428428571D02*
X136214285Y-426928571D01*
X135714285Y-428000000D01*
X135214285Y-426928571D01*
X135214285Y-428428571D01*
X134428571Y-428428571D02*
X134142856Y-428428571D01*
X133999999Y-428357143D01*
X133928571Y-428285714D01*
X133785713Y-428071429D01*
X133714285Y-427785714D01*
X133714285Y-427214286D01*
X133785713Y-427071429D01*
X133857142Y-427000000D01*
X133999999Y-426928571D01*
X134285713Y-426928571D01*
X134428571Y-427000000D01*
X134499999Y-427071429D01*
X134571428Y-427214286D01*
X134571428Y-427571429D01*
X134499999Y-427714286D01*
X134428571Y-427785714D01*
X134285713Y-427857143D01*
X133999999Y-427857143D01*
X133857142Y-427785714D01*
X133785713Y-427714286D01*
X133714285Y-427571429D01*
X123714285Y-428428571D02*
X123714285Y-426928571D01*
X123214285Y-428000000D01*
X122714285Y-426928571D01*
X122714285Y-428428571D01*
X121785713Y-427571429D02*
X121928571Y-427500000D01*
X121999999Y-427428571D01*
X122071428Y-427285714D01*
X122071428Y-427214286D01*
X121999999Y-427071429D01*
X121928571Y-427000000D01*
X121785713Y-426928571D01*
X121499999Y-426928571D01*
X121357142Y-427000000D01*
X121285713Y-427071429D01*
X121214285Y-427214286D01*
X121214285Y-427285714D01*
X121285713Y-427428571D01*
X121357142Y-427500000D01*
X121499999Y-427571429D01*
X121785713Y-427571429D01*
X121928571Y-427642857D01*
X121999999Y-427714286D01*
X122071428Y-427857143D01*
X122071428Y-428142857D01*
X121999999Y-428285714D01*
X121928571Y-428357143D01*
X121785713Y-428428571D01*
X121499999Y-428428571D01*
X121357142Y-428357143D01*
X121285713Y-428285714D01*
X121214285Y-428142857D01*
X121214285Y-427857143D01*
X121285713Y-427714286D01*
X121357142Y-427642857D01*
X121499999Y-427571429D01*
X111214285Y-428428571D02*
X111214285Y-426928571D01*
X110714285Y-428000000D01*
X110214285Y-426928571D01*
X110214285Y-428428571D01*
X109642856Y-426928571D02*
X108642856Y-426928571D01*
X109285713Y-428428571D01*
X98714285Y-428428571D02*
X98714285Y-426928571D01*
X98214285Y-428000000D01*
X97714285Y-426928571D01*
X97714285Y-428428571D01*
X96357142Y-426928571D02*
X96642856Y-426928571D01*
X96785713Y-427000000D01*
X96857142Y-427071429D01*
X96999999Y-427285714D01*
X97071428Y-427571429D01*
X97071428Y-428142857D01*
X96999999Y-428285714D01*
X96928571Y-428357143D01*
X96785713Y-428428571D01*
X96499999Y-428428571D01*
X96357142Y-428357143D01*
X96285713Y-428285714D01*
X96214285Y-428142857D01*
X96214285Y-427785714D01*
X96285713Y-427642857D01*
X96357142Y-427571429D01*
X96499999Y-427500000D01*
X96785713Y-427500000D01*
X96928571Y-427571429D01*
X96999999Y-427642857D01*
X97071428Y-427785714D01*
X86214285Y-428428571D02*
X86214285Y-426928571D01*
X85714285Y-428000000D01*
X85214285Y-426928571D01*
X85214285Y-428428571D01*
X83785713Y-426928571D02*
X84499999Y-426928571D01*
X84571428Y-427642857D01*
X84499999Y-427571429D01*
X84357142Y-427500000D01*
X83999999Y-427500000D01*
X83857142Y-427571429D01*
X83785713Y-427642857D01*
X83714285Y-427785714D01*
X83714285Y-428142857D01*
X83785713Y-428285714D01*
X83857142Y-428357143D01*
X83999999Y-428428571D01*
X84357142Y-428428571D01*
X84499999Y-428357143D01*
X84571428Y-428285714D01*
X73714285Y-428428571D02*
X73714285Y-426928571D01*
X73214285Y-428000000D01*
X72714285Y-426928571D01*
X72714285Y-428428571D01*
X71357142Y-427428571D02*
X71357142Y-428428571D01*
X71714285Y-426857143D02*
X72071428Y-427928571D01*
X71142856Y-427928571D01*
X61214285Y-428428571D02*
X61214285Y-426928571D01*
X60714285Y-428000000D01*
X60214285Y-426928571D01*
X60214285Y-428428571D01*
X59642856Y-426928571D02*
X58714285Y-426928571D01*
X59214285Y-427500000D01*
X58999999Y-427500000D01*
X58857142Y-427571429D01*
X58785713Y-427642857D01*
X58714285Y-427785714D01*
X58714285Y-428142857D01*
X58785713Y-428285714D01*
X58857142Y-428357143D01*
X58999999Y-428428571D01*
X59428571Y-428428571D01*
X59571428Y-428357143D01*
X59642856Y-428285714D01*
X48714285Y-428428571D02*
X48714285Y-426928571D01*
X48214285Y-428000000D01*
X47714285Y-426928571D01*
X47714285Y-428428571D01*
X47071428Y-427071429D02*
X46999999Y-427000000D01*
X46857142Y-426928571D01*
X46499999Y-426928571D01*
X46357142Y-427000000D01*
X46285713Y-427071429D01*
X46214285Y-427214286D01*
X46214285Y-427357143D01*
X46285713Y-427571429D01*
X47142856Y-428428571D01*
X46214285Y-428428571D01*
X36214285Y-428428571D02*
X36214285Y-426928571D01*
X35714285Y-428000000D01*
X35214285Y-426928571D01*
X35214285Y-428428571D01*
X33714285Y-428428571D02*
X34571428Y-428428571D01*
X34142856Y-428428571D02*
X34142856Y-426928571D01*
X34285713Y-427142857D01*
X34428571Y-427285714D01*
X34571428Y-427357143D01*
X23714285Y-428428571D02*
X23714285Y-426928571D01*
X23214285Y-428000000D01*
X22714285Y-426928571D01*
X22714285Y-428428571D01*
X21714285Y-426928571D02*
X21571428Y-426928571D01*
X21428571Y-427000000D01*
X21357142Y-427071429D01*
X21285713Y-427214286D01*
X21214285Y-427500000D01*
X21214285Y-427857143D01*
X21285713Y-428142857D01*
X21357142Y-428285714D01*
X21428571Y-428357143D01*
X21571428Y-428428571D01*
X21714285Y-428428571D01*
X21857142Y-428357143D01*
X21928571Y-428285714D01*
X21999999Y-428142857D01*
X22071428Y-427857143D01*
X22071428Y-427500000D01*
X21999999Y-427214286D01*
X21928571Y-427071429D01*
X21857142Y-427000000D01*
X21714285Y-426928571D01*
X173464285Y-396428571D02*
X174178571Y-396428571D01*
X174178571Y-394928571D01*
X172178571Y-396428571D02*
X173035714Y-396428571D01*
X172607142Y-396428571D02*
X172607142Y-394928571D01*
X172749999Y-395142857D01*
X172892857Y-395285714D01*
X173035714Y-395357143D01*
X171607143Y-395071429D02*
X171535714Y-395000000D01*
X171392857Y-394928571D01*
X171035714Y-394928571D01*
X170892857Y-395000000D01*
X170821428Y-395071429D01*
X170750000Y-395214286D01*
X170750000Y-395357143D01*
X170821428Y-395571429D01*
X171678571Y-396428571D01*
X170750000Y-396428571D01*
X160964285Y-396428571D02*
X161678571Y-396428571D01*
X161678571Y-394928571D01*
X159678571Y-396428571D02*
X160535714Y-396428571D01*
X160107142Y-396428571D02*
X160107142Y-394928571D01*
X160249999Y-395142857D01*
X160392857Y-395285714D01*
X160535714Y-395357143D01*
X158250000Y-396428571D02*
X159107143Y-396428571D01*
X158678571Y-396428571D02*
X158678571Y-394928571D01*
X158821428Y-395142857D01*
X158964286Y-395285714D01*
X159107143Y-395357143D01*
X148464285Y-396428571D02*
X149178571Y-396428571D01*
X149178571Y-394928571D01*
X147178571Y-396428571D02*
X148035714Y-396428571D01*
X147607142Y-396428571D02*
X147607142Y-394928571D01*
X147749999Y-395142857D01*
X147892857Y-395285714D01*
X148035714Y-395357143D01*
X146250000Y-394928571D02*
X146107143Y-394928571D01*
X145964286Y-395000000D01*
X145892857Y-395071429D01*
X145821428Y-395214286D01*
X145750000Y-395500000D01*
X145750000Y-395857143D01*
X145821428Y-396142857D01*
X145892857Y-396285714D01*
X145964286Y-396357143D01*
X146107143Y-396428571D01*
X146250000Y-396428571D01*
X146392857Y-396357143D01*
X146464286Y-396285714D01*
X146535714Y-396142857D01*
X146607143Y-395857143D01*
X146607143Y-395500000D01*
X146535714Y-395214286D01*
X146464286Y-395071429D01*
X146392857Y-395000000D01*
X146250000Y-394928571D01*
X135249999Y-396428571D02*
X135964285Y-396428571D01*
X135964285Y-394928571D01*
X134678571Y-396428571D02*
X134392856Y-396428571D01*
X134249999Y-396357143D01*
X134178571Y-396285714D01*
X134035713Y-396071429D01*
X133964285Y-395785714D01*
X133964285Y-395214286D01*
X134035713Y-395071429D01*
X134107142Y-395000000D01*
X134249999Y-394928571D01*
X134535713Y-394928571D01*
X134678571Y-395000000D01*
X134749999Y-395071429D01*
X134821428Y-395214286D01*
X134821428Y-395571429D01*
X134749999Y-395714286D01*
X134678571Y-395785714D01*
X134535713Y-395857143D01*
X134249999Y-395857143D01*
X134107142Y-395785714D01*
X134035713Y-395714286D01*
X133964285Y-395571429D01*
X122749999Y-396428571D02*
X123464285Y-396428571D01*
X123464285Y-394928571D01*
X122035713Y-395571429D02*
X122178571Y-395500000D01*
X122249999Y-395428571D01*
X122321428Y-395285714D01*
X122321428Y-395214286D01*
X122249999Y-395071429D01*
X122178571Y-395000000D01*
X122035713Y-394928571D01*
X121749999Y-394928571D01*
X121607142Y-395000000D01*
X121535713Y-395071429D01*
X121464285Y-395214286D01*
X121464285Y-395285714D01*
X121535713Y-395428571D01*
X121607142Y-395500000D01*
X121749999Y-395571429D01*
X122035713Y-395571429D01*
X122178571Y-395642857D01*
X122249999Y-395714286D01*
X122321428Y-395857143D01*
X122321428Y-396142857D01*
X122249999Y-396285714D01*
X122178571Y-396357143D01*
X122035713Y-396428571D01*
X121749999Y-396428571D01*
X121607142Y-396357143D01*
X121535713Y-396285714D01*
X121464285Y-396142857D01*
X121464285Y-395857143D01*
X121535713Y-395714286D01*
X121607142Y-395642857D01*
X121749999Y-395571429D01*
X110249999Y-396428571D02*
X110964285Y-396428571D01*
X110964285Y-394928571D01*
X109892856Y-394928571D02*
X108892856Y-394928571D01*
X109535713Y-396428571D01*
X97749999Y-396428571D02*
X98464285Y-396428571D01*
X98464285Y-394928571D01*
X96607142Y-394928571D02*
X96892856Y-394928571D01*
X97035713Y-395000000D01*
X97107142Y-395071429D01*
X97249999Y-395285714D01*
X97321428Y-395571429D01*
X97321428Y-396142857D01*
X97249999Y-396285714D01*
X97178571Y-396357143D01*
X97035713Y-396428571D01*
X96749999Y-396428571D01*
X96607142Y-396357143D01*
X96535713Y-396285714D01*
X96464285Y-396142857D01*
X96464285Y-395785714D01*
X96535713Y-395642857D01*
X96607142Y-395571429D01*
X96749999Y-395500000D01*
X97035713Y-395500000D01*
X97178571Y-395571429D01*
X97249999Y-395642857D01*
X97321428Y-395785714D01*
X85249999Y-396428571D02*
X85964285Y-396428571D01*
X85964285Y-394928571D01*
X84035713Y-394928571D02*
X84749999Y-394928571D01*
X84821428Y-395642857D01*
X84749999Y-395571429D01*
X84607142Y-395500000D01*
X84249999Y-395500000D01*
X84107142Y-395571429D01*
X84035713Y-395642857D01*
X83964285Y-395785714D01*
X83964285Y-396142857D01*
X84035713Y-396285714D01*
X84107142Y-396357143D01*
X84249999Y-396428571D01*
X84607142Y-396428571D01*
X84749999Y-396357143D01*
X84821428Y-396285714D01*
X72749999Y-396428571D02*
X73464285Y-396428571D01*
X73464285Y-394928571D01*
X71607142Y-395428571D02*
X71607142Y-396428571D01*
X71964285Y-394857143D02*
X72321428Y-395928571D01*
X71392856Y-395928571D01*
X60249999Y-396428571D02*
X60964285Y-396428571D01*
X60964285Y-394928571D01*
X59892856Y-394928571D02*
X58964285Y-394928571D01*
X59464285Y-395500000D01*
X59249999Y-395500000D01*
X59107142Y-395571429D01*
X59035713Y-395642857D01*
X58964285Y-395785714D01*
X58964285Y-396142857D01*
X59035713Y-396285714D01*
X59107142Y-396357143D01*
X59249999Y-396428571D01*
X59678571Y-396428571D01*
X59821428Y-396357143D01*
X59892856Y-396285714D01*
X47749999Y-396428571D02*
X48464285Y-396428571D01*
X48464285Y-394928571D01*
X47321428Y-395071429D02*
X47249999Y-395000000D01*
X47107142Y-394928571D01*
X46749999Y-394928571D01*
X46607142Y-395000000D01*
X46535713Y-395071429D01*
X46464285Y-395214286D01*
X46464285Y-395357143D01*
X46535713Y-395571429D01*
X47392856Y-396428571D01*
X46464285Y-396428571D01*
X35249999Y-396428571D02*
X35964285Y-396428571D01*
X35964285Y-394928571D01*
X33964285Y-396428571D02*
X34821428Y-396428571D01*
X34392856Y-396428571D02*
X34392856Y-394928571D01*
X34535713Y-395142857D01*
X34678571Y-395285714D01*
X34821428Y-395357143D01*
X22749999Y-396428571D02*
X23464285Y-396428571D01*
X23464285Y-394928571D01*
X21964285Y-394928571D02*
X21821428Y-394928571D01*
X21678571Y-395000000D01*
X21607142Y-395071429D01*
X21535713Y-395214286D01*
X21464285Y-395500000D01*
X21464285Y-395857143D01*
X21535713Y-396142857D01*
X21607142Y-396285714D01*
X21678571Y-396357143D01*
X21821428Y-396428571D01*
X21964285Y-396428571D01*
X22107142Y-396357143D01*
X22178571Y-396285714D01*
X22249999Y-396142857D01*
X22321428Y-395857143D01*
X22321428Y-395500000D01*
X22249999Y-395214286D01*
X22178571Y-395071429D01*
X22107142Y-395000000D01*
X21964285Y-394928571D01*
X173714285Y-362928571D02*
X173714285Y-364000000D01*
X173785713Y-364214286D01*
X173928570Y-364357143D01*
X174142856Y-364428571D01*
X174285713Y-364428571D01*
X172214285Y-364428571D02*
X173071428Y-364428571D01*
X172642856Y-364428571D02*
X172642856Y-362928571D01*
X172785713Y-363142857D01*
X172928571Y-363285714D01*
X173071428Y-363357143D01*
X171642857Y-363071429D02*
X171571428Y-363000000D01*
X171428571Y-362928571D01*
X171071428Y-362928571D01*
X170928571Y-363000000D01*
X170857142Y-363071429D01*
X170785714Y-363214286D01*
X170785714Y-363357143D01*
X170857142Y-363571429D01*
X171714285Y-364428571D01*
X170785714Y-364428571D01*
X161214285Y-362928571D02*
X161214285Y-364000000D01*
X161285713Y-364214286D01*
X161428570Y-364357143D01*
X161642856Y-364428571D01*
X161785713Y-364428571D01*
X159714285Y-364428571D02*
X160571428Y-364428571D01*
X160142856Y-364428571D02*
X160142856Y-362928571D01*
X160285713Y-363142857D01*
X160428571Y-363285714D01*
X160571428Y-363357143D01*
X158285714Y-364428571D02*
X159142857Y-364428571D01*
X158714285Y-364428571D02*
X158714285Y-362928571D01*
X158857142Y-363142857D01*
X159000000Y-363285714D01*
X159142857Y-363357143D01*
X148714285Y-362928571D02*
X148714285Y-364000000D01*
X148785713Y-364214286D01*
X148928570Y-364357143D01*
X149142856Y-364428571D01*
X149285713Y-364428571D01*
X147214285Y-364428571D02*
X148071428Y-364428571D01*
X147642856Y-364428571D02*
X147642856Y-362928571D01*
X147785713Y-363142857D01*
X147928571Y-363285714D01*
X148071428Y-363357143D01*
X146285714Y-362928571D02*
X146142857Y-362928571D01*
X146000000Y-363000000D01*
X145928571Y-363071429D01*
X145857142Y-363214286D01*
X145785714Y-363500000D01*
X145785714Y-363857143D01*
X145857142Y-364142857D01*
X145928571Y-364285714D01*
X146000000Y-364357143D01*
X146142857Y-364428571D01*
X146285714Y-364428571D01*
X146428571Y-364357143D01*
X146500000Y-364285714D01*
X146571428Y-364142857D01*
X146642857Y-363857143D01*
X146642857Y-363500000D01*
X146571428Y-363214286D01*
X146500000Y-363071429D01*
X146428571Y-363000000D01*
X146285714Y-362928571D01*
X135500000Y-362928571D02*
X135500000Y-364000000D01*
X135571428Y-364214286D01*
X135714285Y-364357143D01*
X135928571Y-364428571D01*
X136071428Y-364428571D01*
X134714286Y-364428571D02*
X134428571Y-364428571D01*
X134285714Y-364357143D01*
X134214286Y-364285714D01*
X134071428Y-364071429D01*
X134000000Y-363785714D01*
X134000000Y-363214286D01*
X134071428Y-363071429D01*
X134142857Y-363000000D01*
X134285714Y-362928571D01*
X134571428Y-362928571D01*
X134714286Y-363000000D01*
X134785714Y-363071429D01*
X134857143Y-363214286D01*
X134857143Y-363571429D01*
X134785714Y-363714286D01*
X134714286Y-363785714D01*
X134571428Y-363857143D01*
X134285714Y-363857143D01*
X134142857Y-363785714D01*
X134071428Y-363714286D01*
X134000000Y-363571429D01*
X123000000Y-362928571D02*
X123000000Y-364000000D01*
X123071428Y-364214286D01*
X123214285Y-364357143D01*
X123428571Y-364428571D01*
X123571428Y-364428571D01*
X122071428Y-363571429D02*
X122214286Y-363500000D01*
X122285714Y-363428571D01*
X122357143Y-363285714D01*
X122357143Y-363214286D01*
X122285714Y-363071429D01*
X122214286Y-363000000D01*
X122071428Y-362928571D01*
X121785714Y-362928571D01*
X121642857Y-363000000D01*
X121571428Y-363071429D01*
X121500000Y-363214286D01*
X121500000Y-363285714D01*
X121571428Y-363428571D01*
X121642857Y-363500000D01*
X121785714Y-363571429D01*
X122071428Y-363571429D01*
X122214286Y-363642857D01*
X122285714Y-363714286D01*
X122357143Y-363857143D01*
X122357143Y-364142857D01*
X122285714Y-364285714D01*
X122214286Y-364357143D01*
X122071428Y-364428571D01*
X121785714Y-364428571D01*
X121642857Y-364357143D01*
X121571428Y-364285714D01*
X121500000Y-364142857D01*
X121500000Y-363857143D01*
X121571428Y-363714286D01*
X121642857Y-363642857D01*
X121785714Y-363571429D01*
X110500000Y-362928571D02*
X110500000Y-364000000D01*
X110571428Y-364214286D01*
X110714285Y-364357143D01*
X110928571Y-364428571D01*
X111071428Y-364428571D01*
X109928571Y-362928571D02*
X108928571Y-362928571D01*
X109571428Y-364428571D01*
X98000000Y-362928571D02*
X98000000Y-364000000D01*
X98071428Y-364214286D01*
X98214285Y-364357143D01*
X98428571Y-364428571D01*
X98571428Y-364428571D01*
X96642857Y-362928571D02*
X96928571Y-362928571D01*
X97071428Y-363000000D01*
X97142857Y-363071429D01*
X97285714Y-363285714D01*
X97357143Y-363571429D01*
X97357143Y-364142857D01*
X97285714Y-364285714D01*
X97214286Y-364357143D01*
X97071428Y-364428571D01*
X96785714Y-364428571D01*
X96642857Y-364357143D01*
X96571428Y-364285714D01*
X96500000Y-364142857D01*
X96500000Y-363785714D01*
X96571428Y-363642857D01*
X96642857Y-363571429D01*
X96785714Y-363500000D01*
X97071428Y-363500000D01*
X97214286Y-363571429D01*
X97285714Y-363642857D01*
X97357143Y-363785714D01*
X85500000Y-362928571D02*
X85500000Y-364000000D01*
X85571428Y-364214286D01*
X85714285Y-364357143D01*
X85928571Y-364428571D01*
X86071428Y-364428571D01*
X84071428Y-362928571D02*
X84785714Y-362928571D01*
X84857143Y-363642857D01*
X84785714Y-363571429D01*
X84642857Y-363500000D01*
X84285714Y-363500000D01*
X84142857Y-363571429D01*
X84071428Y-363642857D01*
X84000000Y-363785714D01*
X84000000Y-364142857D01*
X84071428Y-364285714D01*
X84142857Y-364357143D01*
X84285714Y-364428571D01*
X84642857Y-364428571D01*
X84785714Y-364357143D01*
X84857143Y-364285714D01*
X73000000Y-362928571D02*
X73000000Y-364000000D01*
X73071428Y-364214286D01*
X73214285Y-364357143D01*
X73428571Y-364428571D01*
X73571428Y-364428571D01*
X71642857Y-363428571D02*
X71642857Y-364428571D01*
X72000000Y-362857143D02*
X72357143Y-363928571D01*
X71428571Y-363928571D01*
X60500000Y-362928571D02*
X60500000Y-364000000D01*
X60571428Y-364214286D01*
X60714285Y-364357143D01*
X60928571Y-364428571D01*
X61071428Y-364428571D01*
X59928571Y-362928571D02*
X59000000Y-362928571D01*
X59500000Y-363500000D01*
X59285714Y-363500000D01*
X59142857Y-363571429D01*
X59071428Y-363642857D01*
X59000000Y-363785714D01*
X59000000Y-364142857D01*
X59071428Y-364285714D01*
X59142857Y-364357143D01*
X59285714Y-364428571D01*
X59714286Y-364428571D01*
X59857143Y-364357143D01*
X59928571Y-364285714D01*
X48000000Y-362928571D02*
X48000000Y-364000000D01*
X48071428Y-364214286D01*
X48214285Y-364357143D01*
X48428571Y-364428571D01*
X48571428Y-364428571D01*
X47357143Y-363071429D02*
X47285714Y-363000000D01*
X47142857Y-362928571D01*
X46785714Y-362928571D01*
X46642857Y-363000000D01*
X46571428Y-363071429D01*
X46500000Y-363214286D01*
X46500000Y-363357143D01*
X46571428Y-363571429D01*
X47428571Y-364428571D01*
X46500000Y-364428571D01*
X36107142Y-364428571D02*
X36107142Y-362928571D01*
X35249999Y-364428571D02*
X35892856Y-363571429D01*
X35249999Y-362928571D02*
X36107142Y-363785714D01*
X33821428Y-364428571D02*
X34678571Y-364428571D01*
X34249999Y-364428571D02*
X34249999Y-362928571D01*
X34392856Y-363142857D01*
X34535714Y-363285714D01*
X34678571Y-363357143D01*
X23607142Y-364428571D02*
X23607142Y-362928571D01*
X22749999Y-364428571D02*
X23392856Y-363571429D01*
X22749999Y-362928571D02*
X23607142Y-363785714D01*
X21821428Y-362928571D02*
X21678571Y-362928571D01*
X21535714Y-363000000D01*
X21464285Y-363071429D01*
X21392856Y-363214286D01*
X21321428Y-363500000D01*
X21321428Y-363857143D01*
X21392856Y-364142857D01*
X21464285Y-364285714D01*
X21535714Y-364357143D01*
X21678571Y-364428571D01*
X21821428Y-364428571D01*
X21964285Y-364357143D01*
X22035714Y-364285714D01*
X22107142Y-364142857D01*
X22178571Y-363857143D01*
X22178571Y-363500000D01*
X22107142Y-363214286D01*
X22035714Y-363071429D01*
X21964285Y-363000000D01*
X21821428Y-362928571D01*
X173714285Y-330928571D02*
X173714285Y-332000000D01*
X173785713Y-332214286D01*
X173928570Y-332357143D01*
X174142856Y-332428571D01*
X174285713Y-332428571D01*
X172214285Y-332428571D02*
X173071428Y-332428571D01*
X172642856Y-332428571D02*
X172642856Y-330928571D01*
X172785713Y-331142857D01*
X172928571Y-331285714D01*
X173071428Y-331357143D01*
X171642857Y-331071429D02*
X171571428Y-331000000D01*
X171428571Y-330928571D01*
X171071428Y-330928571D01*
X170928571Y-331000000D01*
X170857142Y-331071429D01*
X170785714Y-331214286D01*
X170785714Y-331357143D01*
X170857142Y-331571429D01*
X171714285Y-332428571D01*
X170785714Y-332428571D01*
X161214285Y-330928571D02*
X161214285Y-332000000D01*
X161285713Y-332214286D01*
X161428570Y-332357143D01*
X161642856Y-332428571D01*
X161785713Y-332428571D01*
X159714285Y-332428571D02*
X160571428Y-332428571D01*
X160142856Y-332428571D02*
X160142856Y-330928571D01*
X160285713Y-331142857D01*
X160428571Y-331285714D01*
X160571428Y-331357143D01*
X158285714Y-332428571D02*
X159142857Y-332428571D01*
X158714285Y-332428571D02*
X158714285Y-330928571D01*
X158857142Y-331142857D01*
X159000000Y-331285714D01*
X159142857Y-331357143D01*
X148714285Y-330928571D02*
X148714285Y-332000000D01*
X148785713Y-332214286D01*
X148928570Y-332357143D01*
X149142856Y-332428571D01*
X149285713Y-332428571D01*
X147214285Y-332428571D02*
X148071428Y-332428571D01*
X147642856Y-332428571D02*
X147642856Y-330928571D01*
X147785713Y-331142857D01*
X147928571Y-331285714D01*
X148071428Y-331357143D01*
X146285714Y-330928571D02*
X146142857Y-330928571D01*
X146000000Y-331000000D01*
X145928571Y-331071429D01*
X145857142Y-331214286D01*
X145785714Y-331500000D01*
X145785714Y-331857143D01*
X145857142Y-332142857D01*
X145928571Y-332285714D01*
X146000000Y-332357143D01*
X146142857Y-332428571D01*
X146285714Y-332428571D01*
X146428571Y-332357143D01*
X146500000Y-332285714D01*
X146571428Y-332142857D01*
X146642857Y-331857143D01*
X146642857Y-331500000D01*
X146571428Y-331214286D01*
X146500000Y-331071429D01*
X146428571Y-331000000D01*
X146285714Y-330928571D01*
X135500000Y-330928571D02*
X135500000Y-332000000D01*
X135571428Y-332214286D01*
X135714285Y-332357143D01*
X135928571Y-332428571D01*
X136071428Y-332428571D01*
X134714286Y-332428571D02*
X134428571Y-332428571D01*
X134285714Y-332357143D01*
X134214286Y-332285714D01*
X134071428Y-332071429D01*
X134000000Y-331785714D01*
X134000000Y-331214286D01*
X134071428Y-331071429D01*
X134142857Y-331000000D01*
X134285714Y-330928571D01*
X134571428Y-330928571D01*
X134714286Y-331000000D01*
X134785714Y-331071429D01*
X134857143Y-331214286D01*
X134857143Y-331571429D01*
X134785714Y-331714286D01*
X134714286Y-331785714D01*
X134571428Y-331857143D01*
X134285714Y-331857143D01*
X134142857Y-331785714D01*
X134071428Y-331714286D01*
X134000000Y-331571429D01*
X123000000Y-330928571D02*
X123000000Y-332000000D01*
X123071428Y-332214286D01*
X123214285Y-332357143D01*
X123428571Y-332428571D01*
X123571428Y-332428571D01*
X122071428Y-331571429D02*
X122214286Y-331500000D01*
X122285714Y-331428571D01*
X122357143Y-331285714D01*
X122357143Y-331214286D01*
X122285714Y-331071429D01*
X122214286Y-331000000D01*
X122071428Y-330928571D01*
X121785714Y-330928571D01*
X121642857Y-331000000D01*
X121571428Y-331071429D01*
X121500000Y-331214286D01*
X121500000Y-331285714D01*
X121571428Y-331428571D01*
X121642857Y-331500000D01*
X121785714Y-331571429D01*
X122071428Y-331571429D01*
X122214286Y-331642857D01*
X122285714Y-331714286D01*
X122357143Y-331857143D01*
X122357143Y-332142857D01*
X122285714Y-332285714D01*
X122214286Y-332357143D01*
X122071428Y-332428571D01*
X121785714Y-332428571D01*
X121642857Y-332357143D01*
X121571428Y-332285714D01*
X121500000Y-332142857D01*
X121500000Y-331857143D01*
X121571428Y-331714286D01*
X121642857Y-331642857D01*
X121785714Y-331571429D01*
X110500000Y-330928571D02*
X110500000Y-332000000D01*
X110571428Y-332214286D01*
X110714285Y-332357143D01*
X110928571Y-332428571D01*
X111071428Y-332428571D01*
X109928571Y-330928571D02*
X108928571Y-330928571D01*
X109571428Y-332428571D01*
X98000000Y-330928571D02*
X98000000Y-332000000D01*
X98071428Y-332214286D01*
X98214285Y-332357143D01*
X98428571Y-332428571D01*
X98571428Y-332428571D01*
X96642857Y-330928571D02*
X96928571Y-330928571D01*
X97071428Y-331000000D01*
X97142857Y-331071429D01*
X97285714Y-331285714D01*
X97357143Y-331571429D01*
X97357143Y-332142857D01*
X97285714Y-332285714D01*
X97214286Y-332357143D01*
X97071428Y-332428571D01*
X96785714Y-332428571D01*
X96642857Y-332357143D01*
X96571428Y-332285714D01*
X96500000Y-332142857D01*
X96500000Y-331785714D01*
X96571428Y-331642857D01*
X96642857Y-331571429D01*
X96785714Y-331500000D01*
X97071428Y-331500000D01*
X97214286Y-331571429D01*
X97285714Y-331642857D01*
X97357143Y-331785714D01*
X85500000Y-330928571D02*
X85500000Y-332000000D01*
X85571428Y-332214286D01*
X85714285Y-332357143D01*
X85928571Y-332428571D01*
X86071428Y-332428571D01*
X84071428Y-330928571D02*
X84785714Y-330928571D01*
X84857143Y-331642857D01*
X84785714Y-331571429D01*
X84642857Y-331500000D01*
X84285714Y-331500000D01*
X84142857Y-331571429D01*
X84071428Y-331642857D01*
X84000000Y-331785714D01*
X84000000Y-332142857D01*
X84071428Y-332285714D01*
X84142857Y-332357143D01*
X84285714Y-332428571D01*
X84642857Y-332428571D01*
X84785714Y-332357143D01*
X84857143Y-332285714D01*
X73000000Y-330928571D02*
X73000000Y-332000000D01*
X73071428Y-332214286D01*
X73214285Y-332357143D01*
X73428571Y-332428571D01*
X73571428Y-332428571D01*
X71642857Y-331428571D02*
X71642857Y-332428571D01*
X72000000Y-330857143D02*
X72357143Y-331928571D01*
X71428571Y-331928571D01*
X60500000Y-330928571D02*
X60500000Y-332000000D01*
X60571428Y-332214286D01*
X60714285Y-332357143D01*
X60928571Y-332428571D01*
X61071428Y-332428571D01*
X59928571Y-330928571D02*
X59000000Y-330928571D01*
X59500000Y-331500000D01*
X59285714Y-331500000D01*
X59142857Y-331571429D01*
X59071428Y-331642857D01*
X59000000Y-331785714D01*
X59000000Y-332142857D01*
X59071428Y-332285714D01*
X59142857Y-332357143D01*
X59285714Y-332428571D01*
X59714286Y-332428571D01*
X59857143Y-332357143D01*
X59928571Y-332285714D01*
X48000000Y-330928571D02*
X48000000Y-332000000D01*
X48071428Y-332214286D01*
X48214285Y-332357143D01*
X48428571Y-332428571D01*
X48571428Y-332428571D01*
X47357143Y-331071429D02*
X47285714Y-331000000D01*
X47142857Y-330928571D01*
X46785714Y-330928571D01*
X46642857Y-331000000D01*
X46571428Y-331071429D01*
X46500000Y-331214286D01*
X46500000Y-331357143D01*
X46571428Y-331571429D01*
X47428571Y-332428571D01*
X46500000Y-332428571D01*
X35500000Y-330928571D02*
X35500000Y-332000000D01*
X35571428Y-332214286D01*
X35714285Y-332357143D01*
X35928571Y-332428571D01*
X36071428Y-332428571D01*
X34000000Y-332428571D02*
X34857143Y-332428571D01*
X34428571Y-332428571D02*
X34428571Y-330928571D01*
X34571428Y-331142857D01*
X34714286Y-331285714D01*
X34857143Y-331357143D01*
X23000000Y-330928571D02*
X23000000Y-332000000D01*
X23071428Y-332214286D01*
X23214285Y-332357143D01*
X23428571Y-332428571D01*
X23571428Y-332428571D01*
X22000000Y-330928571D02*
X21857143Y-330928571D01*
X21714286Y-331000000D01*
X21642857Y-331071429D01*
X21571428Y-331214286D01*
X21500000Y-331500000D01*
X21500000Y-331857143D01*
X21571428Y-332142857D01*
X21642857Y-332285714D01*
X21714286Y-332357143D01*
X21857143Y-332428571D01*
X22000000Y-332428571D01*
X22142857Y-332357143D01*
X22214286Y-332285714D01*
X22285714Y-332142857D01*
X22357143Y-331857143D01*
X22357143Y-331500000D01*
X22285714Y-331214286D01*
X22214286Y-331071429D01*
X22142857Y-331000000D01*
X22000000Y-330928571D01*
X173928571Y-300428571D02*
X173928571Y-298928571D01*
X172428571Y-300428571D02*
X173285714Y-300428571D01*
X172857142Y-300428571D02*
X172857142Y-298928571D01*
X172999999Y-299142857D01*
X173142857Y-299285714D01*
X173285714Y-299357143D01*
X171857143Y-299071429D02*
X171785714Y-299000000D01*
X171642857Y-298928571D01*
X171285714Y-298928571D01*
X171142857Y-299000000D01*
X171071428Y-299071429D01*
X171000000Y-299214286D01*
X171000000Y-299357143D01*
X171071428Y-299571429D01*
X171928571Y-300428571D01*
X171000000Y-300428571D01*
X161428571Y-300428571D02*
X161428571Y-298928571D01*
X159928571Y-300428571D02*
X160785714Y-300428571D01*
X160357142Y-300428571D02*
X160357142Y-298928571D01*
X160499999Y-299142857D01*
X160642857Y-299285714D01*
X160785714Y-299357143D01*
X158500000Y-300428571D02*
X159357143Y-300428571D01*
X158928571Y-300428571D02*
X158928571Y-298928571D01*
X159071428Y-299142857D01*
X159214286Y-299285714D01*
X159357143Y-299357143D01*
X148928571Y-300428571D02*
X148928571Y-298928571D01*
X147428571Y-300428571D02*
X148285714Y-300428571D01*
X147857142Y-300428571D02*
X147857142Y-298928571D01*
X147999999Y-299142857D01*
X148142857Y-299285714D01*
X148285714Y-299357143D01*
X146500000Y-298928571D02*
X146357143Y-298928571D01*
X146214286Y-299000000D01*
X146142857Y-299071429D01*
X146071428Y-299214286D01*
X146000000Y-299500000D01*
X146000000Y-299857143D01*
X146071428Y-300142857D01*
X146142857Y-300285714D01*
X146214286Y-300357143D01*
X146357143Y-300428571D01*
X146500000Y-300428571D01*
X146642857Y-300357143D01*
X146714286Y-300285714D01*
X146785714Y-300142857D01*
X146857143Y-299857143D01*
X146857143Y-299500000D01*
X146785714Y-299214286D01*
X146714286Y-299071429D01*
X146642857Y-299000000D01*
X146500000Y-298928571D01*
X135714285Y-300428571D02*
X135714285Y-298928571D01*
X134928571Y-300428571D02*
X134642856Y-300428571D01*
X134499999Y-300357143D01*
X134428571Y-300285714D01*
X134285713Y-300071429D01*
X134214285Y-299785714D01*
X134214285Y-299214286D01*
X134285713Y-299071429D01*
X134357142Y-299000000D01*
X134499999Y-298928571D01*
X134785713Y-298928571D01*
X134928571Y-299000000D01*
X134999999Y-299071429D01*
X135071428Y-299214286D01*
X135071428Y-299571429D01*
X134999999Y-299714286D01*
X134928571Y-299785714D01*
X134785713Y-299857143D01*
X134499999Y-299857143D01*
X134357142Y-299785714D01*
X134285713Y-299714286D01*
X134214285Y-299571429D01*
X123214285Y-300428571D02*
X123214285Y-298928571D01*
X122285713Y-299571429D02*
X122428571Y-299500000D01*
X122499999Y-299428571D01*
X122571428Y-299285714D01*
X122571428Y-299214286D01*
X122499999Y-299071429D01*
X122428571Y-299000000D01*
X122285713Y-298928571D01*
X121999999Y-298928571D01*
X121857142Y-299000000D01*
X121785713Y-299071429D01*
X121714285Y-299214286D01*
X121714285Y-299285714D01*
X121785713Y-299428571D01*
X121857142Y-299500000D01*
X121999999Y-299571429D01*
X122285713Y-299571429D01*
X122428571Y-299642857D01*
X122499999Y-299714286D01*
X122571428Y-299857143D01*
X122571428Y-300142857D01*
X122499999Y-300285714D01*
X122428571Y-300357143D01*
X122285713Y-300428571D01*
X121999999Y-300428571D01*
X121857142Y-300357143D01*
X121785713Y-300285714D01*
X121714285Y-300142857D01*
X121714285Y-299857143D01*
X121785713Y-299714286D01*
X121857142Y-299642857D01*
X121999999Y-299571429D01*
X110714285Y-300428571D02*
X110714285Y-298928571D01*
X110142856Y-298928571D02*
X109142856Y-298928571D01*
X109785713Y-300428571D01*
X98214285Y-300428571D02*
X98214285Y-298928571D01*
X96857142Y-298928571D02*
X97142856Y-298928571D01*
X97285713Y-299000000D01*
X97357142Y-299071429D01*
X97499999Y-299285714D01*
X97571428Y-299571429D01*
X97571428Y-300142857D01*
X97499999Y-300285714D01*
X97428571Y-300357143D01*
X97285713Y-300428571D01*
X96999999Y-300428571D01*
X96857142Y-300357143D01*
X96785713Y-300285714D01*
X96714285Y-300142857D01*
X96714285Y-299785714D01*
X96785713Y-299642857D01*
X96857142Y-299571429D01*
X96999999Y-299500000D01*
X97285713Y-299500000D01*
X97428571Y-299571429D01*
X97499999Y-299642857D01*
X97571428Y-299785714D01*
X85714285Y-300428571D02*
X85714285Y-298928571D01*
X84285713Y-298928571D02*
X84999999Y-298928571D01*
X85071428Y-299642857D01*
X84999999Y-299571429D01*
X84857142Y-299500000D01*
X84499999Y-299500000D01*
X84357142Y-299571429D01*
X84285713Y-299642857D01*
X84214285Y-299785714D01*
X84214285Y-300142857D01*
X84285713Y-300285714D01*
X84357142Y-300357143D01*
X84499999Y-300428571D01*
X84857142Y-300428571D01*
X84999999Y-300357143D01*
X85071428Y-300285714D01*
X73214285Y-300428571D02*
X73214285Y-298928571D01*
X71857142Y-299428571D02*
X71857142Y-300428571D01*
X72214285Y-298857143D02*
X72571428Y-299928571D01*
X71642856Y-299928571D01*
X60714285Y-300428571D02*
X60714285Y-298928571D01*
X60142856Y-298928571D02*
X59214285Y-298928571D01*
X59714285Y-299500000D01*
X59499999Y-299500000D01*
X59357142Y-299571429D01*
X59285713Y-299642857D01*
X59214285Y-299785714D01*
X59214285Y-300142857D01*
X59285713Y-300285714D01*
X59357142Y-300357143D01*
X59499999Y-300428571D01*
X59928571Y-300428571D01*
X60071428Y-300357143D01*
X60142856Y-300285714D01*
X48214285Y-300428571D02*
X48214285Y-298928571D01*
X47571428Y-299071429D02*
X47499999Y-299000000D01*
X47357142Y-298928571D01*
X46999999Y-298928571D01*
X46857142Y-299000000D01*
X46785713Y-299071429D01*
X46714285Y-299214286D01*
X46714285Y-299357143D01*
X46785713Y-299571429D01*
X47642856Y-300428571D01*
X46714285Y-300428571D01*
X35714285Y-300428571D02*
X35714285Y-298928571D01*
X34214285Y-300428571D02*
X35071428Y-300428571D01*
X34642856Y-300428571D02*
X34642856Y-298928571D01*
X34785713Y-299142857D01*
X34928571Y-299285714D01*
X35071428Y-299357143D01*
X23214285Y-300428571D02*
X23214285Y-298928571D01*
X22214285Y-298928571D02*
X22071428Y-298928571D01*
X21928571Y-299000000D01*
X21857142Y-299071429D01*
X21785713Y-299214286D01*
X21714285Y-299500000D01*
X21714285Y-299857143D01*
X21785713Y-300142857D01*
X21857142Y-300285714D01*
X21928571Y-300357143D01*
X22071428Y-300428571D01*
X22214285Y-300428571D01*
X22357142Y-300357143D01*
X22428571Y-300285714D01*
X22499999Y-300142857D01*
X22571428Y-299857143D01*
X22571428Y-299500000D01*
X22499999Y-299214286D01*
X22428571Y-299071429D01*
X22357142Y-299000000D01*
X22214285Y-298928571D01*
X174357142Y-268428571D02*
X174357142Y-266928571D01*
X174357142Y-267642857D02*
X173499999Y-267642857D01*
X173499999Y-268428571D02*
X173499999Y-266928571D01*
X171999999Y-268428571D02*
X172857142Y-268428571D01*
X172428570Y-268428571D02*
X172428570Y-266928571D01*
X172571427Y-267142857D01*
X172714285Y-267285714D01*
X172857142Y-267357143D01*
X171428571Y-267071429D02*
X171357142Y-267000000D01*
X171214285Y-266928571D01*
X170857142Y-266928571D01*
X170714285Y-267000000D01*
X170642856Y-267071429D01*
X170571428Y-267214286D01*
X170571428Y-267357143D01*
X170642856Y-267571429D01*
X171499999Y-268428571D01*
X170571428Y-268428571D01*
X161857142Y-268428571D02*
X161857142Y-266928571D01*
X161857142Y-267642857D02*
X160999999Y-267642857D01*
X160999999Y-268428571D02*
X160999999Y-266928571D01*
X159499999Y-268428571D02*
X160357142Y-268428571D01*
X159928570Y-268428571D02*
X159928570Y-266928571D01*
X160071427Y-267142857D01*
X160214285Y-267285714D01*
X160357142Y-267357143D01*
X158071428Y-268428571D02*
X158928571Y-268428571D01*
X158499999Y-268428571D02*
X158499999Y-266928571D01*
X158642856Y-267142857D01*
X158785714Y-267285714D01*
X158928571Y-267357143D01*
X149357142Y-268428571D02*
X149357142Y-266928571D01*
X149357142Y-267642857D02*
X148499999Y-267642857D01*
X148499999Y-268428571D02*
X148499999Y-266928571D01*
X146999999Y-268428571D02*
X147857142Y-268428571D01*
X147428570Y-268428571D02*
X147428570Y-266928571D01*
X147571427Y-267142857D01*
X147714285Y-267285714D01*
X147857142Y-267357143D01*
X146071428Y-266928571D02*
X145928571Y-266928571D01*
X145785714Y-267000000D01*
X145714285Y-267071429D01*
X145642856Y-267214286D01*
X145571428Y-267500000D01*
X145571428Y-267857143D01*
X145642856Y-268142857D01*
X145714285Y-268285714D01*
X145785714Y-268357143D01*
X145928571Y-268428571D01*
X146071428Y-268428571D01*
X146214285Y-268357143D01*
X146285714Y-268285714D01*
X146357142Y-268142857D01*
X146428571Y-267857143D01*
X146428571Y-267500000D01*
X146357142Y-267214286D01*
X146285714Y-267071429D01*
X146214285Y-267000000D01*
X146071428Y-266928571D01*
X136142857Y-268428571D02*
X136142857Y-266928571D01*
X136142857Y-267642857D02*
X135285714Y-267642857D01*
X135285714Y-268428571D02*
X135285714Y-266928571D01*
X134500000Y-268428571D02*
X134214285Y-268428571D01*
X134071428Y-268357143D01*
X134000000Y-268285714D01*
X133857142Y-268071429D01*
X133785714Y-267785714D01*
X133785714Y-267214286D01*
X133857142Y-267071429D01*
X133928571Y-267000000D01*
X134071428Y-266928571D01*
X134357142Y-266928571D01*
X134500000Y-267000000D01*
X134571428Y-267071429D01*
X134642857Y-267214286D01*
X134642857Y-267571429D01*
X134571428Y-267714286D01*
X134500000Y-267785714D01*
X134357142Y-267857143D01*
X134071428Y-267857143D01*
X133928571Y-267785714D01*
X133857142Y-267714286D01*
X133785714Y-267571429D01*
X123642857Y-268428571D02*
X123642857Y-266928571D01*
X123642857Y-267642857D02*
X122785714Y-267642857D01*
X122785714Y-268428571D02*
X122785714Y-266928571D01*
X121857142Y-267571429D02*
X122000000Y-267500000D01*
X122071428Y-267428571D01*
X122142857Y-267285714D01*
X122142857Y-267214286D01*
X122071428Y-267071429D01*
X122000000Y-267000000D01*
X121857142Y-266928571D01*
X121571428Y-266928571D01*
X121428571Y-267000000D01*
X121357142Y-267071429D01*
X121285714Y-267214286D01*
X121285714Y-267285714D01*
X121357142Y-267428571D01*
X121428571Y-267500000D01*
X121571428Y-267571429D01*
X121857142Y-267571429D01*
X122000000Y-267642857D01*
X122071428Y-267714286D01*
X122142857Y-267857143D01*
X122142857Y-268142857D01*
X122071428Y-268285714D01*
X122000000Y-268357143D01*
X121857142Y-268428571D01*
X121571428Y-268428571D01*
X121428571Y-268357143D01*
X121357142Y-268285714D01*
X121285714Y-268142857D01*
X121285714Y-267857143D01*
X121357142Y-267714286D01*
X121428571Y-267642857D01*
X121571428Y-267571429D01*
X111142857Y-268428571D02*
X111142857Y-266928571D01*
X111142857Y-267642857D02*
X110285714Y-267642857D01*
X110285714Y-268428571D02*
X110285714Y-266928571D01*
X109714285Y-266928571D02*
X108714285Y-266928571D01*
X109357142Y-268428571D01*
X98642857Y-268428571D02*
X98642857Y-266928571D01*
X98642857Y-267642857D02*
X97785714Y-267642857D01*
X97785714Y-268428571D02*
X97785714Y-266928571D01*
X96428571Y-266928571D02*
X96714285Y-266928571D01*
X96857142Y-267000000D01*
X96928571Y-267071429D01*
X97071428Y-267285714D01*
X97142857Y-267571429D01*
X97142857Y-268142857D01*
X97071428Y-268285714D01*
X97000000Y-268357143D01*
X96857142Y-268428571D01*
X96571428Y-268428571D01*
X96428571Y-268357143D01*
X96357142Y-268285714D01*
X96285714Y-268142857D01*
X96285714Y-267785714D01*
X96357142Y-267642857D01*
X96428571Y-267571429D01*
X96571428Y-267500000D01*
X96857142Y-267500000D01*
X97000000Y-267571429D01*
X97071428Y-267642857D01*
X97142857Y-267785714D01*
X86142857Y-268428571D02*
X86142857Y-266928571D01*
X86142857Y-267642857D02*
X85285714Y-267642857D01*
X85285714Y-268428571D02*
X85285714Y-266928571D01*
X83857142Y-266928571D02*
X84571428Y-266928571D01*
X84642857Y-267642857D01*
X84571428Y-267571429D01*
X84428571Y-267500000D01*
X84071428Y-267500000D01*
X83928571Y-267571429D01*
X83857142Y-267642857D01*
X83785714Y-267785714D01*
X83785714Y-268142857D01*
X83857142Y-268285714D01*
X83928571Y-268357143D01*
X84071428Y-268428571D01*
X84428571Y-268428571D01*
X84571428Y-268357143D01*
X84642857Y-268285714D01*
X73642857Y-268428571D02*
X73642857Y-266928571D01*
X73642857Y-267642857D02*
X72785714Y-267642857D01*
X72785714Y-268428571D02*
X72785714Y-266928571D01*
X71428571Y-267428571D02*
X71428571Y-268428571D01*
X71785714Y-266857143D02*
X72142857Y-267928571D01*
X71214285Y-267928571D01*
X61142857Y-268428571D02*
X61142857Y-266928571D01*
X61142857Y-267642857D02*
X60285714Y-267642857D01*
X60285714Y-268428571D02*
X60285714Y-266928571D01*
X59714285Y-266928571D02*
X58785714Y-266928571D01*
X59285714Y-267500000D01*
X59071428Y-267500000D01*
X58928571Y-267571429D01*
X58857142Y-267642857D01*
X58785714Y-267785714D01*
X58785714Y-268142857D01*
X58857142Y-268285714D01*
X58928571Y-268357143D01*
X59071428Y-268428571D01*
X59500000Y-268428571D01*
X59642857Y-268357143D01*
X59714285Y-268285714D01*
X48642857Y-268428571D02*
X48642857Y-266928571D01*
X48642857Y-267642857D02*
X47785714Y-267642857D01*
X47785714Y-268428571D02*
X47785714Y-266928571D01*
X47142857Y-267071429D02*
X47071428Y-267000000D01*
X46928571Y-266928571D01*
X46571428Y-266928571D01*
X46428571Y-267000000D01*
X46357142Y-267071429D01*
X46285714Y-267214286D01*
X46285714Y-267357143D01*
X46357142Y-267571429D01*
X47214285Y-268428571D01*
X46285714Y-268428571D01*
X36142857Y-268428571D02*
X36142857Y-266928571D01*
X36142857Y-267642857D02*
X35285714Y-267642857D01*
X35285714Y-268428571D02*
X35285714Y-266928571D01*
X33785714Y-268428571D02*
X34642857Y-268428571D01*
X34214285Y-268428571D02*
X34214285Y-266928571D01*
X34357142Y-267142857D01*
X34500000Y-267285714D01*
X34642857Y-267357143D01*
X23642857Y-268428571D02*
X23642857Y-266928571D01*
X23642857Y-267642857D02*
X22785714Y-267642857D01*
X22785714Y-268428571D02*
X22785714Y-266928571D01*
X21785714Y-266928571D02*
X21642857Y-266928571D01*
X21500000Y-267000000D01*
X21428571Y-267071429D01*
X21357142Y-267214286D01*
X21285714Y-267500000D01*
X21285714Y-267857143D01*
X21357142Y-268142857D01*
X21428571Y-268285714D01*
X21500000Y-268357143D01*
X21642857Y-268428571D01*
X21785714Y-268428571D01*
X21928571Y-268357143D01*
X22000000Y-268285714D01*
X22071428Y-268142857D01*
X22142857Y-267857143D01*
X22142857Y-267500000D01*
X22071428Y-267214286D01*
X22000000Y-267071429D01*
X21928571Y-267000000D01*
X21785714Y-266928571D01*
X173535714Y-235000000D02*
X173678571Y-234928571D01*
X173892857Y-234928571D01*
X174107142Y-235000000D01*
X174250000Y-235142857D01*
X174321428Y-235285714D01*
X174392857Y-235571429D01*
X174392857Y-235785714D01*
X174321428Y-236071429D01*
X174250000Y-236214286D01*
X174107142Y-236357143D01*
X173892857Y-236428571D01*
X173750000Y-236428571D01*
X173535714Y-236357143D01*
X173464285Y-236285714D01*
X173464285Y-235785714D01*
X173750000Y-235785714D01*
X172035714Y-236428571D02*
X172892857Y-236428571D01*
X172464285Y-236428571D02*
X172464285Y-234928571D01*
X172607142Y-235142857D01*
X172750000Y-235285714D01*
X172892857Y-235357143D01*
X171464286Y-235071429D02*
X171392857Y-235000000D01*
X171250000Y-234928571D01*
X170892857Y-234928571D01*
X170750000Y-235000000D01*
X170678571Y-235071429D01*
X170607143Y-235214286D01*
X170607143Y-235357143D01*
X170678571Y-235571429D01*
X171535714Y-236428571D01*
X170607143Y-236428571D01*
X161035714Y-235000000D02*
X161178571Y-234928571D01*
X161392857Y-234928571D01*
X161607142Y-235000000D01*
X161750000Y-235142857D01*
X161821428Y-235285714D01*
X161892857Y-235571429D01*
X161892857Y-235785714D01*
X161821428Y-236071429D01*
X161750000Y-236214286D01*
X161607142Y-236357143D01*
X161392857Y-236428571D01*
X161250000Y-236428571D01*
X161035714Y-236357143D01*
X160964285Y-236285714D01*
X160964285Y-235785714D01*
X161250000Y-235785714D01*
X159535714Y-236428571D02*
X160392857Y-236428571D01*
X159964285Y-236428571D02*
X159964285Y-234928571D01*
X160107142Y-235142857D01*
X160250000Y-235285714D01*
X160392857Y-235357143D01*
X158107143Y-236428571D02*
X158964286Y-236428571D01*
X158535714Y-236428571D02*
X158535714Y-234928571D01*
X158678571Y-235142857D01*
X158821429Y-235285714D01*
X158964286Y-235357143D01*
X148535714Y-235000000D02*
X148678571Y-234928571D01*
X148892857Y-234928571D01*
X149107142Y-235000000D01*
X149250000Y-235142857D01*
X149321428Y-235285714D01*
X149392857Y-235571429D01*
X149392857Y-235785714D01*
X149321428Y-236071429D01*
X149250000Y-236214286D01*
X149107142Y-236357143D01*
X148892857Y-236428571D01*
X148750000Y-236428571D01*
X148535714Y-236357143D01*
X148464285Y-236285714D01*
X148464285Y-235785714D01*
X148750000Y-235785714D01*
X147035714Y-236428571D02*
X147892857Y-236428571D01*
X147464285Y-236428571D02*
X147464285Y-234928571D01*
X147607142Y-235142857D01*
X147750000Y-235285714D01*
X147892857Y-235357143D01*
X146107143Y-234928571D02*
X145964286Y-234928571D01*
X145821429Y-235000000D01*
X145750000Y-235071429D01*
X145678571Y-235214286D01*
X145607143Y-235500000D01*
X145607143Y-235857143D01*
X145678571Y-236142857D01*
X145750000Y-236285714D01*
X145821429Y-236357143D01*
X145964286Y-236428571D01*
X146107143Y-236428571D01*
X146250000Y-236357143D01*
X146321429Y-236285714D01*
X146392857Y-236142857D01*
X146464286Y-235857143D01*
X146464286Y-235500000D01*
X146392857Y-235214286D01*
X146321429Y-235071429D01*
X146250000Y-235000000D01*
X146107143Y-234928571D01*
X135321428Y-235000000D02*
X135464285Y-234928571D01*
X135678571Y-234928571D01*
X135892856Y-235000000D01*
X136035714Y-235142857D01*
X136107142Y-235285714D01*
X136178571Y-235571429D01*
X136178571Y-235785714D01*
X136107142Y-236071429D01*
X136035714Y-236214286D01*
X135892856Y-236357143D01*
X135678571Y-236428571D01*
X135535714Y-236428571D01*
X135321428Y-236357143D01*
X135249999Y-236285714D01*
X135249999Y-235785714D01*
X135535714Y-235785714D01*
X134535714Y-236428571D02*
X134249999Y-236428571D01*
X134107142Y-236357143D01*
X134035714Y-236285714D01*
X133892856Y-236071429D01*
X133821428Y-235785714D01*
X133821428Y-235214286D01*
X133892856Y-235071429D01*
X133964285Y-235000000D01*
X134107142Y-234928571D01*
X134392856Y-234928571D01*
X134535714Y-235000000D01*
X134607142Y-235071429D01*
X134678571Y-235214286D01*
X134678571Y-235571429D01*
X134607142Y-235714286D01*
X134535714Y-235785714D01*
X134392856Y-235857143D01*
X134107142Y-235857143D01*
X133964285Y-235785714D01*
X133892856Y-235714286D01*
X133821428Y-235571429D01*
X122821428Y-235000000D02*
X122964285Y-234928571D01*
X123178571Y-234928571D01*
X123392856Y-235000000D01*
X123535714Y-235142857D01*
X123607142Y-235285714D01*
X123678571Y-235571429D01*
X123678571Y-235785714D01*
X123607142Y-236071429D01*
X123535714Y-236214286D01*
X123392856Y-236357143D01*
X123178571Y-236428571D01*
X123035714Y-236428571D01*
X122821428Y-236357143D01*
X122749999Y-236285714D01*
X122749999Y-235785714D01*
X123035714Y-235785714D01*
X121892856Y-235571429D02*
X122035714Y-235500000D01*
X122107142Y-235428571D01*
X122178571Y-235285714D01*
X122178571Y-235214286D01*
X122107142Y-235071429D01*
X122035714Y-235000000D01*
X121892856Y-234928571D01*
X121607142Y-234928571D01*
X121464285Y-235000000D01*
X121392856Y-235071429D01*
X121321428Y-235214286D01*
X121321428Y-235285714D01*
X121392856Y-235428571D01*
X121464285Y-235500000D01*
X121607142Y-235571429D01*
X121892856Y-235571429D01*
X122035714Y-235642857D01*
X122107142Y-235714286D01*
X122178571Y-235857143D01*
X122178571Y-236142857D01*
X122107142Y-236285714D01*
X122035714Y-236357143D01*
X121892856Y-236428571D01*
X121607142Y-236428571D01*
X121464285Y-236357143D01*
X121392856Y-236285714D01*
X121321428Y-236142857D01*
X121321428Y-235857143D01*
X121392856Y-235714286D01*
X121464285Y-235642857D01*
X121607142Y-235571429D01*
X110321428Y-235000000D02*
X110464285Y-234928571D01*
X110678571Y-234928571D01*
X110892856Y-235000000D01*
X111035714Y-235142857D01*
X111107142Y-235285714D01*
X111178571Y-235571429D01*
X111178571Y-235785714D01*
X111107142Y-236071429D01*
X111035714Y-236214286D01*
X110892856Y-236357143D01*
X110678571Y-236428571D01*
X110535714Y-236428571D01*
X110321428Y-236357143D01*
X110249999Y-236285714D01*
X110249999Y-235785714D01*
X110535714Y-235785714D01*
X109749999Y-234928571D02*
X108749999Y-234928571D01*
X109392856Y-236428571D01*
X97821428Y-235000000D02*
X97964285Y-234928571D01*
X98178571Y-234928571D01*
X98392856Y-235000000D01*
X98535714Y-235142857D01*
X98607142Y-235285714D01*
X98678571Y-235571429D01*
X98678571Y-235785714D01*
X98607142Y-236071429D01*
X98535714Y-236214286D01*
X98392856Y-236357143D01*
X98178571Y-236428571D01*
X98035714Y-236428571D01*
X97821428Y-236357143D01*
X97749999Y-236285714D01*
X97749999Y-235785714D01*
X98035714Y-235785714D01*
X96464285Y-234928571D02*
X96749999Y-234928571D01*
X96892856Y-235000000D01*
X96964285Y-235071429D01*
X97107142Y-235285714D01*
X97178571Y-235571429D01*
X97178571Y-236142857D01*
X97107142Y-236285714D01*
X97035714Y-236357143D01*
X96892856Y-236428571D01*
X96607142Y-236428571D01*
X96464285Y-236357143D01*
X96392856Y-236285714D01*
X96321428Y-236142857D01*
X96321428Y-235785714D01*
X96392856Y-235642857D01*
X96464285Y-235571429D01*
X96607142Y-235500000D01*
X96892856Y-235500000D01*
X97035714Y-235571429D01*
X97107142Y-235642857D01*
X97178571Y-235785714D01*
X85321428Y-235000000D02*
X85464285Y-234928571D01*
X85678571Y-234928571D01*
X85892856Y-235000000D01*
X86035714Y-235142857D01*
X86107142Y-235285714D01*
X86178571Y-235571429D01*
X86178571Y-235785714D01*
X86107142Y-236071429D01*
X86035714Y-236214286D01*
X85892856Y-236357143D01*
X85678571Y-236428571D01*
X85535714Y-236428571D01*
X85321428Y-236357143D01*
X85249999Y-236285714D01*
X85249999Y-235785714D01*
X85535714Y-235785714D01*
X83892856Y-234928571D02*
X84607142Y-234928571D01*
X84678571Y-235642857D01*
X84607142Y-235571429D01*
X84464285Y-235500000D01*
X84107142Y-235500000D01*
X83964285Y-235571429D01*
X83892856Y-235642857D01*
X83821428Y-235785714D01*
X83821428Y-236142857D01*
X83892856Y-236285714D01*
X83964285Y-236357143D01*
X84107142Y-236428571D01*
X84464285Y-236428571D01*
X84607142Y-236357143D01*
X84678571Y-236285714D01*
X72821428Y-235000000D02*
X72964285Y-234928571D01*
X73178571Y-234928571D01*
X73392856Y-235000000D01*
X73535714Y-235142857D01*
X73607142Y-235285714D01*
X73678571Y-235571429D01*
X73678571Y-235785714D01*
X73607142Y-236071429D01*
X73535714Y-236214286D01*
X73392856Y-236357143D01*
X73178571Y-236428571D01*
X73035714Y-236428571D01*
X72821428Y-236357143D01*
X72749999Y-236285714D01*
X72749999Y-235785714D01*
X73035714Y-235785714D01*
X71464285Y-235428571D02*
X71464285Y-236428571D01*
X71821428Y-234857143D02*
X72178571Y-235928571D01*
X71249999Y-235928571D01*
X60321428Y-235000000D02*
X60464285Y-234928571D01*
X60678571Y-234928571D01*
X60892856Y-235000000D01*
X61035714Y-235142857D01*
X61107142Y-235285714D01*
X61178571Y-235571429D01*
X61178571Y-235785714D01*
X61107142Y-236071429D01*
X61035714Y-236214286D01*
X60892856Y-236357143D01*
X60678571Y-236428571D01*
X60535714Y-236428571D01*
X60321428Y-236357143D01*
X60249999Y-236285714D01*
X60249999Y-235785714D01*
X60535714Y-235785714D01*
X59749999Y-234928571D02*
X58821428Y-234928571D01*
X59321428Y-235500000D01*
X59107142Y-235500000D01*
X58964285Y-235571429D01*
X58892856Y-235642857D01*
X58821428Y-235785714D01*
X58821428Y-236142857D01*
X58892856Y-236285714D01*
X58964285Y-236357143D01*
X59107142Y-236428571D01*
X59535714Y-236428571D01*
X59678571Y-236357143D01*
X59749999Y-236285714D01*
X47821428Y-235000000D02*
X47964285Y-234928571D01*
X48178571Y-234928571D01*
X48392856Y-235000000D01*
X48535714Y-235142857D01*
X48607142Y-235285714D01*
X48678571Y-235571429D01*
X48678571Y-235785714D01*
X48607142Y-236071429D01*
X48535714Y-236214286D01*
X48392856Y-236357143D01*
X48178571Y-236428571D01*
X48035714Y-236428571D01*
X47821428Y-236357143D01*
X47749999Y-236285714D01*
X47749999Y-235785714D01*
X48035714Y-235785714D01*
X47178571Y-235071429D02*
X47107142Y-235000000D01*
X46964285Y-234928571D01*
X46607142Y-234928571D01*
X46464285Y-235000000D01*
X46392856Y-235071429D01*
X46321428Y-235214286D01*
X46321428Y-235357143D01*
X46392856Y-235571429D01*
X47249999Y-236428571D01*
X46321428Y-236428571D01*
X35321428Y-235000000D02*
X35464285Y-234928571D01*
X35678571Y-234928571D01*
X35892856Y-235000000D01*
X36035714Y-235142857D01*
X36107142Y-235285714D01*
X36178571Y-235571429D01*
X36178571Y-235785714D01*
X36107142Y-236071429D01*
X36035714Y-236214286D01*
X35892856Y-236357143D01*
X35678571Y-236428571D01*
X35535714Y-236428571D01*
X35321428Y-236357143D01*
X35249999Y-236285714D01*
X35249999Y-235785714D01*
X35535714Y-235785714D01*
X33821428Y-236428571D02*
X34678571Y-236428571D01*
X34249999Y-236428571D02*
X34249999Y-234928571D01*
X34392856Y-235142857D01*
X34535714Y-235285714D01*
X34678571Y-235357143D01*
X22821428Y-235000000D02*
X22964285Y-234928571D01*
X23178571Y-234928571D01*
X23392856Y-235000000D01*
X23535714Y-235142857D01*
X23607142Y-235285714D01*
X23678571Y-235571429D01*
X23678571Y-235785714D01*
X23607142Y-236071429D01*
X23535714Y-236214286D01*
X23392856Y-236357143D01*
X23178571Y-236428571D01*
X23035714Y-236428571D01*
X22821428Y-236357143D01*
X22749999Y-236285714D01*
X22749999Y-235785714D01*
X23035714Y-235785714D01*
X21821428Y-234928571D02*
X21678571Y-234928571D01*
X21535714Y-235000000D01*
X21464285Y-235071429D01*
X21392856Y-235214286D01*
X21321428Y-235500000D01*
X21321428Y-235857143D01*
X21392856Y-236142857D01*
X21464285Y-236285714D01*
X21535714Y-236357143D01*
X21678571Y-236428571D01*
X21821428Y-236428571D01*
X21964285Y-236357143D01*
X22035714Y-236285714D01*
X22107142Y-236142857D01*
X22178571Y-235857143D01*
X22178571Y-235500000D01*
X22107142Y-235214286D01*
X22035714Y-235071429D01*
X21964285Y-235000000D01*
X21821428Y-234928571D01*
X173714285Y-203642857D02*
X174214285Y-203642857D01*
X174214285Y-204428571D02*
X174214285Y-202928571D01*
X173499999Y-202928571D01*
X172142857Y-204428571D02*
X173000000Y-204428571D01*
X172571428Y-204428571D02*
X172571428Y-202928571D01*
X172714285Y-203142857D01*
X172857143Y-203285714D01*
X173000000Y-203357143D01*
X171571429Y-203071429D02*
X171500000Y-203000000D01*
X171357143Y-202928571D01*
X171000000Y-202928571D01*
X170857143Y-203000000D01*
X170785714Y-203071429D01*
X170714286Y-203214286D01*
X170714286Y-203357143D01*
X170785714Y-203571429D01*
X171642857Y-204428571D01*
X170714286Y-204428571D01*
X161214285Y-203642857D02*
X161714285Y-203642857D01*
X161714285Y-204428571D02*
X161714285Y-202928571D01*
X160999999Y-202928571D01*
X159642857Y-204428571D02*
X160500000Y-204428571D01*
X160071428Y-204428571D02*
X160071428Y-202928571D01*
X160214285Y-203142857D01*
X160357143Y-203285714D01*
X160500000Y-203357143D01*
X158214286Y-204428571D02*
X159071429Y-204428571D01*
X158642857Y-204428571D02*
X158642857Y-202928571D01*
X158785714Y-203142857D01*
X158928572Y-203285714D01*
X159071429Y-203357143D01*
X148714285Y-203642857D02*
X149214285Y-203642857D01*
X149214285Y-204428571D02*
X149214285Y-202928571D01*
X148499999Y-202928571D01*
X147142857Y-204428571D02*
X148000000Y-204428571D01*
X147571428Y-204428571D02*
X147571428Y-202928571D01*
X147714285Y-203142857D01*
X147857143Y-203285714D01*
X148000000Y-203357143D01*
X146214286Y-202928571D02*
X146071429Y-202928571D01*
X145928572Y-203000000D01*
X145857143Y-203071429D01*
X145785714Y-203214286D01*
X145714286Y-203500000D01*
X145714286Y-203857143D01*
X145785714Y-204142857D01*
X145857143Y-204285714D01*
X145928572Y-204357143D01*
X146071429Y-204428571D01*
X146214286Y-204428571D01*
X146357143Y-204357143D01*
X146428572Y-204285714D01*
X146500000Y-204142857D01*
X146571429Y-203857143D01*
X146571429Y-203500000D01*
X146500000Y-203214286D01*
X146428572Y-203071429D01*
X146357143Y-203000000D01*
X146214286Y-202928571D01*
X135499999Y-203642857D02*
X135999999Y-203642857D01*
X135999999Y-204428571D02*
X135999999Y-202928571D01*
X135285713Y-202928571D01*
X134642857Y-204428571D02*
X134357142Y-204428571D01*
X134214285Y-204357143D01*
X134142857Y-204285714D01*
X133999999Y-204071429D01*
X133928571Y-203785714D01*
X133928571Y-203214286D01*
X133999999Y-203071429D01*
X134071428Y-203000000D01*
X134214285Y-202928571D01*
X134499999Y-202928571D01*
X134642857Y-203000000D01*
X134714285Y-203071429D01*
X134785714Y-203214286D01*
X134785714Y-203571429D01*
X134714285Y-203714286D01*
X134642857Y-203785714D01*
X134499999Y-203857143D01*
X134214285Y-203857143D01*
X134071428Y-203785714D01*
X133999999Y-203714286D01*
X133928571Y-203571429D01*
X122999999Y-203642857D02*
X123499999Y-203642857D01*
X123499999Y-204428571D02*
X123499999Y-202928571D01*
X122785713Y-202928571D01*
X121999999Y-203571429D02*
X122142857Y-203500000D01*
X122214285Y-203428571D01*
X122285714Y-203285714D01*
X122285714Y-203214286D01*
X122214285Y-203071429D01*
X122142857Y-203000000D01*
X121999999Y-202928571D01*
X121714285Y-202928571D01*
X121571428Y-203000000D01*
X121499999Y-203071429D01*
X121428571Y-203214286D01*
X121428571Y-203285714D01*
X121499999Y-203428571D01*
X121571428Y-203500000D01*
X121714285Y-203571429D01*
X121999999Y-203571429D01*
X122142857Y-203642857D01*
X122214285Y-203714286D01*
X122285714Y-203857143D01*
X122285714Y-204142857D01*
X122214285Y-204285714D01*
X122142857Y-204357143D01*
X121999999Y-204428571D01*
X121714285Y-204428571D01*
X121571428Y-204357143D01*
X121499999Y-204285714D01*
X121428571Y-204142857D01*
X121428571Y-203857143D01*
X121499999Y-203714286D01*
X121571428Y-203642857D01*
X121714285Y-203571429D01*
X110499999Y-203642857D02*
X110999999Y-203642857D01*
X110999999Y-204428571D02*
X110999999Y-202928571D01*
X110285713Y-202928571D01*
X109857142Y-202928571D02*
X108857142Y-202928571D01*
X109499999Y-204428571D01*
X97999999Y-203642857D02*
X98499999Y-203642857D01*
X98499999Y-204428571D02*
X98499999Y-202928571D01*
X97785713Y-202928571D01*
X96571428Y-202928571D02*
X96857142Y-202928571D01*
X96999999Y-203000000D01*
X97071428Y-203071429D01*
X97214285Y-203285714D01*
X97285714Y-203571429D01*
X97285714Y-204142857D01*
X97214285Y-204285714D01*
X97142857Y-204357143D01*
X96999999Y-204428571D01*
X96714285Y-204428571D01*
X96571428Y-204357143D01*
X96499999Y-204285714D01*
X96428571Y-204142857D01*
X96428571Y-203785714D01*
X96499999Y-203642857D01*
X96571428Y-203571429D01*
X96714285Y-203500000D01*
X96999999Y-203500000D01*
X97142857Y-203571429D01*
X97214285Y-203642857D01*
X97285714Y-203785714D01*
X85499999Y-203642857D02*
X85999999Y-203642857D01*
X85999999Y-204428571D02*
X85999999Y-202928571D01*
X85285713Y-202928571D01*
X83999999Y-202928571D02*
X84714285Y-202928571D01*
X84785714Y-203642857D01*
X84714285Y-203571429D01*
X84571428Y-203500000D01*
X84214285Y-203500000D01*
X84071428Y-203571429D01*
X83999999Y-203642857D01*
X83928571Y-203785714D01*
X83928571Y-204142857D01*
X83999999Y-204285714D01*
X84071428Y-204357143D01*
X84214285Y-204428571D01*
X84571428Y-204428571D01*
X84714285Y-204357143D01*
X84785714Y-204285714D01*
X72999999Y-203642857D02*
X73499999Y-203642857D01*
X73499999Y-204428571D02*
X73499999Y-202928571D01*
X72785713Y-202928571D01*
X71571428Y-203428571D02*
X71571428Y-204428571D01*
X71928571Y-202857143D02*
X72285714Y-203928571D01*
X71357142Y-203928571D01*
X60499999Y-203642857D02*
X60999999Y-203642857D01*
X60999999Y-204428571D02*
X60999999Y-202928571D01*
X60285713Y-202928571D01*
X59857142Y-202928571D02*
X58928571Y-202928571D01*
X59428571Y-203500000D01*
X59214285Y-203500000D01*
X59071428Y-203571429D01*
X58999999Y-203642857D01*
X58928571Y-203785714D01*
X58928571Y-204142857D01*
X58999999Y-204285714D01*
X59071428Y-204357143D01*
X59214285Y-204428571D01*
X59642857Y-204428571D01*
X59785714Y-204357143D01*
X59857142Y-204285714D01*
X47999999Y-203642857D02*
X48499999Y-203642857D01*
X48499999Y-204428571D02*
X48499999Y-202928571D01*
X47785713Y-202928571D01*
X47285714Y-203071429D02*
X47214285Y-203000000D01*
X47071428Y-202928571D01*
X46714285Y-202928571D01*
X46571428Y-203000000D01*
X46499999Y-203071429D01*
X46428571Y-203214286D01*
X46428571Y-203357143D01*
X46499999Y-203571429D01*
X47357142Y-204428571D01*
X46428571Y-204428571D01*
X35499999Y-203642857D02*
X35999999Y-203642857D01*
X35999999Y-204428571D02*
X35999999Y-202928571D01*
X35285713Y-202928571D01*
X33928571Y-204428571D02*
X34785714Y-204428571D01*
X34357142Y-204428571D02*
X34357142Y-202928571D01*
X34499999Y-203142857D01*
X34642857Y-203285714D01*
X34785714Y-203357143D01*
X22999999Y-203642857D02*
X23499999Y-203642857D01*
X23499999Y-204428571D02*
X23499999Y-202928571D01*
X22785713Y-202928571D01*
X21928571Y-202928571D02*
X21785714Y-202928571D01*
X21642857Y-203000000D01*
X21571428Y-203071429D01*
X21499999Y-203214286D01*
X21428571Y-203500000D01*
X21428571Y-203857143D01*
X21499999Y-204142857D01*
X21571428Y-204285714D01*
X21642857Y-204357143D01*
X21785714Y-204428571D01*
X21928571Y-204428571D01*
X22071428Y-204357143D01*
X22142857Y-204285714D01*
X22214285Y-204142857D01*
X22285714Y-203857143D01*
X22285714Y-203500000D01*
X22214285Y-203214286D01*
X22142857Y-203071429D01*
X22071428Y-203000000D01*
X21928571Y-202928571D01*
X174249999Y-171642857D02*
X173749999Y-171642857D01*
X173535713Y-172428571D02*
X174249999Y-172428571D01*
X174249999Y-170928571D01*
X173535713Y-170928571D01*
X172107142Y-172428571D02*
X172964285Y-172428571D01*
X172535713Y-172428571D02*
X172535713Y-170928571D01*
X172678570Y-171142857D01*
X172821428Y-171285714D01*
X172964285Y-171357143D01*
X171535714Y-171071429D02*
X171464285Y-171000000D01*
X171321428Y-170928571D01*
X170964285Y-170928571D01*
X170821428Y-171000000D01*
X170749999Y-171071429D01*
X170678571Y-171214286D01*
X170678571Y-171357143D01*
X170749999Y-171571429D01*
X171607142Y-172428571D01*
X170678571Y-172428571D01*
X161749999Y-171642857D02*
X161249999Y-171642857D01*
X161035713Y-172428571D02*
X161749999Y-172428571D01*
X161749999Y-170928571D01*
X161035713Y-170928571D01*
X159607142Y-172428571D02*
X160464285Y-172428571D01*
X160035713Y-172428571D02*
X160035713Y-170928571D01*
X160178570Y-171142857D01*
X160321428Y-171285714D01*
X160464285Y-171357143D01*
X158178571Y-172428571D02*
X159035714Y-172428571D01*
X158607142Y-172428571D02*
X158607142Y-170928571D01*
X158749999Y-171142857D01*
X158892857Y-171285714D01*
X159035714Y-171357143D01*
X149249999Y-171642857D02*
X148749999Y-171642857D01*
X148535713Y-172428571D02*
X149249999Y-172428571D01*
X149249999Y-170928571D01*
X148535713Y-170928571D01*
X147107142Y-172428571D02*
X147964285Y-172428571D01*
X147535713Y-172428571D02*
X147535713Y-170928571D01*
X147678570Y-171142857D01*
X147821428Y-171285714D01*
X147964285Y-171357143D01*
X146178571Y-170928571D02*
X146035714Y-170928571D01*
X145892857Y-171000000D01*
X145821428Y-171071429D01*
X145749999Y-171214286D01*
X145678571Y-171500000D01*
X145678571Y-171857143D01*
X145749999Y-172142857D01*
X145821428Y-172285714D01*
X145892857Y-172357143D01*
X146035714Y-172428571D01*
X146178571Y-172428571D01*
X146321428Y-172357143D01*
X146392857Y-172285714D01*
X146464285Y-172142857D01*
X146535714Y-171857143D01*
X146535714Y-171500000D01*
X146464285Y-171214286D01*
X146392857Y-171071429D01*
X146321428Y-171000000D01*
X146178571Y-170928571D01*
X136035714Y-171642857D02*
X135535714Y-171642857D01*
X135321428Y-172428571D02*
X136035714Y-172428571D01*
X136035714Y-170928571D01*
X135321428Y-170928571D01*
X134607143Y-172428571D02*
X134321428Y-172428571D01*
X134178571Y-172357143D01*
X134107143Y-172285714D01*
X133964285Y-172071429D01*
X133892857Y-171785714D01*
X133892857Y-171214286D01*
X133964285Y-171071429D01*
X134035714Y-171000000D01*
X134178571Y-170928571D01*
X134464285Y-170928571D01*
X134607143Y-171000000D01*
X134678571Y-171071429D01*
X134750000Y-171214286D01*
X134750000Y-171571429D01*
X134678571Y-171714286D01*
X134607143Y-171785714D01*
X134464285Y-171857143D01*
X134178571Y-171857143D01*
X134035714Y-171785714D01*
X133964285Y-171714286D01*
X133892857Y-171571429D01*
X123535714Y-171642857D02*
X123035714Y-171642857D01*
X122821428Y-172428571D02*
X123535714Y-172428571D01*
X123535714Y-170928571D01*
X122821428Y-170928571D01*
X121964285Y-171571429D02*
X122107143Y-171500000D01*
X122178571Y-171428571D01*
X122250000Y-171285714D01*
X122250000Y-171214286D01*
X122178571Y-171071429D01*
X122107143Y-171000000D01*
X121964285Y-170928571D01*
X121678571Y-170928571D01*
X121535714Y-171000000D01*
X121464285Y-171071429D01*
X121392857Y-171214286D01*
X121392857Y-171285714D01*
X121464285Y-171428571D01*
X121535714Y-171500000D01*
X121678571Y-171571429D01*
X121964285Y-171571429D01*
X122107143Y-171642857D01*
X122178571Y-171714286D01*
X122250000Y-171857143D01*
X122250000Y-172142857D01*
X122178571Y-172285714D01*
X122107143Y-172357143D01*
X121964285Y-172428571D01*
X121678571Y-172428571D01*
X121535714Y-172357143D01*
X121464285Y-172285714D01*
X121392857Y-172142857D01*
X121392857Y-171857143D01*
X121464285Y-171714286D01*
X121535714Y-171642857D01*
X121678571Y-171571429D01*
X111035714Y-171642857D02*
X110535714Y-171642857D01*
X110321428Y-172428571D02*
X111035714Y-172428571D01*
X111035714Y-170928571D01*
X110321428Y-170928571D01*
X109821428Y-170928571D02*
X108821428Y-170928571D01*
X109464285Y-172428571D01*
X98535714Y-171642857D02*
X98035714Y-171642857D01*
X97821428Y-172428571D02*
X98535714Y-172428571D01*
X98535714Y-170928571D01*
X97821428Y-170928571D01*
X96535714Y-170928571D02*
X96821428Y-170928571D01*
X96964285Y-171000000D01*
X97035714Y-171071429D01*
X97178571Y-171285714D01*
X97250000Y-171571429D01*
X97250000Y-172142857D01*
X97178571Y-172285714D01*
X97107143Y-172357143D01*
X96964285Y-172428571D01*
X96678571Y-172428571D01*
X96535714Y-172357143D01*
X96464285Y-172285714D01*
X96392857Y-172142857D01*
X96392857Y-171785714D01*
X96464285Y-171642857D01*
X96535714Y-171571429D01*
X96678571Y-171500000D01*
X96964285Y-171500000D01*
X97107143Y-171571429D01*
X97178571Y-171642857D01*
X97250000Y-171785714D01*
X86035714Y-171642857D02*
X85535714Y-171642857D01*
X85321428Y-172428571D02*
X86035714Y-172428571D01*
X86035714Y-170928571D01*
X85321428Y-170928571D01*
X83964285Y-170928571D02*
X84678571Y-170928571D01*
X84750000Y-171642857D01*
X84678571Y-171571429D01*
X84535714Y-171500000D01*
X84178571Y-171500000D01*
X84035714Y-171571429D01*
X83964285Y-171642857D01*
X83892857Y-171785714D01*
X83892857Y-172142857D01*
X83964285Y-172285714D01*
X84035714Y-172357143D01*
X84178571Y-172428571D01*
X84535714Y-172428571D01*
X84678571Y-172357143D01*
X84750000Y-172285714D01*
X73535714Y-171642857D02*
X73035714Y-171642857D01*
X72821428Y-172428571D02*
X73535714Y-172428571D01*
X73535714Y-170928571D01*
X72821428Y-170928571D01*
X71535714Y-171428571D02*
X71535714Y-172428571D01*
X71892857Y-170857143D02*
X72250000Y-171928571D01*
X71321428Y-171928571D01*
X61035714Y-171642857D02*
X60535714Y-171642857D01*
X60321428Y-172428571D02*
X61035714Y-172428571D01*
X61035714Y-170928571D01*
X60321428Y-170928571D01*
X59821428Y-170928571D02*
X58892857Y-170928571D01*
X59392857Y-171500000D01*
X59178571Y-171500000D01*
X59035714Y-171571429D01*
X58964285Y-171642857D01*
X58892857Y-171785714D01*
X58892857Y-172142857D01*
X58964285Y-172285714D01*
X59035714Y-172357143D01*
X59178571Y-172428571D01*
X59607143Y-172428571D01*
X59750000Y-172357143D01*
X59821428Y-172285714D01*
X48535714Y-171642857D02*
X48035714Y-171642857D01*
X47821428Y-172428571D02*
X48535714Y-172428571D01*
X48535714Y-170928571D01*
X47821428Y-170928571D01*
X47250000Y-171071429D02*
X47178571Y-171000000D01*
X47035714Y-170928571D01*
X46678571Y-170928571D01*
X46535714Y-171000000D01*
X46464285Y-171071429D01*
X46392857Y-171214286D01*
X46392857Y-171357143D01*
X46464285Y-171571429D01*
X47321428Y-172428571D01*
X46392857Y-172428571D01*
X36035714Y-171642857D02*
X35535714Y-171642857D01*
X35321428Y-172428571D02*
X36035714Y-172428571D01*
X36035714Y-170928571D01*
X35321428Y-170928571D01*
X33892857Y-172428571D02*
X34750000Y-172428571D01*
X34321428Y-172428571D02*
X34321428Y-170928571D01*
X34464285Y-171142857D01*
X34607143Y-171285714D01*
X34750000Y-171357143D01*
X23535714Y-171642857D02*
X23035714Y-171642857D01*
X22821428Y-172428571D02*
X23535714Y-172428571D01*
X23535714Y-170928571D01*
X22821428Y-170928571D01*
X21892857Y-170928571D02*
X21750000Y-170928571D01*
X21607143Y-171000000D01*
X21535714Y-171071429D01*
X21464285Y-171214286D01*
X21392857Y-171500000D01*
X21392857Y-171857143D01*
X21464285Y-172142857D01*
X21535714Y-172285714D01*
X21607143Y-172357143D01*
X21750000Y-172428571D01*
X21892857Y-172428571D01*
X22035714Y-172357143D01*
X22107143Y-172285714D01*
X22178571Y-172142857D01*
X22250000Y-171857143D01*
X22250000Y-171500000D01*
X22178571Y-171214286D01*
X22107143Y-171071429D01*
X22035714Y-171000000D01*
X21892857Y-170928571D01*
X174321428Y-140428571D02*
X174321428Y-138928571D01*
X173964285Y-138928571D01*
X173750000Y-139000000D01*
X173607142Y-139142857D01*
X173535714Y-139285714D01*
X173464285Y-139571429D01*
X173464285Y-139785714D01*
X173535714Y-140071429D01*
X173607142Y-140214286D01*
X173750000Y-140357143D01*
X173964285Y-140428571D01*
X174321428Y-140428571D01*
X172035714Y-140428571D02*
X172892857Y-140428571D01*
X172464285Y-140428571D02*
X172464285Y-138928571D01*
X172607142Y-139142857D01*
X172750000Y-139285714D01*
X172892857Y-139357143D01*
X171464286Y-139071429D02*
X171392857Y-139000000D01*
X171250000Y-138928571D01*
X170892857Y-138928571D01*
X170750000Y-139000000D01*
X170678571Y-139071429D01*
X170607143Y-139214286D01*
X170607143Y-139357143D01*
X170678571Y-139571429D01*
X171535714Y-140428571D01*
X170607143Y-140428571D01*
X161821428Y-140428571D02*
X161821428Y-138928571D01*
X161464285Y-138928571D01*
X161250000Y-139000000D01*
X161107142Y-139142857D01*
X161035714Y-139285714D01*
X160964285Y-139571429D01*
X160964285Y-139785714D01*
X161035714Y-140071429D01*
X161107142Y-140214286D01*
X161250000Y-140357143D01*
X161464285Y-140428571D01*
X161821428Y-140428571D01*
X159535714Y-140428571D02*
X160392857Y-140428571D01*
X159964285Y-140428571D02*
X159964285Y-138928571D01*
X160107142Y-139142857D01*
X160250000Y-139285714D01*
X160392857Y-139357143D01*
X158107143Y-140428571D02*
X158964286Y-140428571D01*
X158535714Y-140428571D02*
X158535714Y-138928571D01*
X158678571Y-139142857D01*
X158821429Y-139285714D01*
X158964286Y-139357143D01*
X149321428Y-140428571D02*
X149321428Y-138928571D01*
X148964285Y-138928571D01*
X148750000Y-139000000D01*
X148607142Y-139142857D01*
X148535714Y-139285714D01*
X148464285Y-139571429D01*
X148464285Y-139785714D01*
X148535714Y-140071429D01*
X148607142Y-140214286D01*
X148750000Y-140357143D01*
X148964285Y-140428571D01*
X149321428Y-140428571D01*
X147035714Y-140428571D02*
X147892857Y-140428571D01*
X147464285Y-140428571D02*
X147464285Y-138928571D01*
X147607142Y-139142857D01*
X147750000Y-139285714D01*
X147892857Y-139357143D01*
X146107143Y-138928571D02*
X145964286Y-138928571D01*
X145821429Y-139000000D01*
X145750000Y-139071429D01*
X145678571Y-139214286D01*
X145607143Y-139500000D01*
X145607143Y-139857143D01*
X145678571Y-140142857D01*
X145750000Y-140285714D01*
X145821429Y-140357143D01*
X145964286Y-140428571D01*
X146107143Y-140428571D01*
X146250000Y-140357143D01*
X146321429Y-140285714D01*
X146392857Y-140142857D01*
X146464286Y-139857143D01*
X146464286Y-139500000D01*
X146392857Y-139214286D01*
X146321429Y-139071429D01*
X146250000Y-139000000D01*
X146107143Y-138928571D01*
X136107142Y-140428571D02*
X136107142Y-138928571D01*
X135749999Y-138928571D01*
X135535714Y-139000000D01*
X135392856Y-139142857D01*
X135321428Y-139285714D01*
X135249999Y-139571429D01*
X135249999Y-139785714D01*
X135321428Y-140071429D01*
X135392856Y-140214286D01*
X135535714Y-140357143D01*
X135749999Y-140428571D01*
X136107142Y-140428571D01*
X134535714Y-140428571D02*
X134249999Y-140428571D01*
X134107142Y-140357143D01*
X134035714Y-140285714D01*
X133892856Y-140071429D01*
X133821428Y-139785714D01*
X133821428Y-139214286D01*
X133892856Y-139071429D01*
X133964285Y-139000000D01*
X134107142Y-138928571D01*
X134392856Y-138928571D01*
X134535714Y-139000000D01*
X134607142Y-139071429D01*
X134678571Y-139214286D01*
X134678571Y-139571429D01*
X134607142Y-139714286D01*
X134535714Y-139785714D01*
X134392856Y-139857143D01*
X134107142Y-139857143D01*
X133964285Y-139785714D01*
X133892856Y-139714286D01*
X133821428Y-139571429D01*
X123607142Y-140428571D02*
X123607142Y-138928571D01*
X123249999Y-138928571D01*
X123035714Y-139000000D01*
X122892856Y-139142857D01*
X122821428Y-139285714D01*
X122749999Y-139571429D01*
X122749999Y-139785714D01*
X122821428Y-140071429D01*
X122892856Y-140214286D01*
X123035714Y-140357143D01*
X123249999Y-140428571D01*
X123607142Y-140428571D01*
X121892856Y-139571429D02*
X122035714Y-139500000D01*
X122107142Y-139428571D01*
X122178571Y-139285714D01*
X122178571Y-139214286D01*
X122107142Y-139071429D01*
X122035714Y-139000000D01*
X121892856Y-138928571D01*
X121607142Y-138928571D01*
X121464285Y-139000000D01*
X121392856Y-139071429D01*
X121321428Y-139214286D01*
X121321428Y-139285714D01*
X121392856Y-139428571D01*
X121464285Y-139500000D01*
X121607142Y-139571429D01*
X121892856Y-139571429D01*
X122035714Y-139642857D01*
X122107142Y-139714286D01*
X122178571Y-139857143D01*
X122178571Y-140142857D01*
X122107142Y-140285714D01*
X122035714Y-140357143D01*
X121892856Y-140428571D01*
X121607142Y-140428571D01*
X121464285Y-140357143D01*
X121392856Y-140285714D01*
X121321428Y-140142857D01*
X121321428Y-139857143D01*
X121392856Y-139714286D01*
X121464285Y-139642857D01*
X121607142Y-139571429D01*
X111107142Y-140428571D02*
X111107142Y-138928571D01*
X110749999Y-138928571D01*
X110535714Y-139000000D01*
X110392856Y-139142857D01*
X110321428Y-139285714D01*
X110249999Y-139571429D01*
X110249999Y-139785714D01*
X110321428Y-140071429D01*
X110392856Y-140214286D01*
X110535714Y-140357143D01*
X110749999Y-140428571D01*
X111107142Y-140428571D01*
X109749999Y-138928571D02*
X108749999Y-138928571D01*
X109392856Y-140428571D01*
X98607142Y-140428571D02*
X98607142Y-138928571D01*
X98249999Y-138928571D01*
X98035714Y-139000000D01*
X97892856Y-139142857D01*
X97821428Y-139285714D01*
X97749999Y-139571429D01*
X97749999Y-139785714D01*
X97821428Y-140071429D01*
X97892856Y-140214286D01*
X98035714Y-140357143D01*
X98249999Y-140428571D01*
X98607142Y-140428571D01*
X96464285Y-138928571D02*
X96749999Y-138928571D01*
X96892856Y-139000000D01*
X96964285Y-139071429D01*
X97107142Y-139285714D01*
X97178571Y-139571429D01*
X97178571Y-140142857D01*
X97107142Y-140285714D01*
X97035714Y-140357143D01*
X96892856Y-140428571D01*
X96607142Y-140428571D01*
X96464285Y-140357143D01*
X96392856Y-140285714D01*
X96321428Y-140142857D01*
X96321428Y-139785714D01*
X96392856Y-139642857D01*
X96464285Y-139571429D01*
X96607142Y-139500000D01*
X96892856Y-139500000D01*
X97035714Y-139571429D01*
X97107142Y-139642857D01*
X97178571Y-139785714D01*
X86107142Y-140428571D02*
X86107142Y-138928571D01*
X85749999Y-138928571D01*
X85535714Y-139000000D01*
X85392856Y-139142857D01*
X85321428Y-139285714D01*
X85249999Y-139571429D01*
X85249999Y-139785714D01*
X85321428Y-140071429D01*
X85392856Y-140214286D01*
X85535714Y-140357143D01*
X85749999Y-140428571D01*
X86107142Y-140428571D01*
X83892856Y-138928571D02*
X84607142Y-138928571D01*
X84678571Y-139642857D01*
X84607142Y-139571429D01*
X84464285Y-139500000D01*
X84107142Y-139500000D01*
X83964285Y-139571429D01*
X83892856Y-139642857D01*
X83821428Y-139785714D01*
X83821428Y-140142857D01*
X83892856Y-140285714D01*
X83964285Y-140357143D01*
X84107142Y-140428571D01*
X84464285Y-140428571D01*
X84607142Y-140357143D01*
X84678571Y-140285714D01*
X73607142Y-140428571D02*
X73607142Y-138928571D01*
X73249999Y-138928571D01*
X73035714Y-139000000D01*
X72892856Y-139142857D01*
X72821428Y-139285714D01*
X72749999Y-139571429D01*
X72749999Y-139785714D01*
X72821428Y-140071429D01*
X72892856Y-140214286D01*
X73035714Y-140357143D01*
X73249999Y-140428571D01*
X73607142Y-140428571D01*
X71464285Y-139428571D02*
X71464285Y-140428571D01*
X71821428Y-138857143D02*
X72178571Y-139928571D01*
X71249999Y-139928571D01*
X61107142Y-140428571D02*
X61107142Y-138928571D01*
X60749999Y-138928571D01*
X60535714Y-139000000D01*
X60392856Y-139142857D01*
X60321428Y-139285714D01*
X60249999Y-139571429D01*
X60249999Y-139785714D01*
X60321428Y-140071429D01*
X60392856Y-140214286D01*
X60535714Y-140357143D01*
X60749999Y-140428571D01*
X61107142Y-140428571D01*
X59749999Y-138928571D02*
X58821428Y-138928571D01*
X59321428Y-139500000D01*
X59107142Y-139500000D01*
X58964285Y-139571429D01*
X58892856Y-139642857D01*
X58821428Y-139785714D01*
X58821428Y-140142857D01*
X58892856Y-140285714D01*
X58964285Y-140357143D01*
X59107142Y-140428571D01*
X59535714Y-140428571D01*
X59678571Y-140357143D01*
X59749999Y-140285714D01*
X48607142Y-140428571D02*
X48607142Y-138928571D01*
X48249999Y-138928571D01*
X48035714Y-139000000D01*
X47892856Y-139142857D01*
X47821428Y-139285714D01*
X47749999Y-139571429D01*
X47749999Y-139785714D01*
X47821428Y-140071429D01*
X47892856Y-140214286D01*
X48035714Y-140357143D01*
X48249999Y-140428571D01*
X48607142Y-140428571D01*
X47178571Y-139071429D02*
X47107142Y-139000000D01*
X46964285Y-138928571D01*
X46607142Y-138928571D01*
X46464285Y-139000000D01*
X46392856Y-139071429D01*
X46321428Y-139214286D01*
X46321428Y-139357143D01*
X46392856Y-139571429D01*
X47249999Y-140428571D01*
X46321428Y-140428571D01*
X36107142Y-140428571D02*
X36107142Y-138928571D01*
X35749999Y-138928571D01*
X35535714Y-139000000D01*
X35392856Y-139142857D01*
X35321428Y-139285714D01*
X35249999Y-139571429D01*
X35249999Y-139785714D01*
X35321428Y-140071429D01*
X35392856Y-140214286D01*
X35535714Y-140357143D01*
X35749999Y-140428571D01*
X36107142Y-140428571D01*
X33821428Y-140428571D02*
X34678571Y-140428571D01*
X34249999Y-140428571D02*
X34249999Y-138928571D01*
X34392856Y-139142857D01*
X34535714Y-139285714D01*
X34678571Y-139357143D01*
X23607142Y-140428571D02*
X23607142Y-138928571D01*
X23249999Y-138928571D01*
X23035714Y-139000000D01*
X22892856Y-139142857D01*
X22821428Y-139285714D01*
X22749999Y-139571429D01*
X22749999Y-139785714D01*
X22821428Y-140071429D01*
X22892856Y-140214286D01*
X23035714Y-140357143D01*
X23249999Y-140428571D01*
X23607142Y-140428571D01*
X21821428Y-138928571D02*
X21678571Y-138928571D01*
X21535714Y-139000000D01*
X21464285Y-139071429D01*
X21392856Y-139214286D01*
X21321428Y-139500000D01*
X21321428Y-139857143D01*
X21392856Y-140142857D01*
X21464285Y-140285714D01*
X21535714Y-140357143D01*
X21678571Y-140428571D01*
X21821428Y-140428571D01*
X21964285Y-140357143D01*
X22035714Y-140285714D01*
X22107142Y-140142857D01*
X22178571Y-139857143D01*
X22178571Y-139500000D01*
X22107142Y-139214286D01*
X22035714Y-139071429D01*
X21964285Y-139000000D01*
X21821428Y-138928571D01*
X173464285Y-108285714D02*
X173535714Y-108357143D01*
X173750000Y-108428571D01*
X173892857Y-108428571D01*
X174107142Y-108357143D01*
X174250000Y-108214286D01*
X174321428Y-108071429D01*
X174392857Y-107785714D01*
X174392857Y-107571429D01*
X174321428Y-107285714D01*
X174250000Y-107142857D01*
X174107142Y-107000000D01*
X173892857Y-106928571D01*
X173750000Y-106928571D01*
X173535714Y-107000000D01*
X173464285Y-107071429D01*
X172035714Y-108428571D02*
X172892857Y-108428571D01*
X172464285Y-108428571D02*
X172464285Y-106928571D01*
X172607142Y-107142857D01*
X172750000Y-107285714D01*
X172892857Y-107357143D01*
X171464286Y-107071429D02*
X171392857Y-107000000D01*
X171250000Y-106928571D01*
X170892857Y-106928571D01*
X170750000Y-107000000D01*
X170678571Y-107071429D01*
X170607143Y-107214286D01*
X170607143Y-107357143D01*
X170678571Y-107571429D01*
X171535714Y-108428571D01*
X170607143Y-108428571D01*
X160964285Y-108285714D02*
X161035714Y-108357143D01*
X161250000Y-108428571D01*
X161392857Y-108428571D01*
X161607142Y-108357143D01*
X161750000Y-108214286D01*
X161821428Y-108071429D01*
X161892857Y-107785714D01*
X161892857Y-107571429D01*
X161821428Y-107285714D01*
X161750000Y-107142857D01*
X161607142Y-107000000D01*
X161392857Y-106928571D01*
X161250000Y-106928571D01*
X161035714Y-107000000D01*
X160964285Y-107071429D01*
X159535714Y-108428571D02*
X160392857Y-108428571D01*
X159964285Y-108428571D02*
X159964285Y-106928571D01*
X160107142Y-107142857D01*
X160250000Y-107285714D01*
X160392857Y-107357143D01*
X158107143Y-108428571D02*
X158964286Y-108428571D01*
X158535714Y-108428571D02*
X158535714Y-106928571D01*
X158678571Y-107142857D01*
X158821429Y-107285714D01*
X158964286Y-107357143D01*
X148464285Y-108285714D02*
X148535714Y-108357143D01*
X148750000Y-108428571D01*
X148892857Y-108428571D01*
X149107142Y-108357143D01*
X149250000Y-108214286D01*
X149321428Y-108071429D01*
X149392857Y-107785714D01*
X149392857Y-107571429D01*
X149321428Y-107285714D01*
X149250000Y-107142857D01*
X149107142Y-107000000D01*
X148892857Y-106928571D01*
X148750000Y-106928571D01*
X148535714Y-107000000D01*
X148464285Y-107071429D01*
X147035714Y-108428571D02*
X147892857Y-108428571D01*
X147464285Y-108428571D02*
X147464285Y-106928571D01*
X147607142Y-107142857D01*
X147750000Y-107285714D01*
X147892857Y-107357143D01*
X146107143Y-106928571D02*
X145964286Y-106928571D01*
X145821429Y-107000000D01*
X145750000Y-107071429D01*
X145678571Y-107214286D01*
X145607143Y-107500000D01*
X145607143Y-107857143D01*
X145678571Y-108142857D01*
X145750000Y-108285714D01*
X145821429Y-108357143D01*
X145964286Y-108428571D01*
X146107143Y-108428571D01*
X146250000Y-108357143D01*
X146321429Y-108285714D01*
X146392857Y-108142857D01*
X146464286Y-107857143D01*
X146464286Y-107500000D01*
X146392857Y-107214286D01*
X146321429Y-107071429D01*
X146250000Y-107000000D01*
X146107143Y-106928571D01*
X135249999Y-108285714D02*
X135321428Y-108357143D01*
X135535714Y-108428571D01*
X135678571Y-108428571D01*
X135892856Y-108357143D01*
X136035714Y-108214286D01*
X136107142Y-108071429D01*
X136178571Y-107785714D01*
X136178571Y-107571429D01*
X136107142Y-107285714D01*
X136035714Y-107142857D01*
X135892856Y-107000000D01*
X135678571Y-106928571D01*
X135535714Y-106928571D01*
X135321428Y-107000000D01*
X135249999Y-107071429D01*
X134535714Y-108428571D02*
X134249999Y-108428571D01*
X134107142Y-108357143D01*
X134035714Y-108285714D01*
X133892856Y-108071429D01*
X133821428Y-107785714D01*
X133821428Y-107214286D01*
X133892856Y-107071429D01*
X133964285Y-107000000D01*
X134107142Y-106928571D01*
X134392856Y-106928571D01*
X134535714Y-107000000D01*
X134607142Y-107071429D01*
X134678571Y-107214286D01*
X134678571Y-107571429D01*
X134607142Y-107714286D01*
X134535714Y-107785714D01*
X134392856Y-107857143D01*
X134107142Y-107857143D01*
X133964285Y-107785714D01*
X133892856Y-107714286D01*
X133821428Y-107571429D01*
X122749999Y-108285714D02*
X122821428Y-108357143D01*
X123035714Y-108428571D01*
X123178571Y-108428571D01*
X123392856Y-108357143D01*
X123535714Y-108214286D01*
X123607142Y-108071429D01*
X123678571Y-107785714D01*
X123678571Y-107571429D01*
X123607142Y-107285714D01*
X123535714Y-107142857D01*
X123392856Y-107000000D01*
X123178571Y-106928571D01*
X123035714Y-106928571D01*
X122821428Y-107000000D01*
X122749999Y-107071429D01*
X121892856Y-107571429D02*
X122035714Y-107500000D01*
X122107142Y-107428571D01*
X122178571Y-107285714D01*
X122178571Y-107214286D01*
X122107142Y-107071429D01*
X122035714Y-107000000D01*
X121892856Y-106928571D01*
X121607142Y-106928571D01*
X121464285Y-107000000D01*
X121392856Y-107071429D01*
X121321428Y-107214286D01*
X121321428Y-107285714D01*
X121392856Y-107428571D01*
X121464285Y-107500000D01*
X121607142Y-107571429D01*
X121892856Y-107571429D01*
X122035714Y-107642857D01*
X122107142Y-107714286D01*
X122178571Y-107857143D01*
X122178571Y-108142857D01*
X122107142Y-108285714D01*
X122035714Y-108357143D01*
X121892856Y-108428571D01*
X121607142Y-108428571D01*
X121464285Y-108357143D01*
X121392856Y-108285714D01*
X121321428Y-108142857D01*
X121321428Y-107857143D01*
X121392856Y-107714286D01*
X121464285Y-107642857D01*
X121607142Y-107571429D01*
X110249999Y-108285714D02*
X110321428Y-108357143D01*
X110535714Y-108428571D01*
X110678571Y-108428571D01*
X110892856Y-108357143D01*
X111035714Y-108214286D01*
X111107142Y-108071429D01*
X111178571Y-107785714D01*
X111178571Y-107571429D01*
X111107142Y-107285714D01*
X111035714Y-107142857D01*
X110892856Y-107000000D01*
X110678571Y-106928571D01*
X110535714Y-106928571D01*
X110321428Y-107000000D01*
X110249999Y-107071429D01*
X109749999Y-106928571D02*
X108749999Y-106928571D01*
X109392856Y-108428571D01*
X97749999Y-108285714D02*
X97821428Y-108357143D01*
X98035714Y-108428571D01*
X98178571Y-108428571D01*
X98392856Y-108357143D01*
X98535714Y-108214286D01*
X98607142Y-108071429D01*
X98678571Y-107785714D01*
X98678571Y-107571429D01*
X98607142Y-107285714D01*
X98535714Y-107142857D01*
X98392856Y-107000000D01*
X98178571Y-106928571D01*
X98035714Y-106928571D01*
X97821428Y-107000000D01*
X97749999Y-107071429D01*
X96464285Y-106928571D02*
X96749999Y-106928571D01*
X96892856Y-107000000D01*
X96964285Y-107071429D01*
X97107142Y-107285714D01*
X97178571Y-107571429D01*
X97178571Y-108142857D01*
X97107142Y-108285714D01*
X97035714Y-108357143D01*
X96892856Y-108428571D01*
X96607142Y-108428571D01*
X96464285Y-108357143D01*
X96392856Y-108285714D01*
X96321428Y-108142857D01*
X96321428Y-107785714D01*
X96392856Y-107642857D01*
X96464285Y-107571429D01*
X96607142Y-107500000D01*
X96892856Y-107500000D01*
X97035714Y-107571429D01*
X97107142Y-107642857D01*
X97178571Y-107785714D01*
X85249999Y-108285714D02*
X85321428Y-108357143D01*
X85535714Y-108428571D01*
X85678571Y-108428571D01*
X85892856Y-108357143D01*
X86035714Y-108214286D01*
X86107142Y-108071429D01*
X86178571Y-107785714D01*
X86178571Y-107571429D01*
X86107142Y-107285714D01*
X86035714Y-107142857D01*
X85892856Y-107000000D01*
X85678571Y-106928571D01*
X85535714Y-106928571D01*
X85321428Y-107000000D01*
X85249999Y-107071429D01*
X83892856Y-106928571D02*
X84607142Y-106928571D01*
X84678571Y-107642857D01*
X84607142Y-107571429D01*
X84464285Y-107500000D01*
X84107142Y-107500000D01*
X83964285Y-107571429D01*
X83892856Y-107642857D01*
X83821428Y-107785714D01*
X83821428Y-108142857D01*
X83892856Y-108285714D01*
X83964285Y-108357143D01*
X84107142Y-108428571D01*
X84464285Y-108428571D01*
X84607142Y-108357143D01*
X84678571Y-108285714D01*
X72749999Y-108285714D02*
X72821428Y-108357143D01*
X73035714Y-108428571D01*
X73178571Y-108428571D01*
X73392856Y-108357143D01*
X73535714Y-108214286D01*
X73607142Y-108071429D01*
X73678571Y-107785714D01*
X73678571Y-107571429D01*
X73607142Y-107285714D01*
X73535714Y-107142857D01*
X73392856Y-107000000D01*
X73178571Y-106928571D01*
X73035714Y-106928571D01*
X72821428Y-107000000D01*
X72749999Y-107071429D01*
X71464285Y-107428571D02*
X71464285Y-108428571D01*
X71821428Y-106857143D02*
X72178571Y-107928571D01*
X71249999Y-107928571D01*
X60249999Y-108285714D02*
X60321428Y-108357143D01*
X60535714Y-108428571D01*
X60678571Y-108428571D01*
X60892856Y-108357143D01*
X61035714Y-108214286D01*
X61107142Y-108071429D01*
X61178571Y-107785714D01*
X61178571Y-107571429D01*
X61107142Y-107285714D01*
X61035714Y-107142857D01*
X60892856Y-107000000D01*
X60678571Y-106928571D01*
X60535714Y-106928571D01*
X60321428Y-107000000D01*
X60249999Y-107071429D01*
X59749999Y-106928571D02*
X58821428Y-106928571D01*
X59321428Y-107500000D01*
X59107142Y-107500000D01*
X58964285Y-107571429D01*
X58892856Y-107642857D01*
X58821428Y-107785714D01*
X58821428Y-108142857D01*
X58892856Y-108285714D01*
X58964285Y-108357143D01*
X59107142Y-108428571D01*
X59535714Y-108428571D01*
X59678571Y-108357143D01*
X59749999Y-108285714D01*
X47749999Y-108285714D02*
X47821428Y-108357143D01*
X48035714Y-108428571D01*
X48178571Y-108428571D01*
X48392856Y-108357143D01*
X48535714Y-108214286D01*
X48607142Y-108071429D01*
X48678571Y-107785714D01*
X48678571Y-107571429D01*
X48607142Y-107285714D01*
X48535714Y-107142857D01*
X48392856Y-107000000D01*
X48178571Y-106928571D01*
X48035714Y-106928571D01*
X47821428Y-107000000D01*
X47749999Y-107071429D01*
X47178571Y-107071429D02*
X47107142Y-107000000D01*
X46964285Y-106928571D01*
X46607142Y-106928571D01*
X46464285Y-107000000D01*
X46392856Y-107071429D01*
X46321428Y-107214286D01*
X46321428Y-107357143D01*
X46392856Y-107571429D01*
X47249999Y-108428571D01*
X46321428Y-108428571D01*
X35249999Y-108285714D02*
X35321428Y-108357143D01*
X35535714Y-108428571D01*
X35678571Y-108428571D01*
X35892856Y-108357143D01*
X36035714Y-108214286D01*
X36107142Y-108071429D01*
X36178571Y-107785714D01*
X36178571Y-107571429D01*
X36107142Y-107285714D01*
X36035714Y-107142857D01*
X35892856Y-107000000D01*
X35678571Y-106928571D01*
X35535714Y-106928571D01*
X35321428Y-107000000D01*
X35249999Y-107071429D01*
X33821428Y-108428571D02*
X34678571Y-108428571D01*
X34249999Y-108428571D02*
X34249999Y-106928571D01*
X34392856Y-107142857D01*
X34535714Y-107285714D01*
X34678571Y-107357143D01*
X22749999Y-108285714D02*
X22821428Y-108357143D01*
X23035714Y-108428571D01*
X23178571Y-108428571D01*
X23392856Y-108357143D01*
X23535714Y-108214286D01*
X23607142Y-108071429D01*
X23678571Y-107785714D01*
X23678571Y-107571429D01*
X23607142Y-107285714D01*
X23535714Y-107142857D01*
X23392856Y-107000000D01*
X23178571Y-106928571D01*
X23035714Y-106928571D01*
X22821428Y-107000000D01*
X22749999Y-107071429D01*
X21821428Y-106928571D02*
X21678571Y-106928571D01*
X21535714Y-107000000D01*
X21464285Y-107071429D01*
X21392856Y-107214286D01*
X21321428Y-107500000D01*
X21321428Y-107857143D01*
X21392856Y-108142857D01*
X21464285Y-108285714D01*
X21535714Y-108357143D01*
X21678571Y-108428571D01*
X21821428Y-108428571D01*
X21964285Y-108357143D01*
X22035714Y-108285714D01*
X22107142Y-108142857D01*
X22178571Y-107857143D01*
X22178571Y-107500000D01*
X22107142Y-107214286D01*
X22035714Y-107071429D01*
X21964285Y-107000000D01*
X21821428Y-106928571D01*
X173821428Y-75642857D02*
X173607142Y-75714286D01*
X173535714Y-75785714D01*
X173464285Y-75928571D01*
X173464285Y-76142857D01*
X173535714Y-76285714D01*
X173607142Y-76357143D01*
X173750000Y-76428571D01*
X174321428Y-76428571D01*
X174321428Y-74928571D01*
X173821428Y-74928571D01*
X173678571Y-75000000D01*
X173607142Y-75071429D01*
X173535714Y-75214286D01*
X173535714Y-75357143D01*
X173607142Y-75500000D01*
X173678571Y-75571429D01*
X173821428Y-75642857D01*
X174321428Y-75642857D01*
X172035714Y-76428571D02*
X172892857Y-76428571D01*
X172464285Y-76428571D02*
X172464285Y-74928571D01*
X172607142Y-75142857D01*
X172750000Y-75285714D01*
X172892857Y-75357143D01*
X171464286Y-75071429D02*
X171392857Y-75000000D01*
X171250000Y-74928571D01*
X170892857Y-74928571D01*
X170750000Y-75000000D01*
X170678571Y-75071429D01*
X170607143Y-75214286D01*
X170607143Y-75357143D01*
X170678571Y-75571429D01*
X171535714Y-76428571D01*
X170607143Y-76428571D01*
X161321428Y-75642857D02*
X161107142Y-75714286D01*
X161035714Y-75785714D01*
X160964285Y-75928571D01*
X160964285Y-76142857D01*
X161035714Y-76285714D01*
X161107142Y-76357143D01*
X161250000Y-76428571D01*
X161821428Y-76428571D01*
X161821428Y-74928571D01*
X161321428Y-74928571D01*
X161178571Y-75000000D01*
X161107142Y-75071429D01*
X161035714Y-75214286D01*
X161035714Y-75357143D01*
X161107142Y-75500000D01*
X161178571Y-75571429D01*
X161321428Y-75642857D01*
X161821428Y-75642857D01*
X159535714Y-76428571D02*
X160392857Y-76428571D01*
X159964285Y-76428571D02*
X159964285Y-74928571D01*
X160107142Y-75142857D01*
X160250000Y-75285714D01*
X160392857Y-75357143D01*
X158107143Y-76428571D02*
X158964286Y-76428571D01*
X158535714Y-76428571D02*
X158535714Y-74928571D01*
X158678571Y-75142857D01*
X158821429Y-75285714D01*
X158964286Y-75357143D01*
X148821428Y-75642857D02*
X148607142Y-75714286D01*
X148535714Y-75785714D01*
X148464285Y-75928571D01*
X148464285Y-76142857D01*
X148535714Y-76285714D01*
X148607142Y-76357143D01*
X148750000Y-76428571D01*
X149321428Y-76428571D01*
X149321428Y-74928571D01*
X148821428Y-74928571D01*
X148678571Y-75000000D01*
X148607142Y-75071429D01*
X148535714Y-75214286D01*
X148535714Y-75357143D01*
X148607142Y-75500000D01*
X148678571Y-75571429D01*
X148821428Y-75642857D01*
X149321428Y-75642857D01*
X147035714Y-76428571D02*
X147892857Y-76428571D01*
X147464285Y-76428571D02*
X147464285Y-74928571D01*
X147607142Y-75142857D01*
X147750000Y-75285714D01*
X147892857Y-75357143D01*
X146107143Y-74928571D02*
X145964286Y-74928571D01*
X145821429Y-75000000D01*
X145750000Y-75071429D01*
X145678571Y-75214286D01*
X145607143Y-75500000D01*
X145607143Y-75857143D01*
X145678571Y-76142857D01*
X145750000Y-76285714D01*
X145821429Y-76357143D01*
X145964286Y-76428571D01*
X146107143Y-76428571D01*
X146250000Y-76357143D01*
X146321429Y-76285714D01*
X146392857Y-76142857D01*
X146464286Y-75857143D01*
X146464286Y-75500000D01*
X146392857Y-75214286D01*
X146321429Y-75071429D01*
X146250000Y-75000000D01*
X146107143Y-74928571D01*
X135607142Y-75642857D02*
X135392856Y-75714286D01*
X135321428Y-75785714D01*
X135249999Y-75928571D01*
X135249999Y-76142857D01*
X135321428Y-76285714D01*
X135392856Y-76357143D01*
X135535714Y-76428571D01*
X136107142Y-76428571D01*
X136107142Y-74928571D01*
X135607142Y-74928571D01*
X135464285Y-75000000D01*
X135392856Y-75071429D01*
X135321428Y-75214286D01*
X135321428Y-75357143D01*
X135392856Y-75500000D01*
X135464285Y-75571429D01*
X135607142Y-75642857D01*
X136107142Y-75642857D01*
X134535714Y-76428571D02*
X134249999Y-76428571D01*
X134107142Y-76357143D01*
X134035714Y-76285714D01*
X133892856Y-76071429D01*
X133821428Y-75785714D01*
X133821428Y-75214286D01*
X133892856Y-75071429D01*
X133964285Y-75000000D01*
X134107142Y-74928571D01*
X134392856Y-74928571D01*
X134535714Y-75000000D01*
X134607142Y-75071429D01*
X134678571Y-75214286D01*
X134678571Y-75571429D01*
X134607142Y-75714286D01*
X134535714Y-75785714D01*
X134392856Y-75857143D01*
X134107142Y-75857143D01*
X133964285Y-75785714D01*
X133892856Y-75714286D01*
X133821428Y-75571429D01*
X123107142Y-75642857D02*
X122892856Y-75714286D01*
X122821428Y-75785714D01*
X122749999Y-75928571D01*
X122749999Y-76142857D01*
X122821428Y-76285714D01*
X122892856Y-76357143D01*
X123035714Y-76428571D01*
X123607142Y-76428571D01*
X123607142Y-74928571D01*
X123107142Y-74928571D01*
X122964285Y-75000000D01*
X122892856Y-75071429D01*
X122821428Y-75214286D01*
X122821428Y-75357143D01*
X122892856Y-75500000D01*
X122964285Y-75571429D01*
X123107142Y-75642857D01*
X123607142Y-75642857D01*
X121892856Y-75571429D02*
X122035714Y-75500000D01*
X122107142Y-75428571D01*
X122178571Y-75285714D01*
X122178571Y-75214286D01*
X122107142Y-75071429D01*
X122035714Y-75000000D01*
X121892856Y-74928571D01*
X121607142Y-74928571D01*
X121464285Y-75000000D01*
X121392856Y-75071429D01*
X121321428Y-75214286D01*
X121321428Y-75285714D01*
X121392856Y-75428571D01*
X121464285Y-75500000D01*
X121607142Y-75571429D01*
X121892856Y-75571429D01*
X122035714Y-75642857D01*
X122107142Y-75714286D01*
X122178571Y-75857143D01*
X122178571Y-76142857D01*
X122107142Y-76285714D01*
X122035714Y-76357143D01*
X121892856Y-76428571D01*
X121607142Y-76428571D01*
X121464285Y-76357143D01*
X121392856Y-76285714D01*
X121321428Y-76142857D01*
X121321428Y-75857143D01*
X121392856Y-75714286D01*
X121464285Y-75642857D01*
X121607142Y-75571429D01*
X110607142Y-75642857D02*
X110392856Y-75714286D01*
X110321428Y-75785714D01*
X110249999Y-75928571D01*
X110249999Y-76142857D01*
X110321428Y-76285714D01*
X110392856Y-76357143D01*
X110535714Y-76428571D01*
X111107142Y-76428571D01*
X111107142Y-74928571D01*
X110607142Y-74928571D01*
X110464285Y-75000000D01*
X110392856Y-75071429D01*
X110321428Y-75214286D01*
X110321428Y-75357143D01*
X110392856Y-75500000D01*
X110464285Y-75571429D01*
X110607142Y-75642857D01*
X111107142Y-75642857D01*
X109749999Y-74928571D02*
X108749999Y-74928571D01*
X109392856Y-76428571D01*
X98107142Y-75642857D02*
X97892856Y-75714286D01*
X97821428Y-75785714D01*
X97749999Y-75928571D01*
X97749999Y-76142857D01*
X97821428Y-76285714D01*
X97892856Y-76357143D01*
X98035714Y-76428571D01*
X98607142Y-76428571D01*
X98607142Y-74928571D01*
X98107142Y-74928571D01*
X97964285Y-75000000D01*
X97892856Y-75071429D01*
X97821428Y-75214286D01*
X97821428Y-75357143D01*
X97892856Y-75500000D01*
X97964285Y-75571429D01*
X98107142Y-75642857D01*
X98607142Y-75642857D01*
X96464285Y-74928571D02*
X96749999Y-74928571D01*
X96892856Y-75000000D01*
X96964285Y-75071429D01*
X97107142Y-75285714D01*
X97178571Y-75571429D01*
X97178571Y-76142857D01*
X97107142Y-76285714D01*
X97035714Y-76357143D01*
X96892856Y-76428571D01*
X96607142Y-76428571D01*
X96464285Y-76357143D01*
X96392856Y-76285714D01*
X96321428Y-76142857D01*
X96321428Y-75785714D01*
X96392856Y-75642857D01*
X96464285Y-75571429D01*
X96607142Y-75500000D01*
X96892856Y-75500000D01*
X97035714Y-75571429D01*
X97107142Y-75642857D01*
X97178571Y-75785714D01*
X85607142Y-75642857D02*
X85392856Y-75714286D01*
X85321428Y-75785714D01*
X85249999Y-75928571D01*
X85249999Y-76142857D01*
X85321428Y-76285714D01*
X85392856Y-76357143D01*
X85535714Y-76428571D01*
X86107142Y-76428571D01*
X86107142Y-74928571D01*
X85607142Y-74928571D01*
X85464285Y-75000000D01*
X85392856Y-75071429D01*
X85321428Y-75214286D01*
X85321428Y-75357143D01*
X85392856Y-75500000D01*
X85464285Y-75571429D01*
X85607142Y-75642857D01*
X86107142Y-75642857D01*
X83892856Y-74928571D02*
X84607142Y-74928571D01*
X84678571Y-75642857D01*
X84607142Y-75571429D01*
X84464285Y-75500000D01*
X84107142Y-75500000D01*
X83964285Y-75571429D01*
X83892856Y-75642857D01*
X83821428Y-75785714D01*
X83821428Y-76142857D01*
X83892856Y-76285714D01*
X83964285Y-76357143D01*
X84107142Y-76428571D01*
X84464285Y-76428571D01*
X84607142Y-76357143D01*
X84678571Y-76285714D01*
X73107142Y-75642857D02*
X72892856Y-75714286D01*
X72821428Y-75785714D01*
X72749999Y-75928571D01*
X72749999Y-76142857D01*
X72821428Y-76285714D01*
X72892856Y-76357143D01*
X73035714Y-76428571D01*
X73607142Y-76428571D01*
X73607142Y-74928571D01*
X73107142Y-74928571D01*
X72964285Y-75000000D01*
X72892856Y-75071429D01*
X72821428Y-75214286D01*
X72821428Y-75357143D01*
X72892856Y-75500000D01*
X72964285Y-75571429D01*
X73107142Y-75642857D01*
X73607142Y-75642857D01*
X71464285Y-75428571D02*
X71464285Y-76428571D01*
X71821428Y-74857143D02*
X72178571Y-75928571D01*
X71249999Y-75928571D01*
X60607142Y-75642857D02*
X60392856Y-75714286D01*
X60321428Y-75785714D01*
X60249999Y-75928571D01*
X60249999Y-76142857D01*
X60321428Y-76285714D01*
X60392856Y-76357143D01*
X60535714Y-76428571D01*
X61107142Y-76428571D01*
X61107142Y-74928571D01*
X60607142Y-74928571D01*
X60464285Y-75000000D01*
X60392856Y-75071429D01*
X60321428Y-75214286D01*
X60321428Y-75357143D01*
X60392856Y-75500000D01*
X60464285Y-75571429D01*
X60607142Y-75642857D01*
X61107142Y-75642857D01*
X59749999Y-74928571D02*
X58821428Y-74928571D01*
X59321428Y-75500000D01*
X59107142Y-75500000D01*
X58964285Y-75571429D01*
X58892856Y-75642857D01*
X58821428Y-75785714D01*
X58821428Y-76142857D01*
X58892856Y-76285714D01*
X58964285Y-76357143D01*
X59107142Y-76428571D01*
X59535714Y-76428571D01*
X59678571Y-76357143D01*
X59749999Y-76285714D01*
X48107142Y-75642857D02*
X47892856Y-75714286D01*
X47821428Y-75785714D01*
X47749999Y-75928571D01*
X47749999Y-76142857D01*
X47821428Y-76285714D01*
X47892856Y-76357143D01*
X48035714Y-76428571D01*
X48607142Y-76428571D01*
X48607142Y-74928571D01*
X48107142Y-74928571D01*
X47964285Y-75000000D01*
X47892856Y-75071429D01*
X47821428Y-75214286D01*
X47821428Y-75357143D01*
X47892856Y-75500000D01*
X47964285Y-75571429D01*
X48107142Y-75642857D01*
X48607142Y-75642857D01*
X47178571Y-75071429D02*
X47107142Y-75000000D01*
X46964285Y-74928571D01*
X46607142Y-74928571D01*
X46464285Y-75000000D01*
X46392856Y-75071429D01*
X46321428Y-75214286D01*
X46321428Y-75357143D01*
X46392856Y-75571429D01*
X47249999Y-76428571D01*
X46321428Y-76428571D01*
X36178571Y-75642857D02*
X35964285Y-75714286D01*
X35892857Y-75785714D01*
X35821428Y-75928571D01*
X35821428Y-76142857D01*
X35892857Y-76285714D01*
X35964285Y-76357143D01*
X36107143Y-76428571D01*
X36678571Y-76428571D01*
X36678571Y-74928571D01*
X36178571Y-74928571D01*
X36035714Y-75000000D01*
X35964285Y-75071429D01*
X35892857Y-75214286D01*
X35892857Y-75357143D01*
X35964285Y-75500000D01*
X36035714Y-75571429D01*
X36178571Y-75642857D01*
X36678571Y-75642857D01*
X33250000Y-76428571D02*
X34107143Y-76428571D01*
X33678571Y-76428571D02*
X33678571Y-74928571D01*
X33821428Y-75142857D01*
X33964286Y-75285714D01*
X34107143Y-75357143D01*
X23107142Y-75642857D02*
X22892856Y-75714286D01*
X22821428Y-75785714D01*
X22749999Y-75928571D01*
X22749999Y-76142857D01*
X22821428Y-76285714D01*
X22892856Y-76357143D01*
X23035714Y-76428571D01*
X23607142Y-76428571D01*
X23607142Y-74928571D01*
X23107142Y-74928571D01*
X22964285Y-75000000D01*
X22892856Y-75071429D01*
X22821428Y-75214286D01*
X22821428Y-75357143D01*
X22892856Y-75500000D01*
X22964285Y-75571429D01*
X23107142Y-75642857D01*
X23607142Y-75642857D01*
X21821428Y-74928571D02*
X21678571Y-74928571D01*
X21535714Y-75000000D01*
X21464285Y-75071429D01*
X21392856Y-75214286D01*
X21321428Y-75500000D01*
X21321428Y-75857143D01*
X21392856Y-76142857D01*
X21464285Y-76285714D01*
X21535714Y-76357143D01*
X21678571Y-76428571D01*
X21821428Y-76428571D01*
X21964285Y-76357143D01*
X22035714Y-76285714D01*
X22107142Y-76142857D01*
X22178571Y-75857143D01*
X22178571Y-75500000D01*
X22107142Y-75214286D01*
X22035714Y-75071429D01*
X21964285Y-75000000D01*
X21821428Y-74928571D01*
X174285714Y-44000000D02*
X173571428Y-44000000D01*
X174428571Y-44428571D02*
X173928571Y-42928571D01*
X173428571Y-44428571D01*
X172142857Y-44428571D02*
X173000000Y-44428571D01*
X172571428Y-44428571D02*
X172571428Y-42928571D01*
X172714285Y-43142857D01*
X172857143Y-43285714D01*
X173000000Y-43357143D01*
X171571429Y-43071429D02*
X171500000Y-43000000D01*
X171357143Y-42928571D01*
X171000000Y-42928571D01*
X170857143Y-43000000D01*
X170785714Y-43071429D01*
X170714286Y-43214286D01*
X170714286Y-43357143D01*
X170785714Y-43571429D01*
X171642857Y-44428571D01*
X170714286Y-44428571D01*
X161785714Y-44000000D02*
X161071428Y-44000000D01*
X161928571Y-44428571D02*
X161428571Y-42928571D01*
X160928571Y-44428571D01*
X159642857Y-44428571D02*
X160500000Y-44428571D01*
X160071428Y-44428571D02*
X160071428Y-42928571D01*
X160214285Y-43142857D01*
X160357143Y-43285714D01*
X160500000Y-43357143D01*
X158214286Y-44428571D02*
X159071429Y-44428571D01*
X158642857Y-44428571D02*
X158642857Y-42928571D01*
X158785714Y-43142857D01*
X158928572Y-43285714D01*
X159071429Y-43357143D01*
X149285714Y-44000000D02*
X148571428Y-44000000D01*
X149428571Y-44428571D02*
X148928571Y-42928571D01*
X148428571Y-44428571D01*
X147142857Y-44428571D02*
X148000000Y-44428571D01*
X147571428Y-44428571D02*
X147571428Y-42928571D01*
X147714285Y-43142857D01*
X147857143Y-43285714D01*
X148000000Y-43357143D01*
X146214286Y-42928571D02*
X146071429Y-42928571D01*
X145928572Y-43000000D01*
X145857143Y-43071429D01*
X145785714Y-43214286D01*
X145714286Y-43500000D01*
X145714286Y-43857143D01*
X145785714Y-44142857D01*
X145857143Y-44285714D01*
X145928572Y-44357143D01*
X146071429Y-44428571D01*
X146214286Y-44428571D01*
X146357143Y-44357143D01*
X146428572Y-44285714D01*
X146500000Y-44142857D01*
X146571429Y-43857143D01*
X146571429Y-43500000D01*
X146500000Y-43214286D01*
X146428572Y-43071429D01*
X146357143Y-43000000D01*
X146214286Y-42928571D01*
X136071428Y-44000000D02*
X135357142Y-44000000D01*
X136214285Y-44428571D02*
X135714285Y-42928571D01*
X135214285Y-44428571D01*
X134642857Y-44428571D02*
X134357142Y-44428571D01*
X134214285Y-44357143D01*
X134142857Y-44285714D01*
X133999999Y-44071429D01*
X133928571Y-43785714D01*
X133928571Y-43214286D01*
X133999999Y-43071429D01*
X134071428Y-43000000D01*
X134214285Y-42928571D01*
X134499999Y-42928571D01*
X134642857Y-43000000D01*
X134714285Y-43071429D01*
X134785714Y-43214286D01*
X134785714Y-43571429D01*
X134714285Y-43714286D01*
X134642857Y-43785714D01*
X134499999Y-43857143D01*
X134214285Y-43857143D01*
X134071428Y-43785714D01*
X133999999Y-43714286D01*
X133928571Y-43571429D01*
X123571428Y-44000000D02*
X122857142Y-44000000D01*
X123714285Y-44428571D02*
X123214285Y-42928571D01*
X122714285Y-44428571D01*
X121999999Y-43571429D02*
X122142857Y-43500000D01*
X122214285Y-43428571D01*
X122285714Y-43285714D01*
X122285714Y-43214286D01*
X122214285Y-43071429D01*
X122142857Y-43000000D01*
X121999999Y-42928571D01*
X121714285Y-42928571D01*
X121571428Y-43000000D01*
X121499999Y-43071429D01*
X121428571Y-43214286D01*
X121428571Y-43285714D01*
X121499999Y-43428571D01*
X121571428Y-43500000D01*
X121714285Y-43571429D01*
X121999999Y-43571429D01*
X122142857Y-43642857D01*
X122214285Y-43714286D01*
X122285714Y-43857143D01*
X122285714Y-44142857D01*
X122214285Y-44285714D01*
X122142857Y-44357143D01*
X121999999Y-44428571D01*
X121714285Y-44428571D01*
X121571428Y-44357143D01*
X121499999Y-44285714D01*
X121428571Y-44142857D01*
X121428571Y-43857143D01*
X121499999Y-43714286D01*
X121571428Y-43642857D01*
X121714285Y-43571429D01*
X111071428Y-44000000D02*
X110357142Y-44000000D01*
X111214285Y-44428571D02*
X110714285Y-42928571D01*
X110214285Y-44428571D01*
X109857142Y-42928571D02*
X108857142Y-42928571D01*
X109499999Y-44428571D01*
X98571428Y-44000000D02*
X97857142Y-44000000D01*
X98714285Y-44428571D02*
X98214285Y-42928571D01*
X97714285Y-44428571D01*
X96571428Y-42928571D02*
X96857142Y-42928571D01*
X96999999Y-43000000D01*
X97071428Y-43071429D01*
X97214285Y-43285714D01*
X97285714Y-43571429D01*
X97285714Y-44142857D01*
X97214285Y-44285714D01*
X97142857Y-44357143D01*
X96999999Y-44428571D01*
X96714285Y-44428571D01*
X96571428Y-44357143D01*
X96499999Y-44285714D01*
X96428571Y-44142857D01*
X96428571Y-43785714D01*
X96499999Y-43642857D01*
X96571428Y-43571429D01*
X96714285Y-43500000D01*
X96999999Y-43500000D01*
X97142857Y-43571429D01*
X97214285Y-43642857D01*
X97285714Y-43785714D01*
X86071428Y-44000000D02*
X85357142Y-44000000D01*
X86214285Y-44428571D02*
X85714285Y-42928571D01*
X85214285Y-44428571D01*
X83999999Y-42928571D02*
X84714285Y-42928571D01*
X84785714Y-43642857D01*
X84714285Y-43571429D01*
X84571428Y-43500000D01*
X84214285Y-43500000D01*
X84071428Y-43571429D01*
X83999999Y-43642857D01*
X83928571Y-43785714D01*
X83928571Y-44142857D01*
X83999999Y-44285714D01*
X84071428Y-44357143D01*
X84214285Y-44428571D01*
X84571428Y-44428571D01*
X84714285Y-44357143D01*
X84785714Y-44285714D01*
X73571428Y-44000000D02*
X72857142Y-44000000D01*
X73714285Y-44428571D02*
X73214285Y-42928571D01*
X72714285Y-44428571D01*
X71571428Y-43428571D02*
X71571428Y-44428571D01*
X71928571Y-42857143D02*
X72285714Y-43928571D01*
X71357142Y-43928571D01*
X61071428Y-44000000D02*
X60357142Y-44000000D01*
X61214285Y-44428571D02*
X60714285Y-42928571D01*
X60214285Y-44428571D01*
X59857142Y-42928571D02*
X58928571Y-42928571D01*
X59428571Y-43500000D01*
X59214285Y-43500000D01*
X59071428Y-43571429D01*
X58999999Y-43642857D01*
X58928571Y-43785714D01*
X58928571Y-44142857D01*
X58999999Y-44285714D01*
X59071428Y-44357143D01*
X59214285Y-44428571D01*
X59642857Y-44428571D01*
X59785714Y-44357143D01*
X59857142Y-44285714D01*
X48571428Y-44000000D02*
X47857142Y-44000000D01*
X48714285Y-44428571D02*
X48214285Y-42928571D01*
X47714285Y-44428571D01*
X47285714Y-43071429D02*
X47214285Y-43000000D01*
X47071428Y-42928571D01*
X46714285Y-42928571D01*
X46571428Y-43000000D01*
X46499999Y-43071429D01*
X46428571Y-43214286D01*
X46428571Y-43357143D01*
X46499999Y-43571429D01*
X47357142Y-44428571D01*
X46428571Y-44428571D01*
X36071428Y-44000000D02*
X35357142Y-44000000D01*
X36214285Y-44428571D02*
X35714285Y-42928571D01*
X35214285Y-44428571D01*
X33928571Y-44428571D02*
X34785714Y-44428571D01*
X34357142Y-44428571D02*
X34357142Y-42928571D01*
X34499999Y-43142857D01*
X34642857Y-43285714D01*
X34785714Y-43357143D01*
D12*
X22000000Y-40000000D02*
X23000000Y-40000000D01*
D11*
X23571428Y-44000000D02*
X22857142Y-44000000D01*
X23714285Y-44428571D02*
X23214285Y-42928571D01*
X22714285Y-44428571D01*
X21928571Y-42928571D02*
X21785714Y-42928571D01*
X21642857Y-43000000D01*
X21571428Y-43071429D01*
X21499999Y-43214286D01*
X21428571Y-43500000D01*
X21428571Y-43857143D01*
X21499999Y-44142857D01*
X21571428Y-44285714D01*
X21642857Y-44357143D01*
X21785714Y-44428571D01*
X21928571Y-44428571D01*
X22071428Y-44357143D01*
X22142857Y-44285714D01*
X22214285Y-44142857D01*
X22285714Y-43857143D01*
X22285714Y-43500000D01*
X22214285Y-43214286D01*
X22142857Y-43071429D01*
X22071428Y-43000000D01*
X21928571Y-42928571D01*
M02*
